<svg width="611" height="458" viewBox="0 0 611 458" fill="none" xmlns="http://www.w3.org/2000/svg">
<path d="M564.833 290.083V250.75H529.25V265.5H498.75V250.75H463.167V290.083H498.75V275.333H508.917V324.5H529.25V339.25H564.833V299.917H529.25V314.667H519.083V275.333H529.25V290.083H564.833ZM488.583 280.25H473.333V260.583H488.583V280.25ZM539.417 309.75H554.667V329.417H539.417V309.75ZM539.417 260.583H554.667V280.25H539.417V260.583Z" fill="#DBEAF6"/>
<path d="M81.5 271.896C78.2316 271.896 75.4345 270.769 73.1089 268.514C70.7794 266.256 69.6146 263.543 69.6146 260.375C69.6146 257.207 70.7794 254.494 73.1089 252.236C75.4345 249.981 78.2316 248.854 81.5 248.854C84.7685 248.854 87.5676 249.981 89.8971 252.236C92.2227 254.494 93.3855 257.207 93.3855 260.375C93.3855 263.543 92.2227 266.256 89.8971 268.514C87.5676 270.769 84.7685 271.896 81.5 271.896ZM45.8438 168.208C42.5753 168.208 39.7783 167.079 37.4527 164.821C35.1231 162.567 33.9584 159.856 33.9584 156.688C33.9584 153.519 35.1231 150.806 37.4527 148.548C39.7783 146.294 42.5753 145.167 45.8438 145.167C49.1123 145.167 51.9093 146.294 54.2349 148.548C56.5644 150.806 57.7292 153.519 57.7292 156.688C57.7292 159.856 56.5644 162.567 54.2349 164.821C51.9093 167.079 49.1123 168.208 45.8438 168.208ZM45.8438 202.771C42.5753 202.771 39.7783 201.642 37.4527 199.384C35.1231 197.129 33.9584 194.418 33.9584 191.25C33.9584 188.082 35.1231 185.369 37.4527 183.111C39.7783 180.856 42.5753 179.729 45.8438 179.729C49.1123 179.729 51.9093 180.856 54.2349 183.111C56.5644 185.369 57.7292 188.082 57.7292 191.25C57.7292 194.418 56.5644 197.129 54.2349 199.384C51.9093 201.642 49.1123 202.771 45.8438 202.771ZM45.8438 237.333C42.5753 237.333 39.7783 236.206 37.4527 233.952C35.1231 231.694 33.9584 228.981 33.9584 225.813C33.9584 222.644 35.1231 219.931 37.4527 217.673C39.7783 215.419 42.5753 214.292 45.8438 214.292C49.1123 214.292 51.9093 215.419 54.2349 217.673C56.5644 219.931 57.7292 222.644 57.7292 225.813C57.7292 228.981 56.5644 231.694 54.2349 233.952C51.9093 236.206 49.1123 237.333 45.8438 237.333ZM117.156 168.208C113.888 168.208 111.089 167.079 108.759 164.821C106.434 162.567 105.271 159.856 105.271 156.688C105.271 153.519 106.434 150.806 108.759 148.548C111.089 146.294 113.888 145.167 117.156 145.167C120.425 145.167 123.224 146.294 125.553 148.548C127.879 150.806 129.042 153.519 129.042 156.688C129.042 159.856 127.879 162.567 125.553 164.821C123.224 167.079 120.425 168.208 117.156 168.208ZM81.5 237.333C78.2316 237.333 75.4345 236.206 73.1089 233.952C70.7794 231.694 69.6146 228.981 69.6146 225.813C69.6146 222.644 70.7794 219.931 73.1089 217.673C75.4345 215.419 78.2316 214.292 81.5 214.292C84.7685 214.292 87.5676 215.419 89.8971 217.673C92.2227 219.931 93.3855 222.644 93.3855 225.813C93.3855 228.981 92.2227 231.694 89.8971 233.952C87.5676 236.206 84.7685 237.333 81.5 237.333ZM117.156 237.333C113.888 237.333 111.089 236.206 108.759 233.952C106.434 231.694 105.271 228.981 105.271 225.813C105.271 222.644 106.434 219.931 108.759 217.673C111.089 215.419 113.888 214.292 117.156 214.292C120.425 214.292 123.224 215.419 125.553 217.673C127.879 219.931 129.042 222.644 129.042 225.813C129.042 228.981 127.879 231.694 125.553 233.952C123.224 236.206 120.425 237.333 117.156 237.333ZM117.156 202.771C113.888 202.771 111.089 201.642 108.759 199.384C106.434 197.129 105.271 194.418 105.271 191.25C105.271 188.082 106.434 185.369 108.759 183.111C111.089 180.856 113.888 179.729 117.156 179.729C120.425 179.729 123.224 180.856 125.553 183.111C127.879 185.369 129.042 188.082 129.042 191.25C129.042 194.418 127.879 197.129 125.553 199.384C123.224 201.642 120.425 202.771 117.156 202.771ZM81.5 202.771C78.2316 202.771 75.4345 201.642 73.1089 199.384C70.7794 197.129 69.6146 194.418 69.6146 191.25C69.6146 188.082 70.7794 185.369 73.1089 183.111C75.4345 180.856 78.2316 179.729 81.5 179.729C84.7685 179.729 87.5676 180.856 89.8971 183.111C92.2227 185.369 93.3855 188.082 93.3855 191.25C93.3855 194.418 92.2227 197.129 89.8971 199.384C87.5676 201.642 84.7685 202.771 81.5 202.771ZM81.5 168.208C78.2316 168.208 75.4345 167.079 73.1089 164.821C70.7794 162.567 69.6146 159.856 69.6146 156.688C69.6146 153.519 70.7794 150.806 73.1089 148.548C75.4345 146.294 78.2316 145.167 81.5 145.167C84.7685 145.167 87.5676 146.294 89.8971 148.548C92.2227 150.806 93.3855 153.519 93.3855 156.688C93.3855 159.856 92.2227 162.567 89.8971 164.821C87.5676 167.079 84.7685 168.208 81.5 168.208Z" fill="#DBEAF6"/>
<path d="M304 86C303.448 86 303 86.4477 303 87C303 87.5523 303.448 88 304 88V86ZM374.868 87.7071C375.258 87.3166 375.258 86.6834 374.868 86.2929L368.504 79.9289C368.113 79.5384 367.48 79.5384 367.089 79.9289C366.699 80.3195 366.699 80.9526 367.089 81.3431L372.746 87L367.089 92.6569C366.699 93.0474 366.699 93.6805 367.089 94.0711C367.48 94.4616 368.113 94.4616 368.504 94.0711L374.868 87.7071ZM304 88H374.16V86H304V88Z" fill="#B3B3B3"/>
<path d="M376 168C375.448 168 375 168.448 375 169C375 169.552 375.448 170 376 170V168ZM446.868 169.707C447.258 169.317 447.258 168.683 446.868 168.293L440.504 161.929C440.113 161.538 439.48 161.538 439.089 161.929C438.699 162.319 438.699 162.953 439.089 163.343L444.746 169L439.089 174.657C438.699 175.047 438.699 175.681 439.089 176.071C439.48 176.462 440.113 176.462 440.504 176.071L446.868 169.707ZM376 170H446.161V168H376V170Z" fill="#B3B3B3"/>
<rect x="208" y="69" width="80" height="36" rx="8" fill="#1E75BA"/>
<path d="M225.119 92V81.8182H228.748C229.54 81.8182 230.196 81.9624 230.717 82.2507C231.237 82.5391 231.626 82.9335 231.885 83.4339C232.143 83.9311 232.273 84.4912 232.273 85.1143C232.273 85.7408 232.142 86.3042 231.88 86.8047C231.621 87.3018 231.23 87.6963 230.707 87.9879C230.186 88.2763 229.532 88.4205 228.743 88.4205H226.247V87.1179H228.604C229.104 87.1179 229.51 87.0317 229.822 86.8594C230.133 86.6837 230.362 86.4451 230.508 86.1435C230.654 85.8419 230.727 85.4988 230.727 85.1143C230.727 84.7299 230.654 84.3885 230.508 84.0902C230.362 83.7919 230.132 83.5582 229.817 83.3892C229.505 83.2202 229.094 83.1357 228.584 83.1357H226.655V92H225.119ZM233.954 92V84.3636H235.391V85.5767H235.471C235.61 85.1657 235.855 84.8426 236.206 84.6072C236.561 84.3686 236.962 84.2493 237.41 84.2493C237.502 84.2493 237.612 84.2526 237.738 84.2592C237.867 84.2659 237.968 84.2741 238.041 84.2841V85.706C237.981 85.6894 237.875 85.6712 237.723 85.6513C237.57 85.6281 237.418 85.6165 237.265 85.6165C236.914 85.6165 236.601 85.6911 236.326 85.8402C236.054 85.986 235.839 86.1899 235.68 86.4517C235.52 86.7102 235.441 87.0052 235.441 87.3366V92H233.954ZM242.345 92.1541C241.593 92.1541 240.945 91.9934 240.401 91.6719C239.861 91.3471 239.443 90.8913 239.148 90.3047C238.857 89.7147 238.711 89.0237 238.711 88.2315C238.711 87.4493 238.857 86.7599 239.148 86.1634C239.443 85.5668 239.854 85.1011 240.381 84.7663C240.912 84.4316 241.531 84.2642 242.241 84.2642C242.672 84.2642 243.089 84.3355 243.494 84.478C243.898 84.6205 244.261 84.8442 244.582 85.1491C244.904 85.4541 245.157 85.8501 245.343 86.3374C245.529 86.8213 245.621 87.4096 245.621 88.1023V88.6293H239.551V87.5156H244.165C244.165 87.1245 244.085 86.7782 243.926 86.4766C243.767 86.1716 243.543 85.9313 243.255 85.7557C242.97 85.58 242.635 85.4922 242.251 85.4922C241.833 85.4922 241.469 85.5949 241.157 85.8004C240.849 86.0026 240.61 86.2678 240.441 86.5959C240.275 86.9207 240.192 87.2737 240.192 87.6548V88.5249C240.192 89.0353 240.282 89.4695 240.461 89.8274C240.643 90.1854 240.897 90.4588 241.222 90.6477C241.546 90.8333 241.926 90.9261 242.36 90.9261C242.642 90.9261 242.899 90.8864 243.131 90.8068C243.363 90.724 243.563 90.6013 243.732 90.4389C243.901 90.2765 244.031 90.076 244.12 89.8374L245.527 90.0909C245.414 90.5052 245.212 90.8681 244.92 91.1797C244.632 91.4879 244.269 91.7282 243.832 91.9006C243.397 92.0696 242.902 92.1541 242.345 92.1541ZM252.993 86.228L251.646 86.4666C251.589 86.2943 251.5 86.1302 251.377 85.9744C251.258 85.8187 251.096 85.6911 250.89 85.5916C250.685 85.4922 250.428 85.4425 250.119 85.4425C249.699 85.4425 249.347 85.5369 249.066 85.7259C248.784 85.9115 248.643 86.1518 248.643 86.4467C248.643 86.7019 248.737 86.9074 248.926 87.0632C249.115 87.219 249.42 87.3466 249.841 87.446L251.054 87.7244C251.757 87.8868 252.28 88.1371 252.625 88.4751C252.97 88.8132 253.142 89.2524 253.142 89.7926C253.142 90.25 253.01 90.6577 252.744 91.0156C252.483 91.3703 252.116 91.6487 251.646 91.8509C251.178 92.053 250.637 92.1541 250.02 92.1541C249.165 92.1541 248.467 91.9718 247.927 91.6072C247.387 91.2393 247.055 90.7173 246.933 90.0412L248.369 89.8224C248.459 90.197 248.643 90.4804 248.921 90.6726C249.2 90.8615 249.563 90.956 250.01 90.956C250.497 90.956 250.887 90.8549 251.178 90.6527C251.47 90.4472 251.616 90.197 251.616 89.902C251.616 89.6634 251.526 89.4628 251.347 89.3004C251.172 89.138 250.902 89.0154 250.537 88.9325L249.244 88.6491C248.532 88.4867 248.005 88.2282 247.664 87.8736C247.325 87.5189 247.156 87.0698 247.156 86.5263C247.156 86.0755 247.282 85.6811 247.534 85.343C247.786 85.005 248.134 84.7415 248.578 84.5526C249.022 84.3603 249.531 84.2642 250.105 84.2642C250.93 84.2642 251.579 84.4432 252.053 84.8011C252.527 85.1558 252.841 85.6314 252.993 86.228ZM260.499 86.228L259.152 86.4666C259.095 86.2943 259.006 86.1302 258.883 85.9744C258.764 85.8187 258.601 85.6911 258.396 85.5916C258.19 85.4922 257.934 85.4425 257.625 85.4425C257.204 85.4425 256.853 85.5369 256.571 85.7259C256.29 85.9115 256.149 86.1518 256.149 86.4467C256.149 86.7019 256.243 86.9074 256.432 87.0632C256.621 87.219 256.926 87.3466 257.347 87.446L258.56 87.7244C259.263 87.8868 259.786 88.1371 260.131 88.4751C260.476 88.8132 260.648 89.2524 260.648 89.7926C260.648 90.25 260.516 90.6577 260.25 91.0156C259.989 91.3703 259.622 91.6487 259.152 91.8509C258.684 92.053 258.142 92.1541 257.526 92.1541C256.671 92.1541 255.973 91.9718 255.433 91.6072C254.893 91.2393 254.561 90.7173 254.439 90.0412L255.875 89.8224C255.965 90.197 256.149 90.4804 256.427 90.6726C256.706 90.8615 257.069 90.956 257.516 90.956C258.003 90.956 258.393 90.8549 258.684 90.6527C258.976 90.4472 259.122 90.197 259.122 89.902C259.122 89.6634 259.032 89.4628 258.853 89.3004C258.678 89.138 258.408 89.0154 258.043 88.9325L256.75 88.6491C256.038 88.4867 255.511 88.2282 255.169 87.8736C254.831 87.5189 254.662 87.0698 254.662 86.5263C254.662 86.0755 254.788 85.6811 255.04 85.343C255.292 85.005 255.64 84.7415 256.084 84.5526C256.528 84.3603 257.037 84.2642 257.61 84.2642C258.436 84.2642 259.085 84.4432 259.559 84.8011C260.033 85.1558 260.346 85.6314 260.499 86.228ZM269.831 81.8182V92H268.289V83.3594H268.23L265.794 84.9503V83.4787L268.334 81.8182H269.831Z" fill="white"/>
<rect x="288" y="151" width="82" height="36" rx="8" fill="#1E75BA"/>
<path d="M305.119 174V163.818H308.748C309.54 163.818 310.196 163.962 310.717 164.251C311.237 164.539 311.626 164.933 311.885 165.434C312.143 165.931 312.273 166.491 312.273 167.114C312.273 167.741 312.142 168.304 311.88 168.805C311.621 169.302 311.23 169.696 310.707 169.988C310.186 170.276 309.532 170.42 308.743 170.42H306.247V169.118H308.604C309.104 169.118 309.51 169.032 309.822 168.859C310.133 168.684 310.362 168.445 310.508 168.143C310.654 167.842 310.727 167.499 310.727 167.114C310.727 166.73 310.654 166.388 310.508 166.09C310.362 165.792 310.132 165.558 309.817 165.389C309.505 165.22 309.094 165.136 308.584 165.136H306.655V174H305.119ZM313.954 174V166.364H315.391V167.577H315.471C315.61 167.166 315.855 166.843 316.206 166.607C316.561 166.369 316.962 166.249 317.41 166.249C317.502 166.249 317.612 166.253 317.738 166.259C317.867 166.266 317.968 166.274 318.041 166.284V167.706C317.981 167.689 317.875 167.671 317.723 167.651C317.57 167.628 317.418 167.616 317.265 167.616C316.914 167.616 316.601 167.691 316.326 167.84C316.054 167.986 315.839 168.19 315.68 168.452C315.52 168.71 315.441 169.005 315.441 169.337V174H313.954ZM322.345 174.154C321.593 174.154 320.945 173.993 320.401 173.672C319.861 173.347 319.443 172.891 319.148 172.305C318.857 171.715 318.711 171.024 318.711 170.232C318.711 169.449 318.857 168.76 319.148 168.163C319.443 167.567 319.854 167.101 320.381 166.766C320.912 166.432 321.531 166.264 322.241 166.264C322.672 166.264 323.089 166.335 323.494 166.478C323.898 166.621 324.261 166.844 324.582 167.149C324.904 167.454 325.157 167.85 325.343 168.337C325.529 168.821 325.621 169.41 325.621 170.102V170.629H319.551V169.516H324.165C324.165 169.125 324.085 168.778 323.926 168.477C323.767 168.172 323.543 167.931 323.255 167.756C322.97 167.58 322.635 167.492 322.251 167.492C321.833 167.492 321.469 167.595 321.157 167.8C320.849 168.003 320.61 168.268 320.441 168.596C320.275 168.921 320.192 169.274 320.192 169.655V170.525C320.192 171.035 320.282 171.469 320.461 171.827C320.643 172.185 320.897 172.459 321.222 172.648C321.546 172.833 321.926 172.926 322.36 172.926C322.642 172.926 322.899 172.886 323.131 172.807C323.363 172.724 323.563 172.601 323.732 172.439C323.901 172.277 324.031 172.076 324.12 171.837L325.527 172.091C325.414 172.505 325.212 172.868 324.92 173.18C324.632 173.488 324.269 173.728 323.832 173.901C323.397 174.07 322.902 174.154 322.345 174.154ZM332.993 168.228L331.646 168.467C331.589 168.294 331.5 168.13 331.377 167.974C331.258 167.819 331.096 167.691 330.89 167.592C330.685 167.492 330.428 167.442 330.119 167.442C329.699 167.442 329.347 167.537 329.066 167.726C328.784 167.911 328.643 168.152 328.643 168.447C328.643 168.702 328.737 168.907 328.926 169.063C329.115 169.219 329.42 169.347 329.841 169.446L331.054 169.724C331.757 169.887 332.28 170.137 332.625 170.475C332.97 170.813 333.142 171.252 333.142 171.793C333.142 172.25 333.01 172.658 332.744 173.016C332.483 173.37 332.116 173.649 331.646 173.851C331.178 174.053 330.637 174.154 330.02 174.154C329.165 174.154 328.467 173.972 327.927 173.607C327.387 173.239 327.055 172.717 326.933 172.041L328.369 171.822C328.459 172.197 328.643 172.48 328.921 172.673C329.2 172.862 329.563 172.956 330.01 172.956C330.497 172.956 330.887 172.855 331.178 172.653C331.47 172.447 331.616 172.197 331.616 171.902C331.616 171.663 331.526 171.463 331.347 171.3C331.172 171.138 330.902 171.015 330.537 170.933L329.244 170.649C328.532 170.487 328.005 170.228 327.664 169.874C327.325 169.519 327.156 169.07 327.156 168.526C327.156 168.076 327.282 167.681 327.534 167.343C327.786 167.005 328.134 166.741 328.578 166.553C329.022 166.36 329.531 166.264 330.105 166.264C330.93 166.264 331.579 166.443 332.053 166.801C332.527 167.156 332.841 167.631 332.993 168.228ZM340.499 168.228L339.152 168.467C339.095 168.294 339.006 168.13 338.883 167.974C338.764 167.819 338.601 167.691 338.396 167.592C338.19 167.492 337.934 167.442 337.625 167.442C337.204 167.442 336.853 167.537 336.571 167.726C336.29 167.911 336.149 168.152 336.149 168.447C336.149 168.702 336.243 168.907 336.432 169.063C336.621 169.219 336.926 169.347 337.347 169.446L338.56 169.724C339.263 169.887 339.786 170.137 340.131 170.475C340.476 170.813 340.648 171.252 340.648 171.793C340.648 172.25 340.516 172.658 340.25 173.016C339.989 173.37 339.622 173.649 339.152 173.851C338.684 174.053 338.142 174.154 337.526 174.154C336.671 174.154 335.973 173.972 335.433 173.607C334.893 173.239 334.561 172.717 334.439 172.041L335.875 171.822C335.965 172.197 336.149 172.48 336.427 172.673C336.706 172.862 337.069 172.956 337.516 172.956C338.003 172.956 338.393 172.855 338.684 172.653C338.976 172.447 339.122 172.197 339.122 171.902C339.122 171.663 339.032 171.463 338.853 171.3C338.678 171.138 338.408 171.015 338.043 170.933L336.75 170.649C336.038 170.487 335.511 170.228 335.169 169.874C334.831 169.519 334.662 169.07 334.662 168.526C334.662 168.076 334.788 167.681 335.04 167.343C335.292 167.005 335.64 166.741 336.084 166.553C336.528 166.36 337.037 166.264 337.61 166.264C338.436 166.264 339.085 166.443 339.559 166.801C340.033 167.156 340.346 167.631 340.499 168.228ZM345.968 174V172.886L349.413 169.317C349.781 168.929 350.084 168.589 350.323 168.298C350.565 168.003 350.745 167.723 350.865 167.457C350.984 167.192 351.044 166.911 351.044 166.612C351.044 166.274 350.964 165.982 350.805 165.737C350.646 165.489 350.429 165.298 350.154 165.165C349.879 165.03 349.569 164.962 349.224 164.962C348.859 164.962 348.541 165.036 348.27 165.185C347.998 165.335 347.789 165.545 347.643 165.817C347.497 166.089 347.424 166.407 347.424 166.771H345.958C345.958 166.152 346.1 165.61 346.385 165.146C346.67 164.682 347.061 164.322 347.559 164.067C348.056 163.808 348.621 163.679 349.254 163.679C349.894 163.679 350.457 163.807 350.944 164.062C351.435 164.314 351.818 164.658 352.093 165.096C352.368 165.53 352.505 166.021 352.505 166.567C352.505 166.945 352.434 167.315 352.292 167.676C352.152 168.037 351.909 168.44 351.561 168.884C351.213 169.325 350.729 169.86 350.109 170.49L348.086 172.608V172.683H352.669V174H345.968Z" fill="white"/>
<rect x="236" y="236" width="83" height="36" rx="8" fill="#1E75BA"/>
<path d="M253.119 259V248.818H256.748C257.54 248.818 258.196 248.962 258.717 249.251C259.237 249.539 259.626 249.933 259.885 250.434C260.143 250.931 260.273 251.491 260.273 252.114C260.273 252.741 260.142 253.304 259.88 253.805C259.621 254.302 259.23 254.696 258.707 254.988C258.186 255.276 257.532 255.42 256.743 255.42H254.247V254.118H256.604C257.104 254.118 257.51 254.032 257.822 253.859C258.133 253.684 258.362 253.445 258.508 253.143C258.654 252.842 258.727 252.499 258.727 252.114C258.727 251.73 258.654 251.388 258.508 251.09C258.362 250.792 258.132 250.558 257.817 250.389C257.505 250.22 257.094 250.136 256.584 250.136H254.655V259H253.119ZM261.954 259V251.364H263.391V252.577H263.471C263.61 252.166 263.855 251.843 264.206 251.607C264.561 251.369 264.962 251.249 265.41 251.249C265.502 251.249 265.612 251.253 265.738 251.259C265.867 251.266 265.968 251.274 266.041 251.284V252.706C265.981 252.689 265.875 252.671 265.723 252.651C265.57 252.628 265.418 252.616 265.265 252.616C264.914 252.616 264.601 252.691 264.326 252.84C264.054 252.986 263.839 253.19 263.68 253.452C263.52 253.71 263.441 254.005 263.441 254.337V259H261.954ZM270.345 259.154C269.593 259.154 268.945 258.993 268.401 258.672C267.861 258.347 267.443 257.891 267.148 257.305C266.857 256.715 266.711 256.024 266.711 255.232C266.711 254.449 266.857 253.76 267.148 253.163C267.443 252.567 267.854 252.101 268.381 251.766C268.912 251.432 269.531 251.264 270.241 251.264C270.672 251.264 271.089 251.335 271.494 251.478C271.898 251.621 272.261 251.844 272.582 252.149C272.904 252.454 273.157 252.85 273.343 253.337C273.529 253.821 273.621 254.41 273.621 255.102V255.629H267.551V254.516H272.165C272.165 254.125 272.085 253.778 271.926 253.477C271.767 253.172 271.543 252.931 271.255 252.756C270.97 252.58 270.635 252.492 270.251 252.492C269.833 252.492 269.469 252.595 269.157 252.8C268.849 253.003 268.61 253.268 268.441 253.596C268.275 253.921 268.192 254.274 268.192 254.655V255.525C268.192 256.035 268.282 256.469 268.461 256.827C268.643 257.185 268.897 257.459 269.222 257.648C269.546 257.833 269.926 257.926 270.36 257.926C270.642 257.926 270.899 257.886 271.131 257.807C271.363 257.724 271.563 257.601 271.732 257.439C271.901 257.277 272.031 257.076 272.12 256.837L273.527 257.091C273.414 257.505 273.212 257.868 272.92 258.18C272.632 258.488 272.269 258.728 271.832 258.901C271.397 259.07 270.902 259.154 270.345 259.154ZM280.993 253.228L279.646 253.467C279.589 253.294 279.5 253.13 279.377 252.974C279.258 252.819 279.096 252.691 278.89 252.592C278.685 252.492 278.428 252.442 278.119 252.442C277.699 252.442 277.347 252.537 277.066 252.726C276.784 252.911 276.643 253.152 276.643 253.447C276.643 253.702 276.737 253.907 276.926 254.063C277.115 254.219 277.42 254.347 277.841 254.446L279.054 254.724C279.757 254.887 280.28 255.137 280.625 255.475C280.97 255.813 281.142 256.252 281.142 256.793C281.142 257.25 281.01 257.658 280.744 258.016C280.483 258.37 280.116 258.649 279.646 258.851C279.178 259.053 278.637 259.154 278.02 259.154C277.165 259.154 276.467 258.972 275.927 258.607C275.387 258.239 275.055 257.717 274.933 257.041L276.369 256.822C276.459 257.197 276.643 257.48 276.921 257.673C277.2 257.862 277.563 257.956 278.01 257.956C278.497 257.956 278.887 257.855 279.178 257.653C279.47 257.447 279.616 257.197 279.616 256.902C279.616 256.663 279.526 256.463 279.347 256.3C279.172 256.138 278.902 256.015 278.537 255.933L277.244 255.649C276.532 255.487 276.005 255.228 275.664 254.874C275.325 254.519 275.156 254.07 275.156 253.526C275.156 253.076 275.282 252.681 275.534 252.343C275.786 252.005 276.134 251.741 276.578 251.553C277.022 251.36 277.531 251.264 278.105 251.264C278.93 251.264 279.579 251.443 280.053 251.801C280.527 252.156 280.841 252.631 280.993 253.228ZM288.499 253.228L287.152 253.467C287.095 253.294 287.006 253.13 286.883 252.974C286.764 252.819 286.601 252.691 286.396 252.592C286.19 252.492 285.934 252.442 285.625 252.442C285.204 252.442 284.853 252.537 284.571 252.726C284.29 252.911 284.149 253.152 284.149 253.447C284.149 253.702 284.243 253.907 284.432 254.063C284.621 254.219 284.926 254.347 285.347 254.446L286.56 254.724C287.263 254.887 287.786 255.137 288.131 255.475C288.476 255.813 288.648 256.252 288.648 256.793C288.648 257.25 288.516 257.658 288.25 258.016C287.989 258.37 287.622 258.649 287.152 258.851C286.684 259.053 286.142 259.154 285.526 259.154C284.671 259.154 283.973 258.972 283.433 258.607C282.893 258.239 282.561 257.717 282.439 257.041L283.875 256.822C283.965 257.197 284.149 257.48 284.427 257.673C284.706 257.862 285.069 257.956 285.516 257.956C286.003 257.956 286.393 257.855 286.684 257.653C286.976 257.447 287.122 257.197 287.122 256.902C287.122 256.663 287.032 256.463 286.853 256.3C286.678 256.138 286.408 256.015 286.043 255.933L284.75 255.649C284.038 255.487 283.511 255.228 283.169 254.874C282.831 254.519 282.662 254.07 282.662 253.526C282.662 253.076 282.788 252.681 283.04 252.343C283.292 252.005 283.64 251.741 284.084 251.553C284.528 251.36 285.037 251.264 285.61 251.264C286.436 251.264 287.085 251.443 287.559 251.801C288.033 252.156 288.346 252.631 288.499 253.228ZM297.512 259.139C296.83 259.139 296.22 259.022 295.683 258.786C295.149 258.551 294.727 258.224 294.415 257.807C294.107 257.386 293.941 256.899 293.918 256.345H295.479C295.499 256.647 295.6 256.909 295.782 257.131C295.968 257.349 296.21 257.518 296.508 257.638C296.806 257.757 297.138 257.817 297.502 257.817C297.904 257.817 298.258 257.747 298.566 257.608C298.878 257.469 299.122 257.275 299.297 257.026C299.473 256.774 299.561 256.484 299.561 256.156C299.561 255.815 299.473 255.515 299.297 255.256C299.125 254.995 298.871 254.789 298.537 254.64C298.205 254.491 297.804 254.416 297.333 254.416H296.473V253.163H297.333C297.711 253.163 298.043 253.095 298.328 252.96C298.616 252.824 298.842 252.635 299.004 252.393C299.166 252.147 299.248 251.861 299.248 251.533C299.248 251.218 299.176 250.944 299.034 250.712C298.895 250.477 298.696 250.293 298.437 250.161C298.182 250.028 297.88 249.962 297.532 249.962C297.201 249.962 296.891 250.023 296.603 250.146C296.318 250.265 296.086 250.437 295.907 250.663C295.728 250.885 295.632 251.152 295.618 251.463H294.132C294.148 250.913 294.311 250.429 294.619 250.011C294.931 249.594 295.342 249.267 295.852 249.032C296.362 248.797 296.929 248.679 297.552 248.679C298.205 248.679 298.769 248.807 299.243 249.062C299.72 249.314 300.088 249.65 300.346 250.071C300.608 250.492 300.737 250.953 300.734 251.453C300.737 252.023 300.578 252.507 300.257 252.905C299.939 253.303 299.514 253.569 298.984 253.705V253.785C299.66 253.888 300.184 254.156 300.555 254.59C300.93 255.024 301.115 255.563 301.112 256.206C301.115 256.766 300.959 257.268 300.645 257.712C300.333 258.156 299.907 258.506 299.367 258.761C298.827 259.013 298.208 259.139 297.512 259.139Z" fill="white"/>
<path d="M167 210C166.448 210 166 210.448 166 211C166 211.552 166.448 212 167 212V210ZM204.707 87.7071C205.098 87.3166 205.098 86.6834 204.707 86.2929L198.343 79.9289C197.953 79.5384 197.319 79.5384 196.929 79.9289C196.538 80.3195 196.538 80.9526 196.929 81.3431L202.586 87L196.929 92.6569C196.538 93.0474 196.538 93.6805 196.929 94.0711C197.319 94.4616 197.953 94.4616 198.343 94.0711L204.707 87.7071ZM186.5 192.5V105.5H184.5V192.5H186.5ZM186.5 105.5C186.5 95.835 194.335 88 204 88V86C193.23 86 184.5 94.7304 184.5 105.5H186.5ZM167 212C177.77 212 186.5 203.27 186.5 192.5H184.5C184.5 202.165 176.665 210 167 210V212Z" fill="#D5D9DC"/>
<path d="M167 210C166.448 210 166 210.448 166 211C166 211.552 166.448 212 167 212V210ZM284.707 169.707C285.098 169.317 285.098 168.683 284.707 168.293L278.343 161.929C277.953 161.538 277.319 161.538 276.929 161.929C276.538 162.319 276.538 162.953 276.929 163.343L282.586 169L276.929 174.657C276.538 175.047 276.538 175.681 276.929 176.071C277.319 176.462 277.953 176.462 278.343 176.071L284.707 169.707ZM226.5 190C226.5 189.448 226.052 189 225.5 189C224.948 189 224.5 189.448 224.5 190H226.5ZM167 212H204.5V210H167V212ZM246.5 170H284V168H246.5V170ZM226.5 190C226.5 178.954 235.454 170 246.5 170V168C234.35 168 224.5 177.85 224.5 190H226.5ZM204.5 212C216.65 212 226.5 202.15 226.5 190H224.5C224.5 201.046 215.546 210 204.5 210V212Z" fill="#D5D9DC"/>
<path d="M167 210C166.448 210 166 210.448 166 211C166 211.552 166.448 212 167 212V210ZM232.707 254.707C233.098 254.317 233.098 253.683 232.707 253.293L226.343 246.929C225.953 246.538 225.319 246.538 224.929 246.929C224.538 247.319 224.538 247.953 224.929 248.343L230.586 254L224.929 259.657C224.538 260.047 224.538 260.681 224.929 261.071C225.319 261.462 225.953 261.462 226.343 261.071L232.707 254.707ZM198.5 232.5C198.5 233.052 198.948 233.5 199.5 233.5C200.052 233.5 200.5 233.052 200.5 232.5H198.5ZM167 212H178V210H167V212ZM221 255H232V253H221V255ZM198.5 232.5C198.5 244.926 208.574 255 221 255V253C209.678 253 200.5 243.822 200.5 232.5H198.5ZM178 212C189.322 212 198.5 221.178 198.5 232.5H200.5C200.5 220.074 190.426 210 178 210V212Z" fill="#D5D9DC"/>
<g filter="url(#filter0_d_1653_26761)">
<rect x="391" y="68" width="172" height="38" rx="19" fill="white" shape-rendering="crispEdges"/>
<path d="M412.856 93.24C411.709 93.24 410.736 92.9867 409.936 92.48C409.136 91.9733 408.525 91.2693 408.104 90.368C407.688 89.4667 407.48 88.424 407.48 87.24C407.48 86.056 407.688 85.0133 408.104 84.112C408.525 83.2107 409.136 82.5067 409.936 82C410.736 81.4933 411.709 81.24 412.856 81.24C414.189 81.24 415.285 81.5787 416.144 82.256C417.008 82.9333 417.603 83.8453 417.928 84.992L416.48 85.376C416.245 84.5173 415.827 83.84 415.224 83.344C414.621 82.848 413.832 82.6 412.856 82.6C411.997 82.6 411.283 82.7947 410.712 83.184C410.141 83.5733 409.712 84.1173 409.424 84.816C409.136 85.5093 408.989 86.3173 408.984 87.24C408.979 88.1573 409.12 88.9653 409.408 89.664C409.696 90.3573 410.128 90.9013 410.704 91.296C411.28 91.6853 411.997 91.88 412.856 91.88C413.832 91.88 414.621 91.632 415.224 91.136C415.827 90.6347 416.245 89.9573 416.48 89.104L417.928 89.488C417.603 90.6293 417.008 91.5413 416.144 92.224C415.285 92.9013 414.189 93.24 412.856 93.24ZM422.963 93.224C422.408 93.224 421.931 93.136 421.531 92.96C421.136 92.784 420.808 92.5493 420.547 92.256C420.285 91.9627 420.08 91.6373 419.931 91.28C419.781 90.9227 419.675 90.5573 419.611 90.184C419.552 89.8107 419.523 89.4613 419.523 89.136V84.36H420.963V88.688C420.963 89.0933 421 89.4853 421.075 89.864C421.149 90.2427 421.275 90.584 421.451 90.888C421.632 91.192 421.872 91.432 422.171 91.608C422.475 91.784 422.853 91.872 423.307 91.872C423.664 91.872 423.989 91.8107 424.283 91.688C424.576 91.5653 424.827 91.384 425.035 91.144C425.243 90.8987 425.403 90.5893 425.515 90.216C425.627 89.8427 425.683 89.408 425.683 88.912L426.619 89.2C426.619 90.032 426.467 90.7493 426.163 91.352C425.864 91.9547 425.44 92.4187 424.891 92.744C424.347 93.064 423.704 93.224 422.963 93.224ZM425.843 93V90.688H425.683V84.36H427.115V93H425.843ZM432.618 93.232C431.589 93.232 430.744 93.008 430.082 92.56C429.426 92.1067 429.024 91.4747 428.874 90.664L430.33 90.432C430.448 90.9013 430.717 91.2747 431.138 91.552C431.56 91.824 432.082 91.96 432.706 91.96C433.298 91.96 433.762 91.8373 434.098 91.592C434.434 91.3467 434.602 91.0133 434.602 90.592C434.602 90.3467 434.546 90.1493 434.434 90C434.322 89.8453 434.09 89.7013 433.738 89.568C433.392 89.4347 432.866 89.2747 432.162 89.088C431.4 88.8853 430.8 88.6747 430.362 88.456C429.925 88.2373 429.613 87.984 429.426 87.696C429.24 87.408 429.146 87.0587 429.146 86.648C429.146 86.1413 429.285 85.6987 429.562 85.32C429.84 84.936 430.226 84.64 430.722 84.432C431.224 84.224 431.805 84.12 432.466 84.12C433.122 84.12 433.709 84.224 434.226 84.432C434.744 84.64 435.16 84.936 435.474 85.32C435.794 85.6987 435.984 86.1413 436.042 86.648L434.586 86.912C434.517 86.448 434.293 86.0827 433.914 85.816C433.541 85.5493 433.058 85.408 432.466 85.392C431.906 85.3707 431.45 85.4693 431.098 85.688C430.752 85.9067 430.578 86.2027 430.578 86.576C430.578 86.784 430.642 86.9627 430.77 87.112C430.904 87.2613 431.146 87.4027 431.498 87.536C431.856 87.6693 432.373 87.8213 433.05 87.992C433.813 88.184 434.413 88.3947 434.85 88.624C435.293 88.848 435.608 89.1147 435.794 89.424C435.981 89.728 436.074 90.104 436.074 90.552C436.074 91.384 435.768 92.04 435.154 92.52C434.541 92.9947 433.696 93.232 432.618 93.232ZM442.663 93C442.151 93.1013 441.644 93.1413 441.143 93.12C440.647 93.104 440.204 93.0053 439.815 92.824C439.425 92.6373 439.129 92.3493 438.927 91.96C438.756 91.6187 438.663 91.2747 438.647 90.928C438.636 90.576 438.631 90.1787 438.631 89.736V81.96H440.055V89.672C440.055 90.024 440.057 90.3253 440.063 90.576C440.073 90.8267 440.129 91.0427 440.231 91.224C440.423 91.5653 440.727 91.7653 441.143 91.824C441.564 91.8827 442.071 91.8667 442.663 91.776V93ZM436.879 85.536V84.36H442.663V85.536H436.879ZM447.738 93.24C446.879 93.24 446.138 93.0453 445.514 92.656C444.895 92.2667 444.418 91.728 444.082 91.04C443.746 90.352 443.578 89.5627 443.578 88.672C443.578 87.7653 443.748 86.9707 444.09 86.288C444.431 85.6053 444.914 85.0747 445.538 84.696C446.162 84.312 446.895 84.12 447.738 84.12C448.602 84.12 449.346 84.3147 449.97 84.704C450.594 85.088 451.071 85.624 451.402 86.312C451.738 86.9947 451.906 87.7813 451.906 88.672C451.906 89.5733 451.738 90.368 451.402 91.056C451.066 91.7387 450.586 92.2747 449.962 92.664C449.338 93.048 448.596 93.24 447.738 93.24ZM447.738 91.888C448.634 91.888 449.3 91.5893 449.738 90.992C450.175 90.3947 450.394 89.6213 450.394 88.672C450.394 87.696 450.172 86.92 449.73 86.344C449.287 85.7627 448.623 85.472 447.738 85.472C447.135 85.472 446.639 85.608 446.25 85.88C445.86 86.152 445.57 86.528 445.378 87.008C445.186 87.488 445.09 88.0427 445.09 88.672C445.09 89.6427 445.314 90.4213 445.762 91.008C446.21 91.5947 446.868 91.888 447.738 91.888ZM463.995 93L464.003 87.472C464.003 86.8267 463.83 86.3227 463.483 85.96C463.142 85.592 462.696 85.408 462.147 85.408C461.827 85.408 461.523 85.4827 461.235 85.632C460.947 85.776 460.712 86.0053 460.531 86.32C460.35 86.6293 460.259 87.0267 460.259 87.512L459.507 87.208C459.496 86.5947 459.622 86.0587 459.883 85.6C460.15 85.136 460.512 84.776 460.971 84.52C461.43 84.264 461.947 84.136 462.523 84.136C463.424 84.136 464.134 84.4107 464.651 84.96C465.168 85.504 465.427 86.2373 465.427 87.16L465.419 93H463.995ZM453.659 93V84.36H454.931V86.672H455.091V93H453.659ZM458.835 93L458.843 87.528C458.843 86.8667 458.672 86.3493 458.331 85.976C457.99 85.5973 457.536 85.408 456.971 85.408C456.411 85.408 455.958 85.6 455.611 85.984C455.264 86.368 455.091 86.8773 455.091 87.512L454.339 87.064C454.339 86.504 454.472 86.0027 454.739 85.56C455.006 85.1173 455.368 84.7707 455.827 84.52C456.286 84.264 456.806 84.136 457.387 84.136C457.968 84.136 458.475 84.2587 458.907 84.504C459.339 84.7493 459.672 85.1013 459.907 85.56C460.142 86.0133 460.259 86.5547 460.259 87.184L460.251 93H458.835ZM471.177 93.24C470.329 93.24 469.587 93.0533 468.953 92.68C468.323 92.3013 467.833 91.776 467.481 91.104C467.129 90.4267 466.953 89.6373 466.953 88.736C466.953 87.792 467.126 86.976 467.473 86.288C467.819 85.5947 468.302 85.0613 468.921 84.688C469.545 84.3093 470.275 84.12 471.113 84.12C471.982 84.12 472.721 84.32 473.329 84.72C473.942 85.12 474.401 85.6907 474.705 86.432C475.014 87.1733 475.147 88.056 475.105 89.08H473.665V88.568C473.649 87.5067 473.433 86.7147 473.017 86.192C472.601 85.664 471.982 85.4 471.161 85.4C470.281 85.4 469.611 85.6827 469.153 86.248C468.694 86.8133 468.465 87.624 468.465 88.68C468.465 89.6987 468.694 90.488 469.153 91.048C469.611 91.608 470.265 91.888 471.113 91.888C471.683 91.888 472.179 91.7573 472.601 91.496C473.022 91.2347 473.353 90.8587 473.593 90.368L474.961 90.84C474.625 91.6027 474.118 92.1947 473.441 92.616C472.769 93.032 472.014 93.24 471.177 93.24ZM467.985 89.08V87.936H474.369V89.08H467.985ZM476.886 93V84.36H478.158V86.448L477.95 86.176C478.051 85.9093 478.182 85.664 478.342 85.44C478.507 85.216 478.691 85.032 478.894 84.888C479.118 84.7067 479.371 84.568 479.654 84.472C479.936 84.376 480.224 84.32 480.518 84.304C480.811 84.2827 481.086 84.3013 481.342 84.36V85.696C481.043 85.616 480.715 85.5947 480.358 85.632C480 85.6693 479.67 85.8 479.366 86.024C479.088 86.2213 478.872 86.4613 478.718 86.744C478.568 87.0267 478.464 87.3333 478.406 87.664C478.347 87.9893 478.318 88.3227 478.318 88.664V93H476.886ZM490.146 93.24C489.33 93.24 488.594 93.1013 487.938 92.824C487.287 92.5467 486.748 92.152 486.322 91.64C485.9 91.1227 485.626 90.512 485.498 89.808L486.97 89.576C487.156 90.3013 487.543 90.8693 488.13 91.28C488.722 91.6853 489.418 91.888 490.218 91.888C490.735 91.888 491.202 91.808 491.618 91.648C492.039 91.4827 492.372 91.248 492.618 90.944C492.863 90.64 492.986 90.28 492.986 89.864C492.986 89.608 492.94 89.3893 492.85 89.208C492.764 89.0213 492.644 88.864 492.49 88.736C492.34 88.6027 492.17 88.4907 491.978 88.4C491.786 88.3093 491.586 88.2347 491.378 88.176L488.442 87.304C488.122 87.208 487.812 87.088 487.514 86.944C487.215 86.7947 486.948 86.6107 486.714 86.392C486.479 86.168 486.292 85.9013 486.154 85.592C486.015 85.2773 485.946 84.9067 485.946 84.48C485.946 83.7973 486.122 83.216 486.474 82.736C486.831 82.2507 487.314 81.88 487.922 81.624C488.53 81.368 489.215 81.2427 489.978 81.248C490.751 81.2533 491.442 81.392 492.05 81.664C492.663 81.9307 493.17 82.3147 493.569 82.816C493.975 83.3173 494.247 83.9173 494.386 84.616L492.874 84.88C492.794 84.4107 492.615 84.008 492.338 83.672C492.066 83.3307 491.724 83.0693 491.314 82.888C490.903 82.7013 490.452 82.6053 489.962 82.6C489.492 82.5947 489.068 82.6693 488.69 82.824C488.311 82.9787 488.01 83.1947 487.786 83.472C487.562 83.744 487.45 84.0587 487.45 84.416C487.45 84.768 487.551 85.0533 487.754 85.272C487.956 85.4853 488.204 85.656 488.498 85.784C488.796 85.9067 489.087 86.008 489.37 86.088L491.562 86.72C491.812 86.7893 492.1 86.8853 492.426 87.008C492.756 87.1307 493.076 87.304 493.385 87.528C493.695 87.7467 493.951 88.04 494.154 88.408C494.356 88.7707 494.458 89.2293 494.458 89.784C494.458 90.3387 494.346 90.832 494.122 91.264C493.903 91.696 493.596 92.0587 493.201 92.352C492.807 92.64 492.348 92.8587 491.826 93.008C491.303 93.1627 490.743 93.24 490.146 93.24ZM499.416 93.224C498.861 93.224 498.384 93.136 497.984 92.96C497.589 92.784 497.261 92.5493 497 92.256C496.738 91.9627 496.533 91.6373 496.384 91.28C496.234 90.9227 496.128 90.5573 496.064 90.184C496.005 89.8107 495.976 89.4613 495.976 89.136V84.36H497.416V88.688C497.416 89.0933 497.453 89.4853 497.528 89.864C497.602 90.2427 497.728 90.584 497.904 90.888C498.085 91.192 498.325 91.432 498.624 91.608C498.928 91.784 499.306 91.872 499.76 91.872C500.117 91.872 500.442 91.8107 500.736 91.688C501.029 91.5653 501.28 91.384 501.488 91.144C501.696 90.8987 501.856 90.5893 501.968 90.216C502.08 89.8427 502.136 89.408 502.136 88.912L503.072 89.2C503.072 90.032 502.92 90.7493 502.616 91.352C502.317 91.9547 501.893 92.4187 501.344 92.744C500.8 93.064 500.157 93.224 499.416 93.224ZM502.296 93V90.688H502.136V84.36H503.568V93H502.296ZM509.776 93.24C508.965 93.24 508.282 93.04 507.728 92.64C507.173 92.2347 506.752 91.688 506.464 91C506.181 90.3067 506.04 89.5307 506.04 88.672C506.04 87.8027 506.181 87.024 506.464 86.336C506.752 85.648 507.173 85.1067 507.728 84.712C508.288 84.3173 508.973 84.12 509.784 84.12C510.584 84.12 511.272 84.32 511.848 84.72C512.429 85.1147 512.874 85.656 513.184 86.344C513.493 87.032 513.648 87.808 513.648 88.672C513.648 89.536 513.493 90.312 513.184 91C512.874 91.688 512.429 92.2347 511.848 92.64C511.272 93.04 510.581 93.24 509.776 93.24ZM505.8 96.84V84.36H507.072V90.72H507.232V96.84H505.8ZM509.6 91.936C510.17 91.936 510.642 91.792 511.016 91.504C511.389 91.216 511.669 90.8267 511.856 90.336C512.042 89.84 512.136 89.2853 512.136 88.672C512.136 88.064 512.042 87.5147 511.856 87.024C511.674 86.5333 511.392 86.144 511.008 85.856C510.629 85.568 510.146 85.424 509.56 85.424C509 85.424 508.536 85.5627 508.168 85.84C507.8 86.112 507.525 86.4933 507.344 86.984C507.162 87.4693 507.072 88.032 507.072 88.672C507.072 89.3013 507.16 89.864 507.336 90.36C507.517 90.8507 507.794 91.2373 508.168 91.52C508.541 91.7973 509.018 91.936 509.6 91.936ZM519.369 93.24C518.559 93.24 517.876 93.04 517.321 92.64C516.767 92.2347 516.345 91.688 516.057 91C515.775 90.3067 515.633 89.5307 515.633 88.672C515.633 87.8027 515.775 87.024 516.057 86.336C516.345 85.648 516.767 85.1067 517.321 84.712C517.881 84.3173 518.567 84.12 519.377 84.12C520.177 84.12 520.865 84.32 521.441 84.72C522.023 85.1147 522.468 85.656 522.777 86.344C523.087 87.032 523.241 87.808 523.241 88.672C523.241 89.536 523.087 90.312 522.777 91C522.468 91.688 522.023 92.2347 521.441 92.64C520.865 93.04 520.175 93.24 519.369 93.24ZM515.393 96.84V84.36H516.665V90.72H516.825V96.84H515.393ZM519.193 91.936C519.764 91.936 520.236 91.792 520.609 91.504C520.983 91.216 521.263 90.8267 521.449 90.336C521.636 89.84 521.729 89.2853 521.729 88.672C521.729 88.064 521.636 87.5147 521.449 87.024C521.268 86.5333 520.985 86.144 520.601 85.856C520.223 85.568 519.74 85.424 519.153 85.424C518.593 85.424 518.129 85.5627 517.761 85.84C517.393 86.112 517.119 86.4933 516.937 86.984C516.756 87.4693 516.665 88.032 516.665 88.672C516.665 89.3013 516.753 89.864 516.929 90.36C517.111 90.8507 517.388 91.2373 517.761 91.52C518.135 91.7973 518.612 91.936 519.193 91.936ZM528.675 93.24C527.816 93.24 527.075 93.0453 526.451 92.656C525.832 92.2667 525.355 91.728 525.019 91.04C524.683 90.352 524.515 89.5627 524.515 88.672C524.515 87.7653 524.686 86.9707 525.027 86.288C525.368 85.6053 525.851 85.0747 526.475 84.696C527.099 84.312 527.832 84.12 528.675 84.12C529.539 84.12 530.283 84.3147 530.907 84.704C531.531 85.088 532.008 85.624 532.339 86.312C532.675 86.9947 532.843 87.7813 532.843 88.672C532.843 89.5733 532.675 90.368 532.339 91.056C532.003 91.7387 531.523 92.2747 530.899 92.664C530.275 93.048 529.534 93.24 528.675 93.24ZM528.675 91.888C529.571 91.888 530.238 91.5893 530.675 90.992C531.112 90.3947 531.331 89.6213 531.331 88.672C531.331 87.696 531.11 86.92 530.667 86.344C530.224 85.7627 529.56 85.472 528.675 85.472C528.072 85.472 527.576 85.608 527.187 85.88C526.798 86.152 526.507 86.528 526.315 87.008C526.123 87.488 526.027 88.0427 526.027 88.672C526.027 89.6427 526.251 90.4213 526.699 91.008C527.147 91.5947 527.806 91.888 528.675 91.888ZM534.604 93V84.36H535.876V86.448L535.668 86.176C535.77 85.9093 535.9 85.664 536.06 85.44C536.226 85.216 536.41 85.032 536.612 84.888C536.836 84.7067 537.09 84.568 537.372 84.472C537.655 84.376 537.943 84.32 538.236 84.304C538.53 84.2827 538.804 84.3013 539.06 84.36V85.696C538.762 85.616 538.434 85.5947 538.076 85.632C537.719 85.6693 537.388 85.8 537.084 86.024C536.807 86.2213 536.591 86.4613 536.436 86.744C536.287 87.0267 536.183 87.3333 536.124 87.664C536.066 87.9893 536.036 88.3227 536.036 88.664V93H534.604ZM545.397 93C544.885 93.1013 544.378 93.1413 543.877 93.12C543.381 93.104 542.938 93.0053 542.549 92.824C542.16 92.6373 541.864 92.3493 541.661 91.96C541.49 91.6187 541.397 91.2747 541.381 90.928C541.37 90.576 541.365 90.1787 541.365 89.736V81.96H542.789V89.672C542.789 90.024 542.792 90.3253 542.797 90.576C542.808 90.8267 542.864 91.0427 542.965 91.224C543.157 91.5653 543.461 91.7653 543.877 91.824C544.298 91.8827 544.805 91.8667 545.397 91.776V93ZM539.613 85.536V84.36H545.397V85.536H539.613Z" fill="#212528"/>
</g>
<g filter="url(#filter1_d_1653_26761)">
<rect x="458" y="149" width="117" height="38" rx="19" fill="white" shape-rendering="crispEdges"/>
<path d="M479.208 174.24C478.392 174.24 477.656 174.101 477 173.824C476.349 173.547 475.811 173.152 475.384 172.64C474.963 172.123 474.688 171.512 474.56 170.808L476.032 170.576C476.219 171.301 476.605 171.869 477.192 172.28C477.784 172.685 478.48 172.888 479.28 172.888C479.797 172.888 480.264 172.808 480.68 172.648C481.101 172.483 481.435 172.248 481.68 171.944C481.925 171.64 482.048 171.28 482.048 170.864C482.048 170.608 482.003 170.389 481.912 170.208C481.827 170.021 481.707 169.864 481.552 169.736C481.403 169.603 481.232 169.491 481.04 169.4C480.848 169.309 480.648 169.235 480.44 169.176L477.504 168.304C477.184 168.208 476.875 168.088 476.576 167.944C476.277 167.795 476.011 167.611 475.776 167.392C475.541 167.168 475.355 166.901 475.216 166.592C475.077 166.277 475.008 165.907 475.008 165.48C475.008 164.797 475.184 164.216 475.536 163.736C475.893 163.251 476.376 162.88 476.984 162.624C477.592 162.368 478.277 162.243 479.04 162.248C479.813 162.253 480.504 162.392 481.112 162.664C481.725 162.931 482.232 163.315 482.632 163.816C483.037 164.317 483.309 164.917 483.448 165.616L481.936 165.88C481.856 165.411 481.677 165.008 481.4 164.672C481.128 164.331 480.787 164.069 480.376 163.888C479.965 163.701 479.515 163.605 479.024 163.6C478.555 163.595 478.131 163.669 477.752 163.824C477.373 163.979 477.072 164.195 476.848 164.472C476.624 164.744 476.512 165.059 476.512 165.416C476.512 165.768 476.613 166.053 476.816 166.272C477.019 166.485 477.267 166.656 477.56 166.784C477.859 166.907 478.149 167.008 478.432 167.088L480.624 167.72C480.875 167.789 481.163 167.885 481.488 168.008C481.819 168.131 482.139 168.304 482.448 168.528C482.757 168.747 483.013 169.04 483.216 169.408C483.419 169.771 483.52 170.229 483.52 170.784C483.52 171.339 483.408 171.832 483.184 172.264C482.965 172.696 482.659 173.059 482.264 173.352C481.869 173.64 481.411 173.859 480.888 174.008C480.365 174.163 479.805 174.24 479.208 174.24ZM487.654 174.24C487.009 174.24 486.467 174.123 486.03 173.888C485.598 173.648 485.27 173.333 485.046 172.944C484.827 172.555 484.718 172.128 484.718 171.664C484.718 171.211 484.803 170.819 484.974 170.488C485.15 170.152 485.395 169.875 485.71 169.656C486.025 169.432 486.401 169.256 486.838 169.128C487.249 169.016 487.707 168.92 488.214 168.84C488.726 168.755 489.243 168.677 489.766 168.608C490.289 168.539 490.777 168.472 491.23 168.408L490.718 168.704C490.734 167.936 490.579 167.368 490.254 167C489.934 166.632 489.379 166.448 488.59 166.448C488.067 166.448 487.609 166.568 487.214 166.808C486.825 167.043 486.55 167.427 486.39 167.96L485.038 167.552C485.246 166.795 485.649 166.2 486.246 165.768C486.843 165.336 487.63 165.12 488.606 165.12C489.39 165.12 490.062 165.261 490.622 165.544C491.187 165.821 491.593 166.243 491.838 166.808C491.961 167.075 492.038 167.365 492.07 167.68C492.102 167.989 492.118 168.315 492.118 168.656V174H490.854V171.928L491.15 172.12C490.825 172.819 490.369 173.347 489.782 173.704C489.201 174.061 488.491 174.24 487.654 174.24ZM487.87 173.048C488.382 173.048 488.825 172.957 489.198 172.776C489.577 172.589 489.881 172.347 490.11 172.048C490.339 171.744 490.489 171.413 490.558 171.056C490.638 170.789 490.681 170.493 490.686 170.168C490.697 169.837 490.702 169.584 490.702 169.408L491.198 169.624C490.734 169.688 490.278 169.749 489.83 169.808C489.382 169.867 488.958 169.931 488.558 170C488.158 170.064 487.798 170.141 487.478 170.232C487.243 170.307 487.022 170.403 486.814 170.52C486.611 170.637 486.446 170.789 486.318 170.976C486.195 171.157 486.134 171.384 486.134 171.656C486.134 171.891 486.193 172.115 486.31 172.328C486.433 172.541 486.619 172.715 486.87 172.848C487.126 172.981 487.459 173.048 487.87 173.048ZM494.358 174V162.24H495.782V174H494.358ZM501.927 174.24C501.079 174.24 500.337 174.053 499.703 173.68C499.073 173.301 498.583 172.776 498.231 172.104C497.879 171.427 497.703 170.637 497.703 169.736C497.703 168.792 497.876 167.976 498.223 167.288C498.569 166.595 499.052 166.061 499.671 165.688C500.295 165.309 501.025 165.12 501.863 165.12C502.732 165.12 503.471 165.32 504.079 165.72C504.692 166.12 505.151 166.691 505.455 167.432C505.764 168.173 505.897 169.056 505.855 170.08H504.415V169.568C504.399 168.507 504.183 167.715 503.767 167.192C503.351 166.664 502.732 166.4 501.911 166.4C501.031 166.4 500.361 166.683 499.903 167.248C499.444 167.813 499.215 168.624 499.215 169.68C499.215 170.699 499.444 171.488 499.903 172.048C500.361 172.608 501.015 172.888 501.863 172.888C502.433 172.888 502.929 172.757 503.351 172.496C503.772 172.235 504.103 171.859 504.343 171.368L505.711 171.84C505.375 172.603 504.868 173.195 504.191 173.616C503.519 174.032 502.764 174.24 501.927 174.24ZM498.735 170.08V168.936H505.119V170.08H498.735ZM510.9 174.232C509.87 174.232 509.025 174.008 508.364 173.56C507.708 173.107 507.305 172.475 507.156 171.664L508.612 171.432C508.729 171.901 508.998 172.275 509.42 172.552C509.841 172.824 510.364 172.96 510.988 172.96C511.58 172.96 512.044 172.837 512.38 172.592C512.716 172.347 512.884 172.013 512.884 171.592C512.884 171.347 512.828 171.149 512.716 171C512.604 170.845 512.372 170.701 512.02 170.568C511.673 170.435 511.148 170.275 510.444 170.088C509.681 169.885 509.081 169.675 508.644 169.456C508.206 169.237 507.894 168.984 507.708 168.696C507.521 168.408 507.428 168.059 507.428 167.648C507.428 167.141 507.566 166.699 507.844 166.32C508.121 165.936 508.508 165.64 509.004 165.432C509.505 165.224 510.086 165.12 510.748 165.12C511.404 165.12 511.99 165.224 512.508 165.432C513.025 165.64 513.441 165.936 513.756 166.32C514.076 166.699 514.265 167.141 514.324 167.648L512.868 167.912C512.798 167.448 512.574 167.083 512.196 166.816C511.822 166.549 511.34 166.408 510.748 166.392C510.188 166.371 509.732 166.469 509.38 166.688C509.033 166.907 508.86 167.203 508.86 167.576C508.86 167.784 508.924 167.963 509.052 168.112C509.185 168.261 509.428 168.403 509.78 168.536C510.137 168.669 510.654 168.821 511.332 168.992C512.094 169.184 512.694 169.395 513.132 169.624C513.574 169.848 513.889 170.115 514.076 170.424C514.262 170.728 514.356 171.104 514.356 171.552C514.356 172.384 514.049 173.04 513.436 173.52C512.822 173.995 511.977 174.232 510.9 174.232ZM522.291 174V163.832H518.363V162.48H527.643V163.832H523.715V174H522.291ZM531.38 174.24C530.532 174.24 529.79 174.053 529.156 173.68C528.526 173.301 528.036 172.776 527.684 172.104C527.332 171.427 527.156 170.637 527.156 169.736C527.156 168.792 527.329 167.976 527.676 167.288C528.022 166.595 528.505 166.061 529.124 165.688C529.748 165.309 530.478 165.12 531.316 165.12C532.185 165.12 532.924 165.32 533.532 165.72C534.145 166.12 534.604 166.691 534.908 167.432C535.217 168.173 535.35 169.056 535.308 170.08H533.868V169.568C533.852 168.507 533.636 167.715 533.22 167.192C532.804 166.664 532.185 166.4 531.364 166.4C530.484 166.4 529.814 166.683 529.356 167.248C528.897 167.813 528.668 168.624 528.668 169.68C528.668 170.699 528.897 171.488 529.356 172.048C529.814 172.608 530.468 172.888 531.316 172.888C531.886 172.888 532.382 172.757 532.804 172.496C533.225 172.235 533.556 171.859 533.796 171.368L535.164 171.84C534.828 172.603 534.321 173.195 533.644 173.616C532.972 174.032 532.217 174.24 531.38 174.24ZM528.188 170.08V168.936H534.572V170.08H528.188ZM539.389 174.24C538.743 174.24 538.202 174.123 537.765 173.888C537.333 173.648 537.005 173.333 536.781 172.944C536.562 172.555 536.453 172.128 536.453 171.664C536.453 171.211 536.538 170.819 536.709 170.488C536.885 170.152 537.13 169.875 537.445 169.656C537.759 169.432 538.135 169.256 538.573 169.128C538.983 169.016 539.442 168.92 539.949 168.84C540.461 168.755 540.978 168.677 541.501 168.608C542.023 168.539 542.511 168.472 542.965 168.408L542.453 168.704C542.469 167.936 542.314 167.368 541.989 167C541.669 166.632 541.114 166.448 540.325 166.448C539.802 166.448 539.343 166.568 538.949 166.808C538.559 167.043 538.285 167.427 538.125 167.96L536.773 167.552C536.981 166.795 537.383 166.2 537.981 165.768C538.578 165.336 539.365 165.12 540.341 165.12C541.125 165.12 541.797 165.261 542.357 165.544C542.922 165.821 543.327 166.243 543.573 166.808C543.695 167.075 543.773 167.365 543.805 167.68C543.837 167.989 543.852 168.315 543.852 168.656V174H542.589V171.928L542.885 172.12C542.559 172.819 542.103 173.347 541.517 173.704C540.935 174.061 540.226 174.24 539.389 174.24ZM539.605 173.048C540.117 173.048 540.559 172.957 540.933 172.776C541.311 172.589 541.615 172.347 541.845 172.048C542.074 171.744 542.223 171.413 542.293 171.056C542.373 170.789 542.415 170.493 542.421 170.168C542.431 169.837 542.437 169.584 542.437 169.408L542.933 169.624C542.469 169.688 542.013 169.749 541.565 169.808C541.117 169.867 540.693 169.931 540.293 170C539.893 170.064 539.533 170.141 539.213 170.232C538.978 170.307 538.757 170.403 538.549 170.52C538.346 170.637 538.181 170.789 538.053 170.976C537.93 171.157 537.868 171.384 537.868 171.656C537.868 171.891 537.927 172.115 538.045 172.328C538.167 172.541 538.354 172.715 538.605 172.848C538.861 172.981 539.194 173.048 539.605 173.048ZM556.261 174L556.269 168.472C556.269 167.827 556.095 167.323 555.749 166.96C555.407 166.592 554.962 166.408 554.413 166.408C554.093 166.408 553.789 166.483 553.501 166.632C553.213 166.776 552.978 167.005 552.797 167.32C552.615 167.629 552.525 168.027 552.525 168.512L551.773 168.208C551.762 167.595 551.887 167.059 552.149 166.6C552.415 166.136 552.778 165.776 553.237 165.52C553.695 165.264 554.213 165.136 554.789 165.136C555.69 165.136 556.399 165.411 556.917 165.96C557.434 166.504 557.693 167.237 557.693 168.16L557.685 174H556.261ZM545.925 174V165.36H547.197V167.672H547.357V174H545.925ZM551.101 174L551.109 168.528C551.109 167.867 550.938 167.349 550.597 166.976C550.255 166.597 549.802 166.408 549.237 166.408C548.677 166.408 548.223 166.6 547.877 166.984C547.53 167.368 547.357 167.877 547.357 168.512L546.605 168.064C546.605 167.504 546.738 167.003 547.005 166.56C547.271 166.117 547.634 165.771 548.093 165.52C548.551 165.264 549.071 165.136 549.653 165.136C550.234 165.136 550.741 165.259 551.173 165.504C551.605 165.749 551.938 166.101 552.173 166.56C552.407 167.013 552.525 167.555 552.525 168.184L552.517 174H551.101Z" fill="#212528"/>
</g>
<g filter="url(#filter2_d_1653_26761)">
<rect x="329" y="308" width="208" height="38" rx="19" fill="white" shape-rendering="crispEdges"/>
<path d="M350.856 333.24C349.709 333.24 348.736 332.987 347.936 332.48C347.136 331.973 346.525 331.269 346.104 330.368C345.688 329.467 345.48 328.424 345.48 327.24C345.48 326.056 345.688 325.013 346.104 324.112C346.525 323.211 347.136 322.507 347.936 322C348.736 321.493 349.709 321.24 350.856 321.24C352.189 321.24 353.285 321.579 354.144 322.256C355.008 322.933 355.603 323.845 355.928 324.992L354.48 325.376C354.245 324.517 353.827 323.84 353.224 323.344C352.621 322.848 351.832 322.6 350.856 322.6C349.997 322.6 349.283 322.795 348.712 323.184C348.141 323.573 347.712 324.117 347.424 324.816C347.136 325.509 346.989 326.317 346.984 327.24C346.979 328.157 347.12 328.965 347.408 329.664C347.696 330.357 348.128 330.901 348.704 331.296C349.28 331.685 349.997 331.88 350.856 331.88C351.832 331.88 352.621 331.632 353.224 331.136C353.827 330.635 354.245 329.957 354.48 329.104L355.928 329.488C355.603 330.629 355.008 331.541 354.144 332.224C353.285 332.901 352.189 333.24 350.856 333.24ZM363.835 333V328.672C363.835 328.261 363.797 327.867 363.723 327.488C363.653 327.109 363.528 326.771 363.347 326.472C363.171 326.168 362.931 325.928 362.627 325.752C362.328 325.576 361.949 325.488 361.491 325.488C361.133 325.488 360.808 325.549 360.515 325.672C360.227 325.789 359.979 325.971 359.771 326.216C359.563 326.461 359.4 326.771 359.283 327.144C359.171 327.512 359.115 327.947 359.115 328.448L358.179 328.16C358.179 327.323 358.328 326.605 358.627 326.008C358.931 325.405 359.355 324.944 359.899 324.624C360.448 324.299 361.093 324.136 361.835 324.136C362.395 324.136 362.872 324.224 363.267 324.4C363.661 324.576 363.989 324.811 364.251 325.104C364.512 325.392 364.717 325.717 364.867 326.08C365.016 326.437 365.12 326.803 365.179 327.176C365.243 327.544 365.275 327.893 365.275 328.224V333H363.835ZM357.675 333V321.48H358.955V327.84H359.115V333H357.675ZM371.098 333.24C370.25 333.24 369.509 333.053 368.874 332.68C368.245 332.301 367.754 331.776 367.402 331.104C367.05 330.427 366.874 329.637 366.874 328.736C366.874 327.792 367.048 326.976 367.394 326.288C367.741 325.595 368.224 325.061 368.842 324.688C369.466 324.309 370.197 324.12 371.034 324.12C371.904 324.12 372.642 324.32 373.25 324.72C373.864 325.12 374.322 325.691 374.626 326.432C374.936 327.173 375.069 328.056 375.026 329.08H373.586V328.568C373.57 327.507 373.354 326.715 372.938 326.192C372.522 325.664 371.904 325.4 371.082 325.4C370.202 325.4 369.533 325.683 369.074 326.248C368.616 326.813 368.386 327.624 368.386 328.68C368.386 329.699 368.616 330.488 369.074 331.048C369.533 331.608 370.186 331.888 371.034 331.888C371.605 331.888 372.101 331.757 372.522 331.496C372.944 331.235 373.274 330.859 373.514 330.368L374.882 330.84C374.546 331.603 374.04 332.195 373.362 332.616C372.69 333.032 371.936 333.24 371.098 333.24ZM367.906 329.08V327.936H374.29V329.08H367.906ZM380.448 333.24C379.573 333.24 378.829 333.045 378.216 332.656C377.608 332.261 377.144 331.72 376.824 331.032C376.504 330.344 376.338 329.56 376.328 328.68C376.338 327.779 376.506 326.987 376.832 326.304C377.162 325.616 377.634 325.08 378.248 324.696C378.861 324.312 379.6 324.12 380.464 324.12C381.376 324.12 382.16 324.344 382.816 324.792C383.477 325.24 383.92 325.853 384.144 326.632L382.736 327.056C382.554 326.555 382.258 326.165 381.848 325.888C381.442 325.611 380.976 325.472 380.448 325.472C379.856 325.472 379.368 325.611 378.984 325.888C378.6 326.16 378.314 326.539 378.128 327.024C377.941 327.504 377.845 328.056 377.84 328.68C377.85 329.64 378.072 330.416 378.504 331.008C378.941 331.595 379.589 331.888 380.448 331.888C381.013 331.888 381.482 331.76 381.856 331.504C382.229 331.243 382.512 330.867 382.704 330.376L384.144 330.752C383.845 331.557 383.378 332.173 382.744 332.6C382.109 333.027 381.344 333.24 380.448 333.24ZM385.768 333L385.776 321.48H387.216V328.52L390.84 324.36H392.688L388.872 328.68L393.136 333H391.144L387.216 328.84V333H385.768ZM399.592 333.24C398.946 333.24 398.405 333.123 397.968 332.888C397.536 332.648 397.208 332.333 396.984 331.944C396.765 331.555 396.656 331.128 396.656 330.664C396.656 330.211 396.741 329.819 396.912 329.488C397.088 329.152 397.333 328.875 397.648 328.656C397.962 328.432 398.338 328.256 398.776 328.128C399.186 328.016 399.645 327.92 400.152 327.84C400.664 327.755 401.181 327.677 401.704 327.608C402.226 327.539 402.714 327.472 403.168 327.408L402.656 327.704C402.672 326.936 402.517 326.368 402.192 326C401.872 325.632 401.317 325.448 400.528 325.448C400.005 325.448 399.546 325.568 399.152 325.808C398.762 326.043 398.488 326.427 398.328 326.96L396.976 326.552C397.184 325.795 397.586 325.2 398.184 324.768C398.781 324.336 399.568 324.12 400.544 324.12C401.328 324.12 402 324.261 402.56 324.544C403.125 324.821 403.53 325.243 403.776 325.808C403.898 326.075 403.976 326.365 404.008 326.68C404.04 326.989 404.056 327.315 404.056 327.656V333H402.792V330.928L403.088 331.12C402.762 331.819 402.306 332.347 401.72 332.704C401.138 333.061 400.429 333.24 399.592 333.24ZM399.808 332.048C400.32 332.048 400.762 331.957 401.136 331.776C401.514 331.589 401.818 331.347 402.048 331.048C402.277 330.744 402.426 330.413 402.496 330.056C402.576 329.789 402.618 329.493 402.624 329.168C402.634 328.837 402.64 328.584 402.64 328.408L403.136 328.624C402.672 328.688 402.216 328.749 401.768 328.808C401.32 328.867 400.896 328.931 400.496 329C400.096 329.064 399.736 329.141 399.416 329.232C399.181 329.307 398.96 329.403 398.752 329.52C398.549 329.637 398.384 329.789 398.256 329.976C398.133 330.157 398.072 330.384 398.072 330.656C398.072 330.891 398.13 331.115 398.248 331.328C398.37 331.541 398.557 331.715 398.808 331.848C399.064 331.981 399.397 332.048 399.808 332.048ZM409.776 333.24C408.901 333.24 408.157 333.045 407.544 332.656C406.936 332.261 406.472 331.72 406.152 331.032C405.832 330.344 405.666 329.56 405.656 328.68C405.666 327.779 405.834 326.987 406.16 326.304C406.49 325.616 406.962 325.08 407.576 324.696C408.189 324.312 408.928 324.12 409.792 324.12C410.704 324.12 411.488 324.344 412.144 324.792C412.805 325.24 413.248 325.853 413.472 326.632L412.064 327.056C411.882 326.555 411.586 326.165 411.176 325.888C410.77 325.611 410.304 325.472 409.776 325.472C409.184 325.472 408.696 325.611 408.312 325.888C407.928 326.16 407.642 326.539 407.456 327.024C407.269 327.504 407.173 328.056 407.168 328.68C407.178 329.64 407.4 330.416 407.832 331.008C408.269 331.595 408.917 331.888 409.776 331.888C410.341 331.888 410.81 331.76 411.184 331.504C411.557 331.243 411.84 330.867 412.032 330.376L413.472 330.752C413.173 331.557 412.706 332.173 412.072 332.6C411.437 333.027 410.672 333.24 409.776 333.24ZM418.51 333.24C417.635 333.24 416.891 333.045 416.278 332.656C415.67 332.261 415.206 331.72 414.886 331.032C414.566 330.344 414.401 329.56 414.39 328.68C414.401 327.779 414.569 326.987 414.894 326.304C415.225 325.616 415.697 325.08 416.31 324.696C416.923 324.312 417.662 324.12 418.526 324.12C419.438 324.12 420.222 324.344 420.878 324.792C421.539 325.24 421.982 325.853 422.206 326.632L420.798 327.056C420.617 326.555 420.321 326.165 419.91 325.888C419.505 325.611 419.038 325.472 418.51 325.472C417.918 325.472 417.43 325.611 417.046 325.888C416.662 326.16 416.377 326.539 416.19 327.024C416.003 327.504 415.907 328.056 415.902 328.68C415.913 329.64 416.134 330.416 416.566 331.008C417.003 331.595 417.651 331.888 418.51 331.888C419.075 331.888 419.545 331.76 419.918 331.504C420.291 331.243 420.574 330.867 420.766 330.376L422.206 330.752C421.907 331.557 421.441 332.173 420.806 332.6C420.171 333.027 419.406 333.24 418.51 333.24ZM427.284 333.24C426.426 333.24 425.684 333.045 425.06 332.656C424.442 332.267 423.964 331.728 423.628 331.04C423.292 330.352 423.124 329.563 423.124 328.672C423.124 327.765 423.295 326.971 423.636 326.288C423.978 325.605 424.46 325.075 425.084 324.696C425.708 324.312 426.442 324.12 427.284 324.12C428.148 324.12 428.892 324.315 429.516 324.704C430.14 325.088 430.618 325.624 430.948 326.312C431.284 326.995 431.452 327.781 431.452 328.672C431.452 329.573 431.284 330.368 430.948 331.056C430.612 331.739 430.132 332.275 429.508 332.664C428.884 333.048 428.143 333.24 427.284 333.24ZM427.284 331.888C428.18 331.888 428.847 331.589 429.284 330.992C429.722 330.395 429.94 329.621 429.94 328.672C429.94 327.696 429.719 326.92 429.276 326.344C428.834 325.763 428.17 325.472 427.284 325.472C426.682 325.472 426.186 325.608 425.796 325.88C425.407 326.152 425.116 326.528 424.924 327.008C424.732 327.488 424.636 328.043 424.636 328.672C424.636 329.643 424.86 330.421 425.308 331.008C425.756 331.595 426.415 331.888 427.284 331.888ZM436.494 333.224C435.939 333.224 435.462 333.136 435.062 332.96C434.667 332.784 434.339 332.549 434.078 332.256C433.816 331.963 433.611 331.637 433.462 331.28C433.312 330.923 433.206 330.557 433.142 330.184C433.083 329.811 433.054 329.461 433.054 329.136V324.36H434.494V328.688C434.494 329.093 434.531 329.485 434.606 329.864C434.68 330.243 434.806 330.584 434.982 330.888C435.163 331.192 435.403 331.432 435.702 331.608C436.006 331.784 436.384 331.872 436.838 331.872C437.195 331.872 437.52 331.811 437.814 331.688C438.107 331.565 438.358 331.384 438.566 331.144C438.774 330.899 438.934 330.589 439.046 330.216C439.158 329.843 439.214 329.408 439.214 328.912L440.15 329.2C440.15 330.032 439.998 330.749 439.694 331.352C439.395 331.955 438.971 332.419 438.422 332.744C437.878 333.064 437.235 333.224 436.494 333.224ZM439.374 333V330.688H439.214V324.36H440.646V333H439.374ZM449.038 333V328.672C449.038 328.261 449 327.867 448.926 327.488C448.856 327.109 448.731 326.771 448.55 326.472C448.374 326.168 448.134 325.928 447.83 325.752C447.531 325.576 447.152 325.488 446.694 325.488C446.336 325.488 446.011 325.549 445.718 325.672C445.43 325.789 445.182 325.971 444.974 326.216C444.766 326.461 444.603 326.771 444.486 327.144C444.374 327.512 444.318 327.947 444.318 328.448L443.382 328.16C443.382 327.323 443.531 326.605 443.83 326.008C444.134 325.405 444.558 324.944 445.102 324.624C445.651 324.299 446.296 324.136 447.038 324.136C447.598 324.136 448.075 324.224 448.47 324.4C448.864 324.576 449.192 324.811 449.454 325.104C449.715 325.392 449.92 325.717 450.07 326.08C450.219 326.437 450.323 326.803 450.382 327.176C450.446 327.544 450.478 327.893 450.478 328.224V333H449.038ZM442.878 333V324.36H444.158V326.672H444.318V333H442.878ZM457.382 333C456.87 333.101 456.363 333.141 455.862 333.12C455.366 333.104 454.923 333.005 454.534 332.824C454.144 332.637 453.848 332.349 453.646 331.96C453.475 331.619 453.382 331.275 453.366 330.928C453.355 330.576 453.35 330.179 453.35 329.736V321.96H454.774V329.672C454.774 330.024 454.776 330.325 454.782 330.576C454.792 330.827 454.848 331.043 454.95 331.224C455.142 331.565 455.446 331.765 455.862 331.824C456.283 331.883 456.79 331.867 457.382 331.776V333ZM451.598 325.536V324.36H457.382V325.536H451.598ZM466.307 333.24C465.496 333.24 464.813 333.04 464.259 332.64C463.704 332.235 463.283 331.688 462.995 331C462.712 330.307 462.571 329.531 462.571 328.672C462.571 327.803 462.712 327.024 462.995 326.336C463.283 325.648 463.704 325.107 464.259 324.712C464.819 324.317 465.504 324.12 466.315 324.12C467.115 324.12 467.803 324.32 468.379 324.72C468.96 325.115 469.405 325.656 469.715 326.344C470.024 327.032 470.179 327.808 470.179 328.672C470.179 329.536 470.024 330.312 469.715 331C469.405 331.688 468.96 332.235 468.379 332.64C467.803 333.04 467.112 333.24 466.307 333.24ZM462.331 333V321.48H463.763V326.64H463.603V333H462.331ZM466.131 331.936C466.701 331.936 467.173 331.792 467.547 331.504C467.92 331.216 468.2 330.827 468.387 330.336C468.573 329.84 468.667 329.285 468.667 328.672C468.667 328.064 468.573 327.515 468.387 327.024C468.205 326.533 467.923 326.144 467.539 325.856C467.16 325.568 466.677 325.424 466.091 325.424C465.531 325.424 465.067 325.563 464.699 325.84C464.331 326.112 464.056 326.493 463.875 326.984C463.693 327.469 463.603 328.032 463.603 328.672C463.603 329.301 463.691 329.864 463.867 330.36C464.048 330.851 464.325 331.237 464.699 331.52C465.072 331.797 465.549 331.936 466.131 331.936ZM474.389 333.24C473.743 333.24 473.202 333.123 472.765 332.888C472.333 332.648 472.005 332.333 471.781 331.944C471.562 331.555 471.453 331.128 471.453 330.664C471.453 330.211 471.538 329.819 471.709 329.488C471.885 329.152 472.13 328.875 472.445 328.656C472.759 328.432 473.135 328.256 473.573 328.128C473.983 328.016 474.442 327.92 474.949 327.84C475.461 327.755 475.978 327.677 476.501 327.608C477.023 327.539 477.511 327.472 477.965 327.408L477.453 327.704C477.469 326.936 477.314 326.368 476.989 326C476.669 325.632 476.114 325.448 475.325 325.448C474.802 325.448 474.343 325.568 473.949 325.808C473.559 326.043 473.285 326.427 473.125 326.96L471.773 326.552C471.981 325.795 472.383 325.2 472.981 324.768C473.578 324.336 474.365 324.12 475.341 324.12C476.125 324.12 476.797 324.261 477.357 324.544C477.922 324.821 478.327 325.243 478.573 325.808C478.695 326.075 478.773 326.365 478.805 326.68C478.837 326.989 478.852 327.315 478.852 327.656V333H477.589V330.928L477.885 331.12C477.559 331.819 477.103 332.347 476.517 332.704C475.935 333.061 475.226 333.24 474.389 333.24ZM474.605 332.048C475.117 332.048 475.559 331.957 475.933 331.776C476.311 331.589 476.615 331.347 476.845 331.048C477.074 330.744 477.223 330.413 477.293 330.056C477.373 329.789 477.415 329.493 477.421 329.168C477.431 328.837 477.437 328.584 477.437 328.408L477.933 328.624C477.469 328.688 477.013 328.749 476.565 328.808C476.117 328.867 475.693 328.931 475.293 329C474.893 329.064 474.533 329.141 474.213 329.232C473.978 329.307 473.757 329.403 473.549 329.52C473.346 329.637 473.181 329.789 473.053 329.976C472.93 330.157 472.868 330.384 472.868 330.656C472.868 330.891 472.927 331.115 473.045 331.328C473.167 331.541 473.354 331.715 473.605 331.848C473.861 331.981 474.194 332.048 474.605 332.048ZM481.093 333V321.24H482.517V333H481.093ZM487.373 333.24C486.728 333.24 486.186 333.123 485.749 332.888C485.317 332.648 484.989 332.333 484.765 331.944C484.546 331.555 484.437 331.128 484.437 330.664C484.437 330.211 484.522 329.819 484.693 329.488C484.869 329.152 485.114 328.875 485.429 328.656C485.744 328.432 486.12 328.256 486.557 328.128C486.968 328.016 487.426 327.92 487.933 327.84C488.445 327.755 488.962 327.677 489.485 327.608C490.008 327.539 490.496 327.472 490.949 327.408L490.437 327.704C490.453 326.936 490.298 326.368 489.973 326C489.653 325.632 489.098 325.448 488.309 325.448C487.786 325.448 487.328 325.568 486.933 325.808C486.544 326.043 486.269 326.427 486.109 326.96L484.757 326.552C484.965 325.795 485.368 325.2 485.965 324.768C486.562 324.336 487.349 324.12 488.325 324.12C489.109 324.12 489.781 324.261 490.341 324.544C490.906 324.821 491.312 325.243 491.557 325.808C491.68 326.075 491.757 326.365 491.789 326.68C491.821 326.989 491.837 327.315 491.837 327.656V333H490.573V330.928L490.869 331.12C490.544 331.819 490.088 332.347 489.501 332.704C488.92 333.061 488.21 333.24 487.373 333.24ZM487.589 332.048C488.101 332.048 488.544 331.957 488.917 331.776C489.296 331.589 489.6 331.347 489.829 331.048C490.058 330.744 490.208 330.413 490.277 330.056C490.357 329.789 490.4 329.493 490.405 329.168C490.416 328.837 490.421 328.584 490.421 328.408L490.917 328.624C490.453 328.688 489.997 328.749 489.549 328.808C489.101 328.867 488.677 328.931 488.277 329C487.877 329.064 487.517 329.141 487.197 329.232C486.962 329.307 486.741 329.403 486.533 329.52C486.33 329.637 486.165 329.789 486.037 329.976C485.914 330.157 485.853 330.384 485.853 330.656C485.853 330.891 485.912 331.115 486.029 331.328C486.152 331.541 486.338 331.715 486.589 331.848C486.845 331.981 487.178 332.048 487.589 332.048ZM500.069 333V328.672C500.069 328.261 500.032 327.867 499.957 327.488C499.888 327.109 499.762 326.771 499.581 326.472C499.405 326.168 499.165 325.928 498.861 325.752C498.562 325.576 498.184 325.488 497.725 325.488C497.368 325.488 497.042 325.549 496.749 325.672C496.461 325.789 496.213 325.971 496.005 326.216C495.797 326.461 495.634 326.771 495.517 327.144C495.405 327.512 495.349 327.947 495.349 328.448L494.413 328.16C494.413 327.323 494.562 326.605 494.861 326.008C495.165 325.405 495.589 324.944 496.133 324.624C496.682 324.299 497.328 324.136 498.069 324.136C498.629 324.136 499.106 324.224 499.501 324.4C499.896 324.576 500.224 324.811 500.485 325.104C500.746 325.392 500.952 325.717 501.101 326.08C501.25 326.437 501.354 326.803 501.413 327.176C501.477 327.544 501.509 327.893 501.509 328.224V333H500.069ZM493.909 333V324.36H495.189V326.672H495.349V333H493.909ZM507.151 333.24C506.276 333.24 505.532 333.045 504.919 332.656C504.311 332.261 503.847 331.72 503.527 331.032C503.207 330.344 503.041 329.56 503.031 328.68C503.041 327.779 503.209 326.987 503.535 326.304C503.865 325.616 504.337 325.08 504.951 324.696C505.564 324.312 506.303 324.12 507.167 324.12C508.079 324.12 508.863 324.344 509.519 324.792C510.18 325.24 510.623 325.853 510.847 326.632L509.439 327.056C509.257 326.555 508.961 326.165 508.551 325.888C508.145 325.611 507.679 325.472 507.151 325.472C506.559 325.472 506.071 325.611 505.687 325.888C505.303 326.16 505.017 326.539 504.831 327.024C504.644 327.504 504.548 328.056 504.543 328.68C504.553 329.64 504.775 330.416 505.207 331.008C505.644 331.595 506.292 331.888 507.151 331.888C507.716 331.888 508.185 331.76 508.559 331.504C508.932 331.243 509.215 330.867 509.407 330.376L510.847 330.752C510.548 331.557 510.081 332.173 509.447 332.6C508.812 333.027 508.047 333.24 507.151 333.24ZM515.989 333.24C515.141 333.24 514.4 333.053 513.765 332.68C513.136 332.301 512.645 331.776 512.293 331.104C511.941 330.427 511.765 329.637 511.765 328.736C511.765 327.792 511.938 326.976 512.285 326.288C512.632 325.595 513.114 325.061 513.733 324.688C514.357 324.309 515.088 324.12 515.925 324.12C516.794 324.12 517.533 324.32 518.141 324.72C518.754 325.12 519.213 325.691 519.517 326.432C519.826 327.173 519.96 328.056 519.917 329.08H518.477V328.568C518.461 327.507 518.245 326.715 517.829 326.192C517.413 325.664 516.794 325.4 515.973 325.4C515.093 325.4 514.424 325.683 513.965 326.248C513.506 326.813 513.277 327.624 513.277 328.68C513.277 329.699 513.506 330.488 513.965 331.048C514.424 331.608 515.077 331.888 515.925 331.888C516.496 331.888 516.992 331.757 517.413 331.496C517.834 331.235 518.165 330.859 518.405 330.368L519.773 330.84C519.437 331.603 518.93 332.195 518.253 332.616C517.581 333.032 516.826 333.24 515.989 333.24ZM512.797 329.08V327.936H519.181V329.08H512.797Z" fill="#212528"/>
</g>
<path d="M279.25 281C279.25 280.31 278.69 279.75 278 279.75C277.31 279.75 276.75 280.31 276.75 281L279.25 281ZM278 330L276.75 330L276.75 331.25L278 331.25L278 330ZM315.884 330.884C316.372 330.396 316.372 329.604 315.884 329.116L307.929 321.161C307.441 320.673 306.649 320.673 306.161 321.161C305.673 321.649 305.673 322.441 306.161 322.929L313.232 330L306.161 337.071C305.673 337.559 305.673 338.351 306.161 338.839C306.649 339.327 307.441 339.327 307.929 338.839L315.884 330.884ZM276.75 281L276.75 330L279.25 330L279.25 281L276.75 281ZM278 331.25L315 331.25L315 328.75L278 328.75L278 331.25Z" fill="#D5D9DC"/>
<defs>
<filter id="filter0_d_1653_26761" x="387" y="68" width="180" height="46" filterUnits="userSpaceOnUse" color-interpolation-filters="sRGB">
<feFlood flood-opacity="0" result="BackgroundImageFix"/>
<feColorMatrix in="SourceAlpha" type="matrix" values="0 0 0 0 0 0 0 0 0 0 0 0 0 0 0 0 0 0 127 0" result="hardAlpha"/>
<feOffset dy="4"/>
<feGaussianBlur stdDeviation="2"/>
<feComposite in2="hardAlpha" operator="out"/>
<feColorMatrix type="matrix" values="0 0 0 0 0 0 0 0 0 0 0 0 0 0 0 0 0 0 0.25 0"/>
<feBlend mode="normal" in2="BackgroundImageFix" result="effect1_dropShadow_1653_26761"/>
<feBlend mode="normal" in="SourceGraphic" in2="effect1_dropShadow_1653_26761" result="shape"/>
</filter>
<filter id="filter1_d_1653_26761" x="454" y="149" width="125" height="46" filterUnits="userSpaceOnUse" color-interpolation-filters="sRGB">
<feFlood flood-opacity="0" result="BackgroundImageFix"/>
<feColorMatrix in="SourceAlpha" type="matrix" values="0 0 0 0 0 0 0 0 0 0 0 0 0 0 0 0 0 0 127 0" result="hardAlpha"/>
<feOffset dy="4"/>
<feGaussianBlur stdDeviation="2"/>
<feComposite in2="hardAlpha" operator="out"/>
<feColorMatrix type="matrix" values="0 0 0 0 0 0 0 0 0 0 0 0 0 0 0 0 0 0 0.25 0"/>
<feBlend mode="normal" in2="BackgroundImageFix" result="effect1_dropShadow_1653_26761"/>
<feBlend mode="normal" in="SourceGraphic" in2="effect1_dropShadow_1653_26761" result="shape"/>
</filter>
<filter id="filter2_d_1653_26761" x="325" y="308" width="216" height="46" filterUnits="userSpaceOnUse" color-interpolation-filters="sRGB">
<feFlood flood-opacity="0" result="BackgroundImageFix"/>
<feColorMatrix in="SourceAlpha" type="matrix" values="0 0 0 0 0 0 0 0 0 0 0 0 0 0 0 0 0 0 127 0" result="hardAlpha"/>
<feOffset dy="4"/>
<feGaussianBlur stdDeviation="2"/>
<feComposite in2="hardAlpha" operator="out"/>
<feColorMatrix type="matrix" values="0 0 0 0 0 0 0 0 0 0 0 0 0 0 0 0 0 0 0.25 0"/>
<feBlend mode="normal" in2="BackgroundImageFix" result="effect1_dropShadow_1653_26761"/>
<feBlend mode="normal" in="SourceGraphic" in2="effect1_dropShadow_1653_26761" result="shape"/>
</filter>
</defs>
</svg>
