<svg width="611" height="458" viewBox="0 0 611 458" fill="none" xmlns="http://www.w3.org/2000/svg">
<rect x="117" y="236" width="211" height="97" rx="8" fill="#3892E0" fill-opacity="0.12"/>
<path d="M156.953 277.44L155.073 275.56L146.62 284.013L148.5 285.893L156.953 277.44ZM162.607 275.56L148.5 289.667L142.927 284.107L141.047 285.987L148.5 293.44L164.5 277.44L162.607 275.56ZM133.5 285.987L140.953 293.44L142.833 291.56L135.393 284.107L133.5 285.987Z" fill="#1157A6"/>
<path d="M182.119 275V264.818H185.748C186.537 264.818 187.191 264.954 187.712 265.226C188.235 265.498 188.626 265.874 188.885 266.354C189.143 266.832 189.273 267.384 189.273 268.01C189.273 268.633 189.142 269.182 188.88 269.656C188.621 270.126 188.23 270.492 187.707 270.754C187.186 271.016 186.532 271.147 185.743 271.147H182.994V269.825H185.604C186.101 269.825 186.505 269.753 186.817 269.611C187.132 269.468 187.362 269.261 187.508 268.989C187.654 268.718 187.727 268.391 187.727 268.01C187.727 267.625 187.652 267.292 187.503 267.011C187.357 266.729 187.127 266.513 186.812 266.364C186.5 266.212 186.091 266.136 185.584 266.136H183.655V275H182.119ZM187.145 270.406L189.661 275H187.911L185.445 270.406H187.145ZM194.218 275.154C193.466 275.154 192.818 274.993 192.274 274.672C191.734 274.347 191.316 273.891 191.021 273.305C190.73 272.715 190.584 272.024 190.584 271.232C190.584 270.449 190.73 269.76 191.021 269.163C191.316 268.567 191.727 268.101 192.254 267.766C192.785 267.432 193.405 267.264 194.114 267.264C194.545 267.264 194.962 267.335 195.367 267.478C195.771 267.621 196.134 267.844 196.455 268.149C196.777 268.454 197.03 268.85 197.216 269.337C197.402 269.821 197.494 270.41 197.494 271.102V271.629H191.424V270.516H196.038C196.038 270.125 195.958 269.778 195.799 269.477C195.64 269.172 195.416 268.931 195.128 268.756C194.843 268.58 194.508 268.492 194.124 268.492C193.706 268.492 193.342 268.595 193.03 268.8C192.722 269.003 192.483 269.268 192.314 269.596C192.148 269.921 192.066 270.274 192.066 270.655V271.525C192.066 272.035 192.155 272.469 192.334 272.827C192.516 273.185 192.77 273.459 193.095 273.648C193.419 273.833 193.799 273.926 194.233 273.926C194.515 273.926 194.772 273.886 195.004 273.807C195.236 273.724 195.436 273.601 195.605 273.439C195.774 273.277 195.904 273.076 195.993 272.837L197.4 273.091C197.287 273.505 197.085 273.868 196.794 274.18C196.505 274.488 196.142 274.728 195.705 274.901C195.271 275.07 194.775 275.154 194.218 275.154ZM201.366 275.169C200.882 275.169 200.445 275.08 200.054 274.901C199.663 274.718 199.353 274.455 199.124 274.11C198.899 273.765 198.786 273.343 198.786 272.842C198.786 272.411 198.869 272.057 199.034 271.778C199.2 271.5 199.424 271.28 199.706 271.117C199.987 270.955 200.302 270.832 200.65 270.749C200.998 270.666 201.353 270.603 201.714 270.56C202.172 270.507 202.543 270.464 202.828 270.431C203.113 270.395 203.32 270.337 203.449 270.257C203.578 270.178 203.643 270.048 203.643 269.869V269.835C203.643 269.4 203.52 269.064 203.275 268.825C203.033 268.587 202.672 268.467 202.191 268.467C201.691 268.467 201.297 268.578 201.008 268.8C200.723 269.019 200.526 269.263 200.417 269.531L199.02 269.213C199.185 268.749 199.427 268.375 199.745 268.089C200.067 267.801 200.436 267.592 200.854 267.463C201.272 267.33 201.711 267.264 202.172 267.264C202.476 267.264 202.8 267.301 203.141 267.374C203.486 267.443 203.807 267.572 204.105 267.761C204.407 267.95 204.654 268.22 204.846 268.572C205.038 268.92 205.135 269.372 205.135 269.929V275H203.683V273.956H203.623C203.527 274.148 203.383 274.337 203.191 274.523C202.998 274.708 202.752 274.862 202.45 274.985C202.148 275.108 201.787 275.169 201.366 275.169ZM201.689 273.976C202.1 273.976 202.452 273.895 202.743 273.732C203.038 273.57 203.262 273.358 203.414 273.096C203.57 272.831 203.648 272.547 203.648 272.246V271.261C203.595 271.314 203.492 271.364 203.34 271.411C203.191 271.454 203.02 271.492 202.828 271.525C202.636 271.555 202.448 271.583 202.266 271.609C202.084 271.633 201.931 271.652 201.809 271.669C201.52 271.705 201.257 271.767 201.018 271.853C200.783 271.939 200.594 272.063 200.451 272.226C200.312 272.385 200.243 272.597 200.243 272.862C200.243 273.23 200.378 273.509 200.65 273.697C200.922 273.883 201.268 273.976 201.689 273.976ZM209.973 275.149C209.357 275.149 208.807 274.992 208.323 274.677C207.842 274.359 207.464 273.906 207.189 273.32C206.917 272.73 206.781 272.022 206.781 271.197C206.781 270.371 206.919 269.665 207.194 269.079C207.472 268.492 207.854 268.043 208.338 267.732C208.821 267.42 209.37 267.264 209.983 267.264C210.457 267.264 210.838 267.344 211.127 267.503C211.418 267.659 211.644 267.841 211.803 268.05C211.965 268.259 212.091 268.442 212.181 268.602H212.27V264.818H213.757V275H212.305V273.812H212.181C212.091 273.974 211.962 274.16 211.793 274.369C211.627 274.577 211.398 274.76 211.107 274.915C210.815 275.071 210.437 275.149 209.973 275.149ZM210.301 273.881C210.729 273.881 211.09 273.769 211.385 273.543C211.683 273.315 211.909 272.998 212.061 272.594C212.217 272.189 212.295 271.719 212.295 271.182C212.295 270.652 212.219 270.187 212.066 269.79C211.914 269.392 211.69 269.082 211.395 268.86C211.1 268.638 210.735 268.527 210.301 268.527C209.854 268.527 209.481 268.643 209.183 268.875C208.884 269.107 208.659 269.424 208.507 269.825C208.357 270.226 208.283 270.678 208.283 271.182C208.283 271.692 208.359 272.151 208.512 272.559C208.664 272.967 208.889 273.29 209.188 273.528C209.489 273.764 209.86 273.881 210.301 273.881Z" fill="#1E75BA"/>
<path d="M182.415 303V300.341L188.628 294.588C189.156 294.077 189.599 293.616 189.957 293.207C190.321 292.798 190.597 292.398 190.784 292.006C190.972 291.608 191.065 291.179 191.065 290.719C191.065 290.207 190.949 289.767 190.716 289.398C190.483 289.023 190.165 288.736 189.761 288.537C189.358 288.332 188.901 288.23 188.389 288.23C187.855 288.23 187.389 288.338 186.991 288.554C186.594 288.77 186.287 289.08 186.071 289.483C185.855 289.886 185.747 290.366 185.747 290.923H182.244C182.244 289.781 182.503 288.79 183.02 287.949C183.537 287.108 184.261 286.457 185.193 285.997C186.125 285.537 187.199 285.307 188.415 285.307C189.665 285.307 190.753 285.528 191.679 285.972C192.611 286.409 193.335 287.017 193.852 287.795C194.369 288.574 194.628 289.466 194.628 290.472C194.628 291.131 194.497 291.781 194.236 292.423C193.98 293.065 193.523 293.778 192.864 294.562C192.205 295.341 191.276 296.276 190.077 297.366L187.528 299.864V299.983H194.858V303H182.415ZM204.376 303.384C202.91 303.378 201.648 303.017 200.592 302.301C199.54 301.585 198.731 300.548 198.163 299.19C197.6 297.832 197.322 296.199 197.327 294.29C197.327 292.386 197.609 290.764 198.171 289.423C198.739 288.082 199.549 287.062 200.6 286.364C201.657 285.659 202.915 285.307 204.376 285.307C205.836 285.307 207.092 285.659 208.143 286.364C209.2 287.068 210.012 288.091 210.58 289.432C211.148 290.767 211.43 292.386 211.424 294.29C211.424 296.205 211.14 297.841 210.572 299.199C210.009 300.557 209.202 301.594 208.151 302.31C207.1 303.026 205.842 303.384 204.376 303.384ZM204.376 300.324C205.376 300.324 206.174 299.821 206.771 298.815C207.367 297.81 207.663 296.301 207.657 294.29C207.657 292.966 207.521 291.864 207.248 290.983C206.981 290.102 206.6 289.44 206.106 288.997C205.617 288.554 205.04 288.332 204.376 288.332C203.381 288.332 202.586 288.83 201.989 289.824C201.393 290.818 201.092 292.307 201.086 294.29C201.086 295.631 201.219 296.75 201.487 297.648C201.759 298.54 202.143 299.21 202.637 299.659C203.131 300.102 203.711 300.324 204.376 300.324Z" fill="#1E75BA"/>
<rect x="254" y="303" width="212" height="97" rx="8" fill="#CC5229" fill-opacity="0.12"/>
<path d="M296.667 338.167H275.333C273.867 338.167 272.667 339.367 272.667 340.833V364.833L278 359.5H296.667C298.133 359.5 299.333 358.3 299.333 356.833V340.833C299.333 339.367 298.133 338.167 296.667 338.167ZM296.667 356.833H276.893L275.333 358.393V340.833H296.667V356.833ZM284.667 342.167H287.333V350.167H284.667V342.167ZM284.667 352.833H287.333V355.5H284.667V352.833Z" fill="#CC5229"/>
<path d="M319.119 342V331.818H325.433V333.141H320.655V336.243H324.98V337.56H320.655V342H319.119ZM329.397 342.169C328.913 342.169 328.476 342.08 328.085 341.901C327.694 341.718 327.384 341.455 327.155 341.11C326.93 340.765 326.817 340.343 326.817 339.842C326.817 339.411 326.9 339.057 327.066 338.778C327.231 338.5 327.455 338.28 327.737 338.117C328.019 337.955 328.333 337.832 328.681 337.749C329.029 337.666 329.384 337.603 329.745 337.56C330.203 337.507 330.574 337.464 330.859 337.431C331.144 337.395 331.351 337.337 331.48 337.257C331.61 337.178 331.674 337.048 331.674 336.869V336.835C331.674 336.4 331.552 336.064 331.306 335.825C331.065 335.587 330.703 335.467 330.223 335.467C329.722 335.467 329.328 335.578 329.039 335.8C328.754 336.019 328.557 336.263 328.448 336.531L327.051 336.213C327.217 335.749 327.458 335.375 327.777 335.089C328.098 334.801 328.468 334.592 328.885 334.463C329.303 334.33 329.742 334.264 330.203 334.264C330.508 334.264 330.831 334.301 331.172 334.374C331.517 334.443 331.838 334.572 332.137 334.761C332.438 334.95 332.685 335.22 332.877 335.572C333.07 335.92 333.166 336.372 333.166 336.929V342H331.714V340.956H331.654C331.558 341.148 331.414 341.337 331.222 341.523C331.03 341.708 330.783 341.862 330.481 341.985C330.18 342.108 329.818 342.169 329.397 342.169ZM329.721 340.976C330.132 340.976 330.483 340.895 330.775 340.732C331.069 340.57 331.293 340.358 331.446 340.096C331.601 339.831 331.679 339.547 331.679 339.246V338.261C331.626 338.314 331.524 338.364 331.371 338.411C331.222 338.454 331.051 338.492 330.859 338.525C330.667 338.555 330.48 338.583 330.297 338.609C330.115 338.633 329.962 338.652 329.84 338.669C329.551 338.705 329.288 338.767 329.049 338.853C328.814 338.939 328.625 339.063 328.483 339.226C328.343 339.385 328.274 339.597 328.274 339.862C328.274 340.23 328.41 340.509 328.681 340.697C328.953 340.883 329.3 340.976 329.721 340.976ZM335.146 342V334.364H336.632V342H335.146ZM335.896 333.185C335.638 333.185 335.416 333.099 335.23 332.927C335.048 332.751 334.957 332.542 334.957 332.3C334.957 332.055 335.048 331.846 335.23 331.674C335.416 331.498 335.638 331.411 335.896 331.411C336.155 331.411 336.375 331.498 336.558 331.674C336.743 331.846 336.836 332.055 336.836 332.3C336.836 332.542 336.743 332.751 336.558 332.927C336.375 333.099 336.155 333.185 335.896 333.185ZM340.119 331.818V342H338.632V331.818H340.119ZM345.41 342.154C344.657 342.154 344.009 341.993 343.466 341.672C342.925 341.347 342.508 340.891 342.213 340.305C341.921 339.715 341.775 339.024 341.775 338.232C341.775 337.449 341.921 336.76 342.213 336.163C342.508 335.567 342.919 335.101 343.446 334.766C343.976 334.432 344.596 334.264 345.305 334.264C345.736 334.264 346.154 334.335 346.558 334.478C346.962 334.621 347.325 334.844 347.647 335.149C347.968 335.454 348.222 335.85 348.407 336.337C348.593 336.821 348.686 337.41 348.686 338.102V338.629H342.616V337.516H347.229C347.229 337.125 347.15 336.778 346.991 336.477C346.831 336.172 346.608 335.931 346.319 335.756C346.034 335.58 345.7 335.492 345.315 335.492C344.898 335.492 344.533 335.595 344.221 335.8C343.913 336.003 343.675 336.268 343.506 336.596C343.34 336.921 343.257 337.274 343.257 337.655V338.525C343.257 339.035 343.346 339.469 343.525 339.827C343.708 340.185 343.961 340.459 344.286 340.648C344.611 340.833 344.99 340.926 345.425 340.926C345.706 340.926 345.963 340.886 346.195 340.807C346.427 340.724 346.628 340.601 346.797 340.439C346.966 340.277 347.095 340.076 347.184 339.837L348.591 340.091C348.479 340.505 348.277 340.868 347.985 341.18C347.697 341.488 347.334 341.728 346.896 341.901C346.462 342.07 345.966 342.154 345.41 342.154ZM353.194 342.149C352.577 342.149 352.027 341.992 351.543 341.677C351.063 341.359 350.685 340.906 350.41 340.32C350.138 339.73 350.002 339.022 350.002 338.197C350.002 337.371 350.14 336.665 350.415 336.079C350.693 335.492 351.074 335.043 351.558 334.732C352.042 334.42 352.591 334.264 353.204 334.264C353.678 334.264 354.059 334.344 354.347 334.503C354.639 334.659 354.864 334.841 355.023 335.05C355.186 335.259 355.312 335.442 355.401 335.602H355.491V331.818H356.977V342H355.526V340.812H355.401C355.312 340.974 355.183 341.16 355.013 341.369C354.848 341.577 354.619 341.76 354.327 341.915C354.036 342.071 353.658 342.149 353.194 342.149ZM353.522 340.881C353.95 340.881 354.311 340.769 354.606 340.543C354.904 340.315 355.129 339.998 355.282 339.594C355.438 339.189 355.516 338.719 355.516 338.182C355.516 337.652 355.439 337.187 355.287 336.79C355.134 336.392 354.911 336.082 354.616 335.86C354.321 335.638 353.956 335.527 353.522 335.527C353.075 335.527 352.702 335.643 352.403 335.875C352.105 336.107 351.88 336.424 351.727 336.825C351.578 337.226 351.504 337.678 351.504 338.182C351.504 338.692 351.58 339.151 351.732 339.559C351.885 339.967 352.11 340.29 352.408 340.528C352.71 340.764 353.081 340.881 353.522 340.881Z" fill="#CC5229"/>
<path d="M319.151 366.932V364.026L326.438 352.545H328.943V356.568H327.46L322.866 363.838V363.974H333.222V366.932H319.151ZM327.528 370V366.045L327.597 364.759V352.545H331.057V370H327.528Z" fill="#CC5229"/>
</svg>
