<svg width="956" height="395" viewBox="0 0 956 395" fill="none" xmlns="http://www.w3.org/2000/svg">
<path fill-rule="evenodd" clip-rule="evenodd" d="M571.667 138.778C585.912 171.028 591.966 207.047 580.95 239.726C569.071 274.964 546.073 309.493 511.148 318.301C477.847 326.699 448.218 297.274 416.789 281.126C386.21 265.415 349.309 258.127 333.107 226.825C315.415 192.644 313.112 148.797 331.514 116.376C348.838 85.8539 387.272 81.3452 420.536 72.7887C449.266 65.3985 478.7 59.1733 506.576 71.345C535.751 84.0836 558.425 108.799 571.667 138.778Z" fill="#DBEAF6"/>
<g filter="url(#filter0_d_1595_21905)">
<path d="M233 160C233 155.582 236.582 152 241 152H534C538.418 152 542 155.582 542 160V208C542 212.418 538.418 216 534 216H241C236.582 216 233 212.418 233 208V160Z" fill="white"/>
<rect x="245.5" y="164" width="40" height="40" rx="20" fill="white"/>
<rect x="246.75" y="165.25" width="37.5" height="37.5" rx="18.75" fill="#4CD9D9" fill-opacity="0.16"/>
<path d="M257.154 189.5H254.904L259.001 177.864H261.603L265.705 189.5H263.455L260.347 180.25H260.256L257.154 189.5ZM257.228 184.938H263.364V186.631H257.228V184.938ZM265.575 177.864H267.955L270.802 183.011H270.916L273.762 177.864H276.143L271.91 185.159V189.5H269.808V185.159L265.575 177.864Z" fill="#212528"/>
<circle cx="279" cy="197" r="4" fill="#29A653"/>
<circle cx="279" cy="197" r="4" stroke="white"/>
<rect x="246.75" y="165.25" width="37.5" height="37.5" rx="18.75" stroke="white" stroke-width="2.5"/>
<path d="M297.25 200.119C296.608 200.119 296.061 199.945 295.609 199.595C295.158 199.243 294.813 198.733 294.574 198.065C294.335 197.395 294.216 196.585 294.216 195.636C294.216 194.693 294.335 193.888 294.574 193.22C294.815 192.55 295.162 192.038 295.614 191.686C296.068 191.331 296.614 191.153 297.25 191.153C297.886 191.153 298.43 191.331 298.882 191.686C299.337 192.038 299.683 192.55 299.922 193.22C300.163 193.888 300.284 194.693 300.284 195.636C300.284 196.585 300.165 197.395 299.926 198.065C299.688 198.733 299.342 199.243 298.891 199.595C298.439 199.945 297.892 200.119 297.25 200.119ZM297.25 199.182C297.886 199.182 298.381 198.875 298.733 198.261C299.085 197.648 299.261 196.773 299.261 195.636C299.261 194.881 299.18 194.237 299.018 193.706C298.859 193.175 298.629 192.77 298.328 192.491C298.03 192.213 297.67 192.074 297.25 192.074C296.619 192.074 296.126 192.385 295.771 193.007C295.416 193.626 295.239 194.503 295.239 195.636C295.239 196.392 295.318 197.034 295.477 197.562C295.636 198.091 295.865 198.493 296.163 198.768C296.464 199.044 296.827 199.182 297.25 199.182ZM304.75 200.119C304.108 200.119 303.561 199.945 303.109 199.595C302.658 199.243 302.313 198.733 302.074 198.065C301.835 197.395 301.716 196.585 301.716 195.636C301.716 194.693 301.835 193.888 302.074 193.22C302.315 192.55 302.662 192.038 303.114 191.686C303.568 191.331 304.114 191.153 304.75 191.153C305.386 191.153 305.93 191.331 306.382 191.686C306.837 192.038 307.183 192.55 307.422 193.22C307.663 193.888 307.784 194.693 307.784 195.636C307.784 196.585 307.665 197.395 307.426 198.065C307.188 198.733 306.842 199.243 306.391 199.595C305.939 199.945 305.392 200.119 304.75 200.119ZM304.75 199.182C305.386 199.182 305.881 198.875 306.233 198.261C306.585 197.648 306.761 196.773 306.761 195.636C306.761 194.881 306.68 194.237 306.518 193.706C306.359 193.175 306.129 192.77 305.828 192.491C305.53 192.213 305.17 192.074 304.75 192.074C304.119 192.074 303.626 192.385 303.271 193.007C302.916 193.626 302.739 194.503 302.739 195.636C302.739 196.392 302.818 197.034 302.977 197.562C303.136 198.091 303.365 198.493 303.663 198.768C303.964 199.044 304.327 199.182 304.75 199.182ZM309.442 200L313.345 192.278V192.21H308.845V191.273H314.436V192.261L310.55 200H309.442Z" fill="#5D6164"/>
<path d="M296.142 180H293.892L297.989 168.364H300.591L304.693 180H302.443L299.335 170.75H299.244L296.142 180ZM296.216 175.438H302.352V177.131H296.216V175.438ZM312.892 173.58L311.017 173.784C310.964 173.595 310.871 173.417 310.739 173.25C310.61 173.083 310.436 172.949 310.216 172.847C309.996 172.744 309.727 172.693 309.409 172.693C308.981 172.693 308.621 172.786 308.33 172.972C308.042 173.157 307.9 173.398 307.903 173.693C307.9 173.947 307.992 174.153 308.182 174.312C308.375 174.472 308.693 174.602 309.136 174.705L310.625 175.023C311.451 175.201 312.064 175.483 312.466 175.869C312.871 176.256 313.076 176.761 313.08 177.386C313.076 177.936 312.915 178.42 312.597 178.841C312.282 179.258 311.845 179.583 311.284 179.818C310.723 180.053 310.08 180.17 309.352 180.17C308.284 180.17 307.424 179.947 306.773 179.5C306.121 179.049 305.733 178.422 305.608 177.619L307.614 177.426C307.705 177.82 307.898 178.117 308.193 178.318C308.489 178.519 308.873 178.619 309.347 178.619C309.835 178.619 310.227 178.519 310.523 178.318C310.822 178.117 310.972 177.869 310.972 177.574C310.972 177.324 310.875 177.117 310.682 176.955C310.492 176.792 310.197 176.667 309.795 176.58L308.307 176.267C307.47 176.093 306.85 175.799 306.449 175.386C306.047 174.97 305.848 174.443 305.852 173.807C305.848 173.269 305.994 172.803 306.29 172.409C306.589 172.011 307.004 171.705 307.534 171.489C308.068 171.269 308.684 171.159 309.381 171.159C310.403 171.159 311.208 171.377 311.795 171.812C312.386 172.248 312.752 172.837 312.892 173.58ZM316.832 174.886V180H314.776V168.364H316.787V172.756H316.889C317.094 172.263 317.41 171.875 317.838 171.591C318.27 171.303 318.819 171.159 319.486 171.159C320.092 171.159 320.62 171.286 321.071 171.54C321.522 171.794 321.87 172.165 322.116 172.653C322.366 173.142 322.491 173.739 322.491 174.443V180H320.435V174.761C320.435 174.174 320.283 173.718 319.98 173.392C319.681 173.062 319.26 172.898 318.719 172.898C318.355 172.898 318.029 172.977 317.741 173.136C317.457 173.292 317.234 173.517 317.071 173.812C316.912 174.108 316.832 174.466 316.832 174.886ZM324.588 180V171.273H326.645V180H324.588ZM325.622 170.034C325.296 170.034 325.016 169.926 324.781 169.71C324.546 169.491 324.429 169.227 324.429 168.92C324.429 168.61 324.546 168.347 324.781 168.131C325.016 167.911 325.296 167.801 325.622 167.801C325.952 167.801 326.232 167.911 326.463 168.131C326.698 168.347 326.815 168.61 326.815 168.92C326.815 169.227 326.698 169.491 326.463 169.71C326.232 169.926 325.952 170.034 325.622 170.034ZM335.658 173.58L333.783 173.784C333.73 173.595 333.637 173.417 333.504 173.25C333.375 173.083 333.201 172.949 332.982 172.847C332.762 172.744 332.493 172.693 332.175 172.693C331.747 172.693 331.387 172.786 331.095 172.972C330.807 173.157 330.665 173.398 330.669 173.693C330.665 173.947 330.758 174.153 330.947 174.312C331.141 174.472 331.459 174.602 331.902 174.705L333.391 175.023C334.216 175.201 334.83 175.483 335.232 175.869C335.637 176.256 335.841 176.761 335.845 177.386C335.841 177.936 335.68 178.42 335.362 178.841C335.048 179.258 334.61 179.583 334.05 179.818C333.489 180.053 332.845 180.17 332.118 180.17C331.05 180.17 330.19 179.947 329.538 179.5C328.887 179.049 328.499 178.422 328.374 177.619L330.379 177.426C330.47 177.82 330.663 178.117 330.959 178.318C331.254 178.519 331.639 178.619 332.112 178.619C332.601 178.619 332.993 178.519 333.288 178.318C333.588 178.117 333.737 177.869 333.737 177.574C333.737 177.324 333.641 177.117 333.447 176.955C333.258 176.792 332.963 176.667 332.561 176.58L331.072 176.267C330.235 176.093 329.616 175.799 329.214 175.386C328.813 174.97 328.614 174.443 328.618 173.807C328.614 173.269 328.76 172.803 329.055 172.409C329.355 172.011 329.769 171.705 330.3 171.489C330.834 171.269 331.449 171.159 332.146 171.159C333.169 171.159 333.974 171.377 334.561 171.812C335.152 172.248 335.518 172.837 335.658 173.58ZM339.598 174.886V180H337.541V168.364H339.553V172.756H339.655C339.859 172.263 340.176 171.875 340.604 171.591C341.036 171.303 341.585 171.159 342.251 171.159C342.857 171.159 343.386 171.286 343.837 171.54C344.287 171.794 344.636 172.165 344.882 172.653C345.132 173.142 345.257 173.739 345.257 174.443V180H343.2V174.761C343.2 174.174 343.049 173.718 342.746 173.392C342.446 173.062 342.026 172.898 341.484 172.898C341.121 172.898 340.795 172.977 340.507 173.136C340.223 173.292 340 173.517 339.837 173.812C339.678 174.108 339.598 174.466 339.598 174.886ZM352.601 183.273C352.321 183.273 352.061 183.25 351.822 183.205C351.588 183.163 351.4 183.114 351.26 183.057L351.737 181.455C352.036 181.542 352.304 181.583 352.538 181.58C352.773 181.576 352.98 181.502 353.158 181.358C353.339 181.218 353.493 180.983 353.618 180.653L353.794 180.182L350.629 171.273H352.811L354.822 177.864H354.913L356.93 171.273H359.118L355.624 181.057C355.461 181.519 355.245 181.915 354.976 182.244C354.707 182.578 354.377 182.831 353.987 183.006C353.601 183.184 353.139 183.273 352.601 183.273ZM362.803 180.176C362.25 180.176 361.751 180.078 361.308 179.881C360.869 179.68 360.52 179.384 360.263 178.994C360.009 178.604 359.882 178.123 359.882 177.551C359.882 177.059 359.973 176.652 360.155 176.33C360.337 176.008 360.585 175.75 360.899 175.557C361.214 175.364 361.568 175.218 361.962 175.119C362.359 175.017 362.77 174.943 363.195 174.898C363.706 174.845 364.121 174.797 364.439 174.756C364.757 174.71 364.988 174.642 365.132 174.551C365.28 174.456 365.354 174.311 365.354 174.114V174.08C365.354 173.652 365.227 173.32 364.973 173.085C364.719 172.85 364.354 172.733 363.876 172.733C363.373 172.733 362.973 172.843 362.678 173.062C362.386 173.282 362.189 173.542 362.087 173.841L360.166 173.568C360.318 173.038 360.568 172.595 360.916 172.239C361.265 171.879 361.691 171.61 362.195 171.432C362.698 171.25 363.255 171.159 363.865 171.159C364.286 171.159 364.704 171.208 365.121 171.307C365.537 171.405 365.918 171.568 366.263 171.795C366.607 172.019 366.884 172.324 367.092 172.71C367.304 173.097 367.411 173.58 367.411 174.159V180H365.433V178.801H365.365C365.24 179.044 365.064 179.271 364.837 179.483C364.613 179.691 364.331 179.86 363.99 179.989C363.653 180.114 363.257 180.176 362.803 180.176ZM363.337 178.665C363.75 178.665 364.107 178.583 364.411 178.42C364.714 178.254 364.946 178.034 365.109 177.761C365.276 177.489 365.359 177.191 365.359 176.869V175.841C365.295 175.894 365.185 175.943 365.03 175.989C364.878 176.034 364.708 176.074 364.518 176.108C364.329 176.142 364.142 176.172 363.956 176.199C363.77 176.225 363.609 176.248 363.473 176.267C363.166 176.309 362.892 176.377 362.649 176.472C362.407 176.566 362.215 176.699 362.075 176.869C361.935 177.036 361.865 177.252 361.865 177.517C361.865 177.896 362.003 178.182 362.28 178.375C362.556 178.568 362.909 178.665 363.337 178.665ZM372.717 180.153C372.032 180.153 371.418 179.977 370.876 179.625C370.335 179.273 369.907 178.761 369.592 178.091C369.278 177.42 369.121 176.606 369.121 175.648C369.121 174.678 369.28 173.86 369.598 173.193C369.92 172.523 370.354 172.017 370.899 171.676C371.445 171.331 372.053 171.159 372.723 171.159C373.234 171.159 373.655 171.246 373.984 171.42C374.314 171.591 374.575 171.797 374.768 172.04C374.962 172.278 375.111 172.504 375.217 172.716H375.303V168.364H377.365V180H375.342V178.625H375.217C375.111 178.837 374.958 179.062 374.757 179.301C374.556 179.536 374.291 179.737 373.962 179.903C373.632 180.07 373.217 180.153 372.717 180.153ZM373.291 178.466C373.727 178.466 374.098 178.348 374.405 178.114C374.712 177.875 374.945 177.544 375.104 177.119C375.263 176.695 375.342 176.201 375.342 175.636C375.342 175.072 375.263 174.581 375.104 174.165C374.948 173.748 374.717 173.424 374.411 173.193C374.107 172.962 373.734 172.847 373.291 172.847C372.833 172.847 372.45 172.966 372.143 173.205C371.837 173.443 371.606 173.773 371.45 174.193C371.295 174.614 371.217 175.095 371.217 175.636C371.217 176.182 371.295 176.669 371.45 177.097C371.609 177.521 371.842 177.856 372.149 178.102C372.46 178.345 372.84 178.466 373.291 178.466ZM382.068 180.176C381.515 180.176 381.017 180.078 380.574 179.881C380.134 179.68 379.786 179.384 379.528 178.994C379.275 178.604 379.148 178.123 379.148 177.551C379.148 177.059 379.239 176.652 379.42 176.33C379.602 176.008 379.85 175.75 380.165 175.557C380.479 175.364 380.833 175.218 381.227 175.119C381.625 175.017 382.036 174.943 382.46 174.898C382.972 174.845 383.386 174.797 383.705 174.756C384.023 174.71 384.254 174.642 384.398 174.551C384.545 174.456 384.619 174.311 384.619 174.114V174.08C384.619 173.652 384.492 173.32 384.239 173.085C383.985 172.85 383.619 172.733 383.142 172.733C382.638 172.733 382.239 172.843 381.943 173.062C381.652 173.282 381.455 173.542 381.352 173.841L379.432 173.568C379.583 173.038 379.833 172.595 380.182 172.239C380.53 171.879 380.956 171.61 381.46 171.432C381.964 171.25 382.521 171.159 383.131 171.159C383.551 171.159 383.97 171.208 384.386 171.307C384.803 171.405 385.184 171.568 385.528 171.795C385.873 172.019 386.15 172.324 386.358 172.71C386.57 173.097 386.676 173.58 386.676 174.159V180H384.699V178.801H384.631C384.506 179.044 384.33 179.271 384.102 179.483C383.879 179.691 383.597 179.86 383.256 179.989C382.919 180.114 382.523 180.176 382.068 180.176ZM382.602 178.665C383.015 178.665 383.373 178.583 383.676 178.42C383.979 178.254 384.212 178.034 384.375 177.761C384.542 177.489 384.625 177.191 384.625 176.869V175.841C384.561 175.894 384.451 175.943 384.295 175.989C384.144 176.034 383.973 176.074 383.784 176.108C383.595 176.142 383.407 176.172 383.222 176.199C383.036 176.225 382.875 176.248 382.739 176.267C382.432 176.309 382.157 176.377 381.915 176.472C381.672 176.566 381.481 176.699 381.341 176.869C381.201 177.036 381.131 177.252 381.131 177.517C381.131 177.896 381.269 178.182 381.545 178.375C381.822 178.568 382.174 178.665 382.602 178.665ZM396.227 171.273L393.119 180H390.847L387.739 171.273H389.932L391.938 177.756H392.028L394.04 171.273H396.227Z" fill="#3F4346"/>
<line x1="405" y1="199" x2="405" y2="169" stroke="#D5D9DC"/>
<rect x="413.5" y="166" width="36" height="36" rx="18" fill="white"/>
<path d="M426.95 178.167C427 178.908 427.125 179.633 427.325 180.325L426.325 181.325C425.983 180.325 425.767 179.267 425.692 178.167H426.95ZM435.167 188.183C435.875 188.383 436.6 188.508 437.333 188.558V189.8C436.233 189.725 435.175 189.508 434.167 189.175L435.167 188.183ZM427.75 176.5H424.833C424.375 176.5 424 176.875 424 177.333C424 185.158 430.342 191.5 438.167 191.5C438.625 191.5 439 191.125 439 190.667V187.758C439 187.3 438.625 186.925 438.167 186.925C437.133 186.925 436.125 186.758 435.192 186.45C435.108 186.417 435.017 186.408 434.933 186.408C434.717 186.408 434.508 186.492 434.342 186.65L432.508 188.483C430.15 187.275 428.217 185.35 427.017 182.992L428.85 181.158C429.083 180.925 429.15 180.6 429.058 180.308C428.75 179.375 428.583 178.375 428.583 177.333C428.583 176.875 428.208 176.5 427.75 176.5Z" fill="#5D6164"/>
<rect x="453.5" y="166" width="36" height="36" rx="18" fill="white"/>
<path d="M475.667 182.75V179.833C475.667 179.375 475.292 179 474.833 179H464.833C464.375 179 464 179.375 464 179.833V188.167C464 188.625 464.375 189 464.833 189H474.833C475.292 189 475.667 188.625 475.667 188.167V185.25L479 188.583V179.417L475.667 182.75ZM474 187.333H465.667V180.667H474V187.333ZM469 186.5H470.667V184.833H472.333V183.167H470.667V181.5H469V183.167H467.333V184.833H469V186.5Z" fill="#5D6164"/>
<rect x="493.5" y="166" width="36" height="36" rx="18" fill="white"/>
<g clip-path="url(#clip0_1595_21905)">
<path d="M518.167 189C519.083 189 519.825 188.25 519.825 187.333L519.833 179C519.833 178.075 519.083 177.333 518.167 177.333H504.833C503.908 177.333 503.167 178.075 503.167 179V187.333C503.167 188.25 503.908 189 504.833 189H501.5V190.667H521.5V189H518.167ZM504.833 187.333V179H518.167V187.342L504.833 187.333ZM512.333 181.608C509.092 182.058 507.8 184.275 507.333 186.5C508.492 184.942 510.017 184.233 512.333 184.233V186.058L515.667 182.942L512.333 179.833V181.608Z" fill="#5D6164"/>
</g>
</g>
<g filter="url(#filter1_d_1595_21905)">
<rect x="408" y="78" width="127" height="38" rx="19" fill="white" shape-rendering="crispEdges"/>
<path d="M427.936 103L424.08 91.48H425.56L428.912 101.488L432.296 91.48H433.776L429.92 103H427.936ZM434.827 92.832V91.36H436.251V92.832H434.827ZM434.827 103V94.36H436.251V103H434.827ZM442.043 103.24C441.238 103.24 440.547 103.04 439.971 102.64C439.395 102.235 438.95 101.688 438.635 101C438.326 100.312 438.171 99.536 438.171 98.672C438.171 97.808 438.326 97.032 438.635 96.344C438.95 95.656 439.395 95.1147 439.971 94.72C440.547 94.32 441.235 94.12 442.035 94.12C442.851 94.12 443.537 94.3173 444.091 94.712C444.646 95.1067 445.065 95.648 445.347 96.336C445.635 97.024 445.779 97.8027 445.779 98.672C445.779 99.5307 445.635 100.307 445.347 101C445.065 101.688 444.646 102.235 444.091 102.64C443.537 103.04 442.854 103.24 442.043 103.24ZM442.219 101.936C442.801 101.936 443.278 101.797 443.651 101.52C444.025 101.237 444.299 100.851 444.475 100.36C444.657 99.864 444.747 99.3013 444.747 98.672C444.747 98.032 444.657 97.4693 444.475 96.984C444.299 96.4933 444.027 96.112 443.659 95.84C443.291 95.5627 442.825 95.424 442.259 95.424C441.673 95.424 441.187 95.568 440.803 95.856C440.425 96.144 440.142 96.5333 439.955 97.024C439.774 97.5147 439.683 98.064 439.683 98.672C439.683 99.2853 439.777 99.84 439.963 100.336C440.15 100.827 440.43 101.216 440.803 101.504C441.182 101.792 441.654 101.936 442.219 101.936ZM444.747 103V96.64H444.587V91.48H446.019V103H444.747ZM452.005 103.24C451.157 103.24 450.415 103.053 449.781 102.68C449.151 102.301 448.661 101.776 448.309 101.104C447.957 100.427 447.781 99.6373 447.781 98.736C447.781 97.792 447.954 96.976 448.301 96.288C448.647 95.5947 449.13 95.0613 449.749 94.688C450.373 94.3093 451.103 94.12 451.941 94.12C452.81 94.12 453.549 94.32 454.157 94.72C454.77 95.12 455.229 95.6907 455.533 96.432C455.842 97.1733 455.975 98.056 455.933 99.08H454.493V98.568C454.477 97.5067 454.261 96.7147 453.845 96.192C453.429 95.664 452.81 95.4 451.989 95.4C451.109 95.4 450.439 95.6827 449.981 96.248C449.522 96.8133 449.293 97.624 449.293 98.68C449.293 99.6987 449.522 100.488 449.981 101.048C450.439 101.608 451.093 101.888 451.941 101.888C452.511 101.888 453.007 101.757 453.429 101.496C453.85 101.235 454.181 100.859 454.421 100.368L455.789 100.84C455.453 101.603 454.946 102.195 454.269 102.616C453.597 103.032 452.842 103.24 452.005 103.24ZM448.813 99.08V97.936H455.197V99.08H448.813ZM461.394 103.24C460.535 103.24 459.794 103.045 459.17 102.656C458.551 102.267 458.074 101.728 457.738 101.04C457.402 100.352 457.234 99.5627 457.234 98.672C457.234 97.7653 457.404 96.9707 457.746 96.288C458.087 95.6053 458.57 95.0747 459.194 94.696C459.818 94.312 460.551 94.12 461.394 94.12C462.258 94.12 463.002 94.3147 463.626 94.704C464.25 95.088 464.727 95.624 465.058 96.312C465.394 96.9947 465.562 97.7813 465.562 98.672C465.562 99.5733 465.394 100.368 465.058 101.056C464.722 101.739 464.242 102.275 463.618 102.664C462.994 103.048 462.252 103.24 461.394 103.24ZM461.394 101.888C462.29 101.888 462.956 101.589 463.394 100.992C463.831 100.395 464.05 99.6213 464.05 98.672C464.05 97.696 463.828 96.92 463.386 96.344C462.943 95.7627 462.279 95.472 461.394 95.472C460.791 95.472 460.295 95.608 459.906 95.88C459.516 96.152 459.226 96.528 459.034 97.008C458.842 97.488 458.746 98.0427 458.746 98.672C458.746 99.6427 458.97 100.421 459.418 101.008C459.866 101.595 460.524 101.888 461.394 101.888ZM474.166 103.24C473.292 103.24 472.548 103.045 471.934 102.656C471.326 102.261 470.862 101.72 470.542 101.032C470.222 100.344 470.057 99.56 470.046 98.68C470.057 97.7787 470.225 96.9867 470.55 96.304C470.881 95.616 471.353 95.08 471.966 94.696C472.58 94.312 473.318 94.12 474.182 94.12C475.094 94.12 475.878 94.344 476.534 94.792C477.196 95.24 477.638 95.8533 477.862 96.632L476.454 97.056C476.273 96.5547 475.977 96.1653 475.566 95.888C475.161 95.6107 474.694 95.472 474.166 95.472C473.574 95.472 473.086 95.6107 472.702 95.888C472.318 96.16 472.033 96.5387 471.846 97.024C471.66 97.504 471.564 98.056 471.558 98.68C471.569 99.64 471.79 100.416 472.222 101.008C472.66 101.595 473.308 101.888 474.166 101.888C474.732 101.888 475.201 101.76 475.574 101.504C475.948 101.243 476.23 100.867 476.422 100.376L477.862 100.752C477.564 101.557 477.097 102.173 476.462 102.6C475.828 103.027 475.062 103.24 474.166 103.24ZM481.873 103.24C481.228 103.24 480.686 103.123 480.249 102.888C479.817 102.648 479.489 102.333 479.265 101.944C479.046 101.555 478.937 101.128 478.937 100.664C478.937 100.211 479.022 99.8187 479.193 99.488C479.369 99.152 479.614 98.8747 479.929 98.656C480.244 98.432 480.62 98.256 481.057 98.128C481.468 98.016 481.926 97.92 482.433 97.84C482.945 97.7547 483.462 97.6773 483.985 97.608C484.508 97.5387 484.996 97.472 485.449 97.408L484.937 97.704C484.953 96.936 484.798 96.368 484.473 96C484.153 95.632 483.598 95.448 482.809 95.448C482.286 95.448 481.828 95.568 481.433 95.808C481.044 96.0427 480.769 96.4267 480.609 96.96L479.257 96.552C479.465 95.7947 479.868 95.2 480.465 94.768C481.062 94.336 481.849 94.12 482.825 94.12C483.609 94.12 484.281 94.2613 484.841 94.544C485.406 94.8213 485.812 95.2427 486.057 95.808C486.18 96.0747 486.257 96.3653 486.289 96.68C486.321 96.9893 486.337 97.3147 486.337 97.656V103H485.073V100.928L485.369 101.12C485.044 101.819 484.588 102.347 484.001 102.704C483.42 103.061 482.71 103.24 481.873 103.24ZM482.089 102.048C482.601 102.048 483.044 101.957 483.417 101.776C483.796 101.589 484.1 101.347 484.329 101.048C484.558 100.744 484.708 100.413 484.777 100.056C484.857 99.7893 484.9 99.4933 484.905 99.168C484.916 98.8373 484.921 98.584 484.921 98.408L485.417 98.624C484.953 98.688 484.497 98.7493 484.049 98.808C483.601 98.8667 483.177 98.9307 482.777 99C482.377 99.064 482.017 99.1413 481.697 99.232C481.462 99.3067 481.241 99.4027 481.033 99.52C480.83 99.6373 480.665 99.7893 480.537 99.976C480.414 100.157 480.353 100.384 480.353 100.656C480.353 100.891 480.412 101.115 480.529 101.328C480.652 101.541 480.838 101.715 481.089 101.848C481.345 101.981 481.678 102.048 482.089 102.048ZM488.577 103V91.24H490.001V103H488.577ZM492.561 103V91.24H493.985V103H492.561ZM496.546 92.832V91.36H497.97V92.832H496.546ZM496.546 103V94.36H497.97V103H496.546ZM506.522 103V98.672C506.522 98.2613 506.485 97.8667 506.41 97.488C506.341 97.1093 506.215 96.7707 506.034 96.472C505.858 96.168 505.618 95.928 505.314 95.752C505.015 95.576 504.637 95.488 504.178 95.488C503.821 95.488 503.495 95.5493 503.202 95.672C502.914 95.7893 502.666 95.9707 502.458 96.216C502.25 96.4613 502.087 96.7707 501.97 97.144C501.858 97.512 501.802 97.9467 501.802 98.448L500.866 98.16C500.866 97.3227 501.015 96.6053 501.314 96.008C501.618 95.4053 502.042 94.944 502.586 94.624C503.135 94.2987 503.781 94.136 504.522 94.136C505.082 94.136 505.559 94.224 505.954 94.4C506.349 94.576 506.677 94.8107 506.938 95.104C507.199 95.392 507.405 95.7173 507.554 96.08C507.703 96.4373 507.807 96.8027 507.866 97.176C507.93 97.544 507.962 97.8933 507.962 98.224V103H506.522ZM500.362 103V94.36H501.642V96.672H501.802V103H500.362ZM513.538 107.08C513.085 107.08 512.642 107.011 512.21 106.872C511.778 106.733 511.381 106.523 511.018 106.24C510.661 105.963 510.362 105.611 510.122 105.184L511.426 104.496C511.639 104.917 511.941 105.224 512.33 105.416C512.725 105.608 513.13 105.704 513.546 105.704C514.095 105.704 514.551 105.603 514.914 105.4C515.277 105.203 515.543 104.907 515.714 104.512C515.89 104.117 515.975 103.627 515.97 103.04V100.68H516.138V94.36H517.402V103.056C517.402 103.291 517.394 103.517 517.378 103.736C517.367 103.955 517.341 104.171 517.298 104.384C517.186 104.997 516.965 105.501 516.634 105.896C516.303 106.296 515.877 106.592 515.354 106.784C514.831 106.981 514.226 107.08 513.538 107.08ZM513.434 103.24C512.629 103.24 511.938 103.04 511.362 102.64C510.786 102.235 510.341 101.688 510.026 101C509.717 100.312 509.562 99.536 509.562 98.672C509.562 97.808 509.717 97.032 510.026 96.344C510.341 95.656 510.786 95.1147 511.362 94.72C511.938 94.32 512.626 94.12 513.426 94.12C514.242 94.12 514.927 94.3173 515.482 94.712C516.037 95.1067 516.455 95.648 516.738 96.336C517.026 97.024 517.17 97.8027 517.17 98.672C517.17 99.5307 517.026 100.307 516.738 101C516.455 101.688 516.037 102.235 515.482 102.64C514.927 103.04 514.245 103.24 513.434 103.24ZM513.61 101.936C514.191 101.936 514.669 101.797 515.042 101.52C515.415 101.237 515.69 100.851 515.866 100.36C516.047 99.864 516.138 99.3013 516.138 98.672C516.138 98.032 516.047 97.4693 515.866 96.984C515.69 96.4933 515.418 96.112 515.05 95.84C514.682 95.5627 514.215 95.424 513.65 95.424C513.063 95.424 512.578 95.568 512.194 95.856C511.815 96.144 511.533 96.5333 511.346 97.024C511.165 97.5147 511.074 98.064 511.074 98.672C511.074 99.2853 511.167 99.84 511.354 100.336C511.541 100.827 511.821 101.216 512.194 101.504C512.573 101.792 513.045 101.936 513.61 101.936Z" fill="#212528"/>
</g>
<g filter="url(#filter2_d_1595_21905)">
<rect x="369" y="252" width="125" height="38" rx="19" fill="white" shape-rendering="crispEdges"/>
<path d="M388.936 277L385.08 265.48H386.56L389.912 275.488L393.296 265.48H394.776L390.92 277H388.936ZM398.706 277.24C397.848 277.24 397.106 277.045 396.482 276.656C395.864 276.267 395.386 275.728 395.05 275.04C394.714 274.352 394.546 273.563 394.546 272.672C394.546 271.765 394.717 270.971 395.058 270.288C395.4 269.605 395.882 269.075 396.506 268.696C397.13 268.312 397.864 268.12 398.706 268.12C399.57 268.12 400.314 268.315 400.938 268.704C401.562 269.088 402.04 269.624 402.37 270.312C402.706 270.995 402.874 271.781 402.874 272.672C402.874 273.573 402.706 274.368 402.37 275.056C402.034 275.739 401.554 276.275 400.93 276.664C400.306 277.048 399.565 277.24 398.706 277.24ZM398.706 275.888C399.602 275.888 400.269 275.589 400.706 274.992C401.144 274.395 401.362 273.621 401.362 272.672C401.362 271.696 401.141 270.92 400.698 270.344C400.256 269.763 399.592 269.472 398.706 269.472C398.104 269.472 397.608 269.608 397.218 269.88C396.829 270.152 396.538 270.528 396.346 271.008C396.154 271.488 396.058 272.043 396.058 272.672C396.058 273.643 396.282 274.421 396.73 275.008C397.178 275.595 397.837 275.888 398.706 275.888ZM404.796 266.832V265.36H406.22V266.832H404.796ZM404.796 277V268.36H406.22V277H404.796ZM412.26 277.24C411.385 277.24 410.641 277.045 410.028 276.656C409.42 276.261 408.956 275.72 408.636 275.032C408.316 274.344 408.151 273.56 408.14 272.68C408.151 271.779 408.319 270.987 408.644 270.304C408.975 269.616 409.447 269.08 410.06 268.696C410.673 268.312 411.412 268.12 412.276 268.12C413.188 268.12 413.972 268.344 414.628 268.792C415.289 269.24 415.732 269.853 415.956 270.632L414.548 271.056C414.367 270.555 414.071 270.165 413.66 269.888C413.255 269.611 412.788 269.472 412.26 269.472C411.668 269.472 411.18 269.611 410.796 269.888C410.412 270.16 410.127 270.539 409.94 271.024C409.753 271.504 409.657 272.056 409.652 272.68C409.663 273.64 409.884 274.416 410.316 275.008C410.753 275.595 411.401 275.888 412.26 275.888C412.825 275.888 413.295 275.76 413.668 275.504C414.041 275.243 414.324 274.867 414.516 274.376L415.956 274.752C415.657 275.557 415.191 276.173 414.556 276.6C413.921 277.027 413.156 277.24 412.26 277.24ZM421.098 277.24C420.25 277.24 419.509 277.053 418.874 276.68C418.245 276.301 417.754 275.776 417.402 275.104C417.05 274.427 416.874 273.637 416.874 272.736C416.874 271.792 417.048 270.976 417.394 270.288C417.741 269.595 418.224 269.061 418.842 268.688C419.466 268.309 420.197 268.12 421.034 268.12C421.904 268.12 422.642 268.32 423.25 268.72C423.864 269.12 424.322 269.691 424.626 270.432C424.936 271.173 425.069 272.056 425.026 273.08H423.586V272.568C423.57 271.507 423.354 270.715 422.938 270.192C422.522 269.664 421.904 269.4 421.082 269.4C420.202 269.4 419.533 269.683 419.074 270.248C418.616 270.813 418.386 271.624 418.386 272.68C418.386 273.699 418.616 274.488 419.074 275.048C419.533 275.608 420.186 275.888 421.034 275.888C421.605 275.888 422.101 275.757 422.522 275.496C422.944 275.235 423.274 274.859 423.514 274.368L424.882 274.84C424.546 275.603 424.04 276.195 423.362 276.616C422.69 277.032 421.936 277.24 421.098 277.24ZM417.906 273.08V271.936H424.29V273.08H417.906ZM433.651 277.24C432.776 277.24 432.032 277.045 431.419 276.656C430.811 276.261 430.347 275.72 430.027 275.032C429.707 274.344 429.541 273.56 429.531 272.68C429.541 271.779 429.709 270.987 430.035 270.304C430.365 269.616 430.837 269.08 431.451 268.696C432.064 268.312 432.803 268.12 433.667 268.12C434.579 268.12 435.363 268.344 436.019 268.792C436.68 269.24 437.123 269.853 437.347 270.632L435.939 271.056C435.757 270.555 435.461 270.165 435.051 269.888C434.645 269.611 434.179 269.472 433.651 269.472C433.059 269.472 432.571 269.611 432.187 269.888C431.803 270.16 431.517 270.539 431.331 271.024C431.144 271.504 431.048 272.056 431.043 272.68C431.053 273.64 431.275 274.416 431.707 275.008C432.144 275.595 432.792 275.888 433.651 275.888C434.216 275.888 434.685 275.76 435.059 275.504C435.432 275.243 435.715 274.867 435.907 274.376L437.347 274.752C437.048 275.557 436.581 276.173 435.947 276.6C435.312 277.027 434.547 277.24 433.651 277.24ZM441.357 277.24C440.712 277.24 440.171 277.123 439.733 276.888C439.301 276.648 438.973 276.333 438.749 275.944C438.531 275.555 438.421 275.128 438.421 274.664C438.421 274.211 438.507 273.819 438.677 273.488C438.853 273.152 439.099 272.875 439.413 272.656C439.728 272.432 440.104 272.256 440.541 272.128C440.952 272.016 441.411 271.92 441.917 271.84C442.429 271.755 442.947 271.677 443.469 271.608C443.992 271.539 444.48 271.472 444.933 271.408L444.421 271.704C444.437 270.936 444.283 270.368 443.957 270C443.637 269.632 443.083 269.448 442.293 269.448C441.771 269.448 441.312 269.568 440.917 269.808C440.528 270.043 440.253 270.427 440.093 270.96L438.741 270.552C438.949 269.795 439.352 269.2 439.949 268.768C440.547 268.336 441.333 268.12 442.309 268.12C443.093 268.12 443.765 268.261 444.325 268.544C444.891 268.821 445.296 269.243 445.541 269.808C445.664 270.075 445.741 270.365 445.773 270.68C445.805 270.989 445.821 271.315 445.821 271.656V277H444.557V274.928L444.853 275.12C444.528 275.819 444.072 276.347 443.485 276.704C442.904 277.061 442.195 277.24 441.357 277.24ZM441.573 276.048C442.085 276.048 442.528 275.957 442.901 275.776C443.28 275.589 443.584 275.347 443.813 275.048C444.043 274.744 444.192 274.413 444.261 274.056C444.341 273.789 444.384 273.493 444.389 273.168C444.4 272.837 444.405 272.584 444.405 272.408L444.901 272.624C444.437 272.688 443.981 272.749 443.533 272.808C443.085 272.867 442.661 272.931 442.261 273C441.861 273.064 441.501 273.141 441.181 273.232C440.947 273.307 440.725 273.403 440.517 273.52C440.315 273.637 440.149 273.789 440.021 273.976C439.899 274.157 439.837 274.384 439.837 274.656C439.837 274.891 439.896 275.115 440.013 275.328C440.136 275.541 440.323 275.715 440.573 275.848C440.829 275.981 441.163 276.048 441.573 276.048ZM448.061 277V265.24H449.485V277H448.061ZM452.046 277V265.24H453.47V277H452.046ZM456.03 266.832V265.36H457.454V266.832H456.03ZM456.03 277V268.36H457.454V277H456.03ZM466.006 277V272.672C466.006 272.261 465.969 271.867 465.894 271.488C465.825 271.109 465.7 270.771 465.518 270.472C465.342 270.168 465.102 269.928 464.798 269.752C464.5 269.576 464.121 269.488 463.662 269.488C463.305 269.488 462.98 269.549 462.686 269.672C462.398 269.789 462.15 269.971 461.942 270.216C461.734 270.461 461.572 270.771 461.454 271.144C461.342 271.512 461.286 271.947 461.286 272.448L460.35 272.16C460.35 271.323 460.5 270.605 460.798 270.008C461.102 269.405 461.526 268.944 462.07 268.624C462.62 268.299 463.265 268.136 464.006 268.136C464.566 268.136 465.044 268.224 465.438 268.4C465.833 268.576 466.161 268.811 466.422 269.104C466.684 269.392 466.889 269.717 467.038 270.08C467.188 270.437 467.292 270.803 467.35 271.176C467.414 271.544 467.446 271.893 467.446 272.224V277H466.006ZM459.846 277V268.36H461.126V270.672H461.286V277H459.846ZM473.022 281.08C472.569 281.08 472.126 281.011 471.694 280.872C471.262 280.733 470.865 280.523 470.502 280.24C470.145 279.963 469.846 279.611 469.606 279.184L470.91 278.496C471.124 278.917 471.425 279.224 471.814 279.416C472.209 279.608 472.614 279.704 473.03 279.704C473.58 279.704 474.036 279.603 474.398 279.4C474.761 279.203 475.028 278.907 475.198 278.512C475.374 278.117 475.46 277.627 475.454 277.04V274.68H475.622V268.36H476.886V277.056C476.886 277.291 476.878 277.517 476.862 277.736C476.852 277.955 476.825 278.171 476.782 278.384C476.67 278.997 476.449 279.501 476.118 279.896C475.788 280.296 475.361 280.592 474.838 280.784C474.316 280.981 473.71 281.08 473.022 281.08ZM472.918 277.24C472.113 277.24 471.422 277.04 470.846 276.64C470.27 276.235 469.825 275.688 469.51 275C469.201 274.312 469.046 273.536 469.046 272.672C469.046 271.808 469.201 271.032 469.51 270.344C469.825 269.656 470.27 269.115 470.846 268.72C471.422 268.32 472.11 268.12 472.91 268.12C473.726 268.12 474.412 268.317 474.966 268.712C475.521 269.107 475.94 269.648 476.222 270.336C476.51 271.024 476.654 271.803 476.654 272.672C476.654 273.531 476.51 274.307 476.222 275C475.94 275.688 475.521 276.235 474.966 276.64C474.412 277.04 473.729 277.24 472.918 277.24ZM473.094 275.936C473.676 275.936 474.153 275.797 474.526 275.52C474.9 275.237 475.174 274.851 475.35 274.36C475.532 273.864 475.622 273.301 475.622 272.672C475.622 272.032 475.532 271.469 475.35 270.984C475.174 270.493 474.902 270.112 474.534 269.84C474.166 269.563 473.7 269.424 473.134 269.424C472.548 269.424 472.062 269.568 471.678 269.856C471.3 270.144 471.017 270.533 470.83 271.024C470.649 271.515 470.558 272.064 470.558 272.672C470.558 273.285 470.652 273.84 470.838 274.336C471.025 274.827 471.305 275.216 471.678 275.504C472.057 275.792 472.529 275.936 473.094 275.936Z" fill="#212528"/>
</g>
<path d="M432.5 206C432.5 205.448 432.052 205 431.5 205C430.948 205 430.5 205.448 430.5 206H432.5ZM430.793 248.707C431.183 249.098 431.817 249.098 432.207 248.707L438.571 242.343C438.962 241.953 438.962 241.319 438.571 240.929C438.181 240.538 437.547 240.538 437.157 240.929L431.5 246.586L425.843 240.929C425.453 240.538 424.819 240.538 424.429 240.929C424.038 241.319 424.038 241.953 424.429 242.343L430.793 248.707ZM430.5 206V248H432.5V206H430.5Z" fill="#B3B3B3"/>
<g filter="url(#filter3_d_1595_21905)">
<rect x="578" y="165" width="145" height="38" rx="19" fill="white" shape-rendering="crispEdges"/>
<path d="M599.208 190.24C598.392 190.24 597.656 190.101 597 189.824C596.349 189.547 595.811 189.152 595.384 188.64C594.963 188.123 594.688 187.512 594.56 186.808L596.032 186.576C596.219 187.301 596.605 187.869 597.192 188.28C597.784 188.685 598.48 188.888 599.28 188.888C599.797 188.888 600.264 188.808 600.68 188.648C601.101 188.483 601.435 188.248 601.68 187.944C601.925 187.64 602.048 187.28 602.048 186.864C602.048 186.608 602.003 186.389 601.912 186.208C601.827 186.021 601.707 185.864 601.552 185.736C601.403 185.603 601.232 185.491 601.04 185.4C600.848 185.309 600.648 185.235 600.44 185.176L597.504 184.304C597.184 184.208 596.875 184.088 596.576 183.944C596.277 183.795 596.011 183.611 595.776 183.392C595.541 183.168 595.355 182.901 595.216 182.592C595.077 182.277 595.008 181.907 595.008 181.48C595.008 180.797 595.184 180.216 595.536 179.736C595.893 179.251 596.376 178.88 596.984 178.624C597.592 178.368 598.277 178.243 599.04 178.248C599.813 178.253 600.504 178.392 601.112 178.664C601.725 178.931 602.232 179.315 602.632 179.816C603.037 180.317 603.309 180.917 603.448 181.616L601.936 181.88C601.856 181.411 601.677 181.008 601.4 180.672C601.128 180.331 600.787 180.069 600.376 179.888C599.965 179.701 599.515 179.605 599.024 179.6C598.555 179.595 598.131 179.669 597.752 179.824C597.373 179.979 597.072 180.195 596.848 180.472C596.624 180.744 596.512 181.059 596.512 181.416C596.512 181.768 596.613 182.053 596.816 182.272C597.019 182.485 597.267 182.656 597.56 182.784C597.859 182.907 598.149 183.008 598.432 183.088L600.624 183.72C600.875 183.789 601.163 183.885 601.488 184.008C601.819 184.131 602.139 184.304 602.448 184.528C602.757 184.747 603.013 185.04 603.216 185.408C603.419 185.771 603.52 186.229 603.52 186.784C603.52 187.339 603.408 187.832 603.184 188.264C602.965 188.696 602.659 189.059 602.264 189.352C601.869 189.64 601.411 189.859 600.888 190.008C600.365 190.163 599.805 190.24 599.208 190.24ZM608.838 190.24C607.963 190.24 607.219 190.045 606.606 189.656C605.998 189.261 605.534 188.72 605.214 188.032C604.894 187.344 604.729 186.56 604.718 185.68C604.729 184.779 604.897 183.987 605.222 183.304C605.553 182.616 606.025 182.08 606.638 181.696C607.251 181.312 607.99 181.12 608.854 181.12C609.766 181.12 610.55 181.344 611.206 181.792C611.867 182.24 612.31 182.853 612.534 183.632L611.126 184.056C610.945 183.555 610.649 183.165 610.238 182.888C609.833 182.611 609.366 182.472 608.838 182.472C608.246 182.472 607.758 182.611 607.374 182.888C606.99 183.16 606.705 183.539 606.518 184.024C606.331 184.504 606.235 185.056 606.23 185.68C606.241 186.64 606.462 187.416 606.894 188.008C607.331 188.595 607.979 188.888 608.838 188.888C609.403 188.888 609.873 188.76 610.246 188.504C610.619 188.243 610.902 187.867 611.094 187.376L612.534 187.752C612.235 188.557 611.769 189.173 611.134 189.6C610.499 190.027 609.734 190.24 608.838 190.24ZM614.167 190V181.36H615.439V183.448L615.231 183.176C615.332 182.909 615.463 182.664 615.623 182.44C615.788 182.216 615.972 182.032 616.175 181.888C616.399 181.707 616.652 181.568 616.935 181.472C617.218 181.376 617.506 181.32 617.799 181.304C618.092 181.283 618.367 181.301 618.623 181.36V182.696C618.324 182.616 617.996 182.595 617.639 182.632C617.282 182.669 616.951 182.8 616.647 183.024C616.37 183.221 616.154 183.461 615.999 183.744C615.85 184.027 615.746 184.333 615.687 184.664C615.628 184.989 615.599 185.323 615.599 185.664V190H614.167ZM623.723 190.24C622.875 190.24 622.134 190.053 621.499 189.68C620.87 189.301 620.379 188.776 620.027 188.104C619.675 187.427 619.499 186.637 619.499 185.736C619.499 184.792 619.673 183.976 620.019 183.288C620.366 182.595 620.849 182.061 621.467 181.688C622.091 181.309 622.822 181.12 623.659 181.12C624.529 181.12 625.267 181.32 625.875 181.72C626.489 182.12 626.947 182.691 627.251 183.432C627.561 184.173 627.694 185.056 627.651 186.08H626.211V185.568C626.195 184.507 625.979 183.715 625.563 183.192C625.147 182.664 624.529 182.4 623.707 182.4C622.827 182.4 622.158 182.683 621.699 183.248C621.241 183.813 621.011 184.624 621.011 185.68C621.011 186.699 621.241 187.488 621.699 188.048C622.158 188.608 622.811 188.888 623.659 188.888C624.23 188.888 624.726 188.757 625.147 188.496C625.569 188.235 625.899 187.859 626.139 187.368L627.507 187.84C627.171 188.603 626.665 189.195 625.987 189.616C625.315 190.032 624.561 190.24 623.723 190.24ZM620.531 186.08V184.936H626.915V186.08H620.531ZM633.177 190.24C632.329 190.24 631.587 190.053 630.953 189.68C630.323 189.301 629.833 188.776 629.481 188.104C629.129 187.427 628.953 186.637 628.953 185.736C628.953 184.792 629.126 183.976 629.473 183.288C629.819 182.595 630.302 182.061 630.921 181.688C631.545 181.309 632.275 181.12 633.113 181.12C633.982 181.12 634.721 181.32 635.329 181.72C635.942 182.12 636.401 182.691 636.705 183.432C637.014 184.173 637.147 185.056 637.105 186.08H635.665V185.568C635.649 184.507 635.433 183.715 635.017 183.192C634.601 182.664 633.982 182.4 633.161 182.4C632.281 182.4 631.611 182.683 631.153 183.248C630.694 183.813 630.465 184.624 630.465 185.68C630.465 186.699 630.694 187.488 631.153 188.048C631.611 188.608 632.265 188.888 633.113 188.888C633.683 188.888 634.179 188.757 634.601 188.496C635.022 188.235 635.353 187.859 635.593 187.368L636.961 187.84C636.625 188.603 636.118 189.195 635.441 189.616C634.769 190.032 634.014 190.24 633.177 190.24ZM629.985 186.08V184.936H636.369V186.08H629.985ZM644.803 190V185.672C644.803 185.261 644.766 184.867 644.691 184.488C644.622 184.109 644.497 183.771 644.315 183.472C644.139 183.168 643.899 182.928 643.595 182.752C643.297 182.576 642.918 182.488 642.459 182.488C642.102 182.488 641.777 182.549 641.483 182.672C641.195 182.789 640.947 182.971 640.739 183.216C640.531 183.461 640.369 183.771 640.251 184.144C640.139 184.512 640.083 184.947 640.083 185.448L639.147 185.16C639.147 184.323 639.297 183.605 639.595 183.008C639.899 182.405 640.323 181.944 640.867 181.624C641.417 181.299 642.062 181.136 642.803 181.136C643.363 181.136 643.841 181.224 644.235 181.4C644.63 181.576 644.958 181.811 645.219 182.104C645.481 182.392 645.686 182.717 645.835 183.08C645.985 183.437 646.089 183.803 646.147 184.176C646.211 184.544 646.243 184.893 646.243 185.224V190H644.803ZM638.643 190V181.36H639.923V183.672H640.083V190H638.643ZM654.79 190.232C653.761 190.232 652.916 190.008 652.254 189.56C651.598 189.107 651.196 188.475 651.046 187.664L652.502 187.432C652.62 187.901 652.889 188.275 653.31 188.552C653.732 188.824 654.254 188.96 654.878 188.96C655.47 188.96 655.934 188.837 656.27 188.592C656.606 188.347 656.774 188.013 656.774 187.592C656.774 187.347 656.718 187.149 656.606 187C656.494 186.845 656.262 186.701 655.91 186.568C655.564 186.435 655.038 186.275 654.334 186.088C653.572 185.885 652.972 185.675 652.534 185.456C652.097 185.237 651.785 184.984 651.598 184.696C651.412 184.408 651.318 184.059 651.318 183.648C651.318 183.141 651.457 182.699 651.734 182.32C652.012 181.936 652.398 181.64 652.894 181.432C653.396 181.224 653.977 181.12 654.638 181.12C655.294 181.12 655.881 181.224 656.398 181.432C656.916 181.64 657.332 181.936 657.646 182.32C657.966 182.699 658.156 183.141 658.214 183.648L656.758 183.912C656.689 183.448 656.465 183.083 656.086 182.816C655.713 182.549 655.23 182.408 654.638 182.392C654.078 182.371 653.622 182.469 653.27 182.688C652.924 182.907 652.75 183.203 652.75 183.576C652.75 183.784 652.814 183.963 652.942 184.112C653.076 184.261 653.318 184.403 653.67 184.536C654.028 184.669 654.545 184.821 655.222 184.992C655.985 185.184 656.585 185.395 657.022 185.624C657.465 185.848 657.78 186.115 657.966 186.424C658.153 186.728 658.246 187.104 658.246 187.552C658.246 188.384 657.94 189.04 657.326 189.52C656.713 189.995 655.868 190.232 654.79 190.232ZM666.163 190V185.672C666.163 185.261 666.125 184.867 666.051 184.488C665.981 184.109 665.856 183.771 665.675 183.472C665.499 183.168 665.259 182.928 664.955 182.752C664.656 182.576 664.277 182.488 663.819 182.488C663.461 182.488 663.136 182.549 662.843 182.672C662.555 182.789 662.307 182.971 662.099 183.216C661.891 183.461 661.728 183.771 661.611 184.144C661.499 184.512 661.443 184.947 661.443 185.448L660.507 185.16C660.507 184.323 660.656 183.605 660.955 183.008C661.259 182.405 661.683 181.944 662.227 181.624C662.776 181.299 663.421 181.136 664.163 181.136C664.723 181.136 665.2 181.224 665.595 181.4C665.989 181.576 666.317 181.811 666.579 182.104C666.84 182.392 667.045 182.717 667.195 183.08C667.344 183.437 667.448 183.803 667.507 184.176C667.571 184.544 667.603 184.893 667.603 185.224V190H666.163ZM660.003 190V178.48H661.283V184.84H661.443V190H660.003ZM672.139 190.24C671.493 190.24 670.952 190.123 670.515 189.888C670.083 189.648 669.755 189.333 669.531 188.944C669.312 188.555 669.203 188.128 669.203 187.664C669.203 187.211 669.288 186.819 669.459 186.488C669.635 186.152 669.88 185.875 670.195 185.656C670.509 185.432 670.885 185.256 671.323 185.128C671.733 185.016 672.192 184.92 672.699 184.84C673.211 184.755 673.728 184.677 674.251 184.608C674.773 184.539 675.261 184.472 675.715 184.408L675.203 184.704C675.219 183.936 675.064 183.368 674.739 183C674.419 182.632 673.864 182.448 673.075 182.448C672.552 182.448 672.093 182.568 671.699 182.808C671.309 183.043 671.035 183.427 670.875 183.96L669.523 183.552C669.731 182.795 670.133 182.2 670.731 181.768C671.328 181.336 672.115 181.12 673.091 181.12C673.875 181.12 674.547 181.261 675.107 181.544C675.672 181.821 676.077 182.243 676.323 182.808C676.445 183.075 676.523 183.365 676.555 183.68C676.587 183.989 676.602 184.315 676.602 184.656V190H675.339V187.928L675.635 188.12C675.309 188.819 674.853 189.347 674.267 189.704C673.685 190.061 672.976 190.24 672.139 190.24ZM672.355 189.048C672.867 189.048 673.309 188.957 673.683 188.776C674.061 188.589 674.365 188.347 674.595 188.048C674.824 187.744 674.973 187.413 675.043 187.056C675.123 186.789 675.165 186.493 675.171 186.168C675.181 185.837 675.187 185.584 675.187 185.408L675.683 185.624C675.219 185.688 674.763 185.749 674.315 185.808C673.867 185.867 673.443 185.931 673.043 186C672.643 186.064 672.283 186.141 671.963 186.232C671.728 186.307 671.507 186.403 671.299 186.52C671.096 186.637 670.931 186.789 670.803 186.976C670.68 187.157 670.618 187.384 670.618 187.656C670.618 187.891 670.677 188.115 670.795 188.328C670.917 188.541 671.104 188.715 671.355 188.848C671.611 188.981 671.944 189.048 672.355 189.048ZM678.683 190V181.36H679.955V183.448L679.747 183.176C679.848 182.909 679.979 182.664 680.139 182.44C680.304 182.216 680.488 182.032 680.691 181.888C680.915 181.707 681.168 181.568 681.451 181.472C681.733 181.376 682.021 181.32 682.315 181.304C682.608 181.283 682.883 181.301 683.139 181.36V182.696C682.84 182.616 682.512 182.595 682.155 182.632C681.797 182.669 681.467 182.8 681.163 183.024C680.885 183.221 680.669 183.461 680.515 183.744C680.365 184.027 680.261 184.333 680.203 184.664C680.144 184.989 680.115 185.323 680.115 185.664V190H678.683ZM684.811 179.832V178.36H686.235V179.832H684.811ZM684.811 190V181.36H686.235V190H684.811ZM694.788 190V185.672C694.788 185.261 694.75 184.867 694.676 184.488C694.606 184.109 694.481 183.771 694.3 183.472C694.124 183.168 693.884 182.928 693.58 182.752C693.281 182.576 692.902 182.488 692.444 182.488C692.086 182.488 691.761 182.549 691.468 182.672C691.18 182.789 690.932 182.971 690.724 183.216C690.516 183.461 690.353 183.771 690.236 184.144C690.124 184.512 690.068 184.947 690.068 185.448L689.132 185.16C689.132 184.323 689.281 183.605 689.58 183.008C689.884 182.405 690.308 181.944 690.852 181.624C691.401 181.299 692.046 181.136 692.788 181.136C693.348 181.136 693.825 181.224 694.22 181.4C694.614 181.576 694.942 181.811 695.204 182.104C695.465 182.392 695.67 182.717 695.82 183.08C695.969 183.437 696.073 183.803 696.132 184.176C696.196 184.544 696.228 184.893 696.228 185.224V190H694.788ZM688.628 190V181.36H689.908V183.672H690.068V190H688.628ZM701.804 194.08C701.35 194.08 700.908 194.011 700.476 193.872C700.044 193.733 699.646 193.523 699.284 193.24C698.926 192.963 698.628 192.611 698.388 192.184L699.692 191.496C699.905 191.917 700.206 192.224 700.596 192.416C700.99 192.608 701.396 192.704 701.812 192.704C702.361 192.704 702.817 192.603 703.18 192.4C703.542 192.203 703.809 191.907 703.98 191.512C704.156 191.117 704.241 190.627 704.236 190.04V187.68H704.404V181.36H705.668V190.056C705.668 190.291 705.66 190.517 705.644 190.736C705.633 190.955 705.606 191.171 705.564 191.384C705.452 191.997 705.23 192.501 704.9 192.896C704.569 193.296 704.142 193.592 703.62 193.784C703.097 193.981 702.492 194.08 701.804 194.08ZM701.7 190.24C700.894 190.24 700.204 190.04 699.628 189.64C699.052 189.235 698.606 188.688 698.292 188C697.982 187.312 697.828 186.536 697.828 185.672C697.828 184.808 697.982 184.032 698.292 183.344C698.606 182.656 699.052 182.115 699.628 181.72C700.204 181.32 700.892 181.12 701.692 181.12C702.508 181.12 703.193 181.317 703.748 181.712C704.302 182.107 704.721 182.648 705.004 183.336C705.292 184.024 705.436 184.803 705.436 185.672C705.436 186.531 705.292 187.307 705.004 188C704.721 188.688 704.302 189.235 703.748 189.64C703.193 190.04 702.51 190.24 701.7 190.24ZM701.876 188.936C702.457 188.936 702.934 188.797 703.308 188.52C703.681 188.237 703.956 187.851 704.132 187.36C704.313 186.864 704.404 186.301 704.404 185.672C704.404 185.032 704.313 184.469 704.132 183.984C703.956 183.493 703.684 183.112 703.316 182.84C702.948 182.563 702.481 182.424 701.916 182.424C701.329 182.424 700.844 182.568 700.46 182.856C700.081 183.144 699.798 183.533 699.612 184.024C699.43 184.515 699.34 185.064 699.34 185.672C699.34 186.285 699.433 186.84 699.62 187.336C699.806 187.827 700.086 188.216 700.46 188.504C700.838 188.792 701.31 188.936 701.876 188.936Z" fill="#212528"/>
</g>
<path d="M322.25 302.625V280.75C322.25 277.312 319.438 274.5 316 274.5H241C237.562 274.5 234.75 277.312 234.75 280.75V343.25C234.75 346.688 237.562 349.5 241 349.5H316C319.438 349.5 322.25 346.688 322.25 343.25V321.375L347.25 346.375V277.625L322.25 302.625ZM309.75 337H247.25V287H309.75V337ZM272.25 330.75H284.75V318.25H297.25V305.75H284.75V293.25H272.25V305.75H259.75V318.25H272.25V330.75Z" fill="#DBEAF6"/>
<path d="M684 126C689.5 126 693.95 121.5 693.95 116L694 66C694 60.45 689.5 56 684 56H604C598.45 56 594 60.45 594 66V116C594 121.5 598.45 126 604 126H584V136H704V126H684ZM604 116V66H684V116.05L604 116ZM649 81.65C629.55 84.35 621.8 97.65 619 111C625.95 101.65 635.1 97.4 649 97.4V108.35L669 89.65L649 71V81.65Z" fill="#DBEAF6"/>
<path d="M533.5 183C532.948 183 532.5 183.448 532.5 184C532.5 184.552 532.948 185 533.5 185V183ZM574.707 184.707C575.098 184.317 575.098 183.683 574.707 183.293L568.343 176.929C567.953 176.538 567.319 176.538 566.929 176.929C566.538 177.319 566.538 177.953 566.929 178.343L572.586 184L566.929 189.657C566.538 190.047 566.538 190.681 566.929 191.071C567.319 191.462 567.953 191.462 568.343 191.071L574.707 184.707ZM533.5 185H574V183H533.5V185Z" fill="#B3B3B3"/>
<path d="M470.5 170C470.5 170.552 470.948 171 471.5 171C472.052 171 472.5 170.552 472.5 170H470.5ZM472.207 119.293C471.817 118.902 471.183 118.902 470.793 119.293L464.429 125.657C464.038 126.047 464.038 126.681 464.429 127.071C464.819 127.462 465.453 127.462 465.843 127.071L471.5 121.414L477.157 127.071C477.547 127.462 478.181 127.462 478.571 127.071C478.962 126.681 478.962 126.047 478.571 125.657L472.207 119.293ZM472.5 170V120H470.5V170H472.5Z" fill="#B3B3B3"/>
<defs>
<filter id="filter0_d_1595_21905" x="229" y="152" width="317" height="72" filterUnits="userSpaceOnUse" color-interpolation-filters="sRGB">
<feFlood flood-opacity="0" result="BackgroundImageFix"/>
<feColorMatrix in="SourceAlpha" type="matrix" values="0 0 0 0 0 0 0 0 0 0 0 0 0 0 0 0 0 0 127 0" result="hardAlpha"/>
<feOffset dy="4"/>
<feGaussianBlur stdDeviation="2"/>
<feComposite in2="hardAlpha" operator="out"/>
<feColorMatrix type="matrix" values="0 0 0 0 0 0 0 0 0 0 0 0 0 0 0 0 0 0 0.25 0"/>
<feBlend mode="normal" in2="BackgroundImageFix" result="effect1_dropShadow_1595_21905"/>
<feBlend mode="normal" in="SourceGraphic" in2="effect1_dropShadow_1595_21905" result="shape"/>
</filter>
<filter id="filter1_d_1595_21905" x="404" y="78" width="135" height="46" filterUnits="userSpaceOnUse" color-interpolation-filters="sRGB">
<feFlood flood-opacity="0" result="BackgroundImageFix"/>
<feColorMatrix in="SourceAlpha" type="matrix" values="0 0 0 0 0 0 0 0 0 0 0 0 0 0 0 0 0 0 127 0" result="hardAlpha"/>
<feOffset dy="4"/>
<feGaussianBlur stdDeviation="2"/>
<feComposite in2="hardAlpha" operator="out"/>
<feColorMatrix type="matrix" values="0 0 0 0 0 0 0 0 0 0 0 0 0 0 0 0 0 0 0.25 0"/>
<feBlend mode="normal" in2="BackgroundImageFix" result="effect1_dropShadow_1595_21905"/>
<feBlend mode="normal" in="SourceGraphic" in2="effect1_dropShadow_1595_21905" result="shape"/>
</filter>
<filter id="filter2_d_1595_21905" x="365" y="252" width="133" height="46" filterUnits="userSpaceOnUse" color-interpolation-filters="sRGB">
<feFlood flood-opacity="0" result="BackgroundImageFix"/>
<feColorMatrix in="SourceAlpha" type="matrix" values="0 0 0 0 0 0 0 0 0 0 0 0 0 0 0 0 0 0 127 0" result="hardAlpha"/>
<feOffset dy="4"/>
<feGaussianBlur stdDeviation="2"/>
<feComposite in2="hardAlpha" operator="out"/>
<feColorMatrix type="matrix" values="0 0 0 0 0 0 0 0 0 0 0 0 0 0 0 0 0 0 0.25 0"/>
<feBlend mode="normal" in2="BackgroundImageFix" result="effect1_dropShadow_1595_21905"/>
<feBlend mode="normal" in="SourceGraphic" in2="effect1_dropShadow_1595_21905" result="shape"/>
</filter>
<filter id="filter3_d_1595_21905" x="574" y="165" width="153" height="46" filterUnits="userSpaceOnUse" color-interpolation-filters="sRGB">
<feFlood flood-opacity="0" result="BackgroundImageFix"/>
<feColorMatrix in="SourceAlpha" type="matrix" values="0 0 0 0 0 0 0 0 0 0 0 0 0 0 0 0 0 0 127 0" result="hardAlpha"/>
<feOffset dy="4"/>
<feGaussianBlur stdDeviation="2"/>
<feComposite in2="hardAlpha" operator="out"/>
<feColorMatrix type="matrix" values="0 0 0 0 0 0 0 0 0 0 0 0 0 0 0 0 0 0 0.25 0"/>
<feBlend mode="normal" in2="BackgroundImageFix" result="effect1_dropShadow_1595_21905"/>
<feBlend mode="normal" in="SourceGraphic" in2="effect1_dropShadow_1595_21905" result="shape"/>
</filter>
<clipPath id="clip0_1595_21905">
<rect width="20" height="20" fill="white" transform="translate(501.5 174)"/>
</clipPath>
</defs>
</svg>
