<svg width="956" height="395" viewBox="0 0 956 395" fill="none" xmlns="http://www.w3.org/2000/svg">
<g filter="url(#filter0_d_1595_21949)">
<rect x="198.188" y="29.1877" width="559.625" height="337.625" rx="14.0751" fill="#D2D2D2" stroke="#7C7C7C" stroke-width="0.375335"/>
<mask id="mask0_1595_21949" style="mask-type:alpha" maskUnits="userSpaceOnUse" x="207" y="40" width="542" height="316">
<rect x="207.759" y="40.6354" width="540.483" height="315.105" rx="1.12601" fill="#8F8F8F"/>
</mask>
<g mask="url(#mask0_1595_21949)">
<rect x="207.759" y="40.6354" width="540.483" height="315.105" rx="1.12601" fill="white"/>
<rect x="207.759" y="40.6354" width="540.483" height="15.0134" fill="#ECECEC"/>
<rect x="216.767" y="44.3887" width="7.13137" height="7.13137" fill="#D2D2D2"/>
<circle cx="232.343" cy="47.9544" r="3.56568" fill="#D2D2D2"/>
<path d="M243.416 44.3887L247.544 51.5201H239.287L243.416 44.3887Z" fill="#D2D2D2"/>
<rect x="364.273" y="44.0134" width="228.204" height="8.25737" rx="3.75335" fill="#F7F7F7"/>
<path fill-rule="evenodd" clip-rule="evenodd" d="M585.113 48.9831L585.113 49.2289L583.557 50.7817L583.094 50.318L584.647 48.7622L584.892 48.7622L584.98 48.6781C584.675 48.3234 584.491 47.8629 584.491 47.3619C584.491 46.2448 585.396 45.3393 586.514 45.3393C587.631 45.3393 588.536 46.2448 588.536 47.3619C588.536 48.479 587.631 49.3845 586.514 49.3845C586.013 49.3845 585.552 49.2009 585.197 48.896L585.113 48.9831ZM586.514 45.9616C585.739 45.9616 585.113 46.587 585.113 47.3618C585.113 48.1367 585.739 48.7621 586.514 48.7621C587.288 48.7621 587.914 48.1367 587.914 47.3618C587.914 46.587 587.288 45.9616 586.514 45.9616Z" fill="#949494"/>
</g>
<rect x="457.507" y="33.2788" width="45.1153" height="3.07775" rx="1.53887" stroke="#7C7C7C" stroke-width="0.300268"/>
<circle cx="507.839" cy="34.8177" r="1.53887" stroke="#7C7C7C" stroke-width="0.300268"/>
<circle cx="448.161" cy="34.8177" r="1.53887" stroke="#7C7C7C" stroke-width="0.300268"/>
<rect x="207.946" y="40.8232" width="540.107" height="314.596" rx="0.938338" stroke="#7C7C7C" stroke-width="0.375335"/>
<rect x="216" y="64" width="16" height="16" rx="4" fill="#DBEAF6"/>
<rect x="216" y="112" width="16" height="16" rx="4" fill="#DBEAF6"/>
<rect x="216" y="160" width="16" height="16" rx="4" fill="#DBEAF6"/>
<rect x="216" y="208" width="16" height="16" rx="4" fill="#DBEAF6"/>
<rect x="216" y="256" width="16" height="16" rx="4" fill="#DBEAF6"/>
<rect x="216" y="304" width="16" height="16" rx="4" fill="#DBEAF6"/>
<rect x="240" y="64" width="120" height="16" rx="4" fill="#DBEAF6"/>
<rect x="408" y="64" width="180" height="16" rx="4" fill="#DBEAF6"/>
<rect x="384" y="276" width="356" height="60" rx="4" fill="#DBEAF6"/>
<rect x="384" y="240" width="80" height="20" rx="4" fill="#DBEAF6"/>
<rect x="634" y="212" width="106" height="20" rx="4" fill="#DBEAF6"/>
<rect x="384" y="184" width="106" height="20" rx="4" fill="#DBEAF6"/>
<rect x="384" y="160" width="173" height="20" rx="4" fill="#DBEAF6"/>
<rect x="567" y="136" width="173" height="20" rx="4" fill="#DBEAF6"/>
<rect x="639" y="108" width="101" height="20" rx="4" fill="#DBEAF6"/>
<rect x="384" y="64" width="16" height="16" rx="4" fill="#DBEAF6"/>
<rect x="724" y="64" width="16" height="16" rx="4" fill="#DBEAF6"/>
<rect x="700" y="64" width="16" height="16" rx="4" fill="#DBEAF6"/>
<rect x="676" y="64" width="16" height="16" rx="4" fill="#DBEAF6"/>
<rect x="240" y="112" width="120" height="16" rx="4" fill="#DBEAF6"/>
<rect x="240" y="160" width="120" height="16" rx="4" fill="#DBEAF6"/>
<rect x="240" y="208" width="120" height="16" rx="4" fill="#DBEAF6"/>
<rect x="240" y="256" width="120" height="16" rx="4" fill="#DBEAF6"/>
<rect x="240" y="304" width="120" height="16" rx="4" fill="#DBEAF6"/>
<rect x="240" y="88" width="87" height="8" rx="4" fill="#DBEAF6"/>
<rect x="240" y="136" width="108" height="8" rx="4" fill="#DBEAF6"/>
<rect x="240" y="184" width="53" height="8" rx="4" fill="#DBEAF6"/>
<rect x="240" y="232" width="120" height="8" rx="4" fill="#DBEAF6"/>
<rect x="240" y="280" width="53" height="8" rx="4" fill="#DBEAF6"/>
<rect x="240" y="328" width="87" height="8" rx="4" fill="#DBEAF6"/>
</g>
<g filter="url(#filter1_d_1595_21949)">
<rect x="685" y="282" width="189.443" height="50.2213" rx="25.1106" fill="white" shape-rendering="crispEdges"/>
<path d="M713.129 315.929C712.046 315.929 711.07 315.745 710.2 315.377C709.337 315.009 708.623 314.486 708.057 313.807C707.498 313.121 707.134 312.311 706.964 311.377L708.916 311.069C709.164 312.031 709.677 312.785 710.455 313.329C711.24 313.867 712.163 314.136 713.224 314.136C713.91 314.136 714.529 314.03 715.081 313.817C715.64 313.598 716.082 313.287 716.407 312.884C716.733 312.481 716.896 312.003 716.896 311.451C716.896 311.112 716.835 310.822 716.715 310.581C716.602 310.334 716.443 310.125 716.238 309.955C716.04 309.778 715.813 309.63 715.559 309.51C715.304 309.389 715.039 309.29 714.763 309.212L710.869 308.056C710.444 307.929 710.034 307.769 709.638 307.578C709.242 307.38 708.888 307.136 708.577 306.846C708.266 306.549 708.018 306.195 707.834 305.785C707.65 305.368 707.558 304.876 707.558 304.31C707.558 303.405 707.792 302.634 708.258 301.997C708.732 301.354 709.373 300.862 710.179 300.522C710.985 300.183 711.894 300.017 712.906 300.024C713.932 300.031 714.848 300.215 715.654 300.575C716.468 300.929 717.14 301.438 717.67 302.103C718.208 302.768 718.568 303.564 718.752 304.491L716.747 304.841C716.641 304.218 716.404 303.684 716.036 303.239C715.675 302.786 715.223 302.439 714.678 302.199C714.133 301.951 713.536 301.824 712.885 301.817C712.262 301.81 711.7 301.909 711.198 302.114C710.695 302.319 710.296 302.606 709.999 302.973C709.702 303.334 709.553 303.752 709.553 304.225C709.553 304.692 709.687 305.071 709.956 305.361C710.225 305.644 710.554 305.87 710.943 306.04C711.339 306.203 711.725 306.337 712.1 306.443L715.007 307.281C715.339 307.373 715.721 307.501 716.153 307.663C716.591 307.826 717.016 308.056 717.426 308.353C717.836 308.643 718.176 309.032 718.445 309.52C718.714 310.001 718.848 310.61 718.848 311.345C718.848 312.081 718.699 312.735 718.402 313.308C718.112 313.881 717.705 314.362 717.182 314.751C716.659 315.133 716.05 315.423 715.357 315.621C714.664 315.826 713.921 315.929 713.129 315.929ZM725.901 315.929C724.741 315.929 723.755 315.671 722.941 315.154C722.135 314.631 721.519 313.913 721.095 313C720.67 312.088 720.451 311.048 720.437 309.881C720.451 308.685 720.674 307.635 721.105 306.73C721.544 305.817 722.17 305.106 722.984 304.597C723.797 304.088 724.777 303.833 725.923 303.833C727.132 303.833 728.172 304.13 729.042 304.724C729.919 305.318 730.506 306.132 730.804 307.165L728.936 307.727C728.696 307.062 728.303 306.546 727.758 306.178C727.221 305.81 726.602 305.626 725.901 305.626C725.116 305.626 724.469 305.81 723.96 306.178C723.45 306.539 723.072 307.041 722.824 307.685C722.577 308.321 722.449 309.053 722.442 309.881C722.457 311.154 722.75 312.183 723.323 312.969C723.903 313.747 724.763 314.136 725.901 314.136C726.651 314.136 727.274 313.966 727.769 313.626C728.264 313.28 728.639 312.781 728.894 312.13L730.804 312.629C730.407 313.697 729.789 314.514 728.947 315.08C728.105 315.646 727.09 315.929 725.901 315.929ZM732.969 315.611V304.151H734.656V306.921L734.38 306.56C734.515 306.206 734.688 305.881 734.9 305.584C735.12 305.287 735.364 305.042 735.632 304.851C735.93 304.611 736.266 304.427 736.64 304.3C737.015 304.172 737.397 304.098 737.786 304.077C738.175 304.049 738.54 304.073 738.879 304.151V305.923C738.483 305.817 738.048 305.789 737.574 305.838C737.1 305.888 736.662 306.061 736.258 306.358C735.891 306.62 735.604 306.938 735.399 307.313C735.201 307.688 735.063 308.095 734.985 308.533C734.907 308.965 734.868 309.407 734.868 309.86V315.611H732.969ZM745.644 315.929C744.519 315.929 743.536 315.681 742.694 315.186C741.86 314.684 741.209 313.987 740.742 313.096C740.275 312.198 740.042 311.151 740.042 309.955C740.042 308.703 740.272 307.621 740.731 306.708C741.191 305.789 741.831 305.081 742.652 304.586C743.48 304.084 744.449 303.833 745.559 303.833C746.712 303.833 747.692 304.098 748.498 304.629C749.312 305.159 749.92 305.916 750.324 306.899C750.734 307.883 750.911 309.053 750.854 310.411H748.944V309.732C748.923 308.325 748.636 307.274 748.085 306.581C747.533 305.881 746.712 305.531 745.623 305.531C744.456 305.531 743.568 305.905 742.96 306.655C742.351 307.405 742.047 308.48 742.047 309.881C742.047 311.232 742.351 312.279 742.96 313.022C743.568 313.764 744.435 314.136 745.559 314.136C746.316 314.136 746.974 313.962 747.533 313.616C748.092 313.269 748.53 312.771 748.849 312.12L750.663 312.746C750.217 313.757 749.545 314.543 748.647 315.101C747.756 315.653 746.755 315.929 745.644 315.929ZM741.411 310.411V308.894H749.878V310.411H741.411ZM758.182 315.929C757.057 315.929 756.074 315.681 755.232 315.186C754.398 314.684 753.747 313.987 753.28 313.096C752.813 312.198 752.58 311.151 752.58 309.955C752.58 308.703 752.81 307.621 753.269 306.708C753.729 305.789 754.369 305.081 755.19 304.586C756.018 304.084 756.987 303.833 758.097 303.833C759.25 303.833 760.23 304.098 761.036 304.629C761.85 305.159 762.458 305.916 762.861 306.899C763.272 307.883 763.449 309.053 763.392 310.411H761.482V309.732C761.461 308.325 761.174 307.274 760.623 306.581C760.071 305.881 759.25 305.531 758.161 305.531C756.994 305.531 756.106 305.905 755.498 306.655C754.889 307.405 754.585 308.48 754.585 309.881C754.585 311.232 754.889 312.279 755.498 313.022C756.106 313.764 756.973 314.136 758.097 314.136C758.854 314.136 759.512 313.962 760.071 313.616C760.63 313.269 761.068 312.771 761.387 312.12L763.201 312.746C762.755 313.757 762.083 314.543 761.185 315.101C760.294 315.653 759.293 315.929 758.182 315.929ZM753.949 310.411V308.894H762.416V310.411H753.949ZM773.603 315.611V309.87C773.603 309.326 773.554 308.802 773.455 308.3C773.363 307.798 773.196 307.349 772.956 306.952C772.722 306.549 772.404 306.231 772.001 305.997C771.605 305.764 771.102 305.647 770.494 305.647C770.02 305.647 769.589 305.729 769.2 305.891C768.818 306.047 768.489 306.287 768.213 306.613C767.937 306.938 767.721 307.349 767.566 307.844C767.417 308.332 767.343 308.908 767.343 309.573L766.101 309.191C766.101 308.081 766.299 307.129 766.696 306.337C767.099 305.538 767.661 304.926 768.383 304.501C769.111 304.07 769.967 303.854 770.95 303.854C771.693 303.854 772.326 303.971 772.85 304.204C773.373 304.438 773.808 304.749 774.155 305.138C774.501 305.52 774.774 305.951 774.972 306.432C775.17 306.906 775.308 307.391 775.386 307.886C775.471 308.374 775.513 308.838 775.513 309.276V315.611H773.603ZM765.433 315.611V304.151H767.131V307.218H767.343V315.611H765.433ZM787.348 315.929C786.188 315.929 785.201 315.671 784.387 315.154C783.581 314.631 782.966 313.913 782.541 313C782.117 312.088 781.897 311.048 781.883 309.881C781.897 308.685 782.12 307.635 782.552 306.73C782.99 305.817 783.616 305.106 784.43 304.597C785.243 304.088 786.223 303.833 787.369 303.833C788.579 303.833 789.618 304.13 790.489 304.724C791.366 305.318 791.953 306.132 792.25 307.165L790.382 307.727C790.142 307.062 789.749 306.546 789.205 306.178C788.667 305.81 788.048 305.626 787.348 305.626C786.563 305.626 785.915 305.81 785.406 306.178C784.897 306.539 784.518 307.041 784.271 307.685C784.023 308.321 783.896 309.053 783.889 309.881C783.903 311.154 784.196 312.183 784.769 312.969C785.349 313.747 786.209 314.136 787.348 314.136C788.098 314.136 788.72 313.966 789.215 313.626C789.71 313.28 790.085 312.781 790.34 312.13L792.25 312.629C791.854 313.697 791.235 314.514 790.393 315.08C789.551 315.646 788.536 315.929 787.348 315.929ZM798.986 315.929C797.847 315.929 796.863 315.671 796.036 315.154C795.215 314.638 794.582 313.924 794.136 313.011C793.691 312.099 793.468 311.052 793.468 309.87C793.468 308.668 793.694 307.614 794.147 306.708C794.6 305.803 795.24 305.099 796.068 304.597C796.895 304.088 797.868 303.833 798.986 303.833C800.131 303.833 801.118 304.091 801.946 304.607C802.773 305.117 803.407 305.828 803.845 306.74C804.291 307.646 804.514 308.689 804.514 309.87C804.514 311.066 804.291 312.12 803.845 313.032C803.4 313.938 802.763 314.649 801.935 315.165C801.108 315.674 800.124 315.929 798.986 315.929ZM798.986 314.136C800.174 314.136 801.058 313.74 801.638 312.947C802.218 312.155 802.508 311.129 802.508 309.87C802.508 308.576 802.215 307.547 801.628 306.783C801.04 306.012 800.16 305.626 798.986 305.626C798.186 305.626 797.528 305.806 797.012 306.167C796.496 306.528 796.11 307.027 795.855 307.663C795.601 308.3 795.473 309.036 795.473 309.87C795.473 311.158 795.77 312.19 796.365 312.969C796.959 313.747 797.832 314.136 798.986 314.136ZM815.009 315.611V309.87C815.009 309.326 814.96 308.802 814.861 308.3C814.769 307.798 814.603 307.349 814.362 306.952C814.129 306.549 813.81 306.231 813.407 305.997C813.011 305.764 812.509 305.647 811.9 305.647C811.427 305.647 810.995 305.729 810.606 305.891C810.224 306.047 809.895 306.287 809.619 306.613C809.343 306.938 809.128 307.349 808.972 307.844C808.823 308.332 808.749 308.908 808.749 309.573L807.508 309.191C807.508 308.081 807.706 307.129 808.102 306.337C808.505 305.538 809.067 304.926 809.789 304.501C810.518 304.07 811.373 303.854 812.357 303.854C813.099 303.854 813.733 303.971 814.256 304.204C814.779 304.438 815.215 304.749 815.561 305.138C815.908 305.52 816.18 305.951 816.378 306.432C816.576 306.906 816.714 307.391 816.792 307.886C816.877 308.374 816.919 308.838 816.919 309.276V315.611H815.009ZM806.839 315.611V304.151H808.537V307.218H808.749V315.611H806.839ZM826.076 315.611C825.397 315.745 824.725 315.798 824.06 315.77C823.402 315.749 822.815 315.618 822.299 315.377C821.782 315.13 821.39 314.748 821.121 314.231C820.895 313.779 820.771 313.322 820.75 312.863C820.735 312.396 820.728 311.869 820.728 311.282V300.968H822.617V311.197C822.617 311.664 822.621 312.063 822.628 312.396C822.642 312.728 822.716 313.015 822.85 313.255C823.105 313.708 823.508 313.973 824.06 314.051C824.619 314.129 825.291 314.107 826.076 313.987V315.611ZM818.405 305.711V304.151H826.076V305.711H818.405ZM828.403 315.611V304.151H830.09V306.921L829.814 306.56C829.948 306.206 830.122 305.881 830.334 305.584C830.553 305.287 830.797 305.042 831.066 304.851C831.363 304.611 831.699 304.427 832.074 304.3C832.449 304.172 832.831 304.098 833.22 304.077C833.609 304.049 833.973 304.073 834.313 304.151V305.923C833.917 305.817 833.482 305.789 833.008 305.838C832.534 305.888 832.095 306.061 831.692 306.358C831.324 306.62 831.038 306.938 830.832 307.313C830.634 307.688 830.496 308.095 830.419 308.533C830.341 308.965 830.302 309.407 830.302 309.86V315.611H828.403ZM840.993 315.929C839.854 315.929 838.871 315.671 838.043 315.154C837.223 314.638 836.589 313.924 836.144 313.011C835.698 312.099 835.475 311.052 835.475 309.87C835.475 308.668 835.702 307.614 836.154 306.708C836.607 305.803 837.247 305.099 838.075 304.597C838.903 304.088 839.875 303.833 840.993 303.833C842.139 303.833 843.126 304.091 843.953 304.607C844.781 305.117 845.414 305.828 845.852 306.74C846.298 307.646 846.521 308.689 846.521 309.87C846.521 311.066 846.298 312.12 845.852 313.032C845.407 313.938 844.77 314.649 843.943 315.165C843.115 315.674 842.132 315.929 840.993 315.929ZM840.993 314.136C842.181 314.136 843.065 313.74 843.645 312.947C844.226 312.155 844.516 311.129 844.516 309.87C844.516 308.576 844.222 307.547 843.635 306.783C843.048 306.012 842.167 305.626 840.993 305.626C840.193 305.626 839.536 305.806 839.019 306.167C838.503 306.528 838.117 307.027 837.863 307.663C837.608 308.3 837.481 309.036 837.481 309.87C837.481 311.158 837.778 312.19 838.372 312.969C838.966 313.747 839.84 314.136 840.993 314.136ZM849.069 315.611V300.013H850.958V315.611H849.069Z" fill="#212528"/>
</g>
<g filter="url(#filter2_d_1595_21949)">
<rect x="395.845" y="90.6721" width="62.9667" height="29.4834" rx="14.7417" fill="#F6EFFC" shape-rendering="crispEdges"/>
<path d="M408.578 109.914L411.587 100.926H413.135L416.143 109.914H414.989L412.174 101.575H412.523L409.733 109.914H408.578ZM410.026 107.81V106.768H414.695V107.81H410.026ZM419.907 110.101C419.279 110.101 418.74 109.945 418.291 109.633C417.841 109.317 417.494 108.89 417.248 108.353C417.007 107.817 416.886 107.211 416.886 106.537C416.886 105.863 417.007 105.258 417.248 104.721C417.494 104.184 417.841 103.762 418.291 103.454C418.74 103.142 419.277 102.986 419.901 102.986C420.538 102.986 421.072 103.14 421.505 103.447C421.938 103.755 422.264 104.178 422.485 104.715C422.71 105.251 422.822 105.859 422.822 106.537C422.822 107.207 422.71 107.812 422.485 108.353C422.264 108.89 421.938 109.317 421.505 109.633C421.072 109.945 420.54 110.101 419.907 110.101ZM420.044 109.084C420.498 109.084 420.87 108.975 421.162 108.759C421.453 108.539 421.667 108.237 421.805 107.854C421.946 107.467 422.017 107.028 422.017 106.537C422.017 106.038 421.946 105.599 421.805 105.22C421.667 104.837 421.455 104.54 421.168 104.328C420.881 104.111 420.517 104.003 420.076 104.003C419.618 104.003 419.239 104.115 418.94 104.34C418.644 104.565 418.424 104.868 418.278 105.251C418.137 105.634 418.066 106.063 418.066 106.537C418.066 107.016 418.139 107.448 418.284 107.835C418.43 108.218 418.648 108.522 418.94 108.747C419.235 108.971 419.603 109.084 420.044 109.084ZM422.017 109.914V104.952H421.892V100.926H423.009V109.914H422.017ZM432.816 109.914L432.822 105.601C432.822 105.097 432.687 104.704 432.417 104.421C432.15 104.134 431.803 103.99 431.374 103.99C431.124 103.99 430.887 104.049 430.663 104.165C430.438 104.278 430.255 104.457 430.113 104.702C429.972 104.943 429.901 105.253 429.901 105.632L429.314 105.395C429.306 104.916 429.404 104.498 429.608 104.14C429.816 103.778 430.099 103.497 430.457 103.298C430.814 103.098 431.218 102.998 431.668 102.998C432.371 102.998 432.924 103.212 433.328 103.641C433.731 104.065 433.933 104.638 433.933 105.357L433.927 109.914H432.816ZM424.752 109.914V103.173H425.744V104.977H425.869V109.914H424.752ZM428.79 109.914L428.796 105.645C428.796 105.129 428.663 104.725 428.397 104.434C428.131 104.138 427.777 103.99 427.336 103.99C426.899 103.99 426.545 104.14 426.275 104.44C426.004 104.739 425.869 105.137 425.869 105.632L425.282 105.282C425.282 104.846 425.386 104.454 425.594 104.109C425.802 103.764 426.085 103.493 426.443 103.298C426.801 103.098 427.207 102.998 427.66 102.998C428.114 102.998 428.509 103.094 428.846 103.285C429.183 103.477 429.443 103.751 429.626 104.109C429.81 104.463 429.901 104.885 429.901 105.376L429.895 109.914H428.79ZM435.684 101.981V100.832H436.795V101.981H435.684ZM435.684 109.914V103.173H436.795V109.914H435.684ZM443.467 109.914V106.537C443.467 106.217 443.438 105.909 443.38 105.613C443.326 105.318 443.228 105.054 443.087 104.821C442.949 104.583 442.762 104.396 442.525 104.259C442.292 104.122 441.997 104.053 441.639 104.053C441.36 104.053 441.106 104.101 440.877 104.196C440.653 104.288 440.459 104.429 440.297 104.621C440.134 104.812 440.008 105.054 439.916 105.345C439.829 105.632 439.785 105.971 439.785 106.362L439.055 106.138C439.055 105.484 439.171 104.925 439.404 104.459C439.641 103.988 439.972 103.628 440.397 103.379C440.825 103.125 441.329 102.998 441.907 102.998C442.344 102.998 442.716 103.067 443.024 103.204C443.332 103.341 443.588 103.524 443.792 103.753C443.996 103.978 444.156 104.232 444.273 104.515C444.389 104.794 444.47 105.079 444.516 105.37C444.566 105.657 444.591 105.93 444.591 106.188V109.914H443.467ZM438.661 109.914V103.173H439.66V104.977H439.785V109.914H438.661Z" fill="#212528"/>
</g>
<path d="M392 72L404 81.2093L398.787 82.0868L402.03 88.6995L399.333 90L396.071 83.3407L392 86.8673V72Z" fill="#AA50F6"/>
<g filter="url(#filter3_d_1595_21949)">
<rect x="275.001" y="241" width="61.5375" height="29.7688" rx="14.8844" fill="#E8F7E8" shape-rendering="crispEdges"/>
<path d="M292.29 260.576C291.579 260.576 290.951 260.429 290.406 260.135C289.862 259.842 289.434 259.431 289.123 258.903C288.817 258.371 288.663 257.748 288.663 257.033V251.197L289.813 251.191V256.937C289.813 257.371 289.885 257.75 290.03 258.073C290.179 258.392 290.374 258.658 290.617 258.871C290.86 259.084 291.126 259.244 291.415 259.35C291.709 259.452 292 259.503 292.29 259.503C292.583 259.503 292.877 259.45 293.171 259.344C293.464 259.237 293.73 259.08 293.969 258.871C294.211 258.658 294.405 258.39 294.55 258.067C294.695 257.743 294.767 257.367 294.767 256.937V251.191H295.916V257.033C295.916 257.743 295.761 258.365 295.45 258.897C295.144 259.429 294.718 259.842 294.173 260.135C293.628 260.429 293.001 260.576 292.29 260.576ZM300.309 260.57C299.487 260.57 298.813 260.391 298.285 260.033C297.761 259.671 297.44 259.167 297.321 258.52L298.483 258.335C298.576 258.71 298.791 259.008 299.128 259.229C299.464 259.446 299.881 259.554 300.379 259.554C300.851 259.554 301.222 259.457 301.49 259.261C301.758 259.065 301.892 258.799 301.892 258.463C301.892 258.267 301.847 258.109 301.758 257.99C301.669 257.867 301.483 257.752 301.202 257.645C300.926 257.539 300.507 257.411 299.945 257.262C299.336 257.101 298.857 256.933 298.508 256.758C298.159 256.584 297.91 256.381 297.761 256.152C297.612 255.922 297.538 255.643 297.538 255.315C297.538 254.911 297.648 254.558 297.87 254.255C298.091 253.949 298.4 253.713 298.796 253.547C299.196 253.381 299.66 253.298 300.187 253.298C300.711 253.298 301.179 253.381 301.592 253.547C302.005 253.713 302.337 253.949 302.588 254.255C302.843 254.558 302.994 254.911 303.041 255.315L301.879 255.526C301.824 255.156 301.645 254.864 301.343 254.651C301.045 254.438 300.66 254.326 300.187 254.313C299.74 254.296 299.377 254.375 299.096 254.549C298.819 254.724 298.681 254.96 298.681 255.258C298.681 255.424 298.732 255.566 298.834 255.685C298.94 255.805 299.134 255.917 299.415 256.024C299.7 256.13 300.113 256.252 300.653 256.388C301.262 256.541 301.741 256.709 302.09 256.892C302.443 257.071 302.694 257.284 302.843 257.531C302.992 257.773 303.067 258.073 303.067 258.431C303.067 259.095 302.822 259.618 302.332 260.001C301.843 260.38 301.168 260.57 300.309 260.57ZM307.463 260.576C306.786 260.576 306.194 260.427 305.688 260.129C305.186 259.827 304.794 259.408 304.513 258.871C304.232 258.331 304.092 257.701 304.092 256.982C304.092 256.228 304.23 255.577 304.507 255.028C304.783 254.475 305.169 254.049 305.662 253.751C306.16 253.449 306.743 253.298 307.412 253.298C308.105 253.298 308.695 253.457 309.18 253.777C309.67 254.096 310.036 254.551 310.278 255.143C310.525 255.734 310.631 256.439 310.597 257.256H309.448V256.847C309.435 256 309.263 255.368 308.931 254.951C308.599 254.53 308.105 254.319 307.45 254.319C306.748 254.319 306.213 254.545 305.847 254.996C305.481 255.447 305.298 256.094 305.298 256.937C305.298 257.75 305.481 258.38 305.847 258.827C306.213 259.274 306.735 259.497 307.412 259.497C307.867 259.497 308.263 259.393 308.599 259.184C308.935 258.976 309.199 258.676 309.391 258.284L310.482 258.661C310.214 259.269 309.81 259.742 309.269 260.078C308.733 260.41 308.131 260.576 307.463 260.576ZM304.915 257.256V256.343H310.01V257.256H304.915ZM312.019 260.384V253.489H313.034V255.156L312.868 254.939C312.949 254.726 313.053 254.53 313.181 254.351C313.313 254.172 313.46 254.026 313.621 253.911C313.8 253.766 314.002 253.655 314.228 253.579C314.453 253.502 314.683 253.457 314.917 253.445C315.151 253.428 315.371 253.442 315.575 253.489V254.555C315.337 254.492 315.075 254.475 314.79 254.504C314.504 254.534 314.241 254.638 313.998 254.817C313.777 254.975 313.604 255.166 313.481 255.392C313.362 255.617 313.279 255.862 313.232 256.126C313.185 256.386 313.162 256.652 313.162 256.924V260.384H312.019ZM320.941 260.384V252.449L319.211 253.496V252.225L320.941 251.191H322.096V260.384H320.941Z" fill="#212528"/>
</g>
<path d="M275 222L287 231.209L281.787 232.087L285.03 238.7L282.333 240L279.071 233.341L275 236.867V222Z" fill="#29A653"/>
<path d="M838.208 24.24C837.392 24.24 836.656 24.1013 836 23.824C835.349 23.5467 834.811 23.152 834.384 22.64C833.963 22.1227 833.688 21.512 833.56 20.808L835.032 20.576C835.219 21.3013 835.605 21.8693 836.192 22.28C836.784 22.6853 837.48 22.888 838.28 22.888C838.797 22.888 839.264 22.808 839.68 22.648C840.101 22.4827 840.435 22.248 840.68 21.944C840.925 21.64 841.048 21.28 841.048 20.864C841.048 20.608 841.003 20.3893 840.912 20.208C840.827 20.0213 840.707 19.864 840.552 19.736C840.403 19.6027 840.232 19.4907 840.04 19.4C839.848 19.3093 839.648 19.2347 839.44 19.176L836.504 18.304C836.184 18.208 835.875 18.088 835.576 17.944C835.277 17.7947 835.011 17.6107 834.776 17.392C834.541 17.168 834.355 16.9013 834.216 16.592C834.077 16.2773 834.008 15.9067 834.008 15.48C834.008 14.7973 834.184 14.216 834.536 13.736C834.893 13.2507 835.376 12.88 835.984 12.624C836.592 12.368 837.277 12.2427 838.04 12.248C838.813 12.2533 839.504 12.392 840.112 12.664C840.725 12.9307 841.232 13.3147 841.632 13.816C842.037 14.3173 842.309 14.9173 842.448 15.616L840.936 15.88C840.856 15.4107 840.677 15.008 840.4 14.672C840.128 14.3307 839.787 14.0693 839.376 13.888C838.965 13.7013 838.515 13.6053 838.024 13.6C837.555 13.5947 837.131 13.6693 836.752 13.824C836.373 13.9787 836.072 14.1947 835.848 14.472C835.624 14.744 835.512 15.0587 835.512 15.416C835.512 15.768 835.613 16.0533 835.816 16.272C836.019 16.4853 836.267 16.656 836.56 16.784C836.859 16.9067 837.149 17.008 837.432 17.088L839.624 17.72C839.875 17.7893 840.163 17.8853 840.488 18.008C840.819 18.1307 841.139 18.304 841.448 18.528C841.757 18.7467 842.013 19.04 842.216 19.408C842.419 19.7707 842.52 20.2293 842.52 20.784C842.52 21.3387 842.408 21.832 842.184 22.264C841.965 22.696 841.659 23.0587 841.264 23.352C840.869 23.64 840.411 23.8587 839.888 24.008C839.365 24.1627 838.805 24.24 838.208 24.24ZM847.838 24.24C846.963 24.24 846.219 24.0453 845.606 23.656C844.998 23.2613 844.534 22.72 844.214 22.032C843.894 21.344 843.729 20.56 843.718 19.68C843.729 18.7787 843.897 17.9867 844.222 17.304C844.553 16.616 845.025 16.08 845.638 15.696C846.251 15.312 846.99 15.12 847.854 15.12C848.766 15.12 849.55 15.344 850.206 15.792C850.867 16.24 851.31 16.8533 851.534 17.632L850.126 18.056C849.945 17.5547 849.649 17.1653 849.238 16.888C848.833 16.6107 848.366 16.472 847.838 16.472C847.246 16.472 846.758 16.6107 846.374 16.888C845.99 17.16 845.705 17.5387 845.518 18.024C845.331 18.504 845.235 19.056 845.23 19.68C845.241 20.64 845.462 21.416 845.894 22.008C846.331 22.5947 846.979 22.888 847.838 22.888C848.403 22.888 848.873 22.76 849.246 22.504C849.619 22.2427 849.902 21.8667 850.094 21.376L851.534 21.752C851.235 22.5573 850.769 23.1733 850.134 23.6C849.499 24.0267 848.734 24.24 847.838 24.24ZM853.167 24V15.36H854.439V17.448L854.231 17.176C854.332 16.9093 854.463 16.664 854.623 16.44C854.788 16.216 854.972 16.032 855.175 15.888C855.399 15.7067 855.652 15.568 855.935 15.472C856.218 15.376 856.506 15.32 856.799 15.304C857.092 15.2827 857.367 15.3013 857.623 15.36V16.696C857.324 16.616 856.996 16.5947 856.639 16.632C856.282 16.6693 855.951 16.8 855.647 17.024C855.37 17.2213 855.154 17.4613 854.999 17.744C854.85 18.0267 854.746 18.3333 854.687 18.664C854.628 18.9893 854.599 19.3227 854.599 19.664V24H853.167ZM862.723 24.24C861.875 24.24 861.134 24.0533 860.499 23.68C859.87 23.3013 859.379 22.776 859.027 22.104C858.675 21.4267 858.499 20.6373 858.499 19.736C858.499 18.792 858.673 17.976 859.019 17.288C859.366 16.5947 859.849 16.0613 860.467 15.688C861.091 15.3093 861.822 15.12 862.659 15.12C863.529 15.12 864.267 15.32 864.875 15.72C865.489 16.12 865.947 16.6907 866.251 17.432C866.561 18.1733 866.694 19.056 866.651 20.08H865.211V19.568C865.195 18.5067 864.979 17.7147 864.563 17.192C864.147 16.664 863.529 16.4 862.707 16.4C861.827 16.4 861.158 16.6827 860.699 17.248C860.241 17.8133 860.011 18.624 860.011 19.68C860.011 20.6987 860.241 21.488 860.699 22.048C861.158 22.608 861.811 22.888 862.659 22.888C863.23 22.888 863.726 22.7573 864.147 22.496C864.569 22.2347 864.899 21.8587 865.139 21.368L866.507 21.84C866.171 22.6027 865.665 23.1947 864.987 23.616C864.315 24.032 863.561 24.24 862.723 24.24ZM859.531 20.08V18.936H865.915V20.08H859.531ZM872.177 24.24C871.329 24.24 870.587 24.0533 869.953 23.68C869.323 23.3013 868.833 22.776 868.481 22.104C868.129 21.4267 867.953 20.6373 867.953 19.736C867.953 18.792 868.126 17.976 868.473 17.288C868.819 16.5947 869.302 16.0613 869.921 15.688C870.545 15.3093 871.275 15.12 872.113 15.12C872.982 15.12 873.721 15.32 874.329 15.72C874.942 16.12 875.401 16.6907 875.705 17.432C876.014 18.1733 876.147 19.056 876.105 20.08H874.665V19.568C874.649 18.5067 874.433 17.7147 874.017 17.192C873.601 16.664 872.982 16.4 872.161 16.4C871.281 16.4 870.611 16.6827 870.153 17.248C869.694 17.8133 869.465 18.624 869.465 19.68C869.465 20.6987 869.694 21.488 870.153 22.048C870.611 22.608 871.265 22.888 872.113 22.888C872.683 22.888 873.179 22.7573 873.601 22.496C874.022 22.2347 874.353 21.8587 874.593 21.368L875.961 21.84C875.625 22.6027 875.118 23.1947 874.441 23.616C873.769 24.032 873.014 24.24 872.177 24.24ZM868.985 20.08V18.936H875.369V20.08H868.985ZM883.803 24V19.672C883.803 19.2613 883.766 18.8667 883.691 18.488C883.622 18.1093 883.497 17.7707 883.315 17.472C883.139 17.168 882.899 16.928 882.595 16.752C882.297 16.576 881.918 16.488 881.459 16.488C881.102 16.488 880.777 16.5493 880.483 16.672C880.195 16.7893 879.947 16.9707 879.739 17.216C879.531 17.4613 879.369 17.7707 879.251 18.144C879.139 18.512 879.083 18.9467 879.083 19.448L878.147 19.16C878.147 18.3227 878.297 17.6053 878.595 17.008C878.899 16.4053 879.323 15.944 879.867 15.624C880.417 15.2987 881.062 15.136 881.803 15.136C882.363 15.136 882.841 15.224 883.235 15.4C883.63 15.576 883.958 15.8107 884.219 16.104C884.481 16.392 884.686 16.7173 884.835 17.08C884.985 17.4373 885.089 17.8027 885.147 18.176C885.211 18.544 885.243 18.8933 885.243 19.224V24H883.803ZM877.643 24V15.36H878.923V17.672H879.083V24H877.643ZM894.166 24.24C893.292 24.24 892.548 24.0453 891.934 23.656C891.326 23.2613 890.862 22.72 890.542 22.032C890.222 21.344 890.057 20.56 890.046 19.68C890.057 18.7787 890.225 17.9867 890.55 17.304C890.881 16.616 891.353 16.08 891.966 15.696C892.58 15.312 893.318 15.12 894.182 15.12C895.094 15.12 895.878 15.344 896.534 15.792C897.196 16.24 897.638 16.8533 897.862 17.632L896.454 18.056C896.273 17.5547 895.977 17.1653 895.566 16.888C895.161 16.6107 894.694 16.472 894.166 16.472C893.574 16.472 893.086 16.6107 892.702 16.888C892.318 17.16 892.033 17.5387 891.846 18.024C891.66 18.504 891.564 19.056 891.558 19.68C891.569 20.64 891.79 21.416 892.222 22.008C892.66 22.5947 893.308 22.888 894.166 22.888C894.732 22.888 895.201 22.76 895.574 22.504C895.948 22.2427 896.23 21.8667 896.422 21.376L897.862 21.752C897.564 22.5573 897.097 23.1733 896.462 23.6C895.828 24.0267 895.062 24.24 894.166 24.24ZM902.941 24.24C902.082 24.24 901.341 24.0453 900.717 23.656C900.098 23.2667 899.621 22.728 899.285 22.04C898.949 21.352 898.781 20.5627 898.781 19.672C898.781 18.7653 898.951 17.9707 899.293 17.288C899.634 16.6053 900.117 16.0747 900.741 15.696C901.365 15.312 902.098 15.12 902.941 15.12C903.805 15.12 904.549 15.3147 905.173 15.704C905.797 16.088 906.274 16.624 906.605 17.312C906.941 17.9947 907.109 18.7813 907.109 19.672C907.109 20.5733 906.941 21.368 906.605 22.056C906.269 22.7387 905.789 23.2747 905.165 23.664C904.541 24.048 903.799 24.24 902.941 24.24ZM902.941 22.888C903.837 22.888 904.503 22.5893 904.941 21.992C905.378 21.3947 905.597 20.6213 905.597 19.672C905.597 18.696 905.375 17.92 904.933 17.344C904.49 16.7627 903.826 16.472 902.941 16.472C902.338 16.472 901.842 16.608 901.453 16.88C901.063 17.152 900.773 17.528 900.581 18.008C900.389 18.488 900.293 19.0427 900.293 19.672C900.293 20.6427 900.517 21.4213 900.965 22.008C901.413 22.5947 902.071 22.888 902.941 22.888ZM915.022 24V19.672C915.022 19.2613 914.985 18.8667 914.91 18.488C914.841 18.1093 914.715 17.7707 914.534 17.472C914.358 17.168 914.118 16.928 913.814 16.752C913.515 16.576 913.137 16.488 912.678 16.488C912.321 16.488 911.995 16.5493 911.702 16.672C911.414 16.7893 911.166 16.9707 910.958 17.216C910.75 17.4613 910.587 17.7707 910.47 18.144C910.358 18.512 910.302 18.9467 910.302 19.448L909.366 19.16C909.366 18.3227 909.515 17.6053 909.814 17.008C910.118 16.4053 910.542 15.944 911.086 15.624C911.635 15.2987 912.281 15.136 913.022 15.136C913.582 15.136 914.059 15.224 914.454 15.4C914.849 15.576 915.177 15.8107 915.438 16.104C915.699 16.392 915.905 16.7173 916.054 17.08C916.203 17.4373 916.307 17.8027 916.366 18.176C916.43 18.544 916.462 18.8933 916.462 19.224V24H915.022ZM908.862 24V15.36H910.142V17.672H910.302V24H908.862ZM923.366 24C922.854 24.1013 922.347 24.1413 921.846 24.12C921.35 24.104 920.907 24.0053 920.518 23.824C920.129 23.6373 919.833 23.3493 919.63 22.96C919.459 22.6187 919.366 22.2747 919.35 21.928C919.339 21.576 919.334 21.1787 919.334 20.736V12.96H920.758V20.672C920.758 21.024 920.761 21.3253 920.766 21.576C920.777 21.8267 920.833 22.0427 920.934 22.224C921.126 22.5653 921.43 22.7653 921.846 22.824C922.267 22.8827 922.774 22.8667 923.366 22.776V24ZM917.582 16.536V15.36H923.366V16.536H917.582ZM925.12 24V15.36H926.392V17.448L926.184 17.176C926.285 16.9093 926.416 16.664 926.576 16.44C926.741 16.216 926.925 16.032 927.128 15.888C927.352 15.7067 927.605 15.568 927.888 15.472C928.171 15.376 928.459 15.32 928.752 15.304C929.045 15.2827 929.32 15.3013 929.576 15.36V16.696C929.277 16.616 928.949 16.5947 928.592 16.632C928.235 16.6693 927.904 16.8 927.6 17.024C927.323 17.2213 927.107 17.4613 926.952 17.744C926.803 18.0267 926.699 18.3333 926.64 18.664C926.581 18.9893 926.552 19.3227 926.552 19.664V24H925.12ZM934.613 24.24C933.754 24.24 933.013 24.0453 932.389 23.656C931.77 23.2667 931.293 22.728 930.957 22.04C930.621 21.352 930.453 20.5627 930.453 19.672C930.453 18.7653 930.623 17.9707 930.965 17.288C931.306 16.6053 931.789 16.0747 932.413 15.696C933.037 15.312 933.77 15.12 934.613 15.12C935.477 15.12 936.221 15.3147 936.845 15.704C937.469 16.088 937.946 16.624 938.277 17.312C938.613 17.9947 938.781 18.7813 938.781 19.672C938.781 20.5733 938.613 21.368 938.277 22.056C937.941 22.7387 937.461 23.2747 936.837 23.664C936.213 24.048 935.471 24.24 934.613 24.24ZM934.613 22.888C935.509 22.888 936.175 22.5893 936.613 21.992C937.05 21.3947 937.269 20.6213 937.269 19.672C937.269 18.696 937.047 17.92 936.605 17.344C936.162 16.7627 935.498 16.472 934.613 16.472C934.01 16.472 933.514 16.608 933.125 16.88C932.735 17.152 932.445 17.528 932.253 18.008C932.061 18.488 931.965 19.0427 931.965 19.672C931.965 20.6427 932.189 21.4213 932.637 22.008C933.085 22.5947 933.743 22.888 934.613 22.888ZM940.702 24V12.24H942.126V24H940.702Z" fill="black"/>
<defs>
<filter id="filter0_d_1595_21949" x="190" y="25" width="576" height="354" filterUnits="userSpaceOnUse" color-interpolation-filters="sRGB">
<feFlood flood-opacity="0" result="BackgroundImageFix"/>
<feColorMatrix in="SourceAlpha" type="matrix" values="0 0 0 0 0 0 0 0 0 0 0 0 0 0 0 0 0 0 127 0" result="hardAlpha"/>
<feOffset dy="4"/>
<feGaussianBlur stdDeviation="4"/>
<feComposite in2="hardAlpha" operator="out"/>
<feColorMatrix type="matrix" values="0 0 0 0 0 0 0 0 0 0 0 0 0 0 0 0 0 0 0.25 0"/>
<feBlend mode="normal" in2="BackgroundImageFix" result="effect1_dropShadow_1595_21949"/>
<feBlend mode="normal" in="SourceGraphic" in2="effect1_dropShadow_1595_21949" result="shape"/>
</filter>
<filter id="filter1_d_1595_21949" x="679.695" y="282" width="200.053" height="60.8319" filterUnits="userSpaceOnUse" color-interpolation-filters="sRGB">
<feFlood flood-opacity="0" result="BackgroundImageFix"/>
<feColorMatrix in="SourceAlpha" type="matrix" values="0 0 0 0 0 0 0 0 0 0 0 0 0 0 0 0 0 0 127 0" result="hardAlpha"/>
<feOffset dy="5.30531"/>
<feGaussianBlur stdDeviation="2.65266"/>
<feComposite in2="hardAlpha" operator="out"/>
<feColorMatrix type="matrix" values="0 0 0 0 0 0 0 0 0 0 0 0 0 0 0 0 0 0 0.25 0"/>
<feBlend mode="normal" in2="BackgroundImageFix" result="effect1_dropShadow_1595_21949"/>
<feBlend mode="normal" in="SourceGraphic" in2="effect1_dropShadow_1595_21949" result="shape"/>
</filter>
<filter id="filter2_d_1595_21949" x="392.724" y="90.6721" width="69.2084" height="35.725" filterUnits="userSpaceOnUse" color-interpolation-filters="sRGB">
<feFlood flood-opacity="0" result="BackgroundImageFix"/>
<feColorMatrix in="SourceAlpha" type="matrix" values="0 0 0 0 0 0 0 0 0 0 0 0 0 0 0 0 0 0 127 0" result="hardAlpha"/>
<feOffset dy="3.12084"/>
<feGaussianBlur stdDeviation="1.56042"/>
<feComposite in2="hardAlpha" operator="out"/>
<feColorMatrix type="matrix" values="0 0 0 0 0 0 0 0 0 0 0 0 0 0 0 0 0 0 0.25 0"/>
<feBlend mode="normal" in2="BackgroundImageFix" result="effect1_dropShadow_1595_21949"/>
<feBlend mode="normal" in="SourceGraphic" in2="effect1_dropShadow_1595_21949" result="shape"/>
</filter>
<filter id="filter3_d_1595_21949" x="271.809" y="241" width="67.9219" height="36.1531" filterUnits="userSpaceOnUse" color-interpolation-filters="sRGB">
<feFlood flood-opacity="0" result="BackgroundImageFix"/>
<feColorMatrix in="SourceAlpha" type="matrix" values="0 0 0 0 0 0 0 0 0 0 0 0 0 0 0 0 0 0 127 0" result="hardAlpha"/>
<feOffset dy="3.19219"/>
<feGaussianBlur stdDeviation="1.5961"/>
<feComposite in2="hardAlpha" operator="out"/>
<feColorMatrix type="matrix" values="0 0 0 0 0 0 0 0 0 0 0 0 0 0 0 0 0 0 0.25 0"/>
<feBlend mode="normal" in2="BackgroundImageFix" result="effect1_dropShadow_1595_21949"/>
<feBlend mode="normal" in="SourceGraphic" in2="effect1_dropShadow_1595_21949" result="shape"/>
</filter>
</defs>
</svg>
