<svg width="300" height="300" viewBox="0 0 300 300" fill="none" xmlns="http://www.w3.org/2000/svg">
<path fill-rule="evenodd" clip-rule="evenodd" d="M26.1114 123.981L273.393 37.5703C273.739 37.4563 274.116 37.482 274.443 37.6419C274.77 37.8019 275.022 38.0834 275.144 38.4264C275.195 38.5748 275.222 38.7307 275.222 38.8878V261.105C275.222 261.475 275.075 261.83 274.813 262.091C274.552 262.353 274.197 262.5 273.827 262.5H273.643L26.3227 250.438C25.9653 250.419 25.6287 250.264 25.3825 250.004C25.1362 249.745 24.9992 249.4 24.9997 249.042V125.343C24.9998 125.024 25.1107 124.714 25.3133 124.467C25.516 124.219 25.798 124.044 26.1114 123.981ZM53.1103 147.778C51.8865 147.544 50.6192 147.774 49.5564 148.425C48.4937 149.076 47.7119 150.099 47.3643 151.296C47.0166 152.493 47.1281 153.776 47.6768 154.895C48.2255 156.014 49.172 156.887 50.331 157.345L140.678 183.471L142.695 181.804L232.664 107.577C233.245 107.189 233.739 106.684 234.113 106.093C234.487 105.502 234.733 104.84 234.836 104.148C234.938 103.457 234.894 102.751 234.707 102.078C234.52 101.404 234.194 100.777 233.75 100.238C233.305 99.6977 232.753 99.2569 232.128 98.9437C231.503 98.6305 230.819 98.4517 230.121 98.4189C229.423 98.3861 228.725 98.5001 228.074 98.7534C227.422 99.0067 226.831 99.3938 226.338 99.8896L138.398 172.465L53.1103 147.778Z" fill="#1E75BA"/>
</svg>
