<svg width="50" height="50" viewBox="0 0 50 50" fill="none" xmlns="http://www.w3.org/2000/svg">
<path fill-rule="evenodd" clip-rule="evenodd" d="M10.1333 21.7621L39.7807 11.0087C39.8222 10.9945 39.8674 10.9977 39.9066 11.0176C39.9458 11.0375 39.976 11.0726 39.9907 11.1153C39.9968 11.1337 40 11.1531 40 11.1727V38.8264C40 38.8724 39.9824 38.9166 39.951 38.9491C39.9196 38.9817 39.8771 39 39.8327 39H39.8107L10.1586 37.4989C10.1158 37.4966 10.0754 37.4773 10.0459 37.445C10.0164 37.4126 9.99994 37.3698 10 37.3253V21.9316C10 21.8918 10.0133 21.8532 10.0376 21.8225C10.0619 21.7917 10.0957 21.7699 10.1333 21.7621ZM13.3703 24.7235C13.2236 24.6943 13.0716 24.723 12.9442 24.804C12.8168 24.8849 12.7231 25.0124 12.6814 25.1613C12.6397 25.3102 12.653 25.4699 12.7188 25.6091C12.7846 25.7483 12.8981 25.8571 13.0371 25.914L23.869 29.1653L24.1109 28.9578L34.8976 19.7207C34.9673 19.6724 35.0265 19.6095 35.0713 19.536C35.1162 19.4625 35.1457 19.3801 35.1579 19.294C35.1702 19.2079 35.165 19.1202 35.1425 19.0363C35.1201 18.9525 35.081 18.8745 35.0278 18.8073C34.9745 18.7401 34.9083 18.6853 34.8333 18.6463C34.7584 18.6073 34.6764 18.5851 34.5927 18.581C34.509 18.5769 34.4254 18.5911 34.3473 18.6226C34.2691 18.6542 34.1982 18.7023 34.1392 18.764L23.5958 27.7956L13.3703 24.7235Z" fill="#1E75BA"/>
</svg>
