<svg width="611" height="458" viewBox="0 0 611 458" fill="none" xmlns="http://www.w3.org/2000/svg">
<path d="M295.975 15.5415C258.6 15.5415 228.267 45.8745 228.267 83.2491C228.267 120.624 258.6 150.957 295.975 150.957C333.349 150.957 363.682 120.624 363.682 83.2491C363.682 45.8745 333.349 15.5415 295.975 15.5415ZM241.809 83.2491C241.809 79.1189 242.35 75.0565 243.23 71.1972L275.595 103.561V110.332C275.595 117.78 281.688 123.874 289.136 123.874V136.941C262.527 133.556 241.809 110.806 241.809 83.2491ZM335.854 119.811C334.094 114.327 329.084 110.332 322.99 110.332H316.219V90.0199C316.219 86.296 313.172 83.2491 309.449 83.2491H268.824V69.7076H282.365C286.089 69.7076 289.136 66.6607 289.136 62.9368V49.3953H302.678C310.126 49.3953 316.219 43.3016 316.219 35.8538V33.0778C336.058 41.0673 350.141 60.5671 350.141 83.2491C350.141 97.3323 344.656 110.197 335.854 119.811Z" fill="#DBEAF6"/>
<g filter="url(#filter0_d_1653_25752)">
<rect x="264.542" y="61.3059" width="59.9558" height="44.9779" rx="22.4889" fill="white" shape-rendering="crispEdges"/>
<path d="M290.381 91.0796C289.445 91.0796 288.591 90.9151 287.819 90.5862C287.047 90.2572 286.383 89.7859 285.826 89.1723C285.269 88.5524 284.839 87.8059 284.536 86.9329C284.238 86.0536 284.09 85.0636 284.09 83.9629C284.09 82.5079 284.349 81.249 284.868 80.1863C285.386 79.1235 286.117 78.3043 287.06 77.7286C288.002 77.1467 289.109 76.8557 290.381 76.8557C291.912 76.8557 293.145 77.2131 294.081 77.9279C295.018 78.6364 295.663 79.6075 296.017 80.841L294.309 81.1921C294.025 80.3634 293.556 79.7023 292.905 79.2089C292.253 78.7155 291.44 78.4688 290.466 78.4688C289.448 78.4625 288.6 78.6902 287.923 79.152C287.253 79.6075 286.747 80.2495 286.405 81.0782C286.063 81.9069 285.889 82.8685 285.883 83.9629C285.877 85.0509 286.044 86.0062 286.386 86.8285C286.728 87.6509 287.237 88.2962 287.914 88.7643C288.597 89.2261 289.448 89.4601 290.466 89.4665C291.345 89.4728 292.086 89.3052 292.687 88.9636C293.288 88.622 293.753 88.1285 294.081 87.4833C294.41 86.838 294.61 86.0631 294.679 85.1585H291.776V83.7636H296.463C296.482 83.8901 296.492 84.042 296.492 84.2191C296.498 84.3899 296.501 84.5069 296.501 84.5702C296.501 85.8164 296.267 86.9329 295.799 87.9198C295.337 88.9003 294.651 89.6721 293.74 90.2351C292.835 90.7981 291.716 91.0796 290.381 91.0796ZM300.778 90.7949V79.0002L298.207 80.5563V78.668L300.778 77.1308H302.496V90.7949H300.778Z" fill="#212528"/>
</g>
<g filter="url(#filter1_d_1653_25752)">
<rect x="140" y="240.41" width="73.2125" height="40.1063" rx="20.0531" fill="white" shape-rendering="crispEdges"/>
<path d="M158.475 266.963V254.647H159.997V266.963H158.475ZM169.141 266.963V262.336C169.141 261.897 169.101 261.475 169.021 261.07C168.947 260.665 168.813 260.303 168.619 259.984C168.431 259.659 168.175 259.402 167.85 259.214C167.53 259.026 167.125 258.932 166.635 258.932C166.253 258.932 165.905 258.997 165.592 259.128C165.284 259.254 165.018 259.448 164.796 259.71C164.574 259.972 164.4 260.303 164.274 260.702C164.155 261.096 164.095 261.56 164.095 262.096L163.094 261.788C163.094 260.893 163.254 260.126 163.573 259.488C163.898 258.843 164.351 258.35 164.933 258.008C165.52 257.66 166.21 257.486 167.003 257.486C167.602 257.486 168.112 257.58 168.534 257.768C168.956 257.957 169.306 258.207 169.586 258.521C169.865 258.829 170.085 259.177 170.244 259.565C170.404 259.947 170.515 260.337 170.578 260.736C170.646 261.13 170.681 261.503 170.681 261.857V266.963H169.141ZM162.555 266.963V257.726H163.924V260.197H164.095V266.963H162.555ZM176.447 267.22C175.586 267.22 174.848 267.006 174.232 266.578C173.616 266.145 173.14 265.56 172.804 264.825C172.473 264.089 172.308 263.26 172.308 262.336C172.308 261.412 172.473 260.582 172.804 259.847C173.14 259.111 173.616 258.532 174.232 258.111C174.848 257.683 175.583 257.469 176.439 257.469C177.311 257.469 178.044 257.68 178.637 258.102C179.23 258.524 179.678 259.103 179.98 259.838C180.288 260.574 180.442 261.406 180.442 262.336C180.442 263.254 180.288 264.083 179.98 264.825C179.678 265.56 179.23 266.145 178.637 266.578C178.044 267.006 177.314 267.22 176.447 267.22ZM176.636 265.825C177.257 265.825 177.767 265.677 178.167 265.381C178.566 265.078 178.859 264.665 179.047 264.14C179.241 263.61 179.338 263.009 179.338 262.336C179.338 261.652 179.241 261.05 179.047 260.531C178.859 260.006 178.569 259.599 178.175 259.308C177.782 259.011 177.283 258.863 176.678 258.863C176.051 258.863 175.532 259.017 175.122 259.325C174.717 259.633 174.415 260.049 174.215 260.574C174.021 261.098 173.924 261.686 173.924 262.336C173.924 262.992 174.024 263.585 174.224 264.115C174.423 264.639 174.722 265.056 175.122 265.364C175.526 265.671 176.031 265.825 176.636 265.825ZM179.338 266.963V260.163H179.167V254.647H180.698V266.963H179.338ZM183.266 256.092V254.518H184.788V256.092H183.266ZM183.266 266.963V257.726H184.788V266.963H183.266ZM189.98 267.22C189.29 267.22 188.712 267.094 188.244 266.843C187.782 266.587 187.431 266.25 187.192 265.834C186.958 265.418 186.841 264.962 186.841 264.465C186.841 263.981 186.932 263.562 187.115 263.208C187.303 262.849 187.565 262.552 187.902 262.319C188.238 262.079 188.64 261.891 189.108 261.754C189.547 261.634 190.037 261.532 190.579 261.446C191.126 261.355 191.679 261.272 192.238 261.198C192.797 261.124 193.319 261.053 193.803 260.984L193.256 261.301C193.273 260.48 193.108 259.872 192.76 259.479C192.418 259.086 191.825 258.889 190.981 258.889C190.422 258.889 189.932 259.017 189.51 259.274C189.094 259.525 188.8 259.935 188.629 260.505L187.183 260.069C187.406 259.259 187.836 258.624 188.475 258.162C189.114 257.7 189.955 257.469 190.998 257.469C191.836 257.469 192.555 257.62 193.153 257.922C193.758 258.219 194.191 258.669 194.454 259.274C194.585 259.559 194.667 259.87 194.702 260.206C194.736 260.537 194.753 260.885 194.753 261.25V266.963H193.401V264.748L193.718 264.953C193.37 265.7 192.883 266.265 192.255 266.647C191.634 267.029 190.875 267.22 189.98 267.22ZM190.211 265.945C190.759 265.945 191.232 265.848 191.631 265.654C192.036 265.455 192.361 265.195 192.606 264.876C192.851 264.551 193.011 264.198 193.085 263.815C193.171 263.53 193.216 263.214 193.222 262.866C193.233 262.513 193.239 262.242 193.239 262.054L193.769 262.284C193.273 262.353 192.786 262.418 192.307 262.481C191.828 262.544 191.374 262.612 190.947 262.686C190.519 262.755 190.134 262.838 189.792 262.934C189.541 263.014 189.305 263.117 189.082 263.242C188.865 263.368 188.689 263.53 188.552 263.73C188.421 263.924 188.355 264.166 188.355 264.457C188.355 264.708 188.418 264.947 188.543 265.175C188.674 265.403 188.874 265.589 189.142 265.731C189.416 265.874 189.772 265.945 190.211 265.945Z" fill="#212528"/>
</g>
<g filter="url(#filter2_d_1653_25752)">
<rect x="241.679" y="240.41" width="117.213" height="40.1063" rx="20.0531" fill="white" shape-rendering="crispEdges"/>
<path d="M264.354 267.22C263.482 267.22 262.695 267.071 261.993 266.775C261.298 266.478 260.722 266.056 260.266 265.509C259.815 264.956 259.521 264.303 259.385 263.55L260.958 263.302C261.158 264.078 261.571 264.685 262.199 265.124C262.832 265.557 263.576 265.774 264.431 265.774C264.984 265.774 265.483 265.689 265.928 265.518C266.378 265.341 266.735 265.09 266.997 264.765C267.259 264.44 267.39 264.055 267.39 263.61C267.39 263.336 267.342 263.103 267.245 262.909C267.154 262.709 267.025 262.541 266.86 262.404C266.7 262.262 266.518 262.142 266.313 262.045C266.107 261.948 265.894 261.868 265.671 261.805L262.532 260.873C262.19 260.771 261.859 260.642 261.54 260.488C261.221 260.329 260.936 260.132 260.685 259.898C260.434 259.659 260.234 259.374 260.086 259.043C259.938 258.706 259.864 258.31 259.864 257.854C259.864 257.124 260.052 256.503 260.428 255.989C260.81 255.47 261.326 255.074 261.976 254.8C262.626 254.527 263.359 254.393 264.174 254.398C265.001 254.404 265.74 254.552 266.39 254.843C267.045 255.128 267.587 255.539 268.015 256.075C268.448 256.611 268.739 257.252 268.887 257.999L267.271 258.282C267.185 257.78 266.994 257.349 266.698 256.99C266.407 256.625 266.042 256.346 265.603 256.152C265.164 255.952 264.682 255.85 264.157 255.844C263.655 255.838 263.202 255.918 262.797 256.083C262.392 256.249 262.07 256.48 261.831 256.776C261.591 257.067 261.472 257.403 261.472 257.786C261.472 258.162 261.58 258.467 261.797 258.701C262.013 258.929 262.278 259.111 262.592 259.248C262.911 259.379 263.222 259.488 263.524 259.573L265.868 260.249C266.136 260.323 266.444 260.426 266.792 260.557C267.145 260.688 267.487 260.873 267.818 261.113C268.149 261.346 268.422 261.66 268.639 262.054C268.856 262.441 268.964 262.932 268.964 263.525C268.964 264.118 268.844 264.645 268.605 265.107C268.371 265.569 268.043 265.957 267.621 266.27C267.199 266.578 266.709 266.812 266.15 266.972C265.591 267.137 264.993 267.22 264.354 267.22ZM270.929 256.092V254.518H272.452V256.092H270.929ZM270.929 266.963V257.726H272.452V266.963H270.929ZM281.595 266.963V262.336C281.595 261.897 281.556 261.475 281.476 261.07C281.402 260.665 281.268 260.303 281.074 259.984C280.886 259.659 280.629 259.402 280.304 259.214C279.985 259.026 279.58 258.932 279.089 258.932C278.707 258.932 278.36 258.997 278.046 259.128C277.738 259.254 277.473 259.448 277.25 259.71C277.028 259.972 276.854 260.303 276.729 260.702C276.609 261.096 276.549 261.56 276.549 262.096L275.548 261.788C275.548 260.893 275.708 260.126 276.027 259.488C276.352 258.843 276.806 258.35 277.387 258.008C277.975 257.66 278.665 257.486 279.457 257.486C280.056 257.486 280.566 257.58 280.988 257.768C281.41 257.957 281.761 258.207 282.04 258.521C282.32 258.829 282.539 259.177 282.699 259.565C282.858 259.947 282.97 260.337 283.032 260.736C283.101 261.13 283.135 261.503 283.135 261.857V266.963H281.595ZM275.01 266.963V257.726H276.378V260.197H276.549V266.963H275.01ZM289.096 271.325C288.612 271.325 288.138 271.251 287.677 271.103C287.215 270.954 286.79 270.729 286.402 270.427C286.02 270.131 285.701 269.754 285.444 269.298L286.838 268.562C287.066 269.013 287.389 269.341 287.805 269.546C288.227 269.751 288.66 269.854 289.105 269.854C289.692 269.854 290.18 269.746 290.568 269.529C290.955 269.318 291.24 269.002 291.423 268.58C291.611 268.158 291.702 267.633 291.697 267.006V264.483H291.876V257.726H293.228V267.023C293.228 267.274 293.219 267.516 293.202 267.75C293.191 267.984 293.162 268.215 293.116 268.443C292.997 269.098 292.76 269.637 292.406 270.059C292.053 270.487 291.597 270.803 291.038 271.009C290.479 271.22 289.832 271.325 289.096 271.325ZM288.985 267.22C288.124 267.22 287.386 267.006 286.77 266.578C286.154 266.145 285.678 265.56 285.342 264.825C285.011 264.089 284.846 263.26 284.846 262.336C284.846 261.412 285.011 260.582 285.342 259.847C285.678 259.111 286.154 258.532 286.77 258.111C287.386 257.683 288.121 257.469 288.977 257.469C289.849 257.469 290.582 257.68 291.175 258.102C291.768 258.524 292.215 259.103 292.518 259.838C292.826 260.574 292.98 261.406 292.98 262.336C292.98 263.254 292.826 264.083 292.518 264.825C292.215 265.56 291.768 266.145 291.175 266.578C290.582 267.006 289.852 267.22 288.985 267.22ZM289.173 265.825C289.795 265.825 290.305 265.677 290.704 265.381C291.104 265.078 291.397 264.665 291.585 264.14C291.779 263.61 291.876 263.009 291.876 262.336C291.876 261.652 291.779 261.05 291.585 260.531C291.397 260.006 291.106 259.599 290.713 259.308C290.32 259.011 289.821 258.863 289.216 258.863C288.589 258.863 288.07 259.017 287.66 259.325C287.255 259.633 286.952 260.049 286.753 260.574C286.559 261.098 286.462 261.686 286.462 262.336C286.462 262.992 286.562 263.585 286.761 264.115C286.961 264.639 287.26 265.056 287.66 265.364C288.064 265.671 288.569 265.825 289.173 265.825ZM298.242 267.22C297.552 267.22 296.973 267.094 296.505 266.843C296.043 266.587 295.693 266.25 295.453 265.834C295.219 265.418 295.103 264.962 295.103 264.465C295.103 263.981 295.194 263.562 295.376 263.208C295.564 262.849 295.827 262.552 296.163 262.319C296.5 262.079 296.902 261.891 297.369 261.754C297.808 261.634 298.299 261.532 298.84 261.446C299.388 261.355 299.941 261.272 300.5 261.198C301.058 261.124 301.58 261.053 302.065 260.984L301.517 261.301C301.535 260.48 301.369 259.872 301.021 259.479C300.679 259.086 300.086 258.889 299.242 258.889C298.684 258.889 298.193 259.017 297.771 259.274C297.355 259.525 297.061 259.935 296.89 260.505L295.445 260.069C295.667 259.259 296.098 258.624 296.736 258.162C297.375 257.7 298.216 257.469 299.259 257.469C300.098 257.469 300.816 257.62 301.415 257.922C302.019 258.219 302.453 258.669 302.715 259.274C302.846 259.559 302.929 259.87 302.963 260.206C302.997 260.537 303.014 260.885 303.014 261.25V266.963H301.663V264.748L301.979 264.953C301.631 265.7 301.144 266.265 300.517 266.647C299.895 267.029 299.137 267.22 298.242 267.22ZM298.473 265.945C299.02 265.945 299.493 265.848 299.892 265.654C300.297 265.455 300.622 265.195 300.867 264.876C301.113 264.551 301.272 264.198 301.346 263.815C301.432 263.53 301.478 263.214 301.483 262.866C301.495 262.513 301.5 262.242 301.5 262.054L302.031 262.284C301.535 262.353 301.047 262.418 300.568 262.481C300.089 262.544 299.636 262.612 299.208 262.686C298.78 262.755 298.396 262.838 298.053 262.934C297.803 263.014 297.566 263.117 297.344 263.242C297.127 263.368 296.95 263.53 296.813 263.73C296.682 263.924 296.616 264.166 296.616 264.457C296.616 264.708 296.679 264.947 296.805 265.175C296.936 265.403 297.135 265.589 297.403 265.731C297.677 265.874 298.033 265.945 298.473 265.945ZM309.48 267.22C308.614 267.22 307.884 267.006 307.291 266.578C306.698 266.145 306.247 265.56 305.939 264.825C305.637 264.083 305.486 263.254 305.486 262.336C305.486 261.406 305.637 260.574 305.939 259.838C306.247 259.103 306.698 258.524 307.291 258.102C307.89 257.68 308.622 257.469 309.489 257.469C310.344 257.469 311.08 257.683 311.696 258.111C312.317 258.532 312.793 259.111 313.124 259.847C313.455 260.582 313.62 261.412 313.62 262.336C313.62 263.26 313.455 264.089 313.124 264.825C312.793 265.56 312.317 266.145 311.696 266.578C311.08 267.006 310.341 267.22 309.48 267.22ZM305.229 271.069V257.726H306.589V264.525H306.761V271.069H305.229ZM309.292 265.825C309.902 265.825 310.407 265.671 310.806 265.364C311.205 265.056 311.505 264.639 311.704 264.115C311.904 263.585 312.004 262.992 312.004 262.336C312.004 261.686 311.904 261.098 311.704 260.574C311.51 260.049 311.208 259.633 310.798 259.325C310.393 259.017 309.877 258.863 309.249 258.863C308.651 258.863 308.155 259.011 307.761 259.308C307.368 259.599 307.074 260.006 306.88 260.531C306.686 261.05 306.589 261.652 306.589 262.336C306.589 263.009 306.684 263.61 306.872 264.14C307.066 264.665 307.362 265.078 307.761 265.381C308.16 265.677 308.671 265.825 309.292 265.825ZM319.43 267.22C318.512 267.22 317.719 267.011 317.052 266.595C316.39 266.179 315.88 265.603 315.521 264.867C315.162 264.132 314.982 263.288 314.982 262.336C314.982 261.366 315.164 260.517 315.529 259.787C315.894 259.057 316.41 258.49 317.077 258.085C317.745 257.674 318.529 257.469 319.43 257.469C320.353 257.469 321.149 257.677 321.816 258.093C322.483 258.504 322.993 259.077 323.347 259.813C323.706 260.542 323.886 261.384 323.886 262.336C323.886 263.299 323.706 264.149 323.347 264.885C322.988 265.614 322.474 266.188 321.807 266.604C321.14 267.014 320.348 267.22 319.43 267.22ZM319.43 265.774C320.388 265.774 321.1 265.455 321.568 264.816C322.035 264.178 322.269 263.351 322.269 262.336C322.269 261.292 322.033 260.463 321.559 259.847C321.086 259.225 320.376 258.915 319.43 258.915C318.785 258.915 318.255 259.06 317.839 259.351C317.422 259.642 317.112 260.044 316.906 260.557C316.701 261.07 316.598 261.663 316.598 262.336C316.598 263.374 316.838 264.206 317.317 264.833C317.796 265.461 318.5 265.774 319.43 265.774ZM325.769 266.963V257.726H327.129V259.958L326.906 259.667C327.015 259.382 327.154 259.12 327.326 258.88C327.502 258.641 327.699 258.444 327.916 258.29C328.155 258.096 328.426 257.948 328.728 257.845C329.03 257.743 329.338 257.683 329.652 257.666C329.966 257.643 330.259 257.663 330.533 257.726V259.154C330.214 259.068 329.863 259.046 329.481 259.086C329.099 259.125 328.745 259.265 328.42 259.505C328.124 259.716 327.893 259.972 327.728 260.274C327.568 260.577 327.457 260.905 327.394 261.258C327.331 261.606 327.3 261.962 327.3 262.327V266.963H325.769ZM335.986 267.22C335.079 267.22 334.287 267.02 333.608 266.621C332.936 266.216 332.411 265.654 332.035 264.936C331.658 264.212 331.47 263.368 331.47 262.404C331.47 261.395 331.655 260.523 332.026 259.787C332.397 259.046 332.913 258.475 333.574 258.076C334.241 257.671 335.022 257.469 335.918 257.469C336.847 257.469 337.637 257.683 338.287 258.111C338.943 258.538 339.433 259.148 339.758 259.941C340.089 260.733 340.231 261.677 340.186 262.772H338.646V262.225C338.629 261.09 338.398 260.243 337.953 259.684C337.509 259.12 336.847 258.838 335.969 258.838C335.028 258.838 334.313 259.14 333.822 259.744C333.332 260.349 333.087 261.215 333.087 262.344C333.087 263.433 333.332 264.277 333.822 264.876C334.313 265.475 335.011 265.774 335.918 265.774C336.528 265.774 337.058 265.634 337.509 265.355C337.959 265.076 338.313 264.674 338.569 264.149L340.032 264.654C339.673 265.469 339.131 266.102 338.407 266.552C337.688 266.997 336.881 267.22 335.986 267.22ZM332.573 262.772V261.549H339.399V262.772H332.573Z" fill="#212528"/>
</g>
<g filter="url(#filter3_d_1653_25752)">
<rect x="387.359" y="240.41" width="80.2125" height="40.1063" rx="20.0531" fill="white" shape-rendering="crispEdges"/>
<path d="M410.033 267.22C409.161 267.22 408.374 267.071 407.672 266.775C406.977 266.478 406.401 266.056 405.945 265.509C405.494 264.956 405.2 264.303 405.064 263.55L406.637 263.302C406.837 264.078 407.25 264.685 407.878 265.124C408.51 265.557 409.255 265.774 410.11 265.774C410.663 265.774 411.162 265.689 411.607 265.518C412.057 265.341 412.414 265.09 412.676 264.765C412.938 264.44 413.069 264.055 413.069 263.61C413.069 263.336 413.021 263.103 412.924 262.909C412.833 262.709 412.704 262.541 412.539 262.404C412.379 262.262 412.197 262.142 411.992 262.045C411.786 261.948 411.572 261.868 411.35 261.805L408.211 260.873C407.869 260.771 407.538 260.642 407.219 260.488C406.9 260.329 406.615 260.132 406.364 259.898C406.113 259.659 405.913 259.374 405.765 259.043C405.617 258.706 405.543 258.31 405.543 257.854C405.543 257.124 405.731 256.503 406.107 255.989C406.489 255.47 407.005 255.074 407.655 254.8C408.305 254.527 409.038 254.393 409.853 254.398C410.68 254.404 411.419 254.552 412.069 254.843C412.724 255.128 413.266 255.539 413.694 256.075C414.127 256.611 414.418 257.252 414.566 257.999L412.95 258.282C412.864 257.78 412.673 257.349 412.376 256.99C412.086 256.625 411.721 256.346 411.282 256.152C410.843 255.952 410.361 255.85 409.836 255.844C409.334 255.838 408.881 255.918 408.476 256.083C408.071 256.249 407.749 256.48 407.51 256.776C407.27 257.067 407.151 257.403 407.151 257.786C407.151 258.162 407.259 258.467 407.476 258.701C407.692 258.929 407.957 259.111 408.271 259.248C408.59 259.379 408.901 259.488 409.203 259.573L411.547 260.249C411.815 260.323 412.123 260.426 412.471 260.557C412.824 260.688 413.166 260.873 413.497 261.113C413.828 261.346 414.101 261.66 414.318 262.054C414.535 262.441 414.643 262.932 414.643 263.525C414.643 264.118 414.523 264.645 414.284 265.107C414.05 265.569 413.722 265.957 413.3 266.27C412.878 266.578 412.388 266.812 411.829 266.972C411.27 267.137 410.672 267.22 410.033 267.22ZM420.68 267.22C419.813 267.22 419.083 267.006 418.49 266.578C417.897 266.145 417.446 265.56 417.139 264.825C416.836 264.083 416.685 263.254 416.685 262.336C416.685 261.406 416.836 260.574 417.139 259.838C417.446 259.103 417.897 258.524 418.49 258.102C419.089 257.68 419.821 257.469 420.688 257.469C421.543 257.469 422.279 257.683 422.895 258.111C423.516 258.532 423.992 259.111 424.323 259.847C424.654 260.582 424.819 261.412 424.819 262.336C424.819 263.26 424.654 264.089 424.323 264.825C423.992 265.56 423.516 266.145 422.895 266.578C422.279 267.006 421.541 267.22 420.68 267.22ZM416.429 271.069V257.726H417.789V264.525H417.96V271.069H416.429ZM420.491 265.825C421.102 265.825 421.606 265.671 422.005 265.364C422.404 265.056 422.704 264.639 422.903 264.115C423.103 263.585 423.203 262.992 423.203 262.336C423.203 261.686 423.103 261.098 422.903 260.574C422.71 260.049 422.407 259.633 421.997 259.325C421.592 259.017 421.076 258.863 420.449 258.863C419.85 258.863 419.354 259.011 418.96 259.308C418.567 259.599 418.273 260.006 418.079 260.531C417.886 261.05 417.789 261.652 417.789 262.336C417.789 263.009 417.883 263.61 418.071 264.14C418.265 264.665 418.561 265.078 418.96 265.381C419.36 265.677 419.87 265.825 420.491 265.825ZM429.32 267.22C428.63 267.22 428.051 267.094 427.584 266.843C427.122 266.587 426.771 266.25 426.532 265.834C426.298 265.418 426.181 264.962 426.181 264.465C426.181 263.981 426.272 263.562 426.455 263.208C426.643 262.849 426.905 262.552 427.242 262.319C427.578 262.079 427.98 261.891 428.448 261.754C428.887 261.634 429.377 261.532 429.919 261.446C430.466 261.355 431.019 261.272 431.578 261.198C432.137 261.124 432.659 261.053 433.143 260.984L432.596 261.301C432.613 260.48 432.448 259.872 432.1 259.479C431.758 259.086 431.165 258.889 430.321 258.889C429.762 258.889 429.272 259.017 428.85 259.274C428.433 259.525 428.14 259.935 427.969 260.505L426.523 260.069C426.746 259.259 427.176 258.624 427.815 258.162C428.453 257.7 429.294 257.469 430.338 257.469C431.176 257.469 431.895 257.62 432.493 257.922C433.098 258.219 433.531 258.669 433.793 259.274C433.925 259.559 434.007 259.87 434.041 260.206C434.076 260.537 434.093 260.885 434.093 261.25V266.963H432.741V264.748L433.058 264.953C432.71 265.7 432.222 266.265 431.595 266.647C430.974 267.029 430.215 267.22 429.32 267.22ZM429.551 265.945C430.098 265.945 430.572 265.848 430.971 265.654C431.376 265.455 431.701 265.195 431.946 264.876C432.191 264.551 432.351 264.198 432.425 263.815C432.51 263.53 432.556 263.214 432.562 262.866C432.573 262.513 432.579 262.242 432.579 262.054L433.109 262.284C432.613 262.353 432.126 262.418 431.647 262.481C431.168 262.544 430.714 262.612 430.287 262.686C429.859 262.755 429.474 262.838 429.132 262.934C428.881 263.014 428.644 263.117 428.422 263.242C428.205 263.368 428.029 263.53 427.892 263.73C427.761 263.924 427.695 264.166 427.695 264.457C427.695 264.708 427.758 264.947 427.883 265.175C428.014 265.403 428.214 265.589 428.482 265.731C428.756 265.874 429.112 265.945 429.551 265.945ZM436.488 256.092V254.518H438.01V256.092H436.488ZM436.488 266.963V257.726H438.01V266.963H436.488ZM447.154 266.963V262.336C447.154 261.897 447.114 261.475 447.034 261.07C446.96 260.665 446.826 260.303 446.632 259.984C446.444 259.659 446.187 259.402 445.862 259.214C445.543 259.026 445.138 258.932 444.648 258.932C444.266 258.932 443.918 258.997 443.604 259.128C443.296 259.254 443.031 259.448 442.809 259.71C442.586 259.972 442.412 260.303 442.287 260.702C442.167 261.096 442.107 261.56 442.107 262.096L441.107 261.788C441.107 260.893 441.266 260.126 441.586 259.488C441.911 258.843 442.364 258.35 442.946 258.008C443.533 257.66 444.223 257.486 445.015 257.486C445.614 257.486 446.125 257.58 446.546 257.768C446.968 257.957 447.319 258.207 447.599 258.521C447.878 258.829 448.097 259.177 448.257 259.565C448.417 259.947 448.528 260.337 448.591 260.736C448.659 261.13 448.693 261.503 448.693 261.857V266.963H447.154ZM440.568 266.963V257.726H441.936V260.197H442.107V266.963H440.568Z" fill="#212528"/>
</g>
<g filter="url(#filter4_d_1653_25752)">
<rect x="155.327" y="309.705" width="122.213" height="40.1063" rx="20.0531" fill="white" shape-rendering="crispEdges"/>
<path d="M173.631 336.258V323.942H178.498C178.618 323.942 178.76 323.948 178.925 323.959C179.091 323.965 179.25 323.982 179.404 324.01C180.072 324.113 180.63 324.341 181.081 324.694C181.537 325.048 181.879 325.496 182.107 326.037C182.335 326.573 182.449 327.169 182.449 327.825C182.449 328.475 182.332 329.071 182.099 329.613C181.871 330.149 181.528 330.596 181.072 330.955C180.622 331.309 180.066 331.537 179.404 331.64C179.25 331.662 179.091 331.68 178.925 331.691C178.76 331.702 178.618 331.708 178.498 331.708H175.153V336.258H173.631ZM175.153 330.263H178.446C178.555 330.263 178.677 330.257 178.814 330.245C178.957 330.234 179.091 330.214 179.216 330.186C179.61 330.094 179.929 329.929 180.174 329.69C180.425 329.444 180.608 329.159 180.722 328.834C180.836 328.503 180.893 328.167 180.893 327.825C180.893 327.483 180.836 327.149 180.722 326.824C180.608 326.493 180.425 326.206 180.174 325.96C179.929 325.715 179.61 325.55 179.216 325.464C179.091 325.43 178.957 325.41 178.814 325.404C178.677 325.393 178.555 325.387 178.446 325.387H175.153V330.263ZM190.733 336.258V331.631C190.733 331.192 190.693 330.77 190.613 330.365C190.539 329.96 190.405 329.598 190.211 329.279C190.023 328.954 189.766 328.697 189.441 328.509C189.122 328.321 188.717 328.227 188.227 328.227C187.845 328.227 187.497 328.292 187.183 328.424C186.875 328.549 186.61 328.743 186.388 329.005C186.165 329.268 185.991 329.598 185.866 329.997C185.746 330.391 185.686 330.856 185.686 331.392L184.686 331.084C184.686 330.188 184.845 329.422 185.165 328.783C185.49 328.139 185.943 327.645 186.525 327.303C187.112 326.955 187.802 326.781 188.594 326.781C189.193 326.781 189.704 326.876 190.125 327.064C190.547 327.252 190.898 327.503 191.178 327.816C191.457 328.124 191.676 328.472 191.836 328.86C191.996 329.242 192.107 329.632 192.17 330.032C192.238 330.425 192.272 330.799 192.272 331.152V336.258H190.733ZM184.147 336.258V323.942H185.515V330.742H185.686V336.258H184.147ZM194.667 325.387V323.814H196.189V325.387H194.667ZM194.667 336.258V327.021H196.189V336.258H194.667ZM198.927 336.258V323.685H200.449V336.258H198.927ZM203.187 325.387V323.814H204.709V325.387H203.187ZM203.187 336.258V327.021H204.709V336.258H203.187ZM211.518 336.515C210.651 336.515 209.921 336.301 209.328 335.873C208.735 335.44 208.285 334.856 207.977 334.12C207.675 333.379 207.524 332.549 207.524 331.631C207.524 330.702 207.675 329.869 207.977 329.134C208.285 328.398 208.735 327.819 209.328 327.397C209.927 326.975 210.66 326.764 211.526 326.764C212.382 326.764 213.117 326.978 213.733 327.406C214.355 327.828 214.831 328.407 215.162 329.142C215.492 329.878 215.658 330.707 215.658 331.631C215.658 332.555 215.492 333.384 215.162 334.12C214.831 334.856 214.355 335.44 213.733 335.873C213.117 336.301 212.379 336.515 211.518 336.515ZM207.267 340.364V327.021H208.627V333.821H208.798V340.364H207.267ZM211.33 335.121C211.94 335.121 212.444 334.967 212.844 334.659C213.243 334.351 213.542 333.935 213.742 333.41C213.941 332.88 214.041 332.287 214.041 331.631C214.041 330.981 213.941 330.394 213.742 329.869C213.548 329.345 213.246 328.928 212.835 328.62C212.43 328.312 211.914 328.158 211.287 328.158C210.688 328.158 210.192 328.307 209.799 328.603C209.405 328.894 209.112 329.302 208.918 329.826C208.724 330.345 208.627 330.947 208.627 331.631C208.627 332.304 208.721 332.905 208.909 333.436C209.103 333.96 209.4 334.374 209.799 334.676C210.198 334.972 210.708 335.121 211.33 335.121ZM221.775 336.515C220.908 336.515 220.178 336.301 219.585 335.873C218.992 335.44 218.542 334.856 218.234 334.12C217.932 333.379 217.781 332.549 217.781 331.631C217.781 330.702 217.932 329.869 218.234 329.134C218.542 328.398 218.992 327.819 219.585 327.397C220.184 326.975 220.917 326.764 221.784 326.764C222.639 326.764 223.374 326.978 223.99 327.406C224.612 327.828 225.088 328.407 225.419 329.142C225.749 329.878 225.915 330.707 225.915 331.631C225.915 332.555 225.749 333.384 225.419 334.12C225.088 334.856 224.612 335.44 223.99 335.873C223.374 336.301 222.636 336.515 221.775 336.515ZM217.524 340.364V327.021H218.884V333.821H219.055V340.364H217.524ZM221.587 335.121C222.197 335.121 222.702 334.967 223.101 334.659C223.5 334.351 223.799 333.935 223.999 333.41C224.198 332.88 224.298 332.287 224.298 331.631C224.298 330.981 224.198 330.394 223.999 329.869C223.805 329.345 223.503 328.928 223.092 328.62C222.687 328.312 222.171 328.158 221.544 328.158C220.945 328.158 220.449 328.307 220.056 328.603C219.662 328.894 219.369 329.302 219.175 329.826C218.981 330.345 218.884 330.947 218.884 331.631C218.884 332.304 218.978 332.905 219.166 333.436C219.36 333.96 219.657 334.374 220.056 334.676C220.455 334.972 220.965 335.121 221.587 335.121ZM227.961 325.387V323.814H229.483V325.387H227.961ZM227.961 336.258V327.021H229.483V336.258H227.961ZM238.627 336.258V331.631C238.627 331.192 238.587 330.77 238.507 330.365C238.433 329.96 238.299 329.598 238.105 329.279C237.917 328.954 237.66 328.697 237.335 328.509C237.016 328.321 236.611 328.227 236.121 328.227C235.739 328.227 235.391 328.292 235.077 328.424C234.769 328.549 234.504 328.743 234.282 329.005C234.06 329.268 233.886 329.598 233.76 329.997C233.64 330.391 233.581 330.856 233.581 331.392L232.58 331.084C232.58 330.188 232.739 329.422 233.059 328.783C233.384 328.139 233.837 327.645 234.419 327.303C235.006 326.955 235.696 326.781 236.489 326.781C237.087 326.781 237.598 326.876 238.02 327.064C238.442 327.252 238.792 327.503 239.072 327.816C239.351 328.124 239.571 328.472 239.73 328.86C239.89 329.242 240.001 329.632 240.064 330.032C240.132 330.425 240.166 330.799 240.166 331.152V336.258H238.627ZM232.041 336.258V327.021H233.409V329.493H233.581V336.258H232.041ZM246.309 336.515C245.403 336.515 244.61 336.315 243.932 335.916C243.259 335.511 242.734 334.95 242.358 334.231C241.982 333.507 241.793 332.663 241.793 331.699C241.793 330.69 241.979 329.818 242.349 329.082C242.72 328.341 243.236 327.771 243.897 327.372C244.565 326.967 245.346 326.764 246.241 326.764C247.17 326.764 247.96 326.978 248.61 327.406C249.266 327.833 249.756 328.444 250.081 329.236C250.412 330.029 250.555 330.972 250.509 332.067H248.969V331.52C248.952 330.385 248.721 329.538 248.277 328.98C247.832 328.415 247.17 328.133 246.292 328.133C245.352 328.133 244.636 328.435 244.146 329.039C243.655 329.644 243.41 330.511 243.41 331.64C243.41 332.729 243.655 333.573 244.146 334.171C244.636 334.77 245.334 335.069 246.241 335.069C246.851 335.069 247.381 334.93 247.832 334.65C248.282 334.371 248.636 333.969 248.893 333.444L250.355 333.949C249.996 334.764 249.454 335.397 248.73 335.848C248.012 336.293 247.205 336.515 246.309 336.515ZM242.897 332.067V330.844H249.722V332.067H242.897ZM255.903 336.506C254.803 336.506 253.899 336.267 253.192 335.788C252.49 335.303 252.06 334.628 251.9 333.761L253.457 333.513C253.582 334.015 253.87 334.414 254.321 334.71C254.771 335.001 255.33 335.146 255.997 335.146C256.63 335.146 257.126 335.015 257.485 334.753C257.845 334.491 258.024 334.134 258.024 333.684C258.024 333.422 257.964 333.211 257.845 333.051C257.725 332.886 257.477 332.732 257.1 332.589C256.73 332.446 256.168 332.275 255.415 332.076C254.6 331.859 253.959 331.634 253.491 331.4C253.023 331.166 252.69 330.895 252.49 330.588C252.291 330.28 252.191 329.906 252.191 329.467C252.191 328.925 252.339 328.452 252.636 328.047C252.932 327.637 253.346 327.32 253.876 327.098C254.412 326.876 255.033 326.764 255.741 326.764C256.442 326.764 257.069 326.876 257.622 327.098C258.175 327.32 258.62 327.637 258.956 328.047C259.299 328.452 259.501 328.925 259.564 329.467L258.007 329.749C257.933 329.253 257.693 328.863 257.289 328.578C256.889 328.292 256.373 328.141 255.741 328.124C255.142 328.101 254.654 328.207 254.278 328.441C253.907 328.675 253.722 328.991 253.722 329.39C253.722 329.613 253.79 329.804 253.927 329.963C254.07 330.123 254.329 330.274 254.706 330.417C255.088 330.559 255.641 330.722 256.365 330.904C257.18 331.109 257.822 331.335 258.289 331.58C258.763 331.819 259.099 332.104 259.299 332.435C259.498 332.76 259.598 333.162 259.598 333.641C259.598 334.531 259.27 335.232 258.614 335.745C257.959 336.253 257.055 336.506 255.903 336.506Z" fill="#212528"/>
</g>
<g filter="url(#filter5_d_1653_25752)">
<rect x="306.007" y="309.705" width="145.212" height="40.1063" rx="20.0531" fill="white" shape-rendering="crispEdges"/>
<path d="M329.168 336.515C328.216 336.515 327.375 336.318 326.645 335.925C325.915 335.531 325.342 334.981 324.926 334.274C324.516 333.561 324.31 332.726 324.31 331.768V323.95L325.85 323.942V331.64C325.85 332.221 325.947 332.729 326.141 333.162C326.34 333.59 326.602 333.946 326.927 334.231C327.253 334.516 327.609 334.73 327.997 334.873C328.39 335.01 328.781 335.078 329.168 335.078C329.562 335.078 329.955 335.007 330.349 334.864C330.742 334.722 331.099 334.511 331.418 334.231C331.743 333.946 332.002 333.587 332.196 333.154C332.39 332.72 332.487 332.216 332.487 331.64V323.942H334.027V331.768C334.027 332.72 333.818 333.553 333.402 334.265C332.992 334.978 332.421 335.531 331.692 335.925C330.962 336.318 330.121 336.515 329.168 336.515ZM342.999 336.258V331.631C342.999 331.192 342.959 330.77 342.879 330.365C342.805 329.96 342.671 329.598 342.477 329.279C342.289 328.954 342.032 328.697 341.707 328.509C341.388 328.321 340.983 328.227 340.493 328.227C340.111 328.227 339.763 328.292 339.449 328.424C339.141 328.549 338.876 328.743 338.654 329.005C338.432 329.268 338.258 329.598 338.132 329.997C338.012 330.391 337.953 330.856 337.953 331.392L336.952 331.084C336.952 330.188 337.112 329.422 337.431 328.783C337.756 328.139 338.209 327.645 338.791 327.303C339.378 326.955 340.068 326.781 340.861 326.781C341.459 326.781 341.97 326.876 342.392 327.064C342.814 327.252 343.164 327.503 343.444 327.816C343.723 328.124 343.943 328.472 344.102 328.86C344.262 329.242 344.373 329.632 344.436 330.032C344.504 330.425 344.539 330.799 344.539 331.152V336.258H342.999ZM336.413 336.258V327.021H337.782V329.493H337.953V336.258H336.413ZM346.933 325.387V323.814H348.456V325.387H346.933ZM346.933 336.258V327.021H348.456V336.258H346.933ZM356.18 336.258C355.632 336.367 355.09 336.409 354.554 336.387C354.024 336.369 353.551 336.264 353.135 336.07C352.718 335.871 352.402 335.563 352.185 335.146C352.003 334.781 351.903 334.414 351.886 334.043C351.875 333.667 351.869 333.242 351.869 332.769V324.455H353.391V332.7C353.391 333.077 353.394 333.399 353.4 333.667C353.411 333.935 353.471 334.166 353.579 334.36C353.785 334.724 354.11 334.938 354.554 335.001C355.005 335.064 355.547 335.047 356.18 334.95V336.258ZM349.996 328.278V327.021H356.18V328.278H349.996ZM361.674 336.515C360.767 336.515 359.974 336.315 359.296 335.916C358.623 335.511 358.098 334.95 357.722 334.231C357.346 333.507 357.158 332.663 357.158 331.699C357.158 330.69 357.343 329.818 357.714 329.082C358.084 328.341 358.6 327.771 359.262 327.372C359.929 326.967 360.71 326.764 361.605 326.764C362.535 326.764 363.324 326.978 363.974 327.406C364.63 327.833 365.121 328.444 365.446 329.236C365.776 330.029 365.919 330.972 365.873 332.067H364.334V331.52C364.317 330.385 364.086 329.538 363.641 328.98C363.196 328.415 362.535 328.133 361.657 328.133C360.716 328.133 360 328.435 359.51 329.039C359.019 329.644 358.774 330.511 358.774 331.64C358.774 332.729 359.019 333.573 359.51 334.171C360 334.77 360.699 335.069 361.605 335.069C362.215 335.069 362.746 334.93 363.196 334.65C363.647 334.371 364 333.969 364.257 333.444L365.719 333.949C365.36 334.764 364.818 335.397 364.094 335.848C363.376 336.293 362.569 336.515 361.674 336.515ZM358.261 332.067V330.844H365.086V332.067H358.261ZM371.404 336.515C370.543 336.515 369.805 336.301 369.189 335.873C368.573 335.44 368.097 334.856 367.76 334.12C367.43 333.384 367.264 332.555 367.264 331.631C367.264 330.707 367.43 329.878 367.76 329.142C368.097 328.407 368.573 327.828 369.189 327.406C369.805 326.978 370.54 326.764 371.395 326.764C372.268 326.764 373.001 326.975 373.594 327.397C374.187 327.819 374.634 328.398 374.936 329.134C375.244 329.869 375.398 330.702 375.398 331.631C375.398 332.549 375.244 333.379 374.936 334.12C374.634 334.856 374.187 335.44 373.594 335.873C373.001 336.301 372.271 336.515 371.404 336.515ZM371.592 335.121C372.214 335.121 372.724 334.972 373.123 334.676C373.522 334.374 373.816 333.96 374.004 333.436C374.198 332.905 374.295 332.304 374.295 331.631C374.295 330.947 374.198 330.345 374.004 329.826C373.816 329.302 373.525 328.894 373.132 328.603C372.738 328.307 372.239 328.158 371.635 328.158C371.008 328.158 370.489 328.312 370.078 328.62C369.673 328.928 369.371 329.345 369.172 329.869C368.978 330.394 368.881 330.981 368.881 331.631C368.881 332.287 368.981 332.88 369.18 333.41C369.38 333.935 369.679 334.351 370.078 334.659C370.483 334.967 370.988 335.121 371.592 335.121ZM374.295 336.258V329.459H374.124V323.942H375.655V336.258H374.295ZM385.846 336.515C384.974 336.515 384.187 336.367 383.486 336.07C382.79 335.774 382.214 335.352 381.758 334.804C381.308 334.251 381.014 333.598 380.877 332.846L382.451 332.598C382.65 333.373 383.064 333.98 383.691 334.419C384.324 334.853 385.068 335.069 385.923 335.069C386.477 335.069 386.976 334.984 387.42 334.813C387.871 334.636 388.227 334.385 388.489 334.06C388.752 333.735 388.883 333.35 388.883 332.905C388.883 332.632 388.834 332.398 388.737 332.204C388.646 332.005 388.518 331.836 388.353 331.699C388.193 331.557 388.01 331.437 387.805 331.34C387.6 331.243 387.386 331.163 387.164 331.101L384.025 330.168C383.683 330.066 383.352 329.938 383.033 329.784C382.713 329.624 382.428 329.427 382.177 329.193C381.926 328.954 381.727 328.669 381.578 328.338C381.43 328.002 381.356 327.605 381.356 327.149C381.356 326.419 381.544 325.798 381.921 325.285C382.303 324.766 382.819 324.369 383.469 324.096C384.119 323.822 384.851 323.688 385.667 323.694C386.494 323.699 387.232 323.848 387.882 324.139C388.538 324.424 389.08 324.834 389.507 325.37C389.941 325.906 390.231 326.548 390.38 327.295L388.763 327.577C388.678 327.075 388.487 326.645 388.19 326.285C387.899 325.92 387.534 325.641 387.095 325.447C386.656 325.248 386.174 325.145 385.65 325.139C385.148 325.134 384.695 325.213 384.29 325.379C383.885 325.544 383.563 325.775 383.323 326.072C383.084 326.362 382.964 326.699 382.964 327.081C382.964 327.457 383.072 327.762 383.289 327.996C383.506 328.224 383.771 328.407 384.085 328.543C384.404 328.675 384.715 328.783 385.017 328.868L387.36 329.544C387.628 329.618 387.936 329.721 388.284 329.852C388.638 329.983 388.98 330.168 389.311 330.408C389.641 330.642 389.915 330.955 390.132 331.349C390.348 331.737 390.457 332.227 390.457 332.82C390.457 333.413 390.337 333.94 390.097 334.402C389.864 334.864 389.536 335.252 389.114 335.565C388.692 335.873 388.201 336.107 387.643 336.267C387.084 336.432 386.485 336.515 385.846 336.515ZM397.408 336.258C396.861 336.367 396.319 336.409 395.783 336.387C395.253 336.369 394.78 336.264 394.363 336.07C393.947 335.871 393.631 335.563 393.414 335.146C393.232 334.781 393.132 334.414 393.115 334.043C393.103 333.667 393.098 333.242 393.098 332.769V324.455H394.62V332.7C394.62 333.077 394.623 333.399 394.629 333.667C394.64 333.935 394.7 334.166 394.808 334.36C395.013 334.724 395.338 334.938 395.783 335.001C396.234 335.064 396.775 335.047 397.408 334.95V336.258ZM391.224 328.278V327.021H397.408V328.278H391.224ZM401.91 336.515C401.22 336.515 400.641 336.389 400.173 336.139C399.711 335.882 399.361 335.546 399.121 335.129C398.887 334.713 398.771 334.257 398.771 333.761C398.771 333.276 398.862 332.857 399.044 332.503C399.232 332.144 399.495 331.848 399.831 331.614C400.168 331.374 400.57 331.186 401.037 331.049C401.476 330.93 401.967 330.827 402.508 330.742C403.056 330.65 403.609 330.568 404.168 330.493C404.726 330.419 405.248 330.348 405.733 330.28L405.185 330.596C405.202 329.775 405.037 329.168 404.689 328.774C404.347 328.381 403.754 328.184 402.91 328.184C402.351 328.184 401.861 328.312 401.439 328.569C401.023 328.82 400.729 329.23 400.558 329.801L399.113 329.364C399.335 328.555 399.766 327.919 400.404 327.457C401.043 326.995 401.884 326.764 402.927 326.764C403.766 326.764 404.484 326.915 405.083 327.218C405.687 327.514 406.121 327.965 406.383 328.569C406.514 328.854 406.597 329.165 406.631 329.501C406.665 329.832 406.682 330.18 406.682 330.545V336.258H405.331V334.043L405.647 334.248C405.299 334.995 404.812 335.56 404.185 335.942C403.563 336.324 402.805 336.515 401.91 336.515ZM402.14 335.24C402.688 335.24 403.161 335.144 403.56 334.95C403.965 334.75 404.29 334.491 404.535 334.171C404.781 333.846 404.94 333.493 405.014 333.111C405.1 332.826 405.145 332.509 405.151 332.161C405.163 331.808 405.168 331.537 405.168 331.349L405.699 331.58C405.202 331.648 404.715 331.714 404.236 331.776C403.757 331.839 403.304 331.908 402.876 331.982C402.448 332.05 402.063 332.133 401.721 332.23C401.47 332.31 401.234 332.412 401.011 332.538C400.795 332.663 400.618 332.826 400.481 333.025C400.35 333.219 400.284 333.461 400.284 333.752C400.284 334.003 400.347 334.243 400.473 334.471C400.604 334.699 400.803 334.884 401.071 335.027C401.345 335.169 401.701 335.24 402.14 335.24ZM414.064 336.258C413.516 336.367 412.974 336.409 412.438 336.387C411.908 336.369 411.435 336.264 411.019 336.07C410.602 335.871 410.286 335.563 410.069 335.146C409.887 334.781 409.787 334.414 409.77 334.043C409.758 333.667 409.753 333.242 409.753 332.769V324.455H411.275V332.7C411.275 333.077 411.278 333.399 411.284 333.667C411.295 333.935 411.355 334.166 411.463 334.36C411.669 334.724 411.994 334.938 412.438 335.001C412.889 335.064 413.431 335.047 414.064 334.95V336.258ZM407.88 328.278V327.021H414.064V328.278H407.88ZM419.558 336.515C418.651 336.515 417.858 336.315 417.18 335.916C416.507 335.511 415.982 334.95 415.606 334.231C415.23 333.507 415.042 332.663 415.042 331.699C415.042 330.69 415.227 329.818 415.597 329.082C415.968 328.341 416.484 327.771 417.146 327.372C417.813 326.967 418.594 326.764 419.489 326.764C420.419 326.764 421.208 326.978 421.858 327.406C422.514 327.833 423.004 328.444 423.329 329.236C423.66 330.029 423.803 330.972 423.757 332.067H422.218V331.52C422.2 330.385 421.97 329.538 421.525 328.98C421.08 328.415 420.419 328.133 419.54 328.133C418.6 328.133 417.884 328.435 417.394 329.039C416.903 329.644 416.658 330.511 416.658 331.64C416.658 332.729 416.903 333.573 417.394 334.171C417.884 334.77 418.583 335.069 419.489 335.069C420.099 335.069 420.63 334.93 421.08 334.65C421.53 334.371 421.884 333.969 422.141 333.444L423.603 333.949C423.244 334.764 422.702 335.397 421.978 335.848C421.26 336.293 420.453 336.515 419.558 336.515ZM416.145 332.067V330.844H422.97V332.067H416.145ZM429.151 336.506C428.051 336.506 427.147 336.267 426.44 335.788C425.738 335.303 425.308 334.628 425.148 333.761L426.705 333.513C426.83 334.015 427.118 334.414 427.569 334.71C428.019 335.001 428.578 335.146 429.245 335.146C429.878 335.146 430.374 335.015 430.733 334.753C431.093 334.491 431.272 334.134 431.272 333.684C431.272 333.422 431.212 333.211 431.093 333.051C430.973 332.886 430.725 332.732 430.349 332.589C429.978 332.446 429.416 332.275 428.664 332.076C427.848 331.859 427.207 331.634 426.739 331.4C426.272 331.166 425.938 330.895 425.738 330.588C425.539 330.28 425.439 329.906 425.439 329.467C425.439 328.925 425.587 328.452 425.884 328.047C426.18 327.637 426.594 327.32 427.124 327.098C427.66 326.876 428.282 326.764 428.989 326.764C429.69 326.764 430.317 326.876 430.87 327.098C431.423 327.32 431.868 327.637 432.205 328.047C432.547 328.452 432.749 328.925 432.812 329.467L431.255 329.749C431.181 329.253 430.942 328.863 430.537 328.578C430.138 328.292 429.622 328.141 428.989 328.124C428.39 328.101 427.902 328.207 427.526 328.441C427.155 328.675 426.97 328.991 426.97 329.39C426.97 329.613 427.038 329.804 427.175 329.963C427.318 330.123 427.577 330.274 427.954 330.417C428.336 330.559 428.889 330.722 429.613 330.904C430.428 331.109 431.07 331.335 431.537 331.58C432.011 331.819 432.347 332.104 432.547 332.435C432.746 332.76 432.846 333.162 432.846 333.641C432.846 334.531 432.518 335.232 431.862 335.745C431.207 336.253 430.303 336.506 429.151 336.506Z" fill="#212528"/>
</g>
<g filter="url(#filter6_d_1653_25752)">
<rect x="214.726" y="379.186" width="162.212" height="40.1063" rx="20.0531" fill="white" shape-rendering="crispEdges"/>
<path d="M237.887 405.995C236.935 405.995 236.094 405.799 235.364 405.405C234.634 405.012 234.061 404.462 233.645 403.754C233.234 403.042 233.029 402.206 233.029 401.248V393.431L234.569 393.422V401.12C234.569 401.702 234.666 402.209 234.86 402.643C235.059 403.07 235.321 403.427 235.646 403.712C235.971 403.997 236.328 404.211 236.716 404.353C237.109 404.49 237.5 404.558 237.887 404.558C238.281 404.558 238.674 404.487 239.068 404.345C239.461 404.202 239.818 403.991 240.137 403.712C240.462 403.427 240.721 403.067 240.915 402.634C241.109 402.201 241.206 401.696 241.206 401.12V393.422H242.746V401.248C242.746 402.201 242.537 403.033 242.121 403.746C241.711 404.459 241.14 405.012 240.411 405.405C239.681 405.799 238.84 405.995 237.887 405.995ZM251.718 405.739V401.112C251.718 400.672 251.678 400.251 251.598 399.846C251.524 399.441 251.39 399.079 251.196 398.759C251.008 398.434 250.751 398.178 250.426 397.99C250.107 397.801 249.702 397.707 249.212 397.707C248.83 397.707 248.482 397.773 248.168 397.904C247.86 398.03 247.595 398.223 247.373 398.486C247.151 398.748 246.977 399.079 246.851 399.478C246.731 399.871 246.672 400.336 246.672 400.872L245.671 400.564C245.671 399.669 245.831 398.902 246.15 398.263C246.475 397.619 246.928 397.126 247.51 396.784C248.097 396.436 248.787 396.262 249.58 396.262C250.178 396.262 250.689 396.356 251.111 396.544C251.533 396.732 251.883 396.983 252.163 397.297C252.442 397.605 252.662 397.953 252.821 398.34C252.981 398.722 253.092 399.113 253.155 399.512C253.223 399.906 253.258 400.279 253.258 400.633V405.739H251.718ZM245.132 405.739V396.501H246.501V398.973H246.672V405.739H245.132ZM255.652 394.868V393.294H257.175V394.868H255.652ZM255.652 405.739V396.501H257.175V405.739H255.652ZM264.899 405.739C264.351 405.847 263.809 405.89 263.273 405.867C262.743 405.85 262.27 405.744 261.854 405.551C261.437 405.351 261.121 405.043 260.904 404.627C260.722 404.262 260.622 403.894 260.605 403.524C260.593 403.147 260.588 402.722 260.588 402.249V393.935H262.11V402.181C262.11 402.557 262.113 402.879 262.119 403.147C262.13 403.415 262.19 403.646 262.298 403.84C262.504 404.205 262.829 404.419 263.273 404.481C263.724 404.544 264.266 404.527 264.899 404.43V405.739ZM258.715 397.759V396.501H264.899V397.759H258.715ZM270.393 405.995C269.486 405.995 268.693 405.796 268.015 405.397C267.342 404.992 266.817 404.43 266.441 403.712C266.065 402.988 265.877 402.144 265.877 401.18C265.877 400.171 266.062 399.298 266.433 398.563C266.803 397.821 267.319 397.251 267.981 396.852C268.648 396.447 269.429 396.245 270.324 396.245C271.254 396.245 272.043 396.459 272.693 396.886C273.349 397.314 273.84 397.924 274.165 398.717C274.495 399.509 274.638 400.453 274.592 401.548H273.053V401C273.036 399.866 272.805 399.019 272.36 398.46C271.915 397.896 271.254 397.613 270.376 397.613C269.435 397.613 268.719 397.916 268.229 398.52C267.738 399.124 267.493 399.991 267.493 401.12C267.493 402.209 267.738 403.053 268.229 403.652C268.719 404.251 269.418 404.55 270.324 404.55C270.934 404.55 271.465 404.41 271.915 404.131C272.366 403.851 272.719 403.449 272.976 402.925L274.438 403.429C274.079 404.245 273.537 404.878 272.813 405.328C272.095 405.773 271.288 405.995 270.393 405.995ZM266.98 401.548V400.325H273.805V401.548H266.98ZM280.123 405.995C279.262 405.995 278.524 405.782 277.908 405.354C277.292 404.921 276.816 404.336 276.479 403.6C276.149 402.865 275.983 402.035 275.983 401.112C275.983 400.188 276.149 399.358 276.479 398.623C276.816 397.887 277.292 397.308 277.908 396.886C278.524 396.459 279.259 396.245 280.114 396.245C280.987 396.245 281.72 396.456 282.313 396.878C282.906 397.3 283.353 397.878 283.655 398.614C283.963 399.35 284.117 400.182 284.117 401.112C284.117 402.03 283.963 402.859 283.655 403.6C283.353 404.336 282.906 404.921 282.313 405.354C281.72 405.782 280.99 405.995 280.123 405.995ZM280.311 404.601C280.933 404.601 281.443 404.453 281.842 404.156C282.241 403.854 282.535 403.441 282.723 402.916C282.917 402.386 283.014 401.784 283.014 401.112C283.014 400.427 282.917 399.826 282.723 399.307C282.535 398.782 282.244 398.375 281.851 398.084C281.457 397.787 280.958 397.639 280.354 397.639C279.727 397.639 279.208 397.793 278.797 398.101C278.392 398.409 278.09 398.825 277.891 399.35C277.697 399.874 277.6 400.461 277.6 401.112C277.6 401.767 277.7 402.36 277.899 402.891C278.099 403.415 278.398 403.831 278.797 404.139C279.202 404.447 279.707 404.601 280.311 404.601ZM283.014 405.739V398.939H282.843V393.422H284.374V405.739H283.014ZM290.195 405.739V393.422H291.717V399.204L297.106 393.422H299.022L293.428 399.401L299.458 405.739H297.491L291.717 399.717V405.739H290.195ZM300.823 394.868V393.294H302.346V394.868H300.823ZM300.823 405.739V396.501H302.346V405.739H300.823ZM311.49 405.739V401.112C311.49 400.672 311.45 400.251 311.37 399.846C311.296 399.441 311.162 399.079 310.968 398.759C310.78 398.434 310.523 398.178 310.198 397.99C309.879 397.801 309.474 397.707 308.984 397.707C308.601 397.707 308.254 397.773 307.94 397.904C307.632 398.03 307.367 398.223 307.145 398.486C306.922 398.748 306.748 399.079 306.623 399.478C306.503 399.871 306.443 400.336 306.443 400.872L305.443 400.564C305.443 399.669 305.602 398.902 305.921 398.263C306.247 397.619 306.7 397.126 307.281 396.784C307.869 396.436 308.559 396.262 309.351 396.262C309.95 396.262 310.46 396.356 310.882 396.544C311.304 396.732 311.655 396.983 311.934 397.297C312.214 397.605 312.433 397.953 312.593 398.34C312.753 398.722 312.864 399.113 312.927 399.512C312.995 399.906 313.029 400.279 313.029 400.633V405.739H311.49ZM304.904 405.739V396.501H306.272V398.973H306.443V405.739H304.904ZM318.991 410.101C318.506 410.101 318.033 410.027 317.571 409.878C317.109 409.73 316.684 409.505 316.296 409.203C315.914 408.906 315.595 408.53 315.338 408.074L316.733 407.338C316.961 407.789 317.283 408.117 317.699 408.322C318.121 408.527 318.554 408.63 318.999 408.63C319.586 408.63 320.074 408.521 320.462 408.305C320.849 408.094 321.135 407.777 321.317 407.355C321.505 406.933 321.596 406.409 321.591 405.782V403.258H321.77V396.501H323.122V405.799C323.122 406.05 323.113 406.292 323.096 406.526C323.085 406.759 323.056 406.99 323.011 407.218C322.891 407.874 322.654 408.413 322.301 408.835C321.947 409.263 321.491 409.579 320.932 409.784C320.373 409.995 319.726 410.101 318.991 410.101ZM318.879 405.995C318.018 405.995 317.28 405.782 316.664 405.354C316.048 404.921 315.572 404.336 315.236 403.6C314.905 402.865 314.74 402.035 314.74 401.112C314.74 400.188 314.905 399.358 315.236 398.623C315.572 397.887 316.048 397.308 316.664 396.886C317.28 396.459 318.015 396.245 318.871 396.245C319.743 396.245 320.476 396.456 321.069 396.878C321.662 397.3 322.11 397.878 322.412 398.614C322.72 399.35 322.874 400.182 322.874 401.112C322.874 402.03 322.72 402.859 322.412 403.6C322.11 404.336 321.662 404.921 321.069 405.354C320.476 405.782 319.746 405.995 318.879 405.995ZM319.068 404.601C319.689 404.601 320.199 404.453 320.599 404.156C320.998 403.854 321.291 403.441 321.48 402.916C321.673 402.386 321.77 401.784 321.77 401.112C321.77 400.427 321.673 399.826 321.48 399.307C321.291 398.782 321.001 398.375 320.607 398.084C320.214 397.787 319.715 397.639 319.11 397.639C318.483 397.639 317.964 397.793 317.554 398.101C317.149 398.409 316.847 398.825 316.647 399.35C316.453 399.874 316.356 400.461 316.356 401.112C316.356 401.767 316.456 402.36 316.656 402.891C316.855 403.415 317.154 403.831 317.554 404.139C317.958 404.447 318.463 404.601 319.068 404.601ZM329.136 405.995C328.275 405.995 327.537 405.782 326.921 405.354C326.305 404.921 325.829 404.336 325.493 403.6C325.162 402.865 324.997 402.035 324.997 401.112C324.997 400.188 325.162 399.358 325.493 398.623C325.829 397.887 326.305 397.308 326.921 396.886C327.537 396.459 328.273 396.245 329.128 396.245C330 396.245 330.733 396.456 331.326 396.878C331.919 397.3 332.367 397.878 332.669 398.614C332.977 399.35 333.131 400.182 333.131 401.112C333.131 402.03 332.977 402.859 332.669 403.6C332.367 404.336 331.919 404.921 331.326 405.354C330.733 405.782 330.003 405.995 329.136 405.995ZM329.325 404.601C329.946 404.601 330.456 404.453 330.856 404.156C331.255 403.854 331.548 403.441 331.737 402.916C331.93 402.386 332.027 401.784 332.027 401.112C332.027 400.427 331.93 399.826 331.737 399.307C331.548 398.782 331.258 398.375 330.864 398.084C330.471 397.787 329.972 397.639 329.367 397.639C328.74 397.639 328.221 397.793 327.811 398.101C327.406 398.409 327.104 398.825 326.904 399.35C326.71 399.874 326.613 400.461 326.613 401.112C326.613 401.767 326.713 402.36 326.913 402.891C327.112 403.415 327.412 403.831 327.811 404.139C328.216 404.447 328.72 404.601 329.325 404.601ZM332.027 405.739V398.939H331.856V393.422H333.387V405.739H332.027ZM339.718 405.995C338.8 405.995 338.007 405.787 337.34 405.371C336.679 404.955 336.169 404.379 335.809 403.643C335.45 402.908 335.27 402.064 335.27 401.112C335.27 400.142 335.453 399.293 335.818 398.563C336.183 397.833 336.699 397.265 337.366 396.861C338.033 396.45 338.817 396.245 339.718 396.245C340.642 396.245 341.437 396.453 342.104 396.869C342.772 397.28 343.282 397.853 343.635 398.588C343.995 399.318 344.174 400.159 344.174 401.112C344.174 402.075 343.995 402.925 343.635 403.66C343.276 404.39 342.763 404.963 342.096 405.38C341.429 405.79 340.636 405.995 339.718 405.995ZM339.718 404.55C340.676 404.55 341.389 404.231 341.856 403.592C342.324 402.953 342.558 402.126 342.558 401.112C342.558 400.068 342.321 399.238 341.848 398.623C341.375 398.001 340.665 397.69 339.718 397.69C339.074 397.69 338.543 397.836 338.127 398.126C337.711 398.417 337.4 398.819 337.195 399.332C336.99 399.846 336.887 400.439 336.887 401.112C336.887 402.149 337.127 402.982 337.605 403.609C338.084 404.236 338.789 404.55 339.718 404.55ZM357.1 405.739L357.108 399.829C357.108 399.139 356.923 398.6 356.552 398.212C356.187 397.819 355.711 397.622 355.124 397.622C354.782 397.622 354.457 397.702 354.149 397.861C353.841 398.015 353.59 398.26 353.396 398.597C353.202 398.928 353.105 399.352 353.105 399.871L352.301 399.546C352.29 398.891 352.424 398.318 352.703 397.827C352.988 397.331 353.376 396.946 353.866 396.672C354.357 396.399 354.91 396.262 355.526 396.262C356.489 396.262 357.248 396.556 357.801 397.143C358.354 397.724 358.631 398.509 358.631 399.495L358.622 405.739H357.1ZM346.049 405.739V396.501H347.409V398.973H347.58V405.739H346.049ZM351.583 405.739L351.591 399.888C351.591 399.181 351.409 398.628 351.044 398.229C350.679 397.824 350.194 397.622 349.59 397.622C348.991 397.622 348.506 397.827 348.136 398.238C347.765 398.648 347.58 399.193 347.58 399.871L346.776 399.392C346.776 398.794 346.918 398.258 347.204 397.784C347.489 397.311 347.876 396.94 348.367 396.672C348.857 396.399 349.413 396.262 350.035 396.262C350.656 396.262 351.198 396.393 351.66 396.655C352.122 396.918 352.478 397.294 352.729 397.784C352.98 398.269 353.105 398.848 353.105 399.521L353.097 405.739H351.583Z" fill="#212528"/>
</g>
<path d="M295.02 110.284C295.02 110.008 294.796 109.784 294.52 109.784C294.244 109.784 294.02 110.008 294.02 110.284H295.02ZM295.478 375.539C295.673 375.735 295.99 375.735 296.185 375.539L299.367 372.357C299.563 372.162 299.563 371.846 299.367 371.65C299.172 371.455 298.855 371.455 298.66 371.65L295.832 374.479L293.003 371.65C292.808 371.455 292.491 371.455 292.296 371.65C292.101 371.846 292.101 372.162 292.296 372.357L295.478 375.539ZM295.176 243.235C295.452 243.235 295.676 243.011 295.676 242.735C295.676 242.459 295.452 242.235 295.176 242.235V243.235ZM294.02 110.284V242.079H295.02V110.284H294.02ZM295.332 243.391V375.186H296.332V243.391H295.332ZM295.176 243.235C295.262 243.235 295.332 243.305 295.332 243.391H296.332C296.332 242.752 295.814 242.235 295.176 242.235V243.235ZM294.02 242.079C294.02 242.717 294.538 243.235 295.176 243.235V242.235C295.09 242.235 295.02 242.165 295.02 242.079H294.02Z" fill="#1157A6"/>
<path d="M295.02 110.284C295.02 110.008 294.796 109.784 294.52 109.784C294.244 109.784 294.02 110.008 294.02 110.284H295.02ZM378.259 306.059C378.454 306.254 378.771 306.254 378.966 306.059L382.148 302.877C382.344 302.682 382.344 302.365 382.148 302.17C381.953 301.975 381.636 301.975 381.441 302.17L378.613 304.998L375.784 302.17C375.589 301.975 375.272 301.975 375.077 302.17C374.882 302.365 374.882 302.682 375.077 302.877L378.259 306.059ZM294.02 110.284V183.995H295.02V110.284H294.02ZM318.52 208.495H354.613V207.495H318.52V208.495ZM378.113 231.995V305.705H379.113V231.995H378.113ZM354.613 208.495C367.591 208.495 378.113 219.016 378.113 231.995H379.113C379.113 218.464 368.144 207.495 354.613 207.495V208.495ZM294.02 183.995C294.02 197.526 304.989 208.495 318.52 208.495V207.495C305.542 207.495 295.02 196.973 295.02 183.995H294.02Z" fill="#1157A6"/>
<path d="M295.02 110.284C295.02 110.008 294.796 109.784 294.52 109.784C294.244 109.784 294.02 110.008 294.02 110.284H295.02ZM427.111 236.763C427.306 236.959 427.623 236.959 427.818 236.763L431 233.581C431.196 233.386 431.196 233.07 431 232.874C430.805 232.679 430.488 232.679 430.293 232.874L427.465 235.703L424.636 232.874C424.441 232.679 424.125 232.679 423.929 232.874C423.734 233.07 423.734 233.386 423.929 233.581L427.111 236.763ZM294.02 110.284V149.347H295.02V110.284H294.02ZM318.52 173.847H403.465V172.847H318.52V173.847ZM426.965 197.347V236.41H427.965V197.347H426.965ZM403.465 173.847C416.443 173.847 426.965 184.368 426.965 197.347H427.965C427.965 183.816 416.996 172.847 403.465 172.847V173.847ZM294.02 149.347C294.02 162.878 304.989 173.847 318.52 173.847V172.847C305.542 172.847 295.02 162.325 295.02 149.347H294.02Z" fill="#1157A6"/>
<path d="M295.02 110.284C295.02 110.008 294.796 109.784 294.52 109.784C294.244 109.784 294.02 110.008 294.02 110.284H295.02ZM170.568 240.056C170.373 240.251 170.373 240.568 170.568 240.763L173.75 243.945C173.946 244.141 174.262 244.141 174.457 243.945C174.653 243.75 174.653 243.433 174.457 243.238L171.629 240.41L174.457 237.581C174.653 237.386 174.653 237.07 174.457 236.874C174.262 236.679 173.946 236.679 173.75 236.874L170.568 240.056ZM294.02 110.284V170.151H295.02V110.284H294.02ZM270.52 193.651H199.806V194.651H270.52V193.651ZM176.177 217.28V234.655H177.177V217.28H176.177ZM176.177 234.655C176.177 237.557 173.824 239.91 170.922 239.91V240.91C174.376 240.91 177.177 238.109 177.177 234.655H176.177ZM199.806 193.651C186.756 193.651 176.177 204.23 176.177 217.28H177.177C177.177 204.783 187.308 194.651 199.806 194.651V193.651ZM294.02 170.151C294.02 183.13 283.499 193.651 270.52 193.651V194.651C284.051 194.651 295.02 183.682 295.02 170.151H294.02Z" fill="#1157A6"/>
<path d="M295.02 110.284C295.02 110.008 294.796 109.784 294.52 109.784C294.244 109.784 294.02 110.008 294.02 110.284H295.02ZM216.08 306.059C216.275 306.254 216.592 306.254 216.787 306.059L219.969 302.877C220.164 302.682 220.164 302.365 219.969 302.17C219.774 301.975 219.457 301.975 219.262 302.17L216.433 304.998L213.605 302.17C213.41 301.975 213.093 301.975 212.898 302.17C212.703 302.365 212.703 302.682 212.898 302.877L216.08 306.059ZM294.02 110.284V170.151H295.02V110.284H294.02ZM270.52 193.651H240.433V194.651H270.52V193.651ZM215.933 218.151V305.705H216.933V218.151H215.933ZM240.433 193.651C226.902 193.651 215.933 204.62 215.933 218.151H216.933C216.933 205.173 227.455 194.651 240.433 194.651V193.651ZM294.02 170.151C294.02 183.13 283.499 193.651 270.52 193.651V194.651C284.051 194.651 295.02 183.682 295.02 170.151H294.02Z" fill="#1157A6"/>
<defs>
<filter id="filter0_d_1653_25752" x="259.798" y="61.3059" width="69.4448" height="54.4669" filterUnits="userSpaceOnUse" color-interpolation-filters="sRGB">
<feFlood flood-opacity="0" result="BackgroundImageFix"/>
<feColorMatrix in="SourceAlpha" type="matrix" values="0 0 0 0 0 0 0 0 0 0 0 0 0 0 0 0 0 0 127 0" result="hardAlpha"/>
<feOffset dy="4.74447"/>
<feGaussianBlur stdDeviation="2.37224"/>
<feComposite in2="hardAlpha" operator="out"/>
<feColorMatrix type="matrix" values="0 0 0 0 0 0 0 0 0 0 0 0 0 0 0 0 0 0 0.25 0"/>
<feBlend mode="normal" in2="BackgroundImageFix" result="effect1_dropShadow_1653_25752"/>
<feBlend mode="normal" in="SourceGraphic" in2="effect1_dropShadow_1653_25752" result="shape"/>
</filter>
<filter id="filter1_d_1653_25752" x="135.723" y="240.41" width="81.7655" height="48.6593" filterUnits="userSpaceOnUse" color-interpolation-filters="sRGB">
<feFlood flood-opacity="0" result="BackgroundImageFix"/>
<feColorMatrix in="SourceAlpha" type="matrix" values="0 0 0 0 0 0 0 0 0 0 0 0 0 0 0 0 0 0 127 0" result="hardAlpha"/>
<feOffset dy="4.27656"/>
<feGaussianBlur stdDeviation="2.13828"/>
<feComposite in2="hardAlpha" operator="out"/>
<feColorMatrix type="matrix" values="0 0 0 0 0 0 0 0 0 0 0 0 0 0 0 0 0 0 0.25 0"/>
<feBlend mode="normal" in2="BackgroundImageFix" result="effect1_dropShadow_1653_25752"/>
<feBlend mode="normal" in="SourceGraphic" in2="effect1_dropShadow_1653_25752" result="shape"/>
</filter>
<filter id="filter2_d_1653_25752" x="237.403" y="240.41" width="125.766" height="48.6593" filterUnits="userSpaceOnUse" color-interpolation-filters="sRGB">
<feFlood flood-opacity="0" result="BackgroundImageFix"/>
<feColorMatrix in="SourceAlpha" type="matrix" values="0 0 0 0 0 0 0 0 0 0 0 0 0 0 0 0 0 0 127 0" result="hardAlpha"/>
<feOffset dy="4.27656"/>
<feGaussianBlur stdDeviation="2.13828"/>
<feComposite in2="hardAlpha" operator="out"/>
<feColorMatrix type="matrix" values="0 0 0 0 0 0 0 0 0 0 0 0 0 0 0 0 0 0 0.25 0"/>
<feBlend mode="normal" in2="BackgroundImageFix" result="effect1_dropShadow_1653_25752"/>
<feBlend mode="normal" in="SourceGraphic" in2="effect1_dropShadow_1653_25752" result="shape"/>
</filter>
<filter id="filter3_d_1653_25752" x="383.082" y="240.41" width="88.7655" height="48.6593" filterUnits="userSpaceOnUse" color-interpolation-filters="sRGB">
<feFlood flood-opacity="0" result="BackgroundImageFix"/>
<feColorMatrix in="SourceAlpha" type="matrix" values="0 0 0 0 0 0 0 0 0 0 0 0 0 0 0 0 0 0 127 0" result="hardAlpha"/>
<feOffset dy="4.27656"/>
<feGaussianBlur stdDeviation="2.13828"/>
<feComposite in2="hardAlpha" operator="out"/>
<feColorMatrix type="matrix" values="0 0 0 0 0 0 0 0 0 0 0 0 0 0 0 0 0 0 0.25 0"/>
<feBlend mode="normal" in2="BackgroundImageFix" result="effect1_dropShadow_1653_25752"/>
<feBlend mode="normal" in="SourceGraphic" in2="effect1_dropShadow_1653_25752" result="shape"/>
</filter>
<filter id="filter4_d_1653_25752" x="151.051" y="309.705" width="130.766" height="48.6593" filterUnits="userSpaceOnUse" color-interpolation-filters="sRGB">
<feFlood flood-opacity="0" result="BackgroundImageFix"/>
<feColorMatrix in="SourceAlpha" type="matrix" values="0 0 0 0 0 0 0 0 0 0 0 0 0 0 0 0 0 0 127 0" result="hardAlpha"/>
<feOffset dy="4.27656"/>
<feGaussianBlur stdDeviation="2.13828"/>
<feComposite in2="hardAlpha" operator="out"/>
<feColorMatrix type="matrix" values="0 0 0 0 0 0 0 0 0 0 0 0 0 0 0 0 0 0 0.25 0"/>
<feBlend mode="normal" in2="BackgroundImageFix" result="effect1_dropShadow_1653_25752"/>
<feBlend mode="normal" in="SourceGraphic" in2="effect1_dropShadow_1653_25752" result="shape"/>
</filter>
<filter id="filter5_d_1653_25752" x="301.73" y="309.705" width="153.766" height="48.6593" filterUnits="userSpaceOnUse" color-interpolation-filters="sRGB">
<feFlood flood-opacity="0" result="BackgroundImageFix"/>
<feColorMatrix in="SourceAlpha" type="matrix" values="0 0 0 0 0 0 0 0 0 0 0 0 0 0 0 0 0 0 127 0" result="hardAlpha"/>
<feOffset dy="4.27656"/>
<feGaussianBlur stdDeviation="2.13828"/>
<feComposite in2="hardAlpha" operator="out"/>
<feColorMatrix type="matrix" values="0 0 0 0 0 0 0 0 0 0 0 0 0 0 0 0 0 0 0.25 0"/>
<feBlend mode="normal" in2="BackgroundImageFix" result="effect1_dropShadow_1653_25752"/>
<feBlend mode="normal" in="SourceGraphic" in2="effect1_dropShadow_1653_25752" result="shape"/>
</filter>
<filter id="filter6_d_1653_25752" x="210.449" y="379.186" width="170.766" height="48.6593" filterUnits="userSpaceOnUse" color-interpolation-filters="sRGB">
<feFlood flood-opacity="0" result="BackgroundImageFix"/>
<feColorMatrix in="SourceAlpha" type="matrix" values="0 0 0 0 0 0 0 0 0 0 0 0 0 0 0 0 0 0 127 0" result="hardAlpha"/>
<feOffset dy="4.27656"/>
<feGaussianBlur stdDeviation="2.13828"/>
<feComposite in2="hardAlpha" operator="out"/>
<feColorMatrix type="matrix" values="0 0 0 0 0 0 0 0 0 0 0 0 0 0 0 0 0 0 0.25 0"/>
<feBlend mode="normal" in2="BackgroundImageFix" result="effect1_dropShadow_1653_25752"/>
<feBlend mode="normal" in="SourceGraphic" in2="effect1_dropShadow_1653_25752" result="shape"/>
</filter>
</defs>
</svg>
