<svg width="611" height="458" viewBox="0 0 611 458" fill="none" xmlns="http://www.w3.org/2000/svg">
<rect width="611" height="458" fill="#F0F7FD"/>
<path d="M450.433 75.4167C413.403 75.4167 383.417 105.47 383.417 142.5C383.417 179.53 413.403 209.583 450.433 209.583C487.53 209.583 517.583 179.53 517.583 142.5C517.583 105.47 487.53 75.4167 450.433 75.4167ZM450.5 196.167C420.849 196.167 396.833 172.151 396.833 142.5C396.833 112.849 420.849 88.8334 450.5 88.8334C480.151 88.8334 504.167 112.849 504.167 142.5C504.167 172.151 480.151 196.167 450.5 196.167ZM453.854 108.958H443.792V149.208L479.01 170.34L484.042 162.088L453.854 144.177V108.958Z" fill="#DBEAF6"/>
<g filter="url(#filter0_ddd_1653_25750)">
<rect x="81" y="265" width="250" height="110" rx="8" fill="white"/>
<path d="M112 299.333L111.992 294.333L108.667 291L111.992 287.658L112 282.667H102V287.667L105.333 291L102 294.325V299.333H112ZM103.667 287.25V284.333H110.333V287.25L107 290.583L103.667 287.25Z" fill="#5D6164"/>
<path d="M129.415 296H126.119V285.818H129.519C130.517 285.818 131.374 286.022 132.089 286.43C132.805 286.834 133.354 287.416 133.735 288.175C134.12 288.93 134.312 289.837 134.312 290.894C134.312 291.955 134.118 292.866 133.73 293.629C133.346 294.391 132.789 294.978 132.06 295.388C131.33 295.796 130.449 296 129.415 296ZM127.655 294.658H129.33C130.106 294.658 130.75 294.512 131.264 294.22C131.778 293.925 132.162 293.499 132.418 292.942C132.673 292.382 132.8 291.7 132.8 290.894C132.8 290.095 132.673 289.418 132.418 288.861C132.166 288.304 131.79 287.881 131.289 287.593C130.789 287.305 130.167 287.161 129.425 287.161H127.655V294.658ZM139.394 296.154C138.642 296.154 137.994 295.993 137.45 295.672C136.91 295.347 136.492 294.891 136.197 294.305C135.906 293.715 135.76 293.024 135.76 292.232C135.76 291.449 135.906 290.76 136.197 290.163C136.492 289.567 136.903 289.101 137.43 288.766C137.961 288.432 138.58 288.264 139.29 288.264C139.72 288.264 140.138 288.335 140.542 288.478C140.947 288.621 141.31 288.844 141.631 289.149C141.953 289.454 142.206 289.85 142.392 290.337C142.577 290.821 142.67 291.41 142.67 292.102V292.629H136.6V291.516H141.214C141.214 291.125 141.134 290.778 140.975 290.477C140.816 290.172 140.592 289.931 140.304 289.756C140.019 289.58 139.684 289.492 139.3 289.492C138.882 289.492 138.517 289.595 138.206 289.8C137.898 290.003 137.659 290.268 137.49 290.596C137.324 290.921 137.241 291.274 137.241 291.655V292.525C137.241 293.035 137.331 293.469 137.51 293.827C137.692 294.185 137.946 294.459 138.27 294.648C138.595 294.833 138.975 294.926 139.409 294.926C139.691 294.926 139.948 294.886 140.18 294.807C140.412 294.724 140.612 294.601 140.781 294.439C140.95 294.277 141.079 294.076 141.169 293.837L142.576 294.091C142.463 294.505 142.261 294.868 141.969 295.18C141.681 295.488 141.318 295.728 140.881 295.901C140.446 296.07 139.951 296.154 139.394 296.154ZM145.806 285.818V296H144.32V285.818H145.806ZM150.028 296.169C149.544 296.169 149.107 296.08 148.716 295.901C148.325 295.718 148.015 295.455 147.786 295.11C147.561 294.765 147.448 294.343 147.448 293.842C147.448 293.411 147.531 293.057 147.697 292.778C147.862 292.5 148.086 292.28 148.368 292.117C148.649 291.955 148.964 291.832 149.312 291.749C149.66 291.666 150.015 291.603 150.376 291.56C150.834 291.507 151.205 291.464 151.49 291.431C151.775 291.395 151.982 291.337 152.111 291.257C152.241 291.178 152.305 291.048 152.305 290.869V290.835C152.305 290.4 152.183 290.064 151.937 289.825C151.695 289.587 151.334 289.467 150.854 289.467C150.353 289.467 149.959 289.578 149.67 289.8C149.385 290.019 149.188 290.263 149.079 290.531L147.682 290.213C147.847 289.749 148.089 289.375 148.407 289.089C148.729 288.801 149.099 288.592 149.516 288.463C149.934 288.33 150.373 288.264 150.834 288.264C151.139 288.264 151.462 288.301 151.803 288.374C152.148 288.443 152.469 288.572 152.768 288.761C153.069 288.95 153.316 289.22 153.508 289.572C153.701 289.92 153.797 290.372 153.797 290.929V296H152.345V294.956H152.285C152.189 295.148 152.045 295.337 151.853 295.523C151.661 295.708 151.414 295.862 151.112 295.985C150.81 296.108 150.449 296.169 150.028 296.169ZM150.351 294.976C150.762 294.976 151.114 294.895 151.405 294.732C151.7 294.57 151.924 294.358 152.077 294.096C152.232 293.831 152.31 293.547 152.31 293.246V292.261C152.257 292.314 152.154 292.364 152.002 292.411C151.853 292.454 151.682 292.492 151.49 292.525C151.298 292.555 151.11 292.583 150.928 292.609C150.746 292.633 150.593 292.652 150.471 292.669C150.182 292.705 149.919 292.767 149.68 292.853C149.445 292.939 149.256 293.063 149.113 293.226C148.974 293.385 148.905 293.597 148.905 293.862C148.905 294.23 149.041 294.509 149.312 294.697C149.584 294.883 149.93 294.976 150.351 294.976ZM156.443 298.864C156.221 298.864 156.019 298.845 155.836 298.809C155.654 298.776 155.518 298.739 155.429 298.7L155.787 297.482C156.058 297.554 156.3 297.586 156.512 297.576C156.725 297.566 156.912 297.487 157.074 297.337C157.24 297.188 157.386 296.945 157.512 296.607L157.696 296.099L154.902 288.364H156.493L158.426 294.29H158.506L160.44 288.364H162.036L158.889 297.019C158.743 297.417 158.557 297.753 158.332 298.028C158.107 298.307 157.838 298.516 157.527 298.655C157.215 298.794 156.854 298.864 156.443 298.864ZM167.779 296V297.263H161.311V296H167.779ZM171.09 285.818V296H169.549V287.359H169.49L167.053 288.95V287.479L169.594 285.818H171.09Z" fill="#3F4346"/>
<circle cx="206" cy="265" r="10" fill="#1157A6"/>
<path d="M331 308H81V310H331V308Z" fill="#D5D9DC" mask="url(#path-3-inside-1_1653_25750)"/>
<path d="M100.784 329H97.9588V320.273H100.874C101.729 320.273 102.463 320.447 103.077 320.797C103.69 321.143 104.161 321.642 104.487 322.293C104.817 322.94 104.982 323.717 104.982 324.624C104.982 325.533 104.815 326.314 104.483 326.967C104.153 327.621 103.676 328.124 103.051 328.476C102.426 328.825 101.67 329 100.784 329ZM99.2756 327.849H100.712C101.376 327.849 101.929 327.724 102.369 327.474C102.81 327.222 103.139 326.857 103.358 326.379C103.577 325.899 103.686 325.314 103.686 324.624C103.686 323.939 103.577 323.358 103.358 322.881C103.142 322.403 102.82 322.041 102.391 321.794C101.962 321.547 101.429 321.423 100.793 321.423H99.2756V327.849ZM109.338 329.132C108.693 329.132 108.137 328.994 107.672 328.719C107.208 328.44 106.85 328.05 106.598 327.547C106.348 327.041 106.223 326.449 106.223 325.77C106.223 325.099 106.348 324.509 106.598 323.997C106.85 323.486 107.203 323.087 107.654 322.8C108.109 322.513 108.64 322.369 109.248 322.369C109.618 322.369 109.975 322.43 110.322 322.553C110.669 322.675 110.98 322.866 111.255 323.128C111.531 323.389 111.748 323.729 111.907 324.146C112.066 324.561 112.146 325.065 112.146 325.659V326.111H106.943V325.156H110.897C110.897 324.821 110.829 324.524 110.693 324.266C110.556 324.004 110.365 323.798 110.118 323.648C109.873 323.497 109.586 323.422 109.257 323.422C108.899 323.422 108.586 323.51 108.319 323.686C108.055 323.859 107.85 324.087 107.706 324.368C107.564 324.646 107.493 324.949 107.493 325.276V326.021C107.493 326.459 107.569 326.831 107.723 327.138C107.879 327.445 108.096 327.679 108.375 327.841C108.653 328 108.978 328.08 109.35 328.08C109.592 328.08 109.812 328.045 110.011 327.977C110.21 327.906 110.382 327.801 110.527 327.662C110.672 327.523 110.782 327.351 110.859 327.146L112.065 327.364C111.968 327.719 111.795 328.03 111.545 328.297C111.298 328.561 110.987 328.767 110.612 328.915C110.24 329.06 109.815 329.132 109.338 329.132ZM114.834 320.273V329H113.56V320.273H114.834ZM118.453 329.145C118.038 329.145 117.663 329.068 117.328 328.915C116.993 328.759 116.727 328.533 116.531 328.237C116.338 327.942 116.241 327.58 116.241 327.151C116.241 326.781 116.312 326.477 116.454 326.239C116.596 326 116.788 325.811 117.029 325.672C117.271 325.533 117.541 325.428 117.839 325.357C118.137 325.286 118.441 325.232 118.751 325.195C119.143 325.149 119.461 325.112 119.706 325.084C119.95 325.053 120.127 325.003 120.238 324.935C120.349 324.866 120.404 324.756 120.404 324.602V324.572C120.404 324.2 120.299 323.912 120.089 323.707C119.882 323.503 119.572 323.401 119.16 323.401C118.731 323.401 118.393 323.496 118.146 323.686C117.902 323.874 117.733 324.082 117.639 324.312L116.441 324.04C116.583 323.642 116.791 323.321 117.064 323.077C117.339 322.83 117.656 322.651 118.014 322.54C118.372 322.426 118.748 322.369 119.143 322.369C119.404 322.369 119.681 322.401 119.974 322.463C120.27 322.523 120.545 322.634 120.801 322.795C121.059 322.957 121.271 323.189 121.436 323.49C121.6 323.788 121.683 324.176 121.683 324.653V329H120.439V328.105H120.387C120.305 328.27 120.181 328.432 120.017 328.591C119.852 328.75 119.64 328.882 119.382 328.987C119.123 329.092 118.814 329.145 118.453 329.145ZM118.73 328.122C119.082 328.122 119.383 328.053 119.633 327.913C119.886 327.774 120.078 327.592 120.208 327.368C120.342 327.141 120.409 326.898 120.409 326.639V325.795C120.363 325.841 120.275 325.884 120.145 325.923C120.017 325.96 119.87 325.993 119.706 326.021C119.541 326.047 119.38 326.071 119.224 326.094C119.068 326.114 118.937 326.131 118.832 326.145C118.585 326.176 118.359 326.229 118.154 326.303C117.953 326.376 117.791 326.483 117.669 326.622C117.549 326.759 117.49 326.94 117.49 327.168C117.49 327.483 117.606 327.722 117.839 327.884C118.072 328.043 118.369 328.122 118.73 328.122ZM123.951 331.455C123.761 331.455 123.587 331.439 123.431 331.408C123.275 331.379 123.158 331.348 123.082 331.314L123.388 330.27C123.621 330.332 123.829 330.359 124.011 330.351C124.192 330.342 124.353 330.274 124.492 330.146C124.634 330.018 124.759 329.81 124.867 329.52L125.025 329.085L122.63 322.455H123.994L125.651 327.534H125.719L127.377 322.455H128.745L126.048 329.874C125.923 330.214 125.763 330.503 125.57 330.739C125.377 330.977 125.147 331.156 124.88 331.276C124.613 331.395 124.303 331.455 123.951 331.455ZM135.875 329.132C135.262 329.132 134.726 328.991 134.269 328.71C133.811 328.429 133.456 328.036 133.203 327.53C132.951 327.024 132.824 326.433 132.824 325.757C132.824 325.078 132.951 324.484 133.203 323.976C133.456 323.467 133.811 323.072 134.269 322.791C134.726 322.51 135.262 322.369 135.875 322.369C136.489 322.369 137.025 322.51 137.482 322.791C137.939 323.072 138.294 323.467 138.547 323.976C138.8 324.484 138.926 325.078 138.926 325.757C138.926 326.433 138.8 327.024 138.547 327.53C138.294 328.036 137.939 328.429 137.482 328.71C137.025 328.991 136.489 329.132 135.875 329.132ZM135.88 328.062C136.277 328.062 136.607 327.957 136.868 327.747C137.13 327.537 137.323 327.257 137.448 326.908C137.576 326.558 137.64 326.173 137.64 325.753C137.64 325.335 137.576 324.952 137.448 324.602C137.323 324.25 137.13 323.967 136.868 323.754C136.607 323.541 136.277 323.435 135.88 323.435C135.479 323.435 135.147 323.541 134.882 323.754C134.621 323.967 134.426 324.25 134.299 324.602C134.174 324.952 134.111 325.335 134.111 325.753C134.111 326.173 134.174 326.558 134.299 326.908C134.426 327.257 134.621 327.537 134.882 327.747C135.147 327.957 135.479 328.062 135.88 328.062ZM143.464 322.455V323.477H139.765V322.455H143.464ZM140.779 329V321.696C140.779 321.287 140.869 320.947 141.048 320.678C141.227 320.405 141.464 320.202 141.759 320.068C142.055 319.932 142.376 319.864 142.722 319.864C142.978 319.864 143.197 319.885 143.379 319.928C143.56 319.967 143.695 320.004 143.783 320.038L143.485 321.07C143.425 321.053 143.349 321.033 143.255 321.01C143.161 320.984 143.048 320.972 142.914 320.972C142.604 320.972 142.383 321.048 142.249 321.202C142.119 321.355 142.053 321.577 142.053 321.866V329H140.779ZM151.113 329V328.045L154.066 324.986C154.381 324.653 154.641 324.362 154.846 324.112C155.053 323.859 155.208 323.619 155.31 323.392C155.413 323.165 155.464 322.923 155.464 322.668C155.464 322.378 155.396 322.128 155.259 321.918C155.123 321.705 154.937 321.541 154.701 321.428C154.465 321.311 154.2 321.253 153.904 321.253C153.592 321.253 153.319 321.317 153.086 321.445C152.853 321.572 152.674 321.753 152.549 321.986C152.424 322.219 152.362 322.491 152.362 322.804H151.104C151.104 322.273 151.227 321.808 151.471 321.411C151.715 321.013 152.05 320.705 152.477 320.486C152.903 320.264 153.387 320.153 153.93 320.153C154.478 320.153 154.961 320.263 155.379 320.482C155.799 320.697 156.127 320.993 156.363 321.368C156.599 321.74 156.717 322.161 156.717 322.629C156.717 322.953 156.656 323.27 156.533 323.58C156.414 323.889 156.205 324.234 155.907 324.615C155.609 324.993 155.194 325.452 154.663 325.991L152.928 327.807V327.871H156.857V329H151.113ZM166.115 325.114V329H164.841V320.273H166.098V323.52H166.179C166.332 323.168 166.567 322.888 166.882 322.68C167.197 322.473 167.609 322.369 168.118 322.369C168.567 322.369 168.959 322.462 169.294 322.646C169.632 322.831 169.893 323.107 170.078 323.473C170.266 323.837 170.359 324.291 170.359 324.837V329H169.085V324.99C169.085 324.51 168.962 324.138 168.714 323.874C168.467 323.607 168.124 323.473 167.683 323.473C167.382 323.473 167.112 323.537 166.874 323.665C166.638 323.793 166.452 323.98 166.315 324.227C166.182 324.472 166.115 324.767 166.115 325.114ZM174.817 329.132C174.203 329.132 173.668 328.991 173.21 328.71C172.753 328.429 172.398 328.036 172.145 327.53C171.892 327.024 171.766 326.433 171.766 325.757C171.766 325.078 171.892 324.484 172.145 323.976C172.398 323.467 172.753 323.072 173.21 322.791C173.668 322.51 174.203 322.369 174.817 322.369C175.43 322.369 175.966 322.51 176.423 322.791C176.881 323.072 177.236 323.467 177.489 323.976C177.741 324.484 177.868 325.078 177.868 325.757C177.868 326.433 177.741 327.024 177.489 327.53C177.236 328.036 176.881 328.429 176.423 328.71C175.966 328.991 175.43 329.132 174.817 329.132ZM174.821 328.062C175.219 328.062 175.548 327.957 175.81 327.747C176.071 327.537 176.264 327.257 176.389 326.908C176.517 326.558 176.581 326.173 176.581 325.753C176.581 325.335 176.517 324.952 176.389 324.602C176.264 324.25 176.071 323.967 175.81 323.754C175.548 323.541 175.219 323.435 174.821 323.435C174.42 323.435 174.088 323.541 173.824 323.754C173.563 323.967 173.368 324.25 173.24 324.602C173.115 324.952 173.053 325.335 173.053 325.753C173.053 326.173 173.115 326.558 173.24 326.908C173.368 327.257 173.563 327.537 173.824 327.747C174.088 327.957 174.42 328.062 174.821 328.062ZM183.436 326.286V322.455H184.715V329H183.462V327.866H183.394C183.243 328.216 183.002 328.507 182.669 328.74C182.34 328.97 181.929 329.085 181.438 329.085C181.017 329.085 180.645 328.993 180.321 328.808C180 328.621 179.748 328.344 179.563 327.977C179.381 327.611 179.29 327.158 179.29 326.618V322.455H180.564V326.464C180.564 326.911 180.688 327.266 180.935 327.53C181.182 327.794 181.503 327.926 181.898 327.926C182.137 327.926 182.374 327.866 182.61 327.747C182.848 327.628 183.046 327.447 183.202 327.206C183.361 326.964 183.439 326.658 183.436 326.286ZM186.427 329V322.455H187.658V323.494H187.727C187.846 323.142 188.056 322.865 188.357 322.663C188.661 322.459 189.005 322.357 189.388 322.357C189.468 322.357 189.562 322.359 189.67 322.365C189.781 322.371 189.867 322.378 189.93 322.386V323.605C189.879 323.591 189.788 323.575 189.657 323.558C189.526 323.538 189.396 323.528 189.265 323.528C188.964 323.528 188.695 323.592 188.46 323.72C188.227 323.845 188.042 324.02 187.906 324.244C187.769 324.466 187.701 324.719 187.701 325.003V329H186.427Z" fill="#3F4346"/>
<circle cx="109" cy="375" r="10" fill="#1157A6"/>
<path d="M113.667 375.667H109.667V379.667H108.333V375.667H104.333V374.333H108.333V370.333H109.667V374.333H113.667V375.667Z" fill="white"/>
<path d="M103.119 354.025C103.051 353.809 102.958 353.616 102.842 353.446C102.729 353.273 102.593 353.126 102.434 353.006C102.275 352.883 102.094 352.789 101.891 352.725C101.689 352.661 101.468 352.629 101.227 352.629C100.817 352.629 100.448 352.735 100.119 352.945C99.7895 353.156 99.5291 353.465 99.3374 353.872C99.148 354.277 99.0533 354.773 99.0533 355.36C99.0533 355.95 99.1491 356.448 99.3409 356.855C99.5327 357.262 99.7955 357.571 100.129 357.782C100.463 357.993 100.843 358.098 101.269 358.098C101.665 358.098 102.009 358.018 102.303 357.857C102.598 357.696 102.827 357.468 102.988 357.175C103.151 356.879 103.233 356.531 103.233 356.131L103.517 356.184H101.436V355.278H104.295V356.106C104.295 356.717 104.165 357.247 103.904 357.697C103.646 358.144 103.289 358.49 102.832 358.734C102.377 358.978 101.856 359.099 101.269 359.099C100.611 359.099 100.033 358.948 99.5362 358.645C99.0414 358.342 98.6555 357.912 98.3786 357.356C98.1016 356.797 97.9631 356.134 97.9631 355.367C97.9631 354.787 98.0436 354.266 98.2045 353.805C98.3655 353.343 98.5916 352.951 98.8828 352.629C99.1764 352.305 99.5208 352.058 99.9162 351.887C100.314 351.714 100.748 351.628 101.219 351.628C101.612 351.628 101.978 351.686 102.317 351.802C102.658 351.918 102.961 352.082 103.226 352.295C103.493 352.509 103.715 352.762 103.89 353.055C104.065 353.347 104.183 353.67 104.245 354.025H103.119ZM107.9 359.11C107.389 359.11 106.942 358.993 106.561 358.759C106.18 358.524 105.884 358.196 105.673 357.775C105.463 357.353 105.357 356.861 105.357 356.298C105.357 355.732 105.463 355.237 105.673 354.813C105.884 354.389 106.18 354.06 106.561 353.826C106.942 353.592 107.389 353.474 107.9 353.474C108.411 353.474 108.858 353.592 109.239 353.826C109.62 354.06 109.916 354.389 110.127 354.813C110.337 355.237 110.443 355.732 110.443 356.298C110.443 356.861 110.337 357.353 110.127 357.775C109.916 358.196 109.62 358.524 109.239 358.759C108.858 358.993 108.411 359.11 107.9 359.11ZM107.904 358.219C108.235 358.219 108.51 358.131 108.727 357.956C108.945 357.781 109.106 357.548 109.21 357.256C109.317 356.965 109.37 356.644 109.37 356.294C109.37 355.946 109.317 355.626 109.21 355.335C109.106 355.042 108.945 354.806 108.727 354.629C108.51 354.451 108.235 354.362 107.904 354.362C107.57 354.362 107.293 354.451 107.073 354.629C106.855 354.806 106.693 355.042 106.586 355.335C106.482 355.626 106.43 355.946 106.43 356.294C106.43 356.644 106.482 356.965 106.586 357.256C106.693 357.548 106.855 357.781 107.073 357.956C107.293 358.131 107.57 358.219 107.904 358.219ZM114.174 353.545V354.398H111.195V353.545H114.174ZM111.994 352.239H113.055V357.398C113.055 357.604 113.086 357.759 113.148 357.864C113.209 357.965 113.289 358.035 113.386 358.073C113.485 358.109 113.593 358.126 113.709 358.126C113.794 358.126 113.869 358.121 113.933 358.109C113.996 358.097 114.046 358.087 114.082 358.08L114.273 358.957C114.212 358.981 114.124 359.005 114.011 359.028C113.897 359.054 113.755 359.069 113.585 359.071C113.305 359.076 113.045 359.026 112.803 358.922C112.562 358.818 112.366 358.657 112.217 358.439C112.068 358.221 111.994 357.948 111.994 357.619V352.239ZM117.588 359.11C117.076 359.11 116.63 358.993 116.249 358.759C115.868 358.524 115.572 358.196 115.361 357.775C115.15 357.353 115.045 356.861 115.045 356.298C115.045 355.732 115.15 355.237 115.361 354.813C115.572 354.389 115.868 354.06 116.249 353.826C116.63 353.592 117.076 353.474 117.588 353.474C118.099 353.474 118.545 353.592 118.926 353.826C119.307 354.06 119.603 354.389 119.814 354.813C120.025 355.237 120.13 355.732 120.13 356.298C120.13 356.861 120.025 357.353 119.814 357.775C119.603 358.196 119.307 358.524 118.926 358.759C118.545 358.993 118.099 359.11 117.588 359.11ZM117.591 358.219C117.923 358.219 118.197 358.131 118.415 357.956C118.633 357.781 118.794 357.548 118.898 357.256C119.004 356.965 119.058 356.644 119.058 356.294C119.058 355.946 119.004 355.626 118.898 355.335C118.794 355.042 118.633 354.806 118.415 354.629C118.197 354.451 117.923 354.362 117.591 354.362C117.257 354.362 116.98 354.451 116.76 354.629C116.542 354.806 116.38 355.042 116.274 355.335C116.169 355.626 116.117 355.946 116.117 356.294C116.117 356.644 116.169 356.965 116.274 357.256C116.38 357.548 116.542 357.781 116.76 357.956C116.98 358.131 117.257 358.219 117.591 358.219Z" fill="#3F4346"/>
</g>
<g filter="url(#filter1_ddd_1653_25750)">
<rect x="47" y="87" width="184.991" height="81.3957" rx="5.91969" fill="white"/>
<path d="M60.0728 103.344C60.0728 102.615 60.6249 102.023 61.306 102.023H71.1722C71.8533 102.023 72.4054 102.615 72.4054 103.344V109.951C72.4054 110.681 71.8533 111.272 71.1722 111.272H61.306C60.6249 111.272 60.0728 110.681 60.0728 109.951V103.344Z" fill="#8C2E0E"/>
<path d="M60.0728 102.732C60.0728 102 60.5846 101.406 61.2161 101.406H71.2621C71.8936 101.406 72.4054 102 72.4054 102.732C72.4054 103.234 72.1608 103.693 71.7734 103.917L66.7906 106.805C66.4434 107.006 66.0348 107.006 65.6876 106.805L60.7048 103.917C60.3174 103.693 60.0728 103.234 60.0728 102.732Z" fill="#CC5229"/>
<path d="M80.3861 109.839V102.305H85.1096V103.284H81.5228V105.579H84.8632V106.554H81.5228V108.861H85.1538V109.839H80.3861ZM86.5398 109.839V104.189H87.5956V105.108H87.6655C87.7832 104.797 87.9757 104.554 88.243 104.38C88.5104 104.203 88.8304 104.115 89.2032 104.115C89.5809 104.115 89.8973 104.203 90.1523 104.38C90.4099 104.557 90.5999 104.799 90.7225 105.108H90.7814C90.9163 104.807 91.1309 104.566 91.4252 104.387C91.7195 104.206 92.0702 104.115 92.4773 104.115C92.9899 104.115 93.4081 104.276 93.7318 104.597C94.058 104.918 94.2211 105.403 94.2211 106.05V109.839H93.1211V106.153C93.1211 105.771 93.0169 105.493 92.8084 105.322C92.6 105.15 92.351 105.064 92.0616 105.064C91.7036 105.064 91.4252 105.175 91.2265 105.395C91.0279 105.614 90.9286 105.894 90.9286 106.238V109.839H89.8323V106.083C89.8323 105.777 89.7366 105.53 89.5453 105.344C89.354 105.157 89.1051 105.064 88.7985 105.064C88.5901 105.064 88.3976 105.119 88.221 105.23C88.0468 105.338 87.9058 105.489 87.7979 105.682C87.6925 105.876 87.6397 106.1 87.6397 106.356V109.839H86.5398ZM97.3398 109.964C96.9817 109.964 96.658 109.898 96.3686 109.766C96.0792 109.631 95.8499 109.436 95.6806 109.181C95.5139 108.926 95.4305 108.613 95.4305 108.243C95.4305 107.924 95.4918 107.662 95.6144 107.456C95.737 107.249 95.9026 107.086 96.1111 106.966C96.3195 106.846 96.5525 106.755 96.81 106.694C97.0675 106.633 97.33 106.586 97.5973 106.554C97.9357 106.515 98.2104 106.483 98.4213 106.459C98.6322 106.432 98.7855 106.389 98.8812 106.33C98.9768 106.271 99.0246 106.175 99.0246 106.043V106.017C99.0246 105.696 98.9339 105.447 98.7524 105.27C98.5734 105.094 98.3061 105.005 97.9504 105.005C97.5801 105.005 97.2883 105.088 97.0749 105.252C96.864 105.414 96.7181 105.594 96.6371 105.793L95.6034 105.557C95.726 105.214 95.905 104.937 96.1405 104.726C96.3784 104.512 96.6518 104.358 96.9609 104.262C97.2699 104.164 97.5948 104.115 97.9357 104.115C98.1614 104.115 98.4005 104.142 98.6531 104.196C98.9082 104.248 99.146 104.343 99.3668 104.483C99.59 104.623 99.7727 104.823 99.9149 105.083C100.057 105.34 100.128 105.675 100.128 106.087V109.839H99.0541V109.067H99.0099C98.9388 109.209 98.8321 109.349 98.6899 109.486C98.5476 109.624 98.3649 109.738 98.1417 109.828C97.9186 109.919 97.6512 109.964 97.3398 109.964ZM97.5789 109.082C97.883 109.082 98.143 109.021 98.3588 108.901C98.5771 108.781 98.7426 108.624 98.8554 108.43C98.9707 108.234 99.0283 108.024 99.0283 107.801V107.073C98.9891 107.112 98.9131 107.149 98.8002 107.183C98.6899 107.215 98.5636 107.243 98.4213 107.268C98.2791 107.29 98.1405 107.311 98.0056 107.33C97.8707 107.348 97.7579 107.362 97.6672 107.375C97.4538 107.402 97.2588 107.447 97.0823 107.511C96.9081 107.574 96.7683 107.666 96.6629 107.787C96.5599 107.904 96.5084 108.061 96.5084 108.257C96.5084 108.53 96.6089 108.736 96.81 108.876C97.0111 109.013 97.2674 109.082 97.5789 109.082ZM101.593 109.839V104.189H102.693V109.839H101.593ZM102.149 103.317C101.958 103.317 101.793 103.253 101.656 103.126C101.521 102.996 101.454 102.841 101.454 102.662C101.454 102.481 101.521 102.326 101.656 102.199C101.793 102.069 101.958 102.004 102.149 102.004C102.34 102.004 102.503 102.069 102.638 102.199C102.775 102.326 102.844 102.481 102.844 102.662C102.844 102.841 102.775 102.996 102.638 103.126C102.503 103.253 102.34 103.317 102.149 103.317ZM105.273 102.305V109.839H104.173V102.305H105.273ZM111.143 109.839V110.774H106.356V109.839H111.143ZM113.593 102.305V109.839H112.452V103.446H112.408L110.605 104.623V103.534L112.485 102.305H113.593Z" fill="#3F4346"/>
<path d="M231.991 119.019H47V120.499H231.991V119.019Z" fill="#D5D9DC" mask="url(#path-13-inside-2_1653_25750)"/>
<ellipse cx="73.6386" cy="168.396" rx="7.39962" ry="7.39961" fill="#1157A6"/>
<path d="M77.0919 168.889H74.132V171.849H73.1454V168.889H70.1855V167.902H73.1454V164.943H74.132V167.902H77.0919V168.889Z" fill="white"/>
<path d="M62.4473 152.189C62.4192 151.94 62.3036 151.747 62.1004 151.611C61.8972 151.472 61.6414 151.403 61.3331 151.403C61.1124 151.403 60.9214 151.438 60.7603 151.508C60.5991 151.577 60.4739 151.671 60.3845 151.792C60.2969 151.911 60.2531 152.047 60.2531 152.199C60.2531 152.327 60.2829 152.438 60.3425 152.531C60.4038 152.623 60.4835 152.701 60.5816 152.764C60.6815 152.826 60.7883 152.877 60.9022 152.919C61.016 152.96 61.1255 152.993 61.2306 153.019L61.7562 153.156C61.9279 153.198 62.1039 153.255 62.2844 153.327C62.4648 153.399 62.6321 153.493 62.7862 153.61C62.9404 153.728 63.0648 153.873 63.1594 154.047C63.2557 154.22 63.3039 154.428 63.3039 154.669C63.3039 154.974 63.2251 155.245 63.0674 155.481C62.9115 155.718 62.6846 155.904 62.3868 156.041C62.0908 156.178 61.7325 156.246 61.3121 156.246C60.9092 156.246 60.5606 156.182 60.2663 156.054C59.972 155.926 59.7416 155.745 59.5752 155.51C59.4088 155.274 59.3168 154.994 59.2993 154.669H60.1139C60.1296 154.864 60.1927 155.026 60.3031 155.156C60.4152 155.283 60.5579 155.379 60.7314 155.442C60.9066 155.503 61.0984 155.534 61.3068 155.534C61.5363 155.534 61.7404 155.498 61.9191 155.426C62.0995 155.353 62.2414 155.251 62.3448 155.121C62.4481 154.99 62.4998 154.837 62.4998 154.662C62.4998 154.502 62.4543 154.372 62.3632 154.27C62.2738 154.168 62.1521 154.084 61.9979 154.018C61.8455 153.951 61.673 153.893 61.4803 153.842L60.8444 153.668C60.4134 153.551 60.0718 153.378 59.8196 153.151C59.5691 152.923 59.4438 152.622 59.4438 152.247C59.4438 151.937 59.5279 151.666 59.6961 151.435C59.8642 151.204 60.092 151.024 60.3793 150.896C60.6666 150.766 60.9906 150.702 61.3515 150.702C61.7159 150.702 62.0373 150.766 62.3159 150.893C62.5962 151.021 62.8169 151.197 62.9781 151.422C63.1392 151.644 63.2233 151.9 63.2303 152.189H62.4473ZM66.7679 154.483V152.121H67.5562V156.157H66.7836V155.458H66.7416C66.6487 155.673 66.4998 155.853 66.2949 155.996C66.0917 156.138 65.8385 156.209 65.5355 156.209C65.2762 156.209 65.0467 156.152 64.847 156.038C64.6491 155.923 64.4932 155.752 64.3793 155.526C64.2672 155.3 64.2111 155.021 64.2111 154.688V152.121H64.9968V154.593C64.9968 154.868 65.073 155.087 65.2254 155.25C65.3778 155.413 65.5758 155.495 65.8193 155.495C65.9664 155.495 66.1127 155.458 66.2581 155.384C66.4052 155.311 66.527 155.199 66.6233 155.05C66.7214 154.902 66.7696 154.712 66.7679 154.483ZM70.312 156.238C69.9213 156.238 69.585 156.15 69.303 155.973C69.0227 155.794 68.8072 155.548 68.6565 155.234C68.5059 154.921 68.4306 154.562 68.4306 154.157C68.4306 153.747 68.5076 153.385 68.6618 153.072C68.8159 152.756 69.0332 152.51 69.3135 152.333C69.5938 152.156 69.924 152.068 70.3041 152.068C70.6107 152.068 70.884 152.125 71.124 152.239C71.3639 152.351 71.5575 152.509 71.7047 152.712C71.8536 152.915 71.942 153.152 71.9701 153.424H71.2054C71.1634 153.235 71.067 153.072 70.9164 152.935C70.7675 152.799 70.5678 152.73 70.3172 152.73C70.0983 152.73 69.9064 152.788 69.7418 152.904C69.5789 153.018 69.4519 153.18 69.3608 153.392C69.2697 153.603 69.2241 153.851 69.2241 154.139C69.2241 154.433 69.2688 154.687 69.3581 154.901C69.4475 155.114 69.5736 155.28 69.7365 155.397C69.9012 155.515 70.0948 155.573 70.3172 155.573C70.4661 155.573 70.601 155.546 70.7219 155.492C70.8445 155.436 70.947 155.356 71.0294 155.253C71.1134 155.149 71.1721 155.025 71.2054 154.88H71.9701C71.942 155.141 71.8571 155.374 71.7152 155.579C71.5733 155.784 71.3832 155.945 71.145 156.062C70.9085 156.18 70.6308 156.238 70.312 156.238ZM74.5104 156.238C74.1198 156.238 73.7834 156.15 73.5014 155.973C73.2211 155.794 73.0056 155.548 72.855 155.234C72.7043 154.921 72.629 154.562 72.629 154.157C72.629 153.747 72.706 153.385 72.8602 153.072C73.0144 152.756 73.2316 152.51 73.5119 152.333C73.7922 152.156 74.1224 152.068 74.5025 152.068C74.8091 152.068 75.0824 152.125 75.3224 152.239C75.5624 152.351 75.7559 152.509 75.9031 152.712C76.052 152.915 76.1405 153.152 76.1685 153.424H75.4038C75.3618 153.235 75.2654 153.072 75.1148 152.935C74.9659 152.799 74.7662 152.73 74.5157 152.73C74.2967 152.73 74.1049 152.788 73.9402 152.904C73.7773 153.018 73.6503 153.18 73.5592 153.392C73.4681 153.603 73.4225 153.851 73.4225 154.139C73.4225 154.433 73.4672 154.687 73.5565 154.901C73.6459 155.114 73.772 155.28 73.9349 155.397C74.0996 155.515 74.2932 155.573 74.5157 155.573C74.6646 155.573 74.7995 155.546 74.9203 155.492C75.043 155.436 75.1454 155.356 75.2278 155.253C75.3119 155.149 75.3705 155.025 75.4038 154.88H76.1685C76.1405 155.141 76.0555 155.374 75.9136 155.579C75.7717 155.784 75.5816 155.945 75.3434 156.062C75.1069 156.18 74.8292 156.238 74.5104 156.238ZM78.7482 156.238C78.3506 156.238 78.0081 156.153 77.7208 155.983C77.4353 155.812 77.2145 155.571 77.0586 155.261C76.9045 154.949 76.8274 154.584 76.8274 154.165C76.8274 153.752 76.9045 153.387 77.0586 153.072C77.2145 152.756 77.4318 152.51 77.7103 152.333C77.9906 152.156 78.3182 152.068 78.6931 152.068C78.9208 152.068 79.1415 152.106 79.3552 152.181C79.569 152.256 79.7608 152.375 79.9307 152.536C80.1006 152.697 80.2346 152.906 80.3327 153.164C80.4308 153.42 80.4799 153.73 80.4799 154.097V154.375H77.2715V153.787H79.71C79.71 153.58 79.6679 153.397 79.5838 153.237C79.4998 153.076 79.3815 152.949 79.2291 152.856C79.0785 152.763 78.9015 152.717 78.6983 152.717C78.4776 152.717 78.2849 152.771 78.1202 152.88C77.9573 152.987 77.8312 153.127 77.7418 153.3C77.6542 153.472 77.6104 153.659 77.6104 153.86V154.32C77.6104 154.59 77.6577 154.819 77.7523 155.008C77.8487 155.198 77.9827 155.342 78.1544 155.442C78.3261 155.54 78.5266 155.589 78.7561 155.589C78.905 155.589 79.0408 155.568 79.1634 155.526C79.286 155.482 79.392 155.417 79.4814 155.332C79.5707 155.246 79.639 155.14 79.6863 155.014L80.43 155.148C80.3704 155.367 80.2635 155.558 80.1094 155.723C79.957 155.886 79.7652 156.013 79.5339 156.104C79.3044 156.194 79.0425 156.238 78.7482 156.238ZM84.3761 153.106L83.664 153.232C83.6342 153.141 83.5869 153.054 83.5221 152.972C83.4591 152.89 83.3732 152.822 83.2646 152.77C83.156 152.717 83.0202 152.691 82.8573 152.691C82.6348 152.691 82.4491 152.741 82.3002 152.841C82.1513 152.939 82.0769 153.066 82.0769 153.222C82.0769 153.356 82.1268 153.465 82.2267 153.547C82.3265 153.63 82.4877 153.697 82.7102 153.75L83.3513 153.897C83.7227 153.983 83.9995 154.115 84.1817 154.294C84.3639 154.472 84.455 154.704 84.455 154.99C84.455 155.232 84.3849 155.447 84.2447 155.636C84.1063 155.824 83.9128 155.971 83.664 156.078C83.417 156.185 83.1306 156.238 82.8048 156.238C82.3528 156.238 81.984 156.142 81.6985 155.949C81.4129 155.755 81.2378 155.479 81.173 155.121L81.9324 155.006C81.9797 155.204 82.0769 155.354 82.224 155.455C82.3712 155.555 82.563 155.605 82.7995 155.605C83.057 155.605 83.2629 155.551 83.417 155.445C83.5712 155.336 83.6483 155.204 83.6483 155.048C83.6483 154.922 83.601 154.816 83.5064 154.73C83.4135 154.644 83.2707 154.579 83.078 154.535L82.3948 154.386C82.0182 154.3 81.7397 154.163 81.5592 153.976C81.3805 153.788 81.2912 153.551 81.2912 153.264C81.2912 153.025 81.3578 152.817 81.4909 152.638C81.624 152.46 81.808 152.32 82.0427 152.22C82.2775 152.119 82.5464 152.068 82.8494 152.068C83.2856 152.068 83.629 152.163 83.8795 152.352C84.13 152.539 84.2955 152.791 84.3761 153.106ZM88.3433 153.106L87.6312 153.232C87.6014 153.141 87.5541 153.054 87.4893 152.972C87.4262 152.89 87.3404 152.822 87.2318 152.77C87.1232 152.717 86.9874 152.691 86.8245 152.691C86.602 152.691 86.4163 152.741 86.2674 152.841C86.1185 152.939 86.0441 153.066 86.0441 153.222C86.0441 153.356 86.094 153.465 86.1938 153.547C86.2937 153.63 86.4549 153.697 86.6773 153.75L87.3185 153.897C87.6899 153.983 87.9667 154.115 88.1489 154.294C88.331 154.472 88.4221 154.704 88.4221 154.99C88.4221 155.232 88.3521 155.447 88.2119 155.636C88.0735 155.824 87.88 155.971 87.6312 156.078C87.3842 156.185 87.0978 156.238 86.7719 156.238C86.32 156.238 85.9512 156.142 85.6657 155.949C85.3801 155.755 85.2049 155.479 85.1401 155.121L85.8995 155.006C85.9468 155.204 86.0441 155.354 86.1912 155.455C86.3384 155.555 86.5302 155.605 86.7667 155.605C87.0242 155.605 87.23 155.551 87.3842 155.445C87.5383 155.336 87.6154 155.204 87.6154 155.048C87.6154 154.922 87.5681 154.816 87.4735 154.73C87.3807 154.644 87.2379 154.579 87.0452 154.535L86.362 154.386C85.9854 154.3 85.7068 154.163 85.5264 153.976C85.3477 153.788 85.2584 153.551 85.2584 153.264C85.2584 153.025 85.3249 152.817 85.4581 152.638C85.5912 152.46 85.7752 152.32 86.0099 152.22C86.2446 152.119 86.5135 152.068 86.8166 152.068C87.2528 152.068 87.5962 152.163 87.8467 152.352C88.0972 152.539 88.2627 152.791 88.3433 153.106Z" fill="#3F4346"/>
<ellipse cx="111.038" cy="168.396" rx="7.39962" ry="7.39961" fill="#1157A6"/>
<path d="M114.492 168.889H111.532V171.849H110.545V168.889H107.585V167.902H110.545V164.943H111.532V167.902H114.492V168.889Z" fill="white"/>
<path d="M101.673 156.157V150.775H105.01V151.474H102.485V153.114H104.771V153.81H102.485V156.157H101.673ZM107.106 156.246C106.85 156.246 106.619 156.199 106.412 156.104C106.205 156.008 106.041 155.869 105.92 155.686C105.801 155.504 105.742 155.281 105.742 155.016C105.742 154.789 105.786 154.601 105.873 154.454C105.961 154.307 106.079 154.19 106.228 154.105C106.377 154.019 106.543 153.954 106.727 153.91C106.911 153.866 107.099 153.833 107.289 153.81C107.531 153.782 107.727 153.759 107.878 153.742C108.029 153.723 108.138 153.692 108.207 153.65C108.275 153.608 108.309 153.54 108.309 153.445V153.427C108.309 153.197 108.244 153.019 108.115 152.893C107.987 152.767 107.796 152.704 107.542 152.704C107.277 152.704 107.069 152.763 106.916 152.88C106.766 152.996 106.661 153.124 106.604 153.266L105.865 153.098C105.953 152.853 106.081 152.655 106.249 152.504C106.419 152.352 106.614 152.241 106.835 152.173C107.056 152.103 107.288 152.068 107.531 152.068C107.692 152.068 107.863 152.087 108.044 152.126C108.226 152.163 108.396 152.231 108.553 152.331C108.713 152.431 108.843 152.573 108.945 152.759C109.047 152.943 109.097 153.182 109.097 153.476V156.157H108.33V155.605H108.298C108.248 155.707 108.171 155.806 108.07 155.904C107.968 156.003 107.838 156.084 107.678 156.149C107.519 156.214 107.328 156.246 107.106 156.246ZM107.276 155.615C107.494 155.615 107.679 155.573 107.833 155.487C107.989 155.401 108.108 155.289 108.188 155.15C108.27 155.01 108.312 154.86 108.312 154.701V154.181C108.284 154.209 108.229 154.235 108.149 154.26C108.07 154.282 107.98 154.302 107.878 154.32C107.776 154.336 107.677 154.351 107.581 154.365C107.485 154.377 107.404 154.387 107.339 154.396C107.187 154.415 107.048 154.448 106.922 154.493C106.797 154.539 106.697 154.605 106.622 154.69C106.548 154.775 106.512 154.887 106.512 155.027C106.512 155.221 106.583 155.368 106.727 155.468C106.871 155.566 107.054 155.615 107.276 155.615ZM110.144 156.157V152.121H110.929V156.157H110.144ZM110.541 151.498C110.404 151.498 110.287 151.452 110.188 151.361C110.092 151.268 110.044 151.158 110.044 151.03C110.044 150.9 110.092 150.79 110.188 150.699C110.287 150.606 110.404 150.56 110.541 150.56C110.677 150.56 110.794 150.606 110.89 150.699C110.988 150.79 111.037 150.9 111.037 151.03C111.037 151.158 110.988 151.268 110.89 151.361C110.794 151.452 110.677 151.498 110.541 151.498ZM112.772 150.775V156.157H111.986V150.775H112.772ZM115.569 156.238C115.171 156.238 114.829 156.153 114.541 155.983C114.256 155.812 114.035 155.571 113.879 155.261C113.725 154.949 113.648 154.584 113.648 154.165C113.648 153.752 113.725 153.387 113.879 153.072C114.035 152.756 114.252 152.51 114.531 152.333C114.811 152.156 115.139 152.068 115.514 152.068C115.741 152.068 115.962 152.106 116.176 152.181C116.389 152.256 116.581 152.375 116.751 152.536C116.921 152.697 117.055 152.906 117.153 153.164C117.251 153.42 117.3 153.73 117.3 154.097V154.375H114.092V153.787H116.53C116.53 153.58 116.488 153.397 116.404 153.237C116.32 153.076 116.202 152.949 116.05 152.856C115.899 152.763 115.722 152.717 115.519 152.717C115.298 152.717 115.105 152.771 114.941 152.88C114.778 152.987 114.652 153.127 114.562 153.3C114.475 153.472 114.431 153.659 114.431 153.86V154.32C114.431 154.59 114.478 154.819 114.573 155.008C114.669 155.198 114.803 155.342 114.975 155.442C115.147 155.54 115.347 155.589 115.577 155.589C115.725 155.589 115.861 155.568 115.984 155.526C116.107 155.482 116.212 155.417 116.302 155.332C116.391 155.246 116.459 155.14 116.507 155.014L117.25 155.148C117.191 155.367 117.084 155.558 116.93 155.723C116.777 155.886 116.586 156.013 116.354 156.104C116.125 156.194 115.863 156.238 115.569 156.238ZM119.683 156.236C119.357 156.236 119.066 156.152 118.811 155.986C118.557 155.818 118.357 155.579 118.212 155.269C118.068 154.957 117.996 154.583 117.996 154.147C117.996 153.71 118.069 153.337 118.214 153.027C118.361 152.717 118.563 152.48 118.819 152.315C119.074 152.15 119.364 152.068 119.688 152.068C119.939 152.068 120.14 152.11 120.293 152.194C120.447 152.276 120.566 152.373 120.65 152.483C120.736 152.594 120.802 152.691 120.85 152.775H120.897V150.775H121.683V156.157H120.915V155.529H120.85C120.802 155.615 120.734 155.713 120.645 155.823C120.557 155.933 120.436 156.03 120.282 156.112C120.128 156.194 119.928 156.236 119.683 156.236ZM119.856 155.566C120.082 155.566 120.273 155.506 120.429 155.387C120.587 155.266 120.706 155.099 120.787 154.885C120.869 154.671 120.91 154.422 120.91 154.139C120.91 153.858 120.87 153.613 120.789 153.403C120.709 153.193 120.59 153.029 120.435 152.912C120.279 152.794 120.086 152.735 119.856 152.735C119.62 152.735 119.423 152.797 119.265 152.919C119.108 153.042 118.988 153.209 118.908 153.421C118.829 153.633 118.79 153.872 118.79 154.139C118.79 154.408 118.83 154.651 118.91 154.867C118.991 155.082 119.11 155.253 119.268 155.379C119.427 155.503 119.623 155.566 119.856 155.566Z" fill="#3F4346"/>
<ellipse cx="151.537" cy="168.396" rx="7.39962" ry="7.39961" fill="#1157A6"/>
<path d="M154.991 168.889H152.031V171.849H151.044V168.889H148.084V167.902H151.044V164.943H152.031V167.902H154.991V168.889Z" fill="white"/>
<path d="M137.134 156.157H135.392V150.775H137.189C137.716 150.775 138.169 150.883 138.547 151.098C138.926 151.312 139.216 151.62 139.417 152.021C139.62 152.42 139.722 152.899 139.722 153.458C139.722 154.019 139.619 154.5 139.415 154.903C139.211 155.306 138.917 155.616 138.532 155.834C138.146 156.049 137.68 156.157 137.134 156.157ZM136.203 155.447H137.089C137.499 155.447 137.84 155.37 138.111 155.216C138.383 155.06 138.586 154.835 138.721 154.541C138.856 154.245 138.923 153.884 138.923 153.458C138.923 153.036 138.856 152.678 138.721 152.383C138.588 152.089 138.389 151.866 138.124 151.713C137.86 151.561 137.531 151.485 137.139 151.485H136.203V155.447ZM142.408 156.238C142.01 156.238 141.668 156.153 141.381 155.983C141.095 155.812 140.874 155.571 140.719 155.261C140.564 154.949 140.487 154.584 140.487 154.165C140.487 153.752 140.564 153.387 140.719 153.072C140.874 152.756 141.092 152.51 141.37 152.333C141.65 152.156 141.978 152.068 142.353 152.068C142.581 152.068 142.801 152.106 143.015 152.181C143.229 152.256 143.421 152.375 143.591 152.536C143.761 152.697 143.895 152.906 143.993 153.164C144.091 153.42 144.14 153.73 144.14 154.097V154.375H140.931V153.787H143.37C143.37 153.58 143.328 153.397 143.244 153.237C143.16 153.076 143.041 152.949 142.889 152.856C142.738 152.763 142.561 152.717 142.358 152.717C142.137 152.717 141.945 152.771 141.78 152.88C141.617 152.987 141.491 153.127 141.402 153.3C141.314 153.472 141.27 153.659 141.27 153.86V154.32C141.27 154.59 141.318 154.819 141.412 155.008C141.509 155.198 141.643 155.342 141.814 155.442C141.986 155.54 142.187 155.589 142.416 155.589C142.565 155.589 142.701 155.568 142.823 155.526C142.946 155.482 143.052 155.417 143.141 155.332C143.231 155.246 143.299 155.14 143.346 155.014L144.09 155.148C144.03 155.367 143.923 155.558 143.769 155.723C143.617 155.886 143.425 156.013 143.194 156.104C142.964 156.194 142.702 156.238 142.408 156.238ZM145.797 150.775V156.157H145.012V150.775H145.797ZM146.854 156.157V152.121H147.64V156.157H146.854ZM147.251 151.498C147.114 151.498 146.997 151.452 146.899 151.361C146.803 151.268 146.754 151.158 146.754 151.03C146.754 150.9 146.803 150.79 146.899 150.699C146.997 150.606 147.114 150.56 147.251 150.56C147.388 150.56 147.504 150.606 147.6 150.699C147.699 150.79 147.748 150.9 147.748 151.03C147.748 151.158 147.699 151.268 147.6 151.361C147.504 151.452 147.388 151.498 147.251 151.498ZM152.15 152.121L150.686 156.157H149.845L148.379 152.121H149.222L150.245 155.227H150.287L151.306 152.121H152.15ZM154.49 156.238C154.093 156.238 153.75 156.153 153.463 155.983C153.177 155.812 152.957 155.571 152.801 155.261C152.647 154.949 152.569 154.584 152.569 154.165C152.569 153.752 152.647 153.387 152.801 153.072C152.957 152.756 153.174 152.51 153.452 152.333C153.733 152.156 154.06 152.068 154.435 152.068C154.663 152.068 154.884 152.106 155.097 152.181C155.311 152.256 155.503 152.375 155.673 152.536C155.843 152.697 155.977 152.906 156.075 153.164C156.173 153.42 156.222 153.73 156.222 154.097V154.375H153.014V153.787H155.452C155.452 153.58 155.41 153.397 155.326 153.237C155.242 153.076 155.124 152.949 154.971 152.856C154.821 152.763 154.644 152.717 154.44 152.717C154.22 152.717 154.027 152.771 153.862 152.88C153.699 152.987 153.573 153.127 153.484 153.3C153.396 153.472 153.353 153.659 153.353 153.86V154.32C153.353 154.59 153.4 154.819 153.494 155.008C153.591 155.198 153.725 155.342 153.896 155.442C154.068 155.54 154.269 155.589 154.498 155.589C154.647 155.589 154.783 155.568 154.906 155.526C155.028 155.482 155.134 155.417 155.223 155.332C155.313 155.246 155.381 155.14 155.428 155.014L156.172 155.148C156.112 155.367 156.006 155.558 155.851 155.723C155.699 155.886 155.507 156.013 155.276 156.104C155.047 156.194 154.785 156.238 154.49 156.238ZM157.094 156.157V152.121H157.853V152.762H157.895C157.969 152.545 158.098 152.374 158.284 152.249C158.472 152.123 158.683 152.06 158.92 152.06C158.969 152.06 159.027 152.062 159.093 152.065C159.162 152.069 159.215 152.073 159.254 152.079V152.83C159.222 152.821 159.166 152.812 159.086 152.801C159.005 152.789 158.924 152.783 158.844 152.783C158.658 152.783 158.493 152.822 158.347 152.901C158.203 152.978 158.09 153.086 158.006 153.224C157.921 153.361 157.879 153.517 157.879 153.692V156.157H157.094ZM161.529 156.238C161.131 156.238 160.789 156.153 160.501 155.983C160.216 155.812 159.995 155.571 159.839 155.261C159.685 154.949 159.608 154.584 159.608 154.165C159.608 153.752 159.685 153.387 159.839 153.072C159.995 152.756 160.212 152.51 160.491 152.333C160.771 152.156 161.099 152.068 161.473 152.068C161.701 152.068 161.922 152.106 162.136 152.181C162.349 152.256 162.541 152.375 162.711 152.536C162.881 152.697 163.015 152.906 163.113 153.164C163.211 153.42 163.26 153.73 163.26 154.097V154.375H160.052V153.787H162.49C162.49 153.58 162.448 153.397 162.364 153.237C162.28 153.076 162.162 152.949 162.01 152.856C161.859 152.763 161.682 152.717 161.479 152.717C161.258 152.717 161.065 152.771 160.901 152.88C160.738 152.987 160.612 153.127 160.522 153.3C160.435 153.472 160.391 153.659 160.391 153.86V154.32C160.391 154.59 160.438 154.819 160.533 155.008C160.629 155.198 160.763 155.342 160.935 155.442C161.106 155.54 161.307 155.589 161.537 155.589C161.685 155.589 161.821 155.568 161.944 155.526C162.066 155.482 162.172 155.417 162.262 155.332C162.351 155.246 162.419 155.14 162.467 155.014L163.21 155.148C163.151 155.367 163.044 155.558 162.89 155.723C162.737 155.886 162.546 156.013 162.314 156.104C162.085 156.194 161.823 156.238 161.529 156.238ZM165.643 156.236C165.317 156.236 165.026 156.152 164.771 155.986C164.517 155.818 164.317 155.579 164.171 155.269C164.028 154.957 163.956 154.583 163.956 154.147C163.956 153.71 164.029 153.337 164.174 153.027C164.321 152.717 164.523 152.48 164.778 152.315C165.034 152.15 165.324 152.068 165.648 152.068C165.899 152.068 166.1 152.11 166.253 152.194C166.407 152.276 166.526 152.373 166.61 152.483C166.696 152.594 166.762 152.691 166.81 152.775H166.857V150.775H167.643V156.157H166.875V155.529H166.81C166.762 155.615 166.694 155.713 166.605 155.823C166.517 155.933 166.396 156.03 166.242 156.112C166.088 156.194 165.888 156.236 165.643 156.236ZM165.816 155.566C166.042 155.566 166.233 155.506 166.389 155.387C166.547 155.266 166.666 155.099 166.747 154.885C166.829 154.671 166.87 154.422 166.87 154.139C166.87 153.858 166.83 153.613 166.749 153.403C166.669 153.193 166.55 153.029 166.394 152.912C166.239 152.794 166.046 152.735 165.816 152.735C165.58 152.735 165.383 152.797 165.225 152.919C165.068 153.042 164.948 153.209 164.868 153.421C164.789 153.633 164.75 153.872 164.75 154.139C164.75 154.408 164.79 154.651 164.87 154.867C164.951 155.082 165.07 155.253 165.228 155.379C165.387 155.503 165.583 155.566 165.816 155.566Z" fill="#3F4346"/>
</g>
<path d="M152.537 178.315C152.537 177.763 152.09 177.315 151.537 177.315C150.985 177.315 150.537 177.763 150.537 178.315H152.537ZM205.293 251.707C205.683 252.098 206.317 252.098 206.707 251.707L213.071 245.343C213.462 244.953 213.462 244.319 213.071 243.929C212.681 243.538 212.047 243.538 211.657 243.929L206 249.586L200.343 243.929C199.953 243.538 199.319 243.538 198.929 243.929C198.538 244.319 198.538 244.953 198.929 245.343L205.293 251.707ZM150.537 178.315V181H152.537V178.315H150.537ZM175.537 206H182V204H175.537V206ZM205 229V251H207V229H205ZM182 206C194.703 206 205 216.297 205 229H207C207 215.193 195.807 204 182 204V206ZM150.537 181C150.537 194.807 161.73 206 175.537 206V204C162.835 204 152.537 193.703 152.537 181H150.537Z" fill="#1157A6"/>
<g filter="url(#filter2_d_1653_25750)">
<g clip-path="url(#clip0_1653_25750)">
<rect x="268" y="186" width="287.143" height="201" rx="5.74286" fill="white"/>
<path d="M291.764 212.921L291.757 208.829L289.035 206.1L291.757 203.365L291.764 199.279H283.578V203.372L286.307 206.1L283.578 208.822V212.921H291.764ZM284.943 203.03V200.643H290.4V203.03L287.671 205.759L284.943 203.03Z" fill="#5D6164"/>
<path d="M306.787 210.1H303.956V201.747H306.844C307.674 201.747 308.386 201.914 308.981 202.248C309.58 202.58 310.039 203.057 310.36 203.68C310.681 204.303 310.841 205.048 310.841 205.915C310.841 206.785 310.68 207.533 310.356 208.159C310.035 208.784 309.572 209.264 308.965 209.598C308.362 209.933 307.635 210.1 306.787 210.1ZM305.47 208.791H306.714C307.296 208.791 307.781 208.685 308.17 208.473C308.559 208.258 308.851 207.938 309.047 207.514C309.243 207.087 309.34 206.554 309.34 205.915C309.34 205.276 309.243 204.746 309.047 204.325C308.851 203.9 308.561 203.584 308.178 203.374C307.797 203.162 307.324 203.056 306.759 203.056H305.47V208.791ZM314.987 210.222C314.359 210.222 313.817 210.092 313.36 209.831C312.906 209.567 312.556 209.195 312.312 208.713C312.067 208.229 311.945 207.66 311.945 207.004C311.945 206.36 312.067 205.794 312.312 205.308C312.559 204.818 312.905 204.437 313.348 204.165C313.791 203.891 314.312 203.754 314.91 203.754C315.296 203.754 315.66 203.816 316.003 203.941C316.348 204.064 316.653 204.254 316.917 204.512C317.183 204.77 317.393 205.1 317.545 205.499C317.697 205.896 317.773 206.369 317.773 206.919V207.371H312.638V206.376H316.358C316.355 206.093 316.294 205.842 316.174 205.622C316.055 205.399 315.887 205.223 315.673 205.095C315.461 204.968 315.213 204.904 314.93 204.904C314.628 204.904 314.363 204.977 314.135 205.124C313.907 205.268 313.728 205.458 313.601 205.695C313.476 205.929 313.412 206.186 313.409 206.466V207.335C313.409 207.699 313.476 208.012 313.609 208.273C313.742 208.531 313.928 208.73 314.168 208.868C314.407 209.004 314.687 209.072 315.008 209.072C315.223 209.072 315.417 209.042 315.591 208.982C315.765 208.92 315.916 208.829 316.044 208.709C316.172 208.59 316.268 208.441 316.333 208.265L317.712 208.42C317.625 208.784 317.459 209.102 317.214 209.374C316.972 209.643 316.662 209.853 316.284 210.002C315.906 210.149 315.474 210.222 314.987 210.222ZM320.499 201.747V210.1H319.022V201.747H320.499ZM323.82 210.226C323.423 210.226 323.065 210.156 322.747 210.014C322.432 209.87 322.182 209.658 321.997 209.378C321.815 209.098 321.723 208.753 321.723 208.342C321.723 207.989 321.789 207.696 321.919 207.465C322.05 207.234 322.228 207.049 322.454 206.91C322.679 206.772 322.933 206.667 323.216 206.596C323.502 206.523 323.797 206.47 324.101 206.437C324.468 206.399 324.766 206.365 324.995 206.335C325.223 206.303 325.389 206.254 325.492 206.189C325.598 206.121 325.651 206.016 325.651 205.874V205.85C325.651 205.543 325.56 205.305 325.378 205.136C325.196 204.968 324.933 204.883 324.591 204.883C324.229 204.883 323.942 204.962 323.73 205.12C323.521 205.278 323.379 205.464 323.306 205.679L321.927 205.483C322.036 205.102 322.216 204.784 322.466 204.528C322.716 204.27 323.022 204.077 323.383 203.949C323.745 203.819 324.145 203.754 324.583 203.754C324.884 203.754 325.185 203.789 325.484 203.86C325.783 203.93 326.056 204.047 326.304 204.21C326.551 204.371 326.75 204.59 326.899 204.867C327.052 205.144 327.128 205.491 327.128 205.907V210.1H325.708V209.239H325.659C325.57 209.413 325.443 209.577 325.28 209.729C325.12 209.878 324.917 209.999 324.672 210.092C324.43 210.182 324.146 210.226 323.82 210.226ZM324.203 209.142C324.5 209.142 324.757 209.083 324.974 208.966C325.192 208.847 325.359 208.689 325.476 208.493C325.596 208.297 325.655 208.084 325.655 207.853V207.114C325.609 207.152 325.53 207.188 325.419 207.22C325.31 207.253 325.188 207.282 325.052 207.306C324.916 207.331 324.781 207.352 324.648 207.371C324.515 207.39 324.399 207.407 324.301 207.42C324.081 207.45 323.884 207.499 323.71 207.567C323.536 207.635 323.398 207.73 323.298 207.853C323.197 207.972 323.147 208.127 323.147 208.318C323.147 208.59 323.246 208.795 323.445 208.934C323.643 209.072 323.896 209.142 324.203 209.142ZM329.306 212.449C329.105 212.449 328.918 212.433 328.747 212.4C328.578 212.371 328.444 212.335 328.343 212.294L328.686 211.144C328.901 211.207 329.092 211.237 329.261 211.234C329.43 211.231 329.578 211.178 329.706 211.075C329.836 210.974 329.946 210.806 330.036 210.569L330.162 210.231L327.89 203.835H329.457L330.901 208.566H330.966L332.414 203.835H333.984L331.476 210.859C331.359 211.19 331.204 211.475 331.011 211.711C330.818 211.95 330.581 212.133 330.301 212.258C330.024 212.385 329.692 212.449 329.306 212.449Z" fill="#212528"/>
<rect x="522.121" y="195.332" width="21.5357" height="21.5357" rx="10.7679" fill="white"/>
<path d="M536.658 203.09L535.899 202.331L532.889 205.341L529.879 202.331L529.12 203.09L532.13 206.1L529.12 209.11L529.879 209.869L532.889 206.859L535.899 209.869L536.658 209.11L533.648 206.1L536.658 203.09Z" fill="#5D6164"/>
<path d="M555.143 225.482H268V226.918H555.143V225.482Z" fill="#D5D9DC" mask="url(#path-30-inside-3_1653_25750)"/>
<rect x="279.845" y="245.223" width="263.282" height="27.9964" rx="2.5125" fill="white"/>
<path d="M291.241 262.721H288.985V255.412H291.341C292.05 255.412 292.656 255.559 293.161 255.851C293.665 256.142 294.052 256.559 294.321 257.104C294.59 257.647 294.724 258.296 294.724 259.053C294.724 259.814 294.588 260.47 294.317 261.019C294.046 261.566 293.651 261.987 293.132 262.283C292.614 262.575 291.983 262.721 291.241 262.721ZM289.87 261.936H291.184C291.788 261.936 292.289 261.82 292.686 261.587C293.083 261.353 293.38 261.022 293.575 260.591C293.77 260.16 293.867 259.647 293.867 259.053C293.867 258.463 293.771 257.955 293.578 257.529C293.386 257.1 293.098 256.772 292.715 256.544C292.332 256.313 291.855 256.198 291.284 256.198H289.87V261.936ZM298.393 262.836C297.865 262.836 297.409 262.719 297.026 262.486C296.645 262.25 296.351 261.922 296.144 261.501C295.94 261.077 295.837 260.585 295.837 260.023C295.837 259.462 295.94 258.967 296.144 258.539C296.351 258.108 296.639 257.773 297.008 257.532C297.379 257.29 297.812 257.168 298.307 257.168C298.593 257.168 298.875 257.216 299.153 257.311C299.431 257.406 299.685 257.561 299.913 257.775C300.142 257.987 300.324 258.268 300.459 258.617C300.595 258.967 300.663 259.398 300.663 259.909V260.266H296.437V259.538H299.806C299.806 259.229 299.744 258.953 299.62 258.71C299.499 258.467 299.325 258.276 299.099 258.135C298.876 257.995 298.612 257.925 298.307 257.925C297.972 257.925 297.681 258.008 297.436 258.175C297.194 258.339 297.007 258.553 296.876 258.817C296.745 259.081 296.68 259.364 296.68 259.667V260.152C296.68 260.566 296.751 260.917 296.894 261.205C297.039 261.49 297.24 261.708 297.497 261.858C297.754 262.005 298.053 262.079 298.393 262.079C298.614 262.079 298.814 262.048 298.992 261.986C299.173 261.922 299.329 261.827 299.46 261.701C299.591 261.572 299.692 261.413 299.763 261.223L300.577 261.451C300.491 261.727 300.347 261.97 300.145 262.179C299.943 262.386 299.693 262.548 299.396 262.664C299.098 262.779 298.764 262.836 298.393 262.836ZM302.786 255.412V262.721H301.944V255.412H302.786ZM305.942 262.85C305.595 262.85 305.279 262.785 304.996 262.654C304.713 262.52 304.488 262.329 304.322 262.079C304.155 261.827 304.072 261.522 304.072 261.165C304.072 260.851 304.134 260.597 304.257 260.402C304.381 260.204 304.546 260.05 304.753 259.938C304.96 259.826 305.189 259.743 305.439 259.688C305.691 259.631 305.944 259.586 306.199 259.552C306.532 259.509 306.802 259.477 307.009 259.456C307.218 259.432 307.371 259.393 307.466 259.338C307.563 259.283 307.612 259.188 307.612 259.053V259.024C307.612 258.672 307.516 258.398 307.323 258.203C307.133 258.008 306.844 257.911 306.456 257.911C306.054 257.911 305.738 257.999 305.51 258.175C305.282 258.351 305.121 258.539 305.028 258.739L304.229 258.453C304.372 258.12 304.562 257.861 304.8 257.675C305.04 257.487 305.302 257.356 305.585 257.283C305.871 257.206 306.151 257.168 306.427 257.168C306.603 257.168 306.806 257.19 307.034 257.233C307.265 257.273 307.487 257.357 307.701 257.486C307.918 257.614 308.097 257.808 308.24 258.068C308.383 258.327 308.454 258.674 308.454 259.11V262.721H307.612V261.979H307.569C307.512 262.098 307.417 262.225 307.284 262.361C307.151 262.497 306.973 262.612 306.752 262.707C306.531 262.802 306.261 262.85 305.942 262.85ZM306.07 262.093C306.403 262.093 306.684 262.028 306.913 261.897C307.143 261.766 307.317 261.597 307.434 261.39C307.553 261.183 307.612 260.966 307.612 260.737V259.966C307.576 260.009 307.498 260.048 307.377 260.084C307.258 260.117 307.12 260.147 306.963 260.173C306.808 260.197 306.657 260.219 306.509 260.238C306.364 260.254 306.246 260.268 306.156 260.28C305.937 260.309 305.733 260.355 305.542 260.42C305.354 260.481 305.202 260.575 305.085 260.702C304.971 260.825 304.914 260.994 304.914 261.208C304.914 261.501 305.022 261.722 305.239 261.872C305.458 262.02 305.735 262.093 306.07 262.093ZM310.338 264.777C310.195 264.777 310.068 264.765 309.956 264.741C309.844 264.72 309.767 264.699 309.724 264.677L309.938 263.935C310.143 263.987 310.324 264.006 310.481 263.992C310.638 263.978 310.777 263.908 310.898 263.781C311.022 263.658 311.135 263.457 311.237 263.178L311.394 262.75L309.367 257.24H310.281L311.794 261.608H311.851L313.364 257.24H314.278L311.951 263.521C311.846 263.804 311.717 264.038 311.562 264.224C311.407 264.412 311.228 264.551 311.023 264.642C310.821 264.732 310.592 264.777 310.338 264.777ZM318.378 262.721V263.507H313.81V262.721H318.378ZM320.605 255.412V262.721H319.72V256.34H319.677L317.892 257.525V256.626L319.72 255.412H320.605Z" fill="#3F4346"/>
<rect x="279.845" y="245.223" width="263.282" height="27.9964" rx="2.5125" stroke="#D5D9DC" stroke-width="0.717857"/>
<rect width="25.7429" height="9" transform="translate(285.229 240.557)" fill="white"/>
<path d="M292.872 242.336V247.557H292.26L289.415 243.458H289.365V247.557H288.732V242.336H289.344L292.199 246.446H292.25V242.336H292.872ZM295.208 247.649C294.96 247.649 294.735 247.602 294.532 247.509C294.33 247.414 294.17 247.277 294.051 247.098C293.932 246.918 293.872 246.701 293.872 246.446C293.872 246.221 293.916 246.04 294.005 245.9C294.093 245.759 294.211 245.649 294.359 245.569C294.507 245.489 294.67 245.429 294.848 245.39C295.029 245.35 295.21 245.317 295.391 245.293C295.629 245.263 295.822 245.24 295.97 245.225C296.12 245.208 296.228 245.18 296.296 245.14C296.366 245.101 296.401 245.033 296.401 244.937V244.916C296.401 244.665 296.332 244.469 296.194 244.33C296.059 244.19 295.852 244.121 295.575 244.121C295.288 244.121 295.063 244.184 294.899 244.309C294.736 244.435 294.622 244.569 294.555 244.712L293.984 244.508C294.086 244.27 294.222 244.085 294.392 243.953C294.564 243.818 294.751 243.725 294.953 243.672C295.157 243.618 295.357 243.591 295.555 243.591C295.68 243.591 295.825 243.606 295.988 243.636C296.153 243.665 296.312 243.726 296.465 243.817C296.619 243.909 296.748 244.048 296.85 244.233C296.952 244.418 297.003 244.666 297.003 244.977V247.557H296.401V247.027H296.37C296.33 247.112 296.262 247.203 296.166 247.3C296.071 247.397 295.945 247.479 295.787 247.547C295.629 247.615 295.436 247.649 295.208 247.649ZM295.3 247.108C295.538 247.108 295.738 247.062 295.901 246.968C296.066 246.875 296.19 246.754 296.273 246.606C296.358 246.458 296.401 246.303 296.401 246.14V245.589C296.375 245.62 296.319 245.648 296.233 245.673C296.148 245.697 296.049 245.718 295.937 245.737C295.827 245.754 295.719 245.769 295.613 245.783C295.51 245.795 295.425 245.805 295.361 245.813C295.205 245.834 295.058 245.867 294.922 245.913C294.788 245.957 294.679 246.024 294.596 246.114C294.515 246.203 294.474 246.323 294.474 246.476C294.474 246.685 294.551 246.843 294.706 246.95C294.862 247.056 295.06 247.108 295.3 247.108ZM298.101 247.557V243.642H298.682V244.253H298.733C298.814 244.044 298.946 243.882 299.128 243.766C299.31 243.649 299.528 243.591 299.783 243.591C300.041 243.591 300.256 243.649 300.428 243.766C300.601 243.882 300.737 244.044 300.833 244.253H300.874C300.974 244.051 301.125 243.891 301.325 243.772C301.526 243.651 301.766 243.591 302.047 243.591C302.397 243.591 302.683 243.7 302.906 243.919C303.129 244.137 303.24 244.476 303.24 244.937V247.557H302.638V244.937C302.638 244.648 302.559 244.441 302.401 244.317C302.243 244.193 302.057 244.131 301.843 244.131C301.568 244.131 301.354 244.214 301.203 244.381C301.052 244.546 300.976 244.755 300.976 245.008V247.557H300.364V244.875C300.364 244.653 300.292 244.473 300.148 244.337C300.003 244.2 299.817 244.131 299.589 244.131C299.433 244.131 299.287 244.173 299.151 244.256C299.017 244.339 298.908 244.455 298.825 244.603C298.743 244.749 298.702 244.918 298.702 245.11V247.557H298.101ZM305.982 247.639C305.604 247.639 305.279 247.555 305.005 247.389C304.733 247.221 304.523 246.986 304.376 246.685C304.229 246.383 304.156 246.031 304.156 245.63C304.156 245.229 304.229 244.875 304.376 244.569C304.523 244.262 304.729 244.022 304.992 243.851C305.258 243.677 305.567 243.591 305.92 243.591C306.124 243.591 306.326 243.625 306.525 243.693C306.723 243.761 306.904 243.871 307.067 244.024C307.231 244.175 307.361 244.376 307.458 244.626C307.554 244.875 307.603 245.183 307.603 245.548V245.803H304.585V245.283H306.991C306.991 245.062 306.947 244.865 306.858 244.692C306.772 244.518 306.648 244.382 306.486 244.281C306.327 244.181 306.138 244.131 305.92 244.131C305.681 244.131 305.473 244.19 305.298 244.309C305.125 244.427 304.992 244.58 304.898 244.768C304.805 244.957 304.758 245.159 304.758 245.375V245.722C304.758 246.017 304.809 246.268 304.911 246.474C305.015 246.678 305.158 246.833 305.342 246.94C305.525 247.046 305.738 247.098 305.982 247.098C306.14 247.098 306.282 247.076 306.41 247.032C306.539 246.986 306.65 246.918 306.744 246.828C306.837 246.736 306.909 246.622 306.96 246.486L307.542 246.65C307.48 246.847 307.378 247.02 307.233 247.17C307.089 247.318 306.91 247.433 306.698 247.516C306.485 247.598 306.247 247.639 305.982 247.639Z" fill="#3F4346"/>
<rect x="279.845" y="301.216" width="125.625" height="27.9964" rx="2.5125" fill="white"/>
<path d="M288.857 318.714V318.072L291.269 315.431C291.552 315.122 291.786 314.853 291.969 314.624C292.152 314.394 292.288 314.177 292.376 313.975C292.466 313.77 292.511 313.556 292.511 313.332C292.511 313.075 292.449 312.853 292.326 312.665C292.204 312.477 292.038 312.332 291.826 312.23C291.614 312.127 291.376 312.076 291.112 312.076C290.831 312.076 290.586 312.134 290.377 312.251C290.17 312.365 290.009 312.526 289.895 312.733C289.783 312.94 289.728 313.183 289.728 313.461H288.885C288.885 313.033 288.984 312.657 289.181 312.333C289.379 312.01 289.648 311.757 289.988 311.577C290.331 311.396 290.715 311.305 291.141 311.305C291.569 311.305 291.949 311.396 292.279 311.577C292.61 311.757 292.869 312.001 293.057 312.308C293.245 312.615 293.339 312.956 293.339 313.332C293.339 313.601 293.29 313.864 293.193 314.121C293.098 314.376 292.931 314.66 292.693 314.974C292.458 315.286 292.131 315.666 291.712 316.116L290.07 317.872V317.929H293.468V318.714H288.857Z" fill="#3F4346"/>
<rect x="279.845" y="301.216" width="125.625" height="27.9964" rx="2.5125" stroke="#D5D9DC" stroke-width="0.717857"/>
<rect width="36.7429" height="9" transform="translate(285.229 296.55)" fill="white"/>
<path d="M290.343 303.55H288.732V298.329H290.415C290.921 298.329 291.355 298.434 291.715 298.643C292.075 298.85 292.351 299.148 292.543 299.538C292.735 299.925 292.831 300.389 292.831 300.929C292.831 301.473 292.735 301.941 292.541 302.334C292.347 302.725 292.065 303.026 291.694 303.236C291.324 303.445 290.874 303.55 290.343 303.55ZM289.365 302.989H290.303C290.734 302.989 291.092 302.906 291.376 302.739C291.66 302.573 291.871 302.336 292.011 302.028C292.15 301.721 292.22 301.354 292.22 300.929C292.22 300.508 292.151 300.145 292.013 299.841C291.875 299.535 291.67 299.3 291.396 299.137C291.123 298.972 290.782 298.89 290.374 298.89H289.365V302.989ZM295.452 303.632C295.075 303.632 294.749 303.548 294.476 303.382C294.204 303.213 293.994 302.979 293.846 302.678C293.7 302.376 293.627 302.024 293.627 301.623C293.627 301.222 293.7 300.868 293.846 300.562C293.994 300.255 294.2 300.015 294.463 299.843C294.728 299.67 295.037 299.583 295.391 299.583C295.595 299.583 295.796 299.617 295.995 299.685C296.194 299.753 296.375 299.864 296.538 300.017C296.701 300.168 296.831 300.369 296.928 300.618C297.025 300.868 297.073 301.176 297.073 301.541V301.796H294.055V301.276H296.462C296.462 301.055 296.417 300.858 296.329 300.685C296.242 300.511 296.118 300.375 295.957 300.274C295.797 300.174 295.608 300.124 295.391 300.124C295.151 300.124 294.944 300.183 294.769 300.302C294.595 300.42 294.462 300.573 294.369 300.761C294.275 300.95 294.228 301.152 294.228 301.368V301.715C294.228 302.01 294.279 302.261 294.381 302.467C294.485 302.671 294.629 302.826 294.812 302.933C294.996 303.038 295.209 303.091 295.452 303.091C295.61 303.091 295.753 303.069 295.88 303.025C296.009 302.979 296.121 302.911 296.214 302.821C296.308 302.729 296.38 302.615 296.431 302.479L297.012 302.642C296.951 302.84 296.848 303.013 296.704 303.163C296.559 303.31 296.381 303.426 296.168 303.509C295.956 303.591 295.717 303.632 295.452 303.632ZM298.59 298.329V303.55H297.988V298.329H298.59ZM300.844 303.642C300.596 303.642 300.371 303.595 300.169 303.502C299.966 303.406 299.806 303.27 299.687 303.091C299.568 302.911 299.508 302.693 299.508 302.439C299.508 302.214 299.553 302.032 299.641 301.893C299.729 301.752 299.847 301.641 299.995 301.562C300.143 301.482 300.306 301.422 300.485 301.383C300.665 301.342 300.846 301.31 301.028 301.286C301.266 301.256 301.459 301.233 301.606 301.217C301.756 301.2 301.865 301.172 301.933 301.133C302.002 301.094 302.037 301.026 302.037 300.929V300.909C302.037 300.657 301.968 300.462 301.831 300.323C301.695 300.183 301.488 300.114 301.211 300.114C300.924 300.114 300.699 300.177 300.536 300.302C300.373 300.428 300.258 300.562 300.192 300.705L299.621 300.501C299.723 300.263 299.859 300.078 300.028 299.945C300.2 299.811 300.387 299.718 300.589 299.665C300.793 299.611 300.994 299.583 301.191 299.583C301.317 299.583 301.461 299.599 301.624 299.629C301.789 299.658 301.948 299.719 302.101 299.81C302.256 299.902 302.384 300.041 302.486 300.226C302.588 300.411 302.639 300.659 302.639 300.97V303.55H302.037V303.02H302.007C301.966 303.105 301.898 303.196 301.803 303.293C301.708 303.389 301.581 303.472 301.423 303.54C301.265 303.608 301.072 303.642 300.844 303.642ZM300.936 303.101C301.174 303.101 301.374 303.055 301.538 302.961C301.702 302.868 301.827 302.747 301.91 302.599C301.995 302.451 302.037 302.296 302.037 302.133V301.582C302.012 301.613 301.956 301.641 301.869 301.666C301.784 301.69 301.685 301.711 301.573 301.73C301.463 301.747 301.355 301.762 301.25 301.776C301.146 301.788 301.062 301.798 300.997 301.806C300.841 301.827 300.695 301.86 300.559 301.906C300.424 301.95 300.316 302.017 300.232 302.107C300.151 302.196 300.11 302.316 300.11 302.469C300.11 302.678 300.187 302.836 300.342 302.943C300.498 303.049 300.696 303.101 300.936 303.101ZM303.984 305.018C303.882 305.018 303.791 305.01 303.711 304.993C303.632 304.978 303.576 304.962 303.546 304.947L303.699 304.417C303.845 304.454 303.974 304.468 304.086 304.458C304.198 304.447 304.298 304.397 304.384 304.307C304.473 304.219 304.554 304.075 304.627 303.876L304.739 303.57L303.291 299.634H303.943L305.024 302.755H305.065L306.146 299.634H306.799L305.136 304.121C305.062 304.323 304.969 304.491 304.859 304.623C304.748 304.757 304.62 304.857 304.474 304.921C304.329 304.986 304.166 305.018 303.984 305.018ZM311.355 299.634V300.144H309.245V299.634H311.355ZM309.877 303.55V299.094C309.877 298.87 309.929 298.683 310.035 298.533C310.14 298.384 310.277 298.271 310.445 298.197C310.613 298.122 310.791 298.084 310.978 298.084C311.126 298.084 311.246 298.096 311.34 298.12C311.433 298.144 311.503 298.166 311.549 298.186L311.376 298.706C311.345 298.696 311.303 298.684 311.248 298.668C311.196 298.653 311.126 298.645 311.039 298.645C310.84 298.645 310.697 298.695 310.608 298.796C310.522 298.896 310.478 299.043 310.478 299.237V303.55H309.877ZM313.628 303.632C313.274 303.632 312.964 303.547 312.697 303.379C312.432 303.211 312.225 302.976 312.075 302.673C311.928 302.371 311.854 302.017 311.854 301.613C311.854 301.205 311.928 300.849 312.075 300.544C312.225 300.24 312.432 300.004 312.697 299.836C312.964 299.668 313.274 299.583 313.628 299.583C313.981 299.583 314.291 299.668 314.556 299.836C314.823 300.004 315.03 300.24 315.178 300.544C315.327 300.849 315.402 301.205 315.402 301.613C315.402 302.017 315.327 302.371 315.178 302.673C315.03 302.976 314.823 303.211 314.556 303.379C314.291 303.547 313.981 303.632 313.628 303.632ZM313.628 303.091C313.896 303.091 314.117 303.022 314.291 302.885C314.464 302.747 314.592 302.566 314.676 302.342C314.759 302.117 314.801 301.874 314.801 301.613C314.801 301.351 314.759 301.107 314.676 300.881C314.592 300.655 314.464 300.472 314.291 300.333C314.117 300.194 313.896 300.124 313.628 300.124C313.359 300.124 313.138 300.194 312.965 300.333C312.792 300.472 312.663 300.655 312.58 300.881C312.497 301.107 312.455 301.351 312.455 301.613C312.455 301.874 312.497 302.117 312.58 302.342C312.663 302.566 312.792 302.747 312.965 302.885C313.138 303.022 313.359 303.091 313.628 303.091ZM316.32 303.55V299.634H316.902V300.226H316.942C317.014 300.032 317.143 299.875 317.33 299.754C317.517 299.634 317.728 299.573 317.962 299.573C318.006 299.573 318.062 299.574 318.128 299.576C318.194 299.577 318.244 299.58 318.278 299.583V300.195C318.258 300.19 318.211 300.182 318.138 300.172C318.067 300.16 317.991 300.154 317.911 300.154C317.721 300.154 317.551 300.194 317.401 300.274C317.253 300.352 317.136 300.461 317.05 300.601C316.965 300.738 316.922 300.895 316.922 301.072V303.55H316.32Z" fill="#3F4346"/>
<rect x="417.673" y="301.216" width="125.625" height="27.9964" rx="2.5125" fill="white"/>
<path d="M426.814 318.714V311.405H427.699V314.66H431.596V311.405H432.481V318.714H431.596V315.445H427.699V318.714H426.814ZM436.366 318.828C435.871 318.828 435.437 318.711 435.063 318.475C434.692 318.24 434.402 317.91 434.192 317.487C433.985 317.063 433.882 316.568 433.882 316.002C433.882 315.431 433.985 314.932 434.192 314.507C434.402 314.081 434.692 313.75 435.063 313.514C435.437 313.279 435.871 313.161 436.366 313.161C436.861 313.161 437.294 313.279 437.665 313.514C438.039 313.75 438.329 314.081 438.536 314.507C438.745 314.932 438.85 315.431 438.85 316.002C438.85 316.568 438.745 317.063 438.536 317.487C438.329 317.91 438.039 318.24 437.665 318.475C437.294 318.711 436.861 318.828 436.366 318.828ZM436.366 318.072C436.742 318.072 437.051 317.976 437.294 317.783C437.537 317.59 437.716 317.337 437.833 317.023C437.949 316.709 438.008 316.368 438.008 316.002C438.008 315.636 437.949 315.294 437.833 314.978C437.716 314.661 437.537 314.405 437.294 314.21C437.051 314.015 436.742 313.918 436.366 313.918C435.99 313.918 435.681 314.015 435.438 314.21C435.195 314.405 435.016 314.661 434.899 314.978C434.783 315.294 434.724 315.636 434.724 316.002C434.724 316.368 434.783 316.709 434.899 317.023C435.016 317.337 435.195 317.59 435.438 317.783C435.681 317.976 435.99 318.072 436.366 318.072ZM443.59 316.473V313.232H444.433V318.714H443.59V317.786H443.533C443.405 318.065 443.205 318.301 442.934 318.497C442.662 318.689 442.32 318.786 441.906 318.786C441.563 318.786 441.259 318.711 440.992 318.561C440.726 318.409 440.516 318.18 440.364 317.876C440.212 317.569 440.136 317.182 440.136 316.716V313.232H440.978V316.659C440.978 317.058 441.09 317.377 441.313 317.615C441.539 317.853 441.827 317.972 442.177 317.972C442.386 317.972 442.599 317.918 442.816 317.811C443.035 317.704 443.218 317.54 443.365 317.319C443.515 317.098 443.59 316.816 443.59 316.473ZM445.975 318.714V313.232H446.789V314.06H446.846C446.946 313.789 447.127 313.569 447.388 313.4C447.65 313.231 447.945 313.147 448.274 313.147C448.335 313.147 448.413 313.148 448.506 313.15C448.598 313.153 448.669 313.156 448.716 313.161V314.018C448.688 314.01 448.622 314 448.52 313.986C448.42 313.969 448.314 313.961 448.202 313.961C447.936 313.961 447.698 314.016 447.488 314.128C447.281 314.238 447.117 314.39 446.996 314.585C446.877 314.778 446.817 314.998 446.817 315.245V318.714H445.975ZM453.597 314.46L452.841 314.674C452.793 314.548 452.723 314.426 452.63 314.307C452.54 314.185 452.416 314.085 452.259 314.007C452.102 313.928 451.901 313.889 451.656 313.889C451.32 313.889 451.041 313.966 450.817 314.121C450.596 314.273 450.485 314.467 450.485 314.703C450.485 314.912 450.561 315.078 450.714 315.199C450.866 315.32 451.104 315.421 451.428 315.502L452.241 315.702C452.731 315.821 453.097 316.003 453.337 316.248C453.577 316.491 453.697 316.804 453.697 317.187C453.697 317.501 453.607 317.782 453.426 318.029C453.248 318.277 452.998 318.472 452.677 318.614C452.355 318.757 451.982 318.828 451.556 318.828C450.997 318.828 450.534 318.707 450.168 318.464C449.801 318.222 449.569 317.867 449.472 317.401L450.271 317.201C450.347 317.496 450.491 317.717 450.703 317.865C450.917 318.012 451.197 318.086 451.542 318.086C451.934 318.086 452.246 318.003 452.477 317.836C452.71 317.667 452.827 317.465 452.827 317.23C452.827 317.039 452.76 316.88 452.627 316.751C452.493 316.621 452.289 316.523 452.013 316.459L451.099 316.245C450.597 316.126 450.228 315.941 449.993 315.691C449.76 315.439 449.643 315.124 449.643 314.746C449.643 314.436 449.73 314.163 449.904 313.925C450.08 313.687 450.319 313.5 450.621 313.365C450.926 313.229 451.271 313.161 451.656 313.161C452.198 313.161 452.624 313.28 452.934 313.518C453.245 313.756 453.467 314.07 453.597 314.46Z" fill="#3F4346"/>
<g clip-path="url(#clip1_1653_25750)">
<path d="M533.482 313.174L530.736 315.914L527.99 313.174L527.147 314.018L530.736 317.607L534.325 314.018L533.482 313.174Z" fill="#5D6164"/>
</g>
<rect x="417.673" y="301.216" width="125.625" height="27.9964" rx="2.5125" stroke="#D5D9DC" stroke-width="0.717857"/>
<rect width="11.7429" height="9" transform="translate(423.057 296.55)" fill="white"/>
<path d="M426.479 303.55V299.634H427.081V303.55H426.479ZM426.785 298.982C426.668 298.982 426.567 298.942 426.482 298.862C426.399 298.782 426.357 298.686 426.357 298.574C426.357 298.462 426.399 298.366 426.482 298.286C426.567 298.206 426.668 298.166 426.785 298.166C426.903 298.166 427.003 298.206 427.086 298.286C427.171 298.366 427.214 298.462 427.214 298.574C427.214 298.686 427.171 298.782 427.086 298.862C427.003 298.942 426.903 298.982 426.785 298.982ZM428.784 301.195V303.55H428.183V299.634H428.764V300.246H428.815C428.907 300.047 429.046 299.888 429.233 299.767C429.42 299.645 429.661 299.583 429.957 299.583C430.222 299.583 430.454 299.638 430.653 299.747C430.852 299.854 431.007 300.017 431.117 300.236C431.227 300.454 431.283 300.729 431.283 301.062V303.55H430.681V301.103C430.681 300.795 430.601 300.556 430.441 300.384C430.282 300.211 430.062 300.124 429.784 300.124C429.592 300.124 429.42 300.165 429.269 300.249C429.119 300.332 429.001 300.454 428.914 300.613C428.828 300.773 428.784 300.967 428.784 301.195Z" fill="#3F4346"/>
<rect x="279.486" y="349.671" width="46.9714" height="25.8429" rx="2.87143" fill="#1157A6"/>
<path d="M295.761 360.704C295.723 360.366 295.566 360.104 295.29 359.919C295.014 359.731 294.666 359.637 294.247 359.637C293.948 359.637 293.688 359.684 293.469 359.779C293.251 359.872 293.08 360.001 292.959 360.165C292.84 360.327 292.781 360.511 292.781 360.718C292.781 360.892 292.821 361.042 292.902 361.168C292.985 361.294 293.093 361.4 293.227 361.485C293.362 361.569 293.507 361.639 293.662 361.696C293.817 361.751 293.965 361.796 294.108 361.832L294.822 362.017C295.055 362.074 295.294 362.152 295.539 362.249C295.784 362.347 296.012 362.475 296.221 362.635C296.43 362.794 296.599 362.991 296.728 363.227C296.859 363.463 296.924 363.744 296.924 364.073C296.924 364.487 296.817 364.854 296.603 365.176C296.391 365.497 296.083 365.75 295.679 365.936C295.276 366.121 294.79 366.214 294.219 366.214C293.672 366.214 293.198 366.127 292.798 365.954C292.399 365.78 292.086 365.534 291.86 365.215C291.634 364.894 291.509 364.513 291.485 364.073H292.591C292.613 364.337 292.699 364.557 292.848 364.733C293.001 364.907 293.195 365.036 293.43 365.122C293.668 365.205 293.929 365.247 294.212 365.247C294.523 365.247 294.801 365.198 295.043 365.101C295.288 365.001 295.481 364.863 295.621 364.687C295.762 364.508 295.832 364.3 295.832 364.062C295.832 363.846 295.77 363.668 295.646 363.53C295.525 363.392 295.36 363.278 295.15 363.188C294.943 363.097 294.709 363.018 294.447 362.949L293.584 362.713C292.998 362.554 292.534 362.319 292.192 362.01C291.852 361.701 291.681 361.291 291.681 360.782C291.681 360.361 291.796 359.994 292.024 359.679C292.252 359.365 292.562 359.122 292.952 358.948C293.342 358.772 293.782 358.684 294.272 358.684C294.767 358.684 295.204 358.771 295.582 358.944C295.963 359.118 296.263 359.357 296.482 359.662C296.7 359.964 296.815 360.311 296.824 360.704H295.761ZM299.752 366.214C299.404 366.214 299.09 366.15 298.809 366.021C298.529 365.891 298.306 365.701 298.142 365.454C297.98 365.206 297.899 364.903 297.899 364.544C297.899 364.235 297.959 363.98 298.078 363.78C298.197 363.58 298.357 363.422 298.56 363.305C298.762 363.189 298.988 363.101 299.238 363.041C299.487 362.982 299.742 362.937 300.001 362.906C300.33 362.868 300.596 362.837 300.801 362.813C301.005 362.787 301.154 362.745 301.247 362.688C301.34 362.631 301.386 362.538 301.386 362.41V362.385C301.386 362.073 301.298 361.832 301.122 361.66C300.948 361.489 300.689 361.403 300.344 361.403C299.985 361.403 299.702 361.483 299.495 361.642C299.29 361.799 299.148 361.974 299.07 362.167L298.067 361.939C298.186 361.605 298.36 361.337 298.588 361.132C298.819 360.925 299.084 360.775 299.384 360.682C299.684 360.587 299.999 360.54 300.33 360.54C300.549 360.54 300.781 360.566 301.026 360.618C301.273 360.668 301.504 360.761 301.718 360.896C301.935 361.032 302.112 361.226 302.25 361.478C302.388 361.728 302.457 362.053 302.457 362.453V366.093H301.415V365.343H301.372C301.303 365.481 301.199 365.617 301.061 365.75C300.923 365.883 300.746 365.994 300.53 366.082C300.313 366.17 300.054 366.214 299.752 366.214ZM299.984 365.358C300.279 365.358 300.531 365.299 300.74 365.183C300.952 365.066 301.112 364.914 301.222 364.726C301.334 364.536 301.39 364.332 301.39 364.116V363.409C301.352 363.447 301.278 363.483 301.168 363.516C301.061 363.547 300.939 363.574 300.801 363.598C300.663 363.62 300.528 363.64 300.398 363.659C300.267 363.675 300.157 363.69 300.069 363.702C299.862 363.728 299.673 363.772 299.502 363.834C299.333 363.896 299.197 363.985 299.095 364.101C298.995 364.216 298.945 364.368 298.945 364.558C298.945 364.822 299.043 365.022 299.238 365.158C299.433 365.291 299.681 365.358 299.984 365.358ZM308.371 360.611L306.383 366.093H305.241L303.25 360.611H304.396L305.784 364.829H305.841L307.226 360.611H308.371ZM311.55 366.203C311.01 366.203 310.545 366.088 310.155 365.857C309.767 365.624 309.467 365.297 309.256 364.876C309.046 364.452 308.941 363.956 308.941 363.388C308.941 362.826 309.046 362.331 309.256 361.903C309.467 361.475 309.762 361.14 310.141 360.9C310.521 360.66 310.966 360.54 311.475 360.54C311.785 360.54 312.084 360.591 312.375 360.693C312.665 360.795 312.926 360.956 313.156 361.175C313.387 361.394 313.569 361.678 313.702 362.028C313.836 362.375 313.902 362.797 313.902 363.295V363.673H309.545V362.874H312.857C312.857 362.593 312.799 362.344 312.685 362.128C312.571 361.909 312.41 361.736 312.203 361.61C311.999 361.484 311.758 361.421 311.483 361.421C311.183 361.421 310.921 361.495 310.697 361.642C310.476 361.788 310.305 361.978 310.183 362.213C310.064 362.447 310.005 362.7 310.005 362.974V363.598C310.005 363.965 310.069 364.276 310.198 364.533C310.329 364.79 310.511 364.986 310.744 365.122C310.977 365.255 311.249 365.322 311.561 365.322C311.763 365.322 311.948 365.293 312.114 365.236C312.281 365.177 312.425 365.089 312.546 364.972C312.667 364.856 312.76 364.712 312.824 364.54L313.834 364.722C313.754 365.02 313.608 365.28 313.399 365.504C313.192 365.725 312.931 365.898 312.617 366.021C312.306 366.143 311.95 366.203 311.55 366.203Z" fill="white"/>
</g>
<rect x="268.359" y="186.359" width="286.425" height="200.282" rx="5.38393" stroke="#D5D9DC" stroke-width="0.717857"/>
</g>
<defs>
<filter id="filter0_ddd_1653_25750" x="78" y="253" width="256" height="136" filterUnits="userSpaceOnUse" color-interpolation-filters="sRGB">
<feFlood flood-opacity="0" result="BackgroundImageFix"/>
<feColorMatrix in="SourceAlpha" type="matrix" values="0 0 0 0 0 0 0 0 0 0 0 0 0 0 0 0 0 0 127 0" result="hardAlpha"/>
<feOffset dy="1"/>
<feGaussianBlur stdDeviation="1.5"/>
<feColorMatrix type="matrix" values="0 0 0 0 0 0 0 0 0 0 0 0 0 0 0 0 0 0 0.2 0"/>
<feBlend mode="normal" in2="BackgroundImageFix" result="effect1_dropShadow_1653_25750"/>
<feColorMatrix in="SourceAlpha" type="matrix" values="0 0 0 0 0 0 0 0 0 0 0 0 0 0 0 0 0 0 127 0" result="hardAlpha"/>
<feOffset dy="2"/>
<feGaussianBlur stdDeviation="0.5"/>
<feColorMatrix type="matrix" values="0 0 0 0 0 0 0 0 0 0 0 0 0 0 0 0 0 0 0.12 0"/>
<feBlend mode="normal" in2="effect1_dropShadow_1653_25750" result="effect2_dropShadow_1653_25750"/>
<feColorMatrix in="SourceAlpha" type="matrix" values="0 0 0 0 0 0 0 0 0 0 0 0 0 0 0 0 0 0 127 0" result="hardAlpha"/>
<feOffset dy="1"/>
<feGaussianBlur stdDeviation="0.5"/>
<feColorMatrix type="matrix" values="0 0 0 0 0 0 0 0 0 0 0 0 0 0 0 0 0 0 0.14 0"/>
<feBlend mode="normal" in2="effect2_dropShadow_1653_25750" result="effect3_dropShadow_1653_25750"/>
<feBlend mode="normal" in="SourceGraphic" in2="effect3_dropShadow_1653_25750" result="shape"/>
</filter>
<filter id="filter1_ddd_1653_25750" x="44.7801" y="85.5201" width="189.43" height="93.2351" filterUnits="userSpaceOnUse" color-interpolation-filters="sRGB">
<feFlood flood-opacity="0" result="BackgroundImageFix"/>
<feColorMatrix in="SourceAlpha" type="matrix" values="0 0 0 0 0 0 0 0 0 0 0 0 0 0 0 0 0 0 127 0" result="hardAlpha"/>
<feOffset dy="0.739962"/>
<feGaussianBlur stdDeviation="1.10994"/>
<feColorMatrix type="matrix" values="0 0 0 0 0 0 0 0 0 0 0 0 0 0 0 0 0 0 0.2 0"/>
<feBlend mode="normal" in2="BackgroundImageFix" result="effect1_dropShadow_1653_25750"/>
<feColorMatrix in="SourceAlpha" type="matrix" values="0 0 0 0 0 0 0 0 0 0 0 0 0 0 0 0 0 0 127 0" result="hardAlpha"/>
<feOffset dy="1.47992"/>
<feGaussianBlur stdDeviation="0.369981"/>
<feColorMatrix type="matrix" values="0 0 0 0 0 0 0 0 0 0 0 0 0 0 0 0 0 0 0.12 0"/>
<feBlend mode="normal" in2="effect1_dropShadow_1653_25750" result="effect2_dropShadow_1653_25750"/>
<feColorMatrix in="SourceAlpha" type="matrix" values="0 0 0 0 0 0 0 0 0 0 0 0 0 0 0 0 0 0 127 0" result="hardAlpha"/>
<feOffset dy="0.739962"/>
<feGaussianBlur stdDeviation="0.369981"/>
<feColorMatrix type="matrix" values="0 0 0 0 0 0 0 0 0 0 0 0 0 0 0 0 0 0 0.14 0"/>
<feBlend mode="normal" in2="effect2_dropShadow_1653_25750" result="effect3_dropShadow_1653_25750"/>
<feBlend mode="normal" in="SourceGraphic" in2="effect3_dropShadow_1653_25750" result="shape"/>
</filter>
<filter id="filter2_d_1653_25750" x="260" y="186" width="295.143" height="209" filterUnits="userSpaceOnUse" color-interpolation-filters="sRGB">
<feFlood flood-opacity="0" result="BackgroundImageFix"/>
<feColorMatrix in="SourceAlpha" type="matrix" values="0 0 0 0 0 0 0 0 0 0 0 0 0 0 0 0 0 0 127 0" result="hardAlpha"/>
<feOffset dx="-4" dy="4"/>
<feGaussianBlur stdDeviation="2"/>
<feComposite in2="hardAlpha" operator="out"/>
<feColorMatrix type="matrix" values="0 0 0 0 0 0 0 0 0 0 0 0 0 0 0 0 0 0 0.25 0"/>
<feBlend mode="normal" in2="BackgroundImageFix" result="effect1_dropShadow_1653_25750"/>
<feBlend mode="normal" in="SourceGraphic" in2="effect1_dropShadow_1653_25750" result="shape"/>
</filter>
<clipPath id="clip0_1653_25750">
<rect x="268" y="186" width="287.143" height="201" rx="5.74286" fill="white"/>
</clipPath>
<clipPath id="clip1_1653_25750">
<rect width="14.3571" height="14.3571" fill="white" transform="translate(523.557 308.036)"/>
</clipPath>
</defs>
</svg>
