<svg width="611" height="458" viewBox="0 0 611 458" fill="none" xmlns="http://www.w3.org/2000/svg">
<circle cx="134" cy="261" r="47" stroke="#3A74B5" stroke-width="6"/>
<path d="M134 233.5C132.011 233.5 130.103 234.29 128.697 235.697C127.29 237.103 126.5 239.011 126.5 241V261C126.5 262.989 127.29 264.897 128.697 266.303C130.103 267.71 132.011 268.5 134 268.5C135.989 268.5 137.897 267.71 139.303 266.303C140.71 264.897 141.5 262.989 141.5 261V241C141.5 239.011 140.71 237.103 139.303 235.697C137.897 234.29 135.989 233.5 134 233.5Z" stroke="#3A74B5" stroke-width="5" stroke-linecap="round" stroke-linejoin="round"/>
<path d="M151.5 256V261C151.5 265.641 149.656 270.092 146.374 273.374C143.092 276.656 138.641 278.5 134 278.5C129.359 278.5 124.908 276.656 121.626 273.374C118.344 270.092 116.5 265.641 116.5 261V256" stroke="#3A74B5" stroke-width="5" stroke-linecap="round" stroke-linejoin="round"/>
<path d="M134 278.5V288.5" stroke="#3A74B5" stroke-width="5" stroke-linecap="round" stroke-linejoin="round"/>
<path d="M124 288.5H144" stroke="#3A74B5" stroke-width="5" stroke-linecap="round" stroke-linejoin="round"/>
<circle cx="463" cy="261" r="47" stroke="#3A74B5" stroke-width="6"/>
<path d="M460.5 243.5L448 253.5H438V268.5H448L460.5 278.5V243.5Z" stroke="#3A74B5" stroke-width="5" stroke-linecap="round" stroke-linejoin="round"/>
<path d="M480.675 243.325C485.362 248.013 487.995 254.371 487.995 261C487.995 267.629 485.362 273.987 480.675 278.675M471.85 252.15C474.193 254.494 475.51 257.673 475.51 260.988C475.51 264.302 474.193 267.481 471.85 269.825" stroke="#3A74B5" stroke-width="5" stroke-linecap="round" stroke-linejoin="round"/>
<circle cx="296" cy="121" r="47" stroke="#3A74B5" stroke-width="6"/>
<path d="M276 101H316C318.75 101 321 103.25 321 106V136C321 138.75 318.75 141 316 141H276C273.25 141 271 138.75 271 136V106C271 103.25 273.25 101 276 101Z" stroke="#3A74B5" stroke-width="5" stroke-linecap="round" stroke-linejoin="round"/>
<path d="M321 106L296 123.5L271 106" stroke="#3A74B5" stroke-width="5" stroke-linecap="round" stroke-linejoin="round"/>
<path d="M74.5875 340V325.6H80.5375C80.6775 325.6 80.8575 325.607 81.0775 325.62C81.2975 325.627 81.5008 325.647 81.6875 325.68C82.5208 325.807 83.2075 326.083 83.7475 326.51C84.2942 326.937 84.6975 327.477 84.9575 328.13C85.2242 328.777 85.3575 329.497 85.3575 330.29C85.3575 331.463 85.0608 332.473 84.4675 333.32C83.8742 334.16 82.9642 334.68 81.7375 334.88L80.7075 334.97H76.9975V340H74.5875ZM82.8575 340L80.0175 334.14L82.4675 333.6L85.5875 340H82.8575ZM76.9975 332.72H80.4375C80.5708 332.72 80.7208 332.713 80.8875 332.7C81.0542 332.687 81.2075 332.66 81.3475 332.62C81.7475 332.52 82.0608 332.343 82.2875 332.09C82.5208 331.837 82.6842 331.55 82.7775 331.23C82.8775 330.91 82.9275 330.597 82.9275 330.29C82.9275 329.983 82.8775 329.67 82.7775 329.35C82.6842 329.023 82.5208 328.733 82.2875 328.48C82.0608 328.227 81.7475 328.05 81.3475 327.95C81.2075 327.91 81.0542 327.887 80.8875 327.88C80.7208 327.867 80.5708 327.86 80.4375 327.86H76.9975V332.72ZM92.7006 340.3C91.6073 340.3 90.6473 340.063 89.8206 339.59C88.994 339.117 88.3473 338.46 87.8806 337.62C87.4206 336.78 87.1906 335.813 87.1906 334.72C87.1906 333.54 87.4173 332.517 87.8706 331.65C88.324 330.777 88.954 330.1 89.7606 329.62C90.5673 329.14 91.5006 328.9 92.5606 328.9C93.6806 328.9 94.6306 329.163 95.4106 329.69C96.1973 330.21 96.7806 330.947 97.1606 331.9C97.5406 332.853 97.684 333.977 97.5906 335.27H95.2006V334.39C95.194 333.217 94.9873 332.36 94.5806 331.82C94.174 331.28 93.534 331.01 92.6606 331.01C91.674 331.01 90.9406 331.317 90.4606 331.93C89.9806 332.537 89.7406 333.427 89.7406 334.6C89.7406 335.693 89.9806 336.54 90.4606 337.14C90.9406 337.74 91.6406 338.04 92.5606 338.04C93.154 338.04 93.664 337.91 94.0906 337.65C94.524 337.383 94.8573 337 95.0906 336.5L97.4706 337.22C97.0573 338.193 96.4173 338.95 95.5506 339.49C94.6906 340.03 93.7406 340.3 92.7006 340.3ZM88.9806 335.27V333.45H96.4106V335.27H88.9806ZM104.512 340.3C103.399 340.3 102.449 340.053 101.662 339.56C100.875 339.06 100.272 338.38 99.8519 337.52C99.4385 336.66 99.2285 335.687 99.2219 334.6C99.2285 333.493 99.4452 332.513 99.8719 331.66C100.305 330.8 100.919 330.127 101.712 329.64C102.505 329.147 103.449 328.9 104.542 328.9C105.769 328.9 106.805 329.21 107.652 329.83C108.505 330.443 109.062 331.283 109.322 332.35L106.922 333C106.735 332.42 106.425 331.97 105.992 331.65C105.559 331.323 105.065 331.16 104.512 331.16C103.885 331.16 103.369 331.31 102.962 331.61C102.555 331.903 102.255 332.31 102.062 332.83C101.869 333.35 101.772 333.94 101.772 334.6C101.772 335.627 102.002 336.457 102.462 337.09C102.922 337.723 103.605 338.04 104.512 338.04C105.152 338.04 105.655 337.893 106.022 337.6C106.395 337.307 106.675 336.883 106.862 336.33L109.322 336.88C108.989 337.98 108.405 338.827 107.572 339.42C106.739 340.007 105.719 340.3 104.512 340.3ZM115.803 340.3C114.723 340.3 113.779 340.057 112.973 339.57C112.166 339.083 111.539 338.413 111.093 337.56C110.653 336.7 110.433 335.713 110.433 334.6C110.433 333.467 110.659 332.473 111.113 331.62C111.566 330.767 112.196 330.1 113.003 329.62C113.809 329.14 114.743 328.9 115.803 328.9C116.889 328.9 117.836 329.143 118.643 329.63C119.449 330.117 120.076 330.79 120.523 331.65C120.969 332.503 121.193 333.487 121.193 334.6C121.193 335.72 120.966 336.71 120.513 337.57C120.066 338.423 119.439 339.093 118.633 339.58C117.826 340.06 116.883 340.3 115.803 340.3ZM115.803 338.04C116.763 338.04 117.476 337.72 117.943 337.08C118.409 336.44 118.643 335.613 118.643 334.6C118.643 333.553 118.406 332.72 117.933 332.1C117.459 331.473 116.749 331.16 115.803 331.16C115.156 331.16 114.623 331.307 114.203 331.6C113.789 331.887 113.483 332.29 113.283 332.81C113.083 333.323 112.983 333.92 112.983 334.6C112.983 335.647 113.219 336.483 113.693 337.11C114.173 337.73 114.876 338.04 115.803 338.04ZM123.396 340V329.2H125.526V331.83L125.266 331.49C125.399 331.13 125.576 330.803 125.796 330.51C126.023 330.21 126.293 329.963 126.606 329.77C126.873 329.59 127.166 329.45 127.486 329.35C127.813 329.243 128.146 329.18 128.486 329.16C128.826 329.133 129.156 329.147 129.476 329.2V331.45C129.156 331.357 128.786 331.327 128.366 331.36C127.953 331.393 127.579 331.51 127.246 331.71C126.913 331.89 126.639 332.12 126.426 332.4C126.219 332.68 126.066 333 125.966 333.36C125.866 333.713 125.816 334.097 125.816 334.51V340H123.396ZM135.519 340.3C134.526 340.3 133.659 340.05 132.919 339.55C132.179 339.05 131.606 338.37 131.199 337.51C130.792 336.65 130.589 335.68 130.589 334.6C130.589 333.507 130.792 332.533 131.199 331.68C131.612 330.82 132.196 330.143 132.949 329.65C133.702 329.15 134.589 328.9 135.609 328.9C136.636 328.9 137.496 329.15 138.189 329.65C138.889 330.143 139.419 330.82 139.779 331.68C140.139 332.54 140.319 333.513 140.319 334.6C140.319 335.673 140.139 336.643 139.779 337.51C139.419 338.37 138.882 339.05 138.169 339.55C137.456 340.05 136.572 340.3 135.519 340.3ZM135.889 338.14C136.536 338.14 137.056 337.993 137.449 337.7C137.849 337.4 138.139 336.983 138.319 336.45C138.506 335.917 138.599 335.3 138.599 334.6C138.599 333.893 138.506 333.277 138.319 332.75C138.139 332.217 137.856 331.803 137.469 331.51C137.082 331.21 136.582 331.06 135.969 331.06C135.322 331.06 134.789 331.22 134.369 331.54C133.949 331.853 133.639 332.28 133.439 332.82C133.239 333.353 133.139 333.947 133.139 334.6C133.139 335.26 133.236 335.86 133.429 336.4C133.629 336.933 133.932 337.357 134.339 337.67C134.746 337.983 135.262 338.14 135.889 338.14ZM138.599 340V332.42H138.299V325.6H140.729V340H138.599ZM148.957 344.8L151.037 339.09L151.077 340.77L146.367 329.2H148.877L152.217 337.76H151.577L154.827 329.2H157.237L151.217 344.8H148.957ZM163.108 340.3C162.028 340.3 161.084 340.057 160.278 339.57C159.471 339.083 158.844 338.413 158.398 337.56C157.958 336.7 157.738 335.713 157.738 334.6C157.738 333.467 157.964 332.473 158.418 331.62C158.871 330.767 159.501 330.1 160.308 329.62C161.114 329.14 162.048 328.9 163.108 328.9C164.194 328.9 165.141 329.143 165.948 329.63C166.754 330.117 167.381 330.79 167.828 331.65C168.274 332.503 168.498 333.487 168.498 334.6C168.498 335.72 168.271 336.71 167.818 337.57C167.371 338.423 166.744 339.093 165.938 339.58C165.131 340.06 164.188 340.3 163.108 340.3ZM163.108 338.04C164.068 338.04 164.781 337.72 165.248 337.08C165.714 336.44 165.948 335.613 165.948 334.6C165.948 333.553 165.711 332.72 165.238 332.1C164.764 331.473 164.054 331.16 163.108 331.16C162.461 331.16 161.928 331.307 161.508 331.6C161.094 331.887 160.788 332.29 160.588 332.81C160.388 333.323 160.288 333.92 160.288 334.6C160.288 335.647 160.524 336.483 160.998 337.11C161.478 337.73 162.181 338.04 163.108 338.04ZM174.751 340.31C173.951 340.31 173.291 340.177 172.771 339.91C172.251 339.643 171.837 339.303 171.531 338.89C171.224 338.477 170.997 338.037 170.851 337.57C170.704 337.103 170.607 336.663 170.561 336.25C170.521 335.83 170.501 335.49 170.501 335.23V329.2H172.941V334.4C172.941 334.733 172.964 335.11 173.011 335.53C173.057 335.943 173.164 336.343 173.331 336.73C173.504 337.11 173.757 337.423 174.091 337.67C174.431 337.917 174.887 338.04 175.461 338.04C175.767 338.04 176.071 337.99 176.371 337.89C176.671 337.79 176.941 337.62 177.181 337.38C177.427 337.133 177.624 336.797 177.771 336.37C177.917 335.943 177.991 335.403 177.991 334.75L179.421 335.36C179.421 336.28 179.241 337.113 178.881 337.86C178.527 338.607 178.004 339.203 177.311 339.65C176.617 340.09 175.764 340.31 174.751 340.31ZM178.281 340V336.65H177.991V329.2H180.411V340H178.281ZM183.22 340V329.2H185.35V331.83L185.09 331.49C185.224 331.13 185.4 330.803 185.62 330.51C185.847 330.21 186.117 329.963 186.43 329.77C186.697 329.59 186.99 329.45 187.31 329.35C187.637 329.243 187.97 329.18 188.31 329.16C188.65 329.133 188.98 329.147 189.3 329.2V331.45C188.98 331.357 188.61 331.327 188.19 331.36C187.777 331.393 187.404 331.51 187.07 331.71C186.737 331.89 186.464 332.12 186.25 332.4C186.044 332.68 185.89 333 185.79 333.36C185.69 333.713 185.64 334.097 185.64 334.51V340H183.22ZM91.5699 367V352.6H93.7399L98.7199 362.8L103.7 352.6H105.87V367H103.62V357.77L99.1999 367H98.2399L93.8299 357.77V367H91.5699ZM113.589 367.3C112.496 367.3 111.536 367.063 110.709 366.59C109.883 366.117 109.236 365.46 108.769 364.62C108.309 363.78 108.079 362.813 108.079 361.72C108.079 360.54 108.306 359.517 108.759 358.65C109.213 357.777 109.843 357.1 110.649 356.62C111.456 356.14 112.389 355.9 113.449 355.9C114.569 355.9 115.519 356.163 116.299 356.69C117.086 357.21 117.669 357.947 118.049 358.9C118.429 359.853 118.573 360.977 118.479 362.27H116.089V361.39C116.083 360.217 115.876 359.36 115.469 358.82C115.063 358.28 114.423 358.01 113.549 358.01C112.563 358.01 111.829 358.317 111.349 358.93C110.869 359.537 110.629 360.427 110.629 361.6C110.629 362.693 110.869 363.54 111.349 364.14C111.829 364.74 112.529 365.04 113.449 365.04C114.043 365.04 114.553 364.91 114.979 364.65C115.413 364.383 115.746 364 115.979 363.5L118.359 364.22C117.946 365.193 117.306 365.95 116.439 366.49C115.579 367.03 114.629 367.3 113.589 367.3ZM109.869 362.27V360.45H117.299V362.27H109.869ZM124.881 367.3C123.547 367.3 122.464 367 121.631 366.4C120.797 365.8 120.291 364.957 120.111 363.87L122.571 363.49C122.697 364.023 122.977 364.443 123.411 364.75C123.844 365.057 124.391 365.21 125.051 365.21C125.631 365.21 126.077 365.097 126.391 364.87C126.711 364.637 126.871 364.32 126.871 363.92C126.871 363.673 126.811 363.477 126.691 363.33C126.577 363.177 126.324 363.03 125.931 362.89C125.537 362.75 124.934 362.573 124.121 362.36C123.214 362.12 122.494 361.863 121.961 361.59C121.427 361.31 121.044 360.98 120.811 360.6C120.577 360.22 120.461 359.76 120.461 359.22C120.461 358.547 120.637 357.96 120.991 357.46C121.344 356.96 121.837 356.577 122.471 356.31C123.104 356.037 123.851 355.9 124.711 355.9C125.551 355.9 126.294 356.03 126.941 356.29C127.594 356.55 128.121 356.92 128.521 357.4C128.921 357.88 129.167 358.443 129.261 359.09L126.801 359.53C126.741 359.07 126.531 358.707 126.171 358.44C125.817 358.173 125.344 358.023 124.751 357.99C124.184 357.957 123.727 358.043 123.381 358.25C123.034 358.45 122.861 358.733 122.861 359.1C122.861 359.307 122.931 359.483 123.071 359.63C123.211 359.777 123.491 359.923 123.911 360.07C124.337 360.217 124.971 360.397 125.811 360.61C126.671 360.83 127.357 361.083 127.871 361.37C128.391 361.65 128.764 361.987 128.991 362.38C129.224 362.773 129.341 363.25 129.341 363.81C129.341 364.897 128.944 365.75 128.151 366.37C127.364 366.99 126.274 367.3 124.881 367.3ZM135.701 367.3C134.368 367.3 133.284 367 132.451 366.4C131.618 365.8 131.111 364.957 130.931 363.87L133.391 363.49C133.518 364.023 133.798 364.443 134.231 364.75C134.664 365.057 135.211 365.21 135.871 365.21C136.451 365.21 136.898 365.097 137.211 364.87C137.531 364.637 137.691 364.32 137.691 363.92C137.691 363.673 137.631 363.477 137.511 363.33C137.398 363.177 137.144 363.03 136.751 362.89C136.358 362.75 135.754 362.573 134.941 362.36C134.034 362.12 133.314 361.863 132.781 361.59C132.248 361.31 131.864 360.98 131.631 360.6C131.398 360.22 131.281 359.76 131.281 359.22C131.281 358.547 131.458 357.96 131.811 357.46C132.164 356.96 132.658 356.577 133.291 356.31C133.924 356.037 134.671 355.9 135.531 355.9C136.371 355.9 137.114 356.03 137.761 356.29C138.414 356.55 138.941 356.92 139.341 357.4C139.741 357.88 139.988 358.443 140.081 359.09L137.621 359.53C137.561 359.07 137.351 358.707 136.991 358.44C136.638 358.173 136.164 358.023 135.571 357.99C135.004 357.957 134.548 358.043 134.201 358.25C133.854 358.45 133.681 358.733 133.681 359.1C133.681 359.307 133.751 359.483 133.891 359.63C134.031 359.777 134.311 359.923 134.731 360.07C135.158 360.217 135.791 360.397 136.631 360.61C137.491 360.83 138.178 361.083 138.691 361.37C139.211 361.65 139.584 361.987 139.811 362.38C140.044 362.773 140.161 363.25 140.161 363.81C140.161 364.897 139.764 365.75 138.971 366.37C138.184 366.99 137.094 367.3 135.701 367.3ZM145.371 367.3C144.591 367.3 143.931 367.153 143.391 366.86C142.851 366.56 142.441 366.163 142.161 365.67C141.888 365.177 141.751 364.633 141.751 364.04C141.751 363.52 141.838 363.053 142.011 362.64C142.185 362.22 142.451 361.86 142.811 361.56C143.171 361.253 143.638 361.003 144.211 360.81C144.645 360.67 145.151 360.543 145.731 360.43C146.318 360.317 146.951 360.213 147.631 360.12C148.318 360.02 149.035 359.913 149.781 359.8L148.921 360.29C148.928 359.543 148.761 358.993 148.421 358.64C148.081 358.287 147.508 358.11 146.701 358.11C146.215 358.11 145.745 358.223 145.291 358.45C144.838 358.677 144.521 359.067 144.341 359.62L142.141 358.93C142.408 358.017 142.915 357.283 143.661 356.73C144.415 356.177 145.428 355.9 146.701 355.9C147.661 355.9 148.505 356.057 149.231 356.37C149.965 356.683 150.508 357.197 150.861 357.91C151.055 358.29 151.171 358.68 151.211 359.08C151.251 359.473 151.271 359.903 151.271 360.37V367H149.161V364.66L149.511 365.04C149.025 365.82 148.455 366.393 147.801 366.76C147.155 367.12 146.345 367.3 145.371 367.3ZM145.851 365.38C146.398 365.38 146.865 365.283 147.251 365.09C147.638 364.897 147.945 364.66 148.171 364.38C148.405 364.1 148.561 363.837 148.641 363.59C148.768 363.283 148.838 362.933 148.851 362.54C148.871 362.14 148.881 361.817 148.881 361.57L149.621 361.79C148.895 361.903 148.271 362.003 147.751 362.09C147.231 362.177 146.785 362.26 146.411 362.34C146.038 362.413 145.708 362.497 145.421 362.59C145.141 362.69 144.905 362.807 144.711 362.94C144.518 363.073 144.368 363.227 144.261 363.4C144.161 363.573 144.111 363.777 144.111 364.01C144.111 364.277 144.178 364.513 144.311 364.72C144.445 364.92 144.638 365.08 144.891 365.2C145.151 365.32 145.471 365.38 145.851 365.38ZM158.415 372.1C157.815 372.1 157.238 372.007 156.685 371.82C156.138 371.633 155.645 371.363 155.205 371.01C154.765 370.663 154.405 370.243 154.125 369.75L156.345 368.65C156.551 369.043 156.841 369.333 157.215 369.52C157.595 369.713 157.998 369.81 158.425 369.81C158.925 369.81 159.371 369.72 159.765 369.54C160.158 369.367 160.461 369.107 160.675 368.76C160.895 368.42 160.998 367.993 160.985 367.48V364.41H161.285V356.2H163.395V367.52C163.395 367.793 163.381 368.053 163.355 368.3C163.335 368.553 163.298 368.8 163.245 369.04C163.085 369.74 162.778 370.313 162.325 370.76C161.871 371.213 161.308 371.55 160.635 371.77C159.968 371.99 159.228 372.1 158.415 372.1ZM158.205 367.3C157.211 367.3 156.345 367.05 155.605 366.55C154.865 366.05 154.291 365.37 153.885 364.51C153.478 363.65 153.275 362.68 153.275 361.6C153.275 360.507 153.478 359.533 153.885 358.68C154.298 357.82 154.881 357.143 155.635 356.65C156.388 356.15 157.275 355.9 158.295 355.9C159.321 355.9 160.181 356.15 160.875 356.65C161.575 357.143 162.105 357.82 162.465 358.68C162.825 359.54 163.005 360.513 163.005 361.6C163.005 362.673 162.825 363.643 162.465 364.51C162.105 365.37 161.568 366.05 160.855 366.55C160.141 367.05 159.258 367.3 158.205 367.3ZM158.575 365.14C159.221 365.14 159.741 364.993 160.135 364.7C160.535 364.4 160.825 363.983 161.005 363.45C161.191 362.917 161.285 362.3 161.285 361.6C161.285 360.893 161.191 360.277 161.005 359.75C160.825 359.217 160.541 358.803 160.155 358.51C159.768 358.21 159.268 358.06 158.655 358.06C158.008 358.06 157.475 358.22 157.055 358.54C156.635 358.853 156.325 359.28 156.125 359.82C155.925 360.353 155.825 360.947 155.825 361.6C155.825 362.26 155.921 362.86 156.115 363.4C156.315 363.933 156.618 364.357 157.025 364.67C157.431 364.983 157.948 365.14 158.575 365.14ZM171.109 367.3C170.015 367.3 169.055 367.063 168.229 366.59C167.402 366.117 166.755 365.46 166.289 364.62C165.829 363.78 165.599 362.813 165.599 361.72C165.599 360.54 165.825 359.517 166.279 358.65C166.732 357.777 167.362 357.1 168.169 356.62C168.975 356.14 169.909 355.9 170.969 355.9C172.089 355.9 173.039 356.163 173.819 356.69C174.605 357.21 175.189 357.947 175.569 358.9C175.949 359.853 176.092 360.977 175.999 362.27H173.609V361.39C173.602 360.217 173.395 359.36 172.989 358.82C172.582 358.28 171.942 358.01 171.069 358.01C170.082 358.01 169.349 358.317 168.869 358.93C168.389 359.537 168.149 360.427 168.149 361.6C168.149 362.693 168.389 363.54 168.869 364.14C169.349 364.74 170.049 365.04 170.969 365.04C171.562 365.04 172.072 364.91 172.499 364.65C172.932 364.383 173.265 364 173.499 363.5L175.879 364.22C175.465 365.193 174.825 365.95 173.959 366.49C173.099 367.03 172.149 367.3 171.109 367.3ZM167.389 362.27V360.45H174.819V362.27H167.389Z" fill="black"/>
<path d="M218.605 201.3C217.165 201.3 215.932 200.987 214.905 200.36C213.879 199.727 213.089 198.847 212.535 197.72C211.989 196.593 211.715 195.287 211.715 193.8C211.715 192.313 211.989 191.007 212.535 189.88C213.089 188.753 213.879 187.877 214.905 187.25C215.932 186.617 217.165 186.3 218.605 186.3C220.265 186.3 221.649 186.717 222.755 187.55C223.862 188.377 224.639 189.493 225.085 190.9L222.655 191.57C222.375 190.63 221.899 189.897 221.225 189.37C220.552 188.837 219.679 188.57 218.605 188.57C217.639 188.57 216.832 188.787 216.185 189.22C215.545 189.653 215.062 190.263 214.735 191.05C214.415 191.83 214.252 192.747 214.245 193.8C214.245 194.853 214.405 195.773 214.725 196.56C215.052 197.34 215.539 197.947 216.185 198.38C216.832 198.813 217.639 199.03 218.605 199.03C219.679 199.03 220.552 198.763 221.225 198.23C221.899 197.697 222.375 196.963 222.655 196.03L225.085 196.7C224.639 198.107 223.862 199.227 222.755 200.06C221.649 200.887 220.265 201.3 218.605 201.3ZM227.281 201V190.2H229.411V192.83L229.151 192.49C229.284 192.13 229.461 191.803 229.681 191.51C229.908 191.21 230.178 190.963 230.491 190.77C230.758 190.59 231.051 190.45 231.371 190.35C231.698 190.243 232.031 190.18 232.371 190.16C232.711 190.133 233.041 190.147 233.361 190.2V192.45C233.041 192.357 232.671 192.327 232.251 192.36C231.838 192.393 231.464 192.51 231.131 192.71C230.798 192.89 230.524 193.12 230.311 193.4C230.104 193.68 229.951 194 229.851 194.36C229.751 194.713 229.701 195.097 229.701 195.51V201H227.281ZM239.984 201.3C238.89 201.3 237.93 201.063 237.104 200.59C236.277 200.117 235.63 199.46 235.164 198.62C234.704 197.78 234.474 196.813 234.474 195.72C234.474 194.54 234.7 193.517 235.154 192.65C235.607 191.777 236.237 191.1 237.044 190.62C237.85 190.14 238.784 189.9 239.844 189.9C240.964 189.9 241.914 190.163 242.694 190.69C243.48 191.21 244.064 191.947 244.444 192.9C244.824 193.853 244.967 194.977 244.874 196.27H242.484V195.39C242.477 194.217 242.27 193.36 241.864 192.82C241.457 192.28 240.817 192.01 239.944 192.01C238.957 192.01 238.224 192.317 237.744 192.93C237.264 193.537 237.024 194.427 237.024 195.6C237.024 196.693 237.264 197.54 237.744 198.14C238.224 198.74 238.924 199.04 239.844 199.04C240.437 199.04 240.947 198.91 241.374 198.65C241.807 198.383 242.14 198 242.374 197.5L244.754 198.22C244.34 199.193 243.7 199.95 242.834 200.49C241.974 201.03 241.024 201.3 239.984 201.3ZM236.264 196.27V194.45H243.694V196.27H236.264ZM249.93 201.3C249.15 201.3 248.49 201.153 247.95 200.86C247.41 200.56 247 200.163 246.72 199.67C246.446 199.177 246.31 198.633 246.31 198.04C246.31 197.52 246.396 197.053 246.57 196.64C246.743 196.22 247.01 195.86 247.37 195.56C247.73 195.253 248.196 195.003 248.77 194.81C249.203 194.67 249.71 194.543 250.29 194.43C250.876 194.317 251.51 194.213 252.19 194.12C252.876 194.02 253.593 193.913 254.34 193.8L253.48 194.29C253.486 193.543 253.32 192.993 252.98 192.64C252.64 192.287 252.066 192.11 251.26 192.11C250.773 192.11 250.303 192.223 249.85 192.45C249.396 192.677 249.08 193.067 248.9 193.62L246.7 192.93C246.966 192.017 247.473 191.283 248.22 190.73C248.973 190.177 249.986 189.9 251.26 189.9C252.22 189.9 253.063 190.057 253.79 190.37C254.523 190.683 255.066 191.197 255.42 191.91C255.613 192.29 255.73 192.68 255.77 193.08C255.81 193.473 255.83 193.903 255.83 194.37V201H253.72V198.66L254.07 199.04C253.583 199.82 253.013 200.393 252.36 200.76C251.713 201.12 250.903 201.3 249.93 201.3ZM250.41 199.38C250.956 199.38 251.423 199.283 251.81 199.09C252.196 198.897 252.503 198.66 252.73 198.38C252.963 198.1 253.12 197.837 253.2 197.59C253.326 197.283 253.396 196.933 253.41 196.54C253.43 196.14 253.44 195.817 253.44 195.57L254.18 195.79C253.453 195.903 252.83 196.003 252.31 196.09C251.79 196.177 251.343 196.26 250.97 196.34C250.596 196.413 250.266 196.497 249.98 196.59C249.7 196.69 249.463 196.807 249.27 196.94C249.076 197.073 248.926 197.227 248.82 197.4C248.72 197.573 248.67 197.777 248.67 198.01C248.67 198.277 248.736 198.513 248.87 198.72C249.003 198.92 249.196 199.08 249.45 199.2C249.71 199.32 250.03 199.38 250.41 199.38ZM264.763 201C264.05 201.133 263.35 201.19 262.663 201.17C261.983 201.157 261.373 201.033 260.833 200.8C260.293 200.56 259.883 200.183 259.603 199.67C259.357 199.203 259.227 198.727 259.213 198.24C259.2 197.753 259.193 197.203 259.193 196.59V187.2H261.593V196.45C261.593 196.883 261.597 197.263 261.603 197.59C261.617 197.917 261.687 198.183 261.813 198.39C262.053 198.79 262.437 199.013 262.963 199.06C263.49 199.107 264.09 199.08 264.763 198.98V201ZM257.233 192.09V190.2H264.763V192.09H257.233ZM271.449 201.3C270.355 201.3 269.395 201.063 268.569 200.59C267.742 200.117 267.095 199.46 266.629 198.62C266.169 197.78 265.939 196.813 265.939 195.72C265.939 194.54 266.165 193.517 266.619 192.65C267.072 191.777 267.702 191.1 268.509 190.62C269.315 190.14 270.249 189.9 271.309 189.9C272.429 189.9 273.379 190.163 274.159 190.69C274.945 191.21 275.529 191.947 275.909 192.9C276.289 193.853 276.432 194.977 276.339 196.27H273.949V195.39C273.942 194.217 273.735 193.36 273.329 192.82C272.922 192.28 272.282 192.01 271.409 192.01C270.422 192.01 269.689 192.317 269.209 192.93C268.729 193.537 268.489 194.427 268.489 195.6C268.489 196.693 268.729 197.54 269.209 198.14C269.689 198.74 270.389 199.04 271.309 199.04C271.902 199.04 272.412 198.91 272.839 198.65C273.272 198.383 273.605 198 273.839 197.5L276.219 198.22C275.805 199.193 275.165 199.95 274.299 200.49C273.439 201.03 272.489 201.3 271.449 201.3ZM267.729 196.27V194.45H275.159V196.27H267.729ZM282.574 201V186.6H288.524C288.664 186.6 288.844 186.607 289.064 186.62C289.284 186.627 289.487 186.647 289.674 186.68C290.507 186.807 291.194 187.083 291.734 187.51C292.28 187.937 292.684 188.477 292.944 189.13C293.21 189.777 293.344 190.497 293.344 191.29C293.344 192.463 293.047 193.473 292.454 194.32C291.86 195.16 290.95 195.68 289.724 195.88L288.694 195.97H284.984V201H282.574ZM290.844 201L288.004 195.14L290.454 194.6L293.574 201H290.844ZM284.984 193.72H288.424C288.557 193.72 288.707 193.713 288.874 193.7C289.04 193.687 289.194 193.66 289.334 193.62C289.734 193.52 290.047 193.343 290.274 193.09C290.507 192.837 290.67 192.55 290.764 192.23C290.864 191.91 290.914 191.597 290.914 191.29C290.914 190.983 290.864 190.67 290.764 190.35C290.67 190.023 290.507 189.733 290.274 189.48C290.047 189.227 289.734 189.05 289.334 188.95C289.194 188.91 289.04 188.887 288.874 188.88C288.707 188.867 288.557 188.86 288.424 188.86H284.984V193.72ZM300.687 201.3C299.594 201.3 298.634 201.063 297.807 200.59C296.98 200.117 296.334 199.46 295.867 198.62C295.407 197.78 295.177 196.813 295.177 195.72C295.177 194.54 295.404 193.517 295.857 192.65C296.31 191.777 296.94 191.1 297.747 190.62C298.554 190.14 299.487 189.9 300.547 189.9C301.667 189.9 302.617 190.163 303.397 190.69C304.184 191.21 304.767 191.947 305.147 192.9C305.527 193.853 305.67 194.977 305.577 196.27H303.187V195.39C303.18 194.217 302.974 193.36 302.567 192.82C302.16 192.28 301.52 192.01 300.647 192.01C299.66 192.01 298.927 192.317 298.447 192.93C297.967 193.537 297.727 194.427 297.727 195.6C297.727 196.693 297.967 197.54 298.447 198.14C298.927 198.74 299.627 199.04 300.547 199.04C301.14 199.04 301.65 198.91 302.077 198.65C302.51 198.383 302.844 198 303.077 197.5L305.457 198.22C305.044 199.193 304.404 199.95 303.537 200.49C302.677 201.03 301.727 201.3 300.687 201.3ZM296.967 196.27V194.45H304.397V196.27H296.967ZM312.498 201.3C311.385 201.3 310.435 201.053 309.648 200.56C308.862 200.06 308.258 199.38 307.838 198.52C307.425 197.66 307.215 196.687 307.208 195.6C307.215 194.493 307.432 193.513 307.858 192.66C308.292 191.8 308.905 191.127 309.698 190.64C310.492 190.147 311.435 189.9 312.528 189.9C313.755 189.9 314.792 190.21 315.638 190.83C316.492 191.443 317.048 192.283 317.308 193.35L314.908 194C314.722 193.42 314.412 192.97 313.978 192.65C313.545 192.323 313.052 192.16 312.498 192.16C311.872 192.16 311.355 192.31 310.948 192.61C310.542 192.903 310.242 193.31 310.048 193.83C309.855 194.35 309.758 194.94 309.758 195.6C309.758 196.627 309.988 197.457 310.448 198.09C310.908 198.723 311.592 199.04 312.498 199.04C313.138 199.04 313.642 198.893 314.008 198.6C314.382 198.307 314.662 197.883 314.848 197.33L317.308 197.88C316.975 198.98 316.392 199.827 315.558 200.42C314.725 201.007 313.705 201.3 312.498 201.3ZM319.219 188.56V186.35H321.629V188.56H319.219ZM319.219 201V190.2H321.629V201H319.219ZM329.815 201.3C328.761 201.3 327.878 201.05 327.165 200.55C326.451 200.05 325.915 199.37 325.555 198.51C325.195 197.643 325.015 196.673 325.015 195.6C325.015 194.513 325.195 193.54 325.555 192.68C325.915 191.82 326.441 191.143 327.135 190.65C327.835 190.15 328.698 189.9 329.725 189.9C330.745 189.9 331.628 190.15 332.375 190.65C333.128 191.143 333.711 191.82 334.125 192.68C334.538 193.533 334.745 194.507 334.745 195.6C334.745 196.68 334.541 197.65 334.135 198.51C333.728 199.37 333.155 200.05 332.415 200.55C331.675 201.05 330.808 201.3 329.815 201.3ZM324.605 205.8V190.2H326.735V197.78H327.035V205.8H324.605ZM329.445 199.14C330.071 199.14 330.588 198.983 330.995 198.67C331.401 198.357 331.701 197.933 331.895 197.4C332.095 196.86 332.195 196.26 332.195 195.6C332.195 194.947 332.095 194.353 331.895 193.82C331.695 193.28 331.385 192.853 330.965 192.54C330.545 192.22 330.011 192.06 329.365 192.06C328.751 192.06 328.251 192.21 327.865 192.51C327.478 192.803 327.191 193.217 327.005 193.75C326.825 194.277 326.735 194.893 326.735 195.6C326.735 196.3 326.825 196.917 327.005 197.45C327.191 197.983 327.481 198.4 327.875 198.7C328.275 198.993 328.798 199.14 329.445 199.14ZM337.149 188.56V186.35H339.559V188.56H337.149ZM337.149 201V190.2H339.559V201H337.149ZM347.464 201.3C346.371 201.3 345.411 201.063 344.584 200.59C343.758 200.117 343.111 199.46 342.644 198.62C342.184 197.78 341.954 196.813 341.954 195.72C341.954 194.54 342.181 193.517 342.634 192.65C343.088 191.777 343.718 191.1 344.524 190.62C345.331 190.14 346.264 189.9 347.324 189.9C348.444 189.9 349.394 190.163 350.174 190.69C350.961 191.21 351.544 191.947 351.924 192.9C352.304 193.853 352.448 194.977 352.354 196.27H349.964V195.39C349.958 194.217 349.751 193.36 349.344 192.82C348.938 192.28 348.298 192.01 347.424 192.01C346.438 192.01 345.704 192.317 345.224 192.93C344.744 193.537 344.504 194.427 344.504 195.6C344.504 196.693 344.744 197.54 345.224 198.14C345.704 198.74 346.404 199.04 347.324 199.04C347.918 199.04 348.428 198.91 348.854 198.65C349.288 198.383 349.621 198 349.854 197.5L352.234 198.22C351.821 199.193 351.181 199.95 350.314 200.49C349.454 201.03 348.504 201.3 347.464 201.3ZM343.744 196.27V194.45H351.174V196.27H343.744ZM361.763 201V195.8C361.763 195.46 361.739 195.083 361.693 194.67C361.646 194.257 361.536 193.86 361.363 193.48C361.196 193.093 360.943 192.777 360.603 192.53C360.269 192.283 359.816 192.16 359.243 192.16C358.936 192.16 358.633 192.21 358.333 192.31C358.033 192.41 357.759 192.583 357.513 192.83C357.273 193.07 357.079 193.403 356.933 193.83C356.786 194.25 356.713 194.79 356.713 195.45L355.283 194.84C355.283 193.92 355.459 193.087 355.813 192.34C356.173 191.593 356.699 191 357.393 190.56C358.086 190.113 358.939 189.89 359.953 189.89C360.753 189.89 361.413 190.023 361.933 190.29C362.453 190.557 362.866 190.897 363.173 191.31C363.479 191.723 363.706 192.163 363.853 192.63C363.999 193.097 364.093 193.54 364.133 193.96C364.179 194.373 364.203 194.71 364.203 194.97V201H361.763ZM354.273 201V190.2H356.423V193.55H356.713V201H354.273ZM373.142 201C372.429 201.133 371.729 201.19 371.042 201.17C370.362 201.157 369.752 201.033 369.212 200.8C368.672 200.56 368.262 200.183 367.982 199.67C367.735 199.203 367.605 198.727 367.592 198.24C367.579 197.753 367.572 197.203 367.572 196.59V187.2H369.972V196.45C369.972 196.883 369.975 197.263 369.982 197.59C369.995 197.917 370.065 198.183 370.192 198.39C370.432 198.79 370.815 199.013 371.342 199.06C371.869 199.107 372.469 199.08 373.142 198.98V201ZM365.612 192.09V190.2H373.142V192.09H365.612ZM379.634 201.3C378.301 201.3 377.218 201 376.384 200.4C375.551 199.8 375.044 198.957 374.864 197.87L377.324 197.49C377.451 198.023 377.731 198.443 378.164 198.75C378.598 199.057 379.144 199.21 379.804 199.21C380.384 199.21 380.831 199.097 381.144 198.87C381.464 198.637 381.624 198.32 381.624 197.92C381.624 197.673 381.564 197.477 381.444 197.33C381.331 197.177 381.078 197.03 380.684 196.89C380.291 196.75 379.688 196.573 378.874 196.36C377.968 196.12 377.248 195.863 376.714 195.59C376.181 195.31 375.798 194.98 375.564 194.6C375.331 194.22 375.214 193.76 375.214 193.22C375.214 192.547 375.391 191.96 375.744 191.46C376.098 190.96 376.591 190.577 377.224 190.31C377.858 190.037 378.604 189.9 379.464 189.9C380.304 189.9 381.048 190.03 381.694 190.29C382.348 190.55 382.874 190.92 383.274 191.4C383.674 191.88 383.921 192.443 384.014 193.09L381.554 193.53C381.494 193.07 381.284 192.707 380.924 192.44C380.571 192.173 380.098 192.023 379.504 191.99C378.938 191.957 378.481 192.043 378.134 192.25C377.788 192.45 377.614 192.733 377.614 193.1C377.614 193.307 377.684 193.483 377.824 193.63C377.964 193.777 378.244 193.923 378.664 194.07C379.091 194.217 379.724 194.397 380.564 194.61C381.424 194.83 382.111 195.083 382.624 195.37C383.144 195.65 383.518 195.987 383.744 196.38C383.978 196.773 384.094 197.25 384.094 197.81C384.094 198.897 383.698 199.75 382.904 200.37C382.118 200.99 381.028 201.3 379.634 201.3ZM257.527 228.3C256.747 228.3 256.087 228.153 255.547 227.86C255.007 227.56 254.597 227.163 254.317 226.67C254.044 226.177 253.907 225.633 253.907 225.04C253.907 224.52 253.994 224.053 254.167 223.64C254.341 223.22 254.607 222.86 254.967 222.56C255.327 222.253 255.794 222.003 256.367 221.81C256.801 221.67 257.307 221.543 257.887 221.43C258.474 221.317 259.107 221.213 259.787 221.12C260.474 221.02 261.191 220.913 261.937 220.8L261.077 221.29C261.084 220.543 260.917 219.993 260.577 219.64C260.237 219.287 259.664 219.11 258.857 219.11C258.371 219.11 257.901 219.223 257.447 219.45C256.994 219.677 256.677 220.067 256.497 220.62L254.297 219.93C254.564 219.017 255.071 218.283 255.817 217.73C256.571 217.177 257.584 216.9 258.857 216.9C259.817 216.9 260.661 217.057 261.387 217.37C262.121 217.683 262.664 218.197 263.017 218.91C263.211 219.29 263.327 219.68 263.367 220.08C263.407 220.473 263.427 220.903 263.427 221.37V228H261.317V225.66L261.667 226.04C261.181 226.82 260.611 227.393 259.957 227.76C259.311 228.12 258.501 228.3 257.527 228.3ZM258.007 226.38C258.554 226.38 259.021 226.283 259.407 226.09C259.794 225.897 260.101 225.66 260.327 225.38C260.561 225.1 260.717 224.837 260.797 224.59C260.924 224.283 260.994 223.933 261.007 223.54C261.027 223.14 261.037 222.817 261.037 222.57L261.777 222.79C261.051 222.903 260.427 223.003 259.907 223.09C259.387 223.177 258.941 223.26 258.567 223.34C258.194 223.413 257.864 223.497 257.577 223.59C257.297 223.69 257.061 223.807 256.867 223.94C256.674 224.073 256.524 224.227 256.417 224.4C256.317 224.573 256.267 224.777 256.267 225.01C256.267 225.277 256.334 225.513 256.467 225.72C256.601 225.92 256.794 226.08 257.047 226.2C257.307 226.32 257.627 226.38 258.007 226.38ZM273.501 228V222.8C273.501 222.46 273.478 222.083 273.431 221.67C273.384 221.257 273.274 220.86 273.101 220.48C272.934 220.093 272.681 219.777 272.341 219.53C272.008 219.283 271.554 219.16 270.981 219.16C270.674 219.16 270.371 219.21 270.071 219.31C269.771 219.41 269.498 219.583 269.251 219.83C269.011 220.07 268.818 220.403 268.671 220.83C268.524 221.25 268.451 221.79 268.451 222.45L267.021 221.84C267.021 220.92 267.198 220.087 267.551 219.34C267.911 218.593 268.438 218 269.131 217.56C269.824 217.113 270.678 216.89 271.691 216.89C272.491 216.89 273.151 217.023 273.671 217.29C274.191 217.557 274.604 217.897 274.911 218.31C275.218 218.723 275.444 219.163 275.591 219.63C275.738 220.097 275.831 220.54 275.871 220.96C275.918 221.373 275.941 221.71 275.941 221.97V228H273.501ZM266.011 228V217.2H268.161V220.55H268.451V228H266.011ZM282.705 228.3C281.711 228.3 280.845 228.05 280.105 227.55C279.365 227.05 278.791 226.37 278.385 225.51C277.978 224.65 277.775 223.68 277.775 222.6C277.775 221.507 277.978 220.533 278.385 219.68C278.798 218.82 279.381 218.143 280.135 217.65C280.888 217.15 281.775 216.9 282.795 216.9C283.821 216.9 284.681 217.15 285.375 217.65C286.075 218.143 286.605 218.82 286.965 219.68C287.325 220.54 287.505 221.513 287.505 222.6C287.505 223.673 287.325 224.643 286.965 225.51C286.605 226.37 286.068 227.05 285.355 227.55C284.641 228.05 283.758 228.3 282.705 228.3ZM283.075 226.14C283.721 226.14 284.241 225.993 284.635 225.7C285.035 225.4 285.325 224.983 285.505 224.45C285.691 223.917 285.785 223.3 285.785 222.6C285.785 221.893 285.691 221.277 285.505 220.75C285.325 220.217 285.041 219.803 284.655 219.51C284.268 219.21 283.768 219.06 283.155 219.06C282.508 219.06 281.975 219.22 281.555 219.54C281.135 219.853 280.825 220.28 280.625 220.82C280.425 221.353 280.325 221.947 280.325 222.6C280.325 223.26 280.421 223.86 280.615 224.4C280.815 224.933 281.118 225.357 281.525 225.67C281.931 225.983 282.448 226.14 283.075 226.14ZM285.785 228V220.42H285.485V213.6H287.915V228H285.785ZM300.052 228.3C298.999 228.3 298.049 228.117 297.202 227.75C296.362 227.383 295.669 226.86 295.122 226.18C294.582 225.493 294.239 224.68 294.092 223.74L296.592 223.36C296.806 224.213 297.242 224.873 297.902 225.34C298.569 225.807 299.336 226.04 300.202 226.04C300.716 226.04 301.199 225.96 301.652 225.8C302.106 225.64 302.472 225.407 302.752 225.1C303.039 224.793 303.182 224.417 303.182 223.97C303.182 223.77 303.149 223.587 303.082 223.42C303.016 223.247 302.916 223.093 302.782 222.96C302.656 222.827 302.489 222.707 302.282 222.6C302.082 222.487 301.849 222.39 301.582 222.31L297.862 221.21C297.542 221.117 297.196 220.993 296.822 220.84C296.456 220.68 296.106 220.463 295.772 220.19C295.446 219.91 295.176 219.557 294.962 219.13C294.756 218.697 294.652 218.163 294.652 217.53C294.652 216.603 294.886 215.827 295.352 215.2C295.826 214.567 296.459 214.093 297.252 213.78C298.052 213.467 298.939 213.313 299.912 213.32C300.899 213.327 301.779 213.497 302.552 213.83C303.326 214.157 303.972 214.633 304.492 215.26C305.012 215.887 305.379 216.643 305.592 217.53L303.002 217.98C302.896 217.473 302.689 217.043 302.382 216.69C302.082 216.33 301.712 216.057 301.272 215.87C300.839 215.683 300.376 215.583 299.882 215.57C299.402 215.563 298.956 215.637 298.542 215.79C298.136 215.937 297.806 216.15 297.552 216.43C297.306 216.71 297.182 217.037 297.182 217.41C297.182 217.763 297.289 218.053 297.502 218.28C297.716 218.5 297.979 218.677 298.292 218.81C298.612 218.937 298.936 219.043 299.262 219.13L301.842 219.85C302.196 219.943 302.592 220.07 303.032 220.23C303.472 220.39 303.896 220.613 304.302 220.9C304.709 221.187 305.042 221.563 305.302 222.03C305.569 222.497 305.702 223.09 305.702 223.81C305.702 224.557 305.546 225.213 305.232 225.78C304.926 226.34 304.509 226.807 303.982 227.18C303.456 227.553 302.852 227.833 302.172 228.02C301.499 228.207 300.792 228.3 300.052 228.3ZM312.777 228.3C311.683 228.3 310.723 228.063 309.897 227.59C309.07 227.117 308.423 226.46 307.957 225.62C307.497 224.78 307.267 223.813 307.267 222.72C307.267 221.54 307.493 220.517 307.947 219.65C308.4 218.777 309.03 218.1 309.837 217.62C310.643 217.14 311.577 216.9 312.637 216.9C313.757 216.9 314.707 217.163 315.487 217.69C316.273 218.21 316.857 218.947 317.237 219.9C317.617 220.853 317.76 221.977 317.667 223.27H315.277V222.39C315.27 221.217 315.063 220.36 314.657 219.82C314.25 219.28 313.61 219.01 312.737 219.01C311.75 219.01 311.017 219.317 310.537 219.93C310.057 220.537 309.817 221.427 309.817 222.6C309.817 223.693 310.057 224.54 310.537 225.14C311.017 225.74 311.717 226.04 312.637 226.04C313.23 226.04 313.74 225.91 314.167 225.65C314.6 225.383 314.933 225 315.167 224.5L317.547 225.22C317.133 226.193 316.493 226.95 315.627 227.49C314.767 228.03 313.817 228.3 312.777 228.3ZM309.057 223.27V221.45H316.487V223.27H309.057ZM327.075 228V222.8C327.075 222.46 327.052 222.083 327.005 221.67C326.958 221.257 326.848 220.86 326.675 220.48C326.508 220.093 326.255 219.777 325.915 219.53C325.582 219.283 325.128 219.16 324.555 219.16C324.248 219.16 323.945 219.21 323.645 219.31C323.345 219.41 323.072 219.583 322.825 219.83C322.585 220.07 322.392 220.403 322.245 220.83C322.098 221.25 322.025 221.79 322.025 222.45L320.595 221.84C320.595 220.92 320.772 220.087 321.125 219.34C321.485 218.593 322.012 218 322.705 217.56C323.398 217.113 324.252 216.89 325.265 216.89C326.065 216.89 326.725 217.023 327.245 217.29C327.765 217.557 328.178 217.897 328.485 218.31C328.792 218.723 329.018 219.163 329.165 219.63C329.312 220.097 329.405 220.54 329.445 220.96C329.492 221.373 329.515 221.71 329.515 221.97V228H327.075ZM319.585 228V217.2H321.735V220.55H322.025V228H319.585ZM336.279 228.3C335.285 228.3 334.419 228.05 333.679 227.55C332.939 227.05 332.365 226.37 331.959 225.51C331.552 224.65 331.349 223.68 331.349 222.6C331.349 221.507 331.552 220.533 331.959 219.68C332.372 218.82 332.955 218.143 333.709 217.65C334.462 217.15 335.349 216.9 336.369 216.9C337.395 216.9 338.255 217.15 338.949 217.65C339.649 218.143 340.179 218.82 340.539 219.68C340.899 220.54 341.079 221.513 341.079 222.6C341.079 223.673 340.899 224.643 340.539 225.51C340.179 226.37 339.642 227.05 338.929 227.55C338.215 228.05 337.332 228.3 336.279 228.3ZM336.649 226.14C337.295 226.14 337.815 225.993 338.209 225.7C338.609 225.4 338.899 224.983 339.079 224.45C339.265 223.917 339.359 223.3 339.359 222.6C339.359 221.893 339.265 221.277 339.079 220.75C338.899 220.217 338.615 219.803 338.229 219.51C337.842 219.21 337.342 219.06 336.729 219.06C336.082 219.06 335.549 219.22 335.129 219.54C334.709 219.853 334.399 220.28 334.199 220.82C333.999 221.353 333.899 221.947 333.899 222.6C333.899 223.26 333.995 223.86 334.189 224.4C334.389 224.933 334.692 225.357 335.099 225.67C335.505 225.983 336.022 226.14 336.649 226.14ZM339.359 228V220.42H339.059V213.6H341.489V228H339.359Z" fill="black"/>
<path d="M395.392 340L390.852 325.6H393.332L397.132 337.66L400.982 325.6H403.462L398.922 340H395.392ZM408.543 340.3C407.463 340.3 406.52 340.057 405.713 339.57C404.906 339.083 404.28 338.413 403.833 337.56C403.393 336.7 403.173 335.713 403.173 334.6C403.173 333.467 403.4 332.473 403.853 331.62C404.306 330.767 404.936 330.1 405.743 329.62C406.55 329.14 407.483 328.9 408.543 328.9C409.63 328.9 410.576 329.143 411.383 329.63C412.19 330.117 412.816 330.79 413.263 331.65C413.71 332.503 413.933 333.487 413.933 334.6C413.933 335.72 413.706 336.71 413.253 337.57C412.806 338.423 412.18 339.093 411.373 339.58C410.566 340.06 409.623 340.3 408.543 340.3ZM408.543 338.04C409.503 338.04 410.216 337.72 410.683 337.08C411.15 336.44 411.383 335.613 411.383 334.6C411.383 333.553 411.146 332.72 410.673 332.1C410.2 331.473 409.49 331.16 408.543 331.16C407.896 331.16 407.363 331.307 406.943 331.6C406.53 331.887 406.223 332.29 406.023 332.81C405.823 333.323 405.723 333.92 405.723 334.6C405.723 335.647 405.96 336.483 406.433 337.11C406.913 337.73 407.616 338.04 408.543 338.04ZM416.336 327.56V325.35H418.746V327.56H416.336ZM416.336 340V329.2H418.746V340H416.336ZM426.432 340.3C425.318 340.3 424.368 340.053 423.582 339.56C422.795 339.06 422.192 338.38 421.772 337.52C421.358 336.66 421.148 335.687 421.142 334.6C421.148 333.493 421.365 332.513 421.792 331.66C422.225 330.8 422.838 330.127 423.632 329.64C424.425 329.147 425.368 328.9 426.462 328.9C427.688 328.9 428.725 329.21 429.572 329.83C430.425 330.443 430.982 331.283 431.242 332.35L428.842 333C428.655 332.42 428.345 331.97 427.912 331.65C427.478 331.323 426.985 331.16 426.432 331.16C425.805 331.16 425.288 331.31 424.882 331.61C424.475 331.903 424.175 332.31 423.982 332.83C423.788 333.35 423.692 333.94 423.692 334.6C423.692 335.627 423.922 336.457 424.382 337.09C424.842 337.723 425.525 338.04 426.432 338.04C427.072 338.04 427.575 337.893 427.942 337.6C428.315 337.307 428.595 336.883 428.782 336.33L431.242 336.88C430.908 337.98 430.325 338.827 429.492 339.42C428.658 340.007 427.638 340.3 426.432 340.3ZM437.863 340.3C436.769 340.3 435.809 340.063 434.983 339.59C434.156 339.117 433.509 338.46 433.043 337.62C432.583 336.78 432.353 335.813 432.353 334.72C432.353 333.54 432.579 332.517 433.033 331.65C433.486 330.777 434.116 330.1 434.923 329.62C435.729 329.14 436.663 328.9 437.723 328.9C438.843 328.9 439.793 329.163 440.573 329.69C441.359 330.21 441.943 330.947 442.323 331.9C442.703 332.853 442.846 333.977 442.753 335.27H440.363V334.39C440.356 333.217 440.149 332.36 439.743 331.82C439.336 331.28 438.696 331.01 437.823 331.01C436.836 331.01 436.103 331.317 435.623 331.93C435.143 332.537 434.903 333.427 434.903 334.6C434.903 335.693 435.143 336.54 435.623 337.14C436.103 337.74 436.803 338.04 437.723 338.04C438.316 338.04 438.826 337.91 439.253 337.65C439.686 337.383 440.019 337 440.253 336.5L442.633 337.22C442.219 338.193 441.579 338.95 440.713 339.49C439.853 340.03 438.903 340.3 437.863 340.3ZM434.143 335.27V333.45H441.573V335.27H434.143ZM448.988 340V325.6H451.158L456.138 335.8L461.118 325.6H463.288V340H461.038V330.77L456.618 340H455.658L451.248 330.77V340H448.988ZM471.007 340.3C469.914 340.3 468.954 340.063 468.127 339.59C467.301 339.117 466.654 338.46 466.187 337.62C465.727 336.78 465.497 335.813 465.497 334.72C465.497 333.54 465.724 332.517 466.177 331.65C466.631 330.777 467.261 330.1 468.067 329.62C468.874 329.14 469.807 328.9 470.867 328.9C471.987 328.9 472.937 329.163 473.717 329.69C474.504 330.21 475.087 330.947 475.467 331.9C475.847 332.853 475.991 333.977 475.897 335.27H473.507V334.39C473.501 333.217 473.294 332.36 472.887 331.82C472.481 331.28 471.841 331.01 470.967 331.01C469.981 331.01 469.247 331.317 468.767 331.93C468.287 332.537 468.047 333.427 468.047 334.6C468.047 335.693 468.287 336.54 468.767 337.14C469.247 337.74 469.947 338.04 470.867 338.04C471.461 338.04 471.971 337.91 472.397 337.65C472.831 337.383 473.164 337 473.397 336.5L475.777 337.22C475.364 338.193 474.724 338.95 473.857 339.49C472.997 340.03 472.047 340.3 471.007 340.3ZM467.287 335.27V333.45H474.717V335.27H467.287ZM482.299 340.3C480.965 340.3 479.882 340 479.049 339.4C478.215 338.8 477.709 337.957 477.529 336.87L479.989 336.49C480.115 337.023 480.395 337.443 480.829 337.75C481.262 338.057 481.809 338.21 482.469 338.21C483.049 338.21 483.495 338.097 483.809 337.87C484.129 337.637 484.289 337.32 484.289 336.92C484.289 336.673 484.229 336.477 484.109 336.33C483.995 336.177 483.742 336.03 483.349 335.89C482.955 335.75 482.352 335.573 481.539 335.36C480.632 335.12 479.912 334.863 479.379 334.59C478.845 334.31 478.462 333.98 478.229 333.6C477.995 333.22 477.879 332.76 477.879 332.22C477.879 331.547 478.055 330.96 478.409 330.46C478.762 329.96 479.255 329.577 479.889 329.31C480.522 329.037 481.269 328.9 482.129 328.9C482.969 328.9 483.712 329.03 484.359 329.29C485.012 329.55 485.539 329.92 485.939 330.4C486.339 330.88 486.585 331.443 486.679 332.09L484.219 332.53C484.159 332.07 483.949 331.707 483.589 331.44C483.235 331.173 482.762 331.023 482.169 330.99C481.602 330.957 481.145 331.043 480.799 331.25C480.452 331.45 480.279 331.733 480.279 332.1C480.279 332.307 480.349 332.483 480.489 332.63C480.629 332.777 480.909 332.923 481.329 333.07C481.755 333.217 482.389 333.397 483.229 333.61C484.089 333.83 484.775 334.083 485.289 334.37C485.809 334.65 486.182 334.987 486.409 335.38C486.642 335.773 486.759 336.25 486.759 336.81C486.759 337.897 486.362 338.75 485.569 339.37C484.782 339.99 483.692 340.3 482.299 340.3ZM493.119 340.3C491.785 340.3 490.702 340 489.869 339.4C489.035 338.8 488.529 337.957 488.349 336.87L490.809 336.49C490.935 337.023 491.215 337.443 491.649 337.75C492.082 338.057 492.629 338.21 493.289 338.21C493.869 338.21 494.315 338.097 494.629 337.87C494.949 337.637 495.109 337.32 495.109 336.92C495.109 336.673 495.049 336.477 494.929 336.33C494.815 336.177 494.562 336.03 494.169 335.89C493.775 335.75 493.172 335.573 492.359 335.36C491.452 335.12 490.732 334.863 490.199 334.59C489.665 334.31 489.282 333.98 489.049 333.6C488.815 333.22 488.699 332.76 488.699 332.22C488.699 331.547 488.875 330.96 489.229 330.46C489.582 329.96 490.075 329.577 490.709 329.31C491.342 329.037 492.089 328.9 492.949 328.9C493.789 328.9 494.532 329.03 495.179 329.29C495.832 329.55 496.359 329.92 496.759 330.4C497.159 330.88 497.405 331.443 497.499 332.09L495.039 332.53C494.979 332.07 494.769 331.707 494.409 331.44C494.055 331.173 493.582 331.023 492.989 330.99C492.422 330.957 491.965 331.043 491.619 331.25C491.272 331.45 491.099 331.733 491.099 332.1C491.099 332.307 491.169 332.483 491.309 332.63C491.449 332.777 491.729 332.923 492.149 333.07C492.575 333.217 493.209 333.397 494.049 333.61C494.909 333.83 495.595 334.083 496.109 334.37C496.629 334.65 497.002 334.987 497.229 335.38C497.462 335.773 497.579 336.25 497.579 336.81C497.579 337.897 497.182 338.75 496.389 339.37C495.602 339.99 494.512 340.3 493.119 340.3ZM502.789 340.3C502.009 340.3 501.349 340.153 500.809 339.86C500.269 339.56 499.859 339.163 499.579 338.67C499.306 338.177 499.169 337.633 499.169 337.04C499.169 336.52 499.256 336.053 499.429 335.64C499.602 335.22 499.869 334.86 500.229 334.56C500.589 334.253 501.056 334.003 501.629 333.81C502.062 333.67 502.569 333.543 503.149 333.43C503.736 333.317 504.369 333.213 505.049 333.12C505.736 333.02 506.452 332.913 507.199 332.8L506.339 333.29C506.346 332.543 506.179 331.993 505.839 331.64C505.499 331.287 504.926 331.11 504.119 331.11C503.632 331.11 503.162 331.223 502.709 331.45C502.256 331.677 501.939 332.067 501.759 332.62L499.559 331.93C499.826 331.017 500.332 330.283 501.079 329.73C501.832 329.177 502.846 328.9 504.119 328.9C505.079 328.9 505.922 329.057 506.649 329.37C507.382 329.683 507.926 330.197 508.279 330.91C508.472 331.29 508.589 331.68 508.629 332.08C508.669 332.473 508.689 332.903 508.689 333.37V340H506.579V337.66L506.929 338.04C506.442 338.82 505.872 339.393 505.219 339.76C504.572 340.12 503.762 340.3 502.789 340.3ZM503.269 338.38C503.816 338.38 504.282 338.283 504.669 338.09C505.056 337.897 505.362 337.66 505.589 337.38C505.822 337.1 505.979 336.837 506.059 336.59C506.186 336.283 506.256 335.933 506.269 335.54C506.289 335.14 506.299 334.817 506.299 334.57L507.039 334.79C506.312 334.903 505.689 335.003 505.169 335.09C504.649 335.177 504.202 335.26 503.829 335.34C503.456 335.413 503.126 335.497 502.839 335.59C502.559 335.69 502.322 335.807 502.129 335.94C501.936 336.073 501.786 336.227 501.679 336.4C501.579 336.573 501.529 336.777 501.529 337.01C501.529 337.277 501.596 337.513 501.729 337.72C501.862 337.92 502.056 338.08 502.309 338.2C502.569 338.32 502.889 338.38 503.269 338.38ZM515.833 345.1C515.233 345.1 514.656 345.007 514.103 344.82C513.556 344.633 513.063 344.363 512.623 344.01C512.183 343.663 511.823 343.243 511.543 342.75L513.763 341.65C513.969 342.043 514.259 342.333 514.633 342.52C515.013 342.713 515.416 342.81 515.843 342.81C516.343 342.81 516.789 342.72 517.183 342.54C517.576 342.367 517.879 342.107 518.093 341.76C518.313 341.42 518.416 340.993 518.403 340.48V337.41H518.703V329.2H520.813V340.52C520.813 340.793 520.799 341.053 520.773 341.3C520.753 341.553 520.716 341.8 520.663 342.04C520.503 342.74 520.196 343.313 519.743 343.76C519.289 344.213 518.726 344.55 518.053 344.77C517.386 344.99 516.646 345.1 515.833 345.1ZM515.623 340.3C514.629 340.3 513.763 340.05 513.023 339.55C512.283 339.05 511.709 338.37 511.303 337.51C510.896 336.65 510.693 335.68 510.693 334.6C510.693 333.507 510.896 332.533 511.303 331.68C511.716 330.82 512.299 330.143 513.053 329.65C513.806 329.15 514.693 328.9 515.713 328.9C516.739 328.9 517.599 329.15 518.293 329.65C518.993 330.143 519.523 330.82 519.883 331.68C520.243 332.54 520.423 333.513 520.423 334.6C520.423 335.673 520.243 336.643 519.883 337.51C519.523 338.37 518.986 339.05 518.273 339.55C517.559 340.05 516.676 340.3 515.623 340.3ZM515.993 338.14C516.639 338.14 517.159 337.993 517.553 337.7C517.953 337.4 518.243 336.983 518.423 336.45C518.609 335.917 518.703 335.3 518.703 334.6C518.703 333.893 518.609 333.277 518.423 332.75C518.243 332.217 517.959 331.803 517.573 331.51C517.186 331.21 516.686 331.06 516.073 331.06C515.426 331.06 514.893 331.22 514.473 331.54C514.053 331.853 513.743 332.28 513.543 332.82C513.343 333.353 513.243 333.947 513.243 334.6C513.243 335.26 513.339 335.86 513.533 336.4C513.733 336.933 514.036 337.357 514.443 337.67C514.849 337.983 515.366 338.14 515.993 338.14ZM528.527 340.3C527.433 340.3 526.473 340.063 525.647 339.59C524.82 339.117 524.173 338.46 523.707 337.62C523.247 336.78 523.017 335.813 523.017 334.72C523.017 333.54 523.243 332.517 523.697 331.65C524.15 330.777 524.78 330.1 525.587 329.62C526.393 329.14 527.327 328.9 528.387 328.9C529.507 328.9 530.457 329.163 531.237 329.69C532.023 330.21 532.607 330.947 532.987 331.9C533.367 332.853 533.51 333.977 533.417 335.27H531.027V334.39C531.02 333.217 530.813 332.36 530.407 331.82C530 331.28 529.36 331.01 528.487 331.01C527.5 331.01 526.767 331.317 526.287 331.93C525.807 332.537 525.567 333.427 525.567 334.6C525.567 335.693 525.807 336.54 526.287 337.14C526.767 337.74 527.467 338.04 528.387 338.04C528.98 338.04 529.49 337.91 529.917 337.65C530.35 337.383 530.683 337 530.917 336.5L533.297 337.22C532.883 338.193 532.243 338.95 531.377 339.49C530.517 340.03 529.567 340.3 528.527 340.3ZM524.807 335.27V333.45H532.237V335.27H524.807ZM373.793 367V352.6H379.743C379.883 352.6 380.063 352.607 380.283 352.62C380.503 352.627 380.706 352.647 380.893 352.68C381.726 352.807 382.413 353.083 382.953 353.51C383.499 353.937 383.903 354.477 384.163 355.13C384.429 355.777 384.563 356.497 384.563 357.29C384.563 358.463 384.266 359.473 383.673 360.32C383.079 361.16 382.169 361.68 380.943 361.88L379.913 361.97H376.203V367H373.793ZM382.063 367L379.223 361.14L381.673 360.6L384.793 367H382.063ZM376.203 359.72H379.643C379.776 359.72 379.926 359.713 380.093 359.7C380.259 359.687 380.413 359.66 380.553 359.62C380.953 359.52 381.266 359.343 381.493 359.09C381.726 358.837 381.889 358.55 381.983 358.23C382.083 357.91 382.133 357.597 382.133 357.29C382.133 356.983 382.083 356.67 381.983 356.35C381.889 356.023 381.726 355.733 381.493 355.48C381.266 355.227 380.953 355.05 380.553 354.95C380.413 354.91 380.259 354.887 380.093 354.88C379.926 354.867 379.776 354.86 379.643 354.86H376.203V359.72ZM391.906 367.3C390.812 367.3 389.852 367.063 389.026 366.59C388.199 366.117 387.552 365.46 387.086 364.62C386.626 363.78 386.396 362.813 386.396 361.72C386.396 360.54 386.622 359.517 387.076 358.65C387.529 357.777 388.159 357.1 388.966 356.62C389.772 356.14 390.706 355.9 391.766 355.9C392.886 355.9 393.836 356.163 394.616 356.69C395.402 357.21 395.986 357.947 396.366 358.9C396.746 359.853 396.889 360.977 396.796 362.27H394.406V361.39C394.399 360.217 394.192 359.36 393.786 358.82C393.379 358.28 392.739 358.01 391.866 358.01C390.879 358.01 390.146 358.317 389.666 358.93C389.186 359.537 388.946 360.427 388.946 361.6C388.946 362.693 389.186 363.54 389.666 364.14C390.146 364.74 390.846 365.04 391.766 365.04C392.359 365.04 392.869 364.91 393.296 364.65C393.729 364.383 394.062 364 394.296 363.5L396.676 364.22C396.262 365.193 395.622 365.95 394.756 366.49C393.896 367.03 392.946 367.3 391.906 367.3ZM388.186 362.27V360.45H395.616V362.27H388.186ZM403.717 367.3C402.604 367.3 401.654 367.053 400.867 366.56C400.08 366.06 399.477 365.38 399.057 364.52C398.644 363.66 398.434 362.687 398.427 361.6C398.434 360.493 398.65 359.513 399.077 358.66C399.51 357.8 400.124 357.127 400.917 356.64C401.71 356.147 402.654 355.9 403.747 355.9C404.974 355.9 406.01 356.21 406.857 356.83C407.71 357.443 408.267 358.283 408.527 359.35L406.127 360C405.94 359.42 405.63 358.97 405.197 358.65C404.764 358.323 404.27 358.16 403.717 358.16C403.09 358.16 402.574 358.31 402.167 358.61C401.76 358.903 401.46 359.31 401.267 359.83C401.074 360.35 400.977 360.94 400.977 361.6C400.977 362.627 401.207 363.457 401.667 364.09C402.127 364.723 402.81 365.04 403.717 365.04C404.357 365.04 404.86 364.893 405.227 364.6C405.6 364.307 405.88 363.883 406.067 363.33L408.527 363.88C408.194 364.98 407.61 365.827 406.777 366.42C405.944 367.007 404.924 367.3 403.717 367.3ZM415.148 367.3C414.055 367.3 413.095 367.063 412.268 366.59C411.441 366.117 410.795 365.46 410.328 364.62C409.868 363.78 409.638 362.813 409.638 361.72C409.638 360.54 409.865 359.517 410.318 358.65C410.771 357.777 411.401 357.1 412.208 356.62C413.015 356.14 413.948 355.9 415.008 355.9C416.128 355.9 417.078 356.163 417.858 356.69C418.645 357.21 419.228 357.947 419.608 358.9C419.988 359.853 420.131 360.977 420.038 362.27H417.648V361.39C417.641 360.217 417.435 359.36 417.028 358.82C416.621 358.28 415.981 358.01 415.108 358.01C414.121 358.01 413.388 358.317 412.908 358.93C412.428 359.537 412.188 360.427 412.188 361.6C412.188 362.693 412.428 363.54 412.908 364.14C413.388 364.74 414.088 365.04 415.008 365.04C415.601 365.04 416.111 364.91 416.538 364.65C416.971 364.383 417.305 364 417.538 363.5L419.918 364.22C419.505 365.193 418.865 365.95 417.998 366.49C417.138 367.03 416.188 367.3 415.148 367.3ZM411.428 362.27V360.45H418.858V362.27H411.428ZM422.469 354.56V352.35H424.879V354.56H422.469ZM422.469 367V356.2H424.879V367H422.469ZM430.795 367L426.875 356.2H429.285L432.005 364.03L434.715 356.2H437.135L433.215 367H430.795ZM443.449 367.3C442.355 367.3 441.395 367.063 440.569 366.59C439.742 366.117 439.095 365.46 438.629 364.62C438.169 363.78 437.939 362.813 437.939 361.72C437.939 360.54 438.165 359.517 438.619 358.65C439.072 357.777 439.702 357.1 440.509 356.62C441.315 356.14 442.249 355.9 443.309 355.9C444.429 355.9 445.379 356.163 446.159 356.69C446.945 357.21 447.529 357.947 447.909 358.9C448.289 359.853 448.432 360.977 448.339 362.27H445.949V361.39C445.942 360.217 445.735 359.36 445.329 358.82C444.922 358.28 444.282 358.01 443.409 358.01C442.422 358.01 441.689 358.317 441.209 358.93C440.729 359.537 440.489 360.427 440.489 361.6C440.489 362.693 440.729 363.54 441.209 364.14C441.689 364.74 442.389 365.04 443.309 365.04C443.902 365.04 444.412 364.91 444.839 364.65C445.272 364.383 445.605 364 445.839 363.5L448.219 364.22C447.805 365.193 447.165 365.95 446.299 366.49C445.439 367.03 444.489 367.3 443.449 367.3ZM439.729 362.27V360.45H447.159V362.27H439.729ZM454.9 367.3C453.907 367.3 453.04 367.05 452.3 366.55C451.56 366.05 450.987 365.37 450.58 364.51C450.173 363.65 449.97 362.68 449.97 361.6C449.97 360.507 450.173 359.533 450.58 358.68C450.993 357.82 451.577 357.143 452.33 356.65C453.083 356.15 453.97 355.9 454.99 355.9C456.017 355.9 456.877 356.15 457.57 356.65C458.27 357.143 458.8 357.82 459.16 358.68C459.52 359.54 459.7 360.513 459.7 361.6C459.7 362.673 459.52 363.643 459.16 364.51C458.8 365.37 458.263 366.05 457.55 366.55C456.837 367.05 455.953 367.3 454.9 367.3ZM455.27 365.14C455.917 365.14 456.437 364.993 456.83 364.7C457.23 364.4 457.52 363.983 457.7 363.45C457.887 362.917 457.98 362.3 457.98 361.6C457.98 360.893 457.887 360.277 457.7 359.75C457.52 359.217 457.237 358.803 456.85 358.51C456.463 358.21 455.963 358.06 455.35 358.06C454.703 358.06 454.17 358.22 453.75 358.54C453.33 358.853 453.02 359.28 452.82 359.82C452.62 360.353 452.52 360.947 452.52 361.6C452.52 362.26 452.617 362.86 452.81 363.4C453.01 363.933 453.313 364.357 453.72 364.67C454.127 364.983 454.643 365.14 455.27 365.14ZM457.98 367V359.42H457.68V352.6H460.11V367H457.98ZM467.118 367V352.6H469.528V367H467.118ZM479.993 367V361.8C479.993 361.46 479.97 361.083 479.923 360.67C479.876 360.257 479.766 359.86 479.593 359.48C479.426 359.093 479.173 358.777 478.833 358.53C478.5 358.283 478.046 358.16 477.473 358.16C477.166 358.16 476.863 358.21 476.563 358.31C476.263 358.41 475.99 358.583 475.743 358.83C475.503 359.07 475.31 359.403 475.163 359.83C475.016 360.25 474.943 360.79 474.943 361.45L473.513 360.84C473.513 359.92 473.69 359.087 474.043 358.34C474.403 357.593 474.93 357 475.623 356.56C476.316 356.113 477.17 355.89 478.183 355.89C478.983 355.89 479.643 356.023 480.163 356.29C480.683 356.557 481.096 356.897 481.403 357.31C481.71 357.723 481.936 358.163 482.083 358.63C482.23 359.097 482.323 359.54 482.363 359.96C482.41 360.373 482.433 360.71 482.433 360.97V367H479.993ZM472.503 367V356.2H474.653V359.55H474.943V367H472.503ZM489.213 367.3C487.879 367.3 486.796 367 485.963 366.4C485.129 365.8 484.623 364.957 484.443 363.87L486.903 363.49C487.029 364.023 487.309 364.443 487.743 364.75C488.176 365.057 488.723 365.21 489.383 365.21C489.963 365.21 490.409 365.097 490.723 364.87C491.043 364.637 491.203 364.32 491.203 363.92C491.203 363.673 491.143 363.477 491.023 363.33C490.909 363.177 490.656 363.03 490.263 362.89C489.869 362.75 489.266 362.573 488.453 362.36C487.546 362.12 486.826 361.863 486.293 361.59C485.759 361.31 485.376 360.98 485.143 360.6C484.909 360.22 484.793 359.76 484.793 359.22C484.793 358.547 484.969 357.96 485.323 357.46C485.676 356.96 486.169 356.577 486.803 356.31C487.436 356.037 488.183 355.9 489.043 355.9C489.883 355.9 490.626 356.03 491.273 356.29C491.926 356.55 492.453 356.92 492.853 357.4C493.253 357.88 493.499 358.443 493.593 359.09L491.133 359.53C491.073 359.07 490.863 358.707 490.503 358.44C490.149 358.173 489.676 358.023 489.083 357.99C488.516 357.957 488.059 358.043 487.713 358.25C487.366 358.45 487.193 358.733 487.193 359.1C487.193 359.307 487.263 359.483 487.403 359.63C487.543 359.777 487.823 359.923 488.243 360.07C488.669 360.217 489.303 360.397 490.143 360.61C491.003 360.83 491.689 361.083 492.203 361.37C492.723 361.65 493.096 361.987 493.323 362.38C493.556 362.773 493.673 363.25 493.673 363.81C493.673 364.897 493.276 365.75 492.483 366.37C491.696 366.99 490.606 367.3 489.213 367.3ZM502.193 367C501.48 367.133 500.78 367.19 500.093 367.17C499.413 367.157 498.803 367.033 498.263 366.8C497.723 366.56 497.313 366.183 497.033 365.67C496.786 365.203 496.656 364.727 496.643 364.24C496.63 363.753 496.623 363.203 496.623 362.59V353.2H499.023V362.45C499.023 362.883 499.026 363.263 499.033 363.59C499.046 363.917 499.116 364.183 499.243 364.39C499.483 364.79 499.866 365.013 500.393 365.06C500.92 365.107 501.52 365.08 502.193 364.98V367ZM494.663 358.09V356.2H502.193V358.09H494.663ZM507.535 367.3C506.755 367.3 506.095 367.153 505.555 366.86C505.015 366.56 504.605 366.163 504.325 365.67C504.052 365.177 503.915 364.633 503.915 364.04C503.915 363.52 504.002 363.053 504.175 362.64C504.349 362.22 504.615 361.86 504.975 361.56C505.335 361.253 505.802 361.003 506.375 360.81C506.809 360.67 507.315 360.543 507.895 360.43C508.482 360.317 509.115 360.213 509.795 360.12C510.482 360.02 511.199 359.913 511.945 359.8L511.085 360.29C511.092 359.543 510.925 358.993 510.585 358.64C510.245 358.287 509.672 358.11 508.865 358.11C508.379 358.11 507.909 358.223 507.455 358.45C507.002 358.677 506.685 359.067 506.505 359.62L504.305 358.93C504.572 358.017 505.079 357.283 505.825 356.73C506.579 356.177 507.592 355.9 508.865 355.9C509.825 355.9 510.669 356.057 511.395 356.37C512.129 356.683 512.672 357.197 513.025 357.91C513.219 358.29 513.335 358.68 513.375 359.08C513.415 359.473 513.435 359.903 513.435 360.37V367H511.325V364.66L511.675 365.04C511.189 365.82 510.619 366.393 509.965 366.76C509.319 367.12 508.509 367.3 507.535 367.3ZM508.015 365.38C508.562 365.38 509.029 365.283 509.415 365.09C509.802 364.897 510.109 364.66 510.335 364.38C510.569 364.1 510.725 363.837 510.805 363.59C510.932 363.283 511.002 362.933 511.015 362.54C511.035 362.14 511.045 361.817 511.045 361.57L511.785 361.79C511.059 361.903 510.435 362.003 509.915 362.09C509.395 362.177 508.949 362.26 508.575 362.34C508.202 362.413 507.872 362.497 507.585 362.59C507.305 362.69 507.069 362.807 506.875 362.94C506.682 363.073 506.532 363.227 506.425 363.4C506.325 363.573 506.275 363.777 506.275 364.01C506.275 364.277 506.342 364.513 506.475 364.72C506.609 364.92 506.802 365.08 507.055 365.2C507.315 365.32 507.635 365.38 508.015 365.38ZM523.509 367V361.8C523.509 361.46 523.485 361.083 523.439 360.67C523.392 360.257 523.282 359.86 523.109 359.48C522.942 359.093 522.689 358.777 522.349 358.53C522.015 358.283 521.562 358.16 520.989 358.16C520.682 358.16 520.379 358.21 520.079 358.31C519.779 358.41 519.505 358.583 519.259 358.83C519.019 359.07 518.825 359.403 518.679 359.83C518.532 360.25 518.459 360.79 518.459 361.45L517.029 360.84C517.029 359.92 517.205 359.087 517.559 358.34C517.919 357.593 518.445 357 519.139 356.56C519.832 356.113 520.685 355.89 521.699 355.89C522.499 355.89 523.159 356.023 523.679 356.29C524.199 356.557 524.612 356.897 524.919 357.31C525.225 357.723 525.452 358.163 525.599 358.63C525.745 359.097 525.839 359.54 525.879 359.96C525.925 360.373 525.949 360.71 525.949 360.97V367H523.509ZM516.019 367V356.2H518.169V359.55H518.459V367H516.019ZM534.888 367C534.175 367.133 533.475 367.19 532.788 367.17C532.108 367.157 531.498 367.033 530.958 366.8C530.418 366.56 530.008 366.183 529.728 365.67C529.482 365.203 529.352 364.727 529.338 364.24C529.325 363.753 529.318 363.203 529.318 362.59V353.2H531.718V362.45C531.718 362.883 531.722 363.263 531.728 363.59C531.742 363.917 531.812 364.183 531.938 364.39C532.178 364.79 532.562 365.013 533.088 365.06C533.615 365.107 534.215 365.08 534.888 364.98V367ZM527.358 358.09V356.2H534.888V358.09H527.358ZM537.411 367V352.3H539.821V367H537.411ZM544.236 371.8L546.316 366.09L546.356 367.77L541.646 356.2H544.156L547.496 364.76H546.856L550.106 356.2H552.516L546.496 371.8H544.236Z" fill="black"/>
<path d="M132 121L132 117.5L128.5 117.5L128.5 121L132 121ZM206.475 123.475C207.842 122.108 207.842 119.892 206.475 118.525L184.201 96.2513C182.834 94.8845 180.618 94.8845 179.251 96.2513C177.884 97.6181 177.884 99.8342 179.251 101.201L199.05 121L179.251 140.799C177.884 142.166 177.884 144.382 179.251 145.749C180.618 147.116 182.834 147.116 184.201 145.749L206.475 123.475ZM135.5 187L135.5 121L128.5 121L128.5 187L135.5 187ZM132 124.5L204 124.5L204 117.5L132 117.5L132 124.5Z" fill="#DBEAF6"/>
<path d="M458.642 115.87L462.142 115.87L462.142 112.37L458.642 112.37L458.642 115.87ZM456.167 191.975C457.534 193.342 459.75 193.342 461.116 191.975L483.39 169.701C484.757 168.334 484.757 166.118 483.39 164.751C482.024 163.384 479.807 163.384 478.441 164.751L458.642 184.55L438.843 164.751C437.476 163.384 435.26 163.384 433.893 164.751C432.526 166.118 432.526 168.334 433.893 169.701L456.167 191.975ZM391 119.37L458.642 119.37L458.642 112.37L391 112.37L391 119.37ZM455.142 115.87L455.142 189.5L462.142 189.5L462.142 115.87L455.142 115.87Z" fill="#DBEAF6"/>
</svg>
