<svg width="21" height="20" viewBox="0 0 21 20" fill="none" xmlns="http://www.w3.org/2000/svg">
<path d="M15.3515 0.618164C13.2515 0.618164 12.3645 1.64916 10.9015 1.64916C9.40154 1.64916 8.25754 0.624164 6.43954 0.624164C5.43812 0.684612 4.46735 0.992616 3.61426 1.52056C2.76116 2.04851 2.05241 2.7799 1.55154 3.64916C-0.142462 6.33616 0.145538 11.3972 2.88854 15.7112C3.86954 17.2552 5.18254 18.9862 6.90054 19.0052H6.93154C8.42554 19.0052 8.86854 17.9992 10.9245 17.9862H10.9555C12.9805 17.9862 13.3865 18.9982 14.8735 18.9982H14.9045C16.6235 18.9792 18.0045 17.0612 18.9855 15.5232C19.5817 14.6032 20.0881 13.6281 20.4975 12.6112C19.5762 12.2332 18.7787 11.6054 18.1949 10.7985C17.6111 9.99162 17.2643 9.03774 17.1935 8.04436C17.1227 7.05097 17.3308 6.05756 17.7942 5.17605C18.2577 4.29455 18.9581 3.56 19.8165 3.05516C19.3024 2.34044 18.6342 1.75037 17.8614 1.32856C17.0885 0.906751 16.2308 0.663972 15.3515 0.618164Z" fill="#D5D9DC"/>
</svg>
