<svg width="611" height="458" viewBox="0 0 611 458" fill="none" xmlns="http://www.w3.org/2000/svg">
<g filter="url(#filter0_d_1653_25678)">
<rect x="50.0908" y="192.636" width="60.1818" height="31.0909" rx="15.5455" fill="#EDEDFD" shape-rendering="crispEdges"/>
<path d="M66.4022 213.182L63.2473 203.756H64.4582L67.2008 211.945L69.9695 203.756H71.1804L68.0255 213.182H66.4022ZM74.3961 213.378C73.6935 213.378 73.087 213.219 72.5765 212.9C72.0703 212.582 71.6797 212.141 71.4048 211.578C71.1299 211.015 70.9925 210.369 70.9925 209.641C70.9925 208.899 71.1321 208.249 71.4114 207.69C71.6906 207.132 72.0855 206.697 72.5961 206.388C73.1066 206.073 73.7066 205.916 74.3961 205.916C75.103 205.916 75.7117 206.076 76.2223 206.394C76.7328 206.708 77.1234 207.147 77.3939 207.71C77.6688 208.268 77.8063 208.912 77.8063 209.641C77.8063 210.378 77.6688 211.028 77.3939 211.591C77.119 212.15 76.7263 212.588 76.2157 212.907C75.7052 213.221 75.0986 213.378 74.3961 213.378ZM74.3961 212.272C75.1292 212.272 75.6746 212.028 76.0325 211.539C76.3903 211.05 76.5692 210.417 76.5692 209.641C76.5692 208.842 76.3881 208.207 76.0259 207.736C75.6637 207.26 75.1205 207.023 74.3961 207.023C73.903 207.023 73.4972 207.134 73.1786 207.356C72.8601 207.579 72.6223 207.887 72.4652 208.279C72.3081 208.672 72.2295 209.126 72.2295 209.641C72.2295 210.435 72.4128 211.072 72.7794 211.552C73.1459 212.032 73.6848 212.272 74.3961 212.272ZM79.3783 204.863V203.658H80.5434V204.863H79.3783ZM79.3783 213.182V206.113H80.5434V213.182H79.3783ZM85.4855 213.378C84.7699 213.378 84.1612 213.219 83.6593 212.9C83.1619 212.577 82.7822 212.135 82.5204 211.572C82.2586 211.009 82.1233 210.367 82.1146 209.647C82.1233 208.91 82.2608 208.262 82.527 207.703C82.7975 207.14 83.1837 206.702 83.6855 206.388C84.1873 206.073 84.7917 205.916 85.4986 205.916C86.2448 205.916 86.8862 206.1 87.423 206.466C87.9641 206.833 88.3262 207.335 88.5095 207.972L87.3575 208.319C87.2092 207.908 86.967 207.59 86.631 207.363C86.2993 207.136 85.9175 207.023 85.4855 207.023C85.0012 207.023 84.6019 207.136 84.2877 207.363C83.9735 207.585 83.7401 207.895 83.5873 208.292C83.4346 208.685 83.3561 209.137 83.3517 209.647C83.3604 210.433 83.5415 211.068 83.895 211.552C84.2528 212.032 84.783 212.272 85.4855 212.272C85.9481 212.272 86.3321 212.167 86.6375 211.958C86.943 211.744 87.1742 211.436 87.3313 211.035L88.5095 211.343C88.2652 212.001 87.8833 212.505 87.3641 212.855C86.8448 213.204 86.2186 213.378 85.4855 213.378ZM92.7169 213.378C92.0231 213.378 91.4166 213.225 90.8973 212.92C90.3824 212.61 89.9809 212.18 89.6929 211.631C89.4049 211.076 89.2609 210.431 89.2609 209.693C89.2609 208.921 89.4027 208.253 89.6864 207.69C89.97 207.123 90.3649 206.687 90.8711 206.381C91.3816 206.071 91.9795 205.916 92.6646 205.916C93.3758 205.916 93.9802 206.08 94.4776 206.407C94.9795 206.735 95.3547 207.201 95.6035 207.808C95.8566 208.415 95.9656 209.137 95.9307 209.975H94.7526V209.556C94.7395 208.687 94.5627 208.039 94.2224 207.612C93.882 207.18 93.3758 206.964 92.7038 206.964C91.9838 206.964 91.4362 207.195 91.0609 207.657C90.6856 208.12 90.498 208.783 90.498 209.647C90.498 210.481 90.6856 211.127 91.0609 211.585C91.4362 212.043 91.9707 212.272 92.6646 212.272C93.1315 212.272 93.5373 212.165 93.882 211.951C94.2267 211.737 94.4973 211.43 94.6936 211.028L95.8129 211.415C95.538 212.039 95.1235 212.523 94.5693 212.868C94.0195 213.208 93.402 213.378 92.7169 213.378ZM90.1053 209.975V209.039H95.3286V209.975H90.1053Z" fill="#212528"/>
</g>
<g filter="url(#filter1_d_1653_25678)">
<rect x="49.5" y="230.273" width="61.3636" height="61.3636" rx="8.18182" fill="#EDEDFD"/>
<path d="M94.136 261.273C94.136 268.804 88.0308 274.909 80.4996 274.909C72.9685 274.909 66.8633 268.804 66.8633 261.273C66.8633 253.742 72.9685 247.636 80.4996 247.636C88.0308 247.636 94.136 253.742 94.136 261.273Z" fill="#696BEF"/>
<path d="M94.136 261.273C94.136 268.804 88.0308 274.909 80.4996 274.909C72.9685 274.909 66.8633 268.804 66.8633 261.273C66.8633 253.742 72.9685 247.636 80.4996 247.636C88.0308 247.636 94.136 253.742 94.136 261.273Z" fill="#696BEF"/>
<path d="M90.0454 264C90.0454 264.716 89.9043 265.426 89.6302 266.087C89.356 266.749 88.9543 267.35 88.4478 267.857C87.9413 268.363 87.34 268.765 86.6782 269.039C86.0164 269.313 85.3071 269.455 84.5908 269.455L84.5908 264H90.0454Z" fill="white"/>
<path d="M84.2695 258.824L82.9501 249.128L76.4089 254.455L80.4998 261.145H82.2428C83.4821 261.145 84.4367 260.052 84.2695 258.824Z" fill="#3A3BA6"/>
<path d="M82.6132 269.831L81.7251 273.359L80.5 267.287H80.6297C81.9618 267.287 82.9385 268.54 82.6132 269.831Z" fill="#3A3BA6"/>
<path fill-rule="evenodd" clip-rule="evenodd" d="M80.4998 267.285C77.1108 267.285 74.3634 264.538 74.3634 261.149H81.727C82.4049 261.149 82.9543 260.604 82.9543 259.927V249.122C82.1612 248.961 81.3404 248.876 80.4998 248.876C73.7217 248.876 68.2271 254.371 68.2271 261.149C68.2271 267.927 73.7217 273.422 80.4998 273.422C80.914 273.422 81.3234 273.401 81.727 273.361V268.513C81.727 267.835 81.1776 267.285 80.4998 267.285ZM80.4999 255.013C80.4999 255.69 79.9504 256.24 79.2726 256.24C78.5948 256.24 78.0453 255.69 78.0453 255.013C78.0453 254.335 78.5948 253.785 79.2726 253.785C79.9504 253.785 80.4999 254.335 80.4999 255.013Z" fill="white"/>
</g>
<g filter="url(#filter2_d_1653_25678)">
<rect x="162.409" y="125.545" width="61.3636" height="61.3636" rx="8.18182" fill="#F9EAE5"/>
<path d="M179.772 149.922C179.772 148.308 180.994 147 182.5 147H204.318C205.824 147 207.045 148.308 207.045 149.922V164.532C207.045 166.146 205.824 167.455 204.318 167.455H182.5C180.994 167.455 179.772 166.146 179.772 164.532V149.922Z" fill="#8C2E0E"/>
<path d="M179.772 148.567C179.772 146.949 180.904 145.636 182.301 145.636H204.517C205.913 145.636 207.045 146.949 207.045 148.567C207.045 149.677 206.504 150.692 205.648 151.189L194.628 157.575C193.861 158.02 192.957 158.02 192.189 157.575L181.17 151.189C180.314 150.692 179.772 149.677 179.772 148.567Z" fill="#CC5229"/>
</g>
<g filter="url(#filter3_d_1653_25678)">
<rect x="163.5" y="193.455" width="59.1818" height="31.0909" rx="15.5455" fill="#F9EAE5" shape-rendering="crispEdges"/>
<path d="M177.507 214V204.575H183.464V205.681H178.673V208.633H182.678V209.739H178.673V212.894H183.464V214H177.507ZM193.487 214L193.494 209.477C193.494 208.949 193.352 208.537 193.069 208.24C192.789 207.939 192.425 207.788 191.975 207.788C191.714 207.788 191.465 207.849 191.229 207.972C190.994 208.089 190.802 208.277 190.653 208.535C190.505 208.788 190.431 209.113 190.431 209.51L189.815 209.261C189.807 208.759 189.909 208.321 190.123 207.945C190.341 207.566 190.638 207.271 191.013 207.062C191.389 206.852 191.812 206.748 192.283 206.748C193.021 206.748 193.601 206.972 194.024 207.422C194.447 207.867 194.659 208.467 194.659 209.222L194.653 214H193.487ZM185.031 214V206.931H186.071V208.823H186.202V214H185.031ZM189.266 214L189.272 209.523C189.272 208.982 189.133 208.559 188.853 208.253C188.574 207.943 188.203 207.788 187.741 207.788C187.282 207.788 186.911 207.945 186.628 208.26C186.344 208.574 186.202 208.991 186.202 209.51L185.587 209.143C185.587 208.685 185.696 208.275 185.914 207.913C186.133 207.551 186.429 207.267 186.805 207.062C187.18 206.852 187.605 206.748 188.081 206.748C188.557 206.748 188.971 206.848 189.325 207.049C189.678 207.249 189.951 207.537 190.143 207.913C190.335 208.284 190.431 208.727 190.431 209.241L190.424 214H189.266ZM198.373 214.196C197.845 214.196 197.403 214.1 197.045 213.908C196.691 213.712 196.423 213.455 196.24 213.136C196.061 212.817 195.971 212.468 195.971 212.089C195.971 211.718 196.041 211.397 196.181 211.127C196.325 210.852 196.525 210.625 196.783 210.446C197.04 210.263 197.348 210.119 197.706 210.014C198.042 209.922 198.417 209.844 198.832 209.778C199.251 209.708 199.674 209.645 200.101 209.588C200.529 209.532 200.928 209.477 201.299 209.425L200.88 209.667C200.893 209.039 200.767 208.574 200.501 208.273C200.239 207.972 199.785 207.821 199.139 207.821C198.712 207.821 198.336 207.919 198.013 208.116C197.695 208.308 197.47 208.622 197.339 209.058L196.233 208.724C196.403 208.105 196.733 207.618 197.221 207.265C197.71 206.911 198.354 206.735 199.152 206.735C199.794 206.735 200.344 206.85 200.802 207.081C201.264 207.308 201.596 207.653 201.797 208.116C201.897 208.334 201.96 208.572 201.987 208.829C202.013 209.082 202.026 209.348 202.026 209.628V214H200.992V212.305L201.234 212.462C200.968 213.033 200.595 213.465 200.115 213.758C199.639 214.05 199.059 214.196 198.373 214.196ZM198.55 213.221C198.969 213.221 199.331 213.147 199.637 212.999C199.947 212.846 200.195 212.647 200.383 212.403C200.571 212.154 200.693 211.884 200.749 211.591C200.815 211.373 200.85 211.131 200.854 210.865C200.863 210.594 200.867 210.387 200.867 210.243L201.273 210.42C200.893 210.472 200.52 210.522 200.154 210.57C199.787 210.618 199.44 210.671 199.113 210.727C198.786 210.78 198.491 210.843 198.229 210.917C198.037 210.978 197.856 211.057 197.686 211.153C197.52 211.249 197.385 211.373 197.28 211.526C197.18 211.674 197.13 211.86 197.13 212.082C197.13 212.274 197.178 212.457 197.274 212.632C197.374 212.807 197.527 212.948 197.732 213.057C197.941 213.167 198.214 213.221 198.55 213.221ZM203.859 205.681V204.476H205.024V205.681H203.859ZM203.859 214V206.931H205.024V214H203.859ZM207.118 214V204.378H208.284V214H207.118Z" fill="#212528"/>
</g>
<g filter="url(#filter4_d_1653_25678)">
<rect x="260.409" y="192.636" width="91.1818" height="31.0909" rx="15.5455" fill="#E8F7E8" shape-rendering="crispEdges"/>
<path d="M276.426 213.182L273.696 203.756H274.914L277.008 211.212L279.096 203.763L280.32 203.756L282.415 211.212L284.503 203.756H285.727L282.997 213.182H281.832L279.712 205.792L277.591 213.182H276.426ZM291.876 213.182V209.641C291.876 209.305 291.845 208.982 291.784 208.672C291.728 208.362 291.625 208.085 291.477 207.841C291.333 207.592 291.136 207.396 290.888 207.252C290.643 207.108 290.333 207.036 289.958 207.036C289.666 207.036 289.4 207.086 289.16 207.186C288.924 207.282 288.721 207.431 288.551 207.631C288.381 207.832 288.248 208.085 288.152 208.391C288.06 208.692 288.014 209.047 288.014 209.457L287.248 209.222C287.248 208.537 287.37 207.95 287.615 207.461C287.864 206.968 288.21 206.591 288.656 206.329C289.105 206.063 289.633 205.929 290.24 205.929C290.698 205.929 291.088 206.001 291.411 206.145C291.734 206.289 292.002 206.481 292.216 206.721C292.43 206.957 292.598 207.223 292.72 207.52C292.843 207.812 292.928 208.111 292.976 208.417C293.028 208.718 293.054 209.004 293.054 209.274V213.182H291.876ZM286.836 213.182V203.756H287.883V208.96H288.014V213.182H286.836ZM296.765 213.378C296.237 213.378 295.794 213.282 295.437 213.09C295.083 212.894 294.815 212.636 294.631 212.318C294.453 211.999 294.363 211.65 294.363 211.271C294.363 210.9 294.433 210.579 294.573 210.308C294.717 210.033 294.917 209.807 295.175 209.628C295.432 209.444 295.74 209.3 296.098 209.196C296.434 209.104 296.809 209.025 297.223 208.96C297.642 208.89 298.066 208.827 298.493 208.77C298.921 208.713 299.32 208.659 299.691 208.607L299.272 208.849C299.285 208.22 299.159 207.756 298.893 207.455C298.631 207.153 298.177 207.003 297.531 207.003C297.103 207.003 296.728 207.101 296.405 207.297C296.087 207.489 295.862 207.804 295.731 208.24L294.625 207.906C294.795 207.287 295.125 206.8 295.613 206.447C296.102 206.093 296.746 205.916 297.544 205.916C298.186 205.916 298.735 206.032 299.194 206.263C299.656 206.49 299.988 206.835 300.189 207.297C300.289 207.516 300.352 207.753 300.378 208.011C300.405 208.264 300.418 208.53 300.418 208.809V213.182H299.383V211.487L299.626 211.644C299.359 212.215 298.986 212.647 298.506 212.94C298.031 213.232 297.45 213.378 296.765 213.378ZM296.942 212.403C297.361 212.403 297.723 212.329 298.029 212.18C298.338 212.028 298.587 211.829 298.775 211.585C298.962 211.336 299.085 211.065 299.141 210.773C299.207 210.555 299.242 210.313 299.246 210.047C299.255 209.776 299.259 209.569 299.259 209.425L299.665 209.601C299.285 209.654 298.912 209.704 298.546 209.752C298.179 209.8 297.832 209.852 297.505 209.909C297.178 209.961 296.883 210.025 296.621 210.099C296.429 210.16 296.248 210.239 296.078 210.335C295.912 210.431 295.777 210.555 295.672 210.708C295.572 210.856 295.522 211.041 295.522 211.264C295.522 211.456 295.57 211.639 295.666 211.814C295.766 211.988 295.919 212.13 296.124 212.239C296.333 212.348 296.606 212.403 296.942 212.403ZM306.066 213.182C305.647 213.265 305.233 213.297 304.823 213.28C304.417 213.267 304.055 213.186 303.736 213.038C303.418 212.885 303.175 212.649 303.01 212.331C302.87 212.052 302.794 211.77 302.781 211.487C302.772 211.199 302.767 210.873 302.767 210.511V204.149H303.933V210.459C303.933 210.747 303.935 210.993 303.939 211.199C303.948 211.404 303.994 211.58 304.077 211.729C304.234 212.008 304.482 212.172 304.823 212.22C305.167 212.268 305.582 212.255 306.066 212.18V213.182ZM301.334 207.075V206.113H306.066V207.075H301.334ZM310.172 213.372C309.33 213.372 308.638 213.188 308.097 212.822C307.561 212.451 307.231 211.934 307.109 211.271L308.3 211.081C308.396 211.465 308.617 211.77 308.961 211.997C309.306 212.22 309.734 212.331 310.244 212.331C310.729 212.331 311.108 212.231 311.383 212.03C311.658 211.829 311.795 211.556 311.795 211.212C311.795 211.011 311.75 210.849 311.658 210.727C311.566 210.601 311.377 210.483 311.089 210.374C310.805 210.265 310.375 210.134 309.799 209.981C309.175 209.815 308.684 209.643 308.326 209.464C307.969 209.285 307.713 209.078 307.561 208.842C307.408 208.607 307.331 208.321 307.331 207.985C307.331 207.57 307.445 207.208 307.672 206.898C307.899 206.584 308.215 206.342 308.621 206.172C309.031 206.001 309.507 205.916 310.048 205.916C310.585 205.916 311.065 206.001 311.488 206.172C311.911 206.342 312.251 206.584 312.509 206.898C312.771 207.208 312.926 207.57 312.974 207.985L311.782 208.201C311.726 207.821 311.542 207.522 311.233 207.304C310.927 207.086 310.532 206.97 310.048 206.957C309.59 206.94 309.217 207.02 308.929 207.199C308.645 207.378 308.503 207.62 308.503 207.926C308.503 208.096 308.555 208.242 308.66 208.364C308.769 208.487 308.968 208.602 309.256 208.711C309.548 208.82 309.971 208.945 310.526 209.084C311.15 209.241 311.641 209.414 311.998 209.601C312.361 209.785 312.618 210.003 312.771 210.256C312.923 210.505 313 210.812 313 211.179C313 211.86 312.749 212.396 312.247 212.789C311.745 213.177 311.054 213.372 310.172 213.372ZM313.789 213.182L316.944 203.756H318.567L321.722 213.182H320.511L317.559 204.437H317.926L315 213.182H313.789ZM315.307 210.976V209.883H320.203V210.976H315.307ZM326.14 213.378C325.477 213.378 324.918 213.215 324.465 212.887C324.011 212.556 323.666 212.108 323.43 211.545C323.199 210.978 323.083 210.343 323.083 209.641C323.083 208.929 323.199 208.292 323.43 207.729C323.666 207.167 324.011 206.724 324.465 206.401C324.923 206.078 325.483 205.916 326.147 205.916C326.801 205.916 327.364 206.08 327.835 206.407C328.311 206.73 328.675 207.173 328.929 207.736C329.182 208.299 329.308 208.934 329.308 209.641C329.308 210.348 329.182 210.983 328.929 211.545C328.675 212.108 328.311 212.556 327.835 212.887C327.364 213.215 326.799 213.378 326.14 213.378ZM322.887 216.324V206.113H323.928V211.316H324.059V216.324H322.887ZM325.996 212.311C326.463 212.311 326.849 212.193 327.155 211.958C327.46 211.722 327.689 211.404 327.842 211.002C327.995 210.596 328.071 210.143 328.071 209.641C328.071 209.143 327.995 208.694 327.842 208.292C327.694 207.891 327.462 207.572 327.148 207.337C326.838 207.101 326.443 206.983 325.963 206.983C325.505 206.983 325.126 207.097 324.825 207.324C324.523 207.546 324.299 207.858 324.15 208.26C324.002 208.657 323.928 209.117 323.928 209.641C323.928 210.156 324 210.616 324.144 211.022C324.292 211.423 324.519 211.74 324.825 211.971C325.13 212.198 325.521 212.311 325.996 212.311ZM333.99 213.378C333.326 213.378 332.768 213.215 332.314 212.887C331.86 212.556 331.515 212.108 331.28 211.545C331.049 210.978 330.933 210.343 330.933 209.641C330.933 208.929 331.049 208.292 331.28 207.729C331.515 207.167 331.86 206.724 332.314 206.401C332.772 206.078 333.333 205.916 333.996 205.916C334.651 205.916 335.214 206.08 335.685 206.407C336.161 206.73 336.525 207.173 336.778 207.736C337.031 208.299 337.158 208.934 337.158 209.641C337.158 210.348 337.031 210.983 336.778 211.545C336.525 212.108 336.161 212.556 335.685 212.887C335.214 213.215 334.649 213.378 333.99 213.378ZM330.737 216.324V206.113H331.777V211.316H331.908V216.324H330.737ZM333.846 212.311C334.313 212.311 334.699 212.193 335.004 211.958C335.31 211.722 335.539 211.404 335.691 211.002C335.844 210.596 335.921 210.143 335.921 209.641C335.921 209.143 335.844 208.694 335.691 208.292C335.543 207.891 335.312 207.572 334.998 207.337C334.688 207.101 334.293 206.983 333.813 206.983C333.355 206.983 332.975 207.097 332.674 207.324C332.373 207.546 332.148 207.858 332 208.26C331.851 208.657 331.777 209.117 331.777 209.641C331.777 210.156 331.849 210.616 331.993 211.022C332.142 211.423 332.369 211.74 332.674 211.971C332.979 212.198 333.37 212.311 333.846 212.311Z" fill="#212528"/>
</g>
<g filter="url(#filter5_d_1653_25678)">
<rect x="275.318" y="230.273" width="61.3636" height="61.3636" rx="8.18182" fill="#E8F7E8"/>
<path fill-rule="evenodd" clip-rule="evenodd" d="M303.037 255.782C302.791 255.236 302.533 255.225 302.299 255.215C302.108 255.207 301.889 255.208 301.671 255.208C301.452 255.208 301.097 255.29 300.796 255.618C300.496 255.946 299.648 256.739 299.648 258.353C299.648 259.966 300.824 261.525 300.987 261.744C301.151 261.963 303.256 265.379 306.589 266.693C309.359 267.786 309.923 267.568 310.524 267.514C311.125 267.459 312.464 266.721 312.737 265.955C313.01 265.189 313.01 264.533 312.929 264.396C312.847 264.259 312.628 264.177 312.3 264.014C311.972 263.85 310.36 263.056 310.059 262.947C309.759 262.837 309.54 262.783 309.321 263.111C309.103 263.439 308.475 264.177 308.283 264.396C308.092 264.615 307.901 264.643 307.573 264.479C307.245 264.314 306.189 263.968 304.936 262.851C303.961 261.982 303.303 260.909 303.111 260.58C302.92 260.252 303.091 260.075 303.256 259.911C303.403 259.764 303.583 259.528 303.748 259.337C303.911 259.146 303.966 259.009 304.075 258.79C304.184 258.571 304.13 258.38 304.048 258.216C303.966 258.052 303.329 256.43 303.037 255.782Z" fill="#29A653"/>
<path fill-rule="evenodd" clip-rule="evenodd" d="M296.227 271.514L297.345 267.479C296.124 265.717 295.409 263.578 295.409 261.273C295.409 255.248 300.293 250.364 306.318 250.364C312.343 250.364 317.227 255.248 317.227 261.273C317.227 267.298 312.343 272.182 306.318 272.182C304.125 272.182 302.082 271.534 300.372 270.42L296.227 271.514ZM299.974 273.346L292.331 275.362L294.398 267.9C293.305 265.937 292.682 263.675 292.682 261.273C292.682 253.742 298.787 247.636 306.318 247.636C313.849 247.636 319.954 253.742 319.954 261.273C319.954 268.804 313.849 274.909 306.318 274.909C304.031 274.909 301.871 274.344 299.974 273.346Z" fill="#29A653"/>
</g>
<g filter="url(#filter6_d_1653_25678)">
<rect x="388.227" y="125.545" width="61.3636" height="61.3636" rx="8.18182" fill="#E2F0FF"/>
<path d="M405.591 148.364C405.591 146.104 407.422 144.273 409.681 144.273H428.772C431.032 144.273 432.863 146.104 432.863 148.364V159.273C432.863 161.532 431.032 163.364 428.772 163.364H405.591V148.364Z" fill="#0D4680"/>
<path d="M405.591 148.364C405.591 146.104 407.422 144.273 409.681 144.273H428.915C429.272 144.273 429.627 144.33 429.966 144.443L405.591 168.818V148.364Z" fill="#66BDFF"/>
</g>
<g filter="url(#filter7_d_1653_25678)">
<rect x="391.818" y="193.455" width="54.1818" height="31.0909" rx="15.5455" fill="#E2F0FF" shape-rendering="crispEdges"/>
<path d="M409.17 214.196C408.502 214.196 407.9 214.083 407.363 213.856C406.831 213.629 406.39 213.306 406.041 212.887C405.697 212.464 405.472 211.964 405.367 211.388L406.571 211.199C406.724 211.792 407.041 212.257 407.521 212.593C408.005 212.924 408.574 213.09 409.229 213.09C409.652 213.09 410.034 213.025 410.374 212.894C410.719 212.759 410.992 212.567 411.193 212.318C411.393 212.069 411.494 211.775 411.494 211.434C411.494 211.225 411.457 211.046 411.382 210.897C411.313 210.745 411.214 210.616 411.088 210.511C410.966 210.402 410.826 210.311 410.669 210.236C410.512 210.162 410.348 210.101 410.178 210.053L407.776 209.34C407.514 209.261 407.261 209.163 407.017 209.045C406.772 208.923 406.554 208.772 406.362 208.593C406.17 208.41 406.017 208.192 405.904 207.939C405.79 207.681 405.734 207.378 405.734 207.029C405.734 206.471 405.878 205.995 406.166 205.602C406.458 205.205 406.853 204.902 407.35 204.692C407.848 204.483 408.409 204.38 409.033 204.385C409.665 204.389 410.23 204.503 410.728 204.725C411.23 204.943 411.644 205.257 411.971 205.668C412.303 206.078 412.526 206.569 412.639 207.14L411.402 207.356C411.337 206.972 411.19 206.643 410.963 206.368C410.741 206.089 410.462 205.875 410.126 205.727C409.79 205.574 409.421 205.495 409.019 205.491C408.635 205.487 408.289 205.548 407.979 205.674C407.669 205.801 407.422 205.977 407.239 206.204C407.056 206.427 406.964 206.684 406.964 206.977C406.964 207.265 407.047 207.498 407.213 207.677C407.379 207.852 407.582 207.991 407.822 208.096C408.066 208.196 408.304 208.279 408.535 208.345L410.329 208.862C410.534 208.919 410.769 208.997 411.035 209.097C411.306 209.198 411.568 209.34 411.821 209.523C412.074 209.702 412.283 209.942 412.449 210.243C412.615 210.54 412.698 210.915 412.698 211.369C412.698 211.823 412.606 212.226 412.423 212.58C412.244 212.933 411.993 213.23 411.67 213.47C411.347 213.705 410.972 213.884 410.545 214.007C410.117 214.133 409.659 214.196 409.17 214.196ZM414.071 214V204.575H415.131L418.692 212.082L422.233 204.575H423.307V213.993H422.2V207.134L419 214H418.378L415.177 207.134V214H414.071ZM428.487 214.196C427.819 214.196 427.217 214.083 426.68 213.856C426.148 213.629 425.707 213.306 425.358 212.887C425.013 212.464 424.789 211.964 424.684 211.388L425.888 211.199C426.041 211.792 426.357 212.257 426.837 212.593C427.322 212.924 427.891 213.09 428.546 213.09C428.969 213.09 429.351 213.025 429.691 212.894C430.036 212.759 430.309 212.567 430.509 212.318C430.71 212.069 430.81 211.775 430.81 211.434C430.81 211.225 430.773 211.046 430.699 210.897C430.629 210.745 430.531 210.616 430.405 210.511C430.282 210.402 430.143 210.311 429.986 210.236C429.829 210.162 429.665 210.101 429.495 210.053L427.093 209.34C426.831 209.261 426.578 209.163 426.333 209.045C426.089 208.923 425.871 208.772 425.679 208.593C425.487 208.41 425.334 208.192 425.221 207.939C425.107 207.681 425.05 207.378 425.05 207.029C425.05 206.471 425.194 205.995 425.482 205.602C425.775 205.205 426.17 204.902 426.667 204.692C427.165 204.483 427.725 204.38 428.349 204.385C428.982 204.389 429.547 204.503 430.045 204.725C430.546 204.943 430.961 205.257 431.288 205.668C431.62 206.078 431.842 206.569 431.956 207.14L430.719 207.356C430.653 206.972 430.507 206.643 430.28 206.368C430.058 206.089 429.778 205.875 429.442 205.727C429.106 205.574 428.738 205.495 428.336 205.491C427.952 205.487 427.605 205.548 427.296 205.674C426.986 205.801 426.739 205.977 426.556 206.204C426.373 206.427 426.281 206.684 426.281 206.977C426.281 207.265 426.364 207.498 426.53 207.677C426.696 207.852 426.898 207.991 427.138 208.096C427.383 208.196 427.621 208.279 427.852 208.345L429.645 208.862C429.85 208.919 430.086 208.997 430.352 209.097C430.623 209.198 430.885 209.34 431.138 209.523C431.391 209.702 431.6 209.942 431.766 210.243C431.932 210.54 432.015 210.915 432.015 211.369C432.015 211.823 431.923 212.226 431.74 212.58C431.561 212.933 431.31 213.23 430.987 213.47C430.664 213.705 430.289 213.884 429.861 214.007C429.434 214.133 428.976 214.196 428.487 214.196Z" fill="#212528"/>
</g>
<g filter="url(#filter8_d_1653_25678)">
<rect x="478.636" y="192.636" width="106.182" height="31.0909" rx="15.5455" fill="white" shape-rendering="crispEdges"/>
<rect x="478.636" y="192.636" width="106.182" height="31.0909" rx="15.5455" fill="#DE8644" fill-opacity="0.2" shape-rendering="crispEdges"/>
<path d="M492.644 213.182V203.756H493.822L498.737 211.12V203.756H499.916V213.182H498.737L493.822 205.812V213.182H492.644ZM504.757 213.378C504.054 213.378 503.448 213.219 502.937 212.9C502.431 212.582 502.04 212.141 501.766 211.578C501.491 211.015 501.353 210.369 501.353 209.641C501.353 208.899 501.493 208.249 501.772 207.69C502.051 207.132 502.446 206.697 502.957 206.388C503.467 206.073 504.067 205.916 504.757 205.916C505.464 205.916 506.072 206.076 506.583 206.394C507.094 206.708 507.484 207.147 507.755 207.71C508.03 208.268 508.167 208.912 508.167 209.641C508.167 210.378 508.03 211.028 507.755 211.591C507.48 212.15 507.087 212.588 506.576 212.907C506.066 213.221 505.459 213.378 504.757 213.378ZM504.757 212.272C505.49 212.272 506.035 212.028 506.393 211.539C506.751 211.05 506.93 210.417 506.93 209.641C506.93 208.842 506.749 208.207 506.387 207.736C506.024 207.26 505.481 207.023 504.757 207.023C504.264 207.023 503.858 207.134 503.539 207.356C503.221 207.579 502.983 207.887 502.826 208.279C502.669 208.672 502.59 209.126 502.59 209.641C502.59 210.435 502.774 211.072 503.14 211.552C503.507 212.032 504.046 212.272 504.757 212.272ZM513.555 213.182C513.136 213.265 512.722 213.297 512.311 213.28C511.906 213.267 511.543 213.186 511.225 213.038C510.906 212.885 510.664 212.649 510.498 212.331C510.359 212.052 510.282 211.77 510.269 211.487C510.261 211.199 510.256 210.873 510.256 210.511V204.149H511.421V210.459C511.421 210.747 511.423 210.993 511.428 211.199C511.437 211.404 511.482 211.58 511.565 211.729C511.722 212.008 511.971 212.172 512.311 212.22C512.656 212.268 513.071 212.255 513.555 212.18V213.182ZM508.823 207.075V206.113H513.555V207.075H508.823ZM515.121 204.863V203.658H516.286V204.863H515.121ZM515.121 213.182V206.113H516.286V213.182H515.121ZM518.924 213.182V205.727C518.924 205.543 518.933 205.358 518.951 205.17C518.968 204.978 519.007 204.793 519.068 204.614C519.129 204.431 519.23 204.263 519.369 204.11C519.531 203.931 519.708 203.804 519.9 203.73C520.092 203.652 520.286 203.604 520.482 203.586C520.683 203.569 520.873 203.56 521.052 203.56H521.948V204.529H521.117C520.772 204.529 520.515 204.614 520.345 204.784C520.175 204.95 520.089 205.203 520.089 205.543V213.182H518.924ZM517.727 207.075V206.113H521.948V207.075H517.727ZM523.323 204.863V203.658H524.488V204.863H523.323ZM523.323 213.182V206.113H524.488V213.182H523.323ZM529.436 213.378C528.72 213.378 528.111 213.219 527.61 212.9C527.112 212.577 526.732 212.135 526.471 211.572C526.209 211.009 526.074 210.367 526.065 209.647C526.074 208.91 526.211 208.262 526.477 207.703C526.748 207.14 527.134 206.702 527.636 206.388C528.138 206.073 528.742 205.916 529.449 205.916C530.195 205.916 530.836 206.1 531.373 206.466C531.914 206.833 532.276 207.335 532.46 207.972L531.308 208.319C531.159 207.908 530.917 207.59 530.581 207.363C530.25 207.136 529.868 207.023 529.436 207.023C528.951 207.023 528.552 207.136 528.238 207.363C527.924 207.585 527.69 207.895 527.538 208.292C527.385 208.685 527.306 209.137 527.302 209.647C527.311 210.433 527.492 211.068 527.845 211.552C528.203 212.032 528.733 212.272 529.436 212.272C529.898 212.272 530.282 212.167 530.588 211.958C530.893 211.744 531.124 211.436 531.282 211.035L532.46 211.343C532.215 212.001 531.834 212.505 531.314 212.855C530.795 213.204 530.169 213.378 529.436 213.378ZM535.741 213.378C535.213 213.378 534.77 213.282 534.412 213.09C534.059 212.894 533.791 212.636 533.607 212.318C533.428 211.999 533.339 211.65 533.339 211.271C533.339 210.9 533.409 210.579 533.548 210.308C533.692 210.033 533.893 209.807 534.151 209.628C534.408 209.444 534.716 209.3 535.074 209.196C535.41 209.104 535.785 209.025 536.199 208.96C536.618 208.89 537.042 208.827 537.469 208.77C537.897 208.713 538.296 208.659 538.667 208.607L538.248 208.849C538.261 208.22 538.135 207.756 537.868 207.455C537.607 207.153 537.153 207.003 536.507 207.003C536.079 207.003 535.704 207.101 535.381 207.297C535.063 207.489 534.838 207.804 534.707 208.24L533.601 207.906C533.771 207.287 534.1 206.8 534.589 206.447C535.078 206.093 535.722 205.916 536.52 205.916C537.162 205.916 537.711 206.032 538.17 206.263C538.632 206.49 538.964 206.835 539.164 207.297C539.265 207.516 539.328 207.753 539.354 208.011C539.38 208.264 539.394 208.53 539.394 208.809V213.182H538.359V211.487L538.602 211.644C538.335 212.215 537.962 212.647 537.482 212.94C537.007 213.232 536.426 213.378 535.741 213.378ZM535.918 212.403C536.337 212.403 536.699 212.329 537.004 212.18C537.314 212.028 537.563 211.829 537.751 211.585C537.938 211.336 538.06 211.065 538.117 210.773C538.183 210.555 538.218 210.313 538.222 210.047C538.231 209.776 538.235 209.569 538.235 209.425L538.641 209.601C538.261 209.654 537.888 209.704 537.522 209.752C537.155 209.8 536.808 209.852 536.481 209.909C536.154 209.961 535.859 210.025 535.597 210.099C535.405 210.16 535.224 210.239 535.054 210.335C534.888 210.431 534.753 210.555 534.648 210.708C534.548 210.856 534.498 211.041 534.498 211.264C534.498 211.456 534.546 211.639 534.642 211.814C534.742 211.988 534.895 212.13 535.1 212.239C535.309 212.348 535.582 212.403 535.918 212.403ZM545.042 213.182C544.623 213.265 544.209 213.297 543.799 213.28C543.393 213.267 543.031 213.186 542.712 213.038C542.394 212.885 542.151 212.649 541.986 212.331C541.846 212.052 541.77 211.77 541.756 211.487C541.748 211.199 541.743 210.873 541.743 210.511V204.149H542.908V210.459C542.908 210.747 542.911 210.993 542.915 211.199C542.924 211.404 542.97 211.58 543.052 211.729C543.21 212.008 543.458 212.172 543.799 212.22C544.143 212.268 544.558 212.255 545.042 212.18V213.182ZM540.31 207.075V206.113H545.042V207.075H540.31ZM546.608 204.863V203.658H547.773V204.863H546.608ZM546.608 213.182V206.113H547.773V213.182H546.608ZM552.748 213.378C552.046 213.378 551.439 213.219 550.929 212.9C550.422 212.582 550.032 212.141 549.757 211.578C549.482 211.015 549.345 210.369 549.345 209.641C549.345 208.899 549.484 208.249 549.764 207.69C550.043 207.132 550.438 206.697 550.948 206.388C551.459 206.073 552.059 205.916 552.748 205.916C553.455 205.916 554.064 206.076 554.574 206.394C555.085 206.708 555.476 207.147 555.746 207.71C556.021 208.268 556.158 208.912 556.158 209.641C556.158 210.378 556.021 211.028 555.746 211.591C555.471 212.15 555.078 212.588 554.568 212.907C554.057 213.221 553.451 213.378 552.748 213.378ZM552.748 212.272C553.481 212.272 554.027 212.028 554.385 211.539C554.742 211.05 554.921 210.417 554.921 209.641C554.921 208.842 554.74 208.207 554.378 207.736C554.016 207.26 553.473 207.023 552.748 207.023C552.255 207.023 551.849 207.134 551.531 207.356C551.212 207.579 550.974 207.887 550.817 208.279C550.66 208.672 550.582 209.126 550.582 209.641C550.582 210.435 550.765 211.072 551.132 211.552C551.498 212.032 552.037 212.272 552.748 212.272ZM562.633 213.182V209.641C562.633 209.305 562.603 208.982 562.541 208.672C562.485 208.362 562.382 208.085 562.234 207.841C562.09 207.592 561.893 207.396 561.645 207.252C561.4 207.108 561.091 207.036 560.715 207.036C560.423 207.036 560.157 207.086 559.917 207.186C559.681 207.282 559.478 207.431 559.308 207.631C559.138 207.832 559.005 208.085 558.909 208.391C558.817 208.692 558.771 209.047 558.771 209.457L558.005 209.222C558.005 208.537 558.128 207.95 558.372 207.461C558.621 206.968 558.968 206.591 559.413 206.329C559.862 206.063 560.39 205.929 560.997 205.929C561.455 205.929 561.845 206.001 562.168 206.145C562.491 206.289 562.76 206.481 562.973 206.721C563.187 206.957 563.355 207.223 563.477 207.52C563.6 207.812 563.685 208.111 563.733 208.417C563.785 208.718 563.811 209.004 563.811 209.274V213.182H562.633ZM557.593 213.182V206.113H558.64V208.004H558.771V213.182H557.593ZM568.184 213.372C567.341 213.372 566.65 213.188 566.109 212.822C565.572 212.451 565.242 211.934 565.12 211.271L566.312 211.081C566.408 211.465 566.628 211.77 566.973 211.997C567.317 212.22 567.745 212.331 568.256 212.331C568.74 212.331 569.12 212.231 569.394 212.03C569.669 211.829 569.807 211.556 569.807 211.212C569.807 211.011 569.761 210.849 569.669 210.727C569.578 210.601 569.388 210.483 569.1 210.374C568.816 210.265 568.386 210.134 567.81 209.981C567.186 209.815 566.696 209.643 566.338 209.464C565.98 209.285 565.725 209.078 565.572 208.842C565.419 208.607 565.343 208.321 565.343 207.985C565.343 207.57 565.456 207.208 565.683 206.898C565.91 206.584 566.226 206.342 566.632 206.172C567.042 206.001 567.518 205.916 568.059 205.916C568.596 205.916 569.076 206.001 569.499 206.172C569.922 206.342 570.263 206.584 570.52 206.898C570.782 207.208 570.937 207.57 570.985 207.985L569.794 208.201C569.737 207.821 569.554 207.522 569.244 207.304C568.938 207.086 568.544 206.97 568.059 206.957C567.601 206.94 567.228 207.02 566.94 207.199C566.656 207.378 566.514 207.62 566.514 207.926C566.514 208.096 566.567 208.242 566.672 208.364C566.781 208.487 566.979 208.602 567.267 208.711C567.56 208.82 567.983 208.945 568.537 209.084C569.161 209.241 569.652 209.414 570.01 209.601C570.372 209.785 570.629 210.003 570.782 210.256C570.935 210.505 571.011 210.812 571.011 211.179C571.011 211.86 570.76 212.396 570.258 212.789C569.757 213.177 569.065 213.372 568.184 213.372Z" fill="#212528"/>
</g>
<g filter="url(#filter9_d_1653_25678)">
<rect x="501.136" y="230.273" width="61.3636" height="61.3636" rx="8.18182" fill="white"/>
<rect x="501.136" y="230.273" width="61.3636" height="61.3636" rx="8.18182" fill="#DE8644" fill-opacity="0.2"/>
</g>
<g clip-path="url(#clip0_1653_25678)">
<mask id="mask0_1653_25678" style="mask-type:luminance" maskUnits="userSpaceOnUse" x="515" y="245" width="34" height="33">
<path d="M548.182 245H515.455V277.727H548.182V245Z" fill="white"/>
</mask>
<g mask="url(#mask0_1653_25678)">
<path d="M542.727 247.727H520.909C519.409 247.727 518.182 248.955 518.182 250.455V275L523.636 269.545H542.727C544.227 269.545 545.454 268.318 545.454 266.818V250.455C545.454 248.955 544.227 247.727 542.727 247.727ZM542.727 266.818H523.636L520.909 269.545V250.455H542.727V266.818Z" fill="#DE8644"/>
<path d="M531.818 264.773C532.51 264.773 533.077 264.206 533.077 263.514H530.559C530.559 264.206 531.119 264.773 531.818 264.773ZM535.594 260.997V257.85C535.594 255.917 534.562 254.3 532.762 253.872V253.444C532.762 252.922 532.34 252.5 531.818 252.5C531.296 252.5 530.874 252.922 530.874 253.444V253.872C529.068 254.3 528.042 255.911 528.042 257.85V260.997L526.783 262.255V262.885H536.853V262.255L535.594 260.997Z" fill="#DE8644"/>
</g>
</g>
<g filter="url(#filter10_d_1653_25678)">
<rect x="198" y="330.909" width="210.355" height="39.6775" rx="19.8388" fill="white" shape-rendering="crispEdges"/>
<path d="M215.845 357.248V345.24H217.196L221.732 354.805L226.243 345.24H227.611V357.239H226.202V348.5L222.124 357.248H221.332L217.254 348.5V357.248H215.845ZM233.368 357.481C232.79 357.481 232.292 357.39 231.875 357.206C231.464 357.023 231.122 356.778 230.85 356.472C230.577 356.167 230.363 355.827 230.208 355.455C230.052 355.083 229.941 354.702 229.874 354.313C229.813 353.923 229.782 353.559 229.782 353.22V348.242H231.283V352.753C231.283 353.176 231.322 353.584 231.4 353.979C231.478 354.374 231.609 354.73 231.792 355.046C231.981 355.363 232.231 355.613 232.543 355.797C232.859 355.98 233.254 356.072 233.727 356.072C234.099 356.072 234.438 356.008 234.744 355.88C235.05 355.752 235.311 355.563 235.528 355.313C235.745 355.058 235.911 354.735 236.028 354.346C236.145 353.957 236.203 353.504 236.203 352.987L237.179 353.287C237.179 354.154 237.02 354.902 236.704 355.53C236.392 356.158 235.95 356.642 235.378 356.981C234.811 357.315 234.141 357.481 233.368 357.481ZM236.37 357.248V354.838H236.203V348.242H237.696V357.248H236.37ZM240.197 357.248V344.99H241.682V357.248H240.197ZM249.212 357.248C248.678 357.353 248.15 357.395 247.628 357.373C247.111 357.356 246.649 357.253 246.243 357.064C245.838 356.87 245.529 356.57 245.318 356.164C245.14 355.808 245.043 355.449 245.026 355.088C245.015 354.721 245.009 354.307 245.009 353.846V345.74H246.494V353.779C246.494 354.146 246.496 354.46 246.502 354.721C246.513 354.982 246.571 355.208 246.677 355.397C246.877 355.752 247.194 355.961 247.628 356.022C248.067 356.083 248.595 356.067 249.212 355.972V357.248ZM243.183 349.468V348.242H249.212V349.468H243.183ZM251.207 346.649V345.115H252.691V346.649H251.207ZM251.207 357.248V348.242H252.691V357.248H251.207ZM255.027 352.603V351.377H260.03V352.603H255.027ZM265.991 357.498C265.079 357.498 264.304 357.295 263.664 356.889C263.031 356.478 262.547 355.914 262.213 355.197C261.88 354.479 261.708 353.662 261.696 352.745C261.708 351.805 261.883 350.98 262.222 350.268C262.566 349.551 263.058 348.992 263.698 348.592C264.337 348.192 265.107 347.992 266.008 347.992C266.958 347.992 267.775 348.225 268.459 348.692C269.148 349.159 269.61 349.799 269.843 350.61L268.376 351.052C268.187 350.53 267.878 350.124 267.45 349.835C267.028 349.546 266.541 349.401 265.991 349.401C265.374 349.401 264.865 349.546 264.465 349.835C264.065 350.118 263.767 350.513 263.573 351.019C263.378 351.519 263.278 352.094 263.272 352.745C263.284 353.746 263.514 354.554 263.965 355.171C264.42 355.783 265.096 356.089 265.991 356.089C266.58 356.089 267.069 355.955 267.458 355.688C267.848 355.416 268.142 355.024 268.342 354.513L269.843 354.905C269.532 355.744 269.046 356.386 268.384 356.831C267.723 357.276 266.925 357.498 265.991 357.498ZM277.958 357.248V352.737C277.958 352.309 277.919 351.897 277.841 351.502C277.769 351.108 277.638 350.755 277.449 350.443C277.266 350.127 277.015 349.876 276.699 349.693C276.387 349.509 275.993 349.418 275.515 349.418C275.142 349.418 274.803 349.482 274.497 349.61C274.197 349.732 273.938 349.921 273.722 350.177C273.505 350.432 273.335 350.755 273.213 351.144C273.096 351.527 273.038 351.981 273.038 352.503L272.062 352.203C272.062 351.33 272.218 350.582 272.529 349.96C272.846 349.332 273.288 348.851 273.855 348.517C274.428 348.178 275.1 348.008 275.873 348.008C276.457 348.008 276.954 348.1 277.366 348.284C277.777 348.467 278.119 348.712 278.391 349.017C278.664 349.318 278.878 349.657 279.033 350.035C279.189 350.407 279.298 350.788 279.359 351.177C279.425 351.561 279.459 351.925 279.459 352.27V357.248H277.958ZM271.537 357.248V345.24H272.871V351.869H273.038V357.248H271.537ZM284.187 357.498C283.514 357.498 282.95 357.376 282.494 357.131C282.044 356.881 281.702 356.553 281.468 356.147C281.24 355.741 281.126 355.297 281.126 354.813C281.126 354.34 281.215 353.932 281.393 353.587C281.577 353.237 281.832 352.948 282.16 352.72C282.488 352.486 282.88 352.303 283.336 352.17C283.764 352.053 284.242 351.953 284.77 351.869C285.304 351.78 285.843 351.7 286.388 351.628C286.933 351.555 287.442 351.486 287.914 351.419L287.38 351.728C287.397 350.927 287.236 350.335 286.897 349.951C286.563 349.568 285.985 349.376 285.162 349.376C284.618 349.376 284.139 349.501 283.728 349.751C283.322 349.996 283.036 350.396 282.869 350.952L281.46 350.527C281.677 349.737 282.096 349.118 282.719 348.667C283.342 348.217 284.162 347.992 285.179 347.992C285.996 347.992 286.697 348.139 287.28 348.434C287.87 348.723 288.292 349.162 288.548 349.751C288.676 350.029 288.756 350.332 288.79 350.66C288.823 350.983 288.84 351.322 288.84 351.678V357.248H287.522V355.088L287.831 355.288C287.492 356.016 287.016 356.567 286.405 356.939C285.799 357.312 285.059 357.498 284.187 357.498ZM284.412 356.256C284.946 356.256 285.407 356.161 285.796 355.972C286.191 355.777 286.508 355.524 286.747 355.213C286.986 354.896 287.141 354.552 287.214 354.179C287.297 353.901 287.342 353.593 287.347 353.254C287.358 352.909 287.364 352.645 287.364 352.461L287.881 352.687C287.397 352.753 286.922 352.817 286.455 352.878C285.988 352.939 285.546 353.006 285.129 353.078C284.712 353.145 284.337 353.226 284.003 353.32C283.759 353.398 283.528 353.498 283.311 353.62C283.1 353.743 282.928 353.901 282.794 354.096C282.666 354.285 282.602 354.521 282.602 354.805C282.602 355.049 282.663 355.283 282.786 355.505C282.914 355.727 283.108 355.908 283.369 356.047C283.636 356.186 283.984 356.256 284.412 356.256ZM297.42 357.248V352.737C297.42 352.309 297.381 351.897 297.304 351.502C297.231 351.108 297.101 350.755 296.912 350.443C296.728 350.127 296.478 349.876 296.161 349.693C295.85 349.509 295.455 349.418 294.977 349.418C294.605 349.418 294.265 349.482 293.96 349.61C293.66 349.732 293.401 349.921 293.184 350.177C292.967 350.432 292.798 350.755 292.676 351.144C292.559 351.527 292.5 351.981 292.5 352.503L291.525 352.203C291.525 351.33 291.68 350.582 291.992 349.96C292.309 349.332 292.751 348.851 293.318 348.517C293.89 348.178 294.563 348.008 295.336 348.008C295.919 348.008 296.417 348.1 296.828 348.284C297.24 348.467 297.582 348.712 297.854 349.017C298.126 349.318 298.34 349.657 298.496 350.035C298.652 350.407 298.76 350.788 298.821 351.177C298.888 351.561 298.921 351.925 298.921 352.27V357.248H297.42ZM290.999 357.248V348.242H292.334V350.652H292.5V357.248H290.999ZM307.502 357.248V352.737C307.502 352.309 307.463 351.897 307.385 351.502C307.313 351.108 307.182 350.755 306.993 350.443C306.81 350.127 306.559 349.876 306.243 349.693C305.931 349.509 305.537 349.418 305.058 349.418C304.686 349.418 304.347 349.482 304.041 349.61C303.741 349.732 303.482 349.921 303.266 350.177C303.049 350.432 302.879 350.755 302.757 351.144C302.64 351.527 302.582 351.981 302.582 352.503L301.606 352.203C301.606 351.33 301.762 350.582 302.073 349.96C302.39 349.332 302.832 348.851 303.399 348.517C303.972 348.178 304.644 348.008 305.417 348.008C306.001 348.008 306.498 348.1 306.91 348.284C307.321 348.467 307.663 348.712 307.935 349.017C308.208 349.318 308.422 349.657 308.577 350.035C308.733 350.407 308.842 350.788 308.903 351.177C308.969 351.561 309.003 351.925 309.003 352.27V357.248H307.502ZM301.081 357.248V348.242H302.415V350.652H302.582V357.248H301.081ZM314.992 357.498C314.108 357.498 313.335 357.303 312.674 356.914C312.018 356.52 311.506 355.972 311.139 355.272C310.772 354.566 310.589 353.743 310.589 352.803C310.589 351.819 310.77 350.969 311.131 350.252C311.492 349.529 311.995 348.973 312.64 348.584C313.291 348.189 314.052 347.992 314.925 347.992C315.831 347.992 316.601 348.2 317.235 348.617C317.874 349.034 318.352 349.629 318.669 350.402C318.992 351.174 319.131 352.094 319.086 353.162H317.585V352.628C317.568 351.522 317.343 350.696 316.91 350.152C316.476 349.601 315.831 349.326 314.975 349.326C314.058 349.326 313.36 349.621 312.882 350.21C312.404 350.799 312.165 351.644 312.165 352.745C312.165 353.807 312.404 354.629 312.882 355.213C313.36 355.797 314.041 356.089 314.925 356.089C315.52 356.089 316.037 355.953 316.476 355.68C316.915 355.408 317.26 355.016 317.51 354.504L318.936 354.996C318.586 355.791 318.058 356.408 317.352 356.848C316.651 357.281 315.865 357.498 314.992 357.498ZM311.665 353.162V351.969H318.319V353.162H311.665ZM321.109 357.248V344.99H322.594V357.248H321.109ZM332.696 357.498C331.845 357.498 331.078 357.353 330.394 357.064C329.716 356.775 329.154 356.364 328.71 355.83C328.271 355.291 327.984 354.654 327.851 353.921L329.385 353.679C329.58 354.435 329.983 355.027 330.594 355.455C331.211 355.878 331.937 356.089 332.771 356.089C333.31 356.089 333.796 356.005 334.23 355.839C334.669 355.666 335.017 355.422 335.272 355.105C335.528 354.788 335.656 354.413 335.656 353.979C335.656 353.712 335.609 353.484 335.514 353.295C335.425 353.101 335.3 352.937 335.139 352.803C334.983 352.664 334.805 352.548 334.605 352.453C334.405 352.359 334.197 352.281 333.98 352.22L330.919 351.311C330.586 351.211 330.263 351.085 329.952 350.935C329.641 350.78 329.363 350.588 329.118 350.36C328.874 350.127 328.679 349.849 328.535 349.526C328.39 349.198 328.318 348.812 328.318 348.367C328.318 347.655 328.501 347.05 328.868 346.549C329.241 346.043 329.744 345.657 330.377 345.39C331.011 345.123 331.726 344.993 332.521 344.998C333.327 345.004 334.047 345.148 334.68 345.432C335.32 345.71 335.848 346.11 336.265 346.633C336.687 347.155 336.971 347.781 337.115 348.509L335.539 348.784C335.456 348.295 335.27 347.875 334.98 347.525C334.697 347.169 334.341 346.897 333.913 346.708C333.485 346.513 333.015 346.413 332.504 346.407C332.015 346.402 331.573 346.48 331.178 346.641C330.783 346.802 330.469 347.027 330.236 347.316C330.002 347.6 329.885 347.928 329.885 348.3C329.885 348.667 329.991 348.965 330.202 349.193C330.414 349.415 330.672 349.593 330.978 349.726C331.289 349.854 331.592 349.96 331.887 350.043L334.172 350.702C334.433 350.774 334.733 350.874 335.072 351.002C335.417 351.13 335.75 351.311 336.073 351.544C336.395 351.772 336.662 352.078 336.873 352.461C337.085 352.839 337.19 353.317 337.19 353.896C337.19 354.474 337.073 354.988 336.84 355.438C336.612 355.889 336.292 356.267 335.881 356.572C335.47 356.873 334.992 357.101 334.447 357.256C333.902 357.417 333.318 357.498 332.696 357.498ZM342.358 357.481C341.78 357.481 341.283 357.39 340.866 357.206C340.454 357.023 340.112 356.778 339.84 356.472C339.568 356.167 339.354 355.827 339.198 355.455C339.042 355.083 338.931 354.702 338.864 354.313C338.803 353.923 338.773 353.559 338.773 353.22V348.242H340.274V352.753C340.274 353.176 340.313 353.584 340.39 353.979C340.468 354.374 340.599 354.73 340.782 355.046C340.971 355.363 341.221 355.613 341.533 355.797C341.85 355.98 342.244 356.072 342.717 356.072C343.089 356.072 343.428 356.008 343.734 355.88C344.04 355.752 344.301 355.563 344.518 355.313C344.735 355.058 344.902 354.735 345.018 354.346C345.135 353.957 345.193 353.504 345.193 352.987L346.169 353.287C346.169 354.154 346.011 354.902 345.694 355.53C345.382 356.158 344.941 356.642 344.368 356.981C343.801 357.315 343.131 357.481 342.358 357.481ZM345.36 357.248V354.838H345.193V348.242H346.686V357.248H345.36ZM353.157 357.498C352.312 357.498 351.6 357.29 351.022 356.873C350.444 356.45 350.005 355.88 349.705 355.163C349.41 354.44 349.263 353.632 349.263 352.737C349.263 351.83 349.41 351.019 349.705 350.302C350.005 349.585 350.444 349.02 351.022 348.609C351.606 348.197 352.32 347.992 353.165 347.992C353.999 347.992 354.716 348.2 355.317 348.617C355.923 349.029 356.387 349.593 356.709 350.31C357.032 351.027 357.193 351.836 357.193 352.737C357.193 353.637 357.032 354.446 356.709 355.163C356.387 355.88 355.923 356.45 355.317 356.873C354.716 357.29 353.996 357.498 353.157 357.498ZM349.012 361.25V348.242H350.338V354.871H350.505V361.25H349.012ZM352.973 356.139C353.568 356.139 354.06 355.989 354.449 355.688C354.839 355.388 355.13 354.982 355.325 354.471C355.52 353.954 355.617 353.376 355.617 352.737C355.617 352.103 355.52 351.53 355.325 351.019C355.136 350.507 354.841 350.102 354.441 349.801C354.046 349.501 353.543 349.351 352.932 349.351C352.348 349.351 351.864 349.496 351.481 349.785C351.097 350.068 350.811 350.466 350.622 350.977C350.433 351.483 350.338 352.069 350.338 352.737C350.338 353.393 350.43 353.979 350.614 354.496C350.803 355.007 351.092 355.411 351.481 355.705C351.87 355.994 352.367 356.139 352.973 356.139ZM363.157 357.498C362.312 357.498 361.6 357.29 361.022 356.873C360.444 356.45 360.005 355.88 359.705 355.163C359.41 354.44 359.263 353.632 359.263 352.737C359.263 351.83 359.41 351.019 359.705 350.302C360.005 349.585 360.444 349.02 361.022 348.609C361.606 348.197 362.32 347.992 363.165 347.992C363.999 347.992 364.716 348.2 365.317 348.617C365.923 349.029 366.387 349.593 366.709 350.31C367.032 351.027 367.193 351.836 367.193 352.737C367.193 353.637 367.032 354.446 366.709 355.163C366.387 355.88 365.923 356.45 365.317 356.873C364.716 357.29 363.996 357.498 363.157 357.498ZM359.012 361.25V348.242H360.338V354.871H360.505V361.25H359.012ZM362.973 356.139C363.568 356.139 364.06 355.989 364.449 355.688C364.839 355.388 365.13 354.982 365.325 354.471C365.52 353.954 365.617 353.376 365.617 352.737C365.617 352.103 365.52 351.53 365.325 351.019C365.136 350.507 364.841 350.102 364.441 349.801C364.046 349.501 363.543 349.351 362.932 349.351C362.348 349.351 361.864 349.496 361.481 349.785C361.097 350.068 360.811 350.466 360.622 350.977C360.433 351.483 360.338 352.069 360.338 352.737C360.338 353.393 360.43 353.979 360.614 354.496C360.803 355.007 361.092 355.411 361.481 355.705C361.87 355.994 362.367 356.139 362.973 356.139ZM372.857 357.498C371.962 357.498 371.189 357.295 370.539 356.889C369.894 356.483 369.396 355.922 369.046 355.205C368.696 354.488 368.521 353.665 368.521 352.737C368.521 351.792 368.698 350.963 369.054 350.252C369.41 349.54 369.913 348.987 370.564 348.592C371.214 348.192 371.978 347.992 372.857 347.992C373.757 347.992 374.533 348.195 375.183 348.601C375.834 349.001 376.331 349.559 376.676 350.277C377.026 350.988 377.201 351.808 377.201 352.737C377.201 353.676 377.026 354.504 376.676 355.222C376.326 355.933 375.825 356.492 375.175 356.898C374.524 357.298 373.752 357.498 372.857 357.498ZM372.857 356.089C373.791 356.089 374.486 355.777 374.941 355.155C375.397 354.532 375.625 353.726 375.625 352.737C375.625 351.719 375.394 350.91 374.933 350.31C374.472 349.704 373.78 349.401 372.857 349.401C372.228 349.401 371.711 349.543 371.306 349.826C370.9 350.11 370.597 350.502 370.397 351.002C370.197 351.502 370.097 352.081 370.097 352.737C370.097 353.748 370.33 354.56 370.797 355.171C371.264 355.783 371.951 356.089 372.857 356.089ZM379.037 357.248V348.242H380.363V350.418L380.146 350.135C380.252 349.857 380.388 349.601 380.555 349.368C380.727 349.134 380.919 348.942 381.13 348.792C381.364 348.603 381.628 348.459 381.922 348.359C382.217 348.259 382.517 348.2 382.823 348.184C383.129 348.161 383.415 348.181 383.682 348.242V349.635C383.371 349.551 383.029 349.529 382.656 349.568C382.284 349.607 381.939 349.743 381.622 349.976C381.333 350.182 381.108 350.432 380.947 350.727C380.791 351.022 380.683 351.341 380.621 351.686C380.56 352.025 380.53 352.372 380.53 352.728V357.248H379.037ZM390.287 357.248C389.753 357.353 389.225 357.395 388.703 357.373C388.186 357.356 387.724 357.253 387.318 357.064C386.912 356.87 386.604 356.57 386.393 356.164C386.215 355.808 386.118 355.449 386.101 355.088C386.09 354.721 386.084 354.307 386.084 353.846V345.74H387.568V353.779C387.568 354.146 387.571 354.46 387.577 354.721C387.588 354.982 387.646 355.208 387.752 355.397C387.952 355.752 388.269 355.961 388.703 356.022C389.142 356.083 389.67 356.067 390.287 355.972V357.248ZM384.258 349.468V348.242H390.287V349.468H384.258Z" fill="#212528"/>
</g>
<defs>
<filter id="filter0_d_1653_25678" x="46.8181" y="192.636" width="66.7273" height="37.6364" filterUnits="userSpaceOnUse" color-interpolation-filters="sRGB">
<feFlood flood-opacity="0" result="BackgroundImageFix"/>
<feColorMatrix in="SourceAlpha" type="matrix" values="0 0 0 0 0 0 0 0 0 0 0 0 0 0 0 0 0 0 127 0" result="hardAlpha"/>
<feOffset dy="3.27273"/>
<feGaussianBlur stdDeviation="1.63636"/>
<feComposite in2="hardAlpha" operator="out"/>
<feColorMatrix type="matrix" values="0 0 0 0 0 0 0 0 0 0 0 0 0 0 0 0 0 0 0.25 0"/>
<feBlend mode="normal" in2="BackgroundImageFix" result="effect1_dropShadow_1653_25678"/>
<feBlend mode="normal" in="SourceGraphic" in2="effect1_dropShadow_1653_25678" result="shape"/>
</filter>
<filter id="filter1_d_1653_25678" x="46.2273" y="230.273" width="67.909" height="67.9091" filterUnits="userSpaceOnUse" color-interpolation-filters="sRGB">
<feFlood flood-opacity="0" result="BackgroundImageFix"/>
<feColorMatrix in="SourceAlpha" type="matrix" values="0 0 0 0 0 0 0 0 0 0 0 0 0 0 0 0 0 0 127 0" result="hardAlpha"/>
<feOffset dy="3.27273"/>
<feGaussianBlur stdDeviation="1.63636"/>
<feComposite in2="hardAlpha" operator="out"/>
<feColorMatrix type="matrix" values="0 0 0 0 0 0 0 0 0 0 0 0 0 0 0 0 0 0 0.25 0"/>
<feBlend mode="normal" in2="BackgroundImageFix" result="effect1_dropShadow_1653_25678"/>
<feBlend mode="normal" in="SourceGraphic" in2="effect1_dropShadow_1653_25678" result="shape"/>
</filter>
<filter id="filter2_d_1653_25678" x="159.136" y="125.545" width="67.909" height="67.9091" filterUnits="userSpaceOnUse" color-interpolation-filters="sRGB">
<feFlood flood-opacity="0" result="BackgroundImageFix"/>
<feColorMatrix in="SourceAlpha" type="matrix" values="0 0 0 0 0 0 0 0 0 0 0 0 0 0 0 0 0 0 127 0" result="hardAlpha"/>
<feOffset dy="3.27273"/>
<feGaussianBlur stdDeviation="1.63636"/>
<feComposite in2="hardAlpha" operator="out"/>
<feColorMatrix type="matrix" values="0 0 0 0 0 0 0 0 0 0 0 0 0 0 0 0 0 0 0.25 0"/>
<feBlend mode="normal" in2="BackgroundImageFix" result="effect1_dropShadow_1653_25678"/>
<feBlend mode="normal" in="SourceGraphic" in2="effect1_dropShadow_1653_25678" result="shape"/>
</filter>
<filter id="filter3_d_1653_25678" x="160.227" y="193.455" width="65.7273" height="37.6364" filterUnits="userSpaceOnUse" color-interpolation-filters="sRGB">
<feFlood flood-opacity="0" result="BackgroundImageFix"/>
<feColorMatrix in="SourceAlpha" type="matrix" values="0 0 0 0 0 0 0 0 0 0 0 0 0 0 0 0 0 0 127 0" result="hardAlpha"/>
<feOffset dy="3.27273"/>
<feGaussianBlur stdDeviation="1.63636"/>
<feComposite in2="hardAlpha" operator="out"/>
<feColorMatrix type="matrix" values="0 0 0 0 0 0 0 0 0 0 0 0 0 0 0 0 0 0 0.25 0"/>
<feBlend mode="normal" in2="BackgroundImageFix" result="effect1_dropShadow_1653_25678"/>
<feBlend mode="normal" in="SourceGraphic" in2="effect1_dropShadow_1653_25678" result="shape"/>
</filter>
<filter id="filter4_d_1653_25678" x="257.136" y="192.636" width="97.7273" height="37.6364" filterUnits="userSpaceOnUse" color-interpolation-filters="sRGB">
<feFlood flood-opacity="0" result="BackgroundImageFix"/>
<feColorMatrix in="SourceAlpha" type="matrix" values="0 0 0 0 0 0 0 0 0 0 0 0 0 0 0 0 0 0 127 0" result="hardAlpha"/>
<feOffset dy="3.27273"/>
<feGaussianBlur stdDeviation="1.63636"/>
<feComposite in2="hardAlpha" operator="out"/>
<feColorMatrix type="matrix" values="0 0 0 0 0 0 0 0 0 0 0 0 0 0 0 0 0 0 0.25 0"/>
<feBlend mode="normal" in2="BackgroundImageFix" result="effect1_dropShadow_1653_25678"/>
<feBlend mode="normal" in="SourceGraphic" in2="effect1_dropShadow_1653_25678" result="shape"/>
</filter>
<filter id="filter5_d_1653_25678" x="272.045" y="230.273" width="67.909" height="67.9091" filterUnits="userSpaceOnUse" color-interpolation-filters="sRGB">
<feFlood flood-opacity="0" result="BackgroundImageFix"/>
<feColorMatrix in="SourceAlpha" type="matrix" values="0 0 0 0 0 0 0 0 0 0 0 0 0 0 0 0 0 0 127 0" result="hardAlpha"/>
<feOffset dy="3.27273"/>
<feGaussianBlur stdDeviation="1.63636"/>
<feComposite in2="hardAlpha" operator="out"/>
<feColorMatrix type="matrix" values="0 0 0 0 0 0 0 0 0 0 0 0 0 0 0 0 0 0 0.25 0"/>
<feBlend mode="normal" in2="BackgroundImageFix" result="effect1_dropShadow_1653_25678"/>
<feBlend mode="normal" in="SourceGraphic" in2="effect1_dropShadow_1653_25678" result="shape"/>
</filter>
<filter id="filter6_d_1653_25678" x="384.955" y="125.545" width="67.909" height="67.9091" filterUnits="userSpaceOnUse" color-interpolation-filters="sRGB">
<feFlood flood-opacity="0" result="BackgroundImageFix"/>
<feColorMatrix in="SourceAlpha" type="matrix" values="0 0 0 0 0 0 0 0 0 0 0 0 0 0 0 0 0 0 127 0" result="hardAlpha"/>
<feOffset dy="3.27273"/>
<feGaussianBlur stdDeviation="1.63636"/>
<feComposite in2="hardAlpha" operator="out"/>
<feColorMatrix type="matrix" values="0 0 0 0 0 0 0 0 0 0 0 0 0 0 0 0 0 0 0.25 0"/>
<feBlend mode="normal" in2="BackgroundImageFix" result="effect1_dropShadow_1653_25678"/>
<feBlend mode="normal" in="SourceGraphic" in2="effect1_dropShadow_1653_25678" result="shape"/>
</filter>
<filter id="filter7_d_1653_25678" x="388.545" y="193.455" width="60.7273" height="37.6364" filterUnits="userSpaceOnUse" color-interpolation-filters="sRGB">
<feFlood flood-opacity="0" result="BackgroundImageFix"/>
<feColorMatrix in="SourceAlpha" type="matrix" values="0 0 0 0 0 0 0 0 0 0 0 0 0 0 0 0 0 0 127 0" result="hardAlpha"/>
<feOffset dy="3.27273"/>
<feGaussianBlur stdDeviation="1.63636"/>
<feComposite in2="hardAlpha" operator="out"/>
<feColorMatrix type="matrix" values="0 0 0 0 0 0 0 0 0 0 0 0 0 0 0 0 0 0 0.25 0"/>
<feBlend mode="normal" in2="BackgroundImageFix" result="effect1_dropShadow_1653_25678"/>
<feBlend mode="normal" in="SourceGraphic" in2="effect1_dropShadow_1653_25678" result="shape"/>
</filter>
<filter id="filter8_d_1653_25678" x="475.364" y="192.636" width="112.727" height="37.6364" filterUnits="userSpaceOnUse" color-interpolation-filters="sRGB">
<feFlood flood-opacity="0" result="BackgroundImageFix"/>
<feColorMatrix in="SourceAlpha" type="matrix" values="0 0 0 0 0 0 0 0 0 0 0 0 0 0 0 0 0 0 127 0" result="hardAlpha"/>
<feOffset dy="3.27273"/>
<feGaussianBlur stdDeviation="1.63636"/>
<feComposite in2="hardAlpha" operator="out"/>
<feColorMatrix type="matrix" values="0 0 0 0 0 0 0 0 0 0 0 0 0 0 0 0 0 0 0.25 0"/>
<feBlend mode="normal" in2="BackgroundImageFix" result="effect1_dropShadow_1653_25678"/>
<feBlend mode="normal" in="SourceGraphic" in2="effect1_dropShadow_1653_25678" result="shape"/>
</filter>
<filter id="filter9_d_1653_25678" x="497.864" y="230.273" width="67.909" height="67.9091" filterUnits="userSpaceOnUse" color-interpolation-filters="sRGB">
<feFlood flood-opacity="0" result="BackgroundImageFix"/>
<feColorMatrix in="SourceAlpha" type="matrix" values="0 0 0 0 0 0 0 0 0 0 0 0 0 0 0 0 0 0 127 0" result="hardAlpha"/>
<feOffset dy="3.27273"/>
<feGaussianBlur stdDeviation="1.63636"/>
<feComposite in2="hardAlpha" operator="out"/>
<feColorMatrix type="matrix" values="0 0 0 0 0 0 0 0 0 0 0 0 0 0 0 0 0 0 0.25 0"/>
<feBlend mode="normal" in2="BackgroundImageFix" result="effect1_dropShadow_1653_25678"/>
<feBlend mode="normal" in="SourceGraphic" in2="effect1_dropShadow_1653_25678" result="shape"/>
</filter>
<filter id="filter10_d_1653_25678" x="193.831" y="330.909" width="218.694" height="48.0163" filterUnits="userSpaceOnUse" color-interpolation-filters="sRGB">
<feFlood flood-opacity="0" result="BackgroundImageFix"/>
<feColorMatrix in="SourceAlpha" type="matrix" values="0 0 0 0 0 0 0 0 0 0 0 0 0 0 0 0 0 0 127 0" result="hardAlpha"/>
<feOffset dy="4.16938"/>
<feGaussianBlur stdDeviation="2.08469"/>
<feComposite in2="hardAlpha" operator="out"/>
<feColorMatrix type="matrix" values="0 0 0 0 0 0 0 0 0 0 0 0 0 0 0 0 0 0 0.25 0"/>
<feBlend mode="normal" in2="BackgroundImageFix" result="effect1_dropShadow_1653_25678"/>
<feBlend mode="normal" in="SourceGraphic" in2="effect1_dropShadow_1653_25678" result="shape"/>
</filter>
<clipPath id="clip0_1653_25678">
<rect width="32.7273" height="32.7273" fill="white" transform="translate(515.455 244.182)"/>
</clipPath>
</defs>
</svg>
