<svg width="544" height="402" viewBox="0 0 544 402" fill="none" xmlns="http://www.w3.org/2000/svg">
<g clip-path="url(#clip0_869_14637)">
<g filter="url(#filter0_d_869_14637)">
<rect x="36.1914" y="51" width="364.818" height="234.23" rx="8.20074" fill="white"/>
</g>
<ellipse cx="57.9568" cy="68.1014" rx="6.21848" ry="6.73669" fill="#DF434C"/>
<circle cx="75.057" cy="68.1014" r="6.73669" fill="#E7B44C"/>
<circle cx="91.639" cy="68.1014" r="6.73669" fill="#6BD280"/>
<rect x="108.027" y="60.8418" width="271.703" height="13.7378" rx="6.86889" fill="#E1E3E8"/>
<g filter="url(#filter1_bdii_869_14637)">
<rect x="353.484" y="85.3423" width="184.109" height="39.6347" rx="19.8173" fill="#5E9BF0"/>
</g>
<path d="M426.334 98.0324V107.046C426.334 107.89 426.468 108.625 426.737 109.252C427.018 109.878 427.402 110.396 427.887 110.805C428.386 111.201 428.961 111.502 429.613 111.706C430.266 111.911 430.969 112.013 431.723 112.013C432.477 112.013 433.181 111.911 433.833 111.706C434.498 111.502 435.073 111.201 435.559 110.805C436.057 110.396 436.441 109.878 436.709 109.252C436.991 108.625 437.131 107.89 437.131 107.046V98.0324H433.89V106.816C433.89 107.494 433.711 108.043 433.353 108.465C432.995 108.887 432.452 109.098 431.723 109.098C431.007 109.098 430.47 108.887 430.112 108.465C429.754 108.043 429.575 107.494 429.575 106.816V98.0324H426.334ZM443.041 115.676V102.635H440.146V115.676H443.041ZM450.252 107.046C450.252 106.01 450.048 105.147 449.639 104.457C449.242 103.754 448.725 103.223 448.085 102.865C447.459 102.507 446.781 102.328 446.052 102.328C445.285 102.328 444.62 102.526 444.058 102.923C443.508 103.306 443.086 103.85 442.792 104.553C442.498 105.256 442.351 106.087 442.351 107.046C442.351 107.992 442.498 108.823 442.792 109.539C443.086 110.242 443.508 110.792 444.058 111.189C444.62 111.572 445.285 111.764 446.052 111.764C446.781 111.764 447.459 111.585 448.085 111.227C448.725 110.869 449.242 110.338 449.639 109.635C450.048 108.932 450.252 108.069 450.252 107.046ZM447.203 107.046C447.203 107.506 447.107 107.896 446.915 108.216C446.724 108.536 446.468 108.778 446.148 108.945C445.829 109.111 445.477 109.194 445.093 109.194C444.761 109.194 444.435 109.117 444.115 108.964C443.809 108.798 443.553 108.555 443.348 108.235C443.144 107.915 443.041 107.519 443.041 107.046C443.041 106.573 443.144 106.177 443.348 105.857C443.553 105.537 443.809 105.301 444.115 105.147C444.435 104.981 444.761 104.898 445.093 104.898C445.477 104.898 445.829 104.981 446.148 105.147C446.468 105.314 446.724 105.557 446.915 105.876C447.107 106.196 447.203 106.586 447.203 107.046ZM452.577 96.4981V111.457H455.492V96.4981H452.577ZM457.803 107.046C457.803 107.967 458.021 108.772 458.455 109.463C458.89 110.153 459.491 110.69 460.258 111.073C461.025 111.457 461.888 111.649 462.847 111.649C463.806 111.649 464.663 111.457 465.417 111.073C466.184 110.69 466.785 110.153 467.22 109.463C467.667 108.772 467.891 107.967 467.891 107.046C467.891 106.113 467.667 105.301 467.22 104.61C466.785 103.92 466.184 103.383 465.417 103C464.663 102.616 463.806 102.424 462.847 102.424C461.888 102.424 461.025 102.616 460.258 103C459.491 103.383 458.89 103.92 458.455 104.61C458.021 105.301 457.803 106.113 457.803 107.046ZM460.776 107.046C460.776 106.586 460.872 106.189 461.063 105.857C461.255 105.525 461.505 105.269 461.811 105.09C462.118 104.911 462.463 104.821 462.847 104.821C463.218 104.821 463.557 104.911 463.863 105.09C464.183 105.269 464.432 105.525 464.611 105.857C464.803 106.189 464.899 106.586 464.899 107.046C464.899 107.506 464.803 107.903 464.611 108.235C464.432 108.555 464.183 108.804 463.863 108.983C463.557 109.162 463.218 109.252 462.847 109.252C462.463 109.252 462.118 109.162 461.811 108.983C461.505 108.804 461.255 108.555 461.063 108.235C460.872 107.903 460.776 107.506 460.776 107.046ZM472.452 108.695C472.452 108.478 472.503 108.299 472.606 108.158C472.708 108.005 472.861 107.89 473.066 107.813C473.27 107.736 473.545 107.698 473.891 107.698C474.338 107.698 474.76 107.762 475.156 107.89C475.565 108.005 475.923 108.178 476.23 108.408V107.123C476.077 106.957 475.847 106.797 475.54 106.643C475.233 106.49 474.862 106.362 474.428 106.26C474.006 106.157 473.526 106.106 472.989 106.106C471.89 106.106 471.039 106.356 470.439 106.854C469.838 107.34 469.537 108.005 469.537 108.849C469.537 109.45 469.678 109.961 469.959 110.383C470.253 110.805 470.637 111.125 471.11 111.342C471.596 111.547 472.12 111.649 472.682 111.649C473.245 111.649 473.769 111.553 474.255 111.361C474.741 111.157 475.137 110.863 475.444 110.479C475.751 110.083 475.904 109.603 475.904 109.041L475.597 107.89C475.597 108.299 475.508 108.644 475.329 108.926C475.15 109.207 474.92 109.418 474.639 109.558C474.357 109.699 474.05 109.769 473.718 109.769C473.488 109.769 473.277 109.731 473.085 109.654C472.893 109.565 472.74 109.443 472.625 109.29C472.51 109.124 472.452 108.926 472.452 108.695ZM471.167 105.339C471.295 105.263 471.5 105.167 471.781 105.052C472.062 104.924 472.388 104.815 472.759 104.726C473.143 104.636 473.533 104.591 473.929 104.591C474.197 104.591 474.434 104.617 474.639 104.668C474.856 104.719 475.035 104.802 475.176 104.917C475.316 105.032 475.418 105.173 475.482 105.339C475.559 105.493 475.597 105.678 475.597 105.895V111.457H478.378V105.243C478.378 104.63 478.199 104.112 477.841 103.69C477.483 103.268 476.997 102.948 476.384 102.731C475.77 102.501 475.073 102.386 474.293 102.386C473.462 102.386 472.695 102.494 471.992 102.712C471.289 102.929 470.688 103.159 470.189 103.402L471.167 105.339ZM487.815 96.4981V111.457H490.711V96.4981H487.815ZM480.604 107.046C480.604 108.031 480.802 108.868 481.199 109.558C481.608 110.236 482.132 110.754 482.771 111.112C483.41 111.47 484.088 111.649 484.804 111.649C485.546 111.649 486.198 111.463 486.76 111.093C487.336 110.722 487.789 110.191 488.122 109.501C488.454 108.81 488.621 107.992 488.621 107.046C488.621 106.087 488.454 105.269 488.122 104.591C487.789 103.901 487.336 103.37 486.76 103C486.198 102.629 485.546 102.443 484.804 102.443C484.088 102.443 483.41 102.622 482.771 102.98C482.132 103.338 481.608 103.856 481.199 104.534C480.802 105.211 480.604 106.049 480.604 107.046ZM483.653 107.046C483.653 106.586 483.749 106.189 483.941 105.857C484.133 105.512 484.389 105.25 484.708 105.071C485.028 104.879 485.379 104.783 485.763 104.783C486.095 104.783 486.415 104.873 486.722 105.052C487.042 105.231 487.304 105.493 487.508 105.838C487.713 106.17 487.815 106.573 487.815 107.046C487.815 107.519 487.713 107.928 487.508 108.273C487.304 108.606 487.042 108.862 486.722 109.041C486.415 109.22 486.095 109.309 485.763 109.309C485.379 109.309 485.028 109.22 484.708 109.041C484.389 108.849 484.133 108.587 483.941 108.254C483.749 107.909 483.653 107.506 483.653 107.046Z" fill="white"/>
<rect x="51.7383" y="87.2739" width="49.7479" height="6.21848" rx="3.10924" fill="#E1E3E8"/>
<rect x="51.7383" y="98.6743" width="49.7479" height="6.21848" rx="3.10924" fill="#E1E3E8"/>
<rect x="114.398" y="225.982" width="162.374" height="5.11415" rx="2.55708" fill="#E1E3E8"/>
<rect x="114.398" y="240.046" width="121.461" height="5.11415" rx="2.55708" fill="#E1E3E8"/>
<path d="M400.829 111.507L395.366 106.209L389.902 111.507" stroke="white" stroke-width="2.55708" stroke-linecap="round" stroke-linejoin="round"/>
<path d="M395.363 106.209V118.13" stroke="white" stroke-width="2.55708" stroke-linecap="round" stroke-linejoin="round"/>
<path d="M406.824 114.673C408.156 113.969 409.208 112.854 409.815 111.506C410.421 110.157 410.547 108.651 410.173 107.225C409.799 105.799 408.946 104.535 407.748 103.631C406.55 102.728 405.077 102.237 403.559 102.236H401.838C401.425 100.685 400.654 99.2459 399.584 98.0256C398.515 96.8053 397.174 95.836 395.662 95.1907C394.15 94.5453 392.507 94.2407 390.857 94.2997C389.206 94.3586 387.591 94.7797 386.132 95.5312C384.674 96.2826 383.41 97.345 382.435 98.6383C381.461 99.9316 380.802 101.422 380.507 102.998C380.213 104.574 380.29 106.194 380.734 107.737C381.178 109.28 381.977 110.705 383.071 111.905" stroke="white" stroke-width="2.55708" stroke-linecap="round" stroke-linejoin="round"/>
<path d="M400.829 111.507L395.366 106.209L389.902 111.507" stroke="white" stroke-width="2.55708" stroke-linecap="round" stroke-linejoin="round"/>
<path d="M160.56 102.73L145.378 87.4562C145.317 89.5776 145.196 94.3293 145.196 97.8204C145.196 101.312 147.863 102.548 149.196 102.73H160.56Z" fill="#A5B8F3"/>
<path d="M160.56 102.73H149.196C147.863 102.548 145.196 101.312 145.196 97.8204C145.196 94.3293 145.317 89.5776 145.378 87.4562C137.438 87.3956 120.831 87.2744 117.922 87.2744C115.013 87.2744 114.043 89.82 113.922 91.0928V141.095C113.922 144.15 116.346 145.156 117.558 145.277H156.106C159.742 145.277 160.59 142.732 160.56 141.459V102.73Z" fill="#C5DCFC"/>
<rect x="122.289" y="107.638" width="18.1828" height="2.54559" rx="1.27279" fill="#8A8C8E"/>
<rect x="122.289" y="114.185" width="25.0922" height="2.54559" rx="1.27279" fill="#8A8C8E"/>
<g filter="url(#filter2_f_869_14637)">
<rect x="145.926" y="103.274" width="13.4552" height="2.18193" fill="#090909" fill-opacity="0.2"/>
</g>
<g filter="url(#filter3_f_869_14637)">
<rect x="143.707" y="101.457" width="4.73681" height="2.18193" transform="rotate(40.6074 143.707 101.457)" fill="#090909" fill-opacity="0.2"/>
</g>
<g filter="url(#filter4_f_869_14637)">
<rect x="144.105" y="88.3643" width="11.637" height="1.45462" transform="rotate(90 144.105 88.3643)" fill="#090909" fill-opacity="0.2"/>
</g>
<path d="M218.603 102.73L203.421 87.4562C203.36 89.5776 203.239 94.3293 203.239 97.8204C203.239 101.312 205.906 102.548 207.239 102.73H218.603Z" fill="#A5B8F3"/>
<path d="M218.603 102.73H207.239C205.906 102.548 203.239 101.312 203.239 97.8204C203.239 94.3293 203.36 89.5776 203.421 87.4562C195.481 87.3956 178.874 87.2744 175.965 87.2744C173.056 87.2744 172.086 89.82 171.965 91.0928V141.095C171.965 144.15 174.389 145.156 175.601 145.277H214.149C217.785 145.277 218.633 142.732 218.603 141.459V102.73Z" fill="#C5DCFC"/>
<rect x="180.332" y="107.638" width="18.1828" height="2.54559" rx="1.27279" fill="#8A8C8E"/>
<rect x="180.332" y="114.185" width="25.0922" height="2.54559" rx="1.27279" fill="#8A8C8E"/>
<g filter="url(#filter5_f_869_14637)">
<rect x="203.969" y="103.274" width="13.4552" height="2.18193" fill="#090909" fill-opacity="0.2"/>
</g>
<g filter="url(#filter6_f_869_14637)">
<rect x="201.75" y="101.457" width="4.73681" height="2.18193" transform="rotate(40.6074 201.75 101.457)" fill="#090909" fill-opacity="0.2"/>
</g>
<g filter="url(#filter7_f_869_14637)">
<rect x="202.148" y="88.3647" width="11.637" height="1.45462" transform="rotate(90 202.148 88.3647)" fill="#090909" fill-opacity="0.2"/>
</g>
<path d="M276.634 102.729L261.452 87.4558C261.392 89.5771 261.27 94.3288 261.27 97.8199C261.27 101.311 263.937 102.547 265.271 102.729H276.634Z" fill="#A5B8F3"/>
<path d="M276.634 102.729H265.271C263.937 102.547 261.27 101.311 261.27 97.8199C261.27 94.3288 261.392 89.5771 261.452 87.4558C253.512 87.3951 236.906 87.2739 233.996 87.2739C231.087 87.2739 230.117 89.8195 229.996 91.0923V141.095C229.996 144.15 232.42 145.156 233.633 145.277H272.18C275.817 145.277 276.665 142.731 276.634 141.459V102.729Z" fill="#C5DCFC"/>
<rect x="238.363" y="107.638" width="18.1828" height="2.54559" rx="1.27279" fill="#8A8C8E"/>
<rect x="238.363" y="114.185" width="25.0922" height="2.54559" rx="1.27279" fill="#8A8C8E"/>
<g filter="url(#filter8_f_869_14637)">
<rect x="262" y="103.275" width="13.4552" height="2.18193" fill="#090909" fill-opacity="0.2"/>
</g>
<g filter="url(#filter9_f_869_14637)">
<rect x="259.781" y="101.456" width="4.73681" height="2.18193" transform="rotate(40.6074 259.781 101.456)" fill="#090909" fill-opacity="0.2"/>
</g>
<g filter="url(#filter10_f_869_14637)">
<rect x="260.18" y="88.3643" width="11.637" height="1.45462" transform="rotate(90 260.18 88.3643)" fill="#090909" fill-opacity="0.2"/>
</g>
<path d="M334.681 102.73L319.499 87.4562C319.439 89.5776 319.317 94.3293 319.317 97.8204C319.317 101.312 321.984 102.548 323.318 102.73H334.681Z" fill="#A5B8F3"/>
<path d="M334.681 102.73H323.318C321.984 102.548 319.317 101.312 319.317 97.8204C319.317 94.3293 319.439 89.5776 319.499 87.4562C311.559 87.3956 294.952 87.2744 292.043 87.2744C289.134 87.2744 288.164 89.82 288.043 91.0928V141.095C288.043 144.15 290.467 145.156 291.68 145.277H330.227C333.864 145.277 334.711 142.732 334.681 141.459V102.73Z" fill="#C5DCFC"/>
<rect x="296.41" y="107.638" width="18.1828" height="2.54559" rx="1.27279" fill="#8A8C8E"/>
<rect x="296.41" y="114.185" width="25.0922" height="2.54559" rx="1.27279" fill="#8A8C8E"/>
<g filter="url(#filter11_f_869_14637)">
<rect x="320.047" y="103.274" width="13.4552" height="2.18193" fill="#090909" fill-opacity="0.2"/>
</g>
<g filter="url(#filter12_f_869_14637)">
<rect x="317.828" y="101.457" width="4.73681" height="2.18193" transform="rotate(40.6074 317.828 101.457)" fill="#090909" fill-opacity="0.2"/>
</g>
<g filter="url(#filter13_f_869_14637)">
<rect x="318.227" y="88.3647" width="11.637" height="1.45462" transform="rotate(90 318.227 88.3647)" fill="#090909" fill-opacity="0.2"/>
</g>
<path d="M160.56 171.134L145.378 155.86C145.317 157.981 145.196 162.733 145.196 166.224C145.196 169.715 147.863 170.952 149.196 171.134H160.56Z" fill="#A5B8F3"/>
<path d="M160.56 171.134H149.196C147.863 170.952 145.196 169.715 145.196 166.224C145.196 162.733 145.317 157.981 145.378 155.86C137.438 155.799 120.831 155.678 117.922 155.678C115.013 155.678 114.043 158.224 113.922 159.497V209.499C113.922 212.554 116.346 213.56 117.558 213.681H156.106C159.742 213.681 160.59 211.136 160.56 209.863V171.134Z" fill="#C5DCFC"/>
<rect x="122.289" y="176.042" width="18.1828" height="2.54559" rx="1.27279" fill="#8A8C8E"/>
<rect x="122.289" y="182.589" width="25.0922" height="2.54559" rx="1.27279" fill="#8A8C8E"/>
<g filter="url(#filter14_f_869_14637)">
<rect x="145.926" y="171.678" width="13.4552" height="2.18193" fill="#090909" fill-opacity="0.2"/>
</g>
<g filter="url(#filter15_f_869_14637)">
<rect x="143.707" y="169.861" width="4.73681" height="2.18193" transform="rotate(40.6074 143.707 169.861)" fill="#090909" fill-opacity="0.2"/>
</g>
<g filter="url(#filter16_f_869_14637)">
<rect x="144.105" y="156.769" width="11.637" height="1.45462" transform="rotate(90 144.105 156.769)" fill="#090909" fill-opacity="0.2"/>
</g>
<path d="M218.603 173.205L203.421 157.932C203.36 160.053 203.239 164.805 203.239 168.296C203.239 171.787 205.906 173.024 207.239 173.205H218.603Z" fill="#A5B8F3"/>
<path d="M218.603 173.205H207.239C205.906 173.024 203.239 171.787 203.239 168.296C203.239 164.805 203.36 160.053 203.421 157.932C195.481 157.871 178.874 157.75 175.965 157.75C173.056 157.75 172.086 160.296 171.965 161.568V211.571C171.965 214.626 174.389 215.632 175.601 215.753H214.149C217.785 215.753 218.633 213.207 218.603 211.935V173.205Z" fill="#C5DCFC"/>
<rect x="180.332" y="178.114" width="18.1828" height="2.54559" rx="1.27279" fill="#8A8C8E"/>
<rect x="180.332" y="184.661" width="25.0922" height="2.54559" rx="1.27279" fill="#8A8C8E"/>
<g filter="url(#filter17_f_869_14637)">
<rect x="203.969" y="173.75" width="13.4552" height="2.18193" fill="#090909" fill-opacity="0.2"/>
</g>
<g filter="url(#filter18_f_869_14637)">
<rect x="201.75" y="171.932" width="4.73681" height="2.18193" transform="rotate(40.6074 201.75 171.932)" fill="#090909" fill-opacity="0.2"/>
</g>
<g filter="url(#filter19_f_869_14637)">
<rect x="202.148" y="158.84" width="11.637" height="1.45462" transform="rotate(90 202.148 158.84)" fill="#090909" fill-opacity="0.2"/>
</g>
<path d="M276.634 172.171L261.452 156.897C261.392 159.018 261.27 163.77 261.27 167.261C261.27 170.752 263.937 171.989 265.271 172.171H276.634Z" fill="#A5B8F3"/>
<path d="M276.634 172.171H265.271C263.937 171.989 261.27 170.752 261.27 167.261C261.27 163.77 261.392 159.018 261.452 156.897C253.512 156.837 236.906 156.715 233.996 156.715C231.087 156.715 230.117 159.261 229.996 160.534V210.536C229.996 213.591 232.42 214.597 233.633 214.718H272.18C275.817 214.718 276.665 212.173 276.634 210.9V172.171Z" fill="#C5DCFC"/>
<rect x="238.363" y="177.079" width="18.1828" height="2.54559" rx="1.27279" fill="#8A8C8E"/>
<rect x="238.363" y="183.626" width="25.0922" height="2.54559" rx="1.27279" fill="#8A8C8E"/>
<g filter="url(#filter20_f_869_14637)">
<rect x="262" y="172.715" width="13.4552" height="2.18193" fill="#090909" fill-opacity="0.2"/>
</g>
<g filter="url(#filter21_f_869_14637)">
<rect x="259.781" y="170.897" width="4.73681" height="2.18193" transform="rotate(40.6074 259.781 170.897)" fill="#090909" fill-opacity="0.2"/>
</g>
<g filter="url(#filter22_f_869_14637)">
<rect x="260.18" y="157.806" width="11.637" height="1.45462" transform="rotate(90 260.18 157.806)" fill="#090909" fill-opacity="0.2"/>
</g>
<g filter="url(#filter23_d_869_14637)">
<rect x="321.523" y="165.891" width="95.7795" height="184.109" rx="10.4761" fill="#EDF1FC"/>
<rect x="325.781" y="191.432" width="87.7979" height="138.348" fill="white"/>
<line x1="355.794" y1="184.831" x2="378.778" y2="184.831" stroke="#7979A6" stroke-width="2.55708" stroke-linecap="round"/>
<circle cx="382.983" cy="184.78" r="1.33027" fill="#7979A6"/>
</g>
<path d="M354.847 233.049L347.796 225.956C347.768 226.941 347.712 229.148 347.712 230.769C347.712 232.391 348.95 232.965 349.57 233.049H354.847Z" fill="#A5B8F3"/>
<path d="M354.847 233.049H349.57C348.95 232.965 347.712 232.391 347.712 230.769C347.712 229.148 347.768 226.941 347.796 225.956C344.109 225.928 336.396 225.872 335.045 225.872C333.694 225.872 333.244 227.054 333.188 227.645V250.867C333.188 252.286 334.313 252.753 334.876 252.809H352.779C354.468 252.809 354.861 251.627 354.847 251.036V233.049Z" fill="#C5DCFC"/>
<rect x="337.07" y="235.33" width="8.44445" height="1.18222" rx="0.591111" fill="#8A8C8E"/>
<rect x="337.07" y="238.37" width="11.6533" height="1.18222" rx="0.591111" fill="#8A8C8E"/>
<g filter="url(#filter24_f_869_14637)">
<rect x="348.043" y="233.302" width="6.24889" height="1.01333" fill="#090909" fill-opacity="0.2"/>
</g>
<g filter="url(#filter25_f_869_14637)">
<rect x="347.02" y="232.458" width="2.19987" height="1.01333" transform="rotate(40.6074 347.02 232.458)" fill="#090909" fill-opacity="0.2"/>
</g>
<g filter="url(#filter26_f_869_14637)">
<rect x="347.203" y="226.378" width="5.40445" height="0.675555" transform="rotate(90 347.203 226.378)" fill="#090909" fill-opacity="0.2"/>
</g>
<path d="M382.335 233.05L375.285 225.957C375.257 226.942 375.2 229.149 375.2 230.77C375.2 232.392 376.439 232.966 377.058 233.05H382.335Z" fill="#A5B8F3"/>
<path d="M382.335 233.05H377.058C376.439 232.966 375.2 232.392 375.2 230.77C375.2 229.149 375.257 226.942 375.285 225.957C371.597 225.929 363.885 225.873 362.534 225.873C361.182 225.873 360.732 227.055 360.676 227.646V250.868C360.676 252.287 361.802 252.754 362.365 252.81H380.267C381.956 252.81 382.35 251.628 382.335 251.037V233.05Z" fill="#C5DCFC"/>
<rect x="364.559" y="235.331" width="8.44445" height="1.18222" rx="0.591111" fill="#8A8C8E"/>
<rect x="364.559" y="238.37" width="11.6533" height="1.18222" rx="0.591111" fill="#8A8C8E"/>
<g filter="url(#filter27_f_869_14637)">
<rect x="375.539" y="233.303" width="6.24889" height="1.01333" fill="#090909" fill-opacity="0.2"/>
</g>
<g filter="url(#filter28_f_869_14637)">
<rect x="374.508" y="232.46" width="2.19987" height="1.01333" transform="rotate(40.6074 374.508 232.46)" fill="#090909" fill-opacity="0.2"/>
</g>
<g filter="url(#filter29_f_869_14637)">
<rect x="374.691" y="226.38" width="5.40445" height="0.675555" transform="rotate(90 374.691 226.38)" fill="#090909" fill-opacity="0.2"/>
</g>
<path d="M409.828 233.051L402.777 225.957C402.749 226.943 402.692 229.149 402.692 230.771C402.692 232.392 403.931 232.966 404.55 233.051H409.828Z" fill="#A5B8F3"/>
<path d="M409.828 233.051H404.55C403.931 232.966 402.692 232.392 402.692 230.771C402.692 229.149 402.749 226.943 402.777 225.957C399.089 225.929 391.377 225.873 390.026 225.873C388.675 225.873 388.224 227.055 388.168 227.646V250.869C388.168 252.287 389.294 252.755 389.857 252.811H407.759C409.448 252.811 409.842 251.629 409.828 251.038V233.051Z" fill="#C5DCFC"/>
<rect x="392.051" y="235.331" width="8.44445" height="1.18222" rx="0.591111" fill="#8A8C8E"/>
<rect x="392.051" y="238.371" width="11.6533" height="1.18222" rx="0.591111" fill="#8A8C8E"/>
<g filter="url(#filter30_f_869_14637)">
<rect x="403.031" y="233.304" width="6.24889" height="1.01333" fill="#090909" fill-opacity="0.2"/>
</g>
<g filter="url(#filter31_f_869_14637)">
<rect x="402" y="232.46" width="2.19987" height="1.01333" transform="rotate(40.6074 402 232.46)" fill="#090909" fill-opacity="0.2"/>
</g>
<g filter="url(#filter32_f_869_14637)">
<rect x="402.184" y="226.38" width="5.40445" height="0.675555" transform="rotate(90 402.184 226.38)" fill="#090909" fill-opacity="0.2"/>
</g>
<path d="M354.847 266.374L347.796 259.28C347.768 260.265 347.712 262.472 347.712 264.094C347.712 265.715 348.95 266.289 349.57 266.374H354.847Z" fill="#A5B8F3"/>
<path d="M354.847 266.374H349.57C348.95 266.289 347.712 265.715 347.712 264.094C347.712 262.472 347.768 260.265 347.796 259.28C344.109 259.252 336.396 259.196 335.045 259.196C333.694 259.196 333.244 260.378 333.188 260.969V284.191C333.188 285.61 334.313 286.077 334.876 286.134H352.779C354.468 286.134 354.861 284.951 354.847 284.36V266.374Z" fill="#C5DCFC"/>
<rect x="337.07" y="268.654" width="8.44445" height="1.18222" rx="0.591111" fill="#8A8C8E"/>
<rect x="337.07" y="271.693" width="11.6533" height="1.18222" rx="0.591111" fill="#8A8C8E"/>
<g filter="url(#filter33_f_869_14637)">
<rect x="348.043" y="266.626" width="6.24889" height="1.01333" fill="#090909" fill-opacity="0.2"/>
</g>
<g filter="url(#filter34_f_869_14637)">
<rect x="347.02" y="265.783" width="2.19987" height="1.01333" transform="rotate(40.6074 347.02 265.783)" fill="#090909" fill-opacity="0.2"/>
</g>
<g filter="url(#filter35_f_869_14637)">
<rect x="347.203" y="259.703" width="5.40445" height="0.675555" transform="rotate(90 347.203 259.703)" fill="#090909" fill-opacity="0.2"/>
</g>
<path d="M382.335 267.207L375.285 260.113C375.257 261.098 375.2 263.305 375.2 264.927C375.2 266.548 376.439 267.122 377.058 267.207H382.335Z" fill="#A5B8F3"/>
<path d="M382.335 267.207H377.058C376.439 267.122 375.2 266.548 375.2 264.927C375.2 263.305 375.257 261.098 375.285 260.113C371.597 260.085 363.885 260.029 362.534 260.029C361.182 260.029 360.732 261.211 360.676 261.802V285.024C360.676 286.443 361.802 286.91 362.365 286.967H380.267C381.956 286.967 382.35 285.784 382.335 285.193V267.207Z" fill="#C5DCFC"/>
<rect x="364.559" y="269.487" width="8.44445" height="1.18222" rx="0.591111" fill="#8A8C8E"/>
<rect x="364.559" y="272.526" width="11.6533" height="1.18222" rx="0.591111" fill="#8A8C8E"/>
<g filter="url(#filter36_f_869_14637)">
<rect x="375.539" y="267.46" width="6.24889" height="1.01333" fill="#090909" fill-opacity="0.2"/>
</g>
<g filter="url(#filter37_f_869_14637)">
<rect x="374.508" y="266.616" width="2.19987" height="1.01333" transform="rotate(40.6074 374.508 266.616)" fill="#090909" fill-opacity="0.2"/>
</g>
<g filter="url(#filter38_f_869_14637)">
<rect x="374.691" y="260.536" width="5.40445" height="0.675555" transform="rotate(90 374.691 260.536)" fill="#090909" fill-opacity="0.2"/>
</g>
<rect x="333.184" y="200.047" width="75.8098" height="4.99845" rx="2.49922" fill="#D3D7E1"/>
<rect x="333.184" y="207.546" width="59.1483" height="4.99845" rx="2.49922" fill="#D3D7E1"/>
<g filter="url(#filter39_d_869_14637)">
<path d="M46.1009 202.557L10.8158 218.923C9.68328 219.448 8.71762 220.322 8.03911 221.439C7.36061 222.555 6.99923 223.864 7 225.202V240.956C7.0018 255.543 10.9829 269.802 18.4397 281.929C25.8965 294.056 36.4941 303.507 48.8922 309.086C62.5964 304.543 73.2492 292.354 79.5 282C86.7449 270.019 90.1638 256.06 90.1237 241.722V225.202C90.1245 223.864 89.7631 222.555 89.0846 221.439C88.4061 220.322 87.4404 219.448 86.3079 218.923L51.0599 202.557C50.2764 202.192 49.4328 202.003 48.5804 202.003C47.728 202.003 46.8844 202.192 46.1009 202.557Z" fill="#629CED"/>
<path d="M62.5419 258.647H58.778V236.38C58.7117 233.908 57.7617 231.561 56.1296 229.838C54.4975 228.114 52.3118 227.15 50.0366 227.15C47.7613 227.15 45.5756 228.114 43.9435 229.838C42.3114 231.561 41.3614 233.908 41.2951 236.38V258.647H37.5312V236.38C37.6108 232.832 38.9632 229.458 41.2997 226.979C43.6363 224.5 46.7717 223.113 50.0366 223.113C53.3014 223.113 56.4368 224.5 58.7734 226.979C61.1099 229.458 62.4623 232.832 62.5419 236.38V258.647Z" fill="#F5F5F5"/>
<path d="M62.5742 243.539H37.4968C35.1147 243.539 33.1836 245.638 33.1836 248.227V267.564C33.1836 270.154 35.1147 272.253 37.4968 272.253H62.5742C64.9563 272.253 66.8874 270.154 66.8874 267.564V248.227C66.8874 245.638 64.9563 243.539 62.5742 243.539Z" fill="white"/>
<path d="M52.6203 258.639C52.9601 258.27 53.2294 257.833 53.4129 257.35C53.5964 256.868 53.6903 256.352 53.6893 255.83C53.6937 255.078 53.5047 254.34 53.1437 253.699C52.7827 253.057 52.2641 252.538 51.6463 252.2C51.0285 251.862 50.3361 251.719 49.6472 251.786C48.9583 251.852 48.3003 252.127 47.7474 252.579C47.1945 253.031 46.7687 253.641 46.518 254.342C46.2673 255.043 46.2017 255.806 46.3286 256.545C46.4555 257.284 46.7699 257.97 47.2362 258.525C47.7025 259.081 48.3022 259.483 48.9678 259.688L48.1735 263.513H51.6997L50.9574 259.688C51.5735 259.496 52.1336 259.135 52.5832 258.639" fill="#668FF5"/>
</g>
</g>
<defs>
<filter id="filter0_d_869_14637" x="15.7348" y="35.6575" width="405.73" height="275.143" filterUnits="userSpaceOnUse" color-interpolation-filters="sRGB">
<feFlood flood-opacity="0" result="BackgroundImageFix"/>
<feColorMatrix in="SourceAlpha" type="matrix" values="0 0 0 0 0 0 0 0 0 0 0 0 0 0 0 0 0 0 127 0" result="hardAlpha"/>
<feOffset dy="5.11415"/>
<feGaussianBlur stdDeviation="10.2283"/>
<feComposite in2="hardAlpha" operator="out"/>
<feColorMatrix type="matrix" values="0 0 0 0 0 0 0 0 0 0 0 0 0 0 0 0 0 0 0.25 0"/>
<feBlend mode="normal" in2="BackgroundImageFix" result="effect1_dropShadow_869_14637"/>
<feBlend mode="normal" in="SourceGraphic" in2="effect1_dropShadow_869_14637" result="shape"/>
</filter>
<filter id="filter1_bdii_869_14637" x="336.863" y="73.8354" width="217.351" height="72.8768" filterUnits="userSpaceOnUse" color-interpolation-filters="sRGB">
<feFlood flood-opacity="0" result="BackgroundImageFix"/>
<feGaussianBlur in="BackgroundImageFix" stdDeviation="5.31135"/>
<feComposite in2="SourceAlpha" operator="in" result="effect1_backgroundBlur_869_14637"/>
<feColorMatrix in="SourceAlpha" type="matrix" values="0 0 0 0 0 0 0 0 0 0 0 0 0 0 0 0 0 0 127 0" result="hardAlpha"/>
<feOffset dy="5.11415"/>
<feGaussianBlur stdDeviation="8.3105"/>
<feComposite in2="hardAlpha" operator="out"/>
<feColorMatrix type="matrix" values="0 0 0 0 0 0 0 0 0 0 0 0 0 0 0 0 0 0 0.25 0"/>
<feBlend mode="normal" in2="effect1_backgroundBlur_869_14637" result="effect2_dropShadow_869_14637"/>
<feBlend mode="normal" in="SourceGraphic" in2="effect2_dropShadow_869_14637" result="shape"/>
<feColorMatrix in="SourceAlpha" type="matrix" values="0 0 0 0 0 0 0 0 0 0 0 0 0 0 0 0 0 0 127 0" result="hardAlpha"/>
<feOffset dx="-6.10499" dy="6.10499"/>
<feGaussianBlur stdDeviation="3.0525"/>
<feComposite in2="hardAlpha" operator="arithmetic" k2="-1" k3="1"/>
<feColorMatrix type="matrix" values="0 0 0 0 1 0 0 0 0 1 0 0 0 0 1 0 0 0 0.1 0"/>
<feBlend mode="normal" in2="shape" result="effect3_innerShadow_869_14637"/>
<feColorMatrix in="SourceAlpha" type="matrix" values="0 0 0 0 0 0 0 0 0 0 0 0 0 0 0 0 0 0 127 0" result="hardAlpha"/>
<feOffset dx="6.10499" dy="-6.10499"/>
<feGaussianBlur stdDeviation="3.0525"/>
<feComposite in2="hardAlpha" operator="arithmetic" k2="-1" k3="1"/>
<feColorMatrix type="matrix" values="0 0 0 0 0.670588 0 0 0 0 0.676549 0 0 0 0 0.691451 0 0 0 0.1 0"/>
<feBlend mode="normal" in2="effect3_innerShadow_869_14637" result="effect4_innerShadow_869_14637"/>
</filter>
<filter id="filter2_f_869_14637" x="128.841" y="86.1895" width="47.6268" height="36.3519" filterUnits="userSpaceOnUse" color-interpolation-filters="sRGB">
<feFlood flood-opacity="0" result="BackgroundImageFix"/>
<feBlend mode="normal" in="SourceGraphic" in2="BackgroundImageFix" result="shape"/>
<feGaussianBlur stdDeviation="8.54244" result="effect1_foregroundBlur_869_14637"/>
</filter>
<filter id="filter3_f_869_14637" x="125.2" y="84.3717" width="39.1893" height="38.9095" filterUnits="userSpaceOnUse" color-interpolation-filters="sRGB">
<feFlood flood-opacity="0" result="BackgroundImageFix"/>
<feBlend mode="normal" in="SourceGraphic" in2="BackgroundImageFix" result="shape"/>
<feGaussianBlur stdDeviation="8.54244" result="effect1_foregroundBlur_869_14637"/>
</filter>
<filter id="filter4_f_869_14637" x="125.567" y="71.2794" width="35.6229" height="45.807" filterUnits="userSpaceOnUse" color-interpolation-filters="sRGB">
<feFlood flood-opacity="0" result="BackgroundImageFix"/>
<feBlend mode="normal" in="SourceGraphic" in2="BackgroundImageFix" result="shape"/>
<feGaussianBlur stdDeviation="8.54244" result="effect1_foregroundBlur_869_14637"/>
</filter>
<filter id="filter5_f_869_14637" x="186.884" y="86.1895" width="47.6268" height="36.3519" filterUnits="userSpaceOnUse" color-interpolation-filters="sRGB">
<feFlood flood-opacity="0" result="BackgroundImageFix"/>
<feBlend mode="normal" in="SourceGraphic" in2="BackgroundImageFix" result="shape"/>
<feGaussianBlur stdDeviation="8.54244" result="effect1_foregroundBlur_869_14637"/>
</filter>
<filter id="filter6_f_869_14637" x="183.243" y="84.3717" width="39.1893" height="38.9095" filterUnits="userSpaceOnUse" color-interpolation-filters="sRGB">
<feFlood flood-opacity="0" result="BackgroundImageFix"/>
<feBlend mode="normal" in="SourceGraphic" in2="BackgroundImageFix" result="shape"/>
<feGaussianBlur stdDeviation="8.54244" result="effect1_foregroundBlur_869_14637"/>
</filter>
<filter id="filter7_f_869_14637" x="183.61" y="71.2799" width="35.6229" height="45.807" filterUnits="userSpaceOnUse" color-interpolation-filters="sRGB">
<feFlood flood-opacity="0" result="BackgroundImageFix"/>
<feBlend mode="normal" in="SourceGraphic" in2="BackgroundImageFix" result="shape"/>
<feGaussianBlur stdDeviation="8.54244" result="effect1_foregroundBlur_869_14637"/>
</filter>
<filter id="filter8_f_869_14637" x="244.915" y="86.19" width="47.6268" height="36.3519" filterUnits="userSpaceOnUse" color-interpolation-filters="sRGB">
<feFlood flood-opacity="0" result="BackgroundImageFix"/>
<feBlend mode="normal" in="SourceGraphic" in2="BackgroundImageFix" result="shape"/>
<feGaussianBlur stdDeviation="8.54244" result="effect1_foregroundBlur_869_14637"/>
</filter>
<filter id="filter9_f_869_14637" x="241.275" y="84.3712" width="39.1893" height="38.9095" filterUnits="userSpaceOnUse" color-interpolation-filters="sRGB">
<feFlood flood-opacity="0" result="BackgroundImageFix"/>
<feBlend mode="normal" in="SourceGraphic" in2="BackgroundImageFix" result="shape"/>
<feGaussianBlur stdDeviation="8.54244" result="effect1_foregroundBlur_869_14637"/>
</filter>
<filter id="filter10_f_869_14637" x="241.642" y="71.2794" width="35.6229" height="45.807" filterUnits="userSpaceOnUse" color-interpolation-filters="sRGB">
<feFlood flood-opacity="0" result="BackgroundImageFix"/>
<feBlend mode="normal" in="SourceGraphic" in2="BackgroundImageFix" result="shape"/>
<feGaussianBlur stdDeviation="8.54244" result="effect1_foregroundBlur_869_14637"/>
</filter>
<filter id="filter11_f_869_14637" x="302.962" y="86.1895" width="47.6268" height="36.3519" filterUnits="userSpaceOnUse" color-interpolation-filters="sRGB">
<feFlood flood-opacity="0" result="BackgroundImageFix"/>
<feBlend mode="normal" in="SourceGraphic" in2="BackgroundImageFix" result="shape"/>
<feGaussianBlur stdDeviation="8.54244" result="effect1_foregroundBlur_869_14637"/>
</filter>
<filter id="filter12_f_869_14637" x="299.321" y="84.3717" width="39.1893" height="38.9095" filterUnits="userSpaceOnUse" color-interpolation-filters="sRGB">
<feFlood flood-opacity="0" result="BackgroundImageFix"/>
<feBlend mode="normal" in="SourceGraphic" in2="BackgroundImageFix" result="shape"/>
<feGaussianBlur stdDeviation="8.54244" result="effect1_foregroundBlur_869_14637"/>
</filter>
<filter id="filter13_f_869_14637" x="299.689" y="71.2799" width="35.6229" height="45.807" filterUnits="userSpaceOnUse" color-interpolation-filters="sRGB">
<feFlood flood-opacity="0" result="BackgroundImageFix"/>
<feBlend mode="normal" in="SourceGraphic" in2="BackgroundImageFix" result="shape"/>
<feGaussianBlur stdDeviation="8.54244" result="effect1_foregroundBlur_869_14637"/>
</filter>
<filter id="filter14_f_869_14637" x="128.841" y="154.593" width="47.6268" height="36.3519" filterUnits="userSpaceOnUse" color-interpolation-filters="sRGB">
<feFlood flood-opacity="0" result="BackgroundImageFix"/>
<feBlend mode="normal" in="SourceGraphic" in2="BackgroundImageFix" result="shape"/>
<feGaussianBlur stdDeviation="8.54244" result="effect1_foregroundBlur_869_14637"/>
</filter>
<filter id="filter15_f_869_14637" x="125.2" y="152.776" width="39.1893" height="38.9095" filterUnits="userSpaceOnUse" color-interpolation-filters="sRGB">
<feFlood flood-opacity="0" result="BackgroundImageFix"/>
<feBlend mode="normal" in="SourceGraphic" in2="BackgroundImageFix" result="shape"/>
<feGaussianBlur stdDeviation="8.54244" result="effect1_foregroundBlur_869_14637"/>
</filter>
<filter id="filter16_f_869_14637" x="125.567" y="139.684" width="35.6229" height="45.807" filterUnits="userSpaceOnUse" color-interpolation-filters="sRGB">
<feFlood flood-opacity="0" result="BackgroundImageFix"/>
<feBlend mode="normal" in="SourceGraphic" in2="BackgroundImageFix" result="shape"/>
<feGaussianBlur stdDeviation="8.54244" result="effect1_foregroundBlur_869_14637"/>
</filter>
<filter id="filter17_f_869_14637" x="186.884" y="156.665" width="47.6268" height="36.3519" filterUnits="userSpaceOnUse" color-interpolation-filters="sRGB">
<feFlood flood-opacity="0" result="BackgroundImageFix"/>
<feBlend mode="normal" in="SourceGraphic" in2="BackgroundImageFix" result="shape"/>
<feGaussianBlur stdDeviation="8.54244" result="effect1_foregroundBlur_869_14637"/>
</filter>
<filter id="filter18_f_869_14637" x="183.243" y="154.847" width="39.1893" height="38.9095" filterUnits="userSpaceOnUse" color-interpolation-filters="sRGB">
<feFlood flood-opacity="0" result="BackgroundImageFix"/>
<feBlend mode="normal" in="SourceGraphic" in2="BackgroundImageFix" result="shape"/>
<feGaussianBlur stdDeviation="8.54244" result="effect1_foregroundBlur_869_14637"/>
</filter>
<filter id="filter19_f_869_14637" x="183.61" y="141.755" width="35.6229" height="45.807" filterUnits="userSpaceOnUse" color-interpolation-filters="sRGB">
<feFlood flood-opacity="0" result="BackgroundImageFix"/>
<feBlend mode="normal" in="SourceGraphic" in2="BackgroundImageFix" result="shape"/>
<feGaussianBlur stdDeviation="8.54244" result="effect1_foregroundBlur_869_14637"/>
</filter>
<filter id="filter20_f_869_14637" x="244.915" y="155.63" width="47.6268" height="36.3519" filterUnits="userSpaceOnUse" color-interpolation-filters="sRGB">
<feFlood flood-opacity="0" result="BackgroundImageFix"/>
<feBlend mode="normal" in="SourceGraphic" in2="BackgroundImageFix" result="shape"/>
<feGaussianBlur stdDeviation="8.54244" result="effect1_foregroundBlur_869_14637"/>
</filter>
<filter id="filter21_f_869_14637" x="241.275" y="153.813" width="39.1893" height="38.9095" filterUnits="userSpaceOnUse" color-interpolation-filters="sRGB">
<feFlood flood-opacity="0" result="BackgroundImageFix"/>
<feBlend mode="normal" in="SourceGraphic" in2="BackgroundImageFix" result="shape"/>
<feGaussianBlur stdDeviation="8.54244" result="effect1_foregroundBlur_869_14637"/>
</filter>
<filter id="filter22_f_869_14637" x="241.642" y="140.721" width="35.6229" height="45.807" filterUnits="userSpaceOnUse" color-interpolation-filters="sRGB">
<feFlood flood-opacity="0" result="BackgroundImageFix"/>
<feBlend mode="normal" in="SourceGraphic" in2="BackgroundImageFix" result="shape"/>
<feGaussianBlur stdDeviation="8.54244" result="effect1_foregroundBlur_869_14637"/>
</filter>
<filter id="filter23_d_869_14637" x="303.624" y="153.105" width="131.58" height="219.908" filterUnits="userSpaceOnUse" color-interpolation-filters="sRGB">
<feFlood flood-opacity="0" result="BackgroundImageFix"/>
<feColorMatrix in="SourceAlpha" type="matrix" values="0 0 0 0 0 0 0 0 0 0 0 0 0 0 0 0 0 0 127 0" result="hardAlpha"/>
<feOffset dy="5.11415"/>
<feGaussianBlur stdDeviation="8.94977"/>
<feComposite in2="hardAlpha" operator="out"/>
<feColorMatrix type="matrix" values="0 0 0 0 0 0 0 0 0 0 0 0 0 0 0 0 0 0 0.25 0"/>
<feBlend mode="normal" in2="BackgroundImageFix" result="effect1_dropShadow_869_14637"/>
<feBlend mode="normal" in="SourceGraphic" in2="effect1_dropShadow_869_14637" result="shape"/>
</filter>
<filter id="filter24_f_869_14637" x="330.958" y="216.217" width="40.4197" height="35.1829" filterUnits="userSpaceOnUse" color-interpolation-filters="sRGB">
<feFlood flood-opacity="0" result="BackgroundImageFix"/>
<feBlend mode="normal" in="SourceGraphic" in2="BackgroundImageFix" result="shape"/>
<feGaussianBlur stdDeviation="8.54244" result="effect1_foregroundBlur_869_14637"/>
</filter>
<filter id="filter25_f_869_14637" x="329.275" y="215.374" width="36.5018" height="36.3709" filterUnits="userSpaceOnUse" color-interpolation-filters="sRGB">
<feFlood flood-opacity="0" result="BackgroundImageFix"/>
<feBlend mode="normal" in="SourceGraphic" in2="BackgroundImageFix" result="shape"/>
<feGaussianBlur stdDeviation="8.54244" result="effect1_foregroundBlur_869_14637"/>
</filter>
<filter id="filter26_f_869_14637" x="329.442" y="209.294" width="34.8455" height="39.574" filterUnits="userSpaceOnUse" color-interpolation-filters="sRGB">
<feFlood flood-opacity="0" result="BackgroundImageFix"/>
<feBlend mode="normal" in="SourceGraphic" in2="BackgroundImageFix" result="shape"/>
<feGaussianBlur stdDeviation="8.54244" result="effect1_foregroundBlur_869_14637"/>
</filter>
<filter id="filter27_f_869_14637" x="358.454" y="216.218" width="40.4197" height="35.1829" filterUnits="userSpaceOnUse" color-interpolation-filters="sRGB">
<feFlood flood-opacity="0" result="BackgroundImageFix"/>
<feBlend mode="normal" in="SourceGraphic" in2="BackgroundImageFix" result="shape"/>
<feGaussianBlur stdDeviation="8.54244" result="effect1_foregroundBlur_869_14637"/>
</filter>
<filter id="filter28_f_869_14637" x="356.763" y="215.375" width="36.5018" height="36.3709" filterUnits="userSpaceOnUse" color-interpolation-filters="sRGB">
<feFlood flood-opacity="0" result="BackgroundImageFix"/>
<feBlend mode="normal" in="SourceGraphic" in2="BackgroundImageFix" result="shape"/>
<feGaussianBlur stdDeviation="8.54244" result="effect1_foregroundBlur_869_14637"/>
</filter>
<filter id="filter29_f_869_14637" x="356.931" y="209.295" width="34.8455" height="39.574" filterUnits="userSpaceOnUse" color-interpolation-filters="sRGB">
<feFlood flood-opacity="0" result="BackgroundImageFix"/>
<feBlend mode="normal" in="SourceGraphic" in2="BackgroundImageFix" result="shape"/>
<feGaussianBlur stdDeviation="8.54244" result="effect1_foregroundBlur_869_14637"/>
</filter>
<filter id="filter30_f_869_14637" x="385.946" y="216.219" width="40.4197" height="35.1829" filterUnits="userSpaceOnUse" color-interpolation-filters="sRGB">
<feFlood flood-opacity="0" result="BackgroundImageFix"/>
<feBlend mode="normal" in="SourceGraphic" in2="BackgroundImageFix" result="shape"/>
<feGaussianBlur stdDeviation="8.54244" result="effect1_foregroundBlur_869_14637"/>
</filter>
<filter id="filter31_f_869_14637" x="384.255" y="215.375" width="36.5018" height="36.3709" filterUnits="userSpaceOnUse" color-interpolation-filters="sRGB">
<feFlood flood-opacity="0" result="BackgroundImageFix"/>
<feBlend mode="normal" in="SourceGraphic" in2="BackgroundImageFix" result="shape"/>
<feGaussianBlur stdDeviation="8.54244" result="effect1_foregroundBlur_869_14637"/>
</filter>
<filter id="filter32_f_869_14637" x="384.423" y="209.295" width="34.8455" height="39.574" filterUnits="userSpaceOnUse" color-interpolation-filters="sRGB">
<feFlood flood-opacity="0" result="BackgroundImageFix"/>
<feBlend mode="normal" in="SourceGraphic" in2="BackgroundImageFix" result="shape"/>
<feGaussianBlur stdDeviation="8.54244" result="effect1_foregroundBlur_869_14637"/>
</filter>
<filter id="filter33_f_869_14637" x="330.958" y="249.542" width="40.4197" height="35.1829" filterUnits="userSpaceOnUse" color-interpolation-filters="sRGB">
<feFlood flood-opacity="0" result="BackgroundImageFix"/>
<feBlend mode="normal" in="SourceGraphic" in2="BackgroundImageFix" result="shape"/>
<feGaussianBlur stdDeviation="8.54244" result="effect1_foregroundBlur_869_14637"/>
</filter>
<filter id="filter34_f_869_14637" x="329.275" y="248.698" width="36.5018" height="36.3709" filterUnits="userSpaceOnUse" color-interpolation-filters="sRGB">
<feFlood flood-opacity="0" result="BackgroundImageFix"/>
<feBlend mode="normal" in="SourceGraphic" in2="BackgroundImageFix" result="shape"/>
<feGaussianBlur stdDeviation="8.54244" result="effect1_foregroundBlur_869_14637"/>
</filter>
<filter id="filter35_f_869_14637" x="329.442" y="242.618" width="34.8455" height="39.574" filterUnits="userSpaceOnUse" color-interpolation-filters="sRGB">
<feFlood flood-opacity="0" result="BackgroundImageFix"/>
<feBlend mode="normal" in="SourceGraphic" in2="BackgroundImageFix" result="shape"/>
<feGaussianBlur stdDeviation="8.54244" result="effect1_foregroundBlur_869_14637"/>
</filter>
<filter id="filter36_f_869_14637" x="358.454" y="250.375" width="40.4197" height="35.1829" filterUnits="userSpaceOnUse" color-interpolation-filters="sRGB">
<feFlood flood-opacity="0" result="BackgroundImageFix"/>
<feBlend mode="normal" in="SourceGraphic" in2="BackgroundImageFix" result="shape"/>
<feGaussianBlur stdDeviation="8.54244" result="effect1_foregroundBlur_869_14637"/>
</filter>
<filter id="filter37_f_869_14637" x="356.763" y="249.531" width="36.5018" height="36.3709" filterUnits="userSpaceOnUse" color-interpolation-filters="sRGB">
<feFlood flood-opacity="0" result="BackgroundImageFix"/>
<feBlend mode="normal" in="SourceGraphic" in2="BackgroundImageFix" result="shape"/>
<feGaussianBlur stdDeviation="8.54244" result="effect1_foregroundBlur_869_14637"/>
</filter>
<filter id="filter38_f_869_14637" x="356.931" y="243.451" width="34.8455" height="39.574" filterUnits="userSpaceOnUse" color-interpolation-filters="sRGB">
<feFlood flood-opacity="0" result="BackgroundImageFix"/>
<feBlend mode="normal" in="SourceGraphic" in2="BackgroundImageFix" result="shape"/>
<feGaussianBlur stdDeviation="8.54244" result="effect1_foregroundBlur_869_14637"/>
</filter>
<filter id="filter39_d_869_14637" x="-6" y="192.003" width="115.125" height="139.083" filterUnits="userSpaceOnUse" color-interpolation-filters="sRGB">
<feFlood flood-opacity="0" result="BackgroundImageFix"/>
<feColorMatrix in="SourceAlpha" type="matrix" values="0 0 0 0 0 0 0 0 0 0 0 0 0 0 0 0 0 0 127 0" result="hardAlpha"/>
<feOffset dx="3" dy="6"/>
<feGaussianBlur stdDeviation="8"/>
<feComposite in2="hardAlpha" operator="out"/>
<feColorMatrix type="matrix" values="0 0 0 0 0 0 0 0 0 0 0 0 0 0 0 0 0 0 0.25 0"/>
<feBlend mode="normal" in2="BackgroundImageFix" result="effect1_dropShadow_869_14637"/>
<feBlend mode="normal" in="SourceGraphic" in2="effect1_dropShadow_869_14637" result="shape"/>
</filter>
<clipPath id="clip0_869_14637">
<rect width="544" height="402" fill="white"/>
</clipPath>
</defs>
</svg>
