<svg width="544" height="294" viewBox="0 0 544 294" fill="none" xmlns="http://www.w3.org/2000/svg">
<g clip-path="url(#clip0_869_14588)">
<rect x="87.9492" y="7.73145" width="384.025" height="246.561" rx="13.0918" fill="white"/>
<ellipse cx="110.858" cy="25.732" rx="6.54588" ry="7.09137" fill="#DF434C"/>
<circle cx="128.857" cy="25.732" r="7.09137" fill="#E7B44C"/>
<circle cx="146.314" cy="25.732" r="7.09137" fill="#6BD280"/>
<rect x="164.312" y="18.6406" width="290.201" height="14.1827" rx="7.09137" fill="#E1E3E8"/>
<rect x="104.312" y="54.6426" width="65.4588" height="17.4557" rx="4.36392" fill="#F2F3F5"/>
<rect x="104.312" y="78.6445" width="65.4588" height="17.4557" rx="4.36392" fill="#F2F3F5"/>
<rect x="104.312" y="102.647" width="65.4588" height="17.4557" rx="4.36392" fill="#5E9BF0"/>
<rect x="104.312" y="126.647" width="65.4588" height="17.4557" rx="4.36392" fill="#F2F3F5"/>
<rect x="104.312" y="150.649" width="65.4588" height="17.4557" rx="4.36392" fill="#F2F3F5"/>
<rect x="104.312" y="174.651" width="65.4588" height="17.4557" rx="4.36392" fill="#F2F3F5"/>
<rect x="183.953" y="57.9165" width="270.563" height="144.009" rx="4.36392" fill="#F2F3F5"/>
<g filter="url(#filter0_bdii_869_14588)">
<rect x="27.9453" y="218.29" width="235.652" height="56.7309" rx="28.3655" fill="#5E9BF0"/>
</g>
<g filter="url(#filter1_bdii_869_14588)">
<rect x="423" y="175" width="40" height="40" rx="20" fill="#5E9BF0"/>
</g>
<path d="M68.0832 250.583H75.7528L75.5248 247.909H68.332L68.0832 250.583ZM71.8766 244.199L73.9287 248.904L73.8043 249.795L75.5455 253.381H79.5254L71.8766 237.959L64.2484 253.381H68.2076L70.011 249.65L69.8452 248.883L71.8766 244.199ZM88.5911 237.213V253.381H91.7211V237.213H88.5911ZM80.7972 248.614C80.7972 249.678 81.0113 250.583 81.4397 251.329C81.882 252.062 82.4485 252.621 83.1395 253.008C83.8304 253.395 84.5629 253.589 85.3367 253.589C86.1382 253.589 86.843 253.388 87.451 252.988C88.0729 252.587 88.5635 252.013 88.9228 251.267C89.2821 250.521 89.4617 249.636 89.4617 248.614C89.4617 247.577 89.2821 246.693 88.9228 245.961C88.5635 245.214 88.0729 244.641 87.451 244.24C86.843 243.839 86.1382 243.639 85.3367 243.639C84.5629 243.639 83.8304 243.832 83.1395 244.219C82.4485 244.606 81.882 245.166 81.4397 245.898C81.0113 246.631 80.7972 247.536 80.7972 248.614ZM84.093 248.614C84.093 248.116 84.1966 247.688 84.4039 247.329C84.6112 246.955 84.8876 246.672 85.2331 246.479C85.5786 246.271 85.9586 246.168 86.3732 246.168C86.7324 246.168 87.0779 246.265 87.4096 246.458C87.7551 246.651 88.0383 246.935 88.2595 247.308C88.4806 247.667 88.5911 248.102 88.5911 248.614C88.5911 249.125 88.4806 249.567 88.2595 249.94C88.0383 250.3 87.7551 250.576 87.4096 250.77C87.0779 250.963 86.7324 251.06 86.3732 251.06C85.9586 251.06 85.5786 250.963 85.2331 250.77C84.8876 250.562 84.6112 250.279 84.4039 249.92C84.1966 249.547 84.093 249.111 84.093 248.614ZM102.006 237.213V253.381H105.136V237.213H102.006ZM94.2124 248.614C94.2124 249.678 94.4266 250.583 94.855 251.329C95.2972 252.062 95.8638 252.621 96.5548 253.008C97.2457 253.395 97.9781 253.589 98.752 253.589C99.5535 253.589 100.258 253.388 100.866 252.988C101.488 252.587 101.979 252.013 102.338 251.267C102.697 250.521 102.877 249.636 102.877 248.614C102.877 247.577 102.697 246.693 102.338 245.961C101.979 245.214 101.488 244.641 100.866 244.24C100.258 243.839 99.5535 243.639 98.752 243.639C97.9781 243.639 97.2457 243.832 96.5548 244.219C95.8638 244.606 95.2972 245.166 94.855 245.898C94.4266 246.631 94.2124 247.536 94.2124 248.614ZM97.5083 248.614C97.5083 248.116 97.6119 247.688 97.8192 247.329C98.0265 246.955 98.3029 246.672 98.6484 246.479C98.9938 246.271 99.3739 246.168 99.7884 246.168C100.148 246.168 100.493 246.265 100.825 246.458C101.17 246.651 101.454 246.935 101.675 247.308C101.896 247.667 102.006 248.102 102.006 248.614C102.006 249.125 101.896 249.567 101.675 249.94C101.454 250.3 101.17 250.576 100.825 250.77C100.493 250.963 100.148 251.06 99.7884 251.06C99.3739 251.06 98.9938 250.963 98.6484 250.77C98.3029 250.562 98.0265 250.279 97.8192 249.92C97.6119 249.547 97.5083 249.111 97.5083 248.614ZM119.066 245.981L123.025 252.034L127.005 245.981L127.876 253.381H131.565L129.223 238.146L123.025 246.997L116.848 238.146L114.506 253.381H118.195L119.066 245.981ZM133.547 248.614C133.547 249.609 133.782 250.479 134.252 251.226C134.722 251.972 135.372 252.552 136.201 252.967C137.03 253.381 137.963 253.589 138.999 253.589C140.035 253.589 140.961 253.381 141.777 252.967C142.606 252.552 143.255 251.972 143.725 251.226C144.209 250.479 144.451 249.609 144.451 248.614C144.451 247.605 144.209 246.727 143.725 245.981C143.255 245.235 142.606 244.655 141.777 244.24C140.961 243.825 140.035 243.618 138.999 243.618C137.963 243.618 137.03 243.825 136.201 244.24C135.372 244.655 134.722 245.235 134.252 245.981C133.782 246.727 133.547 247.605 133.547 248.614ZM136.76 248.614C136.76 248.116 136.864 247.688 137.071 247.329C137.279 246.969 137.548 246.693 137.88 246.499C138.211 246.306 138.584 246.209 138.999 246.209C139.4 246.209 139.766 246.306 140.098 246.499C140.443 246.693 140.713 246.969 140.906 247.329C141.113 247.688 141.217 248.116 141.217 248.614C141.217 249.111 141.113 249.54 140.906 249.899C140.713 250.244 140.443 250.514 140.098 250.707C139.766 250.901 139.4 250.998 138.999 250.998C138.584 250.998 138.211 250.901 137.88 250.707C137.548 250.514 137.279 250.244 137.071 249.899C136.864 249.54 136.76 249.111 136.76 248.614ZM150.044 243.846H146.956V253.381H150.044V243.846ZM152.801 247.08L154.148 244.406C153.983 244.157 153.741 243.964 153.423 243.825C153.105 243.687 152.773 243.618 152.428 243.618C151.903 243.618 151.398 243.791 150.915 244.136C150.431 244.482 150.037 244.952 149.733 245.546C149.443 246.14 149.298 246.817 149.298 247.577L150.044 248.676C150.044 248.22 150.106 247.833 150.231 247.515C150.355 247.197 150.535 246.955 150.77 246.79C151.005 246.624 151.274 246.541 151.578 246.541C151.854 246.541 152.082 246.589 152.262 246.686C152.456 246.783 152.635 246.914 152.801 247.08ZM160.647 253.589C161.863 253.589 162.892 253.354 163.735 252.884C164.592 252.414 165.269 251.709 165.766 250.77L162.968 250.085C162.733 250.5 162.415 250.811 162.015 251.018C161.628 251.226 161.158 251.329 160.605 251.329C160.121 251.329 159.714 251.226 159.382 251.018C159.05 250.797 158.802 250.479 158.636 250.065C158.47 249.65 158.387 249.153 158.387 248.572C158.401 247.937 158.484 247.412 158.636 246.997C158.802 246.569 159.043 246.251 159.361 246.043C159.679 245.836 160.073 245.732 160.543 245.732C160.916 245.732 161.241 245.815 161.517 245.981C161.793 246.147 162.008 246.382 162.16 246.686C162.312 246.99 162.388 247.349 162.388 247.764C162.388 247.861 162.36 247.985 162.305 248.137C162.263 248.275 162.208 248.393 162.139 248.489L162.885 247.536H156.998V249.277H165.704C165.732 249.18 165.746 249.063 165.746 248.925C165.746 248.773 165.746 248.621 165.746 248.469C165.746 247.446 165.545 246.575 165.145 245.857C164.744 245.138 164.163 244.592 163.403 244.219C162.643 243.832 161.711 243.639 160.605 243.639C159.5 243.639 158.539 243.839 157.724 244.24C156.922 244.641 156.307 245.214 155.879 245.961C155.451 246.707 155.236 247.591 155.236 248.614C155.236 249.623 155.457 250.5 155.9 251.246C156.342 251.993 156.964 252.573 157.765 252.988C158.581 253.388 159.541 253.589 160.647 253.589ZM177.769 241.877H184.257V238.871H177.769V241.877ZM177.769 247.557H184.05V244.738H177.769V247.557ZM175.448 238.871V253.381H178.806V238.871H175.448ZM188.35 250.583H196.019L195.791 247.909H188.598L188.35 250.583ZM192.143 244.199L194.195 248.904L194.071 249.795L195.812 253.381H199.792L192.143 237.959L184.515 253.381H188.474L190.277 249.65L190.112 248.883L192.143 244.199ZM204.188 246.126C204.188 245.27 204.361 244.516 204.706 243.867C205.065 243.204 205.556 242.685 206.178 242.312C206.8 241.939 207.525 241.753 208.354 241.753C209.28 241.753 210.068 241.974 210.717 242.416C211.381 242.844 211.885 243.418 212.231 244.136C212.59 244.855 212.77 245.65 212.77 246.52C212.77 247.363 212.59 248.109 212.231 248.759C211.885 249.395 211.401 249.885 210.78 250.231C210.158 250.576 209.432 250.749 208.603 250.749C207.788 250.749 207.042 250.562 206.364 250.189C205.701 249.802 205.169 249.263 204.768 248.572C204.381 247.881 204.188 247.066 204.188 246.126ZM200.478 246.126C200.478 247.246 200.671 248.275 201.058 249.215C201.445 250.155 201.991 250.97 202.695 251.661C203.414 252.352 204.25 252.891 205.204 253.278C206.157 253.651 207.207 253.837 208.354 253.837C209.488 253.837 210.524 253.651 211.464 253.278C212.417 252.891 213.239 252.352 213.93 251.661C214.621 250.97 215.153 250.155 215.526 249.215C215.9 248.275 216.086 247.246 216.086 246.126C216.086 245.007 215.893 243.984 215.506 243.058C215.133 242.133 214.594 241.331 213.889 240.654C213.198 239.977 212.383 239.459 211.443 239.099C210.503 238.726 209.474 238.54 208.354 238.54C207.249 238.54 206.219 238.726 205.266 239.099C204.312 239.459 203.476 239.977 202.758 240.654C202.039 241.331 201.479 242.133 201.079 243.058C200.678 243.984 200.478 245.007 200.478 246.126ZM207.173 247.163L214.034 253.63H217.786L210.8 247.163H207.173ZM220.03 249.92L218.725 251.993C219.153 252.324 219.616 252.628 220.113 252.905C220.611 253.167 221.15 253.374 221.73 253.526C222.324 253.692 222.967 253.775 223.658 253.775C224.791 253.775 225.669 253.52 226.29 253.008C226.926 252.483 227.244 251.709 227.244 250.687C227.244 250.092 227.113 249.616 226.85 249.256C226.601 248.897 226.263 248.6 225.834 248.365C225.42 248.13 224.964 247.923 224.466 247.743C223.996 247.564 223.596 247.418 223.264 247.308C222.946 247.183 222.697 247.052 222.518 246.914C222.352 246.776 222.269 246.603 222.269 246.396C222.269 246.216 222.338 246.071 222.476 245.961C222.628 245.85 222.85 245.795 223.14 245.795C223.568 245.795 224.038 245.919 224.549 246.168C225.061 246.403 225.517 246.707 225.917 247.08L227.037 245.048C226.664 244.772 226.263 244.53 225.834 244.323C225.42 244.116 224.971 243.95 224.487 243.825C224.017 243.701 223.506 243.639 222.953 243.639C222.262 243.639 221.647 243.743 221.108 243.95C220.583 244.157 220.162 244.461 219.844 244.862C219.54 245.263 219.388 245.753 219.388 246.334C219.388 246.942 219.519 247.439 219.782 247.826C220.044 248.213 220.376 248.524 220.777 248.759C221.191 248.98 221.627 249.173 222.083 249.339C222.594 249.491 222.995 249.636 223.285 249.775C223.589 249.913 223.803 250.058 223.927 250.21C224.052 250.348 224.114 250.521 224.114 250.728C224.114 250.949 224.038 251.129 223.886 251.267C223.734 251.405 223.499 251.474 223.181 251.474C222.96 251.474 222.697 251.433 222.393 251.35C222.089 251.253 221.737 251.094 221.336 250.873C220.949 250.638 220.514 250.32 220.03 249.92Z" fill="white"/>
<path d="M127.941 63.3749C127.941 62.8709 128.042 62.4279 128.245 62.0459C128.457 61.6557 128.745 61.3508 129.111 61.1314C129.477 60.9119 129.904 60.8021 130.392 60.8021C130.936 60.8021 131.399 60.9322 131.782 61.1923C132.172 61.4443 132.468 61.7817 132.672 62.2044C132.883 62.6271 132.989 63.0945 132.989 63.6066C132.989 64.1025 132.883 64.5414 132.672 64.9235C132.468 65.2974 132.184 65.586 131.818 65.7892C131.452 65.9924 131.026 66.094 130.538 66.094C130.058 66.094 129.619 65.9843 129.221 65.7648C128.831 65.5372 128.518 65.2202 128.282 64.8137C128.054 64.4073 127.941 63.9277 127.941 63.3749ZM125.758 63.3749C125.758 64.0334 125.872 64.639 126.099 65.1917C126.327 65.7445 126.648 66.2241 127.063 66.6305C127.485 67.037 127.977 67.354 128.538 67.5816C129.099 67.8011 129.717 67.9108 130.392 67.9108C131.058 67.9108 131.668 67.8011 132.221 67.5816C132.781 67.354 133.265 67.037 133.672 66.6305C134.078 66.2241 134.391 65.7445 134.61 65.1917C134.83 64.639 134.94 64.0334 134.94 63.3749C134.94 62.7165 134.826 62.1149 134.598 61.5703C134.379 61.0257 134.062 60.5542 133.647 60.1559C133.241 59.7576 132.761 59.4527 132.208 59.2414C131.656 59.0219 131.05 58.9122 130.392 58.9122C129.741 58.9122 129.136 59.0219 128.575 59.2414C128.014 59.4527 127.522 59.7576 127.099 60.1559C126.677 60.5542 126.347 61.0257 126.112 61.5703C125.876 62.1149 125.758 62.7165 125.758 63.3749ZM129.696 63.9846L133.732 67.7889H135.939L131.83 63.9846H129.696ZM137.052 66.8134C137.052 67.1223 137.162 67.3865 137.382 67.606C137.601 67.8255 137.874 67.9352 138.199 67.9352C138.54 67.9352 138.816 67.8255 139.028 67.606C139.239 67.3865 139.345 67.1223 139.345 66.8134C139.345 66.5045 139.239 66.2403 139.028 66.0209C138.816 65.8014 138.54 65.6916 138.199 65.6916C137.874 65.6916 137.601 65.8014 137.382 66.0209C137.162 66.2403 137.052 66.5045 137.052 66.8134ZM141.36 61.5703L143.469 61.046V67.6426H145.457V58.9488L141.36 59.7779V61.5703Z" fill="#887D7D"/>
<path d="M126.952 87.3769C126.952 86.8729 127.053 86.4299 127.257 86.0478C127.468 85.6576 127.757 85.3528 128.122 85.1333C128.488 84.9138 128.915 84.8041 129.403 84.8041C129.947 84.8041 130.411 84.9342 130.793 85.1943C131.183 85.4463 131.48 85.7836 131.683 86.2063C131.894 86.629 132 87.0964 132 87.6085C132 88.1044 131.894 88.5434 131.683 88.9254C131.48 89.2994 131.195 89.5879 130.829 89.7911C130.463 89.9944 130.037 90.096 129.549 90.096C129.069 90.096 128.63 89.9862 128.232 89.7668C127.842 89.5392 127.529 89.2221 127.293 88.8157C127.066 88.4092 126.952 87.9296 126.952 87.3769ZM124.769 87.3769C124.769 88.0353 124.883 88.6409 125.111 89.1937C125.338 89.7464 125.659 90.226 126.074 90.6325C126.497 91.0389 126.988 91.356 127.549 91.5836C128.11 91.803 128.728 91.9128 129.403 91.9128C130.069 91.9128 130.679 91.803 131.232 91.5836C131.793 91.356 132.276 91.0389 132.683 90.6325C133.089 90.226 133.402 89.7464 133.622 89.1937C133.841 88.6409 133.951 88.0353 133.951 87.3769C133.951 86.7184 133.837 86.1169 133.609 85.5723C133.39 85.0276 133.073 84.5562 132.658 84.1578C132.252 83.7595 131.772 83.4547 131.219 83.2433C130.667 83.0239 130.061 82.9141 129.403 82.9141C128.752 82.9141 128.147 83.0239 127.586 83.2433C127.025 83.4547 126.533 83.7595 126.11 84.1578C125.688 84.5562 125.359 85.0276 125.123 85.5723C124.887 86.1169 124.769 86.7184 124.769 87.3769ZM128.708 87.9865L132.744 91.7909H134.951L130.841 87.9865H128.708ZM136.064 90.8154C136.064 91.1243 136.173 91.3885 136.393 91.608C136.612 91.8274 136.885 91.9372 137.21 91.9372C137.551 91.9372 137.828 91.8274 138.039 91.608C138.25 91.3885 138.356 91.1243 138.356 90.8154C138.356 90.5065 138.25 90.2423 138.039 90.0228C137.828 89.8033 137.551 89.6936 137.21 89.6936C136.885 89.6936 136.612 89.8033 136.393 90.0228C136.173 90.2423 136.064 90.5065 136.064 90.8154ZM139.786 91.6445H147.016V89.7546H143.602L145.59 87.9743C145.956 87.6573 146.252 87.3078 146.48 86.9257C146.708 86.5355 146.821 86.1088 146.821 85.6454C146.821 85.3203 146.752 84.9992 146.614 84.6822C146.476 84.3651 146.269 84.0766 145.992 83.8164C145.724 83.5482 145.387 83.3368 144.98 83.1824C144.574 83.0198 144.106 82.9385 143.578 82.9385C142.846 82.9385 142.224 83.0889 141.712 83.3897C141.208 83.6904 140.83 84.0928 140.578 84.5968C140.326 85.1008 140.2 85.6576 140.2 86.2673H142.224C142.224 85.9584 142.273 85.6861 142.371 85.4503C142.476 85.2146 142.627 85.0317 142.822 84.9016C143.025 84.7716 143.257 84.7065 143.517 84.7065C143.712 84.7065 143.883 84.7391 144.029 84.8041C144.175 84.861 144.297 84.9423 144.395 85.048C144.492 85.1455 144.566 85.2593 144.614 85.3894C144.663 85.5194 144.688 85.6495 144.688 85.7796C144.688 86.0072 144.643 86.2226 144.553 86.4258C144.472 86.6209 144.346 86.82 144.175 87.0233C144.013 87.2265 143.818 87.4541 143.59 87.7061L139.786 91.6445Z" fill="#887D7D"/>
<path d="M127.756 111.379C127.756 110.875 127.858 110.432 128.061 110.05C128.272 109.66 128.561 109.355 128.927 109.136C129.292 108.916 129.719 108.807 130.207 108.807C130.751 108.807 131.215 108.937 131.597 109.197C131.987 109.449 132.284 109.786 132.487 110.209C132.698 110.631 132.804 111.099 132.804 111.611C132.804 112.107 132.698 112.546 132.487 112.928C132.284 113.302 131.999 113.59 131.633 113.794C131.268 113.997 130.841 114.098 130.353 114.098C129.874 114.098 129.435 113.989 129.036 113.769C128.646 113.542 128.333 113.225 128.097 112.818C127.87 112.412 127.756 111.932 127.756 111.379ZM125.573 111.379C125.573 112.038 125.687 112.643 125.915 113.196C126.142 113.749 126.463 114.228 126.878 114.635C127.301 115.041 127.793 115.358 128.353 115.586C128.914 115.805 129.532 115.915 130.207 115.915C130.873 115.915 131.483 115.805 132.036 115.586C132.597 115.358 133.08 115.041 133.487 114.635C133.893 114.228 134.206 113.749 134.426 113.196C134.645 112.643 134.755 112.038 134.755 111.379C134.755 110.721 134.641 110.119 134.414 109.575C134.194 109.03 133.877 108.559 133.462 108.16C133.056 107.762 132.576 107.457 132.024 107.246C131.471 107.026 130.865 106.917 130.207 106.917C129.557 106.917 128.951 107.026 128.39 107.246C127.829 107.457 127.337 107.762 126.915 108.16C126.492 108.559 126.163 109.03 125.927 109.575C125.691 110.119 125.573 110.721 125.573 111.379ZM129.512 111.989L133.548 115.793H135.755L131.646 111.989H129.512ZM136.868 114.818C136.868 115.127 136.978 115.391 137.197 115.61C137.417 115.83 137.689 115.94 138.014 115.94C138.355 115.94 138.632 115.83 138.843 115.61C139.054 115.391 139.16 115.127 139.16 114.818C139.16 114.509 139.054 114.245 138.843 114.025C138.632 113.806 138.355 113.696 138.014 113.696C137.689 113.696 137.417 113.806 137.197 114.025C136.978 114.245 136.868 114.509 136.868 114.818ZM143.699 111.513C144.374 111.513 144.984 111.432 145.528 111.27C146.073 111.107 146.504 110.863 146.821 110.538C147.146 110.213 147.309 109.806 147.309 109.319C147.309 108.88 147.191 108.481 146.955 108.124C146.727 107.766 146.39 107.482 145.943 107.27C145.496 107.059 144.951 106.953 144.309 106.953C143.707 106.953 143.179 107.071 142.724 107.307C142.269 107.534 141.915 107.851 141.663 108.258C141.419 108.656 141.297 109.107 141.297 109.611H143.187C143.187 109.311 143.293 109.067 143.504 108.88C143.716 108.693 143.984 108.599 144.309 108.599C144.528 108.599 144.707 108.636 144.845 108.709C144.984 108.774 145.089 108.872 145.162 109.002C145.236 109.132 145.272 109.278 145.272 109.441C145.272 109.595 145.236 109.741 145.162 109.88C145.089 110.018 144.98 110.14 144.833 110.245C144.695 110.351 144.528 110.436 144.333 110.501C144.146 110.558 143.935 110.587 143.699 110.587V111.513ZM144.211 115.842C144.91 115.842 145.508 115.736 146.004 115.525C146.5 115.306 146.882 115.009 147.15 114.635C147.418 114.253 147.552 113.814 147.552 113.318C147.552 112.887 147.459 112.517 147.272 112.208C147.085 111.9 146.817 111.648 146.467 111.452C146.118 111.249 145.707 111.103 145.236 111.014C144.772 110.916 144.26 110.867 143.699 110.867V111.916C144.008 111.916 144.276 111.944 144.504 112.001C144.732 112.058 144.919 112.143 145.065 112.257C145.219 112.363 145.333 112.489 145.406 112.635C145.48 112.782 145.516 112.944 145.516 113.123C145.516 113.359 145.463 113.558 145.358 113.72C145.252 113.883 145.106 114.001 144.919 114.074C144.74 114.147 144.528 114.184 144.285 114.184C144.057 114.184 143.837 114.139 143.626 114.05C143.423 113.96 143.26 113.822 143.138 113.635C143.016 113.448 142.956 113.216 142.956 112.94H140.931C140.931 113.314 141.005 113.676 141.151 114.025C141.305 114.375 141.521 114.688 141.797 114.964C142.082 115.241 142.427 115.456 142.834 115.61C143.24 115.765 143.699 115.842 144.211 115.842Z" fill="white"/>
<path d="M126.696 135.38C126.696 134.876 126.797 134.433 127.001 134.051C127.212 133.661 127.501 133.356 127.866 133.136C128.232 132.917 128.659 132.807 129.147 132.807C129.691 132.807 130.155 132.937 130.537 133.197C130.927 133.449 131.224 133.787 131.427 134.209C131.638 134.632 131.744 135.099 131.744 135.611C131.744 136.107 131.638 136.546 131.427 136.928C131.224 137.302 130.939 137.591 130.573 137.794C130.207 137.997 129.781 138.099 129.293 138.099C128.813 138.099 128.374 137.989 127.976 137.77C127.586 137.542 127.273 137.225 127.037 136.819C126.81 136.412 126.696 135.933 126.696 135.38ZM124.513 135.38C124.513 136.038 124.627 136.644 124.855 137.197C125.082 137.749 125.403 138.229 125.818 138.635C126.241 139.042 126.732 139.359 127.293 139.586C127.854 139.806 128.472 139.916 129.147 139.916C129.813 139.916 130.423 139.806 130.976 139.586C131.537 139.359 132.02 139.042 132.427 138.635C132.833 138.229 133.146 137.749 133.366 137.197C133.585 136.644 133.695 136.038 133.695 135.38C133.695 134.721 133.581 134.12 133.353 133.575C133.134 133.031 132.817 132.559 132.402 132.161C131.996 131.762 131.516 131.458 130.963 131.246C130.411 131.027 129.805 130.917 129.147 130.917C128.496 130.917 127.891 131.027 127.33 131.246C126.769 131.458 126.277 131.762 125.854 132.161C125.432 132.559 125.103 133.031 124.867 133.575C124.631 134.12 124.513 134.721 124.513 135.38ZM128.452 135.989L132.488 139.794H134.695L130.585 135.989H128.452ZM135.808 138.818C135.808 139.127 135.917 139.391 136.137 139.611C136.356 139.83 136.629 139.94 136.954 139.94C137.295 139.94 137.572 139.83 137.783 139.611C137.994 139.391 138.1 139.127 138.1 138.818C138.1 138.509 137.994 138.245 137.783 138.026C137.572 137.806 137.295 137.697 136.954 137.697C136.629 137.697 136.356 137.806 136.137 138.026C135.917 138.245 135.808 138.509 135.808 138.818ZM139.457 138.135H147.285V136.38H145.541L145.334 136.648H142.188L144.029 134.1V137.367L143.797 137.501V139.647H145.943V131.112H144.407L139.457 138.135Z" fill="#887D7D"/>
<path d="M127.023 159.382C127.023 158.878 127.125 158.435 127.328 158.053C127.539 157.663 127.828 157.358 128.194 157.138C128.56 156.919 128.986 156.809 129.474 156.809C130.019 156.809 130.482 156.939 130.864 157.199C131.254 157.451 131.551 157.789 131.754 158.211C131.966 158.634 132.071 159.101 132.071 159.613C132.071 160.109 131.966 160.548 131.754 160.93C131.551 161.304 131.267 161.593 130.901 161.796C130.535 161.999 130.108 162.101 129.62 162.101C129.141 162.101 128.702 161.991 128.304 161.772C127.913 161.544 127.6 161.227 127.365 160.821C127.137 160.414 127.023 159.935 127.023 159.382ZM124.841 159.382C124.841 160.04 124.954 160.646 125.182 161.199C125.41 161.751 125.731 162.231 126.145 162.637C126.568 163.044 127.06 163.361 127.621 163.588C128.182 163.808 128.799 163.918 129.474 163.918C130.141 163.918 130.75 163.808 131.303 163.588C131.864 163.361 132.348 163.044 132.754 162.637C133.161 162.231 133.474 161.751 133.693 161.199C133.912 160.646 134.022 160.04 134.022 159.382C134.022 158.723 133.908 158.122 133.681 157.577C133.461 157.033 133.144 156.561 132.73 156.163C132.323 155.764 131.844 155.46 131.291 155.248C130.738 155.029 130.133 154.919 129.474 154.919C128.824 154.919 128.218 155.029 127.657 155.248C127.096 155.46 126.605 155.764 126.182 156.163C125.759 156.561 125.43 157.033 125.194 157.577C124.959 158.122 124.841 158.723 124.841 159.382ZM128.779 159.991L132.815 163.796H135.022L130.913 159.991H128.779ZM136.135 162.82C136.135 163.129 136.245 163.393 136.464 163.613C136.684 163.832 136.956 163.942 137.281 163.942C137.623 163.942 137.899 163.832 138.11 163.613C138.322 163.393 138.427 163.129 138.427 162.82C138.427 162.511 138.322 162.247 138.11 162.028C137.899 161.808 137.623 161.698 137.281 161.698C136.956 161.698 136.684 161.808 136.464 162.028C136.245 162.247 136.135 162.511 136.135 162.82ZM146.99 160.918C146.99 160.325 146.868 159.821 146.625 159.406C146.381 158.992 146.06 158.675 145.661 158.455C145.271 158.236 144.848 158.126 144.393 158.126C144.125 158.126 143.865 158.15 143.613 158.199C143.369 158.24 143.133 158.313 142.906 158.418L143.393 156.894H146.807V155.114H141.881L140.686 160.04C140.979 159.894 141.264 159.784 141.54 159.711C141.824 159.63 142.097 159.577 142.357 159.552C142.625 159.52 142.869 159.504 143.088 159.504C143.373 159.504 143.637 159.544 143.881 159.626C144.133 159.707 144.336 159.837 144.491 160.016C144.653 160.187 144.735 160.414 144.735 160.699C144.735 160.967 144.67 161.194 144.539 161.381C144.409 161.568 144.222 161.707 143.979 161.796C143.735 161.885 143.438 161.93 143.088 161.93C142.885 161.93 142.658 161.894 142.406 161.82C142.154 161.739 141.902 161.633 141.65 161.503C141.406 161.365 141.166 161.199 140.93 161.003L140.126 162.698C140.394 162.902 140.69 163.089 141.016 163.259C141.341 163.422 141.715 163.552 142.137 163.649C142.56 163.755 143.032 163.808 143.552 163.808C143.966 163.808 144.373 163.755 144.771 163.649C145.178 163.536 145.547 163.361 145.881 163.125C146.222 162.889 146.49 162.589 146.686 162.223C146.889 161.857 146.99 161.422 146.99 160.918Z" fill="#887D7D"/>
<path d="M126.874 183.383C126.874 182.879 126.976 182.436 127.179 182.054C127.391 181.664 127.679 181.359 128.045 181.14C128.411 180.92 128.838 180.81 129.325 180.81C129.87 180.81 130.333 180.94 130.715 181.201C131.105 181.453 131.402 181.79 131.605 182.213C131.817 182.635 131.922 183.103 131.922 183.615C131.922 184.111 131.817 184.55 131.605 184.932C131.402 185.306 131.118 185.594 130.752 185.797C130.386 186.001 129.959 186.102 129.472 186.102C128.992 186.102 128.553 185.993 128.155 185.773C127.765 185.546 127.452 185.228 127.216 184.822C126.988 184.416 126.874 183.936 126.874 183.383ZM124.692 183.383C124.692 184.042 124.806 184.647 125.033 185.2C125.261 185.753 125.582 186.232 125.996 186.639C126.419 187.045 126.911 187.362 127.472 187.59C128.033 187.809 128.651 187.919 129.325 187.919C129.992 187.919 130.601 187.809 131.154 187.59C131.715 187.362 132.199 187.045 132.605 186.639C133.012 186.232 133.325 185.753 133.544 185.2C133.764 184.647 133.873 184.042 133.873 183.383C133.873 182.725 133.76 182.123 133.532 181.579C133.312 181.034 132.995 180.563 132.581 180.164C132.174 179.766 131.695 179.461 131.142 179.25C130.589 179.03 129.984 178.92 129.325 178.92C128.675 178.92 128.069 179.03 127.508 179.25C126.948 179.461 126.456 179.766 126.033 180.164C125.61 180.563 125.281 181.034 125.045 181.579C124.81 182.123 124.692 182.725 124.692 183.383ZM128.63 183.993L132.666 187.797H134.873L130.764 183.993H128.63ZM135.986 186.822C135.986 187.131 136.096 187.395 136.315 187.614C136.535 187.834 136.807 187.944 137.132 187.944C137.474 187.944 137.75 187.834 137.962 187.614C138.173 187.395 138.279 187.131 138.279 186.822C138.279 186.513 138.173 186.249 137.962 186.029C137.75 185.81 137.474 185.7 137.132 185.7C136.807 185.7 136.535 185.81 136.315 186.029C136.096 186.249 135.986 186.513 135.986 186.822ZM142.111 184.651C142.111 184.367 142.171 184.115 142.293 183.895C142.423 183.676 142.594 183.505 142.806 183.383C143.025 183.261 143.273 183.2 143.549 183.2C143.818 183.2 144.057 183.261 144.269 183.383C144.488 183.505 144.659 183.676 144.781 183.895C144.911 184.115 144.976 184.367 144.976 184.651C144.976 184.944 144.911 185.2 144.781 185.42C144.659 185.631 144.488 185.797 144.269 185.919C144.057 186.033 143.818 186.09 143.549 186.09C143.273 186.09 143.025 186.033 142.806 185.919C142.594 185.797 142.423 185.631 142.293 185.42C142.171 185.2 142.111 184.944 142.111 184.651ZM143.525 179.152L141.062 182.286C140.785 182.627 140.55 182.993 140.355 183.383C140.168 183.773 140.074 184.196 140.074 184.651C140.074 185.35 140.229 185.94 140.538 186.419C140.855 186.891 141.273 187.248 141.793 187.492C142.322 187.728 142.907 187.846 143.549 187.846C144.183 187.846 144.761 187.728 145.281 187.492C145.809 187.248 146.228 186.891 146.537 186.419C146.854 185.94 147.012 185.35 147.012 184.651C147.012 184.22 146.935 183.834 146.781 183.493C146.634 183.152 146.431 182.863 146.171 182.627C145.919 182.383 145.634 182.2 145.317 182.079C145.008 181.948 144.695 181.883 144.378 181.883C144.07 181.883 143.809 181.916 143.598 181.981C143.395 182.046 143.179 182.192 142.952 182.42L143.379 182.237L146.134 179.152H143.525Z" fill="#887D7D"/>
<path d="M196.398 76.2616C196.398 75.5401 196.543 74.9059 196.834 74.3589C197.137 73.8004 197.55 73.364 198.073 73.0498C198.597 72.7356 199.208 72.5785 199.906 72.5785C200.686 72.5785 201.349 72.7647 201.896 73.137C202.455 73.4978 202.88 73.9807 203.171 74.5859C203.473 75.191 203.624 75.8601 203.624 76.5933C203.624 77.3031 203.473 77.9315 203.171 78.4785C202.88 79.0138 202.472 79.4269 201.949 79.7178C201.425 80.0088 200.814 80.1542 200.116 80.1542C199.429 80.1542 198.801 79.9971 198.231 79.6829C197.672 79.3571 197.224 78.9032 196.887 78.3214C196.561 77.7395 196.398 77.0529 196.398 76.2616ZM193.273 76.2616C193.273 77.2042 193.436 78.0712 193.762 78.8625C194.088 79.6538 194.547 80.3404 195.141 80.9223C195.746 81.5041 196.45 81.958 197.253 82.2838C198.056 82.598 198.94 82.7551 199.906 82.7551C200.861 82.7551 201.733 82.598 202.525 82.2838C203.328 81.958 204.02 81.5041 204.602 80.9223C205.184 80.3404 205.632 79.6538 205.946 78.8625C206.26 78.0712 206.417 77.2042 206.417 76.2616C206.417 75.319 206.254 74.4579 205.929 73.6782C205.614 72.8985 205.16 72.2235 204.567 71.6533C203.985 71.0831 203.299 70.6467 202.507 70.3441C201.716 70.0299 200.849 69.8728 199.906 69.8728C198.975 69.8728 198.108 70.0299 197.305 70.3441C196.502 70.6467 195.798 71.0831 195.193 71.6533C194.588 72.2235 194.117 72.8985 193.779 73.6782C193.442 74.4579 193.273 75.319 193.273 76.2616ZM198.911 77.1344L204.689 82.5806H207.849L201.966 77.1344H198.911ZM209.442 81.1841C209.442 81.6263 209.599 82.0045 209.913 82.3187C210.228 82.6329 210.617 82.79 211.083 82.79C211.572 82.79 211.967 82.6329 212.27 82.3187C212.572 82.0045 212.724 81.6263 212.724 81.1841C212.724 80.7419 212.572 80.3637 212.27 80.0495C211.967 79.7353 211.572 79.5782 211.083 79.5782C210.617 79.5782 210.228 79.7353 209.913 80.0495C209.599 80.3637 209.442 80.7419 209.442 81.1841ZM219.222 76.4536C220.188 76.4536 221.061 76.3373 221.84 76.1045C222.62 75.8718 223.237 75.5227 223.691 75.0572C224.156 74.5917 224.389 74.0098 224.389 73.3116C224.389 72.6832 224.22 72.113 223.883 71.6009C223.557 71.0889 223.074 70.6816 222.434 70.379C221.794 70.0765 221.014 69.9252 220.095 69.9252C219.233 69.9252 218.477 70.0939 217.825 70.4314C217.174 70.7573 216.668 71.2111 216.307 71.793C215.958 72.3632 215.783 73.009 215.783 73.7305H218.489C218.489 73.3 218.64 72.9509 218.943 72.6832C219.245 72.4155 219.629 72.2817 220.095 72.2817C220.409 72.2817 220.665 72.3341 220.863 72.4388C221.061 72.5319 221.212 72.6716 221.317 72.8578C221.421 73.0439 221.474 73.2534 221.474 73.4862C221.474 73.7073 221.421 73.9167 221.317 74.1146C221.212 74.3124 221.055 74.4869 220.845 74.6382C220.647 74.7895 220.409 74.9117 220.13 75.0048C219.862 75.0863 219.559 75.127 219.222 75.127V76.4536ZM219.955 82.6504C220.956 82.6504 221.811 82.4991 222.521 82.1965C223.231 81.8823 223.778 81.4576 224.162 80.9223C224.546 80.3753 224.738 79.7469 224.738 79.0371C224.738 78.4203 224.604 77.8908 224.336 77.4486C224.069 77.0064 223.685 76.6456 223.184 76.3663C222.684 76.0754 222.096 75.8659 221.421 75.7379C220.758 75.5983 220.025 75.5285 219.222 75.5285V77.0297C219.664 77.0297 220.048 77.0704 220.374 77.1518C220.7 77.2333 220.967 77.3555 221.177 77.5184C221.398 77.6697 221.561 77.8501 221.666 78.0595C221.77 78.269 221.823 78.5018 221.823 78.7578C221.823 79.0952 221.747 79.3804 221.596 79.6131C221.445 79.8458 221.235 80.0146 220.967 80.1193C220.711 80.224 220.409 80.2764 220.06 80.2764C219.734 80.2764 219.42 80.2124 219.117 80.0844C218.826 79.9564 218.593 79.7586 218.419 79.4909C218.244 79.2233 218.157 78.8916 218.157 78.4959H215.259C215.259 79.0312 215.364 79.5491 215.574 80.0495C215.795 80.5499 216.103 80.9979 216.499 81.3936C216.906 81.7892 217.401 82.0976 217.982 82.3187C218.564 82.5398 219.222 82.6504 219.955 82.6504ZM228.44 85.8622C229.138 84.5472 229.662 83.1624 230.011 81.7078C230.372 80.2531 230.552 78.7869 230.552 77.3089C230.552 75.8194 230.372 74.3473 230.011 72.8927C229.662 71.438 229.138 70.059 228.44 68.7557H226.031C226.648 70.059 227.119 71.438 227.445 72.8927C227.783 74.3473 227.951 75.8194 227.951 77.3089C227.951 78.7869 227.783 80.2531 227.445 81.7078C227.119 83.1624 226.648 84.5472 226.031 85.8622H228.44ZM241.735 76.2616C241.735 75.5401 241.874 74.9059 242.154 74.3589C242.445 73.8004 242.846 73.364 243.358 73.0498C243.882 72.7356 244.493 72.5785 245.191 72.5785C245.901 72.5785 246.512 72.7356 247.024 73.0498C247.536 73.364 247.932 73.8004 248.211 74.3589C248.49 74.9059 248.63 75.5401 248.63 76.2616C248.63 76.9831 248.484 77.6232 248.193 78.1817C247.914 78.7287 247.513 79.1593 246.989 79.4735C246.477 79.7877 245.878 79.9448 245.191 79.9448C244.493 79.9448 243.882 79.7877 243.358 79.4735C242.846 79.1593 242.445 78.7287 242.154 78.1817C241.874 77.6232 241.735 76.9831 241.735 76.2616ZM238.61 76.2616C238.61 77.2042 238.767 78.0712 239.081 78.8625C239.407 79.6538 239.861 80.3404 240.443 80.9223C241.037 81.5041 241.735 81.958 242.538 82.2838C243.341 82.598 244.225 82.7551 245.191 82.7551C246.145 82.7551 247.024 82.598 247.827 82.2838C248.63 81.958 249.322 81.5041 249.904 80.9223C250.498 80.3404 250.951 79.6538 251.266 78.8625C251.591 78.0712 251.754 77.2042 251.754 76.2616C251.754 75.319 251.591 74.4579 251.266 73.6782C250.94 72.8985 250.48 72.2235 249.887 71.6533C249.293 71.0831 248.595 70.6467 247.792 70.3441C247.001 70.0299 246.134 69.8728 245.191 69.8728C244.26 69.8728 243.393 70.0299 242.59 70.3441C241.787 70.6467 241.089 71.0831 240.495 71.6533C239.902 72.2235 239.436 72.8985 239.099 73.6782C238.773 74.4579 238.61 75.319 238.61 76.2616ZM256.664 79.2291V74.3415H253.906V79.5084C253.906 80.4626 254.133 81.2132 254.587 81.7601C255.053 82.2955 255.786 82.5631 256.787 82.5631C257.38 82.5631 257.875 82.4409 258.27 82.1965C258.666 81.9405 258.986 81.5972 259.23 81.1667V82.3711H261.866V74.3415H259.23V79.2291C259.23 79.5433 259.172 79.8109 259.056 80.032C258.939 80.2531 258.777 80.4219 258.567 80.5382C258.369 80.6546 258.125 80.7128 257.834 80.7128C257.403 80.7128 257.101 80.5848 256.926 80.3288C256.752 80.0611 256.664 79.6946 256.664 79.2291ZM267.071 74.3415H264.47V82.3711H267.071V74.3415ZM269.393 77.0646L270.528 74.8128C270.388 74.6033 270.184 74.4404 269.917 74.324C269.649 74.2077 269.37 74.1495 269.079 74.1495C268.637 74.1495 268.212 74.2949 267.805 74.5859C267.397 74.8768 267.066 75.2725 266.81 75.7729C266.565 76.2732 266.443 76.8435 266.443 77.4835L267.071 78.4087C267.071 78.0246 267.124 77.6988 267.228 77.4311C267.333 77.1635 267.485 76.9598 267.682 76.8202C267.88 76.6805 268.107 76.6107 268.363 76.6107C268.596 76.6107 268.788 76.6515 268.939 76.7329C269.102 76.8144 269.253 76.9249 269.393 77.0646ZM281.244 76.8376L284.666 82.3711H288.122L284.299 76.8376H281.244ZM278.19 70.1521V82.3711H281.14V70.1521H278.19ZM280.04 72.6483H282.431C282.827 72.6483 283.164 72.7123 283.444 72.8403C283.735 72.9683 283.956 73.1545 284.107 73.3989C284.258 73.6316 284.334 73.9167 284.334 74.2542C284.334 74.5917 284.258 74.8826 284.107 75.127C283.956 75.3597 283.735 75.5401 283.444 75.6681C283.164 75.7845 282.827 75.8427 282.431 75.8427H280.04V78.1294H282.641C283.688 78.1294 284.561 77.9606 285.259 77.6232C285.957 77.2857 286.487 76.8202 286.848 76.2267C287.208 75.6216 287.389 74.9292 287.389 74.1495C287.389 73.3581 287.208 72.6657 286.848 72.0722C286.487 71.4671 285.957 70.9958 285.259 70.6583C284.561 70.3209 283.688 70.1521 282.641 70.1521H280.04V72.6483ZM293.838 82.5457C294.862 82.5457 295.729 82.3478 296.439 81.9522C297.16 81.5565 297.73 80.963 298.149 80.1717L295.793 79.5956C295.595 79.9448 295.327 80.2066 294.99 80.3811C294.664 80.5557 294.268 80.643 293.803 80.643C293.396 80.643 293.052 80.5557 292.773 80.3811C292.494 80.195 292.284 79.9273 292.145 79.5782C292.005 79.2291 291.935 78.8101 291.935 78.3214C291.947 77.7861 292.017 77.3439 292.145 76.9947C292.284 76.634 292.488 76.3663 292.756 76.1918C293.023 76.0172 293.355 75.93 293.751 75.93C294.065 75.93 294.338 75.9998 294.571 76.1394C294.804 76.2791 294.984 76.4769 295.112 76.7329C295.24 76.9889 295.304 77.2915 295.304 77.6406C295.304 77.7221 295.281 77.8268 295.234 77.9548C295.199 78.0712 295.153 78.1701 295.095 78.2516L295.723 77.4486H290.766V78.9149H298.097C298.12 78.8334 298.132 78.7345 298.132 78.6181C298.132 78.4901 298.132 78.3621 298.132 78.2341C298.132 77.373 297.963 76.6398 297.626 76.0347C297.288 75.4296 296.8 74.9699 296.159 74.6557C295.519 74.3298 294.734 74.1669 293.803 74.1669C292.872 74.1669 292.063 74.3357 291.377 74.6731C290.702 75.0106 290.184 75.4936 289.823 76.122C289.462 76.7504 289.282 77.4951 289.282 78.3563C289.282 79.2058 289.468 79.9448 289.841 80.5732C290.213 81.2016 290.737 81.6903 291.412 82.0394C292.098 82.3769 292.907 82.5457 293.838 82.5457ZM299.341 74.3415V76.5234H304.717V74.3415H299.341ZM300.755 71.5486V82.3711H303.286V71.5486H300.755ZM309.122 79.2291V74.3415H306.364V79.5084C306.364 80.4626 306.591 81.2132 307.045 81.7601C307.51 82.2955 308.243 82.5631 309.244 82.5631C309.838 82.5631 310.332 82.4409 310.728 82.1965C311.124 81.9405 311.444 81.5972 311.688 81.1667V82.3711H314.324V74.3415H311.688V79.2291C311.688 79.5433 311.63 79.8109 311.514 80.032C311.397 80.2531 311.234 80.4219 311.025 80.5382C310.827 80.6546 310.583 80.7128 310.292 80.7128C309.861 80.7128 309.558 80.5848 309.384 80.3288C309.209 80.0611 309.122 79.6946 309.122 79.2291ZM319.529 74.3415H316.928V82.3711H319.529V74.3415ZM321.851 77.0646L322.985 74.8128C322.846 74.6033 322.642 74.4404 322.374 74.324C322.107 74.2077 321.827 74.1495 321.536 74.1495C321.094 74.1495 320.67 74.2949 320.262 74.5859C319.855 74.8768 319.523 75.2725 319.267 75.7729C319.023 76.2732 318.901 76.8435 318.901 77.4835L319.529 78.4087C319.529 78.0246 319.581 77.6988 319.686 77.4311C319.791 77.1635 319.942 76.9598 320.14 76.8202C320.338 76.6805 320.565 76.6107 320.821 76.6107C321.054 76.6107 321.246 76.6515 321.397 76.7329C321.56 76.8144 321.711 76.9249 321.851 77.0646ZM329.848 77.4835V82.3711H332.588V77.2042C332.588 76.2383 332.361 75.4877 331.907 74.9524C331.454 74.4171 330.726 74.1495 329.726 74.1495C329.132 74.1495 328.632 74.2717 328.224 74.516C327.829 74.7604 327.514 75.1037 327.282 75.5459V74.3415H324.628V82.3711H327.282V77.4835C327.282 77.1693 327.34 76.9017 327.456 76.6805C327.573 76.4594 327.736 76.2907 327.945 76.1743C328.155 76.058 328.399 75.9998 328.678 75.9998C329.097 75.9998 329.394 76.1278 329.568 76.3838C329.755 76.6398 329.848 77.0064 329.848 77.4835ZM341.211 70.1521V82.3711H344.161V70.1521H341.211ZM343.062 72.5785H345.453C346.047 72.5785 346.512 72.7123 346.85 72.9799C347.187 73.2476 347.356 73.6374 347.356 74.1495C347.356 74.6499 347.187 75.0339 346.85 75.3015C346.512 75.5692 346.047 75.703 345.453 75.703H343.062V78.1294H345.453C346.489 78.1294 347.356 77.9723 348.054 77.6581C348.764 77.3322 349.299 76.8726 349.66 76.2791C350.021 75.6739 350.201 74.9641 350.201 74.1495C350.201 73.3116 350.021 72.5959 349.66 72.0024C349.299 71.4089 348.764 70.9551 348.054 70.6409C347.356 70.315 346.489 70.1521 345.453 70.1521H343.062V72.5785ZM351.349 78.3563C351.349 79.1942 351.547 79.9273 351.943 80.5557C352.338 81.1841 352.885 81.6729 353.583 82.022C354.282 82.3711 355.067 82.5457 355.94 82.5457C356.813 82.5457 357.592 82.3711 358.279 82.022C358.977 81.6729 359.524 81.1841 359.92 80.5557C360.327 79.9273 360.531 79.1942 360.531 78.3563C360.531 77.5068 360.327 76.7678 359.92 76.1394C359.524 75.511 358.977 75.0223 358.279 74.6731C357.592 74.324 356.813 74.1495 355.94 74.1495C355.067 74.1495 354.282 74.324 353.583 74.6731C352.885 75.0223 352.338 75.511 351.943 76.1394C351.547 76.7678 351.349 77.5068 351.349 78.3563ZM354.055 78.3563C354.055 77.9374 354.142 77.5766 354.317 77.274C354.491 76.9715 354.718 76.7387 354.997 76.5758C355.277 76.4129 355.591 76.3314 355.94 76.3314C356.277 76.3314 356.586 76.4129 356.865 76.5758C357.156 76.7387 357.383 76.9715 357.546 77.274C357.72 77.5766 357.808 77.9374 357.808 78.3563C357.808 78.7752 357.72 79.136 357.546 79.4385C357.383 79.7295 357.156 79.9564 356.865 80.1193C356.586 80.2822 356.277 80.3637 355.94 80.3637C355.591 80.3637 355.277 80.2822 354.997 80.1193C354.718 79.9564 354.491 79.7295 354.317 79.4385C354.142 79.136 354.055 78.7752 354.055 78.3563ZM362.64 68.7557V82.3711H365.293V68.7557H362.64ZM367.712 71.3217C367.712 71.7406 367.863 72.0839 368.165 72.3515C368.468 72.6192 368.829 72.753 369.248 72.753C369.678 72.753 370.039 72.6192 370.33 72.3515C370.633 72.0839 370.784 71.7406 370.784 71.3217C370.784 70.9027 370.633 70.5652 370.33 70.3092C370.039 70.0416 369.678 69.9077 369.248 69.9077C368.829 69.9077 368.468 70.0416 368.165 70.3092C367.863 70.5652 367.712 70.9027 367.712 71.3217ZM367.973 74.3415V82.3711H370.522V74.3415H367.973ZM375.433 78.3563C375.433 77.9606 375.527 77.6057 375.713 77.2915C375.899 76.9773 376.155 76.7271 376.481 76.5409C376.818 76.3547 377.179 76.2616 377.563 76.2616C377.854 76.2616 378.151 76.3082 378.453 76.4013C378.756 76.4944 379.035 76.6282 379.291 76.8027C379.559 76.9773 379.774 77.1926 379.937 77.4486V74.8652C379.658 74.6673 379.309 74.5044 378.89 74.3764C378.471 74.2368 377.959 74.1669 377.354 74.1669C376.469 74.1669 375.672 74.3415 374.962 74.6906C374.264 75.0397 373.711 75.5285 373.304 76.1569C372.908 76.7736 372.71 77.5068 372.71 78.3563C372.71 79.1942 372.908 79.9273 373.304 80.5557C373.711 81.1841 374.264 81.6729 374.962 82.022C375.672 82.3711 376.469 82.5457 377.354 82.5457C377.959 82.5457 378.471 82.4816 378.89 82.3536C379.309 82.214 379.658 82.0336 379.937 81.8125V79.2465C379.774 79.5025 379.565 79.7178 379.309 79.8924C379.064 80.0669 378.791 80.2066 378.488 80.3113C378.197 80.4044 377.889 80.451 377.563 80.451C377.179 80.451 376.818 80.3637 376.481 80.1891C376.155 80.0146 375.899 79.776 375.713 79.4735C375.527 79.1593 375.433 78.7869 375.433 78.3563ZM390.587 74.3415H387.882L385.316 80.7652L386.677 80.7826L384.076 74.3415H381.179L384.652 81.7252L382.697 86.2113H385.351L390.587 74.3415ZM398.294 73.6433C398.294 73.9458 398.183 74.26 397.962 74.5859C397.741 74.9117 397.404 75.191 396.95 75.4237C396.496 75.6448 395.92 75.7554 395.222 75.7554H394.663L395.012 78.8625H397.142L397.212 77.3962C397.84 77.2915 398.439 77.082 399.01 76.7678C399.58 76.442 400.045 76.0172 400.406 75.4936C400.778 74.9699 400.965 74.3531 400.965 73.6433C400.965 73.0381 400.837 72.5028 400.581 72.0373C400.336 71.5602 400.004 71.1587 399.586 70.8329C399.167 70.4954 398.689 70.2452 398.154 70.0823C397.631 69.9077 397.084 69.8205 396.513 69.8205C395.827 69.8205 395.204 69.9136 394.646 70.0998C394.087 70.2743 393.575 70.5303 393.109 70.8678C392.644 71.2053 392.208 71.6126 391.8 72.0897L393.581 73.556C393.907 73.0672 394.314 72.6948 394.803 72.4388C395.291 72.1828 395.803 72.0548 396.339 72.0548C396.746 72.0548 397.095 72.1188 397.386 72.2468C397.689 72.3632 397.916 72.5436 398.067 72.7879C398.218 73.0207 398.294 73.3058 398.294 73.6433ZM394.436 81.3412C394.436 81.7369 394.593 82.0802 394.907 82.3711C395.222 82.6504 395.617 82.79 396.094 82.79C396.572 82.79 396.961 82.6504 397.264 82.3711C397.578 82.0802 397.735 81.7369 397.735 81.3412C397.735 80.9572 397.578 80.6197 397.264 80.3288C396.961 80.0379 396.572 79.8924 396.094 79.8924C395.617 79.8924 395.222 80.0379 394.907 80.3288C394.593 80.6197 394.436 80.9572 394.436 81.3412Z" fill="#887D7D"/>
<rect x="192.68" y="100.464" width="245.47" height="6.54588" rx="3.27294" fill="#B9C2D0"/>
<rect x="192.68" y="126.647" width="230.197" height="6.54588" rx="3.27294" fill="#B9C2D0"/>
<rect x="192.68" y="113.556" width="245.47" height="6.54588" rx="3.27294" fill="#B9C2D0"/>
<rect x="192.68" y="139.739" width="165.829" height="6.54588" rx="3.27294" fill="#B9C2D0"/>
<g filter="url(#filter2_d_869_14588)">
<path d="M236.972 257.161C236.761 256.154 237.84 255.37 238.733 255.882L274.321 276.277C275.226 276.796 275.076 278.146 274.078 278.453L256.806 283.766C256.538 283.848 256.308 284.022 256.156 284.257L247.511 297.573C246.931 298.466 245.561 298.21 245.343 297.168L236.972 257.161Z" fill="#333333"/>
<path d="M238.14 256.917L273.728 277.312L256.455 282.626C255.92 282.79 255.46 283.138 255.155 283.607L246.511 296.924L238.14 256.917Z" stroke="white" stroke-width="2.38589"/>
</g>
<path d="M447.945 182.936C448.242 182.639 448.594 182.404 448.982 182.243C449.37 182.083 449.785 182 450.205 182C450.624 182 451.04 182.083 451.428 182.243C451.815 182.404 452.167 182.639 452.464 182.936C452.761 183.233 452.996 183.585 453.157 183.972C453.317 184.36 453.4 184.776 453.4 185.195C453.4 185.615 453.317 186.03 453.157 186.418C452.996 186.806 452.761 187.158 452.464 187.455L437.213 202.705L431 204.4L432.695 198.187L447.945 182.936Z" stroke="white" stroke-width="2.25938" stroke-linecap="round" stroke-linejoin="round"/>
<line x1="434" y1="207" x2="454" y2="207" stroke="white" stroke-width="2" stroke-linecap="round"/>
</g>
<defs>
<filter id="filter0_bdii_869_14588" x="10.9871" y="201.331" width="269.569" height="91.6891" filterUnits="userSpaceOnUse" color-interpolation-filters="sRGB">
<feFlood flood-opacity="0" result="BackgroundImageFix"/>
<feGaussianBlur in="BackgroundImageFix" stdDeviation="8.47909"/>
<feComposite in2="SourceAlpha" operator="in" result="effect1_backgroundBlur_869_14588"/>
<feColorMatrix in="SourceAlpha" type="matrix" values="0 0 0 0 0 0 0 0 0 0 0 0 0 0 0 0 0 0 127 0" result="hardAlpha"/>
<feOffset dy="4"/>
<feGaussianBlur stdDeviation="7"/>
<feComposite in2="hardAlpha" operator="out"/>
<feColorMatrix type="matrix" values="0 0 0 0 0 0 0 0 0 0 0 0 0 0 0 0 0 0 0.25 0"/>
<feBlend mode="normal" in2="effect1_backgroundBlur_869_14588" result="effect2_dropShadow_869_14588"/>
<feBlend mode="normal" in="SourceGraphic" in2="effect2_dropShadow_869_14588" result="shape"/>
<feColorMatrix in="SourceAlpha" type="matrix" values="0 0 0 0 0 0 0 0 0 0 0 0 0 0 0 0 0 0 127 0" result="hardAlpha"/>
<feOffset dx="-9.74608" dy="9.74608"/>
<feGaussianBlur stdDeviation="4.87304"/>
<feComposite in2="hardAlpha" operator="arithmetic" k2="-1" k3="1"/>
<feColorMatrix type="matrix" values="0 0 0 0 1 0 0 0 0 1 0 0 0 0 1 0 0 0 0.1 0"/>
<feBlend mode="normal" in2="shape" result="effect3_innerShadow_869_14588"/>
<feColorMatrix in="SourceAlpha" type="matrix" values="0 0 0 0 0 0 0 0 0 0 0 0 0 0 0 0 0 0 127 0" result="hardAlpha"/>
<feOffset dx="9.74608" dy="-9.74608"/>
<feGaussianBlur stdDeviation="4.87304"/>
<feComposite in2="hardAlpha" operator="arithmetic" k2="-1" k3="1"/>
<feColorMatrix type="matrix" values="0 0 0 0 0.670588 0 0 0 0 0.676549 0 0 0 0 0.691451 0 0 0 0.1 0"/>
<feBlend mode="normal" in2="effect3_innerShadow_869_14588" result="effect4_innerShadow_869_14588"/>
</filter>
<filter id="filter1_bdii_869_14588" x="395.867" y="147.867" width="94.2662" height="94.2662" filterUnits="userSpaceOnUse" color-interpolation-filters="sRGB">
<feFlood flood-opacity="0" result="BackgroundImageFix"/>
<feGaussianBlur in="BackgroundImageFix" stdDeviation="13.5665"/>
<feComposite in2="SourceAlpha" operator="in" result="effect1_backgroundBlur_869_14588"/>
<feColorMatrix in="SourceAlpha" type="matrix" values="0 0 0 0 0 0 0 0 0 0 0 0 0 0 0 0 0 0 127 0" result="hardAlpha"/>
<feOffset dy="4"/>
<feGaussianBlur stdDeviation="5"/>
<feComposite in2="hardAlpha" operator="out"/>
<feColorMatrix type="matrix" values="0 0 0 0 0 0 0 0 0 0 0 0 0 0 0 0 0 0 0.25 0"/>
<feBlend mode="normal" in2="effect1_backgroundBlur_869_14588" result="effect2_dropShadow_869_14588"/>
<feBlend mode="normal" in="SourceGraphic" in2="effect2_dropShadow_869_14588" result="shape"/>
<feColorMatrix in="SourceAlpha" type="matrix" values="0 0 0 0 0 0 0 0 0 0 0 0 0 0 0 0 0 0 127 0" result="hardAlpha"/>
<feOffset dx="-15.5937" dy="15.5937"/>
<feGaussianBlur stdDeviation="7.79687"/>
<feComposite in2="hardAlpha" operator="arithmetic" k2="-1" k3="1"/>
<feColorMatrix type="matrix" values="0 0 0 0 1 0 0 0 0 1 0 0 0 0 1 0 0 0 0.1 0"/>
<feBlend mode="normal" in2="shape" result="effect3_innerShadow_869_14588"/>
<feColorMatrix in="SourceAlpha" type="matrix" values="0 0 0 0 0 0 0 0 0 0 0 0 0 0 0 0 0 0 127 0" result="hardAlpha"/>
<feOffset dx="15.5937" dy="-15.5937"/>
<feGaussianBlur stdDeviation="7.79687"/>
<feComposite in2="hardAlpha" operator="arithmetic" k2="-1" k3="1"/>
<feColorMatrix type="matrix" values="0 0 0 0 0.670588 0 0 0 0 0.676549 0 0 0 0 0.691451 0 0 0 0.1 0"/>
<feBlend mode="normal" in2="effect3_innerShadow_869_14588" result="effect4_innerShadow_869_14588"/>
</filter>
<filter id="filter2_d_869_14588" x="232.174" y="253.335" width="47.5201" height="51.94" filterUnits="userSpaceOnUse" color-interpolation-filters="sRGB">
<feFlood flood-opacity="0" result="BackgroundImageFix"/>
<feColorMatrix in="SourceAlpha" type="matrix" values="0 0 0 0 0 0 0 0 0 0 0 0 0 0 0 0 0 0 127 0" result="hardAlpha"/>
<feOffset dy="2.38589"/>
<feGaussianBlur stdDeviation="2.38589"/>
<feColorMatrix type="matrix" values="0 0 0 0 0 0 0 0 0 0 0 0 0 0 0 0 0 0 0.28 0"/>
<feBlend mode="normal" in2="BackgroundImageFix" result="effect1_dropShadow_869_14588"/>
<feBlend mode="normal" in="SourceGraphic" in2="effect1_dropShadow_869_14588" result="shape"/>
</filter>
<clipPath id="clip0_869_14588">
<rect width="544" height="294" fill="white"/>
</clipPath>
</defs>
</svg>
