<?xml version="1.0" encoding="UTF-8"?><svg id="Layer_1" xmlns="http://www.w3.org/2000/svg" viewBox="0 0 626.06 305.92"><defs><style>.cls-1{fill:#00143f;stroke:#231f20;stroke-miterlimit:10;stroke-width:.22px;}.cls-1,.cls-2,.cls-3,.cls-4{fill-rule:evenodd;}.cls-2{fill:#f58220;}.cls-3{fill:#b5282f;}.cls-4{fill:#00427a;}</style></defs><g><path class="cls-3" d="M92.75,292.6c50.83-32.11,25.63-101.3-71.57-139.39-37.94,71.14,25.99,58.25,71.57,139.39Z"/><path class="cls-1" d="M66.69,176.54c20.74,11.02,37.8,27.72,49.46,47.59,28.15-23.18,24.05-42.19,6.12-60.41-11.23,18.5-33.7,15.19-55.58,12.82Z"/><path class="cls-2" d="M98.58,294.62c54.22-34.2,25.56-102.02-78.12-142.56-40.46,75.82,29.52,56.02,78.12,142.56Z"/><path class="cls-4" d="M44.01,11.3c37.94,56.95,97.92,63.86,121.82,110.88,16.42,32.11,3.38,77.11-47.81,100.08C203.56,141.69-65.65,121.89,44.01,11.3Z"/></g><path class="cls-4" d="M520.86,186.62v-4.46l.14,.07c2.38,1.22,5.04,1.8,8.14,1.8,1.08,0,2.16-.07,3.31-.22,1.22-.07,2.59-.43,4.1-.94,.07-.07,.29-.14,.5-.14,.36,0,.65,.14,.79,.5v.36c0,.43-.22,.72-.72,1.01-3.89,1.51-7.99,2.23-12.17,2.23-1.44,0-2.74-.07-4.1-.22h0Zm0-27.5v-2.38h3.38c2.09,0,3.6-.22,4.54-.72,.94-.43,1.37-1.37,1.37-2.74,0-1.15-.22-2.3-.65-3.46-.5-1.15-1.08-2.16-1.87-3.02s-1.73-1.58-2.81-2.09c-1.01-.58-2.23-.86-3.46-.86h-.5v-1.8h.79c2.52,0,4.75,.36,6.77,1.08s3.74,1.66,5.18,2.81c1.37,1.15,2.45,2.45,3.24,3.89,.72,1.51,1.15,2.95,1.15,4.39s-.58,2.59-1.58,3.53c-1.08,.94-2.52,1.37-4.32,1.37h-11.23Zm0-17.06v1.8c-2.66,.14-4.75,1.22-6.34,3.24-1.66,2.16-2.59,5.4-2.88,9.65h9.22v2.38h-4.61c-1.73,0-3.02,.43-3.74,1.22-.79,.79-1.15,2.02-1.15,3.82,0,1.94,.36,4.1,1.01,6.48,.72,2.3,1.58,4.25,2.59,5.83,1.73,2.59,3.67,4.46,5.9,5.69v4.46c-5.11-.65-9.29-2.66-12.46-5.9-3.96-4.1-5.98-9.79-5.98-17.14,0-14.11,6.19-21.24,18.43-21.53h0Zm-122.47,43.92v-2.88c1.22-.29,2.52-.86,3.74-1.73,1.8-1.15,3.17-2.88,4.18-5.04v-11.38c-3.1,.07-5.76,.5-7.92,1.08v-2.3c2.38-.29,5.04-.5,7.92-.58v-6.05c0-4.46-.43-7.78-1.37-10.01s-2.74-3.31-5.26-3.31c-.43,0-.86,.07-1.3,.14v-1.94h1.22c5.33,0,9.14,1.22,11.38,3.67,2.3,2.52,3.46,6.55,3.46,12.1v22.54h-4.68c-1.01,0-2.16,.22-3.46,.58-1.22,.43-2.38,1.08-3.46,1.87-.43,.36-1.01,.79-1.51,1.3-.58,.5-1.15,.94-1.87,1.37-.36,.22-.72,.36-1.08,.58h0Zm59.26-29.3c-1.73-.07-2.95-.65-3.67-1.73-.79-1.08-1.15-2.81-1.15-5.18,0-.72-.14-1.44-.5-2.16s-.79-1.37-1.37-1.94c-.58-.5-1.22-.94-2.02-1.3-.72-.43-1.51-.58-2.3-.58-2.74,0-4.82,1.44-6.34,4.39s-2.3,7.34-2.3,13.1c0,7.49,1.66,13.18,4.9,17.06,3.31,3.89,7.85,5.83,13.75,5.83,1.3,0,2.38-.07,3.24-.36s1.58-.43,2.09-.43c.29,0,.5,.22,.65,.65q0,.07,.07,.14v.14c0,.72-.94,1.3-2.95,1.8-1.94,.5-4.82,.72-8.64,.72-3.31,0-6.34-.5-9-1.66-2.66-1.08-4.97-2.59-6.84-4.68-1.87-2.02-3.31-4.46-4.32-7.42-.94-2.95-1.44-6.26-1.44-9.94,0-6.77,1.58-11.95,4.75-15.62,3.17-3.74,7.56-5.54,13.18-5.54,1.94,0,3.82,.22,5.54,.72s3.24,1.15,4.61,2.02,2.52,1.94,3.46,3.1c.86,1.15,1.51,2.45,1.8,3.74l-5.18,5.11h0Zm26.57,29.16c-2.3,0-3.89-.72-4.82-2.23s-1.44-3.96-1.44-7.27v-42.48c0-1.8-.07-3.31-.22-4.54s-.5-2.16-.94-2.95c-.5-.79-1.22-1.37-2.23-1.73-.94-.29-2.3-.5-3.96-.5v-1.37h15.55v53.64c0,3.17,.43,5.33,1.37,6.62s2.81,1.94,5.54,1.94h.36v.86h-9.22Zm-268.78-32.11c2.95-.43,5.33-1.37,6.91-2.81,2.38-2.09,3.53-5.54,3.53-10.37,0-8.06-3.46-12.82-10.44-14.18v-3.6h0c5.83,0,10.37,1.51,13.54,4.54,3.24,3.02,4.82,7.13,4.82,12.46,0,5.62-1.44,9.86-4.46,12.82-2.95,3.02-7.2,4.46-12.67,4.46h-1.22v-3.31h0Zm182.95-11.74v1.94c-1.08,.29-2.09,.86-3.02,1.73-1.22,1.3-1.87,2.95-1.87,5.04v.36c0,3.31-1.51,5.11-4.54,5.33l-5.33-5.04c.36-2.74,1.94-4.97,4.82-6.77,2.66-1.58,5.9-2.45,9.94-2.59h0Zm0,21.74v2.3c-5.33,1.58-7.99,4.61-7.99,9.22,0,2.45,.65,4.39,1.87,5.83s2.74,2.16,4.61,2.16c.5,0,1.01-.07,1.51-.14v2.88c-.43,.14-.86,.29-1.37,.43-.94,.29-2.09,.43-3.38,.43-1.8,0-3.38-.29-4.9-.79-1.51-.58-2.74-1.3-3.89-2.23-1.08-.86-1.87-1.94-2.52-3.17-.58-1.22-.86-2.45-.86-3.82,0-7.13,5.62-11.52,16.92-13.1h0Zm-143.42,22.1c-4.18,0-6.19-2.23-6.19-6.77v-24.91c0-3.6-.43-6.12-1.37-7.63s-2.74-2.3-5.54-2.3h-.58v-1.22h15.62v33.34c0,3.17,.5,5.47,1.44,6.77s2.81,1.94,5.47,1.94h.29v.79h-9.14Zm2.88-58.1c0,1.37-.5,2.52-1.44,3.46-1.01,.94-2.16,1.44-3.53,1.44-1.44,0-2.59-.5-3.6-1.44-.94-.94-1.44-2.09-1.44-3.46,0-1.44,.5-2.59,1.44-3.6,1.01-.94,2.16-1.44,3.6-1.44s2.52,.5,3.53,1.44c.94,1.01,1.44,2.16,1.44,3.6h0Zm61.2,58.1h-8.71c-4.1,0-6.19-2.38-6.19-7.06v-16.7c0-2.66-.07-4.9-.29-6.77-.14-1.94-.5-3.53-.94-4.75-.5-1.22-1.15-2.16-2.02-2.74s-2.02-.86-3.38-.86c-2.09,0-4.18,1.22-6.26,3.53-1.94,2.16-3.38,4.39-4.39,6.77-.94,2.45-1.44,4.46-1.44,6.19v22.39h-8.06v-31.68c-.22-3.17-.94-5.54-2.02-7.13s-2.74-2.52-5.04-2.81v-1.22h15.05v11.3h1.01c2.09-4.18,4.46-7.27,6.91-9.29,2.52-2.02,5.47-3.02,8.86-3.02s6.05,1.01,7.63,3.02c1.66,2.02,2.52,5.18,2.52,9.43v22.39c0,2.95,.43,5.11,1.3,6.26,.94,1.22,2.66,1.87,5.33,1.87h.22l-.07,.86h0Zm54.72,0h-8.71c-4.18,0-6.19-2.38-6.19-7.06v-16.7c0-2.66-.14-4.9-.29-6.77-.22-1.94-.5-3.53-1.01-4.75s-1.15-2.16-2.02-2.74c-.79-.58-1.94-.86-3.31-.86-2.16,0-4.25,1.22-6.26,3.53-1.94,2.16-3.46,4.39-4.39,6.77-1.01,2.45-1.44,4.46-1.44,6.19v22.39h-8.06v-31.68c-.22-3.17-.86-5.54-1.94-7.13s-2.81-2.52-5.11-2.81v-1.22h15.05v11.3h.94c2.16-4.18,4.46-7.27,6.98-9.29s5.47-3.02,8.86-3.02,5.98,1.01,7.63,3.02,2.45,5.18,2.45,9.43v22.39c0,2.95,.43,5.11,1.37,6.26,.94,1.22,2.66,1.87,5.26,1.87h.29l-.07,.86Zm-168.84-38.23c0,2.45,.36,4.18,1.15,5.11,.72,.86,2.38,1.37,4.82,1.37,1.66,0,3.17-.14,4.54-.36v3.31h-1.58c-1.51,0-2.81,.07-3.89,.14-1.15,.07-2.09,.36-2.81,.79-.79,.5-1.37,1.15-1.73,2.02s-.5,2.09-.5,3.67v22.1h-2.81c-1.51,0-2.81-.5-3.96-1.51-1.08-1.01-1.8-2.38-2.16-4.1v-45.07c0-2.09-.07-3.82-.22-5.18s-.5-2.52-1.08-3.38c-.5-.86-1.3-1.44-2.38-1.87-1.08-.36-2.52-.58-4.39-.58h-.72v-1.3h28.22v3.6c-1.51-.36-3.17-.5-4.97-.5h-5.54v21.74Z"/><path class="cls-2" d="M532.89,220.6v-3.31c.29,0,.58-.07,.79-.14,.43-.14,.72-.29,1.01-.58,.29-.22,.5-.5,.65-.79,.14-.36,.14-.72,.14-1.15,0-.65-.14-1.15-.36-1.58-.29-.43-.79-.72-1.44-.86-.14-.07-.36-.07-.65-.14h-.14v-2.95h.79c.36,.07,.65,.07,.94,.07,.72,.14,1.37,.29,2.02,.58,.58,.29,1.08,.58,1.51,1.01s.79,.94,1.01,1.51,.29,1.22,.29,2.02c0,.58-.07,1.15-.22,1.73-.14,.5-.36,.94-.72,1.37-.29,.43-.65,.79-1.15,1.08-.43,.29-.94,.5-1.51,.72,.29,.14,.5,.29,.79,.5,.22,.14,.43,.43,.65,.72,.22,.22,.43,.58,.65,.94s.36,.72,.58,1.15l1.58,3.74c.14,.36,.22,.65,.29,.79s.07,.29,.07,.43c0,.07,0,.14-.07,.22,0,.07-.14,.14-.29,.22s-.36,.07-.65,.07c-.22,.07-.65,.07-1.15,.07-.36,0-.72,0-.94-.07-.22,0-.43,0-.58-.07s-.22-.14-.29-.22-.14-.14-.14-.29l-1.73-4.25c-.14-.43-.36-.86-.58-1.22s-.43-.72-.65-.94c-.14-.14-.29-.29-.5-.36h0Zm27.94,6.77c0,.14-.07,.22-.14,.29s-.14,.14-.29,.22c-.14,0-.36,.07-.58,.07-.29,.07-.58,.07-.94,.07s-.72,0-.94-.07c-.22,0-.43-.07-.58-.07-.14-.07-.29-.14-.36-.22,0-.07-.07-.14-.07-.29v-17.78c0-.07,.07-.14,.07-.22,.07-.14,.22-.14,.36-.22s.36-.07,.58-.14h1.87c.22,.07,.43,.07,.58,.14s.22,.07,.29,.22c.07,.07,.14,.14,.14,.22v17.78h0Zm28.94-.94c0,.29,0,.5-.07,.72,0,.14-.07,.29-.07,.43-.07,.14-.14,.22-.22,.22-.07,.07-.14,.14-.22,.14h-9.43c-.36,0-.65-.14-.86-.29-.22-.22-.29-.5-.29-.94v-16.42c0-.43,.07-.79,.29-.94,.22-.22,.5-.29,.86-.29h9.36c.07,0,.14,0,.22,.07l.22,.22c0,.14,.07,.29,.07,.5,.07,.22,.07,.43,.07,.72s0,.5-.07,.72c0,.14-.07,.29-.07,.43-.07,.14-.14,.22-.22,.22-.07,.07-.14,.14-.22,.14h-6.7v4.54h5.69c.07,0,.14,.07,.22,.14,.07,0,.14,.07,.22,.22,0,.14,.07,.29,.07,.43,0,.22,.07,.43,.07,.72s-.07,.5-.07,.72c0,.14-.07,.29-.07,.43l-.22,.22c-.07,.07-.14,.07-.22,.07h-5.69v5.33h6.77c.07,0,.14,0,.22,.07s.14,.14,.22,.29c0,.07,.07,.22,.07,.43,.07,.22,.07,.43,.07,.72h0Zm27.94-4.18c0,1.01-.22,1.87-.58,2.59-.36,.79-.86,1.37-1.51,1.87-.58,.5-1.37,.86-2.16,1.15-.86,.22-1.8,.36-2.74,.36-.65,0-1.22-.07-1.8-.14s-1.08-.22-1.51-.36-.79-.36-1.08-.5-.43-.29-.58-.43-.22-.29-.29-.58c-.07-.22-.07-.58-.07-1.01v-.72c.07-.22,.07-.43,.14-.5,0-.14,.07-.22,.14-.29s.14-.07,.29-.07,.29,.07,.58,.22c.22,.14,.5,.36,.94,.58,.36,.14,.86,.36,1.37,.5,.58,.14,1.15,.22,1.87,.22,.5,0,.94,0,1.3-.14s.65-.29,.94-.5c.22-.14,.43-.43,.58-.72s.22-.65,.22-1.01c0-.43-.14-.79-.36-1.08-.22-.36-.58-.58-.94-.86-.36-.22-.79-.43-1.22-.65l-1.51-.65c-.5-.22-1.01-.5-1.44-.79-.5-.29-.94-.65-1.3-1.08s-.65-.86-.94-1.44c-.22-.58-.36-1.22-.36-2.02,0-.94,.22-1.73,.5-2.38,.36-.72,.79-1.3,1.37-1.73s1.22-.79,2.02-1.01,1.58-.36,2.45-.36c.43,0,.94,.07,1.37,.14s.86,.14,1.22,.29c.43,.07,.72,.22,1.08,.36,.29,.14,.5,.29,.58,.36l.22,.22c0,.07,0,.22,.07,.29,0,.14,0,.29,.07,.43v.65c0,.29,0,.5-.07,.72,0,.14,0,.36-.07,.43,0,.14-.07,.22-.14,.29s-.14,.07-.22,.07c-.14,0-.29,0-.5-.14-.29-.14-.5-.29-.86-.43-.36-.22-.72-.36-1.22-.5-.43-.07-.94-.14-1.44-.14-.43,0-.79,0-1.08,.14-.29,.07-.58,.22-.79,.43-.22,.14-.36,.36-.43,.65-.14,.22-.22,.5-.22,.79,0,.43,.14,.79,.36,1.08s.58,.58,.94,.79c.36,.29,.79,.5,1.3,.65,.5,.22,1.01,.43,1.51,.72,.5,.22,1.01,.5,1.44,.79,.5,.29,.94,.65,1.3,1.01,.43,.43,.72,.94,.94,1.51,.22,.5,.36,1.22,.36,1.94Zm-84.82-13.18v2.95h-2.59v5.33h1.94c.22,0,.43,0,.65-.07v3.31c-.07-.07-.22-.14-.29-.22-.36-.14-.72-.14-1.08-.14h-1.22v7.13c0,.14,0,.22-.07,.29s-.22,.14-.36,.22c-.14,0-.29,.07-.58,.07-.22,.07-.5,.07-.94,.07-.36,0-.65,0-.86-.07-.29,0-.5-.07-.65-.07-.14-.07-.22-.14-.29-.22s-.07-.14-.07-.29v-17.06c0-.43,.07-.79,.29-.94,.22-.22,.5-.29,.86-.29h5.26Zm-120.24,18.72v-3.1c.22-.07,.5-.14,.72-.22,.72-.29,1.3-.72,1.8-1.22,.43-.58,.79-1.22,1.08-2.09,.22-.79,.36-1.73,.36-2.81,0-.94-.14-1.73-.36-2.52s-.5-1.44-1.01-2.02c-.43-.5-1.01-1.01-1.73-1.3-.29-.07-.58-.22-.86-.29v-3.1c.94,.07,1.73,.29,2.45,.5,1.22,.43,2.16,1.01,3.02,1.73,.79,.79,1.37,1.73,1.8,2.88s.65,2.45,.65,3.96c0,1.73-.29,3.17-.72,4.39-.43,1.3-1.08,2.23-1.94,3.02s-1.87,1.37-3.02,1.73c-.72,.22-1.44,.36-2.23,.43h0Zm40.1-6.91c0,1.15-.14,2.16-.5,3.1s-.86,1.73-1.51,2.3c-.65,.65-1.44,1.15-2.45,1.44-.94,.36-2.09,.5-3.31,.5s-2.3-.14-3.24-.43-1.73-.72-2.38-1.37c-.65-.58-1.15-1.3-1.51-2.23-.29-.86-.5-1.94-.5-3.17v-11.45c0-.07,.07-.14,.07-.22,.07-.14,.22-.14,.36-.22s.36-.07,.58-.14h1.87c.22,.07,.43,.07,.58,.14s.22,.07,.29,.22c.07,.07,.07,.14,.07,.22v11.16c0,.72,.14,1.37,.29,1.94,.22,.5,.43,1.01,.79,1.37s.79,.58,1.22,.79c.5,.14,1.08,.29,1.66,.29s1.15-.14,1.58-.29c.5-.22,.86-.5,1.22-.86,.36-.29,.58-.79,.79-1.3,.14-.5,.22-1.08,.22-1.73v-11.38c0-.07,.07-.14,.14-.22,0-.14,.14-.14,.29-.22s.36-.07,.58-.14h1.87c.22,.07,.36,.07,.5,.14,.22,.07,.29,.07,.36,.22,.07,.07,.07,.14,.07,.22v11.3h0Zm28.94,1.37c0,1.01-.22,1.87-.58,2.59-.36,.79-.86,1.37-1.51,1.87-.58,.5-1.37,.86-2.16,1.15-.86,.22-1.8,.36-2.74,.36-.65,0-1.22-.07-1.8-.14s-1.08-.22-1.51-.36c-.36-.14-.72-.36-1.01-.5s-.5-.29-.65-.43-.22-.29-.29-.58c0-.22-.07-.58-.07-1.01,0-.29,0-.58,.07-.72,0-.22,0-.43,.07-.5,0-.14,.07-.22,.14-.29s.14-.07,.29-.07,.29,.07,.58,.22c.22,.14,.58,.36,.94,.58,.36,.14,.86,.36,1.37,.5,.58,.14,1.15,.22,1.87,.22,.5,0,.94,0,1.3-.14s.65-.29,.94-.5c.22-.14,.43-.43,.58-.72s.22-.65,.22-1.01c0-.43-.14-.79-.36-1.08-.22-.36-.58-.58-.94-.86-.36-.22-.79-.43-1.22-.65l-1.51-.65c-.5-.22-1.01-.5-1.44-.79-.5-.29-.94-.65-1.3-1.08s-.65-.86-.94-1.44c-.22-.58-.29-1.22-.29-2.02,0-.94,.14-1.73,.5-2.38,.29-.72,.72-1.3,1.3-1.73s1.3-.79,2.02-1.01c.79-.22,1.58-.36,2.45-.36,.5,0,.94,.07,1.37,.14s.86,.14,1.22,.29c.43,.07,.72,.22,1.08,.36,.29,.14,.5,.29,.58,.36l.22,.22c0,.07,.07,.22,.07,.29,0,.14,.07,.29,.07,.43v1.37c-.07,.14-.07,.36-.14,.43,0,.14-.07,.22-.14,.29,0,.07-.14,.07-.22,.07-.14,0-.29,0-.5-.14s-.5-.29-.86-.43c-.36-.22-.72-.36-1.15-.5-.5-.07-.94-.14-1.51-.14-.43,0-.79,0-1.08,.14-.29,.07-.58,.22-.79,.43-.22,.14-.36,.36-.43,.65-.14,.22-.14,.5-.14,.79,0,.43,.07,.79,.29,1.08s.58,.58,.94,.79c.36,.29,.79,.5,1.3,.65,.5,.22,1.01,.43,1.51,.72,.5,.22,1.01,.5,1.44,.79,.5,.29,.94,.65,1.3,1.01,.43,.43,.72,.94,.94,1.51,.22,.5,.36,1.22,.36,1.94h0Zm28.87-11.59c0,.29,0,.5-.07,.72,0,.14-.07,.36-.07,.43-.07,.14-.14,.22-.22,.29s-.14,.07-.22,.07h-4.75v15.19c0,.14,0,.22-.07,.29s-.14,.14-.29,.22c-.14,0-.36,.07-.58,.07-.29,.07-.58,.07-.94,.07s-.72,0-.94-.07c-.29,0-.43-.07-.58-.07-.14-.07-.29-.14-.36-.22s-.07-.14-.07-.29v-15.19h-4.75c-.07,0-.14,0-.22-.07s-.14-.14-.14-.29c-.07-.07-.14-.29-.14-.43v-1.51c0-.14,.07-.36,.14-.43,0-.14,.07-.22,.14-.29s.14-.07,.22-.07h13.32c.07,0,.14,0,.22,.07s.14,.14,.22,.29c0,.07,.07,.29,.07,.43,.07,.22,.07,.5,.07,.79Zm-156.82,16.7c0,.14,0,.22-.07,.29s-.14,.14-.36,.22c-.14,0-.29,.07-.58,.07-.22,.07-.5,.07-.86,.07-.43,0-.72,0-.94-.07-.29,0-.5-.07-.65-.07-.14-.07-.22-.14-.29-.22s-.07-.14-.07-.29v-17.78c0-.07,0-.14,.07-.22,.07-.14,.14-.14,.36-.22,.14-.07,.29-.07,.58-.14h1.8c.29,.07,.43,.07,.58,.14,.22,.07,.29,.07,.36,.22,.07,.07,.07,.14,.07,.22v17.78h0Zm58.9-18.22v3.1c-.58-.14-1.22-.14-2.02-.14h-1.94v12.82h2.02c.72,0,1.37-.07,1.94-.22v3.1c-.65,.07-1.37,.14-2.09,.14h-4.54c-.29,0-.58-.14-.79-.29-.22-.22-.36-.5-.36-.94v-16.42c0-.43,.14-.79,.36-.94,.22-.22,.5-.29,.79-.29h4.82c.65,0,1.22,0,1.8,.07h0Zm-25.56,17.42c0,.22,0,.43-.07,.58-.14,.22-.22,.36-.36,.43-.14,.14-.29,.22-.43,.29-.22,.07-.36,.07-.58,.07h-1.66c-.29,0-.58-.07-.86-.07-.22-.07-.43-.22-.65-.43-.22-.14-.43-.36-.65-.72-.14-.29-.36-.65-.65-1.15l-4.68-8.86c-.29-.5-.58-1.08-.79-1.66-.29-.58-.58-1.22-.79-1.8h0c0,.72,.07,1.44,.07,2.09v12.02c0,.07,0,.22-.07,.29s-.14,.14-.29,.14c-.14,.07-.29,.14-.5,.14-.22,.07-.5,.07-.86,.07s-.65,0-.86-.07c-.22,0-.36-.07-.5-.14-.14,0-.22-.07-.29-.14,0-.07-.07-.22-.07-.29v-16.92c0-.43,.14-.79,.43-1.01,.29-.29,.58-.36,1.01-.36h2.02c.36,0,.65,0,.94,.07s.5,.22,.65,.36c.22,.14,.43,.29,.58,.58,.22,.29,.36,.58,.58,.94l3.67,6.91c.22,.43,.43,.79,.58,1.22,.22,.43,.43,.79,.65,1.22,.22,.36,.36,.79,.58,1.15,.14,.43,.36,.79,.5,1.15h0c0-.65,0-1.37-.07-2.09v-10.94c0-.14,.07-.22,.07-.29,.07-.07,.22-.14,.29-.22,.14,0,.36-.07,.58-.07,.22-.07,.5-.07,.86-.07,.29,0,.58,0,.79,.07,.22,0,.43,.07,.58,.07l.22,.22c.07,.07,.07,.14,.07,.29v16.92Z"/></svg>