<svg width="388" height="241" viewBox="0 0 388 241" fill="none" xmlns="http://www.w3.org/2000/svg">
<g clip-path="url(#clip0_870_19475)">
<rect x="68.5781" y="40.2773" width="250.35" height="160.736" rx="8.53465" fill="white"/>
<ellipse cx="83.5134" cy="52.0126" rx="4.26733" ry="4.62294" fill="#DF434C"/>
<circle cx="95.244" cy="52.0126" r="4.62294" fill="#E7B44C"/>
<circle cx="106.627" cy="52.0126" r="4.62294" fill="#6BD280"/>
<rect x="118.359" y="47.3896" width="188.474" height="9.24588" rx="4.62294" fill="#E1E3E8"/>
<g filter="url(#filter0_d_870_19475)">
<rect x="3.85938" y="82.2393" width="373.391" height="27.0264" rx="13.5132" fill="white"/>
</g>
<path d="M21.8957 90.2551H20.4363V100.795H21.8957V90.2551ZM24.4362 97.0117V100.795H25.9092V96.809C25.9092 96.2775 25.8281 95.8361 25.6659 95.4847C25.5038 95.1244 25.2605 94.8541 24.9362 94.6739C24.6209 94.4938 24.2335 94.4037 23.7741 94.4037C23.3056 94.4037 22.9047 94.5208 22.5714 94.755C22.2471 94.9892 21.9948 95.3 21.8147 95.6874C21.6345 96.0748 21.5444 96.5162 21.5444 97.0117H21.8957C21.8957 96.7324 21.9543 96.4892 22.0714 96.282C22.1885 96.0748 22.3507 95.9126 22.5579 95.7955C22.7651 95.6784 23.0038 95.6199 23.2741 95.6199C23.6795 95.6199 23.9723 95.737 24.1524 95.9712C24.3416 96.2054 24.4362 96.5523 24.4362 97.0117ZM27.3009 94.5793V95.8631H30.8279V94.5793H27.3009ZM28.3414 92.4172V100.795H29.7873V92.4172H28.3414ZM31.3749 94.5793V95.8631H34.9019V94.5793H31.3749ZM32.4155 92.4172V100.795H33.8614V92.4172H32.4155ZM37.7327 103.768V94.5793H36.2597V103.768H37.7327ZM42.8812 97.6874C42.8812 96.9937 42.7416 96.4036 42.4623 95.9171C42.183 95.4307 41.8137 95.0613 41.3542 94.8091C40.8948 94.5478 40.3948 94.4172 39.8543 94.4172C39.3227 94.4172 38.8588 94.5523 38.4624 94.8226C38.075 95.0838 37.7732 95.4577 37.557 95.9442C37.3498 96.4306 37.2462 97.0117 37.2462 97.6874C37.2462 98.354 37.3498 98.9351 37.557 99.4306C37.7732 99.9171 38.075 100.295 38.4624 100.566C38.8588 100.827 39.3227 100.958 39.8543 100.958C40.3948 100.958 40.8948 100.831 41.3542 100.579C41.8137 100.318 42.183 99.9441 42.4623 99.4576C42.7416 98.9621 42.8812 98.372 42.8812 97.6874ZM41.3677 97.6874C41.3677 98.1018 41.2822 98.4576 41.111 98.7549C40.9398 99.0432 40.7101 99.2639 40.4218 99.4171C40.1425 99.5612 39.8317 99.6333 39.4894 99.6333C39.2101 99.6333 38.9354 99.5612 38.6651 99.4171C38.3948 99.2639 38.1696 99.0432 37.9894 98.7549C37.8183 98.4666 37.7327 98.1108 37.7327 97.6874C37.7327 97.264 37.8183 96.9081 37.9894 96.6198C38.1696 96.3315 38.3948 96.1153 38.6651 95.9712C38.9354 95.818 39.2101 95.7415 39.4894 95.7415C39.8317 95.7415 40.1425 95.818 40.4218 95.9712C40.7101 96.1153 40.9398 96.3361 41.111 96.6333C41.2822 96.9216 41.3677 97.273 41.3677 97.6874ZM44.9605 98.7549L44.1091 99.6062C44.2893 99.8405 44.51 100.066 44.7713 100.282C45.0415 100.489 45.3523 100.66 45.7037 100.795C46.064 100.922 46.4559 100.985 46.8793 100.985C47.564 100.985 48.1045 100.809 48.5009 100.458C48.9063 100.097 49.109 99.6243 49.109 99.0387C49.109 98.6603 49.0189 98.354 48.8387 98.1198C48.6676 97.8856 48.4379 97.6874 48.1496 97.5252C47.8613 97.3631 47.546 97.2144 47.2036 97.0793C46.9514 96.9802 46.7217 96.8856 46.5145 96.7955C46.3163 96.7054 46.1541 96.6063 46.028 96.4982C45.9109 96.3811 45.8523 96.2505 45.8523 96.1063C45.8523 95.9352 45.9199 95.8045 46.055 95.7144C46.1902 95.6244 46.3613 95.5793 46.5685 95.5793C46.8748 95.5793 47.1721 95.6559 47.4604 95.809C47.7487 95.9622 47.9964 96.1604 48.2036 96.4036L49.0144 95.5388C48.8433 95.3316 48.636 95.1469 48.3928 94.9847C48.1496 94.8226 47.8748 94.6919 47.5685 94.5929C47.2712 94.4938 46.9514 94.4442 46.6091 94.4442C46.2307 94.4442 45.8748 94.5073 45.5415 94.6334C45.2172 94.7505 44.956 94.9352 44.7578 95.1874C44.5686 95.4397 44.474 95.755 44.474 96.1334C44.474 96.5027 44.5596 96.809 44.7307 97.0523C44.9109 97.2955 45.1361 97.4937 45.4064 97.6468C45.6857 97.791 45.9649 97.9171 46.2442 98.0252C46.5235 98.1243 46.7667 98.2234 46.9739 98.3225C47.1811 98.4126 47.3433 98.5252 47.4604 98.6603C47.5775 98.7864 47.6361 98.9396 47.6361 99.1198C47.6361 99.327 47.5595 99.4891 47.4063 99.6062C47.2622 99.7234 47.0595 99.7819 46.7983 99.7819C46.591 99.7819 46.3838 99.7459 46.1766 99.6738C45.9694 99.5927 45.7622 99.4756 45.555 99.3225C45.3568 99.1603 45.1587 98.9711 44.9605 98.7549ZM51.012 100.106C51.012 100.358 51.1021 100.579 51.2823 100.768C51.4715 100.958 51.6967 101.052 51.958 101.052C52.2372 101.052 52.467 100.958 52.6471 100.768C52.8273 100.579 52.9174 100.358 52.9174 100.106C52.9174 99.845 52.8273 99.6243 52.6471 99.4441C52.467 99.2549 52.2372 99.1603 51.958 99.1603C51.6967 99.1603 51.4715 99.2549 51.2823 99.4441C51.1021 99.6243 51.012 99.845 51.012 100.106ZM51.012 94.9982C51.012 95.2595 51.1021 95.4847 51.2823 95.6739C51.4715 95.8541 51.6967 95.9442 51.958 95.9442C52.2372 95.9442 52.467 95.8541 52.6471 95.6739C52.8273 95.4847 52.9174 95.2595 52.9174 94.9982C52.9174 94.737 52.8273 94.5163 52.6471 94.3361C52.467 94.1469 52.2372 94.0523 51.958 94.0523C51.6967 94.0523 51.4715 94.1469 51.2823 94.3361C51.1021 94.5163 51.012 94.737 51.012 94.9982ZM60.2766 91.3362L54.6551 102.822H56.1281L61.709 91.3362H60.2766ZM66.792 91.3362L61.1705 102.822H62.6434L68.2244 91.3362H66.792ZM68.8292 94.5793L71.7345 101.241L73.5994 97.0387L75.5453 101.241L78.4506 94.5793H76.8696L75.4101 98.2955L73.5859 94.1064L71.8697 98.282L70.4102 94.5793H68.8292ZM79.2639 94.5793L82.1693 101.241L84.0341 97.0387L85.98 101.241L88.8853 94.5793H87.3043L85.8449 98.2955L84.0206 94.1064L82.3044 98.282L80.845 94.5793H79.2639ZM89.6987 94.5793L92.604 101.241L94.4688 97.0387L96.4147 101.241L99.3201 94.5793H97.739L96.2796 98.2955L94.4553 94.1064L92.7391 98.282L91.2797 94.5793H89.6987ZM100.054 100.106C100.054 100.358 100.145 100.579 100.325 100.768C100.514 100.958 100.739 101.052 101 101.052C101.28 101.052 101.509 100.958 101.69 100.768C101.87 100.579 101.96 100.358 101.96 100.106C101.96 99.845 101.87 99.6243 101.69 99.4441C101.509 99.2549 101.28 99.1603 101 99.1603C100.739 99.1603 100.514 99.2549 100.325 99.4441C100.145 99.6243 100.054 99.845 100.054 100.106ZM109.927 94.5793H108.36L106.414 99.4576L107.103 99.4981L105.116 94.5793H103.441L105.941 100.066L104.319 103.768H105.873L109.927 94.5793ZM110.536 97.6874C110.536 98.318 110.68 98.881 110.968 99.3765C111.265 99.863 111.666 100.246 112.171 100.525C112.675 100.795 113.247 100.931 113.887 100.931C114.526 100.931 115.094 100.795 115.59 100.525C116.094 100.246 116.495 99.863 116.792 99.3765C117.089 98.881 117.238 98.318 117.238 97.6874C117.238 97.0477 117.089 96.4847 116.792 95.9982C116.495 95.5117 116.094 95.1334 115.59 94.8631C115.094 94.5838 114.526 94.4442 113.887 94.4442C113.247 94.4442 112.675 94.5838 112.171 94.8631C111.666 95.1334 111.265 95.5117 110.968 95.9982C110.68 96.4847 110.536 97.0477 110.536 97.6874ZM112.036 97.6874C112.036 97.3 112.117 96.9577 112.279 96.6604C112.441 96.3631 112.662 96.1334 112.941 95.9712C113.22 95.809 113.536 95.728 113.887 95.728C114.229 95.728 114.54 95.809 114.819 95.9712C115.108 96.1334 115.333 96.3631 115.495 96.6604C115.657 96.9577 115.738 97.3 115.738 97.6874C115.738 98.0748 115.657 98.4171 115.495 98.7144C115.333 99.0027 115.108 99.2324 114.819 99.4036C114.54 99.5657 114.229 99.6468 113.887 99.6468C113.536 99.6468 113.22 99.5657 112.941 99.4036C112.662 99.2324 112.441 99.0027 112.279 98.7144C112.117 98.4171 112.036 98.0748 112.036 97.6874ZM120.528 98.363V94.5793H119.028V98.5252C119.028 99.2639 119.213 99.8495 119.582 100.282C119.961 100.714 120.497 100.931 121.19 100.931C121.623 100.931 121.992 100.84 122.299 100.66C122.614 100.471 122.871 100.196 123.069 99.836V100.795H124.528V94.5793H123.069V98.363C123.069 98.6423 123.01 98.89 122.893 99.1063C122.776 99.3135 122.614 99.4756 122.407 99.5927C122.199 99.7008 121.956 99.7549 121.677 99.7549C121.29 99.7549 121.001 99.6333 120.812 99.39C120.623 99.1468 120.528 98.8045 120.528 98.363ZM128.243 94.5793H126.797V100.795H128.243V94.5793ZM130.095 96.1334L130.797 94.9037C130.662 94.7325 130.495 94.6154 130.297 94.5523C130.099 94.4802 129.887 94.4442 129.662 94.4442C129.347 94.4442 129.041 94.5568 128.743 94.782C128.455 95.0073 128.216 95.3136 128.027 95.7009C127.847 96.0793 127.757 96.5162 127.757 97.0117L128.243 97.2955C128.243 96.9982 128.275 96.7414 128.338 96.5252C128.41 96.3 128.523 96.1243 128.676 95.9982C128.829 95.8721 129.027 95.809 129.27 95.809C129.45 95.809 129.599 95.8361 129.716 95.8901C129.833 95.9442 129.959 96.0252 130.095 96.1334ZM131.339 98.2414H134.11V96.9306H131.339V98.2414ZM136.932 90.2551H135.459V100.795H136.932V90.2551ZM142.08 97.6874C142.08 97.0027 141.941 96.4216 141.661 95.9442C141.382 95.4577 141.013 95.0883 140.553 94.8361C140.094 94.5748 139.594 94.4442 139.053 94.4442C138.54 94.4442 138.08 94.5748 137.675 94.8361C137.279 95.0973 136.968 95.4712 136.743 95.9577C136.517 96.4352 136.405 97.0117 136.405 97.6874C136.405 98.354 136.517 98.9306 136.743 99.4171C136.968 99.9035 137.279 100.277 137.675 100.539C138.08 100.8 138.54 100.931 139.053 100.931C139.594 100.931 140.094 100.804 140.553 100.552C141.013 100.291 141.382 99.9171 141.661 99.4306C141.941 98.9441 142.08 98.363 142.08 97.6874ZM140.567 97.6874C140.567 98.1018 140.481 98.4576 140.31 98.7549C140.139 99.0522 139.909 99.2774 139.621 99.4306C139.342 99.5837 139.031 99.6603 138.688 99.6603C138.409 99.6603 138.134 99.5837 137.864 99.4306C137.594 99.2774 137.369 99.0567 137.188 98.7684C137.017 98.4711 136.932 98.1108 136.932 97.6874C136.932 97.264 137.017 96.9081 137.188 96.6198C137.369 96.3225 137.594 96.0973 137.864 95.9442C138.134 95.791 138.409 95.7144 138.688 95.7144C139.031 95.7144 139.342 95.791 139.621 95.9442C139.909 96.0973 140.139 96.3225 140.31 96.6198C140.481 96.9171 140.567 97.273 140.567 97.6874ZM145.322 94.5793H143.876V100.795H145.322V94.5793ZM147.173 96.1334L147.876 94.9037C147.74 94.7325 147.574 94.6154 147.376 94.5523C147.177 94.4802 146.966 94.4442 146.741 94.4442C146.425 94.4442 146.119 94.5568 145.822 94.782C145.533 95.0073 145.295 95.3136 145.105 95.7009C144.925 96.0793 144.835 96.5162 144.835 97.0117L145.322 97.2955C145.322 96.9982 145.353 96.7414 145.416 96.5252C145.488 96.3 145.601 96.1243 145.754 95.9982C145.907 95.8721 146.105 95.809 146.349 95.809C146.529 95.809 146.677 95.8361 146.795 95.8901C146.912 95.9442 147.038 96.0252 147.173 96.1334ZM150.201 98.863C150.201 98.6648 150.247 98.4982 150.337 98.363C150.436 98.2279 150.58 98.1243 150.769 98.0522C150.958 97.9712 151.206 97.9306 151.512 97.9306C151.864 97.9306 152.197 97.9757 152.512 98.0657C152.828 98.1558 153.125 98.3 153.404 98.4982V97.7549C153.323 97.6558 153.183 97.5477 152.985 97.4306C152.787 97.3045 152.535 97.1964 152.228 97.1063C151.931 97.0162 151.575 96.9712 151.161 96.9712C150.386 96.9712 149.787 97.1513 149.364 97.5117C148.94 97.863 148.729 98.3405 148.729 98.9441C148.729 99.3675 148.828 99.7279 149.026 100.025C149.224 100.322 149.49 100.548 149.823 100.701C150.156 100.854 150.517 100.931 150.904 100.931C151.265 100.931 151.616 100.867 151.958 100.741C152.31 100.606 152.598 100.408 152.823 100.147C153.057 99.8765 153.174 99.5432 153.174 99.1468L152.958 98.336C152.958 98.6423 152.882 98.9126 152.728 99.1468C152.584 99.372 152.391 99.5432 152.147 99.6603C151.913 99.7774 151.652 99.836 151.364 99.836C151.138 99.836 150.936 99.7999 150.756 99.7279C150.584 99.6558 150.449 99.5477 150.35 99.4036C150.251 99.2504 150.201 99.0702 150.201 98.863ZM149.742 96.2009C149.832 96.1379 149.967 96.0613 150.147 95.9712C150.337 95.8721 150.557 95.791 150.81 95.728C151.071 95.6559 151.346 95.6199 151.634 95.6199C151.823 95.6199 151.999 95.6379 152.161 95.6739C152.323 95.7099 152.463 95.7685 152.58 95.8496C152.697 95.9307 152.787 96.0343 152.85 96.1604C152.922 96.2865 152.958 96.4487 152.958 96.6469V100.795H154.391V96.3631C154.391 95.9487 154.278 95.6018 154.053 95.3226C153.828 95.0343 153.517 94.8136 153.12 94.6604C152.733 94.5073 152.283 94.4307 151.769 94.4307C151.192 94.4307 150.679 94.5118 150.229 94.6739C149.787 94.8361 149.427 95.0028 149.147 95.1739L149.742 96.2009ZM160.497 97.0117V100.795H161.997V96.8496C161.997 96.1018 161.813 95.5163 161.443 95.0928C161.074 94.6604 160.538 94.4442 159.835 94.4442C159.403 94.4442 159.029 94.5343 158.714 94.7145C158.407 94.8946 158.155 95.1694 157.957 95.5388V94.5793H156.497V100.795H157.957V97.0117C157.957 96.7324 158.015 96.4892 158.132 96.282C158.25 96.0658 158.412 95.9036 158.619 95.7955C158.826 95.6784 159.065 95.6199 159.335 95.6199C159.732 95.6199 160.024 95.737 160.213 95.9712C160.403 96.2054 160.497 96.5523 160.497 97.0117ZM168.942 90.2551V100.795H170.415V90.2551H168.942ZM163.793 97.6874C163.793 98.363 163.933 98.9441 164.212 99.4306C164.492 99.9171 164.861 100.291 165.32 100.552C165.789 100.804 166.289 100.931 166.82 100.931C167.343 100.931 167.798 100.8 168.185 100.539C168.582 100.277 168.892 99.9035 169.118 99.4171C169.352 98.9306 169.469 98.354 169.469 97.6874C169.469 97.0117 169.352 96.4352 169.118 95.9577C168.892 95.4712 168.582 95.0973 168.185 94.8361C167.798 94.5748 167.343 94.4442 166.82 94.4442C166.289 94.4442 165.789 94.5748 165.32 94.8361C164.861 95.0883 164.492 95.4577 164.212 95.9442C163.933 96.4216 163.793 97.0027 163.793 97.6874ZM165.307 97.6874C165.307 97.273 165.392 96.9171 165.564 96.6198C165.735 96.3225 165.96 96.0973 166.239 95.9442C166.528 95.791 166.838 95.7144 167.172 95.7144C167.451 95.7144 167.726 95.791 167.996 95.9442C168.275 96.0973 168.501 96.3225 168.672 96.6198C168.852 96.9081 168.942 97.264 168.942 97.6874C168.942 98.1108 168.852 98.4711 168.672 98.7684C168.501 99.0567 168.275 99.2774 167.996 99.4306C167.726 99.5837 167.451 99.6603 167.172 99.6603C166.838 99.6603 166.528 99.5837 166.239 99.4306C165.96 99.2774 165.735 99.0522 165.564 98.7549C165.392 98.4576 165.307 98.1018 165.307 97.6874ZM172.832 100.106C172.832 100.358 172.922 100.579 173.102 100.768C173.291 100.958 173.517 101.052 173.778 101.052C174.057 101.052 174.287 100.958 174.467 100.768C174.647 100.579 174.737 100.358 174.737 100.106C174.737 99.845 174.647 99.6243 174.467 99.4441C174.287 99.2549 174.057 99.1603 173.778 99.1603C173.517 99.1603 173.291 99.2549 173.102 99.4441C172.922 99.6243 172.832 99.845 172.832 100.106ZM178.178 97.6874C178.178 97.3 178.263 96.9577 178.434 96.6604C178.606 96.3631 178.835 96.1289 179.124 95.9577C179.421 95.7865 179.75 95.7009 180.11 95.7009C180.398 95.7009 180.678 95.746 180.948 95.8361C181.218 95.9262 181.457 96.0523 181.664 96.2144C181.88 96.3676 182.038 96.5478 182.137 96.755V95.1469C181.921 94.9307 181.628 94.7595 181.259 94.6334C180.889 94.5073 180.484 94.4442 180.043 94.4442C179.403 94.4442 178.826 94.5838 178.313 94.8631C177.808 95.1334 177.407 95.5117 177.11 95.9982C176.822 96.4847 176.678 97.0477 176.678 97.6874C176.678 98.318 176.822 98.881 177.11 99.3765C177.407 99.863 177.808 100.246 178.313 100.525C178.826 100.795 179.403 100.931 180.043 100.931C180.484 100.931 180.889 100.867 181.259 100.741C181.628 100.615 181.921 100.444 182.137 100.228V98.6198C182.038 98.818 181.885 98.9982 181.678 99.1603C181.47 99.3225 181.232 99.4486 180.961 99.5387C180.691 99.6288 180.407 99.6738 180.11 99.6738C179.75 99.6738 179.421 99.5882 179.124 99.4171C178.835 99.2459 178.606 99.0162 178.434 98.7279C178.263 98.4306 178.178 98.0838 178.178 97.6874ZM183.683 97.6874C183.683 98.318 183.827 98.881 184.115 99.3765C184.412 99.863 184.813 100.246 185.318 100.525C185.822 100.795 186.394 100.931 187.034 100.931C187.674 100.931 188.241 100.795 188.737 100.525C189.241 100.246 189.642 99.863 189.939 99.3765C190.237 98.881 190.385 98.318 190.385 97.6874C190.385 97.0477 190.237 96.4847 189.939 95.9982C189.642 95.5117 189.241 95.1334 188.737 94.8631C188.241 94.5838 187.674 94.4442 187.034 94.4442C186.394 94.4442 185.822 94.5838 185.318 94.8631C184.813 95.1334 184.412 95.5117 184.115 95.9982C183.827 96.4847 183.683 97.0477 183.683 97.6874ZM185.183 97.6874C185.183 97.3 185.264 96.9577 185.426 96.6604C185.588 96.3631 185.809 96.1334 186.088 95.9712C186.367 95.809 186.683 95.728 187.034 95.728C187.376 95.728 187.687 95.809 187.966 95.9712C188.255 96.1334 188.48 96.3631 188.642 96.6604C188.804 96.9577 188.885 97.3 188.885 97.6874C188.885 98.0748 188.804 98.4171 188.642 98.7144C188.48 99.0027 188.255 99.2324 187.966 99.4036C187.687 99.5657 187.376 99.6468 187.034 99.6468C186.683 99.6468 186.367 99.5657 186.088 99.4036C185.809 99.2324 185.588 99.0027 185.426 98.7144C185.264 98.4171 185.183 98.0748 185.183 97.6874ZM201.067 96.8496C201.067 96.3361 200.995 95.8991 200.851 95.5388C200.707 95.1784 200.486 94.9082 200.189 94.728C199.9 94.5388 199.536 94.4442 199.094 94.4442C198.671 94.4442 198.292 94.5388 197.959 94.728C197.635 94.9172 197.364 95.1919 197.148 95.5523C197.013 95.1919 196.792 94.9172 196.486 94.728C196.189 94.5388 195.81 94.4442 195.351 94.4442C194.955 94.4442 194.608 94.5343 194.31 94.7145C194.022 94.8856 193.788 95.1424 193.608 95.4847V94.5793H192.175V100.795H193.608V97.0117C193.608 96.7144 193.657 96.4622 193.756 96.255C193.856 96.0478 193.995 95.8901 194.175 95.782C194.365 95.6739 194.585 95.6199 194.837 95.6199C195.198 95.6199 195.459 95.737 195.621 95.9712C195.792 96.1964 195.878 96.5433 195.878 97.0117V100.795H197.337V97.0117C197.337 96.7144 197.387 96.4622 197.486 96.255C197.594 96.0478 197.738 95.8901 197.919 95.782C198.108 95.6739 198.324 95.6199 198.567 95.6199C198.927 95.6199 199.189 95.737 199.351 95.9712C199.522 96.1964 199.608 96.5433 199.608 97.0117V100.795H201.067V96.8496ZM208.228 91.3362L202.606 102.822H204.079L209.66 91.3362H208.228ZM212.657 90.2551H211.197V100.795H212.657V90.2551ZM215.197 97.0117V100.795H216.67V96.809C216.67 96.2775 216.589 95.8361 216.427 95.4847C216.265 95.1244 216.022 94.8541 215.697 94.6739C215.382 94.4938 214.995 94.4037 214.535 94.4037C214.067 94.4037 213.666 94.5208 213.332 94.755C213.008 94.9892 212.756 95.3 212.576 95.6874C212.396 96.0748 212.305 96.5162 212.305 97.0117H212.657C212.657 96.7324 212.715 96.4892 212.832 96.282C212.95 96.0748 213.112 95.9126 213.319 95.7955C213.526 95.6784 213.765 95.6199 214.035 95.6199C214.441 95.6199 214.733 95.737 214.913 95.9712C215.103 96.2054 215.197 96.5523 215.197 97.0117ZM218.454 97.6874C218.454 98.318 218.598 98.881 218.886 99.3765C219.184 99.863 219.584 100.246 220.089 100.525C220.593 100.795 221.165 100.931 221.805 100.931C222.445 100.931 223.012 100.795 223.508 100.525C224.012 100.246 224.413 99.863 224.71 99.3765C225.008 98.881 225.156 98.318 225.156 97.6874C225.156 97.0477 225.008 96.4847 224.71 95.9982C224.413 95.5117 224.012 95.1334 223.508 94.8631C223.012 94.5838 222.445 94.4442 221.805 94.4442C221.165 94.4442 220.593 94.5838 220.089 94.8631C219.584 95.1334 219.184 95.5117 218.886 95.9982C218.598 96.4847 218.454 97.0477 218.454 97.6874ZM219.954 97.6874C219.954 97.3 220.035 96.9577 220.197 96.6604C220.359 96.3631 220.58 96.1334 220.859 95.9712C221.138 95.809 221.454 95.728 221.805 95.728C222.147 95.728 222.458 95.809 222.738 95.9712C223.026 96.1334 223.251 96.3631 223.413 96.6604C223.575 96.9577 223.656 97.3 223.656 97.6874C223.656 98.0748 223.575 98.4171 223.413 98.7144C223.251 99.0027 223.026 99.2324 222.738 99.4036C222.458 99.5657 222.147 99.6468 221.805 99.6468C221.454 99.6468 221.138 99.5657 220.859 99.4036C220.58 99.2324 220.359 99.0027 220.197 98.7144C220.035 98.4171 219.954 98.0748 219.954 97.6874ZM235.838 96.8496C235.838 96.3361 235.766 95.8991 235.622 95.5388C235.478 95.1784 235.257 94.9082 234.96 94.728C234.672 94.5388 234.307 94.4442 233.865 94.4442C233.442 94.4442 233.064 94.5388 232.73 94.728C232.406 94.9172 232.136 95.1919 231.919 95.5523C231.784 95.1919 231.564 94.9172 231.257 94.728C230.96 94.5388 230.582 94.4442 230.122 94.4442C229.726 94.4442 229.379 94.5343 229.082 94.7145C228.793 94.8856 228.559 95.1424 228.379 95.4847V94.5793H226.947V100.795H228.379V97.0117C228.379 96.7144 228.428 96.4622 228.528 96.255C228.627 96.0478 228.766 95.8901 228.946 95.782C229.136 95.6739 229.356 95.6199 229.609 95.6199C229.969 95.6199 230.23 95.737 230.392 95.9712C230.564 96.1964 230.649 96.5433 230.649 97.0117V100.795H232.109V97.0117C232.109 96.7144 232.158 96.4622 232.257 96.255C232.365 96.0478 232.509 95.8901 232.69 95.782C232.879 95.6739 233.095 95.6199 233.338 95.6199C233.699 95.6199 233.96 95.737 234.122 95.9712C234.293 96.1964 234.379 96.5433 234.379 97.0117V100.795H235.838V96.8496ZM240.81 100.931C241.53 100.931 242.148 100.791 242.661 100.512C243.175 100.232 243.593 99.8135 243.918 99.2549L242.661 98.7414C242.463 99.0747 242.215 99.3225 241.918 99.4846C241.621 99.6468 241.274 99.7279 240.877 99.7279C240.499 99.7279 240.175 99.6468 239.904 99.4846C239.643 99.3225 239.445 99.0882 239.31 98.7819C239.175 98.4666 239.107 98.0838 239.107 97.6333C239.116 97.1829 239.188 96.8045 239.323 96.4982C239.458 96.1919 239.657 95.9577 239.918 95.7955C240.179 95.6334 240.494 95.5523 240.864 95.5523C241.17 95.5523 241.436 95.6199 241.661 95.755C241.895 95.8901 242.075 96.0793 242.202 96.3225C242.337 96.5658 242.404 96.8541 242.404 97.1874C242.404 97.2504 242.386 97.3315 242.35 97.4306C242.323 97.5207 242.296 97.5928 242.269 97.6468L242.715 97.0252H238.499V98.0252H243.958C243.967 97.9892 243.972 97.9306 243.972 97.8495C243.981 97.7685 243.985 97.6919 243.985 97.6198C243.985 96.9532 243.859 96.3856 243.607 95.9171C243.364 95.4397 243.012 95.0748 242.553 94.8226C242.093 94.5703 241.535 94.4442 240.877 94.4442C240.22 94.4442 239.648 94.5793 239.161 94.8496C238.675 95.1109 238.296 95.4847 238.026 95.9712C237.765 96.4577 237.634 97.0297 237.634 97.6874C237.634 98.336 237.765 98.9036 238.026 99.39C238.287 99.8765 238.657 100.255 239.134 100.525C239.621 100.795 240.179 100.931 240.81 100.931ZM250.002 91.3362L244.381 102.822H245.854L251.435 91.3362H250.002ZM252.863 97.6874C252.863 97.3 252.949 96.9577 253.12 96.6604C253.291 96.3631 253.521 96.1289 253.809 95.9577C254.106 95.7865 254.435 95.7009 254.795 95.7009C255.084 95.7009 255.363 95.746 255.633 95.8361C255.903 95.9262 256.142 96.0523 256.349 96.2144C256.566 96.3676 256.723 96.5478 256.822 96.755V95.1469C256.606 94.9307 256.313 94.7595 255.944 94.6334C255.575 94.5073 255.169 94.4442 254.728 94.4442C254.088 94.4442 253.512 94.5838 252.998 94.8631C252.494 95.1334 252.093 95.5117 251.795 95.9982C251.507 96.4847 251.363 97.0477 251.363 97.6874C251.363 98.318 251.507 98.881 251.795 99.3765C252.093 99.863 252.494 100.246 252.998 100.525C253.512 100.795 254.088 100.931 254.728 100.931C255.169 100.931 255.575 100.867 255.944 100.741C256.313 100.615 256.606 100.444 256.822 100.228V98.6198C256.723 98.818 256.57 98.9982 256.363 99.1603C256.156 99.3225 255.917 99.4486 255.647 99.5387C255.376 99.6288 255.093 99.6738 254.795 99.6738C254.435 99.6738 254.106 99.5882 253.809 99.4171C253.521 99.2459 253.291 99.0162 253.12 98.7279C252.949 98.4306 252.863 98.0838 252.863 97.6874ZM259.76 98.863C259.76 98.6648 259.805 98.4982 259.895 98.363C259.994 98.2279 260.138 98.1243 260.327 98.0522C260.517 97.9712 260.764 97.9306 261.071 97.9306C261.422 97.9306 261.755 97.9757 262.071 98.0657C262.386 98.1558 262.683 98.3 262.962 98.4982V97.7549C262.881 97.6558 262.742 97.5477 262.543 97.4306C262.345 97.3045 262.093 97.1964 261.787 97.1063C261.489 97.0162 261.134 96.9712 260.719 96.9712C259.944 96.9712 259.345 97.1513 258.922 97.5117C258.499 97.863 258.287 98.3405 258.287 98.9441C258.287 99.3675 258.386 99.7279 258.584 100.025C258.782 100.322 259.048 100.548 259.381 100.701C259.715 100.854 260.075 100.931 260.462 100.931C260.823 100.931 261.174 100.867 261.516 100.741C261.868 100.606 262.156 100.408 262.381 100.147C262.616 99.8765 262.733 99.5432 262.733 99.1468L262.516 98.336C262.516 98.6423 262.44 98.9126 262.287 99.1468C262.143 99.372 261.949 99.5432 261.706 99.6603C261.471 99.7774 261.21 99.836 260.922 99.836C260.697 99.836 260.494 99.7999 260.314 99.7279C260.143 99.6558 260.008 99.5477 259.908 99.4036C259.809 99.2504 259.76 99.0702 259.76 98.863ZM259.3 96.2009C259.39 96.1379 259.526 96.0613 259.706 95.9712C259.895 95.8721 260.116 95.791 260.368 95.728C260.629 95.6559 260.904 95.6199 261.192 95.6199C261.381 95.6199 261.557 95.6379 261.719 95.6739C261.881 95.7099 262.021 95.7685 262.138 95.8496C262.255 95.9307 262.345 96.0343 262.408 96.1604C262.48 96.2865 262.516 96.4487 262.516 96.6469V100.795H263.949V96.3631C263.949 95.9487 263.836 95.6018 263.611 95.3226C263.386 95.0343 263.075 94.8136 262.679 94.6604C262.291 94.5073 261.841 94.4307 261.327 94.4307C260.751 94.4307 260.237 94.5118 259.787 94.6739C259.345 94.8361 258.985 95.0028 258.706 95.1739L259.3 96.2009ZM265.191 94.5793V95.8631H268.718V94.5793H265.191ZM266.231 92.4172V100.795H267.677V92.4172H266.231ZM272.832 100.931C273.553 100.931 274.17 100.791 274.684 100.512C275.197 100.232 275.616 99.8135 275.94 99.2549L274.684 98.7414C274.485 99.0747 274.238 99.3225 273.94 99.4846C273.643 99.6468 273.296 99.7279 272.9 99.7279C272.521 99.7279 272.197 99.6468 271.927 99.4846C271.666 99.3225 271.467 99.0882 271.332 98.7819C271.197 98.4666 271.13 98.0838 271.13 97.6333C271.139 97.1829 271.211 96.8045 271.346 96.4982C271.481 96.1919 271.679 95.9577 271.94 95.7955C272.202 95.6334 272.517 95.5523 272.886 95.5523C273.193 95.5523 273.458 95.6199 273.684 95.755C273.918 95.8901 274.098 96.0793 274.224 96.3225C274.359 96.5658 274.427 96.8541 274.427 97.1874C274.427 97.2504 274.409 97.3315 274.373 97.4306C274.346 97.5207 274.319 97.5928 274.292 97.6468L274.738 97.0252H270.522V98.0252H275.981C275.99 97.9892 275.994 97.9306 275.994 97.8495C276.003 97.7685 276.008 97.6919 276.008 97.6198C276.008 96.9532 275.882 96.3856 275.63 95.9171C275.386 95.4397 275.035 95.0748 274.576 94.8226C274.116 94.5703 273.558 94.4442 272.9 94.4442C272.242 94.4442 271.67 94.5793 271.184 94.8496C270.697 95.1109 270.319 95.4847 270.049 95.9712C269.787 96.4577 269.657 97.0297 269.657 97.6874C269.657 98.336 269.787 98.9036 270.049 99.39C270.31 99.8765 270.679 100.255 271.157 100.525C271.643 100.795 272.202 100.931 272.832 100.931ZM277.455 101.214C277.473 101.755 277.608 102.232 277.86 102.647C278.122 103.061 278.491 103.381 278.968 103.606C279.446 103.84 280.023 103.957 280.698 103.957C281.266 103.957 281.793 103.836 282.279 103.593C282.766 103.358 283.158 102.998 283.455 102.512C283.761 102.025 283.914 101.408 283.914 100.66V94.5793H282.482V100.66C282.482 101.129 282.392 101.512 282.212 101.809C282.04 102.106 281.815 102.327 281.536 102.471C281.257 102.615 280.964 102.687 280.658 102.687C280.315 102.687 280.013 102.624 279.752 102.498C279.491 102.372 279.284 102.196 279.131 101.971C278.986 101.746 278.91 101.494 278.901 101.214H277.455ZM277.333 97.6603C277.333 98.336 277.473 98.9126 277.752 99.39C278.032 99.8675 278.401 100.232 278.86 100.485C279.329 100.737 279.829 100.863 280.36 100.863C280.883 100.863 281.338 100.737 281.725 100.485C282.122 100.223 282.432 99.854 282.658 99.3765C282.892 98.8991 283.009 98.327 283.009 97.6603C283.009 96.9847 282.892 96.4081 282.658 95.9307C282.432 95.4532 282.122 95.0883 281.725 94.8361C281.338 94.5748 280.883 94.4442 280.36 94.4442C279.829 94.4442 279.329 94.5703 278.86 94.8226C278.401 95.0748 278.032 95.4397 277.752 95.9171C277.473 96.3856 277.333 96.9667 277.333 97.6603ZM278.847 97.6603C278.847 97.2369 278.932 96.8811 279.104 96.5928C279.275 96.3045 279.5 96.0883 279.779 95.9442C280.068 95.791 280.378 95.7144 280.712 95.7144C280.919 95.7144 281.126 95.755 281.333 95.8361C281.549 95.9171 281.743 96.0433 281.914 96.2144C282.086 96.3766 282.221 96.5793 282.32 96.8225C282.428 97.0568 282.482 97.336 282.482 97.6603C282.482 98.0748 282.392 98.4306 282.212 98.7279C282.04 99.0162 281.815 99.2324 281.536 99.3765C281.266 99.5207 280.991 99.5927 280.712 99.5927C280.378 99.5927 280.068 99.5207 279.779 99.3765C279.5 99.2234 279.275 99.0027 279.104 98.7144C278.932 98.4261 278.847 98.0748 278.847 97.6603ZM285.657 97.6874C285.657 98.318 285.801 98.881 286.089 99.3765C286.386 99.863 286.787 100.246 287.292 100.525C287.796 100.795 288.368 100.931 289.008 100.931C289.648 100.931 290.215 100.795 290.711 100.525C291.215 100.246 291.616 99.863 291.913 99.3765C292.211 98.881 292.359 98.318 292.359 97.6874C292.359 97.0477 292.211 96.4847 291.913 95.9982C291.616 95.5117 291.215 95.1334 290.711 94.8631C290.215 94.5838 289.648 94.4442 289.008 94.4442C288.368 94.4442 287.796 94.5838 287.292 94.8631C286.787 95.1334 286.386 95.5117 286.089 95.9982C285.801 96.4847 285.657 97.0477 285.657 97.6874ZM287.157 97.6874C287.157 97.3 287.238 96.9577 287.4 96.6604C287.562 96.3631 287.783 96.1334 288.062 95.9712C288.341 95.809 288.657 95.728 289.008 95.728C289.35 95.728 289.661 95.809 289.94 95.9712C290.229 96.1334 290.454 96.3631 290.616 96.6604C290.778 96.9577 290.859 97.3 290.859 97.6874C290.859 98.0748 290.778 98.4171 290.616 98.7144C290.454 99.0027 290.229 99.2324 289.94 99.4036C289.661 99.5657 289.35 99.6468 289.008 99.6468C288.657 99.6468 288.341 99.5657 288.062 99.4036C287.783 99.2324 287.562 99.0027 287.4 98.7144C287.238 98.4171 287.157 98.0748 287.157 97.6874ZM295.595 94.5793H294.149V100.795H295.595V94.5793ZM297.447 96.1334L298.149 94.9037C298.014 94.7325 297.848 94.6154 297.649 94.5523C297.451 94.4802 297.239 94.4442 297.014 94.4442C296.699 94.4442 296.393 94.5568 296.095 94.782C295.807 95.0073 295.568 95.3136 295.379 95.7009C295.199 96.0793 295.109 96.5162 295.109 97.0117L295.595 97.2955C295.595 96.9982 295.627 96.7414 295.69 96.5252C295.762 96.3 295.875 96.1243 296.028 95.9982C296.181 95.8721 296.379 95.809 296.622 95.809C296.802 95.809 296.951 95.8361 297.068 95.8901C297.185 95.9442 297.311 96.0252 297.447 96.1334ZM305.465 94.5793H303.898L301.952 99.4576L302.641 99.4981L300.655 94.5793H298.979L301.479 100.066L299.857 103.768H301.411L305.465 94.5793ZM310.831 91.3362L305.21 102.822H306.683L312.264 91.3362H310.831ZM314.27 103.768V94.5793H312.797V103.768H314.27ZM319.418 97.6874C319.418 96.9937 319.279 96.4036 318.999 95.9171C318.72 95.4307 318.351 95.0613 317.891 94.8091C317.432 94.5478 316.932 94.4172 316.391 94.4172C315.86 94.4172 315.396 94.5523 315 94.8226C314.612 95.0838 314.31 95.4577 314.094 95.9442C313.887 96.4306 313.783 97.0117 313.783 97.6874C313.783 98.354 313.887 98.9351 314.094 99.4306C314.31 99.9171 314.612 100.295 315 100.566C315.396 100.827 315.86 100.958 316.391 100.958C316.932 100.958 317.432 100.831 317.891 100.579C318.351 100.318 318.72 99.9441 318.999 99.4576C319.279 98.9621 319.418 98.372 319.418 97.6874ZM317.905 97.6874C317.905 98.1018 317.819 98.4576 317.648 98.7549C317.477 99.0432 317.247 99.2639 316.959 99.4171C316.68 99.5612 316.369 99.6333 316.027 99.6333C315.747 99.6333 315.472 99.5612 315.202 99.4171C314.932 99.2639 314.707 99.0432 314.527 98.7549C314.355 98.4666 314.27 98.1108 314.27 97.6874C314.27 97.264 314.355 96.9081 314.527 96.6198C314.707 96.3315 314.932 96.1153 315.202 95.9712C315.472 95.818 315.747 95.7415 316.027 95.7415C316.369 95.7415 316.68 95.818 316.959 95.9712C317.247 96.1153 317.477 96.3361 317.648 96.6333C317.819 96.9216 317.905 97.273 317.905 97.6874ZM322.66 94.5793H321.214V100.795H322.66V94.5793ZM324.511 96.1334L325.214 94.9037C325.079 94.7325 324.912 94.6154 324.714 94.5523C324.516 94.4802 324.304 94.4442 324.079 94.4442C323.763 94.4442 323.457 94.5568 323.16 94.782C322.871 95.0073 322.633 95.3136 322.443 95.7009C322.263 96.0793 322.173 96.5162 322.173 97.0117L322.66 97.2955C322.66 96.9982 322.691 96.7414 322.754 96.5252C322.826 96.3 322.939 96.1243 323.092 95.9982C323.245 95.8721 323.443 95.809 323.687 95.809C323.867 95.809 324.016 95.8361 324.133 95.8901C324.25 95.9442 324.376 96.0252 324.511 96.1334ZM325.95 97.6874C325.95 98.318 326.094 98.881 326.382 99.3765C326.679 99.863 327.08 100.246 327.585 100.525C328.089 100.795 328.661 100.931 329.301 100.931C329.941 100.931 330.508 100.795 331.004 100.525C331.508 100.246 331.909 99.863 332.206 99.3765C332.504 98.881 332.652 98.318 332.652 97.6874C332.652 97.0477 332.504 96.4847 332.206 95.9982C331.909 95.5117 331.508 95.1334 331.004 94.8631C330.508 94.5838 329.941 94.4442 329.301 94.4442C328.661 94.4442 328.089 94.5838 327.585 94.8631C327.08 95.1334 326.679 95.5117 326.382 95.9982C326.094 96.4847 325.95 97.0477 325.95 97.6874ZM327.45 97.6874C327.45 97.3 327.531 96.9577 327.693 96.6604C327.855 96.3631 328.076 96.1334 328.355 95.9712C328.634 95.809 328.95 95.728 329.301 95.728C329.643 95.728 329.954 95.809 330.233 95.9712C330.522 96.1334 330.747 96.3631 330.909 96.6604C331.071 96.9577 331.152 97.3 331.152 97.6874C331.152 98.0748 331.071 98.4171 330.909 98.7144C330.747 99.0027 330.522 99.2324 330.233 99.4036C329.954 99.5657 329.643 99.6468 329.301 99.6468C328.95 99.6468 328.634 99.5657 328.355 99.4036C328.076 99.2324 327.855 99.0027 327.693 98.7144C327.531 98.4171 327.45 98.0748 327.45 97.6874ZM339.118 90.2551V100.795H340.591V90.2551H339.118ZM333.97 97.6874C333.97 98.363 334.109 98.9441 334.388 99.4306C334.668 99.9171 335.037 100.291 335.497 100.552C335.965 100.804 336.465 100.931 336.996 100.931C337.519 100.931 337.974 100.8 338.361 100.539C338.758 100.277 339.069 99.9035 339.294 99.4171C339.528 98.9306 339.645 98.354 339.645 97.6874C339.645 97.0117 339.528 96.4352 339.294 95.9577C339.069 95.4712 338.758 95.0973 338.361 94.8361C337.974 94.5748 337.519 94.4442 336.996 94.4442C336.465 94.4442 335.965 94.5748 335.497 94.8361C335.037 95.0883 334.668 95.4577 334.388 95.9442C334.109 96.4216 333.97 97.0027 333.97 97.6874ZM335.483 97.6874C335.483 97.273 335.569 96.9171 335.74 96.6198C335.911 96.3225 336.136 96.0973 336.415 95.9442C336.704 95.791 337.014 95.7144 337.348 95.7144C337.627 95.7144 337.902 95.791 338.172 95.9442C338.451 96.0973 338.677 96.3225 338.848 96.6198C339.028 96.9081 339.118 97.264 339.118 97.6874C339.118 98.1108 339.028 98.4711 338.848 98.7684C338.677 99.0567 338.451 99.2774 338.172 99.4306C337.902 99.5837 337.627 99.6603 337.348 99.6603C337.014 99.6603 336.704 99.5837 336.415 99.4306C336.136 99.2774 335.911 99.0522 335.74 98.7549C335.569 98.4576 335.483 98.1018 335.483 97.6874ZM344.305 98.363V94.5793H342.805V98.5252C342.805 99.2639 342.99 99.8495 343.359 100.282C343.738 100.714 344.274 100.931 344.967 100.931C345.4 100.931 345.769 100.84 346.076 100.66C346.391 100.471 346.648 100.196 346.846 99.836V100.795H348.305V94.5793H346.846V98.363C346.846 98.6423 346.787 98.89 346.67 99.1063C346.553 99.3135 346.391 99.4756 346.184 99.5927C345.976 99.7008 345.733 99.7549 345.454 99.7549C345.067 99.7549 344.778 99.6333 344.589 99.39C344.4 99.1468 344.305 98.8045 344.305 98.363ZM351.547 97.6874C351.547 97.3 351.633 96.9577 351.804 96.6604C351.975 96.3631 352.205 96.1289 352.493 95.9577C352.791 95.7865 353.119 95.7009 353.48 95.7009C353.768 95.7009 354.047 95.746 354.318 95.8361C354.588 95.9262 354.827 96.0523 355.034 96.2144C355.25 96.3676 355.408 96.5478 355.507 96.755V95.1469C355.29 94.9307 354.998 94.7595 354.628 94.6334C354.259 94.5073 353.854 94.4442 353.412 94.4442C352.773 94.4442 352.196 94.5838 351.682 94.8631C351.178 95.1334 350.777 95.5117 350.48 95.9982C350.192 96.4847 350.047 97.0477 350.047 97.6874C350.047 98.318 350.192 98.881 350.48 99.3765C350.777 99.863 351.178 100.246 351.682 100.525C352.196 100.795 352.773 100.931 353.412 100.931C353.854 100.931 354.259 100.867 354.628 100.741C354.998 100.615 355.29 100.444 355.507 100.228V98.6198C355.408 98.818 355.254 98.9982 355.047 99.1603C354.84 99.3225 354.601 99.4486 354.331 99.5387C354.061 99.6288 353.777 99.6738 353.48 99.6738C353.119 99.6738 352.791 99.5882 352.493 99.4171C352.205 99.2459 351.975 99.0162 351.804 98.7279C351.633 98.4306 351.547 98.0838 351.547 97.6874ZM356.66 94.5793V95.8631H360.187V94.5793H356.66ZM357.701 92.4172V100.795H359.147V92.4172H357.701Z" fill="#454545"/>
<path d="M191.322 140.143C191.878 140.699 192.778 140.699 193.334 140.143L202.386 131.091C202.942 130.535 202.942 129.635 202.386 129.079C201.831 128.524 200.93 128.524 200.375 129.079L192.328 137.126L184.282 129.079C183.726 128.524 182.825 128.524 182.27 129.079C181.714 129.635 181.714 130.535 182.27 131.091L191.322 140.143ZM193.751 117.089C193.751 116.304 193.114 115.667 192.328 115.667C191.543 115.667 190.906 116.304 190.906 117.089H193.751ZM193.751 139.137V117.089H190.906V139.137H193.751Z" fill="#686868"/>
<g filter="url(#filter1_d_870_19475)">
<rect x="97.0234" y="146.96" width="195.586" height="27.0264" rx="13.5132" fill="#5E9BF0"/>
</g>
<path d="M130.708 154.62H129.249V165.161H130.708V154.62ZM133.249 161.377V165.161H134.722V161.174C134.722 160.643 134.641 160.201 134.478 159.85C134.316 159.49 134.073 159.219 133.749 159.039C133.433 158.859 133.046 158.769 132.587 158.769C132.118 158.769 131.717 158.886 131.384 159.12C131.06 159.354 130.807 159.665 130.627 160.053C130.447 160.44 130.357 160.881 130.357 161.377H130.708C130.708 161.098 130.767 160.854 130.884 160.647C131.001 160.44 131.163 160.278 131.37 160.161C131.578 160.044 131.816 159.985 132.087 159.985C132.492 159.985 132.785 160.102 132.965 160.336C133.154 160.571 133.249 160.917 133.249 161.377ZM136.113 158.945V160.228H139.64V158.945H136.113ZM137.154 156.782V165.161H138.6V156.782H137.154ZM140.187 158.945V160.228H143.714V158.945H140.187ZM141.228 156.782V165.161H142.674V156.782H141.228ZM146.545 168.134V158.945H145.072V168.134H146.545ZM151.694 162.053C151.694 161.359 151.554 160.769 151.275 160.282C150.996 159.796 150.626 159.427 150.167 159.174C149.707 158.913 149.207 158.782 148.667 158.782C148.135 158.782 147.671 158.918 147.275 159.188C146.888 159.449 146.586 159.823 146.37 160.309C146.162 160.796 146.059 161.377 146.059 162.053C146.059 162.719 146.162 163.3 146.37 163.796C146.586 164.282 146.888 164.661 147.275 164.931C147.671 165.192 148.135 165.323 148.667 165.323C149.207 165.323 149.707 165.197 150.167 164.944C150.626 164.683 150.996 164.309 151.275 163.823C151.554 163.327 151.694 162.737 151.694 162.053ZM150.18 162.053C150.18 162.467 150.095 162.823 149.923 163.12C149.752 163.408 149.523 163.629 149.234 163.782C148.955 163.926 148.644 163.999 148.302 163.999C148.023 163.999 147.748 163.926 147.478 163.782C147.207 163.629 146.982 163.408 146.802 163.12C146.631 162.832 146.545 162.476 146.545 162.053C146.545 161.629 146.631 161.273 146.802 160.985C146.982 160.697 147.207 160.481 147.478 160.336C147.748 160.183 148.023 160.107 148.302 160.107C148.644 160.107 148.955 160.183 149.234 160.336C149.523 160.481 149.752 160.701 149.923 160.999C150.095 161.287 150.18 161.638 150.18 162.053ZM153.773 163.12L152.922 163.971C153.102 164.206 153.323 164.431 153.584 164.647C153.854 164.854 154.165 165.026 154.516 165.161C154.877 165.287 155.268 165.35 155.692 165.35C156.377 165.35 156.917 165.174 157.313 164.823C157.719 164.462 157.922 163.99 157.922 163.404C157.922 163.026 157.831 162.719 157.651 162.485C157.48 162.251 157.25 162.053 156.962 161.89C156.674 161.728 156.358 161.58 156.016 161.445C155.764 161.345 155.534 161.251 155.327 161.161C155.129 161.071 154.967 160.972 154.84 160.863C154.723 160.746 154.665 160.616 154.665 160.472C154.665 160.3 154.732 160.17 154.868 160.08C155.003 159.99 155.174 159.945 155.381 159.945C155.687 159.945 155.985 160.021 156.273 160.174C156.561 160.327 156.809 160.526 157.016 160.769L157.827 159.904C157.656 159.697 157.449 159.512 157.205 159.35C156.962 159.188 156.687 159.057 156.381 158.958C156.084 158.859 155.764 158.809 155.422 158.809C155.043 158.809 154.687 158.873 154.354 158.999C154.03 159.116 153.768 159.3 153.57 159.553C153.381 159.805 153.286 160.12 153.286 160.499C153.286 160.868 153.372 161.174 153.543 161.417C153.723 161.661 153.949 161.859 154.219 162.012C154.498 162.156 154.777 162.282 155.057 162.39C155.336 162.49 155.579 162.589 155.786 162.688C155.994 162.778 156.156 162.89 156.273 163.026C156.39 163.152 156.449 163.305 156.449 163.485C156.449 163.692 156.372 163.854 156.219 163.971C156.075 164.089 155.872 164.147 155.611 164.147C155.404 164.147 155.196 164.111 154.989 164.039C154.782 163.958 154.575 163.841 154.368 163.688C154.169 163.526 153.971 163.336 153.773 163.12ZM159.825 164.471C159.825 164.724 159.915 164.944 160.095 165.134C160.284 165.323 160.509 165.417 160.77 165.417C161.05 165.417 161.279 165.323 161.46 165.134C161.64 164.944 161.73 164.724 161.73 164.471C161.73 164.21 161.64 163.99 161.46 163.809C161.279 163.62 161.05 163.526 160.77 163.526C160.509 163.526 160.284 163.62 160.095 163.809C159.915 163.99 159.825 164.21 159.825 164.471ZM159.825 159.363C159.825 159.625 159.915 159.85 160.095 160.039C160.284 160.219 160.509 160.309 160.77 160.309C161.05 160.309 161.279 160.219 161.46 160.039C161.64 159.85 161.73 159.625 161.73 159.363C161.73 159.102 161.64 158.882 161.46 158.701C161.279 158.512 161.05 158.418 160.77 158.418C160.509 158.418 160.284 158.512 160.095 158.701C159.915 158.882 159.825 159.102 159.825 159.363ZM169.089 155.701L163.468 167.188H164.941L170.522 155.701H169.089ZM175.604 155.701L169.983 167.188H171.456L177.037 155.701H175.604ZM186.516 161.215C186.516 160.701 186.444 160.264 186.299 159.904C186.155 159.544 185.935 159.273 185.637 159.093C185.349 158.904 184.984 158.809 184.543 158.809C184.119 158.809 183.741 158.904 183.408 159.093C183.083 159.282 182.813 159.557 182.597 159.918C182.462 159.557 182.241 159.282 181.935 159.093C181.637 158.904 181.259 158.809 180.8 158.809C180.403 158.809 180.056 158.9 179.759 159.08C179.471 159.251 179.237 159.508 179.056 159.85V158.945H177.624V165.161H179.056V161.377C179.056 161.08 179.106 160.827 179.205 160.62C179.304 160.413 179.444 160.255 179.624 160.147C179.813 160.039 180.034 159.985 180.286 159.985C180.646 159.985 180.908 160.102 181.07 160.336C181.241 160.562 181.327 160.908 181.327 161.377V165.161H182.786V161.377C182.786 161.08 182.836 160.827 182.935 160.62C183.043 160.413 183.187 160.255 183.367 160.147C183.556 160.039 183.772 159.985 184.016 159.985C184.376 159.985 184.637 160.102 184.799 160.336C184.971 160.562 185.056 160.908 185.056 161.377V165.161H186.516V161.215ZM188.987 164.471C188.987 164.724 189.077 164.944 189.257 165.134C189.447 165.323 189.672 165.417 189.933 165.417C190.212 165.417 190.442 165.323 190.622 165.134C190.802 164.944 190.893 164.724 190.893 164.471C190.893 164.21 190.802 163.99 190.622 163.809C190.442 163.62 190.212 163.526 189.933 163.526C189.672 163.526 189.447 163.62 189.257 163.809C189.077 163.99 188.987 164.21 188.987 164.471ZM198.481 158.891C198.481 159.278 198.396 159.62 198.225 159.918C198.063 160.215 197.837 160.449 197.549 160.62C197.261 160.791 196.936 160.877 196.576 160.877C196.207 160.877 195.878 160.791 195.59 160.62C195.301 160.449 195.072 160.215 194.9 159.918C194.738 159.62 194.657 159.278 194.657 158.891C194.657 158.503 194.738 158.165 194.9 157.877C195.072 157.58 195.301 157.35 195.59 157.188C195.878 157.017 196.207 156.931 196.576 156.931C196.936 156.931 197.261 157.017 197.549 157.188C197.837 157.35 198.063 157.58 198.225 157.877C198.396 158.165 198.481 158.503 198.481 158.891ZM196.238 165.147L199.238 161.12C199.472 160.814 199.662 160.476 199.806 160.107C199.959 159.737 200.036 159.332 200.036 158.891C200.036 158.188 199.882 157.589 199.576 157.093C199.27 156.589 198.855 156.206 198.333 155.945C197.81 155.674 197.225 155.539 196.576 155.539C195.927 155.539 195.342 155.674 194.819 155.945C194.297 156.206 193.878 156.589 193.563 157.093C193.256 157.589 193.103 158.188 193.103 158.891C193.103 159.341 193.18 159.755 193.333 160.134C193.486 160.512 193.693 160.841 193.955 161.12C194.225 161.39 194.531 161.598 194.873 161.742C195.216 161.886 195.576 161.958 195.955 161.958C196.27 161.958 196.545 161.922 196.779 161.85C197.013 161.778 197.238 161.625 197.454 161.39L197.211 161.431L194.211 165.147H196.238ZM210.681 161.215C210.681 160.701 210.608 160.264 210.464 159.904C210.32 159.544 210.099 159.273 209.802 159.093C209.514 158.904 209.149 158.809 208.708 158.809C208.284 158.809 207.906 158.904 207.572 159.093C207.248 159.282 206.978 159.557 206.762 159.918C206.627 159.557 206.406 159.282 206.1 159.093C205.802 158.904 205.424 158.809 204.964 158.809C204.568 158.809 204.221 158.9 203.924 159.08C203.636 159.251 203.401 159.508 203.221 159.85V158.945H201.789V165.161H203.221V161.377C203.221 161.08 203.271 160.827 203.37 160.62C203.469 160.413 203.609 160.255 203.789 160.147C203.978 160.039 204.199 159.985 204.451 159.985C204.811 159.985 205.073 160.102 205.235 160.336C205.406 160.562 205.491 160.908 205.491 161.377V165.161H206.951V161.377C206.951 161.08 207 160.827 207.1 160.62C207.208 160.413 207.352 160.255 207.532 160.147C207.721 160.039 207.937 159.985 208.181 159.985C208.541 159.985 208.802 160.102 208.964 160.336C209.136 160.562 209.221 160.908 209.221 161.377V165.161H210.681V161.215ZM213.152 164.471C213.152 164.724 213.242 164.944 213.422 165.134C213.612 165.323 213.837 165.417 214.098 165.417C214.377 165.417 214.607 165.323 214.787 165.134C214.967 164.944 215.057 164.724 215.057 164.471C215.057 164.21 214.967 163.99 214.787 163.809C214.607 163.62 214.377 163.526 214.098 163.526C213.837 163.526 213.612 163.62 213.422 163.809C213.242 163.99 213.152 164.21 213.152 164.471ZM217.471 156.472C217.471 156.715 217.561 156.927 217.741 157.107C217.93 157.278 218.146 157.364 218.39 157.364C218.651 157.364 218.867 157.278 219.038 157.107C219.219 156.927 219.309 156.715 219.309 156.472C219.309 156.219 219.219 156.008 219.038 155.837C218.867 155.665 218.651 155.58 218.39 155.58C218.146 155.58 217.93 155.665 217.741 155.837C217.561 156.008 217.471 156.219 217.471 156.472ZM217.674 158.945V165.161H219.106V158.945H217.674ZM221.047 162.053C221.047 162.683 221.191 163.246 221.479 163.742C221.776 164.228 222.177 164.611 222.682 164.89C223.186 165.161 223.758 165.296 224.398 165.296C225.038 165.296 225.605 165.161 226.101 164.89C226.605 164.611 227.006 164.228 227.303 163.742C227.601 163.246 227.749 162.683 227.749 162.053C227.749 161.413 227.601 160.85 227.303 160.363C227.006 159.877 226.605 159.499 226.101 159.228C225.605 158.949 225.038 158.809 224.398 158.809C223.758 158.809 223.186 158.949 222.682 159.228C222.177 159.499 221.776 159.877 221.479 160.363C221.191 160.85 221.047 161.413 221.047 162.053ZM222.547 162.053C222.547 161.665 222.628 161.323 222.79 161.026C222.952 160.728 223.173 160.499 223.452 160.336C223.731 160.174 224.047 160.093 224.398 160.093C224.74 160.093 225.051 160.174 225.33 160.336C225.619 160.499 225.844 160.728 226.006 161.026C226.168 161.323 226.249 161.665 226.249 162.053C226.249 162.44 226.168 162.782 226.006 163.08C225.844 163.368 225.619 163.598 225.33 163.769C225.051 163.931 224.74 164.012 224.398 164.012C224.047 164.012 223.731 163.931 223.452 163.769C223.173 163.598 222.952 163.368 222.79 163.08C222.628 162.782 222.547 162.44 222.547 162.053ZM233.758 155.701L228.137 167.188H229.61L235.191 155.701H233.758ZM235.666 163.12L234.814 163.971C234.994 164.206 235.215 164.431 235.476 164.647C235.747 164.854 236.057 165.026 236.409 165.161C236.769 165.287 237.161 165.35 237.584 165.35C238.269 165.35 238.81 165.174 239.206 164.823C239.611 164.462 239.814 163.99 239.814 163.404C239.814 163.026 239.724 162.719 239.544 162.485C239.373 162.251 239.143 162.053 238.855 161.89C238.566 161.728 238.251 161.58 237.909 161.445C237.657 161.345 237.427 161.251 237.22 161.161C237.021 161.071 236.859 160.972 236.733 160.863C236.616 160.746 236.557 160.616 236.557 160.472C236.557 160.3 236.625 160.17 236.76 160.08C236.895 159.99 237.066 159.945 237.274 159.945C237.58 159.945 237.877 160.021 238.166 160.174C238.454 160.327 238.702 160.526 238.909 160.769L239.72 159.904C239.548 159.697 239.341 159.512 239.098 159.35C238.855 159.188 238.58 159.057 238.274 158.958C237.976 158.859 237.657 158.809 237.314 158.809C236.936 158.809 236.58 158.873 236.247 158.999C235.922 159.116 235.661 159.3 235.463 159.553C235.274 159.805 235.179 160.12 235.179 160.499C235.179 160.868 235.265 161.174 235.436 161.417C235.616 161.661 235.841 161.859 236.112 162.012C236.391 162.156 236.67 162.282 236.949 162.39C237.229 162.49 237.472 162.589 237.679 162.688C237.886 162.778 238.048 162.89 238.166 163.026C238.283 163.152 238.341 163.305 238.341 163.485C238.341 163.692 238.265 163.854 238.111 163.971C237.967 164.089 237.765 164.147 237.503 164.147C237.296 164.147 237.089 164.111 236.882 164.039C236.675 163.958 236.467 163.841 236.26 163.688C236.062 163.526 235.864 163.336 235.666 163.12ZM242.974 154.62H241.514V165.161H242.974V154.62ZM245.514 161.377V165.161H246.987V161.174C246.987 160.643 246.906 160.201 246.744 159.85C246.582 159.49 246.339 159.219 246.014 159.039C245.699 158.859 245.312 158.769 244.852 158.769C244.384 158.769 243.983 158.886 243.65 159.12C243.325 159.354 243.073 159.665 242.893 160.053C242.713 160.44 242.623 160.881 242.623 161.377H242.974C242.974 161.098 243.032 160.854 243.15 160.647C243.267 160.44 243.429 160.278 243.636 160.161C243.843 160.044 244.082 159.985 244.352 159.985C244.758 159.985 245.05 160.102 245.231 160.336C245.42 160.571 245.514 160.917 245.514 161.377ZM250.69 158.945H249.244V165.161H250.69V158.945ZM252.541 160.499L253.244 159.269C253.109 159.098 252.942 158.981 252.744 158.918C252.546 158.845 252.334 158.809 252.109 158.809C251.793 158.809 251.487 158.922 251.19 159.147C250.902 159.372 250.663 159.679 250.474 160.066C250.293 160.445 250.203 160.881 250.203 161.377L250.69 161.661C250.69 161.363 250.721 161.107 250.784 160.89C250.857 160.665 250.969 160.49 251.122 160.363C251.275 160.237 251.474 160.174 251.717 160.174C251.897 160.174 252.046 160.201 252.163 160.255C252.28 160.309 252.406 160.39 252.541 160.499ZM253.786 158.945V160.228H257.313V158.945H253.786ZM254.826 156.782V165.161H256.272V156.782H254.826ZM258.806 157.918L260.995 157.309V165.161H262.576V155.553L258.806 156.404V157.918ZM266.949 154.62H265.476V165.161H266.949V154.62ZM272.098 162.053C272.098 161.368 271.958 160.787 271.679 160.309C271.4 159.823 271.03 159.454 270.571 159.201C270.111 158.94 269.611 158.809 269.071 158.809C268.557 158.809 268.098 158.94 267.693 159.201C267.296 159.463 266.985 159.836 266.76 160.323C266.535 160.8 266.422 161.377 266.422 162.053C266.422 162.719 266.535 163.296 266.76 163.782C266.985 164.269 267.296 164.643 267.693 164.904C268.098 165.165 268.557 165.296 269.071 165.296C269.611 165.296 270.111 165.17 270.571 164.917C271.03 164.656 271.4 164.282 271.679 163.796C271.958 163.309 272.098 162.728 272.098 162.053ZM270.584 162.053C270.584 162.467 270.499 162.823 270.328 163.12C270.157 163.417 269.927 163.643 269.639 163.796C269.359 163.949 269.048 164.026 268.706 164.026C268.427 164.026 268.152 163.949 267.882 163.796C267.612 163.643 267.386 163.422 267.206 163.134C267.035 162.836 266.949 162.476 266.949 162.053C266.949 161.629 267.035 161.273 267.206 160.985C267.386 160.688 267.612 160.463 267.882 160.309C268.152 160.156 268.427 160.08 268.706 160.08C269.048 160.08 269.359 160.156 269.639 160.309C269.927 160.463 270.157 160.688 270.328 160.985C270.499 161.282 270.584 161.638 270.584 162.053ZM273.38 158.945V160.228H276.947V158.945H273.38ZM276.785 156.188L277.474 155.053C277.402 154.963 277.299 154.873 277.164 154.783C277.037 154.692 276.884 154.616 276.704 154.553C276.524 154.49 276.312 154.458 276.069 154.458C275.637 154.458 275.272 154.544 274.974 154.715C274.677 154.877 274.447 155.12 274.285 155.445C274.132 155.76 274.056 156.161 274.056 156.647V165.161H275.488V156.931C275.488 156.67 275.515 156.458 275.569 156.296C275.623 156.134 275.695 156.017 275.785 155.945C275.884 155.873 276.001 155.837 276.137 155.837C276.254 155.837 276.366 155.859 276.474 155.904C276.592 155.949 276.695 156.044 276.785 156.188Z" fill="white"/>
<path d="M116.653 160.765C116.944 161.042 116.944 161.497 116.653 161.775C116.375 162.052 115.92 162.052 115.643 161.775C114.977 161.108 114.603 160.203 114.603 159.261C114.603 158.318 114.977 157.414 115.643 156.746L118.161 154.229C118.828 153.563 119.732 153.188 120.675 153.188C121.618 153.188 122.522 153.563 123.189 154.229C123.855 154.896 124.229 155.8 124.229 156.743C124.229 157.686 123.855 158.59 123.189 159.257L122.129 160.317C122.136 159.734 122.044 159.15 121.845 158.596L122.179 158.254C122.378 158.057 122.537 157.822 122.645 157.563C122.753 157.305 122.808 157.027 122.808 156.746C122.808 156.466 122.753 156.188 122.645 155.93C122.537 155.671 122.378 155.436 122.179 155.239C121.982 155.039 121.747 154.881 121.488 154.773C121.229 154.665 120.952 154.609 120.671 154.609C120.391 154.609 120.113 154.665 119.854 154.773C119.595 154.881 119.361 155.039 119.163 155.239L116.653 157.749C116.453 157.947 116.295 158.181 116.187 158.44C116.079 158.699 116.023 158.977 116.023 159.257C116.023 159.538 116.079 159.815 116.187 160.074C116.295 160.333 116.453 160.568 116.653 160.765ZM118.658 157.749C118.936 157.472 119.391 157.472 119.668 157.749C120.335 158.416 120.709 159.321 120.709 160.263C120.709 161.206 120.335 162.111 119.668 162.778L117.151 165.295C116.484 165.962 115.579 166.336 114.636 166.336C113.694 166.336 112.789 165.962 112.122 165.295C111.456 164.628 111.082 163.724 111.082 162.781C111.082 161.838 111.456 160.934 112.122 160.267L113.182 159.207C113.175 159.791 113.267 160.374 113.467 160.936L113.132 161.27C112.933 161.467 112.775 161.702 112.667 161.961C112.559 162.22 112.503 162.497 112.503 162.778C112.503 163.058 112.559 163.336 112.667 163.595C112.775 163.853 112.933 164.088 113.132 164.285C113.329 164.485 113.564 164.643 113.823 164.751C114.082 164.859 114.36 164.915 114.64 164.915C114.921 164.915 115.198 164.859 115.457 164.751C115.716 164.643 115.951 164.485 116.148 164.285L118.658 161.775C118.858 161.578 119.016 161.343 119.124 161.084C119.232 160.825 119.288 160.547 119.288 160.267C119.288 159.987 119.232 159.709 119.124 159.45C119.016 159.191 118.858 158.956 118.658 158.759C118.589 158.695 118.534 158.616 118.497 158.529C118.459 158.443 118.44 158.349 118.44 158.254C118.44 158.16 118.459 158.066 118.497 157.979C118.534 157.892 118.589 157.814 118.658 157.749Z" fill="white"/>
</g>
<defs>
<filter id="filter0_d_870_19475" x="-8.23139" y="70.8597" width="397.572" height="51.2079" filterUnits="userSpaceOnUse" color-interpolation-filters="sRGB">
<feFlood flood-opacity="0" result="BackgroundImageFix"/>
<feColorMatrix in="SourceAlpha" type="matrix" values="0 0 0 0 0 0 0 0 0 0 0 0 0 0 0 0 0 0 127 0" result="hardAlpha"/>
<feOffset dy="0.711221"/>
<feGaussianBlur stdDeviation="6.04538"/>
<feComposite in2="hardAlpha" operator="out"/>
<feColorMatrix type="matrix" values="0 0 0 0 0 0 0 0 0 0 0 0 0 0 0 0 0 0 0.14 0"/>
<feBlend mode="normal" in2="BackgroundImageFix" result="effect1_dropShadow_870_19475"/>
<feBlend mode="normal" in="SourceGraphic" in2="effect1_dropShadow_870_19475" result="shape"/>
</filter>
<filter id="filter1_d_870_19475" x="84.9327" y="136.292" width="219.767" height="51.2079" filterUnits="userSpaceOnUse" color-interpolation-filters="sRGB">
<feFlood flood-opacity="0" result="BackgroundImageFix"/>
<feColorMatrix in="SourceAlpha" type="matrix" values="0 0 0 0 0 0 0 0 0 0 0 0 0 0 0 0 0 0 127 0" result="hardAlpha"/>
<feOffset dy="1.42244"/>
<feGaussianBlur stdDeviation="6.04538"/>
<feComposite in2="hardAlpha" operator="out"/>
<feColorMatrix type="matrix" values="0 0 0 0 0 0 0 0 0 0 0 0 0 0 0 0 0 0 0.25 0"/>
<feBlend mode="normal" in2="BackgroundImageFix" result="effect1_dropShadow_870_19475"/>
<feBlend mode="normal" in="SourceGraphic" in2="effect1_dropShadow_870_19475" result="shape"/>
</filter>
<clipPath id="clip0_870_19475">
<rect width="386.904" height="239.682" fill="white" transform="translate(0.296875 0.804688)"/>
</clipPath>
</defs>
</svg>
