<svg width="30" height="30" viewBox="0 0 30 30" fill="none" xmlns="http://www.w3.org/2000/svg">
<path d="M15 2.5C11.6855 2.5 8.50391 3.81777 6.16211 6.16113C3.81836 8.50449 2.5 11.6861 2.5 15C2.5 18.3139 3.81836 21.4955 6.16211 23.8389C8.50391 26.1822 11.6855 27.5 15 27.5C18.3145 27.5 21.4961 26.1822 23.8379 23.8389C26.1816 21.4955 27.5 18.3139 27.5 15C27.5 11.6861 26.1816 8.50449 23.8379 6.16113C21.4961 3.81777 18.3145 2.5 15 2.5Z" fill="url(#paint0_linear_229_10057)"/>
<path d="M8.15818 14.8678C11.8027 13.2803 14.2324 12.2337 15.4472 11.728C18.9199 10.284 19.6405 10.0333 20.1112 10.0249C20.2148 10.0231 20.4452 10.0487 20.5956 10.1704C20.7206 10.2729 20.7558 10.4116 20.7734 10.5088C20.789 10.6061 20.8105 10.8278 20.7929 11.0008C20.6054 12.9774 19.791 17.7739 19.3769 19.9878C19.2031 20.9245 18.8574 21.2386 18.5234 21.2692C17.7968 21.336 17.246 20.7895 16.5429 20.3288C15.4433 19.6075 14.8222 19.1587 13.7539 18.4549C12.5195 17.6417 13.3202 17.1946 14.0234 16.4641C14.207 16.2729 17.4062 13.3637 17.4667 13.0999C17.4745 13.0669 17.4824 12.9438 17.4082 12.879C17.3359 12.8139 17.2284 12.8362 17.1503 12.8538C17.039 12.8788 15.2831 14.0405 11.8768 16.3387C11.3788 16.6813 10.9276 16.8483 10.5214 16.8395C10.0761 16.8299 9.21675 16.5872 8.57808 16.3797C7.79683 16.1253 7.17375 15.9907 7.22844 15.5585C7.25579 15.3335 7.56638 15.1032 8.15818 14.8678Z" fill="white"/>
<defs>
<linearGradient id="paint0_linear_229_10057" x1="15" y1="2.5" x2="15" y2="27.5" gradientUnits="userSpaceOnUse">
<stop stop-color="#2AABEE"/>
<stop offset="1" stop-color="#229ED9"/>
</linearGradient>
</defs>
</svg>
