<svg width="40" height="40" viewBox="0 0 40 40" fill="none" xmlns="http://www.w3.org/2000/svg">
<path d="M19.9999 3.33337C15.5806 3.33337 11.3385 5.09041 8.21606 8.21489C5.09106 11.3394 3.33325 15.5816 3.33325 20C3.33325 24.4185 5.09106 28.6607 8.21606 31.7852C11.3385 34.9097 15.5806 36.6667 19.9999 36.6667C24.4192 36.6667 28.6614 34.9097 31.7838 31.7852C34.9088 28.6607 36.6666 24.4185 36.6666 20C36.6666 15.5816 34.9088 11.3394 31.7838 8.21489C28.6614 5.09041 24.4192 3.33337 19.9999 3.33337Z" fill="url(#paint0_linear_163_6651)"/>
<path d="M10.8777 19.8237C15.737 17.7071 18.9766 16.3115 20.5964 15.6373C25.2266 13.712 26.1875 13.3776 26.8151 13.3664C26.9531 13.3641 27.2604 13.3982 27.4609 13.5605C27.6276 13.6972 27.6745 13.8821 27.6979 14.0118C27.7188 14.1414 27.7474 14.437 27.724 14.6677C27.474 17.3032 26.3881 23.6985 25.836 26.6503C25.6042 27.8993 25.1432 28.3181 24.6979 28.3589C23.7292 28.448 22.9948 27.7194 22.0573 27.105C20.5911 26.1433 19.763 25.5448 18.3386 24.6065C16.6927 23.5222 17.7604 22.9261 18.6979 21.9521C18.9427 21.6972 23.2083 17.8183 23.289 17.4664C23.2994 17.4224 23.3099 17.2584 23.211 17.1719C23.1146 17.0852 22.9713 17.1149 22.8671 17.1383C22.7187 17.1717 20.3775 18.7206 15.8359 21.7849C15.1718 22.2417 14.5703 22.4644 14.0286 22.4526C13.4348 22.4399 12.2891 22.1162 11.4375 21.8396C10.3959 21.5003 9.56509 21.3209 9.638 20.7446C9.67446 20.4446 10.0886 20.1375 10.8777 19.8237Z" fill="white"/>
<defs>
<linearGradient id="paint0_linear_163_6651" x1="19.9999" y1="3.33337" x2="19.9999" y2="36.6667" gradientUnits="userSpaceOnUse">
<stop stop-color="#2AABEE"/>
<stop offset="1" stop-color="#229ED9"/>
</linearGradient>
</defs>
</svg>
