<svg width="550" height="400" viewBox="0 0 550 400" fill="none" xmlns="http://www.w3.org/2000/svg">
<g clip-path="url(#clip0_1421_20008)">
<g clip-path="url(#clip1_1421_20008)">
<rect x="106" y="86.5" width="352" height="226" rx="12" fill="white"/>
<ellipse cx="127" cy="103" rx="6" ry="6.5" fill="#DF434C"/>
<circle cx="143.5" cy="103" r="6.5" fill="#E7B44C"/>
<circle cx="159.5" cy="103" r="6.5" fill="#6BD280"/>
<rect x="176" y="96.5" width="265" height="13" rx="6.5" fill="#E1E3E8"/>
<g filter="url(#filter0_d_1421_20008)">
<rect x="15" y="145.5" width="525" height="38" rx="19" fill="white"/>
</g>
<path d="M40.363 155.68H38.311V170.5H40.363V155.68ZM43.935 165.18V170.5H46.006V164.895C46.006 164.148 45.892 163.527 45.664 163.033C45.436 162.526 45.094 162.146 44.638 161.893C44.1947 161.64 43.65 161.513 43.004 161.513C42.3453 161.513 41.7817 161.678 41.313 162.007C40.857 162.336 40.5023 162.773 40.249 163.318C39.9957 163.863 39.869 164.483 39.869 165.18H40.363C40.363 164.787 40.4453 164.445 40.61 164.154C40.7747 163.863 41.0027 163.635 41.294 163.47C41.5853 163.305 41.921 163.223 42.301 163.223C42.871 163.223 43.2827 163.388 43.536 163.717C43.802 164.046 43.935 164.534 43.935 165.18ZM47.9629 161.76V163.565H52.9219V161.76H47.9629ZM49.4259 158.72V170.5H51.4589V158.72H49.4259ZM53.6911 161.76V163.565H58.6501V161.76H53.6911ZM55.1541 158.72V170.5H57.1871V158.72H55.1541ZM62.6303 174.68V161.76H60.5593V174.68H62.6303ZM69.8693 166.13C69.8693 165.155 69.6729 164.325 69.2803 163.641C68.8876 162.957 68.3683 162.438 67.7223 162.083C67.0763 161.716 66.3733 161.532 65.6133 161.532C64.8659 161.532 64.2136 161.722 63.6563 162.102C63.1116 162.469 62.6873 162.995 62.3833 163.679C62.0919 164.363 61.9463 165.18 61.9463 166.13C61.9463 167.067 62.0919 167.884 62.3833 168.581C62.6873 169.265 63.1116 169.797 63.6563 170.177C64.2136 170.544 64.8659 170.728 65.6133 170.728C66.3733 170.728 67.0763 170.551 67.7223 170.196C68.3683 169.829 68.8876 169.303 69.2803 168.619C69.6729 167.922 69.8693 167.093 69.8693 166.13ZM67.7413 166.13C67.7413 166.713 67.6209 167.213 67.3803 167.631C67.1396 168.036 66.8166 168.347 66.4113 168.562C66.0186 168.765 65.5816 168.866 65.1003 168.866C64.7076 168.866 64.3213 168.765 63.9413 168.562C63.5613 168.347 63.2446 168.036 62.9913 167.631C62.7506 167.226 62.6303 166.725 62.6303 166.13C62.6303 165.535 62.7506 165.034 62.9913 164.629C63.2446 164.224 63.5613 163.92 63.9413 163.717C64.3213 163.502 64.7076 163.394 65.1003 163.394C65.5816 163.394 66.0186 163.502 66.4113 163.717C66.8166 163.92 67.1396 164.23 67.3803 164.648C67.6209 165.053 67.7413 165.547 67.7413 166.13ZM72.7927 167.631L71.5957 168.828C71.8491 169.157 72.1594 169.474 72.5267 169.778C72.9067 170.069 73.3437 170.31 73.8377 170.5C74.3444 170.677 74.8954 170.766 75.4907 170.766C76.4534 170.766 77.2134 170.519 77.7707 170.025C78.3407 169.518 78.6257 168.853 78.6257 168.03C78.6257 167.498 78.4991 167.067 78.2457 166.738C78.0051 166.409 77.6821 166.13 77.2767 165.902C76.8714 165.674 76.4281 165.465 75.9467 165.275C75.5921 165.136 75.2691 165.003 74.9777 164.876C74.6991 164.749 74.4711 164.61 74.2937 164.458C74.1291 164.293 74.0467 164.11 74.0467 163.907C74.0467 163.666 74.1417 163.483 74.3317 163.356C74.5217 163.229 74.7624 163.166 75.0537 163.166C75.4844 163.166 75.9024 163.274 76.3077 163.489C76.7131 163.704 77.0614 163.983 77.3527 164.325L78.4927 163.109C78.2521 162.818 77.9607 162.558 77.6187 162.33C77.2767 162.102 76.8904 161.918 76.4597 161.779C76.0417 161.64 75.5921 161.57 75.1107 161.57C74.5787 161.57 74.0784 161.659 73.6097 161.836C73.1537 162.001 72.7864 162.26 72.5077 162.615C72.2417 162.97 72.1087 163.413 72.1087 163.945C72.1087 164.464 72.2291 164.895 72.4697 165.237C72.7231 165.579 73.0397 165.858 73.4197 166.073C73.8124 166.276 74.2051 166.453 74.5977 166.605C74.9904 166.744 75.3324 166.884 75.6237 167.023C75.9151 167.15 76.1431 167.308 76.3077 167.498C76.4724 167.675 76.5547 167.891 76.5547 168.144C76.5547 168.435 76.4471 168.663 76.2317 168.828C76.0291 168.993 75.7441 169.075 75.3767 169.075C75.0854 169.075 74.7941 169.024 74.5027 168.923C74.2114 168.809 73.9201 168.644 73.6287 168.429C73.3501 168.201 73.0714 167.935 72.7927 167.631ZM81.3015 169.531C81.3015 169.886 81.4281 170.196 81.6815 170.462C81.9475 170.728 82.2641 170.861 82.6315 170.861C83.0241 170.861 83.3471 170.728 83.6005 170.462C83.8538 170.196 83.9805 169.886 83.9805 169.531C83.9805 169.164 83.8538 168.853 83.6005 168.6C83.3471 168.334 83.0241 168.201 82.6315 168.201C82.2641 168.201 81.9475 168.334 81.6815 168.6C81.4281 168.853 81.3015 169.164 81.3015 169.531ZM81.3015 162.349C81.3015 162.716 81.4281 163.033 81.6815 163.299C81.9475 163.552 82.2641 163.679 82.6315 163.679C83.0241 163.679 83.3471 163.552 83.6005 163.299C83.8538 163.033 83.9805 162.716 83.9805 162.349C83.9805 161.982 83.8538 161.671 83.6005 161.418C83.3471 161.152 83.0241 161.019 82.6315 161.019C82.2641 161.019 81.9475 161.152 81.6815 161.418C81.4281 161.671 81.3015 161.982 81.3015 162.349ZM94.3277 157.2L86.4237 173.35H88.4947L96.3417 157.2H94.3277ZM103.489 157.2L95.5846 173.35H97.6556L105.503 157.2H103.489ZM106.353 161.76L110.438 171.127L113.06 165.218L115.796 171.127L119.881 161.76H117.658L115.606 166.985L113.041 161.095L110.628 166.966L108.576 161.76H106.353ZM121.025 161.76L125.11 171.127L127.732 165.218L130.468 171.127L134.553 161.76H132.33L130.278 166.985L127.713 161.095L125.3 166.966L123.248 161.76H121.025ZM135.696 161.76L139.781 171.127L142.403 165.218L145.139 171.127L149.224 161.76H147.001L144.949 166.985L142.384 161.095L139.971 166.966L137.919 161.76H135.696ZM150.257 169.531C150.257 169.886 150.383 170.196 150.637 170.462C150.903 170.728 151.219 170.861 151.587 170.861C151.979 170.861 152.302 170.728 152.556 170.462C152.809 170.196 152.936 169.886 152.936 169.531C152.936 169.164 152.809 168.853 152.556 168.6C152.302 168.334 151.979 168.201 151.587 168.201C151.219 168.201 150.903 168.334 150.637 168.6C150.383 168.853 150.257 169.164 150.257 169.531ZM164.138 161.76H161.934L159.198 168.619L160.167 168.676L157.374 161.76H155.018L158.533 169.474L156.253 174.68H158.438L164.138 161.76ZM164.994 166.13C164.994 167.017 165.196 167.808 165.602 168.505C166.02 169.189 166.583 169.727 167.293 170.12C168.002 170.5 168.806 170.69 169.706 170.69C170.605 170.69 171.403 170.5 172.1 170.12C172.809 169.727 173.373 169.189 173.791 168.505C174.209 167.808 174.418 167.017 174.418 166.13C174.418 165.231 174.209 164.439 173.791 163.755C173.373 163.071 172.809 162.539 172.1 162.159C171.403 161.766 170.605 161.57 169.706 161.57C168.806 161.57 168.002 161.766 167.293 162.159C166.583 162.539 166.02 163.071 165.602 163.755C165.196 164.439 164.994 165.231 164.994 166.13ZM167.103 166.13C167.103 165.585 167.217 165.104 167.445 164.686C167.673 164.268 167.983 163.945 168.376 163.717C168.768 163.489 169.212 163.375 169.706 163.375C170.187 163.375 170.624 163.489 171.017 163.717C171.422 163.945 171.739 164.268 171.967 164.686C172.195 165.104 172.309 165.585 172.309 166.13C172.309 166.675 172.195 167.156 171.967 167.574C171.739 167.979 171.422 168.302 171.017 168.543C170.624 168.771 170.187 168.885 169.706 168.885C169.212 168.885 168.768 168.771 168.376 168.543C167.983 168.302 167.673 167.979 167.445 167.574C167.217 167.156 167.103 166.675 167.103 166.13ZM179.044 167.08V161.76H176.935V167.308C176.935 168.347 177.194 169.17 177.714 169.778C178.246 170.386 178.999 170.69 179.975 170.69C180.583 170.69 181.102 170.563 181.533 170.31C181.976 170.044 182.337 169.658 182.616 169.151V170.5H184.668V161.76H182.616V167.08C182.616 167.473 182.533 167.821 182.369 168.125C182.204 168.416 181.976 168.644 181.685 168.809C181.393 168.961 181.051 169.037 180.659 169.037C180.114 169.037 179.709 168.866 179.443 168.524C179.177 168.182 179.044 167.701 179.044 167.08ZM189.891 161.76H187.858V170.5H189.891V161.76ZM192.494 163.945L193.482 162.216C193.292 161.975 193.058 161.811 192.779 161.722C192.5 161.621 192.203 161.57 191.886 161.57C191.443 161.57 191.012 161.728 190.594 162.045C190.189 162.362 189.853 162.792 189.587 163.337C189.334 163.869 189.207 164.483 189.207 165.18L189.891 165.579C189.891 165.161 189.935 164.8 190.024 164.496C190.125 164.179 190.284 163.932 190.499 163.755C190.714 163.578 190.993 163.489 191.335 163.489C191.588 163.489 191.797 163.527 191.962 163.603C192.127 163.679 192.304 163.793 192.494 163.945ZM194.244 166.909H198.139V165.066H194.244V166.909ZM202.107 155.68H200.036V170.5H202.107V155.68ZM209.346 166.13C209.346 165.167 209.15 164.35 208.757 163.679C208.365 162.995 207.845 162.476 207.199 162.121C206.553 161.754 205.85 161.57 205.09 161.57C204.368 161.57 203.722 161.754 203.152 162.121C202.595 162.488 202.158 163.014 201.841 163.698C201.525 164.369 201.366 165.18 201.366 166.13C201.366 167.067 201.525 167.878 201.841 168.562C202.158 169.246 202.595 169.772 203.152 170.139C203.722 170.506 204.368 170.69 205.09 170.69C205.85 170.69 206.553 170.513 207.199 170.158C207.845 169.791 208.365 169.265 208.757 168.581C209.15 167.897 209.346 167.08 209.346 166.13ZM207.218 166.13C207.218 166.713 207.098 167.213 206.857 167.631C206.617 168.049 206.294 168.366 205.888 168.581C205.496 168.796 205.059 168.904 204.577 168.904C204.185 168.904 203.798 168.796 203.418 168.581C203.038 168.366 202.722 168.055 202.468 167.65C202.228 167.232 202.107 166.725 202.107 166.13C202.107 165.535 202.228 165.034 202.468 164.629C202.722 164.211 203.038 163.894 203.418 163.679C203.798 163.464 204.185 163.356 204.577 163.356C205.059 163.356 205.496 163.464 205.888 163.679C206.294 163.894 206.617 164.211 206.857 164.629C207.098 165.047 207.218 165.547 207.218 166.13ZM213.904 161.76H211.871V170.5H213.904V161.76ZM216.507 163.945L217.495 162.216C217.305 161.975 217.07 161.811 216.792 161.722C216.513 161.621 216.215 161.57 215.899 161.57C215.455 161.57 215.025 161.728 214.607 162.045C214.201 162.362 213.866 162.792 213.6 163.337C213.346 163.869 213.22 164.483 213.22 165.18L213.904 165.579C213.904 165.161 213.948 164.8 214.037 164.496C214.138 164.179 214.296 163.932 214.512 163.755C214.727 163.578 215.006 163.489 215.348 163.489C215.601 163.489 215.81 163.527 215.975 163.603C216.139 163.679 216.317 163.793 216.507 163.945ZM220.765 167.783C220.765 167.504 220.828 167.27 220.955 167.08C221.094 166.89 221.297 166.744 221.563 166.643C221.829 166.529 222.177 166.472 222.608 166.472C223.102 166.472 223.571 166.535 224.014 166.662C224.457 166.789 224.875 166.991 225.268 167.27V166.225C225.154 166.086 224.958 165.934 224.679 165.769C224.4 165.592 224.046 165.44 223.615 165.313C223.197 165.186 222.697 165.123 222.114 165.123C221.025 165.123 220.182 165.376 219.587 165.883C218.992 166.377 218.694 167.048 218.694 167.897C218.694 168.492 218.833 168.999 219.112 169.417C219.391 169.835 219.764 170.152 220.233 170.367C220.702 170.582 221.208 170.69 221.753 170.69C222.26 170.69 222.754 170.601 223.235 170.424C223.729 170.234 224.134 169.955 224.451 169.588C224.78 169.208 224.945 168.739 224.945 168.182L224.641 167.042C224.641 167.473 224.533 167.853 224.318 168.182C224.115 168.499 223.843 168.739 223.501 168.904C223.172 169.069 222.804 169.151 222.399 169.151C222.082 169.151 221.797 169.1 221.544 168.999C221.303 168.898 221.113 168.746 220.974 168.543C220.835 168.328 220.765 168.074 220.765 167.783ZM220.119 164.04C220.246 163.951 220.436 163.844 220.689 163.717C220.955 163.578 221.265 163.464 221.62 163.375C221.987 163.274 222.374 163.223 222.779 163.223C223.045 163.223 223.292 163.248 223.52 163.299C223.748 163.35 223.944 163.432 224.109 163.546C224.274 163.66 224.4 163.806 224.489 163.983C224.59 164.16 224.641 164.388 224.641 164.667V170.5H226.655V164.268C226.655 163.685 226.497 163.198 226.18 162.805C225.863 162.4 225.426 162.089 224.869 161.874C224.324 161.659 223.691 161.551 222.969 161.551C222.158 161.551 221.436 161.665 220.803 161.893C220.182 162.121 219.676 162.355 219.283 162.596L220.119 164.04ZM235.241 165.18V170.5H237.35V164.952C237.35 163.901 237.091 163.077 236.571 162.482C236.052 161.874 235.298 161.57 234.31 161.57C233.702 161.57 233.177 161.697 232.733 161.95C232.303 162.203 231.948 162.59 231.669 163.109V161.76H229.617V170.5H231.669V165.18C231.669 164.787 231.752 164.445 231.916 164.154C232.081 163.85 232.309 163.622 232.6 163.47C232.892 163.305 233.227 163.223 233.607 163.223C234.165 163.223 234.576 163.388 234.842 163.717C235.108 164.046 235.241 164.534 235.241 165.18ZM247.115 155.68V170.5H249.186V155.68H247.115ZM239.876 166.13C239.876 167.08 240.072 167.897 240.465 168.581C240.857 169.265 241.377 169.791 242.023 170.158C242.681 170.513 243.384 170.69 244.132 170.69C244.866 170.69 245.506 170.506 246.051 170.139C246.608 169.772 247.045 169.246 247.362 168.562C247.691 167.878 247.856 167.067 247.856 166.13C247.856 165.18 247.691 164.369 247.362 163.698C247.045 163.014 246.608 162.488 246.051 162.121C245.506 161.754 244.866 161.57 244.132 161.57C243.384 161.57 242.681 161.754 242.023 162.121C241.377 162.476 240.857 162.995 240.465 163.679C240.072 164.35 239.876 165.167 239.876 166.13ZM242.004 166.13C242.004 165.547 242.124 165.047 242.365 164.629C242.605 164.211 242.922 163.894 243.315 163.679C243.72 163.464 244.157 163.356 244.626 163.356C245.018 163.356 245.405 163.464 245.785 163.679C246.177 163.894 246.494 164.211 246.735 164.629C246.988 165.034 247.115 165.535 247.115 166.13C247.115 166.725 246.988 167.232 246.735 167.65C246.494 168.055 246.177 168.366 245.785 168.581C245.405 168.796 245.018 168.904 244.626 168.904C244.157 168.904 243.72 168.796 243.315 168.581C242.922 168.366 242.605 168.049 242.365 167.631C242.124 167.213 242.004 166.713 242.004 166.13ZM252.584 169.531C252.584 169.886 252.711 170.196 252.964 170.462C253.23 170.728 253.547 170.861 253.914 170.861C254.307 170.861 254.63 170.728 254.883 170.462C255.137 170.196 255.263 169.886 255.263 169.531C255.263 169.164 255.137 168.853 254.883 168.6C254.63 168.334 254.307 168.201 253.914 168.201C253.547 168.201 253.23 168.334 252.964 168.6C252.711 168.853 252.584 169.164 252.584 169.531ZM260.101 166.13C260.101 165.585 260.221 165.104 260.462 164.686C260.702 164.268 261.025 163.939 261.431 163.698C261.849 163.457 262.311 163.337 262.818 163.337C263.223 163.337 263.616 163.4 263.996 163.527C264.376 163.654 264.711 163.831 265.003 164.059C265.307 164.274 265.528 164.528 265.668 164.819V162.558C265.364 162.254 264.952 162.013 264.433 161.836C263.913 161.659 263.343 161.57 262.723 161.57C261.823 161.57 261.013 161.766 260.291 162.159C259.581 162.539 259.018 163.071 258.6 163.755C258.194 164.439 257.992 165.231 257.992 166.13C257.992 167.017 258.194 167.808 258.6 168.505C259.018 169.189 259.581 169.727 260.291 170.12C261.013 170.5 261.823 170.69 262.723 170.69C263.343 170.69 263.913 170.601 264.433 170.424C264.952 170.247 265.364 170.006 265.668 169.702V167.441C265.528 167.72 265.313 167.973 265.022 168.201C264.73 168.429 264.395 168.606 264.015 168.733C263.635 168.86 263.236 168.923 262.818 168.923C262.311 168.923 261.849 168.803 261.431 168.562C261.025 168.321 260.702 167.998 260.462 167.593C260.221 167.175 260.101 166.687 260.101 166.13ZM267.841 166.13C267.841 167.017 268.043 167.808 268.449 168.505C268.867 169.189 269.43 169.727 270.14 170.12C270.849 170.5 271.653 170.69 272.553 170.69C273.452 170.69 274.25 170.5 274.947 170.12C275.656 169.727 276.22 169.189 276.638 168.505C277.056 167.808 277.265 167.017 277.265 166.13C277.265 165.231 277.056 164.439 276.638 163.755C276.22 163.071 275.656 162.539 274.947 162.159C274.25 161.766 273.452 161.57 272.553 161.57C271.653 161.57 270.849 161.766 270.14 162.159C269.43 162.539 268.867 163.071 268.449 163.755C268.043 164.439 267.841 165.231 267.841 166.13ZM269.95 166.13C269.95 165.585 270.064 165.104 270.292 164.686C270.52 164.268 270.83 163.945 271.223 163.717C271.615 163.489 272.059 163.375 272.553 163.375C273.034 163.375 273.471 163.489 273.864 163.717C274.269 163.945 274.586 164.268 274.814 164.686C275.042 165.104 275.156 165.585 275.156 166.13C275.156 166.675 275.042 167.156 274.814 167.574C274.586 167.979 274.269 168.302 273.864 168.543C273.471 168.771 273.034 168.885 272.553 168.885C272.059 168.885 271.615 168.771 271.223 168.543C270.83 168.302 270.52 167.979 270.292 167.574C270.064 167.156 269.95 166.675 269.95 166.13ZM292.284 164.952C292.284 164.23 292.182 163.616 291.98 163.109C291.777 162.602 291.467 162.222 291.049 161.969C290.643 161.703 290.13 161.57 289.51 161.57C288.914 161.57 288.382 161.703 287.914 161.969C287.458 162.235 287.078 162.621 286.774 163.128C286.584 162.621 286.273 162.235 285.843 161.969C285.425 161.703 284.893 161.57 284.247 161.57C283.689 161.57 283.202 161.697 282.784 161.95C282.378 162.191 282.049 162.552 281.796 163.033V161.76H279.782V170.5H281.796V165.18C281.796 164.762 281.865 164.407 282.005 164.116C282.144 163.825 282.34 163.603 282.594 163.451C282.86 163.299 283.17 163.223 283.525 163.223C284.031 163.223 284.399 163.388 284.627 163.717C284.867 164.034 284.988 164.521 284.988 165.18V170.5H287.04V165.18C287.04 164.762 287.109 164.407 287.249 164.116C287.401 163.825 287.603 163.603 287.857 163.451C288.123 163.299 288.427 163.223 288.769 163.223C289.275 163.223 289.643 163.388 289.871 163.717C290.111 164.034 290.232 164.521 290.232 165.18V170.5H292.284V164.952ZM302.352 157.2L294.448 173.35H296.519L304.366 157.2H302.352ZM308.579 155.68H306.527V170.5H308.579V155.68ZM312.151 165.18V170.5H314.222V164.895C314.222 164.148 314.108 163.527 313.88 163.033C313.652 162.526 313.31 162.146 312.854 161.893C312.411 161.64 311.866 161.513 311.22 161.513C310.562 161.513 309.998 161.678 309.529 162.007C309.073 162.336 308.719 162.773 308.465 163.318C308.212 163.863 308.085 164.483 308.085 165.18H308.579C308.579 164.787 308.662 164.445 308.826 164.154C308.991 163.863 309.219 163.635 309.51 163.47C309.802 163.305 310.137 163.223 310.517 163.223C311.087 163.223 311.499 163.388 311.752 163.717C312.018 164.046 312.151 164.534 312.151 165.18ZM316.73 166.13C316.73 167.017 316.933 167.808 317.338 168.505C317.756 169.189 318.32 169.727 319.029 170.12C319.738 170.5 320.543 170.69 321.442 170.69C322.341 170.69 323.139 170.5 323.836 170.12C324.545 169.727 325.109 169.189 325.527 168.505C325.945 167.808 326.154 167.017 326.154 166.13C326.154 165.231 325.945 164.439 325.527 163.755C325.109 163.071 324.545 162.539 323.836 162.159C323.139 161.766 322.341 161.57 321.442 161.57C320.543 161.57 319.738 161.766 319.029 162.159C318.32 162.539 317.756 163.071 317.338 163.755C316.933 164.439 316.73 165.231 316.73 166.13ZM318.839 166.13C318.839 165.585 318.953 165.104 319.181 164.686C319.409 164.268 319.719 163.945 320.112 163.717C320.505 163.489 320.948 163.375 321.442 163.375C321.923 163.375 322.36 163.489 322.753 163.717C323.158 163.945 323.475 164.268 323.703 164.686C323.931 165.104 324.045 165.585 324.045 166.13C324.045 166.675 323.931 167.156 323.703 167.574C323.475 167.979 323.158 168.302 322.753 168.543C322.36 168.771 321.923 168.885 321.442 168.885C320.948 168.885 320.505 168.771 320.112 168.543C319.719 168.302 319.409 167.979 319.181 167.574C318.953 167.156 318.839 166.675 318.839 166.13ZM341.173 164.952C341.173 164.23 341.072 163.616 340.869 163.109C340.666 162.602 340.356 162.222 339.938 161.969C339.533 161.703 339.02 161.57 338.399 161.57C337.804 161.57 337.272 161.703 336.803 161.969C336.347 162.235 335.967 162.621 335.663 163.128C335.473 162.621 335.163 162.235 334.732 161.969C334.314 161.703 333.782 161.57 333.136 161.57C332.579 161.57 332.091 161.697 331.673 161.95C331.268 162.191 330.938 162.552 330.685 163.033V161.76H328.671V170.5H330.685V165.18C330.685 164.762 330.755 164.407 330.894 164.116C331.033 163.825 331.23 163.603 331.483 163.451C331.749 163.299 332.059 163.223 332.414 163.223C332.921 163.223 333.288 163.388 333.516 163.717C333.757 164.034 333.877 164.521 333.877 165.18V170.5H335.929V165.18C335.929 164.762 335.999 164.407 336.138 164.116C336.29 163.825 336.493 163.603 336.746 163.451C337.012 163.299 337.316 163.223 337.658 163.223C338.165 163.223 338.532 163.388 338.76 163.717C339.001 164.034 339.121 164.521 339.121 165.18V170.5H341.173V164.952ZM348.163 170.69C349.176 170.69 350.044 170.494 350.766 170.101C351.488 169.708 352.077 169.119 352.533 168.334L350.766 167.612C350.487 168.081 350.139 168.429 349.721 168.657C349.303 168.885 348.815 168.999 348.258 168.999C347.726 168.999 347.27 168.885 346.89 168.657C346.523 168.429 346.244 168.1 346.054 167.669C345.864 167.226 345.769 166.687 345.769 166.054C345.782 165.421 345.883 164.889 346.073 164.458C346.263 164.027 346.542 163.698 346.909 163.47C347.276 163.242 347.72 163.128 348.239 163.128C348.67 163.128 349.043 163.223 349.36 163.413C349.689 163.603 349.943 163.869 350.12 164.211C350.31 164.553 350.405 164.958 350.405 165.427C350.405 165.516 350.38 165.63 350.329 165.769C350.291 165.896 350.253 165.997 350.215 166.073L350.842 165.199H344.914V166.605H352.59C352.603 166.554 352.609 166.472 352.609 166.358C352.622 166.244 352.628 166.136 352.628 166.035C352.628 165.098 352.451 164.3 352.096 163.641C351.754 162.97 351.26 162.457 350.614 162.102C349.968 161.747 349.183 161.57 348.258 161.57C347.333 161.57 346.529 161.76 345.845 162.14C345.161 162.507 344.629 163.033 344.249 163.717C343.882 164.401 343.698 165.205 343.698 166.13C343.698 167.042 343.882 167.84 344.249 168.524C344.616 169.208 345.136 169.74 345.807 170.12C346.491 170.5 347.276 170.69 348.163 170.69ZM361.089 157.2L353.185 173.35H355.256L363.103 157.2H361.089ZM365.11 166.13C365.11 165.585 365.231 165.104 365.471 164.686C365.712 164.268 366.035 163.939 366.44 163.698C366.858 163.457 367.321 163.337 367.827 163.337C368.233 163.337 368.625 163.4 369.005 163.527C369.385 163.654 369.721 163.831 370.012 164.059C370.316 164.274 370.538 164.528 370.677 164.819V162.558C370.373 162.254 369.962 162.013 369.442 161.836C368.923 161.659 368.353 161.57 367.732 161.57C366.833 161.57 366.022 161.766 365.3 162.159C364.591 162.539 364.027 163.071 363.609 163.755C363.204 164.439 363.001 165.231 363.001 166.13C363.001 167.017 363.204 167.808 363.609 168.505C364.027 169.189 364.591 169.727 365.3 170.12C366.022 170.5 366.833 170.69 367.732 170.69C368.353 170.69 368.923 170.601 369.442 170.424C369.962 170.247 370.373 170.006 370.677 169.702V167.441C370.538 167.72 370.323 167.973 370.031 168.201C369.74 168.429 369.404 168.606 369.024 168.733C368.644 168.86 368.245 168.923 367.827 168.923C367.321 168.923 366.858 168.803 366.44 168.562C366.035 168.321 365.712 167.998 365.471 167.593C365.231 167.175 365.11 166.687 365.11 166.13ZM374.808 167.783C374.808 167.504 374.871 167.27 374.998 167.08C375.137 166.89 375.34 166.744 375.606 166.643C375.872 166.529 376.22 166.472 376.651 166.472C377.145 166.472 377.613 166.535 378.057 166.662C378.5 166.789 378.918 166.991 379.311 167.27V166.225C379.197 166.086 379 165.934 378.722 165.769C378.443 165.592 378.088 165.44 377.658 165.313C377.24 165.186 376.739 165.123 376.157 165.123C375.067 165.123 374.225 165.376 373.63 165.883C373.034 166.377 372.737 167.048 372.737 167.897C372.737 168.492 372.876 168.999 373.155 169.417C373.433 169.835 373.807 170.152 374.276 170.367C374.744 170.582 375.251 170.69 375.796 170.69C376.302 170.69 376.796 170.601 377.278 170.424C377.772 170.234 378.177 169.955 378.494 169.588C378.823 169.208 378.988 168.739 378.988 168.182L378.684 167.042C378.684 167.473 378.576 167.853 378.361 168.182C378.158 168.499 377.886 168.739 377.544 168.904C377.214 169.069 376.847 169.151 376.442 169.151C376.125 169.151 375.84 169.1 375.587 168.999C375.346 168.898 375.156 168.746 375.017 168.543C374.877 168.328 374.808 168.074 374.808 167.783ZM374.162 164.04C374.288 163.951 374.478 163.844 374.732 163.717C374.998 163.578 375.308 163.464 375.663 163.375C376.03 163.274 376.416 163.223 376.822 163.223C377.088 163.223 377.335 163.248 377.563 163.299C377.791 163.35 377.987 163.432 378.152 163.546C378.316 163.66 378.443 163.806 378.532 163.983C378.633 164.16 378.684 164.388 378.684 164.667V170.5H380.698V164.268C380.698 163.685 380.539 163.198 380.223 162.805C379.906 162.4 379.469 162.089 378.912 161.874C378.367 161.659 377.734 161.551 377.012 161.551C376.201 161.551 375.479 161.665 374.846 161.893C374.225 162.121 373.718 162.355 373.326 162.596L374.162 164.04ZM382.444 161.76V163.565H387.403V161.76H382.444ZM383.907 158.72V170.5H385.94V158.72H383.907ZM393.188 170.69C394.201 170.69 395.069 170.494 395.791 170.101C396.513 169.708 397.102 169.119 397.558 168.334L395.791 167.612C395.512 168.081 395.164 168.429 394.746 168.657C394.328 168.885 393.84 168.999 393.283 168.999C392.751 168.999 392.295 168.885 391.915 168.657C391.548 168.429 391.269 168.1 391.079 167.669C390.889 167.226 390.794 166.687 390.794 166.054C390.807 165.421 390.908 164.889 391.098 164.458C391.288 164.027 391.567 163.698 391.934 163.47C392.301 163.242 392.745 163.128 393.264 163.128C393.695 163.128 394.068 163.223 394.385 163.413C394.714 163.603 394.968 163.869 395.145 164.211C395.335 164.553 395.43 164.958 395.43 165.427C395.43 165.516 395.405 165.63 395.354 165.769C395.316 165.896 395.278 165.997 395.24 166.073L395.867 165.199H389.939V166.605H397.615C397.628 166.554 397.634 166.472 397.634 166.358C397.647 166.244 397.653 166.136 397.653 166.035C397.653 165.098 397.476 164.3 397.121 163.641C396.779 162.97 396.285 162.457 395.639 162.102C394.993 161.747 394.208 161.57 393.283 161.57C392.358 161.57 391.554 161.76 390.87 162.14C390.186 162.507 389.654 163.033 389.274 163.717C388.907 164.401 388.723 165.205 388.723 166.13C388.723 167.042 388.907 167.84 389.274 168.524C389.641 169.208 390.161 169.74 390.832 170.12C391.516 170.5 392.301 170.69 393.188 170.69ZM399.688 171.089C399.713 171.849 399.903 172.52 400.258 173.103C400.625 173.686 401.144 174.135 401.816 174.452C402.487 174.781 403.298 174.946 404.248 174.946C405.046 174.946 405.787 174.775 406.471 174.433C407.155 174.104 407.706 173.597 408.124 172.913C408.554 172.229 408.77 171.361 408.77 170.31V161.76H406.756V170.31C406.756 170.969 406.629 171.507 406.376 171.925C406.135 172.343 405.818 172.653 405.426 172.856C405.033 173.059 404.621 173.16 404.191 173.16C403.709 173.16 403.285 173.071 402.918 172.894C402.55 172.717 402.259 172.47 402.044 172.153C401.841 171.836 401.733 171.482 401.721 171.089H399.688ZM399.517 166.092C399.517 167.042 399.713 167.853 400.106 168.524C400.498 169.195 401.018 169.708 401.664 170.063C402.322 170.418 403.025 170.595 403.773 170.595C404.507 170.595 405.147 170.418 405.692 170.063C406.249 169.696 406.686 169.176 407.003 168.505C407.332 167.834 407.497 167.029 407.497 166.092C407.497 165.142 407.332 164.331 407.003 163.66C406.686 162.989 406.249 162.476 405.692 162.121C405.147 161.754 404.507 161.57 403.773 161.57C403.025 161.57 402.322 161.747 401.664 162.102C401.018 162.457 400.498 162.97 400.106 163.641C399.713 164.3 399.517 165.117 399.517 166.092ZM401.645 166.092C401.645 165.497 401.765 164.996 402.006 164.591C402.246 164.186 402.563 163.882 402.956 163.679C403.361 163.464 403.798 163.356 404.267 163.356C404.558 163.356 404.849 163.413 405.141 163.527C405.445 163.641 405.717 163.818 405.958 164.059C406.198 164.287 406.388 164.572 406.528 164.914C406.68 165.243 406.756 165.636 406.756 166.092C406.756 166.675 406.629 167.175 406.376 167.593C406.135 167.998 405.818 168.302 405.426 168.505C405.046 168.708 404.659 168.809 404.267 168.809C403.798 168.809 403.361 168.708 402.956 168.505C402.563 168.29 402.246 167.979 402.006 167.574C401.765 167.169 401.645 166.675 401.645 166.092ZM411.219 166.13C411.219 167.017 411.422 167.808 411.827 168.505C412.245 169.189 412.809 169.727 413.518 170.12C414.228 170.5 415.032 170.69 415.931 170.69C416.831 170.69 417.629 170.5 418.325 170.12C419.035 169.727 419.598 169.189 420.016 168.505C420.434 167.808 420.643 167.017 420.643 166.13C420.643 165.231 420.434 164.439 420.016 163.755C419.598 163.071 419.035 162.539 418.325 162.159C417.629 161.766 416.831 161.57 415.931 161.57C415.032 161.57 414.228 161.766 413.518 162.159C412.809 162.539 412.245 163.071 411.827 163.755C411.422 164.439 411.219 165.231 411.219 166.13ZM413.328 166.13C413.328 165.585 413.442 165.104 413.67 164.686C413.898 164.268 414.209 163.945 414.601 163.717C414.994 163.489 415.437 163.375 415.931 163.375C416.413 163.375 416.85 163.489 417.242 163.717C417.648 163.945 417.964 164.268 418.192 164.686C418.42 165.104 418.534 165.585 418.534 166.13C418.534 166.675 418.42 167.156 418.192 167.574C417.964 167.979 417.648 168.302 417.242 168.543C416.85 168.771 416.413 168.885 415.931 168.885C415.437 168.885 414.994 168.771 414.601 168.543C414.209 168.302 413.898 167.979 413.67 167.574C413.442 167.156 413.328 166.675 413.328 166.13ZM425.193 161.76H423.16V170.5H425.193V161.76ZM427.796 163.945L428.784 162.216C428.594 161.975 428.36 161.811 428.081 161.722C427.803 161.621 427.505 161.57 427.188 161.57C426.745 161.57 426.314 161.728 425.896 162.045C425.491 162.362 425.155 162.792 424.889 163.337C424.636 163.869 424.509 164.483 424.509 165.18L425.193 165.579C425.193 165.161 425.238 164.8 425.326 164.496C425.428 164.179 425.586 163.932 425.801 163.755C426.017 163.578 426.295 163.489 426.637 163.489C426.891 163.489 427.1 163.527 427.264 163.603C427.429 163.679 427.606 163.793 427.796 163.945ZM439.071 161.76H436.867L434.131 168.619L435.1 168.676L432.307 161.76H429.951L433.466 169.474L431.186 174.68H433.371L439.071 161.76ZM446.616 157.2L438.712 173.35H440.783L448.63 157.2H446.616ZM451.45 174.68V161.76H449.379V174.68H451.45ZM458.689 166.13C458.689 165.155 458.493 164.325 458.1 163.641C457.708 162.957 457.188 162.438 456.542 162.083C455.896 161.716 455.193 161.532 454.433 161.532C453.686 161.532 453.034 161.722 452.476 162.102C451.932 162.469 451.507 162.995 451.203 163.679C450.912 164.363 450.766 165.18 450.766 166.13C450.766 167.067 450.912 167.884 451.203 168.581C451.507 169.265 451.932 169.797 452.476 170.177C453.034 170.544 453.686 170.728 454.433 170.728C455.193 170.728 455.896 170.551 456.542 170.196C457.188 169.829 457.708 169.303 458.1 168.619C458.493 167.922 458.689 167.093 458.689 166.13ZM456.561 166.13C456.561 166.713 456.441 167.213 456.2 167.631C455.96 168.036 455.637 168.347 455.231 168.562C454.839 168.765 454.402 168.866 453.92 168.866C453.528 168.866 453.141 168.765 452.761 168.562C452.381 168.347 452.065 168.036 451.811 167.631C451.571 167.226 451.45 166.725 451.45 166.13C451.45 165.535 451.571 165.034 451.811 164.629C452.065 164.224 452.381 163.92 452.761 163.717C453.141 163.502 453.528 163.394 453.92 163.394C454.402 163.394 454.839 163.502 455.231 163.717C455.637 163.92 455.96 164.23 456.2 164.648C456.441 165.053 456.561 165.547 456.561 166.13ZM463.247 161.76H461.214V170.5H463.247V161.76ZM465.85 163.945L466.838 162.216C466.648 161.975 466.414 161.811 466.135 161.722C465.856 161.621 465.559 161.57 465.242 161.57C464.799 161.57 464.368 161.728 463.95 162.045C463.545 162.362 463.209 162.792 462.943 163.337C462.69 163.869 462.563 164.483 462.563 165.18L463.247 165.579C463.247 165.161 463.291 164.8 463.38 164.496C463.481 164.179 463.64 163.932 463.855 163.755C464.07 163.578 464.349 163.489 464.691 163.489C464.944 163.489 465.153 163.527 465.318 163.603C465.483 163.679 465.66 163.793 465.85 163.945ZM467.873 166.13C467.873 167.017 468.075 167.808 468.481 168.505C468.899 169.189 469.462 169.727 470.172 170.12C470.881 170.5 471.685 170.69 472.585 170.69C473.484 170.69 474.282 170.5 474.979 170.12C475.688 169.727 476.252 169.189 476.67 168.505C477.088 167.808 477.297 167.017 477.297 166.13C477.297 165.231 477.088 164.439 476.67 163.755C476.252 163.071 475.688 162.539 474.979 162.159C474.282 161.766 473.484 161.57 472.585 161.57C471.685 161.57 470.881 161.766 470.172 162.159C469.462 162.539 468.899 163.071 468.481 163.755C468.075 164.439 467.873 165.231 467.873 166.13ZM469.982 166.13C469.982 165.585 470.096 165.104 470.324 164.686C470.552 164.268 470.862 163.945 471.255 163.717C471.647 163.489 472.091 163.375 472.585 163.375C473.066 163.375 473.503 163.489 473.896 163.717C474.301 163.945 474.618 164.268 474.846 164.686C475.074 165.104 475.188 165.585 475.188 166.13C475.188 166.675 475.074 167.156 474.846 167.574C474.618 167.979 474.301 168.302 473.896 168.543C473.503 168.771 473.066 168.885 472.585 168.885C472.091 168.885 471.647 168.771 471.255 168.543C470.862 168.302 470.552 167.979 470.324 167.574C470.096 167.156 469.982 166.675 469.982 166.13ZM486.388 155.68V170.5H488.459V155.68H486.388ZM479.149 166.13C479.149 167.08 479.345 167.897 479.738 168.581C480.131 169.265 480.65 169.791 481.296 170.158C481.955 170.513 482.658 170.69 483.405 170.69C484.14 170.69 484.779 170.506 485.324 170.139C485.881 169.772 486.318 169.246 486.635 168.562C486.964 167.878 487.129 167.067 487.129 166.13C487.129 165.18 486.964 164.369 486.635 163.698C486.318 163.014 485.881 162.488 485.324 162.121C484.779 161.754 484.14 161.57 483.405 161.57C482.658 161.57 481.955 161.754 481.296 162.121C480.65 162.476 480.131 162.995 479.738 163.679C479.345 164.35 479.149 165.167 479.149 166.13ZM481.277 166.13C481.277 165.547 481.397 165.047 481.638 164.629C481.879 164.211 482.195 163.894 482.588 163.679C482.993 163.464 483.43 163.356 483.899 163.356C484.292 163.356 484.678 163.464 485.058 163.679C485.451 163.894 485.767 164.211 486.008 164.629C486.261 165.034 486.388 165.535 486.388 166.13C486.388 166.725 486.261 167.232 486.008 167.65C485.767 168.055 485.451 168.366 485.058 168.581C484.678 168.796 484.292 168.904 483.899 168.904C483.43 168.904 482.993 168.796 482.588 168.581C482.195 168.366 481.879 168.049 481.638 167.631C481.397 167.213 481.277 166.713 481.277 166.13ZM493.681 167.08V161.76H491.572V167.308C491.572 168.347 491.832 169.17 492.351 169.778C492.883 170.386 493.637 170.69 494.612 170.69C495.22 170.69 495.74 170.563 496.17 170.31C496.614 170.044 496.975 169.658 497.253 169.151V170.5H499.305V161.76H497.253V167.08C497.253 167.473 497.171 167.821 497.006 168.125C496.842 168.416 496.614 168.644 496.322 168.809C496.031 168.961 495.689 169.037 495.296 169.037C494.752 169.037 494.346 168.866 494.08 168.524C493.814 168.182 493.681 167.701 493.681 167.08ZM503.864 166.13C503.864 165.585 503.984 165.104 504.225 164.686C504.466 164.268 504.789 163.939 505.194 163.698C505.612 163.457 506.074 163.337 506.581 163.337C506.986 163.337 507.379 163.4 507.759 163.527C508.139 163.654 508.475 163.831 508.766 164.059C509.07 164.274 509.292 164.528 509.431 164.819V162.558C509.127 162.254 508.715 162.013 508.196 161.836C507.677 161.659 507.107 161.57 506.486 161.57C505.587 161.57 504.776 161.766 504.054 162.159C503.345 162.539 502.781 163.071 502.363 163.755C501.958 164.439 501.755 165.231 501.755 166.13C501.755 167.017 501.958 167.808 502.363 168.505C502.781 169.189 503.345 169.727 504.054 170.12C504.776 170.5 505.587 170.69 506.486 170.69C507.107 170.69 507.677 170.601 508.196 170.424C508.715 170.247 509.127 170.006 509.431 169.702V167.441C509.292 167.72 509.076 167.973 508.785 168.201C508.494 168.429 508.158 168.606 507.778 168.733C507.398 168.86 506.999 168.923 506.581 168.923C506.074 168.923 505.612 168.803 505.194 168.562C504.789 168.321 504.466 167.998 504.225 167.593C503.984 167.175 503.864 166.687 503.864 166.13ZM511.053 161.76V163.565H516.012V161.76H511.053ZM512.516 158.72V170.5H514.549V158.72H512.516Z" fill="#454545"/>
<path d="M271.637 226.914C272.418 227.695 273.685 227.695 274.466 226.914L287.194 214.186C287.975 213.405 287.975 212.139 287.194 211.358C286.413 210.577 285.146 210.577 284.365 211.358L273.052 222.672L261.738 211.358C260.957 210.577 259.69 210.577 258.909 211.358C258.128 212.139 258.128 213.405 258.909 214.186L271.637 226.914ZM275.052 194.5C275.052 193.395 274.156 192.5 273.052 192.5C271.947 192.5 271.052 193.395 271.052 194.5H275.052ZM275.052 225.5V194.5H271.052V225.5H275.052Z" fill="#686868"/>
<g filter="url(#filter1_d_1421_20008)">
<rect x="146" y="236.5" width="275" height="38" rx="19" fill="#5E9BF0"/>
</g>
<path d="M193.363 246.18H191.311V261H193.363V246.18ZM196.935 255.68V261H199.006V255.395C199.006 254.648 198.892 254.027 198.664 253.533C198.436 253.026 198.094 252.646 197.638 252.393C197.195 252.14 196.65 252.013 196.004 252.013C195.345 252.013 194.782 252.178 194.313 252.507C193.857 252.836 193.502 253.273 193.249 253.818C192.996 254.363 192.869 254.983 192.869 255.68H193.363C193.363 255.287 193.445 254.945 193.61 254.654C193.775 254.363 194.003 254.135 194.294 253.97C194.585 253.805 194.921 253.723 195.301 253.723C195.871 253.723 196.283 253.888 196.536 254.217C196.802 254.546 196.935 255.034 196.935 255.68ZM200.963 252.26V254.065H205.922V252.26H200.963ZM202.426 249.22V261H204.459V249.22H202.426ZM206.691 252.26V254.065H211.65V252.26H206.691ZM208.154 249.22V261H210.187V249.22H208.154ZM215.63 265.18V252.26H213.559V265.18H215.63ZM222.869 256.63C222.869 255.655 222.673 254.825 222.28 254.141C221.888 253.457 221.368 252.938 220.722 252.583C220.076 252.216 219.373 252.032 218.613 252.032C217.866 252.032 217.214 252.222 216.656 252.602C216.112 252.969 215.687 253.495 215.383 254.179C215.092 254.863 214.946 255.68 214.946 256.63C214.946 257.567 215.092 258.384 215.383 259.081C215.687 259.765 216.112 260.297 216.656 260.677C217.214 261.044 217.866 261.228 218.613 261.228C219.373 261.228 220.076 261.051 220.722 260.696C221.368 260.329 221.888 259.803 222.28 259.119C222.673 258.422 222.869 257.593 222.869 256.63ZM220.741 256.63C220.741 257.213 220.621 257.713 220.38 258.131C220.14 258.536 219.817 258.847 219.411 259.062C219.019 259.265 218.582 259.366 218.1 259.366C217.708 259.366 217.321 259.265 216.941 259.062C216.561 258.847 216.245 258.536 215.991 258.131C215.751 257.726 215.63 257.225 215.63 256.63C215.63 256.035 215.751 255.534 215.991 255.129C216.245 254.724 216.561 254.42 216.941 254.217C217.321 254.002 217.708 253.894 218.1 253.894C218.582 253.894 219.019 254.002 219.411 254.217C219.817 254.42 220.14 254.73 220.38 255.148C220.621 255.553 220.741 256.047 220.741 256.63ZM225.793 258.131L224.596 259.328C224.849 259.657 225.159 259.974 225.527 260.278C225.907 260.569 226.344 260.81 226.838 261C227.344 261.177 227.895 261.266 228.491 261.266C229.453 261.266 230.213 261.019 230.771 260.525C231.341 260.018 231.626 259.353 231.626 258.53C231.626 257.998 231.499 257.567 231.246 257.238C231.005 256.909 230.682 256.63 230.277 256.402C229.871 256.174 229.428 255.965 228.947 255.775C228.592 255.636 228.269 255.503 227.978 255.376C227.699 255.249 227.471 255.11 227.294 254.958C227.129 254.793 227.047 254.61 227.047 254.407C227.047 254.166 227.142 253.983 227.332 253.856C227.522 253.729 227.762 253.666 228.054 253.666C228.484 253.666 228.902 253.774 229.308 253.989C229.713 254.204 230.061 254.483 230.353 254.825L231.493 253.609C231.252 253.318 230.961 253.058 230.619 252.83C230.277 252.602 229.89 252.418 229.46 252.279C229.042 252.14 228.592 252.07 228.111 252.07C227.579 252.07 227.078 252.159 226.61 252.336C226.154 252.501 225.786 252.76 225.508 253.115C225.242 253.47 225.109 253.913 225.109 254.445C225.109 254.964 225.229 255.395 225.47 255.737C225.723 256.079 226.04 256.358 226.42 256.573C226.812 256.776 227.205 256.953 227.598 257.105C227.99 257.244 228.332 257.384 228.624 257.523C228.915 257.65 229.143 257.808 229.308 257.998C229.472 258.175 229.555 258.391 229.555 258.644C229.555 258.935 229.447 259.163 229.232 259.328C229.029 259.493 228.744 259.575 228.377 259.575C228.085 259.575 227.794 259.524 227.503 259.423C227.211 259.309 226.92 259.144 226.629 258.929C226.35 258.701 226.071 258.435 225.793 258.131ZM234.301 260.031C234.301 260.386 234.428 260.696 234.681 260.962C234.947 261.228 235.264 261.361 235.631 261.361C236.024 261.361 236.347 261.228 236.6 260.962C236.854 260.696 236.98 260.386 236.98 260.031C236.98 259.664 236.854 259.353 236.6 259.1C236.347 258.834 236.024 258.701 235.631 258.701C235.264 258.701 234.947 258.834 234.681 259.1C234.428 259.353 234.301 259.664 234.301 260.031ZM234.301 252.849C234.301 253.216 234.428 253.533 234.681 253.799C234.947 254.052 235.264 254.179 235.631 254.179C236.024 254.179 236.347 254.052 236.6 253.799C236.854 253.533 236.98 253.216 236.98 252.849C236.98 252.482 236.854 252.171 236.6 251.918C236.347 251.652 236.024 251.519 235.631 251.519C235.264 251.519 234.947 251.652 234.681 251.918C234.428 252.171 234.301 252.482 234.301 252.849ZM247.328 247.7L239.424 263.85H241.495L249.342 247.7H247.328ZM256.489 247.7L248.585 263.85H250.656L258.503 247.7H256.489ZM271.83 255.452C271.83 254.73 271.729 254.116 271.526 253.609C271.323 253.102 271.013 252.722 270.595 252.469C270.19 252.203 269.677 252.07 269.056 252.07C268.461 252.07 267.929 252.203 267.46 252.469C267.004 252.735 266.624 253.121 266.32 253.628C266.13 253.121 265.82 252.735 265.389 252.469C264.971 252.203 264.439 252.07 263.793 252.07C263.236 252.07 262.748 252.197 262.33 252.45C261.925 252.691 261.595 253.052 261.342 253.533V252.26H259.328V261H261.342V255.68C261.342 255.262 261.412 254.907 261.551 254.616C261.69 254.325 261.887 254.103 262.14 253.951C262.406 253.799 262.716 253.723 263.071 253.723C263.578 253.723 263.945 253.888 264.173 254.217C264.414 254.534 264.534 255.021 264.534 255.68V261H266.586V255.68C266.586 255.262 266.656 254.907 266.795 254.616C266.947 254.325 267.15 254.103 267.403 253.951C267.669 253.799 267.973 253.723 268.315 253.723C268.822 253.723 269.189 253.888 269.417 254.217C269.658 254.534 269.778 255.021 269.778 255.68V261H271.83V255.452ZM275.305 260.031C275.305 260.386 275.432 260.696 275.685 260.962C275.951 261.228 276.268 261.361 276.635 261.361C277.028 261.361 277.351 261.228 277.604 260.962C277.857 260.696 277.984 260.386 277.984 260.031C277.984 259.664 277.857 259.353 277.604 259.1C277.351 258.834 277.028 258.701 276.635 258.701C276.268 258.701 275.951 258.834 275.685 259.1C275.432 259.353 275.305 259.664 275.305 260.031ZM288.654 252.184C288.654 252.729 288.534 253.21 288.293 253.628C288.065 254.046 287.749 254.375 287.343 254.616C286.938 254.857 286.482 254.977 285.975 254.977C285.456 254.977 284.994 254.857 284.588 254.616C284.183 254.375 283.86 254.046 283.619 253.628C283.391 253.21 283.277 252.729 283.277 252.184C283.277 251.639 283.391 251.164 283.619 250.759C283.86 250.341 284.183 250.018 284.588 249.79C284.994 249.549 285.456 249.429 285.975 249.429C286.482 249.429 286.938 249.549 287.343 249.79C287.749 250.018 288.065 250.341 288.293 250.759C288.534 251.164 288.654 251.639 288.654 252.184ZM285.5 260.981L289.718 255.319C290.048 254.888 290.314 254.413 290.516 253.894C290.732 253.375 290.839 252.805 290.839 252.184C290.839 251.196 290.624 250.354 290.193 249.657C289.763 248.948 289.18 248.409 288.445 248.042C287.711 247.662 286.887 247.472 285.975 247.472C285.063 247.472 284.24 247.662 283.505 248.042C282.771 248.409 282.182 248.948 281.738 249.657C281.308 250.354 281.092 251.196 281.092 252.184C281.092 252.817 281.2 253.4 281.415 253.932C281.631 254.464 281.922 254.926 282.289 255.319C282.669 255.699 283.1 255.99 283.581 256.193C284.063 256.396 284.569 256.497 285.101 256.497C285.545 256.497 285.931 256.446 286.26 256.345C286.59 256.244 286.906 256.028 287.21 255.699L286.868 255.756L282.65 260.981H285.5ZM305.807 255.452C305.807 254.73 305.705 254.116 305.503 253.609C305.3 253.102 304.99 252.722 304.572 252.469C304.166 252.203 303.653 252.07 303.033 252.07C302.437 252.07 301.905 252.203 301.437 252.469C300.981 252.735 300.601 253.121 300.297 253.628C300.107 253.121 299.796 252.735 299.366 252.469C298.948 252.203 298.416 252.07 297.77 252.07C297.212 252.07 296.725 252.197 296.307 252.45C295.901 252.691 295.572 253.052 295.319 253.533V252.26H293.305V261H295.319V255.68C295.319 255.262 295.388 254.907 295.528 254.616C295.667 254.325 295.863 254.103 296.117 253.951C296.383 253.799 296.693 253.723 297.048 253.723C297.554 253.723 297.922 253.888 298.15 254.217C298.39 254.534 298.511 255.021 298.511 255.68V261H300.563V255.68C300.563 255.262 300.632 254.907 300.772 254.616C300.924 254.325 301.126 254.103 301.38 253.951C301.646 253.799 301.95 253.723 302.292 253.723C302.798 253.723 303.166 253.888 303.394 254.217C303.634 254.534 303.755 255.021 303.755 255.68V261H305.807V255.452ZM309.282 260.031C309.282 260.386 309.408 260.696 309.662 260.962C309.928 261.228 310.244 261.361 310.612 261.361C311.004 261.361 311.327 261.228 311.581 260.962C311.834 260.696 311.961 260.386 311.961 260.031C311.961 259.664 311.834 259.353 311.581 259.1C311.327 258.834 311.004 258.701 310.612 258.701C310.244 258.701 309.928 258.834 309.662 259.1C309.408 259.353 309.282 259.664 309.282 260.031ZM315.354 248.783C315.354 249.125 315.481 249.423 315.734 249.676C316 249.917 316.304 250.037 316.646 250.037C317.013 250.037 317.317 249.917 317.558 249.676C317.811 249.423 317.938 249.125 317.938 248.783C317.938 248.428 317.811 248.131 317.558 247.89C317.317 247.649 317.013 247.529 316.646 247.529C316.304 247.529 316 247.649 315.734 247.89C315.481 248.131 315.354 248.428 315.354 248.783ZM315.639 252.26V261H317.653V252.26H315.639ZM320.382 256.63C320.382 257.517 320.585 258.308 320.99 259.005C321.408 259.689 321.972 260.227 322.681 260.62C323.39 261 324.195 261.19 325.094 261.19C325.993 261.19 326.791 261 327.488 260.62C328.197 260.227 328.761 259.689 329.179 259.005C329.597 258.308 329.806 257.517 329.806 256.63C329.806 255.731 329.597 254.939 329.179 254.255C328.761 253.571 328.197 253.039 327.488 252.659C326.791 252.266 325.993 252.07 325.094 252.07C324.195 252.07 323.39 252.266 322.681 252.659C321.972 253.039 321.408 253.571 320.99 254.255C320.585 254.939 320.382 255.731 320.382 256.63ZM322.491 256.63C322.491 256.085 322.605 255.604 322.833 255.186C323.061 254.768 323.371 254.445 323.764 254.217C324.157 253.989 324.6 253.875 325.094 253.875C325.575 253.875 326.012 253.989 326.405 254.217C326.81 254.445 327.127 254.768 327.355 255.186C327.583 255.604 327.697 256.085 327.697 256.63C327.697 257.175 327.583 257.656 327.355 258.074C327.127 258.479 326.81 258.802 326.405 259.043C326.012 259.271 325.575 259.385 325.094 259.385C324.6 259.385 324.157 259.271 323.764 259.043C323.371 258.802 323.061 258.479 322.833 258.074C322.605 257.656 322.491 257.175 322.491 256.63ZM338.255 247.7L330.351 263.85H332.422L340.269 247.7H338.255ZM340.936 258.131L339.739 259.328C339.993 259.657 340.303 259.974 340.67 260.278C341.05 260.569 341.487 260.81 341.981 261C342.488 261.177 343.039 261.266 343.634 261.266C344.597 261.266 345.357 261.019 345.914 260.525C346.484 260.018 346.769 259.353 346.769 258.53C346.769 257.998 346.643 257.567 346.389 257.238C346.149 256.909 345.826 256.63 345.42 256.402C345.015 256.174 344.572 255.965 344.09 255.775C343.736 255.636 343.413 255.503 343.121 255.376C342.843 255.249 342.615 255.11 342.437 254.958C342.273 254.793 342.19 254.61 342.19 254.407C342.19 254.166 342.285 253.983 342.475 253.856C342.665 253.729 342.906 253.666 343.197 253.666C343.628 253.666 344.046 253.774 344.451 253.989C344.857 254.204 345.205 254.483 345.496 254.825L346.636 253.609C346.396 253.318 346.104 253.058 345.762 252.83C345.42 252.602 345.034 252.418 344.603 252.279C344.185 252.14 343.736 252.07 343.254 252.07C342.722 252.07 342.222 252.159 341.753 252.336C341.297 252.501 340.93 252.76 340.651 253.115C340.385 253.47 340.252 253.913 340.252 254.445C340.252 254.964 340.373 255.395 340.613 255.737C340.867 256.079 341.183 256.358 341.563 256.573C341.956 256.776 342.349 256.953 342.741 257.105C343.134 257.244 343.476 257.384 343.767 257.523C344.059 257.65 344.287 257.808 344.451 257.998C344.616 258.175 344.698 258.391 344.698 258.644C344.698 258.935 344.591 259.163 344.375 259.328C344.173 259.493 343.888 259.575 343.52 259.575C343.229 259.575 342.938 259.524 342.646 259.423C342.355 259.309 342.064 259.144 341.772 258.929C341.494 258.701 341.215 258.435 340.936 258.131ZM351.212 246.18H349.16V261H351.212V246.18ZM354.784 255.68V261H356.855V255.395C356.855 254.648 356.741 254.027 356.513 253.533C356.285 253.026 355.943 252.646 355.487 252.393C355.044 252.14 354.499 252.013 353.853 252.013C353.195 252.013 352.631 252.178 352.162 252.507C351.706 252.836 351.352 253.273 351.098 253.818C350.845 254.363 350.718 254.983 350.718 255.68H351.212C351.212 255.287 351.295 254.945 351.459 254.654C351.624 254.363 351.852 254.135 352.143 253.97C352.435 253.805 352.77 253.723 353.15 253.723C353.72 253.723 354.132 253.888 354.385 254.217C354.651 254.546 354.784 255.034 354.784 255.68ZM362.061 252.26H360.028V261H362.061V252.26ZM364.664 254.445L365.652 252.716C365.462 252.475 365.228 252.311 364.949 252.222C364.67 252.121 364.373 252.07 364.056 252.07C363.613 252.07 363.182 252.228 362.764 252.545C362.359 252.862 362.023 253.292 361.757 253.837C361.504 254.369 361.377 254.983 361.377 255.68L362.061 256.079C362.061 255.661 362.105 255.3 362.194 254.996C362.295 254.679 362.454 254.432 362.669 254.255C362.884 254.078 363.163 253.989 363.505 253.989C363.758 253.989 363.967 254.027 364.132 254.103C364.297 254.179 364.474 254.293 364.664 254.445ZM366.414 252.26V254.065H371.373V252.26H366.414ZM367.877 249.22V261H369.91V249.22H367.877ZM373.472 250.816L376.55 249.961V261H378.773V247.491L373.472 248.688V250.816ZM384.922 246.18H382.851V261H384.922V246.18ZM392.161 256.63C392.161 255.667 391.965 254.85 391.572 254.179C391.18 253.495 390.66 252.976 390.014 252.621C389.368 252.254 388.665 252.07 387.905 252.07C387.183 252.07 386.537 252.254 385.967 252.621C385.41 252.988 384.973 253.514 384.656 254.198C384.34 254.869 384.181 255.68 384.181 256.63C384.181 257.567 384.34 258.378 384.656 259.062C384.973 259.746 385.41 260.272 385.967 260.639C386.537 261.006 387.183 261.19 387.905 261.19C388.665 261.19 389.368 261.013 390.014 260.658C390.66 260.291 391.18 259.765 391.572 259.081C391.965 258.397 392.161 257.58 392.161 256.63ZM390.033 256.63C390.033 257.213 389.913 257.713 389.672 258.131C389.432 258.549 389.109 258.866 388.703 259.081C388.311 259.296 387.874 259.404 387.392 259.404C387 259.404 386.613 259.296 386.233 259.081C385.853 258.866 385.537 258.555 385.283 258.15C385.043 257.732 384.922 257.225 384.922 256.63C384.922 256.035 385.043 255.534 385.283 255.129C385.537 254.711 385.853 254.394 386.233 254.179C386.613 253.964 387 253.856 387.392 253.856C387.874 253.856 388.311 253.964 388.703 254.179C389.109 254.394 389.432 254.711 389.672 255.129C389.913 255.547 390.033 256.047 390.033 256.63ZM393.964 252.26V254.065H398.98V252.26H393.964ZM398.752 248.384L399.721 246.788C399.62 246.661 399.474 246.535 399.284 246.408C399.107 246.281 398.891 246.174 398.638 246.085C398.385 245.996 398.087 245.952 397.745 245.952C397.137 245.952 396.624 246.072 396.206 246.313C395.788 246.541 395.465 246.883 395.237 247.339C395.022 247.782 394.914 248.346 394.914 249.03V261H396.928V249.429C396.928 249.062 396.966 248.764 397.042 248.536C397.118 248.308 397.219 248.143 397.346 248.042C397.485 247.941 397.65 247.89 397.84 247.89C398.005 247.89 398.163 247.922 398.315 247.985C398.48 248.048 398.625 248.181 398.752 248.384Z" fill="white"/>
<path d="M173.591 255.91C174.001 256.3 174.001 256.94 173.591 257.33C173.201 257.72 172.561 257.72 172.171 257.33C171.234 256.392 170.708 255.121 170.708 253.795C170.708 252.469 171.234 251.198 172.171 250.26L175.711 246.72C176.649 245.783 177.92 245.257 179.246 245.257C180.571 245.257 181.842 245.783 182.781 246.72C183.717 247.658 184.243 248.929 184.243 250.255C184.243 251.581 183.717 252.852 182.781 253.79L181.291 255.28C181.301 254.46 181.171 253.64 180.891 252.86L181.361 252.38C181.641 252.103 181.863 251.773 182.015 251.409C182.167 251.045 182.245 250.654 182.245 250.26C182.245 249.866 182.167 249.475 182.015 249.111C181.863 248.747 181.641 248.417 181.361 248.14C181.083 247.86 180.753 247.637 180.389 247.485C180.025 247.333 179.635 247.255 179.241 247.255C178.846 247.255 178.456 247.333 178.092 247.485C177.728 247.637 177.398 247.86 177.121 248.14L173.591 251.67C173.31 251.947 173.088 252.277 172.936 252.641C172.784 253.005 172.706 253.396 172.706 253.79C172.706 254.184 172.784 254.575 172.936 254.939C173.088 255.303 173.31 255.633 173.591 255.91ZM176.411 251.67C176.801 251.28 177.441 251.28 177.831 251.67C178.767 252.608 179.293 253.879 179.293 255.205C179.293 256.531 178.767 257.802 177.831 258.74L174.291 262.28C173.352 263.217 172.081 263.743 170.756 263.743C169.43 263.743 168.159 263.217 167.221 262.28C166.284 261.342 165.758 260.071 165.758 258.745C165.758 257.419 166.284 256.148 167.221 255.21L168.711 253.72C168.701 254.54 168.831 255.36 169.111 256.15L168.641 256.62C168.36 256.897 168.138 257.227 167.986 257.591C167.834 257.955 167.756 258.346 167.756 258.74C167.756 259.134 167.834 259.525 167.986 259.889C168.138 260.253 168.36 260.583 168.641 260.86C168.918 261.14 169.248 261.363 169.612 261.515C169.976 261.667 170.366 261.745 170.761 261.745C171.155 261.745 171.545 261.667 171.909 261.515C172.273 261.363 172.603 261.14 172.881 260.86L176.411 257.33C176.691 257.053 176.913 256.723 177.065 256.359C177.217 255.995 177.295 255.604 177.295 255.21C177.295 254.816 177.217 254.425 177.065 254.061C176.913 253.697 176.691 253.367 176.411 253.09C176.313 252.999 176.236 252.889 176.183 252.767C176.13 252.645 176.103 252.513 176.103 252.38C176.103 252.247 176.13 252.115 176.183 251.993C176.236 251.871 176.313 251.761 176.411 251.67Z" fill="white"/>
</g>
</g>
<defs>
<filter id="filter0_d_1421_20008" x="-2" y="129.5" width="559" height="72" filterUnits="userSpaceOnUse" color-interpolation-filters="sRGB">
<feFlood flood-opacity="0" result="BackgroundImageFix"/>
<feColorMatrix in="SourceAlpha" type="matrix" values="0 0 0 0 0 0 0 0 0 0 0 0 0 0 0 0 0 0 127 0" result="hardAlpha"/>
<feOffset dy="1"/>
<feGaussianBlur stdDeviation="8.5"/>
<feComposite in2="hardAlpha" operator="out"/>
<feColorMatrix type="matrix" values="0 0 0 0 0 0 0 0 0 0 0 0 0 0 0 0 0 0 0.14 0"/>
<feBlend mode="normal" in2="BackgroundImageFix" result="effect1_dropShadow_1421_20008"/>
<feBlend mode="normal" in="SourceGraphic" in2="effect1_dropShadow_1421_20008" result="shape"/>
</filter>
<filter id="filter1_d_1421_20008" x="129" y="221.5" width="309" height="72" filterUnits="userSpaceOnUse" color-interpolation-filters="sRGB">
<feFlood flood-opacity="0" result="BackgroundImageFix"/>
<feColorMatrix in="SourceAlpha" type="matrix" values="0 0 0 0 0 0 0 0 0 0 0 0 0 0 0 0 0 0 127 0" result="hardAlpha"/>
<feOffset dy="2"/>
<feGaussianBlur stdDeviation="8.5"/>
<feComposite in2="hardAlpha" operator="out"/>
<feColorMatrix type="matrix" values="0 0 0 0 0 0 0 0 0 0 0 0 0 0 0 0 0 0 0.25 0"/>
<feBlend mode="normal" in2="BackgroundImageFix" result="effect1_dropShadow_1421_20008"/>
<feBlend mode="normal" in="SourceGraphic" in2="effect1_dropShadow_1421_20008" result="shape"/>
</filter>
<clipPath id="clip0_1421_20008">
<rect width="550" height="400" fill="white"/>
</clipPath>
<clipPath id="clip1_1421_20008">
<rect width="547" height="337" fill="white" transform="translate(10 31)"/>
</clipPath>
</defs>
</svg>
