<svg width="611" height="458" viewBox="0 0 611 458" fill="none" xmlns="http://www.w3.org/2000/svg">
<g clip-path="url(#clip0_1749_28756)">
<path d="M181 371.75C185.832 371.75 189.75 367.832 189.75 363C189.75 358.168 185.832 354.25 181 354.25C176.168 354.25 172.25 358.168 172.25 363C172.25 367.832 176.168 371.75 181 371.75Z" stroke="#3A73B5" stroke-width="5.83333" stroke-linecap="round" stroke-linejoin="round"/>
<path d="M202.583 371.75C202.195 372.63 202.079 373.606 202.251 374.552C202.422 375.498 202.873 376.371 203.546 377.058L203.721 377.233C204.263 377.775 204.693 378.418 204.987 379.127C205.281 379.835 205.432 380.594 205.432 381.36C205.432 382.127 205.281 382.886 204.987 383.594C204.693 384.302 204.263 384.946 203.721 385.487C203.179 386.03 202.536 386.46 201.828 386.754C201.119 387.047 200.36 387.198 199.594 387.198C198.827 387.198 198.068 387.047 197.36 386.754C196.652 386.46 196.008 386.03 195.467 385.487L195.292 385.312C194.604 384.64 193.731 384.189 192.785 384.017C191.839 383.846 190.863 383.962 189.983 384.35C189.121 384.72 188.385 385.334 187.867 386.116C187.348 386.899 187.07 387.816 187.067 388.754V389.25C187.067 390.797 186.452 392.281 185.358 393.375C184.264 394.469 182.78 395.083 181.233 395.083C179.686 395.083 178.202 394.469 177.109 393.375C176.015 392.281 175.4 390.797 175.4 389.25V388.987C175.377 388.022 175.065 387.086 174.503 386.3C173.941 385.515 173.156 384.917 172.25 384.583C171.37 384.195 170.394 384.079 169.448 384.251C168.502 384.422 167.629 384.873 166.942 385.546L166.767 385.721C166.225 386.263 165.582 386.693 164.873 386.987C164.165 387.281 163.406 387.432 162.64 387.432C161.873 387.432 161.114 387.281 160.406 386.987C159.698 386.693 159.054 386.263 158.512 385.721C157.97 385.179 157.54 384.536 157.246 383.828C156.953 383.119 156.802 382.36 156.802 381.594C156.802 380.827 156.953 380.068 157.246 379.36C157.54 378.652 157.97 378.008 158.512 377.467L158.687 377.292C159.36 376.604 159.811 375.731 159.982 374.785C160.154 373.839 160.038 372.863 159.65 371.983C159.28 371.121 158.666 370.385 157.884 369.867C157.101 369.348 156.184 369.07 155.246 369.067H154.75C153.203 369.067 151.719 368.452 150.625 367.358C149.531 366.264 148.917 364.78 148.917 363.233C148.917 361.686 149.531 360.202 150.625 359.109C151.719 358.015 153.203 357.4 154.75 357.4H155.012C155.978 357.377 156.914 357.065 157.7 356.503C158.485 355.941 159.083 355.156 159.417 354.25C159.805 353.37 159.921 352.394 159.749 351.448C159.578 350.502 159.127 349.629 158.454 348.942L158.279 348.767C157.737 348.225 157.307 347.582 157.013 346.873C156.719 346.165 156.568 345.406 156.568 344.64C156.568 343.873 156.719 343.114 157.013 342.406C157.307 341.698 157.737 341.054 158.279 340.512C158.821 339.97 159.464 339.54 160.172 339.246C160.881 338.953 161.64 338.802 162.406 338.802C163.173 338.802 163.932 338.953 164.64 339.246C165.348 339.54 165.992 339.97 166.533 340.512L166.708 340.687C167.396 341.36 168.269 341.811 169.215 341.982C170.161 342.154 171.137 342.038 172.017 341.65H172.25C173.113 341.28 173.848 340.666 174.367 339.884C174.885 339.101 175.163 338.184 175.167 337.246V336.75C175.167 335.203 175.781 333.719 176.875 332.625C177.969 331.531 179.453 330.917 181 330.917C182.547 330.917 184.031 331.531 185.125 332.625C186.219 333.719 186.833 335.203 186.833 336.75V337.012C186.837 337.951 187.115 338.868 187.633 339.65C188.152 340.433 188.887 341.047 189.75 341.417C190.63 341.805 191.606 341.921 192.552 341.749C193.498 341.578 194.371 341.127 195.058 340.454L195.233 340.279C195.775 339.737 196.418 339.307 197.127 339.013C197.835 338.719 198.594 338.568 199.36 338.568C200.127 338.568 200.886 338.719 201.594 339.013C202.302 339.307 202.946 339.737 203.487 340.279C204.03 340.821 204.46 341.464 204.754 342.172C205.047 342.881 205.198 343.64 205.198 344.406C205.198 345.173 205.047 345.932 204.754 346.64C204.46 347.348 204.03 347.992 203.487 348.533L203.312 348.708C202.64 349.396 202.189 350.269 202.017 351.215C201.846 352.161 201.962 353.137 202.35 354.017V354.25C202.72 355.113 203.334 355.848 204.116 356.367C204.899 356.885 205.816 357.163 206.754 357.167H207.25C208.797 357.167 210.281 357.781 211.375 358.875C212.469 359.969 213.083 361.453 213.083 363C213.083 364.547 212.469 366.031 211.375 367.125C210.281 368.219 208.797 368.833 207.25 368.833H206.987C206.049 368.837 205.132 369.115 204.349 369.633C203.567 370.152 202.953 370.887 202.583 371.75Z" stroke="#3A73B5" stroke-width="5.83333" stroke-linecap="round" stroke-linejoin="round"/>
</g>
<rect x="181" y="87" width="250" height="284" rx="7" fill="#4997D1" fill-opacity="0.1"/>
<path d="M198.008 119V108.57H201.9C202.609 108.57 203.235 108.701 203.776 108.962C204.327 109.214 204.756 109.587 205.064 110.082C205.372 110.567 205.526 111.16 205.526 111.86C205.526 112.551 205.367 113.143 205.05 113.638C204.742 114.123 204.317 114.497 203.776 114.758C203.235 115.019 202.609 115.15 201.9 115.15H199.912V119H198.008ZM199.912 113.47H201.928C202.273 113.47 202.572 113.405 202.824 113.274C203.076 113.134 203.272 112.943 203.412 112.7C203.552 112.457 203.622 112.177 203.622 111.86C203.622 111.533 203.552 111.253 203.412 111.02C203.272 110.777 203.076 110.591 202.824 110.46C202.572 110.32 202.273 110.25 201.928 110.25H199.912V113.47ZM206.932 119V111.384H208.654V113.078L208.514 112.826C208.691 112.257 208.967 111.86 209.34 111.636C209.723 111.412 210.18 111.3 210.712 111.3H211.16V112.924H210.502C209.979 112.924 209.559 113.087 209.242 113.414C208.925 113.731 208.766 114.179 208.766 114.758V119H206.932ZM215.78 119.168C214.996 119.168 214.31 118.991 213.722 118.636C213.134 118.281 212.677 117.801 212.35 117.194C212.024 116.587 211.86 115.915 211.86 115.178C211.86 114.413 212.024 113.736 212.35 113.148C212.686 112.551 213.139 112.079 213.708 111.734C214.287 111.389 214.931 111.216 215.64 111.216C216.238 111.216 216.76 111.314 217.208 111.51C217.666 111.706 218.053 111.977 218.37 112.322C218.688 112.667 218.93 113.064 219.098 113.512C219.266 113.951 219.35 114.427 219.35 114.94C219.35 115.071 219.341 115.206 219.322 115.346C219.313 115.486 219.29 115.607 219.252 115.71H213.372V114.31H218.216L217.348 114.968C217.432 114.539 217.409 114.156 217.278 113.82C217.157 113.484 216.952 113.218 216.662 113.022C216.382 112.826 216.042 112.728 215.64 112.728C215.258 112.728 214.917 112.826 214.618 113.022C214.32 113.209 214.091 113.489 213.932 113.862C213.783 114.226 213.727 114.669 213.764 115.192C213.727 115.659 213.788 116.074 213.946 116.438C214.114 116.793 214.357 117.068 214.674 117.264C215.001 117.46 215.374 117.558 215.794 117.558C216.214 117.558 216.569 117.469 216.858 117.292C217.157 117.115 217.39 116.877 217.558 116.578L219.042 117.306C218.893 117.67 218.66 117.992 218.342 118.272C218.025 118.552 217.647 118.771 217.208 118.93C216.779 119.089 216.303 119.168 215.78 119.168ZM222.9 119L219.904 111.384H221.906L224.076 117.376H223.334L225.518 111.384H227.52L224.524 119H222.9ZM228.534 119V111.384H230.368V119H228.534ZM228.534 110.53V108.57H230.368V110.53H228.534ZM235.673 119.168C234.889 119.168 234.203 118.991 233.615 118.636C233.027 118.281 232.57 117.801 232.243 117.194C231.916 116.587 231.753 115.915 231.753 115.178C231.753 114.413 231.916 113.736 232.243 113.148C232.579 112.551 233.032 112.079 233.601 111.734C234.18 111.389 234.824 111.216 235.533 111.216C236.13 111.216 236.653 111.314 237.101 111.51C237.558 111.706 237.946 111.977 238.263 112.322C238.58 112.667 238.823 113.064 238.991 113.512C239.159 113.951 239.243 114.427 239.243 114.94C239.243 115.071 239.234 115.206 239.215 115.346C239.206 115.486 239.182 115.607 239.145 115.71H233.265V114.31H238.109L237.241 114.968C237.325 114.539 237.302 114.156 237.171 113.82C237.05 113.484 236.844 113.218 236.555 113.022C236.275 112.826 235.934 112.728 235.533 112.728C235.15 112.728 234.81 112.826 234.511 113.022C234.212 113.209 233.984 113.489 233.825 113.862C233.676 114.226 233.62 114.669 233.657 115.192C233.62 115.659 233.68 116.074 233.839 116.438C234.007 116.793 234.25 117.068 234.567 117.264C234.894 117.46 235.267 117.558 235.687 117.558C236.107 117.558 236.462 117.469 236.751 117.292C237.05 117.115 237.283 116.877 237.451 116.578L238.935 117.306C238.786 117.67 238.552 117.992 238.235 118.272C237.918 118.552 237.54 118.771 237.101 118.93C236.672 119.089 236.196 119.168 235.673 119.168ZM242.551 119L239.933 111.384H241.865L243.783 117.166L243.111 117.152L245.155 111.384H246.779L248.809 117.152L248.137 117.166L250.055 111.384H251.987L249.369 119H247.731L245.659 112.966H246.275L244.175 119H242.551Z" fill="#3F4346"/>
<g filter="url(#filter0_ddd_1749_28756)">
<path d="M197 139H399C403.418 139 407 142.582 407 147V250C407 254.418 403.418 258 399 258H205C200.582 258 197 254.418 197 250V139Z" fill="white"/>
<rect x="205" y="147" width="194" height="80" rx="4" fill="#F0F7FD"/>
<path d="M316 173V201H288V173H316ZM316 169H288C285.8 169 284 170.8 284 173V201C284 203.2 285.8 205 288 205H316C318.2 205 320 203.2 320 201V173C320 170.8 318.2 169 316 169ZM306.28 186.72L300.28 194.46L296 189.28L290 197H314L306.28 186.72Z" fill="#3A73B5"/>
<path d="M205.864 247V238.06H209.632C210.224 238.06 210.728 238.164 211.144 238.372C211.568 238.572 211.892 238.86 212.116 239.236C212.348 239.604 212.464 240.052 212.464 240.58C212.464 240.988 212.352 241.372 212.128 241.732C211.912 242.084 211.564 242.376 211.084 242.608V241.852C211.524 242.02 211.872 242.228 212.128 242.476C212.384 242.724 212.564 243 212.668 243.304C212.772 243.608 212.824 243.928 212.824 244.264C212.824 245.12 212.54 245.792 211.972 246.28C211.412 246.76 210.632 247 209.632 247H205.864ZM207.496 245.56H209.8C210.224 245.56 210.56 245.444 210.808 245.212C211.064 244.972 211.192 244.656 211.192 244.264C211.192 243.872 211.064 243.556 210.808 243.316C210.56 243.076 210.224 242.956 209.8 242.956H207.496V245.56ZM207.496 241.528H209.716C210.052 241.528 210.32 241.432 210.52 241.24C210.72 241.04 210.82 240.784 210.82 240.472C210.82 240.16 210.72 239.912 210.52 239.728C210.32 239.544 210.052 239.452 209.716 239.452H207.496V241.528ZM217.221 247.144C216.581 247.144 215.997 246.996 215.469 246.7C214.949 246.404 214.533 246 214.221 245.488C213.917 244.976 213.765 244.392 213.765 243.736C213.765 243.08 213.917 242.496 214.221 241.984C214.533 241.472 214.949 241.068 215.469 240.772C215.989 240.476 216.573 240.328 217.221 240.328C217.861 240.328 218.441 240.476 218.961 240.772C219.481 241.068 219.893 241.472 220.197 241.984C220.509 242.488 220.665 243.072 220.665 243.736C220.665 244.392 220.509 244.976 220.197 245.488C219.885 246 219.469 246.404 218.949 246.7C218.429 246.996 217.853 247.144 217.221 247.144ZM217.221 245.704C217.573 245.704 217.881 245.62 218.145 245.452C218.417 245.284 218.629 245.052 218.781 244.756C218.941 244.452 219.021 244.112 219.021 243.736C219.021 243.352 218.941 243.016 218.781 242.728C218.629 242.432 218.417 242.2 218.145 242.032C217.881 241.856 217.573 241.768 217.221 241.768C216.861 241.768 216.545 241.856 216.273 242.032C216.001 242.2 215.785 242.432 215.625 242.728C215.473 243.016 215.397 243.352 215.397 243.736C215.397 244.112 215.473 244.452 215.625 244.756C215.785 245.052 216.001 245.284 216.273 245.452C216.545 245.62 216.861 245.704 217.221 245.704ZM224.893 247.144C224.261 247.144 223.697 246.996 223.201 246.7C222.705 246.396 222.313 245.984 222.025 245.464C221.737 244.944 221.593 244.368 221.593 243.736C221.593 243.096 221.737 242.52 222.025 242.008C222.313 241.496 222.705 241.088 223.201 240.784C223.705 240.48 224.265 240.328 224.881 240.328C225.377 240.328 225.817 240.428 226.201 240.628C226.593 240.82 226.901 241.092 227.125 241.444L226.885 241.768V237.916H228.457V247H226.969V245.74L227.137 246.052C226.913 246.404 226.601 246.676 226.201 246.868C225.801 247.052 225.365 247.144 224.893 247.144ZM225.061 245.704C225.421 245.704 225.737 245.62 226.009 245.452C226.281 245.284 226.493 245.052 226.645 244.756C226.805 244.46 226.885 244.12 226.885 243.736C226.885 243.36 226.805 243.024 226.645 242.728C226.493 242.424 226.281 242.188 226.009 242.02C225.737 241.852 225.421 241.768 225.061 241.768C224.709 241.768 224.393 241.856 224.113 242.032C223.833 242.2 223.613 242.432 223.453 242.728C223.301 243.016 223.225 243.352 223.225 243.736C223.225 244.12 223.301 244.46 223.453 244.756C223.613 245.052 223.833 245.284 224.113 245.452C224.393 245.62 224.709 245.704 225.061 245.704ZM230.712 249.652C230.536 249.652 230.364 249.636 230.196 249.604C230.028 249.58 229.876 249.536 229.74 249.472V248.152C229.844 248.176 229.968 248.2 230.112 248.224C230.264 248.248 230.404 248.26 230.532 248.26C230.892 248.26 231.152 248.176 231.312 248.008C231.48 247.84 231.628 247.62 231.756 247.348L232.188 246.34L232.164 247.66L229.32 240.472H231.012L233.004 245.776H232.404L234.384 240.472H236.088L233.244 247.66C233.076 248.084 232.872 248.444 232.632 248.74C232.391 249.036 232.112 249.26 231.792 249.412C231.48 249.572 231.12 249.652 230.712 249.652ZM242.06 247.072C241.324 247.072 240.752 246.872 240.344 246.472C239.944 246.064 239.744 245.492 239.744 244.756V241.876H238.616V240.472H238.736C239.056 240.472 239.304 240.388 239.48 240.22C239.656 240.052 239.744 239.808 239.744 239.488V238.984H241.316V240.472H242.816V241.876H241.316V244.672C241.316 244.888 241.352 245.072 241.424 245.224C241.504 245.376 241.624 245.492 241.784 245.572C241.952 245.652 242.164 245.692 242.42 245.692C242.476 245.692 242.54 245.688 242.612 245.68C242.692 245.672 242.768 245.664 242.84 245.656V247C242.728 247.016 242.6 247.032 242.456 247.048C242.312 247.064 242.18 247.072 242.06 247.072ZM247.078 247.144C246.406 247.144 245.818 246.992 245.314 246.688C244.81 246.384 244.418 245.972 244.138 245.452C243.858 244.932 243.718 244.356 243.718 243.724C243.718 243.068 243.858 242.488 244.138 241.984C244.426 241.472 244.814 241.068 245.302 240.772C245.798 240.476 246.35 240.328 246.958 240.328C247.47 240.328 247.918 240.412 248.302 240.58C248.694 240.748 249.026 240.98 249.298 241.276C249.57 241.572 249.778 241.912 249.922 242.296C250.066 242.672 250.138 243.08 250.138 243.52C250.138 243.632 250.13 243.748 250.114 243.868C250.106 243.988 250.086 244.092 250.054 244.18H245.014V242.98H249.166L248.422 243.544C248.494 243.176 248.474 242.848 248.362 242.56C248.258 242.272 248.082 242.044 247.834 241.876C247.594 241.708 247.302 241.624 246.958 241.624C246.63 241.624 246.338 241.708 246.082 241.876C245.826 242.036 245.63 242.276 245.494 242.596C245.366 242.908 245.318 243.288 245.35 243.736C245.318 244.136 245.37 244.492 245.506 244.804C245.65 245.108 245.858 245.344 246.13 245.512C246.41 245.68 246.73 245.764 247.09 245.764C247.45 245.764 247.754 245.688 248.002 245.536C248.258 245.384 248.458 245.18 248.602 244.924L249.874 245.548C249.746 245.86 249.546 246.136 249.274 246.376C249.002 246.616 248.678 246.804 248.302 246.94C247.934 247.076 247.526 247.144 247.078 247.144ZM250.624 247L252.904 243.724L250.612 240.472H252.46L254.248 243.112H253.42L255.208 240.472H257.044L254.764 243.724L257.032 247H255.196L253.432 244.372H254.236L252.472 247H250.624ZM260.88 247.072C260.144 247.072 259.572 246.872 259.164 246.472C258.764 246.064 258.564 245.492 258.564 244.756V241.876H257.436V240.472H257.556C257.876 240.472 258.124 240.388 258.3 240.22C258.476 240.052 258.564 239.808 258.564 239.488V238.984H260.136V240.472H261.636V241.876H260.136V244.672C260.136 244.888 260.172 245.072 260.244 245.224C260.324 245.376 260.444 245.492 260.604 245.572C260.772 245.652 260.984 245.692 261.24 245.692C261.296 245.692 261.36 245.688 261.432 245.68C261.512 245.672 261.588 245.664 261.66 245.656V247C261.548 247.016 261.42 247.032 261.276 247.048C261.132 247.064 261 247.072 260.88 247.072ZM268.138 247.144C267.49 247.144 266.906 246.996 266.386 246.7C265.874 246.396 265.47 245.988 265.174 245.476C264.878 244.956 264.73 244.372 264.73 243.724C264.73 243.076 264.878 242.496 265.174 241.984C265.47 241.472 265.874 241.068 266.386 240.772C266.906 240.476 267.49 240.328 268.138 240.328C268.602 240.328 269.034 240.412 269.434 240.58C269.834 240.74 270.178 240.964 270.466 241.252C270.762 241.532 270.974 241.868 271.102 242.26L269.722 242.86C269.602 242.532 269.398 242.268 269.11 242.068C268.83 241.868 268.506 241.768 268.138 241.768C267.794 241.768 267.486 241.852 267.214 242.02C266.95 242.188 266.742 242.42 266.59 242.716C266.438 243.012 266.362 243.352 266.362 243.736C266.362 244.12 266.438 244.46 266.59 244.756C266.742 245.052 266.95 245.284 267.214 245.452C267.486 245.62 267.794 245.704 268.138 245.704C268.514 245.704 268.842 245.604 269.122 245.404C269.402 245.204 269.602 244.936 269.722 244.6L271.102 245.224C270.974 245.592 270.766 245.924 270.478 246.22C270.19 246.508 269.846 246.736 269.446 246.904C269.046 247.064 268.61 247.144 268.138 247.144ZM275.487 247.144C274.847 247.144 274.263 246.996 273.735 246.7C273.215 246.404 272.799 246 272.487 245.488C272.183 244.976 272.031 244.392 272.031 243.736C272.031 243.08 272.183 242.496 272.487 241.984C272.799 241.472 273.215 241.068 273.735 240.772C274.255 240.476 274.839 240.328 275.487 240.328C276.127 240.328 276.707 240.476 277.227 240.772C277.747 241.068 278.159 241.472 278.463 241.984C278.775 242.488 278.931 243.072 278.931 243.736C278.931 244.392 278.775 244.976 278.463 245.488C278.151 246 277.735 246.404 277.215 246.7C276.695 246.996 276.119 247.144 275.487 247.144ZM275.487 245.704C275.839 245.704 276.147 245.62 276.411 245.452C276.683 245.284 276.895 245.052 277.047 244.756C277.207 244.452 277.287 244.112 277.287 243.736C277.287 243.352 277.207 243.016 277.047 242.728C276.895 242.432 276.683 242.2 276.411 242.032C276.147 241.856 275.839 241.768 275.487 241.768C275.127 241.768 274.811 241.856 274.539 242.032C274.267 242.2 274.051 242.432 273.891 242.728C273.739 243.016 273.663 243.352 273.663 243.736C273.663 244.112 273.739 244.452 273.891 244.756C274.051 245.052 274.267 245.284 274.539 245.452C274.811 245.62 275.127 245.704 275.487 245.704ZM280.123 247V240.472H281.599V241.984L281.431 241.732C281.551 241.26 281.791 240.908 282.151 240.676C282.511 240.444 282.935 240.328 283.423 240.328C283.959 240.328 284.431 240.468 284.839 240.748C285.247 241.028 285.511 241.396 285.631 241.852L285.187 241.888C285.387 241.368 285.687 240.98 286.087 240.724C286.487 240.46 286.947 240.328 287.467 240.328C287.931 240.328 288.343 240.432 288.703 240.64C289.071 240.848 289.359 241.14 289.567 241.516C289.775 241.884 289.879 242.312 289.879 242.8V247H288.307V243.172C288.307 242.884 288.255 242.636 288.151 242.428C288.047 242.22 287.903 242.06 287.719 241.948C287.535 241.828 287.311 241.768 287.047 241.768C286.799 241.768 286.579 241.828 286.387 241.948C286.195 242.06 286.047 242.22 285.943 242.428C285.839 242.636 285.787 242.884 285.787 243.172V247H284.215V243.172C284.215 242.884 284.163 242.636 284.059 242.428C283.955 242.22 283.807 242.06 283.615 241.948C283.431 241.828 283.211 241.768 282.955 241.768C282.707 241.768 282.487 241.828 282.295 241.948C282.103 242.06 281.955 242.22 281.851 242.428C281.747 242.636 281.695 242.884 281.695 243.172V247H280.123ZM294.305 247.144C293.633 247.144 293.045 246.992 292.541 246.688C292.037 246.384 291.645 245.972 291.365 245.452C291.085 244.932 290.945 244.356 290.945 243.724C290.945 243.068 291.085 242.488 291.365 241.984C291.653 241.472 292.041 241.068 292.529 240.772C293.025 240.476 293.577 240.328 294.185 240.328C294.697 240.328 295.145 240.412 295.529 240.58C295.921 240.748 296.253 240.98 296.525 241.276C296.797 241.572 297.005 241.912 297.149 242.296C297.293 242.672 297.365 243.08 297.365 243.52C297.365 243.632 297.357 243.748 297.341 243.868C297.333 243.988 297.313 244.092 297.281 244.18H292.241V242.98H296.393L295.649 243.544C295.721 243.176 295.701 242.848 295.589 242.56C295.485 242.272 295.309 242.044 295.061 241.876C294.821 241.708 294.529 241.624 294.185 241.624C293.857 241.624 293.565 241.708 293.309 241.876C293.053 242.036 292.857 242.276 292.721 242.596C292.593 242.908 292.545 243.288 292.577 243.736C292.545 244.136 292.597 244.492 292.733 244.804C292.877 245.108 293.085 245.344 293.357 245.512C293.637 245.68 293.957 245.764 294.317 245.764C294.677 245.764 294.981 245.688 295.229 245.536C295.485 245.384 295.685 245.18 295.829 244.924L297.101 245.548C296.973 245.86 296.773 246.136 296.501 246.376C296.229 246.616 295.905 246.804 295.529 246.94C295.161 247.076 294.753 247.144 294.305 247.144ZM301.04 247.144C300.344 247.144 299.736 246.98 299.216 246.652C298.704 246.316 298.352 245.864 298.16 245.296L299.336 244.732C299.504 245.1 299.736 245.388 300.032 245.596C300.336 245.804 300.672 245.908 301.04 245.908C301.328 245.908 301.556 245.844 301.724 245.716C301.892 245.588 301.976 245.42 301.976 245.212C301.976 245.084 301.94 244.98 301.868 244.9C301.804 244.812 301.712 244.74 301.592 244.684C301.48 244.62 301.356 244.568 301.22 244.528L300.152 244.228C299.6 244.068 299.18 243.824 298.892 243.496C298.612 243.168 298.472 242.78 298.472 242.332C298.472 241.932 298.572 241.584 298.772 241.288C298.98 240.984 299.264 240.748 299.624 240.58C299.992 240.412 300.412 240.328 300.884 240.328C301.5 240.328 302.044 240.476 302.516 240.772C302.988 241.068 303.324 241.484 303.524 242.02L302.324 242.584C302.212 242.288 302.024 242.052 301.76 241.876C301.496 241.7 301.2 241.612 300.872 241.612C300.608 241.612 300.4 241.672 300.248 241.792C300.096 241.912 300.02 242.068 300.02 242.26C300.02 242.38 300.052 242.484 300.116 242.572C300.18 242.66 300.268 242.732 300.38 242.788C300.5 242.844 300.636 242.896 300.788 242.944L301.832 243.256C302.368 243.416 302.78 243.656 303.068 243.976C303.364 244.296 303.512 244.688 303.512 245.152C303.512 245.544 303.408 245.892 303.2 246.196C302.992 246.492 302.704 246.724 302.336 246.892C301.968 247.06 301.536 247.144 301.04 247.144ZM306.853 247V237.916H308.425V241.756L308.209 241.528C308.361 241.136 308.609 240.84 308.953 240.64C309.305 240.432 309.713 240.328 310.177 240.328C310.657 240.328 311.081 240.432 311.449 240.64C311.825 240.848 312.117 241.14 312.325 241.516C312.533 241.884 312.637 242.312 312.637 242.8V247H311.065V243.172C311.065 242.884 311.009 242.636 310.897 242.428C310.785 242.22 310.629 242.06 310.429 241.948C310.237 241.828 310.009 241.768 309.745 241.768C309.489 241.768 309.261 241.828 309.061 241.948C308.861 242.06 308.705 242.22 308.593 242.428C308.481 242.636 308.425 242.884 308.425 243.172V247H306.853ZM317.062 247.144C316.39 247.144 315.802 246.992 315.298 246.688C314.794 246.384 314.402 245.972 314.122 245.452C313.842 244.932 313.702 244.356 313.702 243.724C313.702 243.068 313.842 242.488 314.122 241.984C314.41 241.472 314.798 241.068 315.286 240.772C315.782 240.476 316.334 240.328 316.942 240.328C317.454 240.328 317.902 240.412 318.286 240.58C318.678 240.748 319.01 240.98 319.282 241.276C319.554 241.572 319.762 241.912 319.906 242.296C320.05 242.672 320.122 243.08 320.122 243.52C320.122 243.632 320.114 243.748 320.098 243.868C320.09 243.988 320.07 244.092 320.038 244.18H314.998V242.98H319.15L318.406 243.544C318.478 243.176 318.458 242.848 318.346 242.56C318.242 242.272 318.066 242.044 317.818 241.876C317.578 241.708 317.286 241.624 316.942 241.624C316.614 241.624 316.322 241.708 316.066 241.876C315.81 242.036 315.614 242.276 315.478 242.596C315.35 242.908 315.302 243.288 315.334 243.736C315.302 244.136 315.354 244.492 315.49 244.804C315.634 245.108 315.842 245.344 316.114 245.512C316.394 245.68 316.714 245.764 317.074 245.764C317.434 245.764 317.738 245.688 317.986 245.536C318.242 245.384 318.442 245.18 318.586 244.924L319.858 245.548C319.73 245.86 319.53 246.136 319.258 246.376C318.986 246.616 318.662 246.804 318.286 246.94C317.918 247.076 317.51 247.144 317.062 247.144ZM321.314 247V240.472H322.79V241.924L322.67 241.708C322.822 241.22 323.058 240.88 323.378 240.688C323.706 240.496 324.098 240.4 324.554 240.4H324.938V241.792H324.374C323.926 241.792 323.566 241.932 323.294 242.212C323.022 242.484 322.886 242.868 322.886 243.364V247H321.314ZM328.898 247.144C328.226 247.144 327.638 246.992 327.134 246.688C326.63 246.384 326.238 245.972 325.958 245.452C325.678 244.932 325.538 244.356 325.538 243.724C325.538 243.068 325.678 242.488 325.958 241.984C326.246 241.472 326.634 241.068 327.122 240.772C327.618 240.476 328.17 240.328 328.778 240.328C329.29 240.328 329.738 240.412 330.122 240.58C330.514 240.748 330.846 240.98 331.118 241.276C331.39 241.572 331.598 241.912 331.742 242.296C331.886 242.672 331.958 243.08 331.958 243.52C331.958 243.632 331.95 243.748 331.934 243.868C331.926 243.988 331.906 244.092 331.874 244.18H326.834V242.98H330.986L330.242 243.544C330.314 243.176 330.294 242.848 330.182 242.56C330.078 242.272 329.902 242.044 329.654 241.876C329.414 241.708 329.122 241.624 328.778 241.624C328.45 241.624 328.158 241.708 327.902 241.876C327.646 242.036 327.45 242.276 327.314 242.596C327.186 242.908 327.138 243.288 327.17 243.736C327.138 244.136 327.19 244.492 327.326 244.804C327.47 245.108 327.678 245.344 327.95 245.512C328.23 245.68 328.55 245.764 328.91 245.764C329.27 245.764 329.574 245.688 329.822 245.536C330.078 245.384 330.278 245.18 330.422 244.924L331.694 245.548C331.566 245.86 331.366 246.136 331.094 246.376C330.822 246.616 330.498 246.804 330.122 246.94C329.754 247.076 329.346 247.144 328.898 247.144ZM335.283 247V237.916H336.855V241.756L336.639 241.528C336.791 241.136 337.039 240.84 337.383 240.64C337.735 240.432 338.143 240.328 338.607 240.328C339.087 240.328 339.511 240.432 339.879 240.64C340.255 240.848 340.547 241.14 340.755 241.516C340.963 241.884 341.067 242.312 341.067 242.8V247H339.495V243.172C339.495 242.884 339.439 242.636 339.327 242.428C339.215 242.22 339.059 242.06 338.859 241.948C338.667 241.828 338.439 241.768 338.175 241.768C337.919 241.768 337.691 241.828 337.491 241.948C337.291 242.06 337.135 242.22 337.023 242.428C336.911 242.636 336.855 242.884 336.855 243.172V247H335.283ZM344.724 247.144C344.22 247.144 343.78 247.032 343.404 246.808C343.036 246.584 342.752 246.272 342.552 245.872C342.36 245.472 342.264 245.004 342.264 244.468V240.472H343.836V244.336C343.836 244.608 343.888 244.848 343.992 245.056C344.104 245.256 344.26 245.416 344.46 245.536C344.668 245.648 344.9 245.704 345.156 245.704C345.412 245.704 345.64 245.648 345.84 245.536C346.04 245.416 346.196 245.252 346.308 245.044C346.42 244.836 346.476 244.588 346.476 244.3V240.472H348.048V247H346.56V245.716L346.692 245.944C346.54 246.344 346.288 246.644 345.936 246.844C345.592 247.044 345.188 247.144 344.724 247.144ZM349.509 247V240.472H350.985V241.924L350.865 241.708C351.017 241.22 351.253 240.88 351.573 240.688C351.901 240.496 352.293 240.4 352.749 240.4H353.133V241.792H352.569C352.121 241.792 351.761 241.932 351.489 242.212C351.217 242.484 351.081 242.868 351.081 243.364V247H349.509ZM353.998 247V240.472H355.474V241.924L355.354 241.708C355.506 241.22 355.742 240.88 356.062 240.688C356.39 240.496 356.782 240.4 357.238 240.4H357.622V241.792H357.058C356.61 241.792 356.25 241.932 355.978 242.212C355.706 242.484 355.57 242.868 355.57 243.364V247H353.998ZM360.466 247.144C360.01 247.144 359.614 247.068 359.278 246.916C358.942 246.764 358.682 246.548 358.498 246.268C358.314 245.98 358.222 245.648 358.222 245.272C358.222 244.912 358.302 244.592 358.462 244.312C358.622 244.024 358.87 243.784 359.206 243.592C359.542 243.4 359.966 243.264 360.478 243.184L362.614 242.836V244.036L360.778 244.348C360.466 244.404 360.234 244.504 360.082 244.648C359.93 244.792 359.854 244.98 359.854 245.212C359.854 245.436 359.938 245.616 360.106 245.752C360.282 245.88 360.498 245.944 360.754 245.944C361.082 245.944 361.37 245.876 361.618 245.74C361.874 245.596 362.07 245.4 362.206 245.152C362.35 244.904 362.422 244.632 362.422 244.336V242.656C362.422 242.376 362.31 242.144 362.086 241.96C361.87 241.768 361.582 241.672 361.222 241.672C360.886 241.672 360.586 241.764 360.322 241.948C360.066 242.124 359.878 242.36 359.758 242.656L358.474 242.032C358.602 241.688 358.802 241.392 359.074 241.144C359.354 240.888 359.682 240.688 360.058 240.544C360.434 240.4 360.842 240.328 361.282 240.328C361.818 240.328 362.29 240.428 362.698 240.628C363.106 240.82 363.422 241.092 363.646 241.444C363.878 241.788 363.994 242.192 363.994 242.656V247H362.506V245.884L362.842 245.86C362.674 246.14 362.474 246.376 362.242 246.568C362.01 246.752 361.746 246.896 361.45 247C361.154 247.096 360.826 247.144 360.466 247.144ZM366.239 249.652C366.063 249.652 365.891 249.636 365.723 249.604C365.555 249.58 365.403 249.536 365.267 249.472V248.152C365.371 248.176 365.495 248.2 365.639 248.224C365.791 248.248 365.931 248.26 366.059 248.26C366.419 248.26 366.679 248.176 366.839 248.008C367.007 247.84 367.155 247.62 367.283 247.348L367.715 246.34L367.691 247.66L364.847 240.472H366.539L368.531 245.776H367.931L369.911 240.472H371.615L368.771 247.66C368.603 248.084 368.399 248.444 368.159 248.74C367.919 249.036 367.639 249.26 367.319 249.412C367.007 249.572 366.647 249.652 366.239 249.652ZM373.282 244.288L373.174 238.06H374.77L374.662 244.288H373.282ZM373.174 247V245.32H374.77V247H373.174ZM381.944 249.04C381.272 249.04 380.748 248.868 380.372 248.524C380.004 248.188 379.82 247.716 379.82 247.108V245.008C379.82 244.784 379.768 244.612 379.664 244.492C379.56 244.364 379.404 244.3 379.196 244.3H378.824V242.92H379.196C379.404 242.92 379.56 242.856 379.664 242.728C379.768 242.6 379.82 242.428 379.82 242.212V239.98C379.82 239.38 380.004 238.912 380.372 238.576C380.748 238.232 381.272 238.06 381.944 238.06H382.496V239.44H381.944C381.776 239.44 381.644 239.492 381.548 239.596C381.452 239.692 381.408 239.832 381.416 240.016V242.08C381.416 242.4 381.352 242.692 381.224 242.956C381.104 243.212 380.928 243.424 380.696 243.592C380.928 243.728 381.104 243.924 381.224 244.18C381.352 244.436 381.416 244.72 381.416 245.032V247.072C381.408 247.248 381.452 247.388 381.548 247.492C381.644 247.604 381.776 247.66 381.944 247.66H382.496V249.04H381.944ZM386.725 249.04C386.053 249.04 385.529 248.868 385.153 248.524C384.785 248.188 384.601 247.716 384.601 247.108V245.008C384.601 244.784 384.549 244.612 384.445 244.492C384.341 244.364 384.185 244.3 383.977 244.3H383.605V242.92H383.977C384.185 242.92 384.341 242.856 384.445 242.728C384.549 242.6 384.601 242.428 384.601 242.212V239.98C384.601 239.38 384.785 238.912 385.153 238.576C385.529 238.232 386.053 238.06 386.725 238.06H387.277V239.44H386.725C386.557 239.44 386.425 239.492 386.329 239.596C386.233 239.692 386.189 239.832 386.197 240.016V242.08C386.197 242.4 386.133 242.692 386.005 242.956C385.885 243.212 385.709 243.424 385.477 243.592C385.709 243.728 385.885 243.924 386.005 244.18C386.133 244.436 386.197 244.72 386.197 245.032V247.072C386.189 247.248 386.233 247.388 386.329 247.492C386.425 247.604 386.557 247.66 386.725 247.66H387.277V249.04H386.725ZM389.971 247V239.452H388.243V238.06H391.603V247H389.971ZM393.346 249.04V247.66H393.898C394.066 247.66 394.198 247.604 394.294 247.492C394.39 247.388 394.438 247.248 394.438 247.072V245.032C394.43 244.72 394.486 244.436 394.606 244.18C394.734 243.924 394.914 243.728 395.146 243.592C394.914 243.424 394.734 243.212 394.606 242.956C394.486 242.692 394.43 242.4 394.438 242.08V240.016C394.438 239.832 394.39 239.692 394.294 239.596C394.198 239.492 394.066 239.44 393.898 239.44H393.346V238.06H393.898C394.578 238.06 395.102 238.232 395.47 238.576C395.838 238.912 396.022 239.38 396.022 239.98V242.212C396.022 242.428 396.074 242.6 396.178 242.728C396.29 242.856 396.446 242.92 396.646 242.92H397.018V244.3H396.646C396.446 244.3 396.29 244.364 396.178 244.492C396.074 244.612 396.022 244.784 396.022 245.008V247.108C396.022 247.716 395.838 248.188 395.47 248.524C395.102 248.868 394.578 249.04 393.898 249.04H393.346ZM398.128 249.04V247.66H398.68C398.848 247.66 398.98 247.604 399.076 247.492C399.172 247.388 399.22 247.248 399.22 247.072V245.032C399.212 244.72 399.268 244.436 399.388 244.18C399.516 243.924 399.696 243.728 399.928 243.592C399.696 243.424 399.516 243.212 399.388 242.956C399.268 242.692 399.212 242.4 399.22 242.08V240.016C399.22 239.832 399.172 239.692 399.076 239.596C398.98 239.492 398.848 239.44 398.68 239.44H398.128V238.06H398.68C399.36 238.06 399.884 238.232 400.252 238.576C400.62 238.912 400.804 239.38 400.804 239.98V242.212C400.804 242.428 400.856 242.6 400.96 242.728C401.072 242.856 401.228 242.92 401.428 242.92H401.8V244.3H401.428C401.228 244.3 401.072 244.364 400.96 244.492C400.856 244.612 400.804 244.784 400.804 245.008V247.108C400.804 247.716 400.62 248.188 400.252 248.524C399.884 248.868 399.36 249.04 398.68 249.04H398.128Z" fill="#3A73B5"/>
</g>
<g filter="url(#filter1_ddd_1749_28756)">
<path d="M197 270C197 265.582 200.582 262 205 262H399C403.418 262 407 265.582 407 270V281C407 285.418 403.418 289 399 289H205C200.582 289 197 285.418 197 281V270Z" fill="white"/>
<path d="M295.064 280.144C294.424 280.144 293.832 280.028 293.288 279.796C292.752 279.564 292.28 279.24 291.872 278.824C291.472 278.408 291.16 277.92 290.936 277.36C290.712 276.8 290.6 276.188 290.6 275.524C290.6 274.86 290.708 274.248 290.924 273.688C291.148 273.12 291.46 272.632 291.86 272.224C292.268 271.808 292.744 271.488 293.288 271.264C293.832 271.032 294.424 270.916 295.064 270.916C295.704 270.916 296.276 271.024 296.78 271.24C297.292 271.456 297.724 271.744 298.076 272.104C298.428 272.456 298.68 272.844 298.832 273.268L297.368 273.952C297.2 273.504 296.916 273.136 296.516 272.848C296.116 272.552 295.632 272.404 295.064 272.404C294.504 272.404 294.008 272.536 293.576 272.8C293.152 273.064 292.82 273.428 292.58 273.892C292.348 274.356 292.232 274.9 292.232 275.524C292.232 276.148 292.348 276.696 292.58 277.168C292.82 277.632 293.152 277.996 293.576 278.26C294.008 278.524 294.504 278.656 295.064 278.656C295.632 278.656 296.116 278.512 296.516 278.224C296.916 277.928 297.2 277.556 297.368 277.108L298.832 277.792C298.68 278.216 298.428 278.608 298.076 278.968C297.724 279.32 297.292 279.604 296.78 279.82C296.276 280.036 295.704 280.144 295.064 280.144ZM301.888 280.144C301.432 280.144 301.036 280.068 300.7 279.916C300.364 279.764 300.104 279.548 299.92 279.268C299.736 278.98 299.644 278.648 299.644 278.272C299.644 277.912 299.724 277.592 299.884 277.312C300.044 277.024 300.292 276.784 300.628 276.592C300.964 276.4 301.388 276.264 301.9 276.184L304.036 275.836V277.036L302.2 277.348C301.888 277.404 301.656 277.504 301.504 277.648C301.352 277.792 301.276 277.98 301.276 278.212C301.276 278.436 301.36 278.616 301.528 278.752C301.704 278.88 301.92 278.944 302.176 278.944C302.504 278.944 302.792 278.876 303.04 278.74C303.296 278.596 303.492 278.4 303.628 278.152C303.772 277.904 303.844 277.632 303.844 277.336V275.656C303.844 275.376 303.732 275.144 303.508 274.96C303.292 274.768 303.004 274.672 302.644 274.672C302.308 274.672 302.008 274.764 301.744 274.948C301.488 275.124 301.3 275.36 301.18 275.656L299.896 275.032C300.024 274.688 300.224 274.392 300.496 274.144C300.776 273.888 301.104 273.688 301.48 273.544C301.856 273.4 302.264 273.328 302.704 273.328C303.24 273.328 303.712 273.428 304.12 273.628C304.528 273.82 304.844 274.092 305.068 274.444C305.3 274.788 305.416 275.192 305.416 275.656V280H303.928V278.884L304.264 278.86C304.096 279.14 303.896 279.376 303.664 279.568C303.432 279.752 303.168 279.896 302.872 280C302.576 280.096 302.248 280.144 301.888 280.144ZM306.869 280V270.916H308.441V280H306.869ZM309.892 280V270.916H311.464V280H309.892Z" fill="#3A73B5"/>
</g>
<g filter="url(#filter2_ddd_1749_28756)">
<path d="M197 301C197 296.582 200.582 293 205 293H399C403.418 293 407 296.582 407 301V312C407 316.418 403.418 320 399 320H205C200.582 320 197 316.418 197 312V301Z" fill="white"/>
<path d="M266.252 311L263.132 302.06H264.908L267.356 309.464H267.008L269.456 302.06H271.232L268.124 311H266.252ZM272.099 311V304.472H273.671V311H272.099ZM272.099 303.74V302.06H273.671V303.74H272.099ZM277.607 311.144C276.911 311.144 276.303 310.98 275.783 310.652C275.271 310.316 274.919 309.864 274.727 309.296L275.903 308.732C276.071 309.1 276.303 309.388 276.599 309.596C276.903 309.804 277.239 309.908 277.607 309.908C277.895 309.908 278.123 309.844 278.291 309.716C278.459 309.588 278.543 309.42 278.543 309.212C278.543 309.084 278.507 308.98 278.435 308.9C278.371 308.812 278.279 308.74 278.159 308.684C278.047 308.62 277.923 308.568 277.787 308.528L276.719 308.228C276.167 308.068 275.747 307.824 275.459 307.496C275.179 307.168 275.039 306.78 275.039 306.332C275.039 305.932 275.139 305.584 275.339 305.288C275.547 304.984 275.831 304.748 276.191 304.58C276.559 304.412 276.979 304.328 277.451 304.328C278.067 304.328 278.611 304.476 279.083 304.772C279.555 305.068 279.891 305.484 280.091 306.02L278.891 306.584C278.779 306.288 278.591 306.052 278.327 305.876C278.063 305.7 277.767 305.612 277.439 305.612C277.175 305.612 276.967 305.672 276.815 305.792C276.663 305.912 276.587 306.068 276.587 306.26C276.587 306.38 276.619 306.484 276.683 306.572C276.747 306.66 276.835 306.732 276.947 306.788C277.067 306.844 277.203 306.896 277.355 306.944L278.399 307.256C278.935 307.416 279.347 307.656 279.635 307.976C279.931 308.296 280.079 308.688 280.079 309.152C280.079 309.544 279.975 309.892 279.767 310.196C279.559 310.492 279.271 310.724 278.903 310.892C278.535 311.06 278.103 311.144 277.607 311.144ZM281.287 311V304.472H282.859V311H281.287ZM281.287 303.74V302.06H282.859V303.74H281.287ZM287.286 311.072C286.55 311.072 285.978 310.872 285.57 310.472C285.17 310.064 284.97 309.492 284.97 308.756V305.876H283.842V304.472H283.962C284.282 304.472 284.53 304.388 284.706 304.22C284.882 304.052 284.97 303.808 284.97 303.488V302.984H286.542V304.472H288.042V305.876H286.542V308.672C286.542 308.888 286.578 309.072 286.65 309.224C286.73 309.376 286.85 309.492 287.01 309.572C287.178 309.652 287.39 309.692 287.646 309.692C287.702 309.692 287.766 309.688 287.838 309.68C287.918 309.672 287.994 309.664 288.066 309.656V311C287.954 311.016 287.826 311.032 287.682 311.048C287.538 311.064 287.406 311.072 287.286 311.072ZM293.044 311L290.8 304.472H292.456L294.1 309.428L293.524 309.416L295.276 304.472H296.668L298.408 309.416L297.832 309.428L299.476 304.472H301.132L298.888 311H297.484L295.708 305.828H296.236L294.436 311H293.044ZM304.973 311.144C304.301 311.144 303.713 310.992 303.209 310.688C302.705 310.384 302.313 309.972 302.033 309.452C301.753 308.932 301.613 308.356 301.613 307.724C301.613 307.068 301.753 306.488 302.033 305.984C302.321 305.472 302.709 305.068 303.197 304.772C303.693 304.476 304.245 304.328 304.853 304.328C305.365 304.328 305.813 304.412 306.197 304.58C306.589 304.748 306.921 304.98 307.193 305.276C307.465 305.572 307.673 305.912 307.817 306.296C307.961 306.672 308.033 307.08 308.033 307.52C308.033 307.632 308.025 307.748 308.009 307.868C308.001 307.988 307.981 308.092 307.949 308.18H302.909V306.98H307.061L306.317 307.544C306.389 307.176 306.369 306.848 306.257 306.56C306.153 306.272 305.977 306.044 305.729 305.876C305.489 305.708 305.197 305.624 304.853 305.624C304.525 305.624 304.233 305.708 303.977 305.876C303.721 306.036 303.525 306.276 303.389 306.596C303.261 306.908 303.213 307.288 303.245 307.736C303.213 308.136 303.265 308.492 303.401 308.804C303.545 309.108 303.753 309.344 304.025 309.512C304.305 309.68 304.625 309.764 304.985 309.764C305.345 309.764 305.649 309.688 305.897 309.536C306.153 309.384 306.353 309.18 306.497 308.924L307.769 309.548C307.641 309.86 307.441 310.136 307.169 310.376C306.897 310.616 306.573 310.804 306.197 310.94C305.829 311.076 305.421 311.144 304.973 311.144ZM312.788 311.144C312.316 311.144 311.88 311.052 311.48 310.868C311.088 310.676 310.776 310.404 310.544 310.052L310.7 309.74V311H309.224V301.916H310.796V305.768L310.556 305.444C310.78 305.092 311.084 304.82 311.468 304.628C311.852 304.428 312.296 304.328 312.8 304.328C313.416 304.328 313.972 304.48 314.468 304.784C314.964 305.088 315.356 305.496 315.644 306.008C315.94 306.52 316.088 307.096 316.088 307.736C316.088 308.368 315.944 308.944 315.656 309.464C315.368 309.984 314.976 310.396 314.48 310.7C313.984 310.996 313.42 311.144 312.788 311.144ZM312.608 309.704C312.968 309.704 313.288 309.62 313.568 309.452C313.848 309.284 314.064 309.052 314.216 308.756C314.376 308.46 314.456 308.12 314.456 307.736C314.456 307.352 314.376 307.016 314.216 306.728C314.064 306.432 313.848 306.2 313.568 306.032C313.288 305.856 312.968 305.768 312.608 305.768C312.264 305.768 311.952 305.852 311.672 306.02C311.4 306.188 311.184 306.424 311.024 306.728C310.872 307.024 310.796 307.36 310.796 307.736C310.796 308.12 310.872 308.46 311.024 308.756C311.184 309.052 311.4 309.284 311.672 309.452C311.952 309.62 312.264 309.704 312.608 309.704ZM319.771 311.144C319.075 311.144 318.467 310.98 317.947 310.652C317.435 310.316 317.083 309.864 316.891 309.296L318.067 308.732C318.235 309.1 318.467 309.388 318.763 309.596C319.067 309.804 319.403 309.908 319.771 309.908C320.059 309.908 320.287 309.844 320.455 309.716C320.623 309.588 320.707 309.42 320.707 309.212C320.707 309.084 320.671 308.98 320.599 308.9C320.535 308.812 320.443 308.74 320.323 308.684C320.211 308.62 320.087 308.568 319.951 308.528L318.883 308.228C318.331 308.068 317.911 307.824 317.623 307.496C317.343 307.168 317.203 306.78 317.203 306.332C317.203 305.932 317.303 305.584 317.503 305.288C317.711 304.984 317.995 304.748 318.355 304.58C318.723 304.412 319.143 304.328 319.615 304.328C320.231 304.328 320.775 304.476 321.247 304.772C321.719 305.068 322.055 305.484 322.255 306.02L321.055 306.584C320.943 306.288 320.755 306.052 320.491 305.876C320.227 305.7 319.931 305.612 319.603 305.612C319.339 305.612 319.131 305.672 318.979 305.792C318.827 305.912 318.751 306.068 318.751 306.26C318.751 306.38 318.783 306.484 318.847 306.572C318.911 306.66 318.999 306.732 319.111 306.788C319.231 306.844 319.367 306.896 319.519 306.944L320.563 307.256C321.099 307.416 321.511 307.656 321.799 307.976C322.095 308.296 322.243 308.688 322.243 309.152C322.243 309.544 322.139 309.892 321.931 310.196C321.723 310.492 321.435 310.724 321.067 310.892C320.699 311.06 320.267 311.144 319.771 311.144ZM323.451 311V304.472H325.023V311H323.451ZM323.451 303.74V302.06H325.023V303.74H323.451ZM329.45 311.072C328.714 311.072 328.142 310.872 327.734 310.472C327.334 310.064 327.134 309.492 327.134 308.756V305.876H326.006V304.472H326.126C326.446 304.472 326.694 304.388 326.87 304.22C327.046 304.052 327.134 303.808 327.134 303.488V302.984H328.706V304.472H330.206V305.876H328.706V308.672C328.706 308.888 328.742 309.072 328.814 309.224C328.894 309.376 329.014 309.492 329.174 309.572C329.342 309.652 329.554 309.692 329.81 309.692C329.866 309.692 329.93 309.688 330.002 309.68C330.082 309.672 330.158 309.664 330.23 309.656V311C330.118 311.016 329.99 311.032 329.846 311.048C329.702 311.064 329.57 311.072 329.45 311.072ZM334.469 311.144C333.797 311.144 333.209 310.992 332.705 310.688C332.201 310.384 331.809 309.972 331.529 309.452C331.249 308.932 331.109 308.356 331.109 307.724C331.109 307.068 331.249 306.488 331.529 305.984C331.817 305.472 332.205 305.068 332.693 304.772C333.189 304.476 333.741 304.328 334.349 304.328C334.861 304.328 335.309 304.412 335.693 304.58C336.085 304.748 336.417 304.98 336.689 305.276C336.961 305.572 337.169 305.912 337.313 306.296C337.457 306.672 337.529 307.08 337.529 307.52C337.529 307.632 337.521 307.748 337.505 307.868C337.497 307.988 337.477 308.092 337.445 308.18H332.405V306.98H336.557L335.813 307.544C335.885 307.176 335.865 306.848 335.753 306.56C335.649 306.272 335.473 306.044 335.225 305.876C334.985 305.708 334.693 305.624 334.349 305.624C334.021 305.624 333.729 305.708 333.473 305.876C333.217 306.036 333.021 306.276 332.885 306.596C332.757 306.908 332.709 307.288 332.741 307.736C332.709 308.136 332.761 308.492 332.897 308.804C333.041 309.108 333.249 309.344 333.521 309.512C333.801 309.68 334.121 309.764 334.481 309.764C334.841 309.764 335.145 309.688 335.393 309.536C335.649 309.384 335.849 309.18 335.993 308.924L337.265 309.548C337.137 309.86 336.937 310.136 336.665 310.376C336.393 310.616 336.069 310.804 335.693 310.94C335.325 311.076 334.917 311.144 334.469 311.144Z" fill="#3A73B5"/>
</g>
<path d="M413.5 108.5H437.125" stroke="#3A73B5" stroke-width="5.25" stroke-linecap="round" stroke-linejoin="round"/>
<path d="M425.312 65.1875C426.357 64.1432 427.773 63.5565 429.25 63.5565C429.981 63.5565 430.705 63.7006 431.381 63.9804C432.057 64.2602 432.67 64.6704 433.188 65.1875C433.705 65.7046 434.115 66.3184 434.395 66.994C434.674 67.6696 434.818 68.3937 434.818 69.125C434.818 69.8562 434.674 70.5803 434.395 71.2559C434.115 71.9315 433.705 72.5454 433.188 73.0625L400.375 105.875L389.875 108.5L392.5 98L425.312 65.1875Z" stroke="#3A73B5" stroke-width="5.25" stroke-linecap="round" stroke-linejoin="round"/>
<defs>
<filter id="filter0_ddd_1749_28756" x="194" y="137" width="216" height="125" filterUnits="userSpaceOnUse" color-interpolation-filters="sRGB">
<feFlood flood-opacity="0" result="BackgroundImageFix"/>
<feColorMatrix in="SourceAlpha" type="matrix" values="0 0 0 0 0 0 0 0 0 0 0 0 0 0 0 0 0 0 127 0" result="hardAlpha"/>
<feOffset dy="1"/>
<feGaussianBlur stdDeviation="1.5"/>
<feColorMatrix type="matrix" values="0 0 0 0 0 0 0 0 0 0 0 0 0 0 0 0 0 0 0.2 0"/>
<feBlend mode="normal" in2="BackgroundImageFix" result="effect1_dropShadow_1749_28756"/>
<feColorMatrix in="SourceAlpha" type="matrix" values="0 0 0 0 0 0 0 0 0 0 0 0 0 0 0 0 0 0 127 0" result="hardAlpha"/>
<feOffset dy="2"/>
<feGaussianBlur stdDeviation="0.5"/>
<feColorMatrix type="matrix" values="0 0 0 0 0 0 0 0 0 0 0 0 0 0 0 0 0 0 0.12 0"/>
<feBlend mode="normal" in2="effect1_dropShadow_1749_28756" result="effect2_dropShadow_1749_28756"/>
<feColorMatrix in="SourceAlpha" type="matrix" values="0 0 0 0 0 0 0 0 0 0 0 0 0 0 0 0 0 0 127 0" result="hardAlpha"/>
<feOffset dy="1"/>
<feGaussianBlur stdDeviation="0.5"/>
<feColorMatrix type="matrix" values="0 0 0 0 0 0 0 0 0 0 0 0 0 0 0 0 0 0 0.14 0"/>
<feBlend mode="normal" in2="effect2_dropShadow_1749_28756" result="effect3_dropShadow_1749_28756"/>
<feBlend mode="normal" in="SourceGraphic" in2="effect3_dropShadow_1749_28756" result="shape"/>
</filter>
<filter id="filter1_ddd_1749_28756" x="194" y="260" width="216" height="33" filterUnits="userSpaceOnUse" color-interpolation-filters="sRGB">
<feFlood flood-opacity="0" result="BackgroundImageFix"/>
<feColorMatrix in="SourceAlpha" type="matrix" values="0 0 0 0 0 0 0 0 0 0 0 0 0 0 0 0 0 0 127 0" result="hardAlpha"/>
<feOffset dy="1"/>
<feGaussianBlur stdDeviation="1.5"/>
<feColorMatrix type="matrix" values="0 0 0 0 0 0 0 0 0 0 0 0 0 0 0 0 0 0 0.2 0"/>
<feBlend mode="normal" in2="BackgroundImageFix" result="effect1_dropShadow_1749_28756"/>
<feColorMatrix in="SourceAlpha" type="matrix" values="0 0 0 0 0 0 0 0 0 0 0 0 0 0 0 0 0 0 127 0" result="hardAlpha"/>
<feOffset dy="2"/>
<feGaussianBlur stdDeviation="0.5"/>
<feColorMatrix type="matrix" values="0 0 0 0 0 0 0 0 0 0 0 0 0 0 0 0 0 0 0.12 0"/>
<feBlend mode="normal" in2="effect1_dropShadow_1749_28756" result="effect2_dropShadow_1749_28756"/>
<feColorMatrix in="SourceAlpha" type="matrix" values="0 0 0 0 0 0 0 0 0 0 0 0 0 0 0 0 0 0 127 0" result="hardAlpha"/>
<feOffset dy="1"/>
<feGaussianBlur stdDeviation="0.5"/>
<feColorMatrix type="matrix" values="0 0 0 0 0 0 0 0 0 0 0 0 0 0 0 0 0 0 0.14 0"/>
<feBlend mode="normal" in2="effect2_dropShadow_1749_28756" result="effect3_dropShadow_1749_28756"/>
<feBlend mode="normal" in="SourceGraphic" in2="effect3_dropShadow_1749_28756" result="shape"/>
</filter>
<filter id="filter2_ddd_1749_28756" x="194" y="291" width="216" height="33" filterUnits="userSpaceOnUse" color-interpolation-filters="sRGB">
<feFlood flood-opacity="0" result="BackgroundImageFix"/>
<feColorMatrix in="SourceAlpha" type="matrix" values="0 0 0 0 0 0 0 0 0 0 0 0 0 0 0 0 0 0 127 0" result="hardAlpha"/>
<feOffset dy="1"/>
<feGaussianBlur stdDeviation="1.5"/>
<feColorMatrix type="matrix" values="0 0 0 0 0 0 0 0 0 0 0 0 0 0 0 0 0 0 0.2 0"/>
<feBlend mode="normal" in2="BackgroundImageFix" result="effect1_dropShadow_1749_28756"/>
<feColorMatrix in="SourceAlpha" type="matrix" values="0 0 0 0 0 0 0 0 0 0 0 0 0 0 0 0 0 0 127 0" result="hardAlpha"/>
<feOffset dy="2"/>
<feGaussianBlur stdDeviation="0.5"/>
<feColorMatrix type="matrix" values="0 0 0 0 0 0 0 0 0 0 0 0 0 0 0 0 0 0 0.12 0"/>
<feBlend mode="normal" in2="effect1_dropShadow_1749_28756" result="effect2_dropShadow_1749_28756"/>
<feColorMatrix in="SourceAlpha" type="matrix" values="0 0 0 0 0 0 0 0 0 0 0 0 0 0 0 0 0 0 127 0" result="hardAlpha"/>
<feOffset dy="1"/>
<feGaussianBlur stdDeviation="0.5"/>
<feColorMatrix type="matrix" values="0 0 0 0 0 0 0 0 0 0 0 0 0 0 0 0 0 0 0.14 0"/>
<feBlend mode="normal" in2="effect2_dropShadow_1749_28756" result="effect3_dropShadow_1749_28756"/>
<feBlend mode="normal" in="SourceGraphic" in2="effect3_dropShadow_1749_28756" result="shape"/>
</filter>
<clipPath id="clip0_1749_28756">
<rect width="70" height="70" fill="white" transform="translate(146 328)"/>
</clipPath>
</defs>
</svg>
