<svg width="611" height="471" viewBox="0 0 611 471" fill="none" xmlns="http://www.w3.org/2000/svg">
<rect width="611" height="458" fill="#F0F7FD"/>
<path d="M423.238 379.537L379.2 335.5L423.238 291.462C427.641 287.059 427.641 280.058 423.238 275.654C418.834 271.25 411.833 271.25 407.429 275.654L355.6 327.483C351.197 331.887 351.197 339 355.6 343.404L407.429 395.346C411.833 399.75 418.834 399.75 423.238 395.346C427.641 390.942 427.641 383.941 423.238 379.537ZM497.762 379.537L541.8 335.5L497.762 291.462C493.359 287.059 493.359 280.058 497.762 275.654C502.166 271.25 509.167 271.25 513.571 275.654L565.4 327.483C569.803 331.887 569.803 339 565.4 343.404L513.571 395.346C509.167 399.75 502.166 399.75 497.762 395.346C493.359 390.942 493.359 383.941 497.762 379.537Z" fill="#DBEAF6"/>
<path d="M72.2501 66.25L56.0001 50L72.2501 33.75C73.8751 32.125 73.8751 29.5416 72.2501 27.9166C70.6251 26.2916 68.0417 26.2916 66.4167 27.9166L47.2917 47.0416C45.6667 48.6666 45.6667 51.2916 47.2917 52.9166L66.4167 72.0833C68.0417 73.7083 70.6251 73.7083 72.2501 72.0833C73.8751 70.4583 73.8751 67.875 72.2501 66.25ZM99.7501 66.25L116 50L99.7501 33.75C98.1251 32.125 98.1251 29.5416 99.7501 27.9166C101.375 26.2916 103.958 26.2916 105.583 27.9166L124.708 47.0416C126.333 48.6666 126.333 51.2916 124.708 52.9166L105.583 72.0833C103.958 73.7083 101.375 73.7083 99.7501 72.0833C98.1251 70.4583 98.1251 67.875 99.7501 66.25Z" fill="#DBEAF6"/>
<rect x="159.5" y="83.5" width="259" height="39" rx="3.5" fill="white"/>
<path d="M176.131 97.8182H177.364V105.097C177.364 105.746 177.244 106.298 177.006 106.752C176.767 107.206 176.431 107.551 175.996 107.786C175.562 108.022 175.05 108.139 174.46 108.139C173.903 108.139 173.408 108.038 172.974 107.836C172.54 107.63 172.198 107.339 171.95 106.961C171.701 106.583 171.577 106.134 171.577 105.614H172.79C172.79 105.902 172.861 106.154 173.004 106.369C173.149 106.581 173.348 106.747 173.6 106.866C173.852 106.986 174.139 107.045 174.46 107.045C174.815 107.045 175.116 106.971 175.365 106.822C175.614 106.673 175.803 106.454 175.932 106.165C176.064 105.874 176.131 105.518 176.131 105.097V97.8182ZM181.923 108.179C181.439 108.179 181 108.088 180.605 107.906C180.211 107.72 179.897 107.453 179.665 107.105C179.433 106.754 179.317 106.33 179.317 105.832C179.317 105.395 179.404 105.04 179.576 104.768C179.748 104.493 179.979 104.278 180.267 104.122C180.555 103.966 180.874 103.85 181.222 103.774C181.573 103.695 181.926 103.632 182.281 103.585C182.745 103.526 183.121 103.481 183.409 103.451C183.701 103.418 183.913 103.363 184.045 103.287C184.181 103.211 184.249 103.078 184.249 102.889V102.849C184.249 102.359 184.115 101.978 183.847 101.706C183.581 101.434 183.179 101.298 182.638 101.298C182.078 101.298 181.639 101.421 181.321 101.666C181.003 101.911 180.779 102.173 180.65 102.452L179.536 102.054C179.735 101.59 180 101.229 180.332 100.97C180.666 100.708 181.031 100.526 181.425 100.423C181.823 100.317 182.214 100.264 182.599 100.264C182.844 100.264 183.126 100.294 183.444 100.354C183.765 100.41 184.075 100.528 184.374 100.707C184.675 100.886 184.925 101.156 185.124 101.517C185.323 101.878 185.423 102.362 185.423 102.969V108H184.249V106.966H184.19C184.11 107.132 183.978 107.309 183.792 107.498C183.606 107.687 183.359 107.848 183.051 107.98C182.743 108.113 182.367 108.179 181.923 108.179ZM182.102 107.125C182.566 107.125 182.957 107.034 183.275 106.852C183.596 106.669 183.838 106.434 184.001 106.146C184.166 105.857 184.249 105.554 184.249 105.236V104.162C184.2 104.222 184.09 104.276 183.921 104.326C183.755 104.372 183.563 104.414 183.344 104.45C183.129 104.483 182.919 104.513 182.713 104.54C182.511 104.563 182.347 104.583 182.221 104.599C181.916 104.639 181.631 104.704 181.366 104.793C181.104 104.879 180.892 105.01 180.729 105.186C180.57 105.358 180.491 105.594 180.491 105.892C180.491 106.3 180.642 106.608 180.943 106.817C181.248 107.022 181.634 107.125 182.102 107.125ZM193.535 100.364L190.711 108H189.518L186.694 100.364H187.967L190.075 106.449H190.154L192.262 100.364H193.535ZM197.098 108.179C196.614 108.179 196.175 108.088 195.781 107.906C195.386 107.72 195.073 107.453 194.841 107.105C194.609 106.754 194.493 106.33 194.493 105.832C194.493 105.395 194.579 105.04 194.752 104.768C194.924 104.493 195.154 104.278 195.443 104.122C195.731 103.966 196.049 103.85 196.397 103.774C196.749 103.695 197.102 103.632 197.456 103.585C197.92 103.526 198.297 103.481 198.585 103.451C198.877 103.418 199.089 103.363 199.221 103.287C199.357 103.211 199.425 103.078 199.425 102.889V102.849C199.425 102.359 199.291 101.978 199.022 101.706C198.757 101.434 198.355 101.298 197.814 101.298C197.254 101.298 196.815 101.421 196.497 101.666C196.179 101.911 195.955 102.173 195.826 102.452L194.712 102.054C194.911 101.59 195.176 101.229 195.507 100.97C195.842 100.708 196.207 100.526 196.601 100.423C196.999 100.317 197.39 100.264 197.775 100.264C198.02 100.264 198.301 100.294 198.62 100.354C198.941 100.41 199.251 100.528 199.549 100.707C199.851 100.886 200.101 101.156 200.3 101.517C200.499 101.878 200.598 102.362 200.598 102.969V108H199.425V106.966H199.365C199.286 107.132 199.153 107.309 198.968 107.498C198.782 107.687 198.535 107.848 198.227 107.98C197.919 108.113 197.542 108.179 197.098 108.179ZM197.277 107.125C197.741 107.125 198.132 107.034 198.451 106.852C198.772 106.669 199.014 106.434 199.176 106.146C199.342 105.857 199.425 105.554 199.425 105.236V104.162C199.375 104.222 199.266 104.276 199.097 104.326C198.931 104.372 198.739 104.414 198.52 104.45C198.305 104.483 198.094 104.513 197.889 104.54C197.687 104.563 197.523 104.583 197.397 104.599C197.092 104.639 196.807 104.704 196.542 104.793C196.28 104.879 196.068 105.01 195.905 105.186C195.746 105.358 195.667 105.594 195.667 105.892C195.667 106.3 195.817 106.608 196.119 106.817C196.424 107.022 196.81 107.125 197.277 107.125ZM208.149 102.074L207.095 102.372C207.029 102.196 206.931 102.026 206.802 101.86C206.676 101.691 206.503 101.552 206.285 101.442C206.066 101.333 205.786 101.278 205.444 101.278C204.977 101.278 204.588 101.386 204.276 101.602C203.968 101.814 203.814 102.084 203.814 102.412C203.814 102.704 203.92 102.934 204.132 103.103C204.344 103.272 204.675 103.413 205.126 103.526L206.26 103.804C206.943 103.97 207.451 104.223 207.786 104.565C208.121 104.903 208.288 105.339 208.288 105.872C208.288 106.31 208.162 106.701 207.91 107.045C207.662 107.39 207.314 107.662 206.866 107.861C206.419 108.06 205.898 108.159 205.305 108.159C204.526 108.159 203.882 107.99 203.371 107.652C202.861 107.314 202.538 106.82 202.402 106.17L203.515 105.892C203.622 106.303 203.822 106.611 204.117 106.817C204.415 107.022 204.805 107.125 205.285 107.125C205.832 107.125 206.266 107.009 206.588 106.777C206.913 106.542 207.075 106.26 207.075 105.932C207.075 105.667 206.982 105.445 206.797 105.266C206.611 105.083 206.326 104.947 205.942 104.858L204.669 104.56C203.97 104.394 203.456 104.137 203.128 103.789C202.803 103.438 202.64 102.999 202.64 102.472C202.64 102.041 202.761 101.66 203.003 101.328C203.249 100.997 203.582 100.737 204.003 100.548C204.427 100.359 204.907 100.264 205.444 100.264C206.2 100.264 206.793 100.43 207.224 100.761C207.658 101.093 207.967 101.53 208.149 102.074ZM213.157 108.159C212.441 108.159 211.824 107.99 211.307 107.652C210.79 107.314 210.392 106.848 210.114 106.255C209.836 105.662 209.696 104.984 209.696 104.222C209.696 103.446 209.839 102.762 210.124 102.168C210.412 101.572 210.813 101.106 211.327 100.771C211.844 100.433 212.447 100.264 213.137 100.264C213.674 100.264 214.158 100.364 214.588 100.562C215.019 100.761 215.372 101.04 215.647 101.398C215.922 101.756 216.093 102.173 216.159 102.651H214.986C214.897 102.303 214.698 101.994 214.39 101.726C214.085 101.454 213.674 101.318 213.157 101.318C212.699 101.318 212.298 101.437 211.953 101.676C211.612 101.911 211.345 102.245 211.153 102.675C210.964 103.103 210.87 103.605 210.87 104.182C210.87 104.772 210.962 105.286 211.148 105.723C211.337 106.161 211.602 106.5 211.944 106.742C212.288 106.984 212.693 107.105 213.157 107.105C213.462 107.105 213.738 107.052 213.987 106.946C214.235 106.84 214.446 106.688 214.618 106.489C214.791 106.29 214.913 106.051 214.986 105.773H216.159C216.093 106.223 215.929 106.629 215.667 106.991C215.409 107.349 215.066 107.634 214.638 107.846C214.214 108.055 213.72 108.159 213.157 108.159ZM217.875 108V100.364H219.008V101.517H219.088C219.227 101.139 219.479 100.833 219.843 100.597C220.208 100.362 220.619 100.244 221.076 100.244C221.163 100.244 221.27 100.246 221.4 100.249C221.529 100.253 221.627 100.258 221.693 100.264V101.457C221.653 101.447 221.562 101.433 221.419 101.413C221.28 101.389 221.133 101.378 220.977 101.378C220.606 101.378 220.274 101.456 219.983 101.612C219.694 101.764 219.466 101.976 219.297 102.248C219.131 102.516 219.048 102.823 219.048 103.168V108H217.875ZM223.084 108V100.364H224.257V108H223.084ZM223.68 99.0909C223.452 99.0909 223.254 99.013 223.089 98.8572C222.926 98.7015 222.845 98.5142 222.845 98.2955C222.845 98.0767 222.926 97.8894 223.089 97.7337C223.254 97.5779 223.452 97.5 223.68 97.5C223.909 97.5 224.104 97.5779 224.267 97.7337C224.433 97.8894 224.515 98.0767 224.515 98.2955C224.515 98.5142 224.433 98.7015 224.267 98.8572C224.104 99.013 223.909 99.0909 223.68 99.0909ZM226.406 110.864V100.364H227.539V101.577H227.679C227.765 101.444 227.884 101.275 228.037 101.07C228.192 100.861 228.414 100.675 228.703 100.513C228.994 100.347 229.389 100.264 229.886 100.264C230.529 100.264 231.096 100.425 231.586 100.746C232.077 101.068 232.46 101.524 232.735 102.114C233.01 102.704 233.147 103.4 233.147 104.202C233.147 105.01 233.01 105.711 232.735 106.305C232.46 106.895 232.078 107.352 231.591 107.677C231.104 107.998 230.542 108.159 229.906 108.159C229.415 108.159 229.023 108.078 228.728 107.915C228.433 107.75 228.206 107.562 228.047 107.354C227.887 107.142 227.765 106.966 227.679 106.827H227.579V110.864H226.406ZM227.559 104.182C227.559 104.759 227.644 105.267 227.813 105.708C227.982 106.146 228.229 106.489 228.554 106.737C228.878 106.982 229.276 107.105 229.747 107.105C230.237 107.105 230.647 106.976 230.975 106.717C231.306 106.455 231.555 106.104 231.721 105.663C231.89 105.219 231.974 104.725 231.974 104.182C231.974 103.645 231.891 103.161 231.725 102.73C231.563 102.296 231.316 101.953 230.985 101.701C230.657 101.446 230.244 101.318 229.747 101.318C229.27 101.318 228.868 101.439 228.544 101.681C228.219 101.92 227.974 102.254 227.808 102.685C227.642 103.113 227.559 103.612 227.559 104.182ZM238.258 100.364V101.358H234.301V100.364H238.258ZM235.454 98.5341H236.627V105.812C236.627 106.144 236.676 106.393 236.772 106.558C236.871 106.721 236.997 106.83 237.15 106.886C237.305 106.939 237.469 106.966 237.642 106.966C237.771 106.966 237.877 106.959 237.96 106.946C238.043 106.929 238.109 106.916 238.159 106.906L238.397 107.96C238.318 107.99 238.207 108.02 238.064 108.05C237.922 108.083 237.741 108.099 237.522 108.099C237.191 108.099 236.866 108.028 236.548 107.886C236.233 107.743 235.971 107.526 235.762 107.234C235.557 106.943 235.454 106.575 235.454 106.131V98.5341Z" fill="#3F4346"/>
<path d="M397.175 106.087L401 102.271L404.825 106.087L406 104.912L401 99.9125L396 104.912L397.175 106.087Z" fill="#5D6164"/>
<rect x="159.5" y="83.5" width="259" height="39" rx="3.5" stroke="#1157A6"/>
<rect width="55" height="12" transform="translate(167 77)" fill="white"/>
<path d="M171.881 87V79.7273H172.761V86.2188H176.142V87H171.881ZM178.997 87.1278C178.652 87.1278 178.338 87.0627 178.056 86.9325C177.774 86.8 177.551 86.6094 177.385 86.3608C177.219 86.1098 177.136 85.8068 177.136 85.4517C177.136 85.1392 177.198 84.8859 177.321 84.6918C177.444 84.4953 177.609 84.3414 177.815 84.2301C178.021 84.1188 178.248 84.036 178.496 83.9815C178.747 83.9247 179 83.8797 179.253 83.8466C179.584 83.804 179.853 83.772 180.059 83.7507C180.267 83.727 180.419 83.688 180.513 83.6335C180.611 83.5791 180.659 83.4844 180.659 83.3494V83.321C180.659 82.9706 180.563 82.6984 180.371 82.5043C180.182 82.3101 179.894 82.2131 179.509 82.2131C179.108 82.2131 178.795 82.3007 178.567 82.4759C178.34 82.651 178.18 82.8381 178.088 83.0369L177.293 82.7528C177.435 82.4214 177.624 82.1634 177.861 81.9787C178.1 81.7917 178.36 81.6615 178.642 81.5881C178.926 81.5123 179.205 81.4744 179.48 81.4744C179.655 81.4744 179.857 81.4957 180.084 81.5384C180.313 81.5786 180.535 81.6626 180.748 81.7905C180.963 81.9183 181.142 82.1113 181.284 82.3693C181.426 82.6274 181.497 82.973 181.497 83.4062V87H180.659V86.2614H180.616C180.56 86.3797 180.465 86.5064 180.332 86.6413C180.2 86.7763 180.023 86.8911 179.803 86.9858C179.583 87.0805 179.314 87.1278 178.997 87.1278ZM179.125 86.375C179.456 86.375 179.736 86.3099 179.963 86.1797C180.193 86.0495 180.366 85.8814 180.482 85.6754C180.6 85.4695 180.659 85.2528 180.659 85.0256V84.2585C180.624 84.3011 180.545 84.3402 180.425 84.3757C180.306 84.4089 180.169 84.4384 180.013 84.4645C179.859 84.4882 179.709 84.5095 179.562 84.5284C179.417 84.545 179.3 84.5592 179.21 84.571C178.992 84.5994 178.789 84.6456 178.599 84.7095C178.412 84.7711 178.261 84.8646 178.145 84.9901C178.031 85.1132 177.974 85.2812 177.974 85.4943C177.974 85.7855 178.082 86.0057 178.298 86.1548C178.515 86.3016 178.791 86.375 179.125 86.375ZM183.865 83.7188V87H183.027V81.5455H183.836V82.3977H183.907C184.035 82.1207 184.229 81.8982 184.49 81.7301C184.75 81.5597 185.086 81.4744 185.498 81.4744C185.868 81.4744 186.191 81.5502 186.468 81.7017C186.745 81.8509 186.96 82.0781 187.114 82.3835C187.268 82.6866 187.345 83.0701 187.345 83.5341V87H186.507V83.5909C186.507 83.1624 186.396 82.8286 186.173 82.5895C185.951 82.348 185.645 82.2273 185.257 82.2273C184.989 82.2273 184.75 82.2853 184.54 82.4013C184.331 82.5173 184.167 82.6866 184.046 82.9091C183.925 83.1316 183.865 83.4015 183.865 83.7188ZM191.078 89.1591C190.673 89.1591 190.325 89.107 190.034 89.0028C189.743 88.901 189.5 88.7661 189.306 88.598C189.114 88.4323 188.962 88.2547 188.848 88.0653L189.516 87.5966C189.591 87.696 189.687 87.8097 189.803 87.9375C189.919 88.0677 190.078 88.1802 190.279 88.2749C190.483 88.3719 190.749 88.4205 191.078 88.4205C191.518 88.4205 191.882 88.3139 192.168 88.1009C192.455 87.8878 192.598 87.554 192.598 87.0994V85.9915H192.527C192.465 86.0909 192.378 86.214 192.264 86.3608C192.153 86.5052 191.992 86.6342 191.781 86.7479C191.573 86.8591 191.291 86.9148 190.936 86.9148C190.496 86.9148 190.1 86.8106 189.75 86.6023C189.402 86.3939 189.126 86.0909 188.923 85.6932C188.721 85.2955 188.621 84.8125 188.621 84.2443C188.621 83.6856 188.719 83.1991 188.915 82.7848C189.112 82.3681 189.385 82.0462 189.736 81.8189C190.086 81.5893 190.491 81.4744 190.95 81.4744C191.305 81.4744 191.587 81.5336 191.795 81.652C192.006 81.768 192.167 81.9006 192.278 82.0497C192.392 82.1965 192.48 82.3172 192.541 82.4119H192.626V81.5455H193.436V87.1562C193.436 87.625 193.33 88.0062 193.116 88.2997C192.906 88.5956 192.622 88.8123 192.264 88.9496C191.909 89.0893 191.514 89.1591 191.078 89.1591ZM191.05 86.1619C191.386 86.1619 191.67 86.085 191.902 85.9311C192.134 85.7772 192.31 85.5559 192.431 85.267C192.552 84.9782 192.612 84.6326 192.612 84.2301C192.612 83.8371 192.553 83.4903 192.435 83.1896C192.316 82.889 192.141 82.6534 191.909 82.483C191.677 82.3125 191.391 82.2273 191.05 82.2273C190.695 82.2273 190.399 82.3172 190.162 82.4972C189.928 82.6771 189.751 82.9186 189.633 83.2216C189.517 83.5246 189.459 83.8608 189.459 84.2301C189.459 84.6089 189.518 84.9439 189.636 85.2351C189.757 85.5239 189.935 85.7512 190.169 85.9169C190.406 86.0803 190.699 86.1619 191.05 86.1619ZM198.408 84.7699V81.5455H199.246V87H198.408V86.0767H198.351C198.223 86.3537 198.024 86.5893 197.754 86.7834C197.484 86.9751 197.143 87.071 196.732 87.071C196.391 87.071 196.088 86.9964 195.822 86.8473C195.557 86.6958 195.349 86.4685 195.197 86.1655C195.046 85.8601 194.97 85.4754 194.97 85.0114V81.5455H195.808V84.9545C195.808 85.3523 195.92 85.6695 196.142 85.9062C196.367 86.143 196.653 86.2614 197.001 86.2614C197.21 86.2614 197.422 86.2081 197.637 86.1016C197.855 85.995 198.037 85.8317 198.184 85.6115C198.333 85.3913 198.408 85.1108 198.408 84.7699ZM202.386 87.1278C202.04 87.1278 201.727 87.0627 201.445 86.9325C201.163 86.8 200.939 86.6094 200.774 86.3608C200.608 86.1098 200.525 85.8068 200.525 85.4517C200.525 85.1392 200.587 84.8859 200.71 84.6918C200.833 84.4953 200.997 84.3414 201.203 84.2301C201.409 84.1188 201.637 84.036 201.885 83.9815C202.136 83.9247 202.388 83.8797 202.642 83.8466C202.973 83.804 203.242 83.772 203.448 83.7507C203.656 83.727 203.807 83.688 203.902 83.6335C203.999 83.5791 204.048 83.4844 204.048 83.3494V83.321C204.048 82.9706 203.952 82.6984 203.76 82.5043C203.571 82.3101 203.283 82.2131 202.897 82.2131C202.497 82.2131 202.183 82.3007 201.956 82.4759C201.729 82.651 201.569 82.8381 201.477 83.0369L200.681 82.7528C200.823 82.4214 201.013 82.1634 201.249 81.9787C201.489 81.7917 201.749 81.6615 202.031 81.5881C202.315 81.5123 202.594 81.4744 202.869 81.4744C203.044 81.4744 203.245 81.4957 203.472 81.5384C203.702 81.5786 203.923 81.6626 204.137 81.7905C204.352 81.9183 204.531 82.1113 204.673 82.3693C204.815 82.6274 204.886 82.973 204.886 83.4062V87H204.048V86.2614H204.005C203.948 86.3797 203.854 86.5064 203.721 86.6413C203.588 86.7763 203.412 86.8911 203.192 86.9858C202.972 87.0805 202.703 87.1278 202.386 87.1278ZM202.514 86.375C202.845 86.375 203.124 86.3099 203.352 86.1797C203.581 86.0495 203.754 85.8814 203.87 85.6754C203.989 85.4695 204.048 85.2528 204.048 85.0256V84.2585C204.012 84.3011 203.934 84.3402 203.813 84.3757C203.695 84.4089 203.558 84.4384 203.401 84.4645C203.248 84.4882 203.097 84.5095 202.95 84.5284C202.806 84.545 202.689 84.5592 202.599 84.571C202.381 84.5994 202.177 84.6456 201.988 84.7095C201.801 84.7711 201.65 84.8646 201.534 84.9901C201.42 85.1132 201.363 85.2812 201.363 85.4943C201.363 85.7855 201.471 86.0057 201.686 86.1548C201.904 86.3016 202.18 86.375 202.514 86.375ZM208.617 89.1591C208.212 89.1591 207.864 89.107 207.573 89.0028C207.282 88.901 207.039 88.7661 206.845 88.598C206.653 88.4323 206.501 88.2547 206.387 88.0653L207.055 87.5966C207.13 87.696 207.226 87.8097 207.342 87.9375C207.458 88.0677 207.617 88.1802 207.818 88.2749C208.022 88.3719 208.288 88.4205 208.617 88.4205C209.058 88.4205 209.421 88.3139 209.707 88.1009C209.994 87.8878 210.137 87.554 210.137 87.0994V85.9915H210.066C210.004 86.0909 209.917 86.214 209.803 86.3608C209.692 86.5052 209.531 86.6342 209.32 86.7479C209.112 86.8591 208.83 86.9148 208.475 86.9148C208.035 86.9148 207.639 86.8106 207.289 86.6023C206.941 86.3939 206.665 86.0909 206.462 85.6932C206.26 85.2955 206.16 84.8125 206.16 84.2443C206.16 83.6856 206.258 83.1991 206.455 82.7848C206.651 82.3681 206.924 82.0462 207.275 81.8189C207.625 81.5893 208.03 81.4744 208.489 81.4744C208.844 81.4744 209.126 81.5336 209.335 81.652C209.545 81.768 209.706 81.9006 209.817 82.0497C209.931 82.1965 210.019 82.3172 210.08 82.4119H210.165V81.5455H210.975V87.1562C210.975 87.625 210.869 88.0062 210.656 88.2997C210.445 88.5956 210.161 88.8123 209.803 88.9496C209.448 89.0893 209.053 89.1591 208.617 89.1591ZM208.589 86.1619C208.925 86.1619 209.209 86.085 209.441 85.9311C209.673 85.7772 209.849 85.5559 209.97 85.267C210.091 84.9782 210.151 84.6326 210.151 84.2301C210.151 83.8371 210.092 83.4903 209.974 83.1896C209.855 82.889 209.68 82.6534 209.448 82.483C209.216 82.3125 208.93 82.2273 208.589 82.2273C208.234 82.2273 207.938 82.3172 207.701 82.4972C207.467 82.6771 207.29 82.9186 207.172 83.2216C207.056 83.5246 206.998 83.8608 206.998 84.2301C206.998 84.6089 207.057 84.9439 207.175 85.2351C207.296 85.5239 207.474 85.7512 207.708 85.9169C207.945 86.0803 208.238 86.1619 208.589 86.1619ZM214.796 87.1136C214.271 87.1136 213.817 86.9976 213.436 86.7656C213.057 86.5312 212.765 86.2045 212.559 85.7855C212.355 85.3641 212.254 84.8741 212.254 84.3153C212.254 83.7566 212.355 83.2642 212.559 82.8381C212.765 82.4096 213.051 82.0758 213.418 81.8366C213.788 81.5952 214.219 81.4744 214.711 81.4744C214.995 81.4744 215.276 81.5218 215.553 81.6165C215.83 81.7112 216.082 81.8651 216.309 82.0781C216.536 82.2888 216.717 82.5682 216.852 82.9162C216.987 83.2642 217.055 83.6927 217.055 84.2017V84.5568H212.85V83.8324H216.202C216.202 83.5246 216.141 83.25 216.018 83.0085C215.897 82.767 215.724 82.5765 215.499 82.4368C215.277 82.2971 215.014 82.2273 214.711 82.2273C214.377 82.2273 214.088 82.3101 213.844 82.4759C213.603 82.6392 213.417 82.8523 213.287 83.1151C213.157 83.3778 213.092 83.6596 213.092 83.9602V84.4432C213.092 84.8551 213.163 85.2043 213.305 85.4908C213.449 85.7749 213.649 85.9915 213.905 86.1406C214.161 86.2874 214.458 86.3608 214.796 86.3608C215.016 86.3608 215.215 86.33 215.393 86.2685C215.573 86.2045 215.728 86.1098 215.858 85.9844C215.988 85.8565 216.089 85.6979 216.16 85.5085L216.969 85.7358C216.884 86.0104 216.741 86.2519 216.54 86.4602C216.339 86.6662 216.09 86.8272 215.794 86.9432C215.498 87.0568 215.165 87.1136 214.796 87.1136Z" fill="#1157A6"/>
<rect x="65.5" y="278.5" width="259" height="39" rx="3.5" fill="white"/>
<path d="M78.6506 303H77.358L81.0966 292.818H82.3693L86.108 303H84.8153L81.7727 294.429H81.6932L78.6506 303ZM79.1278 299.023H84.3381V300.116H79.1278V299.023ZM92.3473 299.878V295.364H93.5206V303H92.3473V301.707H92.2678C92.0888 302.095 91.8104 302.425 91.4325 302.697C91.0547 302.965 90.5774 303.099 90.0007 303.099C89.5234 303.099 89.0992 302.995 88.728 302.786C88.3568 302.574 88.0651 302.256 87.853 301.832C87.6409 301.404 87.5348 300.866 87.5348 300.216V295.364H88.7081V300.136C88.7081 300.693 88.8639 301.137 89.1754 301.469C89.4903 301.8 89.8913 301.966 90.3786 301.966C90.6702 301.966 90.9669 301.891 91.2685 301.742C91.5734 301.593 91.8286 301.364 92.0341 301.056C92.2429 300.748 92.3473 300.355 92.3473 299.878ZM98.9906 295.364V296.358H95.0332V295.364H98.9906ZM96.1866 293.534H97.3599V300.812C97.3599 301.144 97.408 301.393 97.5041 301.558C97.6035 301.721 97.7295 301.83 97.8819 301.886C98.0377 301.939 98.2018 301.966 98.3741 301.966C98.5034 301.966 98.6094 301.959 98.6923 301.946C98.7752 301.929 98.8414 301.916 98.8912 301.906L99.1298 302.96C99.0502 302.99 98.9392 303.02 98.7967 303.05C98.6542 303.083 98.4735 303.099 98.2548 303.099C97.9234 303.099 97.5985 303.028 97.2804 302.886C96.9655 302.743 96.7037 302.526 96.4949 302.234C96.2894 301.943 96.1866 301.575 96.1866 301.131V293.534ZM102.093 298.406V303H100.92V292.818H102.093V296.557H102.192C102.371 296.162 102.64 295.849 102.998 295.617C103.359 295.382 103.84 295.264 104.439 295.264C104.96 295.264 105.416 295.369 105.807 295.577C106.198 295.783 106.501 296.099 106.716 296.527C106.935 296.951 107.045 297.491 107.045 298.148V303H105.871V298.227C105.871 297.621 105.714 297.152 105.399 296.82C105.087 296.486 104.655 296.318 104.101 296.318C103.717 296.318 103.372 296.399 103.067 296.562C102.766 296.724 102.527 296.961 102.351 297.273C102.179 297.584 102.093 297.962 102.093 298.406ZM110.285 300.216L110.265 298.764H110.504L113.844 295.364H115.296L111.737 298.963H111.637L110.285 300.216ZM109.191 303V292.818H110.364V303H109.191ZM114.043 303L111.06 299.222L111.896 298.406L115.535 303H114.043ZM119.694 303.159C118.958 303.159 118.323 302.997 117.789 302.672C117.259 302.344 116.85 301.886 116.561 301.3C116.276 300.71 116.134 300.024 116.134 299.241C116.134 298.459 116.276 297.77 116.561 297.173C116.85 296.573 117.251 296.106 117.765 295.771C118.282 295.433 118.885 295.264 119.574 295.264C119.972 295.264 120.365 295.33 120.752 295.463C121.14 295.596 121.493 295.811 121.811 296.109C122.13 296.404 122.383 296.795 122.572 297.283C122.761 297.77 122.855 298.37 122.855 299.082V299.58H116.969V298.565H121.662C121.662 298.134 121.576 297.75 121.404 297.412C121.235 297.074 120.993 296.807 120.678 296.612C120.366 296.416 119.998 296.318 119.574 296.318C119.107 296.318 118.703 296.434 118.361 296.666C118.023 296.895 117.763 297.193 117.581 297.561C117.398 297.929 117.307 298.323 117.307 298.744V299.42C117.307 299.997 117.407 300.486 117.605 300.887C117.808 301.285 118.088 301.588 118.446 301.797C118.804 302.002 119.22 302.105 119.694 302.105C120.002 302.105 120.28 302.062 120.529 301.976C120.781 301.886 120.998 301.754 121.18 301.578C121.362 301.399 121.503 301.177 121.603 300.912L122.736 301.23C122.617 301.615 122.416 301.953 122.135 302.244C121.853 302.533 121.505 302.758 121.091 302.92C120.676 303.08 120.211 303.159 119.694 303.159ZM125.164 305.864C124.965 305.864 124.787 305.847 124.632 305.814C124.476 305.784 124.368 305.754 124.308 305.724L124.607 304.69C124.892 304.763 125.144 304.79 125.362 304.77C125.581 304.75 125.775 304.652 125.944 304.477C126.116 304.304 126.274 304.024 126.416 303.636L126.635 303.04L123.811 295.364H125.084L127.192 301.449H127.271L129.379 295.364H130.652L127.411 304.114C127.265 304.508 127.084 304.835 126.869 305.093C126.653 305.355 126.403 305.549 126.118 305.675C125.836 305.801 125.518 305.864 125.164 305.864Z" fill="#3F4346"/>
<path d="M303.175 294.912L307 298.729L310.825 294.912L312 296.087L307 301.087L302 296.087L303.175 294.912Z" fill="#5D6164"/>
<rect x="65.5" y="278.5" width="259" height="39" rx="3.5" stroke="#D5D9DC"/>
<rect width="43" height="12" transform="translate(73 272)" fill="white"/>
<path d="M77.8807 282V274.727H78.7614V277.966H82.6392V274.727H83.5199V282H82.6392V278.747H78.7614V282H77.8807ZM87.4563 282.114C86.9308 282.114 86.4774 281.998 86.0962 281.766C85.7174 281.531 85.4251 281.205 85.2191 280.786C85.0155 280.364 84.9137 279.874 84.9137 279.315C84.9137 278.757 85.0155 278.264 85.2191 277.838C85.4251 277.41 85.7115 277.076 86.0785 276.837C86.4478 276.595 86.8787 276.474 87.3711 276.474C87.6552 276.474 87.9357 276.522 88.2127 276.616C88.4897 276.711 88.7418 276.865 88.9691 277.078C89.1964 277.289 89.3775 277.568 89.5124 277.916C89.6474 278.264 89.7148 278.693 89.7148 279.202V279.557H85.5103V278.832H88.8626C88.8626 278.525 88.801 278.25 88.6779 278.009C88.5572 277.767 88.3844 277.576 88.1594 277.437C87.9369 277.297 87.6741 277.227 87.3711 277.227C87.0373 277.227 86.7485 277.31 86.5046 277.476C86.2631 277.639 86.0773 277.852 85.9471 278.115C85.8169 278.378 85.7518 278.66 85.7518 278.96V279.443C85.7518 279.855 85.8228 280.204 85.9648 280.491C86.1093 280.775 86.3093 280.991 86.565 281.141C86.8207 281.287 87.1178 281.361 87.4563 281.361C87.6765 281.361 87.8754 281.33 88.0529 281.268C88.2328 281.205 88.3879 281.11 88.5181 280.984C88.6483 280.857 88.7489 280.698 88.82 280.509L89.6296 280.736C89.5444 281.01 89.4012 281.252 89.1999 281.46C88.9987 281.666 88.7501 281.827 88.4542 281.943C88.1583 282.057 87.8256 282.114 87.4563 282.114ZM92.5948 282.128C92.2492 282.128 91.9355 282.063 91.6538 281.933C91.372 281.8 91.1483 281.609 90.9826 281.361C90.8169 281.11 90.734 280.807 90.734 280.452C90.734 280.139 90.7956 279.886 90.9187 279.692C91.0418 279.495 91.2063 279.341 91.4123 279.23C91.6183 279.119 91.8455 279.036 92.0941 278.982C92.3451 278.925 92.5972 278.88 92.8505 278.847C93.1819 278.804 93.4506 278.772 93.6566 278.751C93.8649 278.727 94.0165 278.688 94.1112 278.634C94.2082 278.579 94.2567 278.484 94.2567 278.349V278.321C94.2567 277.971 94.1609 277.698 93.9691 277.504C93.7797 277.31 93.4921 277.213 93.1062 277.213C92.7061 277.213 92.3924 277.301 92.1651 277.476C91.9379 277.651 91.7781 277.838 91.6857 278.037L90.8903 277.753C91.0323 277.421 91.2217 277.163 91.4585 276.979C91.6976 276.792 91.958 276.661 92.2397 276.588C92.5238 276.512 92.8031 276.474 93.0778 276.474C93.253 276.474 93.4542 276.496 93.6815 276.538C93.9111 276.579 94.1325 276.663 94.3455 276.79C94.561 276.918 94.7397 277.111 94.8817 277.369C95.0238 277.627 95.0948 277.973 95.0948 278.406V282H94.2567V281.261H94.2141C94.1573 281.38 94.0626 281.506 93.93 281.641C93.7975 281.776 93.6211 281.891 93.4009 281.986C93.1808 282.08 92.9121 282.128 92.5948 282.128ZM92.7227 281.375C93.0541 281.375 93.3335 281.31 93.5607 281.18C93.7904 281.049 93.9632 280.881 94.0792 280.675C94.1976 280.469 94.2567 280.253 94.2567 280.026V279.259C94.2212 279.301 94.1431 279.34 94.0224 279.376C93.904 279.409 93.7667 279.438 93.6104 279.464C93.4566 279.488 93.3062 279.509 93.1594 279.528C93.015 279.545 92.8978 279.559 92.8079 279.571C92.5901 279.599 92.3865 279.646 92.1971 279.71C92.0101 279.771 91.8585 279.865 91.7425 279.99C91.6289 280.113 91.5721 280.281 91.5721 280.494C91.5721 280.786 91.6798 281.006 91.8952 281.155C92.113 281.302 92.3888 281.375 92.7227 281.375ZM98.6841 282.114C98.2296 282.114 97.8283 281.999 97.4803 281.769C97.1323 281.537 96.86 281.21 96.6635 280.789C96.467 280.365 96.3688 279.865 96.3688 279.287C96.3688 278.714 96.467 278.217 96.6635 277.795C96.86 277.374 97.1335 277.049 97.4838 276.819C97.8342 276.589 98.2391 276.474 98.6983 276.474C99.0534 276.474 99.334 276.534 99.54 276.652C99.7483 276.768 99.9069 276.901 100.016 277.05C100.127 277.196 100.213 277.317 100.275 277.412H100.346V274.727H101.184V282H100.374V281.162H100.275C100.213 281.261 100.126 281.387 100.012 281.538C99.8986 281.687 99.7364 281.821 99.5257 281.94C99.315 282.056 99.0345 282.114 98.6841 282.114ZM98.7978 281.361C99.1339 281.361 99.418 281.273 99.65 281.098C99.882 280.92 100.058 280.675 100.179 280.363C100.3 280.048 100.36 279.685 100.36 279.273C100.36 278.866 100.301 278.509 100.183 278.204C100.064 277.896 99.8891 277.657 99.6571 277.487C99.4251 277.314 99.1387 277.227 98.7978 277.227C98.4426 277.227 98.1467 277.318 97.91 277.501C97.6756 277.681 97.4992 277.926 97.3809 278.236C97.2649 278.544 97.2069 278.889 97.2069 279.273C97.2069 279.661 97.266 280.014 97.3844 280.331C97.5051 280.646 97.6827 280.897 97.9171 281.084C98.1538 281.268 98.4474 281.361 98.7978 281.361ZM105.122 282.114C104.597 282.114 104.143 281.998 103.762 281.766C103.383 281.531 103.091 281.205 102.885 280.786C102.682 280.364 102.58 279.874 102.58 279.315C102.58 278.757 102.682 278.264 102.885 277.838C103.091 277.41 103.378 277.076 103.744 276.837C104.114 276.595 104.545 276.474 105.037 276.474C105.321 276.474 105.602 276.522 105.879 276.616C106.156 276.711 106.408 276.865 106.635 277.078C106.862 277.289 107.044 277.568 107.178 277.916C107.313 278.264 107.381 278.693 107.381 279.202V279.557H103.176V278.832H106.529C106.529 278.525 106.467 278.25 106.344 278.009C106.223 277.767 106.05 277.576 105.825 277.437C105.603 277.297 105.34 277.227 105.037 277.227C104.703 277.227 104.414 277.31 104.171 277.476C103.929 277.639 103.743 277.852 103.613 278.115C103.483 278.378 103.418 278.66 103.418 278.96V279.443C103.418 279.855 103.489 280.204 103.631 280.491C103.775 280.775 103.975 280.991 104.231 281.141C104.487 281.287 104.784 281.361 105.122 281.361C105.343 281.361 105.541 281.33 105.719 281.268C105.899 281.205 106.054 281.11 106.184 280.984C106.314 280.857 106.415 280.698 106.486 280.509L107.296 280.736C107.21 281.01 107.067 281.252 106.866 281.46C106.665 281.666 106.416 281.827 106.12 281.943C105.824 282.057 105.492 282.114 105.122 282.114ZM108.656 282V276.545H109.465V277.369H109.522C109.622 277.099 109.802 276.88 110.062 276.712C110.322 276.544 110.616 276.46 110.943 276.46C111.004 276.46 111.081 276.461 111.173 276.464C111.266 276.466 111.336 276.47 111.383 276.474V277.327C111.355 277.32 111.289 277.309 111.188 277.295C111.088 277.278 110.983 277.27 110.872 277.27C110.606 277.27 110.37 277.326 110.161 277.437C109.955 277.546 109.792 277.697 109.671 277.891C109.553 278.083 109.494 278.302 109.494 278.548V282H108.656Z" fill="#3F4346"/>
<g filter="url(#filter0_d_1653_25751)">
<g clip-path="url(#clip0_1653_25751)">
<rect x="159" y="124" width="260" height="132" rx="4" fill="white"/>
<path d="M180.426 144H179.193C179.12 143.645 178.993 143.334 178.81 143.065C178.631 142.797 178.413 142.571 178.154 142.389C177.899 142.204 177.616 142.064 177.304 141.972C176.992 141.879 176.668 141.832 176.33 141.832C175.713 141.832 175.155 141.988 174.654 142.3C174.157 142.611 173.761 143.07 173.466 143.677C173.174 144.283 173.028 145.027 173.028 145.909C173.028 146.791 173.174 147.535 173.466 148.141C173.761 148.748 174.157 149.207 174.654 149.518C175.155 149.83 175.713 149.986 176.33 149.986C176.668 149.986 176.992 149.939 177.304 149.847C177.616 149.754 177.899 149.616 178.154 149.434C178.413 149.248 178.631 149.021 178.81 148.753C178.993 148.481 179.12 148.17 179.193 147.818H180.426C180.333 148.339 180.164 148.804 179.919 149.215C179.674 149.626 179.369 149.976 179.004 150.264C178.64 150.549 178.23 150.766 177.776 150.915C177.326 151.065 176.843 151.139 176.33 151.139C175.461 151.139 174.689 150.927 174.013 150.503C173.337 150.079 172.805 149.475 172.417 148.693C172.029 147.911 171.835 146.983 171.835 145.909C171.835 144.835 172.029 143.907 172.417 143.125C172.805 142.343 173.337 141.74 174.013 141.315C174.689 140.891 175.461 140.679 176.33 140.679C176.843 140.679 177.326 140.754 177.776 140.903C178.23 141.052 178.64 141.271 179.004 141.559C179.369 141.844 179.674 142.192 179.919 142.603C180.164 143.011 180.333 143.476 180.426 144ZM187.072 147.878V143.364H188.245V151H187.072V149.707H186.992C186.813 150.095 186.535 150.425 186.157 150.697C185.779 150.965 185.302 151.099 184.725 151.099C184.248 151.099 183.824 150.995 183.453 150.786C183.081 150.574 182.79 150.256 182.578 149.832C182.365 149.404 182.259 148.866 182.259 148.216V143.364H183.433V148.136C183.433 148.693 183.588 149.137 183.9 149.469C184.215 149.8 184.616 149.966 185.103 149.966C185.395 149.966 185.691 149.891 185.993 149.742C186.298 149.593 186.553 149.364 186.759 149.056C186.968 148.748 187.072 148.355 187.072 147.878ZM190.394 151V143.364H191.528V144.517H191.607C191.746 144.139 191.998 143.833 192.363 143.597C192.728 143.362 193.138 143.244 193.596 143.244C193.682 143.244 193.79 143.246 193.919 143.249C194.048 143.253 194.146 143.258 194.212 143.264V144.457C194.173 144.447 194.081 144.433 193.939 144.413C193.8 144.389 193.652 144.378 193.496 144.378C193.125 144.378 192.794 144.456 192.502 144.612C192.214 144.764 191.985 144.976 191.816 145.248C191.65 145.516 191.567 145.823 191.567 146.168V151H190.394ZM196.776 140.818V151H195.603V140.818H196.776Z" fill="#3F4346"/>
<path d="M172.233 195V184.818H175.673C176.472 184.818 177.125 184.962 177.632 185.251C178.143 185.536 178.52 185.922 178.766 186.409C179.011 186.896 179.134 187.44 179.134 188.04C179.134 188.64 179.011 189.185 178.766 189.675C178.524 190.166 178.149 190.557 177.642 190.849C177.135 191.137 176.485 191.281 175.693 191.281H173.227V190.188H175.653C176.2 190.188 176.639 190.093 176.971 189.904C177.302 189.715 177.543 189.46 177.692 189.138C177.844 188.814 177.92 188.447 177.92 188.04C177.92 187.632 177.844 187.268 177.692 186.946C177.543 186.625 177.301 186.373 176.966 186.19C176.631 186.005 176.187 185.912 175.634 185.912H173.466V195H172.233ZM181.12 195V184.818H182.353V189.352H187.782V184.818H189.015V195H187.782V190.446H182.353V195H181.12ZM191.483 195V184.818H194.923C195.722 184.818 196.375 184.962 196.882 185.251C197.393 185.536 197.77 185.922 198.016 186.409C198.261 186.896 198.384 187.44 198.384 188.04C198.384 188.64 198.261 189.185 198.016 189.675C197.774 190.166 197.399 190.557 196.892 190.849C196.385 191.137 195.735 191.281 194.943 191.281H192.477V190.188H194.903C195.45 190.188 195.889 190.093 196.221 189.904C196.552 189.715 196.793 189.46 196.942 189.138C197.094 188.814 197.17 188.447 197.17 188.04C197.17 187.632 197.094 187.268 196.942 186.946C196.793 186.625 196.551 186.373 196.216 186.19C195.881 186.005 195.437 185.912 194.884 185.912H192.716V195H191.483Z" fill="#3F4346"/>
<rect width="260" height="44" transform="translate(159 212)" fill="#4DA0FF" fill-opacity="0.16"/>
<path d="M176.131 228.818H177.364V236.097C177.364 236.746 177.244 237.298 177.006 237.752C176.767 238.206 176.431 238.551 175.996 238.786C175.562 239.022 175.05 239.139 174.46 239.139C173.903 239.139 173.408 239.038 172.974 238.836C172.54 238.63 172.198 238.339 171.95 237.961C171.701 237.583 171.577 237.134 171.577 236.614H172.79C172.79 236.902 172.861 237.154 173.004 237.369C173.149 237.581 173.348 237.747 173.6 237.866C173.852 237.986 174.139 238.045 174.46 238.045C174.815 238.045 175.116 237.971 175.365 237.822C175.614 237.673 175.803 237.454 175.932 237.165C176.064 236.874 176.131 236.518 176.131 236.097V228.818ZM181.923 239.179C181.439 239.179 181 239.088 180.605 238.906C180.211 238.72 179.897 238.453 179.665 238.105C179.433 237.754 179.317 237.33 179.317 236.832C179.317 236.395 179.404 236.04 179.576 235.768C179.748 235.493 179.979 235.278 180.267 235.122C180.555 234.966 180.874 234.85 181.222 234.774C181.573 234.695 181.926 234.632 182.281 234.585C182.745 234.526 183.121 234.481 183.409 234.451C183.701 234.418 183.913 234.363 184.045 234.287C184.181 234.211 184.249 234.078 184.249 233.889V233.849C184.249 233.359 184.115 232.978 183.847 232.706C183.581 232.434 183.179 232.298 182.638 232.298C182.078 232.298 181.639 232.421 181.321 232.666C181.003 232.911 180.779 233.173 180.65 233.452L179.536 233.054C179.735 232.59 180 232.229 180.332 231.97C180.666 231.708 181.031 231.526 181.425 231.423C181.823 231.317 182.214 231.264 182.599 231.264C182.844 231.264 183.126 231.294 183.444 231.354C183.765 231.41 184.075 231.528 184.374 231.707C184.675 231.886 184.925 232.156 185.124 232.517C185.323 232.878 185.423 233.362 185.423 233.969V239H184.249V237.966H184.19C184.11 238.132 183.978 238.309 183.792 238.498C183.606 238.687 183.359 238.848 183.051 238.98C182.743 239.113 182.367 239.179 181.923 239.179ZM182.102 238.125C182.566 238.125 182.957 238.034 183.275 237.852C183.596 237.669 183.838 237.434 184.001 237.146C184.166 236.857 184.249 236.554 184.249 236.236V235.162C184.2 235.222 184.09 235.276 183.921 235.326C183.755 235.372 183.563 235.414 183.344 235.45C183.129 235.483 182.919 235.513 182.713 235.54C182.511 235.563 182.347 235.583 182.221 235.599C181.916 235.639 181.631 235.704 181.366 235.793C181.104 235.879 180.892 236.01 180.729 236.186C180.57 236.358 180.491 236.594 180.491 236.892C180.491 237.3 180.642 237.608 180.943 237.817C181.248 238.022 181.634 238.125 182.102 238.125ZM193.535 231.364L190.711 239H189.518L186.694 231.364H187.967L190.075 237.449H190.154L192.262 231.364H193.535ZM197.098 239.179C196.614 239.179 196.175 239.088 195.781 238.906C195.386 238.72 195.073 238.453 194.841 238.105C194.609 237.754 194.493 237.33 194.493 236.832C194.493 236.395 194.579 236.04 194.752 235.768C194.924 235.493 195.154 235.278 195.443 235.122C195.731 234.966 196.049 234.85 196.397 234.774C196.749 234.695 197.102 234.632 197.456 234.585C197.92 234.526 198.297 234.481 198.585 234.451C198.877 234.418 199.089 234.363 199.221 234.287C199.357 234.211 199.425 234.078 199.425 233.889V233.849C199.425 233.359 199.291 232.978 199.022 232.706C198.757 232.434 198.355 232.298 197.814 232.298C197.254 232.298 196.815 232.421 196.497 232.666C196.179 232.911 195.955 233.173 195.826 233.452L194.712 233.054C194.911 232.59 195.176 232.229 195.507 231.97C195.842 231.708 196.207 231.526 196.601 231.423C196.999 231.317 197.39 231.264 197.775 231.264C198.02 231.264 198.301 231.294 198.62 231.354C198.941 231.41 199.251 231.528 199.549 231.707C199.851 231.886 200.101 232.156 200.3 232.517C200.499 232.878 200.598 233.362 200.598 233.969V239H199.425V237.966H199.365C199.286 238.132 199.153 238.309 198.968 238.498C198.782 238.687 198.535 238.848 198.227 238.98C197.919 239.113 197.542 239.179 197.098 239.179ZM197.277 238.125C197.741 238.125 198.132 238.034 198.451 237.852C198.772 237.669 199.014 237.434 199.176 237.146C199.342 236.857 199.425 236.554 199.425 236.236V235.162C199.375 235.222 199.266 235.276 199.097 235.326C198.931 235.372 198.739 235.414 198.52 235.45C198.305 235.483 198.094 235.513 197.889 235.54C197.687 235.563 197.523 235.583 197.397 235.599C197.092 235.639 196.807 235.704 196.542 235.793C196.28 235.879 196.068 236.01 195.905 236.186C195.746 236.358 195.667 236.594 195.667 236.892C195.667 237.3 195.817 237.608 196.119 237.817C196.424 238.022 196.81 238.125 197.277 238.125ZM208.149 233.074L207.095 233.372C207.029 233.196 206.931 233.026 206.802 232.86C206.676 232.691 206.503 232.552 206.285 232.442C206.066 232.333 205.786 232.278 205.444 232.278C204.977 232.278 204.588 232.386 204.276 232.602C203.968 232.814 203.814 233.084 203.814 233.412C203.814 233.704 203.92 233.934 204.132 234.103C204.344 234.272 204.675 234.413 205.126 234.526L206.26 234.804C206.943 234.97 207.451 235.223 207.786 235.565C208.121 235.903 208.288 236.339 208.288 236.872C208.288 237.31 208.162 237.701 207.91 238.045C207.662 238.39 207.314 238.662 206.866 238.861C206.419 239.06 205.898 239.159 205.305 239.159C204.526 239.159 203.882 238.99 203.371 238.652C202.861 238.314 202.538 237.82 202.402 237.17L203.515 236.892C203.622 237.303 203.822 237.611 204.117 237.817C204.415 238.022 204.805 238.125 205.285 238.125C205.832 238.125 206.266 238.009 206.588 237.777C206.913 237.542 207.075 237.26 207.075 236.932C207.075 236.667 206.982 236.445 206.797 236.266C206.611 236.083 206.326 235.947 205.942 235.858L204.669 235.56C203.97 235.394 203.456 235.137 203.128 234.789C202.803 234.438 202.64 233.999 202.64 233.472C202.64 233.041 202.761 232.66 203.003 232.328C203.249 231.997 203.582 231.737 204.003 231.548C204.427 231.359 204.907 231.264 205.444 231.264C206.2 231.264 206.793 231.43 207.224 231.761C207.658 232.093 207.967 232.53 208.149 233.074ZM213.157 239.159C212.441 239.159 211.824 238.99 211.307 238.652C210.79 238.314 210.392 237.848 210.114 237.255C209.836 236.662 209.696 235.984 209.696 235.222C209.696 234.446 209.839 233.762 210.124 233.168C210.412 232.572 210.813 232.106 211.327 231.771C211.844 231.433 212.447 231.264 213.137 231.264C213.674 231.264 214.158 231.364 214.588 231.562C215.019 231.761 215.372 232.04 215.647 232.398C215.922 232.756 216.093 233.173 216.159 233.651H214.986C214.897 233.303 214.698 232.994 214.39 232.726C214.085 232.454 213.674 232.318 213.157 232.318C212.699 232.318 212.298 232.437 211.953 232.676C211.612 232.911 211.345 233.245 211.153 233.675C210.964 234.103 210.87 234.605 210.87 235.182C210.87 235.772 210.962 236.286 211.148 236.723C211.337 237.161 211.602 237.5 211.944 237.742C212.288 237.984 212.693 238.105 213.157 238.105C213.462 238.105 213.738 238.052 213.987 237.946C214.235 237.84 214.446 237.688 214.618 237.489C214.791 237.29 214.913 237.051 214.986 236.773H216.159C216.093 237.223 215.929 237.629 215.667 237.991C215.409 238.349 215.066 238.634 214.638 238.846C214.214 239.055 213.72 239.159 213.157 239.159ZM217.875 239V231.364H219.008V232.517H219.088C219.227 232.139 219.479 231.833 219.843 231.597C220.208 231.362 220.619 231.244 221.076 231.244C221.163 231.244 221.27 231.246 221.4 231.249C221.529 231.253 221.627 231.258 221.693 231.264V232.457C221.653 232.447 221.562 232.433 221.419 232.413C221.28 232.389 221.133 232.378 220.977 232.378C220.606 232.378 220.274 232.456 219.983 232.612C219.694 232.764 219.466 232.976 219.297 233.248C219.131 233.516 219.048 233.823 219.048 234.168V239H217.875ZM223.084 239V231.364H224.257V239H223.084ZM223.68 230.091C223.452 230.091 223.254 230.013 223.089 229.857C222.926 229.701 222.845 229.514 222.845 229.295C222.845 229.077 222.926 228.889 223.089 228.734C223.254 228.578 223.452 228.5 223.68 228.5C223.909 228.5 224.104 228.578 224.267 228.734C224.433 228.889 224.515 229.077 224.515 229.295C224.515 229.514 224.433 229.701 224.267 229.857C224.104 230.013 223.909 230.091 223.68 230.091ZM226.406 241.864V231.364H227.539V232.577H227.679C227.765 232.444 227.884 232.275 228.037 232.07C228.192 231.861 228.414 231.675 228.703 231.513C228.994 231.347 229.389 231.264 229.886 231.264C230.529 231.264 231.096 231.425 231.586 231.746C232.077 232.068 232.46 232.524 232.735 233.114C233.01 233.704 233.147 234.4 233.147 235.202C233.147 236.01 233.01 236.711 232.735 237.305C232.46 237.895 232.078 238.352 231.591 238.677C231.104 238.998 230.542 239.159 229.906 239.159C229.415 239.159 229.023 239.078 228.728 238.915C228.433 238.75 228.206 238.562 228.047 238.354C227.887 238.142 227.765 237.966 227.679 237.827H227.579V241.864H226.406ZM227.559 235.182C227.559 235.759 227.644 236.267 227.813 236.708C227.982 237.146 228.229 237.489 228.554 237.737C228.878 237.982 229.276 238.105 229.747 238.105C230.237 238.105 230.647 237.976 230.975 237.717C231.306 237.455 231.555 237.104 231.721 236.663C231.89 236.219 231.974 235.725 231.974 235.182C231.974 234.645 231.891 234.161 231.725 233.73C231.563 233.296 231.316 232.953 230.985 232.701C230.657 232.446 230.244 232.318 229.747 232.318C229.27 232.318 228.868 232.439 228.544 232.681C228.219 232.92 227.974 233.254 227.808 233.685C227.642 234.113 227.559 234.612 227.559 235.182ZM238.258 231.364V232.358H234.301V231.364H238.258ZM235.454 229.534H236.627V236.812C236.627 237.144 236.676 237.393 236.772 237.558C236.871 237.721 236.997 237.83 237.15 237.886C237.305 237.939 237.469 237.966 237.642 237.966C237.771 237.966 237.877 237.959 237.96 237.946C238.043 237.929 238.109 237.916 238.159 237.906L238.397 238.96C238.318 238.99 238.207 239.02 238.064 239.05C237.922 239.083 237.741 239.099 237.522 239.099C237.191 239.099 236.866 239.028 236.548 238.886C236.233 238.743 235.971 238.526 235.762 238.234C235.557 237.943 235.454 237.575 235.454 237.131V229.534Z" fill="#3F4346"/>
</g>
</g>
<defs>
<filter id="filter0_d_1653_25751" x="149" y="118" width="280" height="152" filterUnits="userSpaceOnUse" color-interpolation-filters="sRGB">
<feFlood flood-opacity="0" result="BackgroundImageFix"/>
<feColorMatrix in="SourceAlpha" type="matrix" values="0 0 0 0 0 0 0 0 0 0 0 0 0 0 0 0 0 0 127 0" result="hardAlpha"/>
<feOffset dy="4"/>
<feGaussianBlur stdDeviation="5"/>
<feComposite in2="hardAlpha" operator="out"/>
<feColorMatrix type="matrix" values="0 0 0 0 0 0 0 0 0 0 0 0 0 0 0 0 0 0 0.25 0"/>
<feBlend mode="normal" in2="BackgroundImageFix" result="effect1_dropShadow_1653_25751"/>
<feBlend mode="normal" in="SourceGraphic" in2="effect1_dropShadow_1653_25751" result="shape"/>
</filter>
<clipPath id="clip0_1653_25751">
<rect x="159" y="124" width="260" height="132" rx="4" fill="white"/>
</clipPath>
</defs>
</svg>
