<svg width="956" height="400" viewBox="0 0 956 400" fill="none" xmlns="http://www.w3.org/2000/svg">
<g filter="url(#filter0_d_1595_21743)">
<rect x="71" y="156" width="124" height="38" rx="19" fill="#E2F0FF" shape-rendering="crispEdges"/>
<path d="M92.856 181.24C91.7093 181.24 90.736 180.987 89.936 180.48C89.136 179.973 88.5253 179.269 88.104 178.368C87.688 177.467 87.48 176.424 87.48 175.24C87.48 174.056 87.688 173.013 88.104 172.112C88.5253 171.211 89.136 170.507 89.936 170C90.736 169.493 91.7093 169.24 92.856 169.24C94.1893 169.24 95.2853 169.579 96.144 170.256C97.008 170.933 97.6027 171.845 97.928 172.992L96.48 173.376C96.2453 172.517 95.8267 171.84 95.224 171.344C94.6213 170.848 93.832 170.6 92.856 170.6C91.9973 170.6 91.2827 170.795 90.712 171.184C90.1413 171.573 89.712 172.117 89.424 172.816C89.136 173.509 88.9893 174.317 88.984 175.24C88.9787 176.157 89.12 176.965 89.408 177.664C89.696 178.357 90.128 178.901 90.704 179.296C91.28 179.685 91.9973 179.88 92.856 179.88C93.832 179.88 94.6213 179.632 95.224 179.136C95.8267 178.635 96.2453 177.957 96.48 177.104L97.928 177.488C97.6027 178.629 97.008 179.541 96.144 180.224C95.2853 180.901 94.1893 181.24 92.856 181.24ZM105.835 181V176.672C105.835 176.261 105.797 175.867 105.723 175.488C105.653 175.109 105.528 174.771 105.347 174.472C105.171 174.168 104.931 173.928 104.627 173.752C104.328 173.576 103.949 173.488 103.491 173.488C103.133 173.488 102.808 173.549 102.515 173.672C102.227 173.789 101.979 173.971 101.771 174.216C101.563 174.461 101.4 174.771 101.283 175.144C101.171 175.512 101.115 175.947 101.115 176.448L100.179 176.16C100.179 175.323 100.328 174.605 100.627 174.008C100.931 173.405 101.355 172.944 101.899 172.624C102.448 172.299 103.093 172.136 103.835 172.136C104.395 172.136 104.872 172.224 105.267 172.4C105.661 172.576 105.989 172.811 106.251 173.104C106.512 173.392 106.717 173.717 106.867 174.08C107.016 174.437 107.12 174.803 107.179 175.176C107.243 175.544 107.275 175.893 107.275 176.224V181H105.835ZM99.6745 181V169.48H100.955V175.84H101.115V181H99.6745ZM111.81 181.24C111.165 181.24 110.624 181.123 110.186 180.888C109.754 180.648 109.426 180.333 109.202 179.944C108.984 179.555 108.874 179.128 108.874 178.664C108.874 178.211 108.96 177.819 109.13 177.488C109.306 177.152 109.552 176.875 109.866 176.656C110.181 176.432 110.557 176.256 110.994 176.128C111.405 176.016 111.864 175.92 112.37 175.84C112.882 175.755 113.4 175.677 113.922 175.608C114.445 175.539 114.933 175.472 115.386 175.408L114.874 175.704C114.89 174.936 114.736 174.368 114.41 174C114.09 173.632 113.536 173.448 112.746 173.448C112.224 173.448 111.765 173.568 111.37 173.808C110.981 174.043 110.706 174.427 110.546 174.96L109.194 174.552C109.402 173.795 109.805 173.2 110.402 172.768C111 172.336 111.786 172.12 112.762 172.12C113.546 172.12 114.218 172.261 114.778 172.544C115.344 172.821 115.749 173.243 115.994 173.808C116.117 174.075 116.194 174.365 116.226 174.68C116.258 174.989 116.274 175.315 116.274 175.656V181H115.01V178.928L115.306 179.12C114.981 179.819 114.525 180.347 113.938 180.704C113.357 181.061 112.648 181.24 111.81 181.24ZM112.026 180.048C112.538 180.048 112.981 179.957 113.354 179.776C113.733 179.589 114.037 179.347 114.266 179.048C114.496 178.744 114.645 178.413 114.714 178.056C114.794 177.789 114.837 177.493 114.842 177.168C114.853 176.837 114.858 176.584 114.858 176.408L115.354 176.624C114.89 176.688 114.434 176.749 113.986 176.808C113.538 176.867 113.114 176.931 112.714 177C112.314 177.064 111.954 177.141 111.634 177.232C111.4 177.307 111.178 177.403 110.97 177.52C110.768 177.637 110.602 177.789 110.474 177.976C110.352 178.157 110.29 178.384 110.29 178.656C110.29 178.891 110.349 179.115 110.466 179.328C110.589 179.541 110.776 179.715 111.026 179.848C111.282 179.981 111.616 180.048 112.026 180.048ZM123.178 181C122.666 181.101 122.16 181.141 121.658 181.12C121.162 181.104 120.72 181.005 120.33 180.824C119.941 180.637 119.645 180.349 119.442 179.96C119.272 179.619 119.178 179.275 119.162 178.928C119.152 178.576 119.146 178.179 119.146 177.736V169.96H120.57V177.672C120.57 178.024 120.573 178.325 120.578 178.576C120.589 178.827 120.645 179.043 120.746 179.224C120.938 179.565 121.242 179.765 121.658 179.824C122.08 179.883 122.586 179.867 123.178 179.776V181ZM117.394 173.536V172.36H123.178V173.536H117.394ZM129.976 181L127.336 172.352L128.752 172.36L130.68 178.68L132.624 172.36H133.88L135.816 178.68L137.752 172.36H139.16L136.52 181H135.336L133.248 174.432L131.16 181H129.976ZM140.764 170.832V169.36H142.188V170.832H140.764ZM140.764 181V172.36H142.188V181H140.764ZM147.981 181.24C147.175 181.24 146.485 181.04 145.909 180.64C145.333 180.235 144.887 179.688 144.573 179C144.263 178.312 144.109 177.536 144.109 176.672C144.109 175.808 144.263 175.032 144.573 174.344C144.887 173.656 145.333 173.115 145.909 172.72C146.485 172.32 147.173 172.12 147.973 172.12C148.789 172.12 149.474 172.317 150.029 172.712C150.583 173.107 151.002 173.648 151.285 174.336C151.573 175.024 151.717 175.803 151.717 176.672C151.717 177.531 151.573 178.307 151.285 179C151.002 179.688 150.583 180.235 150.029 180.64C149.474 181.04 148.791 181.24 147.981 181.24ZM148.157 179.936C148.738 179.936 149.215 179.797 149.589 179.52C149.962 179.237 150.237 178.851 150.413 178.36C150.594 177.864 150.685 177.301 150.685 176.672C150.685 176.032 150.594 175.469 150.413 174.984C150.237 174.493 149.965 174.112 149.597 173.84C149.229 173.563 148.762 173.424 148.197 173.424C147.61 173.424 147.125 173.568 146.741 173.856C146.362 174.144 146.079 174.533 145.893 175.024C145.711 175.515 145.621 176.064 145.621 176.672C145.621 177.285 145.714 177.84 145.901 178.336C146.087 178.827 146.367 179.216 146.741 179.504C147.119 179.792 147.591 179.936 148.157 179.936ZM150.685 181V174.64H150.525V169.48H151.957V181H150.685ZM157.694 185.08C157.241 185.08 156.798 185.011 156.366 184.872C155.934 184.733 155.537 184.523 155.174 184.24C154.817 183.963 154.518 183.611 154.278 183.184L155.582 182.496C155.795 182.917 156.097 183.224 156.486 183.416C156.881 183.608 157.286 183.704 157.702 183.704C158.251 183.704 158.707 183.603 159.07 183.4C159.433 183.203 159.699 182.907 159.87 182.512C160.046 182.117 160.131 181.627 160.126 181.04V178.68H160.294V172.36H161.558V181.056C161.558 181.291 161.55 181.517 161.534 181.736C161.523 181.955 161.497 182.171 161.454 182.384C161.342 182.997 161.121 183.501 160.79 183.896C160.459 184.296 160.033 184.592 159.51 184.784C158.987 184.981 158.382 185.08 157.694 185.08ZM157.59 181.24C156.785 181.24 156.094 181.04 155.518 180.64C154.942 180.235 154.497 179.688 154.182 179C153.873 178.312 153.718 177.536 153.718 176.672C153.718 175.808 153.873 175.032 154.182 174.344C154.497 173.656 154.942 173.115 155.518 172.72C156.094 172.32 156.782 172.12 157.582 172.12C158.398 172.12 159.083 172.317 159.638 172.712C160.193 173.107 160.611 173.648 160.894 174.336C161.182 175.024 161.326 175.803 161.326 176.672C161.326 177.531 161.182 178.307 160.894 179C160.611 179.688 160.193 180.235 159.638 180.64C159.083 181.04 158.401 181.24 157.59 181.24ZM157.766 179.936C158.347 179.936 158.825 179.797 159.198 179.52C159.571 179.237 159.846 178.851 160.022 178.36C160.203 177.864 160.294 177.301 160.294 176.672C160.294 176.032 160.203 175.469 160.022 174.984C159.846 174.493 159.574 174.112 159.206 173.84C158.838 173.563 158.371 173.424 157.806 173.424C157.219 173.424 156.734 173.568 156.35 173.856C155.971 174.144 155.689 174.533 155.502 175.024C155.321 175.515 155.23 176.064 155.23 176.672C155.23 177.285 155.323 177.84 155.51 178.336C155.697 178.827 155.977 179.216 156.35 179.504C156.729 179.792 157.201 179.936 157.766 179.936ZM167.536 181.24C166.688 181.24 165.947 181.053 165.312 180.68C164.683 180.301 164.192 179.776 163.84 179.104C163.488 178.427 163.312 177.637 163.312 176.736C163.312 175.792 163.485 174.976 163.832 174.288C164.179 173.595 164.661 173.061 165.28 172.688C165.904 172.309 166.635 172.12 167.472 172.12C168.341 172.12 169.08 172.32 169.688 172.72C170.301 173.12 170.76 173.691 171.064 174.432C171.373 175.173 171.507 176.056 171.464 177.08H170.024V176.568C170.008 175.507 169.792 174.715 169.376 174.192C168.96 173.664 168.341 173.4 167.52 173.4C166.64 173.4 165.971 173.683 165.512 174.248C165.053 174.813 164.824 175.624 164.824 176.68C164.824 177.699 165.053 178.488 165.512 179.048C165.971 179.608 166.624 179.888 167.472 179.888C168.043 179.888 168.539 179.757 168.96 179.496C169.381 179.235 169.712 178.859 169.952 178.368L171.32 178.84C170.984 179.603 170.477 180.195 169.8 180.616C169.128 181.032 168.373 181.24 167.536 181.24ZM164.344 177.08V175.936H170.728V177.08H164.344ZM178.069 181C177.557 181.101 177.05 181.141 176.549 181.12C176.053 181.104 175.61 181.005 175.221 180.824C174.832 180.637 174.536 180.349 174.333 179.96C174.162 179.619 174.069 179.275 174.053 178.928C174.042 178.576 174.037 178.179 174.037 177.736V169.96H175.461V177.672C175.461 178.024 175.464 178.325 175.469 178.576C175.48 178.827 175.536 179.043 175.637 179.224C175.829 179.565 176.133 179.765 176.549 179.824C176.97 179.883 177.477 179.867 178.069 179.776V181ZM172.285 173.536V172.36H178.069V173.536H172.285Z" fill="#212528"/>
</g>
<g filter="url(#filter1_d_1595_21743)">
<rect x="95.5" y="202" width="75" height="75" rx="10" fill="#E2F0FF"/>
<g clip-path="url(#clip0_1595_21743)">
<path d="M138.5 229.167V240.833H122.117L121.133 241.817L120.167 242.783V229.167H138.5ZM140.167 225.833H118.5C117.583 225.833 116.833 226.583 116.833 227.5V250.833L123.5 244.167H140.167C141.083 244.167 141.833 243.417 141.833 242.5V227.5C141.833 226.583 141.083 225.833 140.167 225.833ZM148.5 232.5H145.167V247.5H123.5V250.833C123.5 251.75 124.25 252.5 125.167 252.5H143.5L150.167 259.167V234.167C150.167 233.25 149.417 232.5 148.5 232.5Z" fill="#1157A6"/>
</g>
</g>
<g filter="url(#filter2_d_1595_21743)">
<rect x="233.5" y="74" width="75" height="75" rx="10" fill="#F9EAE5"/>
<path d="M254.833 103.905C254.833 101.932 256.326 100.333 258.167 100.333H284.833C286.674 100.333 288.167 101.932 288.167 103.905V121.762C288.167 123.734 286.674 125.333 284.833 125.333H258.167C256.326 125.333 254.833 123.734 254.833 121.762V103.905Z" fill="#8C2E0E"/>
<path d="M254.833 102.249C254.833 100.271 256.217 98.6667 257.923 98.6667H285.076C286.783 98.6667 288.167 100.271 288.167 102.249C288.167 103.606 287.505 104.846 286.458 105.453L272.991 113.259C272.052 113.803 270.948 113.803 270.009 113.259L256.542 105.453C255.495 104.846 254.833 103.606 254.833 102.249Z" fill="#CC5229"/>
</g>
<g filter="url(#filter3_d_1595_21743)">
<rect x="234.5" y="157" width="73" height="38" rx="19" fill="#F9EAE5" shape-rendering="crispEdges"/>
<path d="M251.62 182V170.48H258.9V171.832H253.044V175.44H257.94V176.792H253.044V180.648H258.9V182H251.62ZM271.151 182L271.159 176.472C271.159 175.827 270.986 175.323 270.639 174.96C270.298 174.592 269.852 174.408 269.303 174.408C268.983 174.408 268.679 174.483 268.391 174.632C268.103 174.776 267.868 175.005 267.687 175.32C267.506 175.629 267.415 176.027 267.415 176.512L266.663 176.208C266.652 175.595 266.778 175.059 267.039 174.6C267.306 174.136 267.668 173.776 268.127 173.52C268.586 173.264 269.103 173.136 269.679 173.136C270.58 173.136 271.29 173.411 271.807 173.96C272.324 174.504 272.583 175.237 272.583 176.16L272.575 182H271.151ZM260.815 182V173.36H262.087V175.672H262.247V182H260.815ZM265.991 182L265.999 176.528C265.999 175.867 265.828 175.349 265.487 174.976C265.146 174.597 264.692 174.408 264.127 174.408C263.567 174.408 263.114 174.6 262.767 174.984C262.42 175.368 262.247 175.877 262.247 176.512L261.495 176.064C261.495 175.504 261.628 175.003 261.895 174.56C262.162 174.117 262.524 173.771 262.983 173.52C263.442 173.264 263.962 173.136 264.543 173.136C265.124 173.136 265.631 173.259 266.063 173.504C266.495 173.749 266.828 174.101 267.063 174.56C267.298 175.013 267.415 175.555 267.415 176.184L267.407 182H265.991ZM277.123 182.24C276.478 182.24 275.936 182.123 275.499 181.888C275.067 181.648 274.739 181.333 274.515 180.944C274.296 180.555 274.187 180.128 274.187 179.664C274.187 179.211 274.272 178.819 274.443 178.488C274.619 178.152 274.864 177.875 275.179 177.656C275.494 177.432 275.87 177.256 276.307 177.128C276.718 177.016 277.176 176.92 277.683 176.84C278.195 176.755 278.712 176.677 279.235 176.608C279.758 176.539 280.246 176.472 280.699 176.408L280.187 176.704C280.203 175.936 280.048 175.368 279.723 175C279.403 174.632 278.848 174.448 278.059 174.448C277.536 174.448 277.078 174.568 276.683 174.808C276.294 175.043 276.019 175.427 275.859 175.96L274.507 175.552C274.715 174.795 275.118 174.2 275.715 173.768C276.312 173.336 277.099 173.12 278.075 173.12C278.859 173.12 279.531 173.261 280.091 173.544C280.656 173.821 281.062 174.243 281.307 174.808C281.43 175.075 281.507 175.365 281.539 175.68C281.571 175.989 281.587 176.315 281.587 176.656V182H280.323V179.928L280.619 180.12C280.294 180.819 279.838 181.347 279.251 181.704C278.67 182.061 277.96 182.24 277.123 182.24ZM277.339 181.048C277.851 181.048 278.294 180.957 278.667 180.776C279.046 180.589 279.35 180.347 279.579 180.048C279.808 179.744 279.958 179.413 280.027 179.056C280.107 178.789 280.15 178.493 280.155 178.168C280.166 177.837 280.171 177.584 280.171 177.408L280.667 177.624C280.203 177.688 279.747 177.749 279.299 177.808C278.851 177.867 278.427 177.931 278.027 178C277.627 178.064 277.267 178.141 276.947 178.232C276.712 178.307 276.491 178.403 276.283 178.52C276.08 178.637 275.915 178.789 275.787 178.976C275.664 179.157 275.603 179.384 275.603 179.656C275.603 179.891 275.662 180.115 275.779 180.328C275.902 180.541 276.088 180.715 276.339 180.848C276.595 180.981 276.928 181.048 277.339 181.048ZM283.827 171.832V170.36H285.251V171.832H283.827ZM283.827 182V173.36H285.251V182H283.827ZM287.811 182V170.24H289.235V182H287.811Z" fill="#212528"/>
</g>
<g filter="url(#filter4_d_1595_21743)">
<rect x="353.5" y="156" width="111" height="38" rx="19" fill="#E8F7E8" shape-rendering="crispEdges"/>
<path d="M373.076 181L369.74 169.48H371.228L373.788 178.592L376.34 169.488L377.836 169.48L380.396 178.592L382.948 169.48H384.444L381.108 181H379.684L377.092 171.968L374.5 181H373.076ZM391.96 181V176.672C391.96 176.261 391.922 175.867 391.848 175.488C391.778 175.109 391.653 174.771 391.472 174.472C391.296 174.168 391.056 173.928 390.752 173.752C390.453 173.576 390.074 173.488 389.616 173.488C389.258 173.488 388.933 173.549 388.64 173.672C388.352 173.789 388.104 173.971 387.896 174.216C387.688 174.461 387.525 174.771 387.408 175.144C387.296 175.512 387.24 175.947 387.24 176.448L386.304 176.16C386.304 175.323 386.453 174.605 386.752 174.008C387.056 173.405 387.48 172.944 388.024 172.624C388.573 172.299 389.218 172.136 389.96 172.136C390.52 172.136 390.997 172.224 391.392 172.4C391.786 172.576 392.114 172.811 392.376 173.104C392.637 173.392 392.842 173.717 392.992 174.08C393.141 174.437 393.245 174.803 393.304 175.176C393.368 175.544 393.4 175.893 393.4 176.224V181H391.96ZM385.8 181V169.48H387.08V175.84H387.24V181H385.8ZM397.935 181.24C397.29 181.24 396.749 181.123 396.311 180.888C395.879 180.648 395.551 180.333 395.327 179.944C395.109 179.555 394.999 179.128 394.999 178.664C394.999 178.211 395.085 177.819 395.255 177.488C395.431 177.152 395.677 176.875 395.991 176.656C396.306 176.432 396.682 176.256 397.119 176.128C397.53 176.016 397.989 175.92 398.495 175.84C399.007 175.755 399.525 175.677 400.047 175.608C400.57 175.539 401.058 175.472 401.511 175.408L400.999 175.704C401.015 174.936 400.861 174.368 400.535 174C400.215 173.632 399.661 173.448 398.871 173.448C398.349 173.448 397.89 173.568 397.495 173.808C397.106 174.043 396.831 174.427 396.671 174.96L395.319 174.552C395.527 173.795 395.93 173.2 396.527 172.768C397.125 172.336 397.911 172.12 398.887 172.12C399.671 172.12 400.343 172.261 400.903 172.544C401.469 172.821 401.874 173.243 402.119 173.808C402.242 174.075 402.319 174.365 402.351 174.68C402.383 174.989 402.399 175.315 402.399 175.656V181H401.135V178.928L401.431 179.12C401.106 179.819 400.65 180.347 400.063 180.704C399.482 181.061 398.773 181.24 397.935 181.24ZM398.151 180.048C398.663 180.048 399.106 179.957 399.479 179.776C399.858 179.589 400.162 179.347 400.391 179.048C400.621 178.744 400.77 178.413 400.839 178.056C400.919 177.789 400.962 177.493 400.967 177.168C400.978 176.837 400.983 176.584 400.983 176.408L401.479 176.624C401.015 176.688 400.559 176.749 400.111 176.808C399.663 176.867 399.239 176.931 398.839 177C398.439 177.064 398.079 177.141 397.759 177.232C397.525 177.307 397.303 177.403 397.095 177.52C396.893 177.637 396.727 177.789 396.599 177.976C396.477 178.157 396.415 178.384 396.415 178.656C396.415 178.891 396.474 179.115 396.591 179.328C396.714 179.541 396.901 179.715 397.151 179.848C397.407 179.981 397.741 180.048 398.151 180.048ZM409.303 181C408.791 181.101 408.285 181.141 407.783 181.12C407.287 181.104 406.845 181.005 406.455 180.824C406.066 180.637 405.77 180.349 405.567 179.96C405.397 179.619 405.303 179.275 405.287 178.928C405.277 178.576 405.271 178.179 405.271 177.736V169.96H406.695V177.672C406.695 178.024 406.698 178.325 406.703 178.576C406.714 178.827 406.77 179.043 406.871 179.224C407.063 179.565 407.367 179.765 407.783 179.824C408.205 179.883 408.711 179.867 409.303 179.776V181ZM403.519 173.536V172.36H409.303V173.536H403.519ZM414.322 181.232C413.292 181.232 412.447 181.008 411.786 180.56C411.13 180.107 410.727 179.475 410.578 178.664L412.034 178.432C412.151 178.901 412.42 179.275 412.842 179.552C413.263 179.824 413.786 179.96 414.41 179.96C415.002 179.96 415.466 179.837 415.802 179.592C416.138 179.347 416.306 179.013 416.306 178.592C416.306 178.347 416.25 178.149 416.138 178C416.026 177.845 415.794 177.701 415.442 177.568C415.095 177.435 414.57 177.275 413.866 177.088C413.103 176.885 412.503 176.675 412.066 176.456C411.628 176.237 411.316 175.984 411.13 175.696C410.943 175.408 410.85 175.059 410.85 174.648C410.85 174.141 410.988 173.699 411.266 173.32C411.543 172.936 411.93 172.64 412.426 172.432C412.927 172.224 413.508 172.12 414.17 172.12C414.826 172.12 415.412 172.224 415.93 172.432C416.447 172.64 416.863 172.936 417.178 173.32C417.498 173.699 417.687 174.141 417.746 174.648L416.29 174.912C416.22 174.448 415.996 174.083 415.618 173.816C415.244 173.549 414.762 173.408 414.17 173.392C413.61 173.371 413.154 173.469 412.802 173.688C412.455 173.907 412.282 174.203 412.282 174.576C412.282 174.784 412.346 174.963 412.474 175.112C412.607 175.261 412.85 175.403 413.202 175.536C413.559 175.669 414.076 175.821 414.754 175.992C415.516 176.184 416.116 176.395 416.554 176.624C416.996 176.848 417.311 177.115 417.498 177.424C417.684 177.728 417.778 178.104 417.778 178.552C417.778 179.384 417.471 180.04 416.858 180.52C416.244 180.995 415.399 181.232 414.322 181.232ZM418.742 181L422.598 169.48H424.582L428.438 181H426.958L423.35 170.312H423.798L420.222 181H418.742ZM420.598 178.304V176.968H426.582V178.304H420.598ZM433.838 181.24C433.027 181.24 432.345 181.04 431.79 180.64C431.235 180.235 430.814 179.688 430.526 179C430.243 178.307 430.102 177.531 430.102 176.672C430.102 175.803 430.243 175.024 430.526 174.336C430.814 173.648 431.235 173.107 431.79 172.712C432.35 172.317 433.035 172.12 433.846 172.12C434.646 172.12 435.334 172.32 435.91 172.72C436.491 173.115 436.937 173.656 437.246 174.344C437.555 175.032 437.71 175.808 437.71 176.672C437.71 177.536 437.555 178.312 437.246 179C436.937 179.688 436.491 180.235 435.91 180.64C435.334 181.04 434.643 181.24 433.838 181.24ZM429.862 184.84V172.36H431.134V178.72H431.294V184.84H429.862ZM433.662 179.936C434.233 179.936 434.705 179.792 435.078 179.504C435.451 179.216 435.731 178.827 435.918 178.336C436.105 177.84 436.198 177.285 436.198 176.672C436.198 176.064 436.105 175.515 435.918 175.024C435.737 174.533 435.454 174.144 435.07 173.856C434.691 173.568 434.209 173.424 433.622 173.424C433.062 173.424 432.598 173.563 432.23 173.84C431.862 174.112 431.587 174.493 431.406 174.984C431.225 175.469 431.134 176.032 431.134 176.672C431.134 177.301 431.222 177.864 431.398 178.36C431.579 178.851 431.857 179.237 432.23 179.52C432.603 179.797 433.081 179.936 433.662 179.936ZM443.432 181.24C442.621 181.24 441.938 181.04 441.384 180.64C440.829 180.235 440.408 179.688 440.12 179C439.837 178.307 439.696 177.531 439.696 176.672C439.696 175.803 439.837 175.024 440.12 174.336C440.408 173.648 440.829 173.107 441.384 172.712C441.944 172.317 442.629 172.12 443.44 172.12C444.24 172.12 444.928 172.32 445.504 172.72C446.085 173.115 446.53 173.656 446.84 174.344C447.149 175.032 447.304 175.808 447.304 176.672C447.304 177.536 447.149 178.312 446.84 179C446.53 179.688 446.085 180.235 445.504 180.64C444.928 181.04 444.237 181.24 443.432 181.24ZM439.456 184.84V172.36H440.728V178.72H440.888V184.84H439.456ZM443.256 179.936C443.826 179.936 444.298 179.792 444.672 179.504C445.045 179.216 445.325 178.827 445.512 178.336C445.698 177.84 445.792 177.285 445.792 176.672C445.792 176.064 445.698 175.515 445.512 175.024C445.33 174.533 445.048 174.144 444.664 173.856C444.285 173.568 443.802 173.424 443.216 173.424C442.656 173.424 442.192 173.563 441.824 173.84C441.456 174.112 441.181 174.493 441 174.984C440.818 175.469 440.728 176.032 440.728 176.672C440.728 177.301 440.816 177.864 440.992 178.36C441.173 178.851 441.45 179.237 441.824 179.52C442.197 179.797 442.674 179.936 443.256 179.936Z" fill="#212528"/>
</g>
<g filter="url(#filter5_d_1595_21743)">
<rect x="371.5" y="202" width="75" height="75" rx="10" fill="#E8F7E8"/>
<path fill-rule="evenodd" clip-rule="evenodd" d="M405.49 233.289C405.19 232.622 404.873 232.608 404.588 232.596C404.354 232.587 404.087 232.587 403.82 232.587C403.553 232.587 403.118 232.688 402.751 233.089C402.384 233.49 401.348 234.459 401.348 236.431C401.348 238.403 402.785 240.308 402.985 240.576C403.185 240.843 405.757 245.019 409.831 246.625C413.217 247.961 413.906 247.695 414.641 247.628C415.376 247.562 417.012 246.659 417.346 245.723C417.68 244.787 417.68 243.985 417.58 243.818C417.479 243.65 417.212 243.55 416.811 243.35C416.41 243.15 414.44 242.18 414.073 242.046C413.705 241.912 413.438 241.846 413.171 242.247C412.904 242.648 412.136 243.55 411.902 243.818C411.668 244.085 411.435 244.119 411.034 243.918C410.633 243.717 409.342 243.295 407.811 241.929C406.619 240.867 405.815 239.555 405.581 239.154C405.347 238.753 405.556 238.536 405.757 238.336C405.937 238.157 406.158 237.868 406.358 237.634C406.558 237.4 406.625 237.233 406.759 236.966C406.892 236.698 406.826 236.464 406.725 236.264C406.625 236.064 405.846 234.081 405.49 233.289Z" fill="#29A653"/>
<path fill-rule="evenodd" clip-rule="evenodd" d="M397.167 252.517L398.533 247.585C397.041 245.432 396.167 242.818 396.167 240C396.167 232.636 402.136 226.667 409.5 226.667C416.864 226.667 422.833 232.636 422.833 240C422.833 247.364 416.864 253.333 409.5 253.333C406.819 253.333 404.323 252.542 402.233 251.181L397.167 252.517ZM401.746 254.756L392.405 257.22L394.931 248.1C393.595 245.7 392.833 242.936 392.833 240C392.833 230.795 400.295 223.333 409.5 223.333C418.705 223.333 426.167 230.795 426.167 240C426.167 249.205 418.705 256.667 409.5 256.667C406.705 256.667 404.064 255.976 401.746 254.756Z" fill="#29A653"/>
</g>
<g filter="url(#filter6_d_1595_21743)">
<rect x="509.5" y="74" width="75" height="75" rx="10" fill="#E2F0FF"/>
<path d="M530.833 102C530.833 99.2386 533.072 97 535.833 97H559.167C561.928 97 564.167 99.2386 564.167 102V115.333C564.167 118.095 561.928 120.333 559.167 120.333H530.833V102Z" fill="#0D4680"/>
<path d="M530.833 102C530.833 99.2386 533.072 97 535.833 97H559.341C559.778 97 560.211 97.0703 560.625 97.2083L530.833 127V102Z" fill="#66BDFF"/>
</g>
<g filter="url(#filter7_d_1595_21743)">
<rect x="514" y="157" width="66" height="38" rx="19" fill="#E2F0FF" shape-rendering="crispEdges"/>
<path d="M535.208 182.24C534.392 182.24 533.656 182.101 533 181.824C532.349 181.547 531.811 181.152 531.384 180.64C530.963 180.123 530.688 179.512 530.56 178.808L532.032 178.576C532.219 179.301 532.605 179.869 533.192 180.28C533.784 180.685 534.48 180.888 535.28 180.888C535.797 180.888 536.264 180.808 536.68 180.648C537.101 180.483 537.435 180.248 537.68 179.944C537.925 179.64 538.048 179.28 538.048 178.864C538.048 178.608 538.003 178.389 537.912 178.208C537.827 178.021 537.707 177.864 537.552 177.736C537.403 177.603 537.232 177.491 537.04 177.4C536.848 177.309 536.648 177.235 536.44 177.176L533.504 176.304C533.184 176.208 532.875 176.088 532.576 175.944C532.277 175.795 532.011 175.611 531.776 175.392C531.541 175.168 531.355 174.901 531.216 174.592C531.077 174.277 531.008 173.907 531.008 173.48C531.008 172.797 531.184 172.216 531.536 171.736C531.893 171.251 532.376 170.88 532.984 170.624C533.592 170.368 534.277 170.243 535.04 170.248C535.813 170.253 536.504 170.392 537.112 170.664C537.725 170.931 538.232 171.315 538.632 171.816C539.037 172.317 539.309 172.917 539.448 173.616L537.936 173.88C537.856 173.411 537.677 173.008 537.4 172.672C537.128 172.331 536.787 172.069 536.376 171.888C535.965 171.701 535.515 171.605 535.024 171.6C534.555 171.595 534.131 171.669 533.752 171.824C533.373 171.979 533.072 172.195 532.848 172.472C532.624 172.744 532.512 173.059 532.512 173.416C532.512 173.768 532.613 174.053 532.816 174.272C533.019 174.485 533.267 174.656 533.56 174.784C533.859 174.907 534.149 175.008 534.432 175.088L536.624 175.72C536.875 175.789 537.163 175.885 537.488 176.008C537.819 176.131 538.139 176.304 538.448 176.528C538.757 176.747 539.013 177.04 539.216 177.408C539.419 177.771 539.52 178.229 539.52 178.784C539.52 179.339 539.408 179.832 539.184 180.264C538.965 180.696 538.659 181.059 538.264 181.352C537.869 181.64 537.411 181.859 536.888 182.008C536.365 182.163 535.805 182.24 535.208 182.24ZM541.198 182V170.48H542.494L546.846 179.656L551.174 170.48H552.486V181.992H551.134V173.608L547.222 182H546.462L542.55 173.608V182H541.198ZM558.817 182.24C558.001 182.24 557.265 182.101 556.609 181.824C555.959 181.547 555.42 181.152 554.993 180.64C554.572 180.123 554.297 179.512 554.169 178.808L555.641 178.576C555.828 179.301 556.215 179.869 556.801 180.28C557.393 180.685 558.089 180.888 558.889 180.888C559.407 180.888 559.873 180.808 560.289 180.648C560.711 180.483 561.044 180.248 561.289 179.944C561.535 179.64 561.657 179.28 561.657 178.864C561.657 178.608 561.612 178.389 561.521 178.208C561.436 178.021 561.316 177.864 561.161 177.736C561.012 177.603 560.841 177.491 560.649 177.4C560.457 177.309 560.257 177.235 560.049 177.176L557.113 176.304C556.793 176.208 556.484 176.088 556.185 175.944C555.887 175.795 555.62 175.611 555.385 175.392C555.151 175.168 554.964 174.901 554.825 174.592C554.687 174.277 554.617 173.907 554.617 173.48C554.617 172.797 554.793 172.216 555.145 171.736C555.503 171.251 555.985 170.88 556.593 170.624C557.201 170.368 557.887 170.243 558.649 170.248C559.423 170.253 560.113 170.392 560.721 170.664C561.335 170.931 561.841 171.315 562.241 171.816C562.647 172.317 562.919 172.917 563.057 173.616L561.545 173.88C561.465 173.411 561.287 173.008 561.009 172.672C560.737 172.331 560.396 172.069 559.985 171.888C559.575 171.701 559.124 171.605 558.633 171.6C558.164 171.595 557.74 171.669 557.361 171.824C556.983 171.979 556.681 172.195 556.457 172.472C556.233 172.744 556.121 173.059 556.121 173.416C556.121 173.768 556.223 174.053 556.425 174.272C556.628 174.485 556.876 174.656 557.169 174.784C557.468 174.907 557.759 175.008 558.041 175.088L560.233 175.72C560.484 175.789 560.772 175.885 561.097 176.008C561.428 176.131 561.748 176.304 562.057 176.528C562.367 176.747 562.623 177.04 562.825 177.408C563.028 177.771 563.129 178.229 563.129 178.784C563.129 179.339 563.017 179.832 562.793 180.264C562.575 180.696 562.268 181.059 561.873 181.352C561.479 181.64 561.02 181.859 560.497 182.008C559.975 182.163 559.415 182.24 558.817 182.24Z" fill="#212528"/>
</g>
<g filter="url(#filter8_d_1595_21743)">
<rect x="648.5" y="156" width="73" height="38" rx="19" fill="#EDEDFD" shape-rendering="crispEdges"/>
<path d="M668.436 181L664.58 169.48H666.06L669.412 179.488L672.796 169.48H674.276L670.42 181H668.436ZM678.206 181.24C677.348 181.24 676.606 181.045 675.982 180.656C675.364 180.267 674.886 179.728 674.55 179.04C674.214 178.352 674.046 177.563 674.046 176.672C674.046 175.765 674.217 174.971 674.558 174.288C674.9 173.605 675.382 173.075 676.006 172.696C676.63 172.312 677.364 172.12 678.206 172.12C679.07 172.12 679.814 172.315 680.438 172.704C681.062 173.088 681.54 173.624 681.87 174.312C682.206 174.995 682.374 175.781 682.374 176.672C682.374 177.573 682.206 178.368 681.87 179.056C681.534 179.739 681.054 180.275 680.43 180.664C679.806 181.048 679.065 181.24 678.206 181.24ZM678.206 179.888C679.102 179.888 679.769 179.589 680.206 178.992C680.644 178.395 680.862 177.621 680.862 176.672C680.862 175.696 680.641 174.92 680.198 174.344C679.756 173.763 679.092 173.472 678.206 173.472C677.604 173.472 677.108 173.608 676.718 173.88C676.329 174.152 676.038 174.528 675.846 175.008C675.654 175.488 675.558 176.043 675.558 176.672C675.558 177.643 675.782 178.421 676.23 179.008C676.678 179.595 677.337 179.888 678.206 179.888ZM684.296 170.832V169.36H685.72V170.832H684.296ZM684.296 181V172.36H685.72V181H684.296ZM691.76 181.24C690.885 181.24 690.141 181.045 689.528 180.656C688.92 180.261 688.456 179.72 688.136 179.032C687.816 178.344 687.651 177.56 687.64 176.68C687.651 175.779 687.819 174.987 688.144 174.304C688.475 173.616 688.947 173.08 689.56 172.696C690.173 172.312 690.912 172.12 691.776 172.12C692.688 172.12 693.472 172.344 694.128 172.792C694.789 173.24 695.232 173.853 695.456 174.632L694.048 175.056C693.867 174.555 693.571 174.165 693.16 173.888C692.755 173.611 692.288 173.472 691.76 173.472C691.168 173.472 690.68 173.611 690.296 173.888C689.912 174.16 689.627 174.539 689.44 175.024C689.253 175.504 689.157 176.056 689.152 176.68C689.163 177.64 689.384 178.416 689.816 179.008C690.253 179.595 690.901 179.888 691.76 179.888C692.325 179.888 692.795 179.76 693.168 179.504C693.541 179.243 693.824 178.867 694.016 178.376L695.456 178.752C695.157 179.557 694.691 180.173 694.056 180.6C693.421 181.027 692.656 181.24 691.76 181.24ZM700.598 181.24C699.75 181.24 699.009 181.053 698.374 180.68C697.745 180.301 697.254 179.776 696.902 179.104C696.55 178.427 696.374 177.637 696.374 176.736C696.374 175.792 696.548 174.976 696.894 174.288C697.241 173.595 697.724 173.061 698.342 172.688C698.966 172.309 699.697 172.12 700.534 172.12C701.404 172.12 702.142 172.32 702.75 172.72C703.364 173.12 703.822 173.691 704.126 174.432C704.436 175.173 704.569 176.056 704.526 177.08H703.086V176.568C703.07 175.507 702.854 174.715 702.438 174.192C702.022 173.664 701.404 173.4 700.582 173.4C699.702 173.4 699.033 173.683 698.574 174.248C698.116 174.813 697.886 175.624 697.886 176.68C697.886 177.699 698.116 178.488 698.574 179.048C699.033 179.608 699.686 179.888 700.534 179.888C701.105 179.888 701.601 179.757 702.022 179.496C702.444 179.235 702.774 178.859 703.014 178.368L704.382 178.84C704.046 179.603 703.54 180.195 702.862 180.616C702.19 181.032 701.436 181.24 700.598 181.24ZM697.406 177.08V175.936H703.79V177.08H697.406Z" fill="#212528"/>
</g>
<g filter="url(#filter9_d_1595_21743)">
<rect x="647.5" y="202" width="75" height="75" rx="10" fill="#EDEDFD"/>
<path d="M702.167 240C702.167 249.205 694.705 256.667 685.5 256.667C676.295 256.667 668.833 249.205 668.833 240C668.833 230.795 676.295 223.333 685.5 223.333C694.705 223.333 702.167 230.795 702.167 240Z" fill="#696BEF"/>
<path d="M702.167 240C702.167 249.205 694.705 256.667 685.5 256.667C676.295 256.667 668.833 249.205 668.833 240C668.833 230.795 676.295 223.333 685.5 223.333C694.705 223.333 702.167 230.795 702.167 240Z" fill="#696BEF"/>
<path d="M697.167 243.333C697.167 244.209 696.994 245.076 696.659 245.885C696.324 246.693 695.833 247.428 695.214 248.047C694.595 248.666 693.86 249.157 693.051 249.493C692.242 249.828 691.376 250 690.5 250L690.5 243.333H697.167Z" fill="white"/>
<path d="M690.107 237.007L688.495 225.156L680.5 231.667L685.5 239.844H687.63C689.145 239.844 690.312 238.508 690.107 237.007Z" fill="#3A3BA6"/>
<path d="M688.083 250.461L686.997 254.772L685.5 247.35H685.659C687.287 247.35 688.48 248.882 688.083 250.461Z" fill="#3A3BA6"/>
<path fill-rule="evenodd" clip-rule="evenodd" d="M685.5 247.349C681.358 247.349 678 243.991 678 239.849H687C687.828 239.849 688.5 239.183 688.5 238.355V225.149C687.531 224.952 686.527 224.849 685.5 224.849C677.216 224.849 670.5 231.564 670.5 239.849C670.5 248.133 677.216 254.849 685.5 254.849C686.006 254.849 686.507 254.824 687 254.775V248.849C687 248.02 686.328 247.349 685.5 247.349ZM685.5 232.349C685.5 233.177 684.829 233.849 684 233.849C683.172 233.849 682.5 233.177 682.5 232.349C682.5 231.52 683.172 230.849 684 230.849C684.829 230.849 685.5 231.52 685.5 232.349Z" fill="white"/>
</g>
<g filter="url(#filter10_d_1595_21743)">
<rect x="785.5" y="74" width="75" height="75" rx="10" fill="#E7F2FB"/>
<g clip-path="url(#clip1_1595_21743)">
<path fill-rule="evenodd" clip-rule="evenodd" d="M823.5 125.333C830.864 125.333 836.833 119.364 836.833 112C836.833 104.636 830.864 98.6666 823.5 98.6666C816.136 98.6666 810.167 104.636 810.167 112C810.167 119.364 816.136 125.333 823.5 125.333ZM823.5 128.667C832.705 128.667 840.167 121.205 840.167 112C840.167 102.795 832.705 95.3333 823.5 95.3333C814.295 95.3333 806.833 102.795 806.833 112C806.833 121.205 814.295 128.667 823.5 128.667Z" fill="#1A73E8"/>
<path d="M820.167 125.333V117H816.833V112H820.167V107.833C820.167 104.617 822.783 102 826 102H830.167V107H826.833C825.917 107 825.167 107.75 825.167 108.667V112H830.167V117H825.167L825.167 125.333H820.167Z" fill="#1A73E8"/>
</g>
</g>
<g filter="url(#filter11_d_1595_21743)">
<rect x="762.5" y="157" width="121" height="60" rx="24" fill="#E7F2FB" shape-rendering="crispEdges"/>
<path d="M779.659 182V170.48H786.379V171.904H781.083V175.528H785.419V176.952H781.083V182H779.659ZM789.959 182.24C789.313 182.24 788.772 182.123 788.335 181.888C787.903 181.648 787.575 181.333 787.351 180.944C787.132 180.555 787.023 180.128 787.023 179.664C787.023 179.211 787.108 178.819 787.279 178.488C787.455 178.152 787.7 177.875 788.015 177.656C788.329 177.432 788.705 177.256 789.143 177.128C789.553 177.016 790.012 176.92 790.519 176.84C791.031 176.755 791.548 176.677 792.071 176.608C792.593 176.539 793.081 176.472 793.535 176.408L793.023 176.704C793.039 175.936 792.884 175.368 792.559 175C792.239 174.632 791.684 174.448 790.895 174.448C790.372 174.448 789.913 174.568 789.519 174.808C789.129 175.043 788.855 175.427 788.695 175.96L787.343 175.552C787.551 174.795 787.953 174.2 788.551 173.768C789.148 173.336 789.935 173.12 790.911 173.12C791.695 173.12 792.367 173.261 792.927 173.544C793.492 173.821 793.897 174.243 794.143 174.808C794.265 175.075 794.343 175.365 794.375 175.68C794.407 175.989 794.423 176.315 794.423 176.656V182H793.159V179.928L793.455 180.12C793.129 180.819 792.673 181.347 792.087 181.704C791.505 182.061 790.796 182.24 789.959 182.24ZM790.175 181.048C790.687 181.048 791.129 180.957 791.503 180.776C791.881 180.589 792.185 180.347 792.415 180.048C792.644 179.744 792.793 179.413 792.863 179.056C792.943 178.789 792.985 178.493 792.991 178.168C793.001 177.837 793.007 177.584 793.007 177.408L793.503 177.624C793.039 177.688 792.583 177.749 792.135 177.808C791.687 177.867 791.263 177.931 790.863 178C790.463 178.064 790.103 178.141 789.783 178.232C789.548 178.307 789.327 178.403 789.119 178.52C788.916 178.637 788.751 178.789 788.623 178.976C788.5 179.157 788.439 179.384 788.439 179.656C788.439 179.891 788.497 180.115 788.615 180.328C788.737 180.541 788.924 180.715 789.175 180.848C789.431 180.981 789.764 181.048 790.175 181.048ZM800.143 182.24C799.268 182.24 798.524 182.045 797.911 181.656C797.303 181.261 796.839 180.72 796.519 180.032C796.199 179.344 796.033 178.56 796.023 177.68C796.033 176.779 796.201 175.987 796.527 175.304C796.857 174.616 797.329 174.08 797.943 173.696C798.556 173.312 799.295 173.12 800.159 173.12C801.071 173.12 801.855 173.344 802.511 173.792C803.172 174.24 803.615 174.853 803.839 175.632L802.431 176.056C802.249 175.555 801.953 175.165 801.543 174.888C801.137 174.611 800.671 174.472 800.143 174.472C799.551 174.472 799.063 174.611 798.679 174.888C798.295 175.16 798.009 175.539 797.823 176.024C797.636 176.504 797.54 177.056 797.535 177.68C797.545 178.64 797.767 179.416 798.199 180.008C798.636 180.595 799.284 180.888 800.143 180.888C800.708 180.888 801.177 180.76 801.551 180.504C801.924 180.243 802.207 179.867 802.399 179.376L803.839 179.752C803.54 180.557 803.073 181.173 802.439 181.6C801.804 182.027 801.039 182.24 800.143 182.24ZM808.981 182.24C808.133 182.24 807.392 182.053 806.757 181.68C806.128 181.301 805.637 180.776 805.285 180.104C804.933 179.427 804.757 178.637 804.757 177.736C804.757 176.792 804.931 175.976 805.277 175.288C805.624 174.595 806.107 174.061 806.725 173.688C807.349 173.309 808.08 173.12 808.917 173.12C809.787 173.12 810.525 173.32 811.133 173.72C811.747 174.12 812.205 174.691 812.509 175.432C812.819 176.173 812.952 177.056 812.909 178.08H811.469V177.568C811.453 176.507 811.237 175.715 810.821 175.192C810.405 174.664 809.787 174.4 808.965 174.4C808.085 174.4 807.416 174.683 806.957 175.248C806.499 175.813 806.269 176.624 806.269 177.68C806.269 178.699 806.499 179.488 806.957 180.048C807.416 180.608 808.069 180.888 808.917 180.888C809.488 180.888 809.984 180.757 810.405 180.496C810.827 180.235 811.157 179.859 811.397 179.368L812.765 179.84C812.429 180.603 811.923 181.195 811.245 181.616C810.573 182.032 809.819 182.24 808.981 182.24ZM805.789 178.08V176.936H812.173V178.08H805.789ZM818.658 182.24C817.848 182.24 817.165 182.04 816.61 181.64C816.056 181.235 815.634 180.688 815.346 180C815.064 179.307 814.922 178.531 814.922 177.672C814.922 176.803 815.064 176.024 815.346 175.336C815.634 174.648 816.056 174.107 816.61 173.712C817.17 173.317 817.856 173.12 818.666 173.12C819.466 173.12 820.154 173.32 820.73 173.72C821.312 174.115 821.757 174.656 822.066 175.344C822.376 176.032 822.53 176.808 822.53 177.672C822.53 178.536 822.376 179.312 822.066 180C821.757 180.688 821.312 181.235 820.73 181.64C820.154 182.04 819.464 182.24 818.658 182.24ZM814.682 182V170.48H816.114V175.64H815.954V182H814.682ZM818.482 180.936C819.053 180.936 819.525 180.792 819.898 180.504C820.272 180.216 820.552 179.827 820.738 179.336C820.925 178.84 821.018 178.285 821.018 177.672C821.018 177.064 820.925 176.515 820.738 176.024C820.557 175.533 820.274 175.144 819.89 174.856C819.512 174.568 819.029 174.424 818.442 174.424C817.882 174.424 817.418 174.563 817.05 174.84C816.682 175.112 816.408 175.493 816.226 175.984C816.045 176.469 815.954 177.032 815.954 177.672C815.954 178.301 816.042 178.864 816.218 179.36C816.4 179.851 816.677 180.237 817.05 180.52C817.424 180.797 817.901 180.936 818.482 180.936ZM827.964 182.24C827.105 182.24 826.364 182.045 825.74 181.656C825.121 181.267 824.644 180.728 824.308 180.04C823.972 179.352 823.804 178.563 823.804 177.672C823.804 176.765 823.975 175.971 824.316 175.288C824.657 174.605 825.14 174.075 825.764 173.696C826.388 173.312 827.121 173.12 827.964 173.12C828.828 173.12 829.572 173.315 830.196 173.704C830.82 174.088 831.297 174.624 831.628 175.312C831.964 175.995 832.132 176.781 832.132 177.672C832.132 178.573 831.964 179.368 831.628 180.056C831.292 180.739 830.812 181.275 830.188 181.664C829.564 182.048 828.823 182.24 827.964 182.24ZM827.964 180.888C828.86 180.888 829.527 180.589 829.964 179.992C830.401 179.395 830.62 178.621 830.62 177.672C830.62 176.696 830.399 175.92 829.956 175.344C829.513 174.763 828.849 174.472 827.964 174.472C827.361 174.472 826.865 174.608 826.476 174.88C826.087 175.152 825.796 175.528 825.604 176.008C825.412 176.488 825.316 177.043 825.316 177.672C825.316 178.643 825.54 179.421 825.988 180.008C826.436 180.595 827.095 180.888 827.964 180.888ZM837.573 182.24C836.715 182.24 835.973 182.045 835.349 181.656C834.731 181.267 834.253 180.728 833.917 180.04C833.581 179.352 833.413 178.563 833.413 177.672C833.413 176.765 833.584 175.971 833.925 175.288C834.267 174.605 834.749 174.075 835.373 173.696C835.997 173.312 836.731 173.12 837.573 173.12C838.437 173.12 839.181 173.315 839.805 173.704C840.429 174.088 840.907 174.624 841.237 175.312C841.573 175.995 841.741 176.781 841.741 177.672C841.741 178.573 841.573 179.368 841.237 180.056C840.901 180.739 840.421 181.275 839.797 181.664C839.173 182.048 838.432 182.24 837.573 182.24ZM837.573 180.888C838.469 180.888 839.136 180.589 839.573 179.992C840.011 179.395 840.229 178.621 840.229 177.672C840.229 176.696 840.008 175.92 839.565 175.344C839.123 174.763 838.459 174.472 837.573 174.472C836.971 174.472 836.475 174.608 836.085 174.88C835.696 175.152 835.405 175.528 835.213 176.008C835.021 176.488 834.925 177.043 834.925 177.672C834.925 178.643 835.149 179.421 835.597 180.008C836.045 180.595 836.704 180.888 837.573 180.888ZM843.495 182L843.503 170.48H844.943V177.52L848.567 173.36H850.415L846.599 177.68L850.863 182H848.871L844.943 177.84V182H843.495ZM858.606 182.24C857.966 182.24 857.369 182.147 856.814 181.96C856.26 181.773 855.796 181.48 855.422 181.08C855.134 180.76 854.918 180.408 854.774 180.024C854.636 179.635 854.558 179.224 854.542 178.792C854.542 178.371 854.604 177.96 854.726 177.56C854.849 177.155 855.044 176.795 855.31 176.48C855.449 176.309 855.604 176.165 855.774 176.048C855.95 175.925 856.126 175.821 856.302 175.736C855.934 175.341 855.652 174.971 855.454 174.624C855.262 174.277 855.166 173.859 855.166 173.368C855.166 172.744 855.326 172.181 855.646 171.68C855.972 171.173 856.414 170.803 856.974 170.568C857.246 170.451 857.524 170.371 857.806 170.328C858.094 170.28 858.374 170.256 858.646 170.256C859.105 170.256 859.55 170.32 859.982 170.448C860.414 170.576 860.782 170.784 861.086 171.072C861.289 171.243 861.462 171.44 861.606 171.664C861.75 171.883 861.862 172.112 861.942 172.352L860.55 172.712C860.449 172.44 860.281 172.211 860.046 172.024C859.86 171.864 859.641 171.755 859.39 171.696C859.145 171.637 858.897 171.608 858.646 171.608C858.23 171.608 857.854 171.688 857.518 171.848C857.22 171.992 856.996 172.195 856.846 172.456C856.697 172.712 856.622 173.016 856.622 173.368C856.622 173.672 856.673 173.923 856.774 174.12C856.881 174.312 857.028 174.517 857.214 174.736C857.326 174.853 857.452 174.979 857.59 175.112C857.734 175.24 857.881 175.373 858.03 175.512L861.422 178.664C861.438 178.531 861.449 178.395 861.454 178.256C861.46 178.117 861.462 177.984 861.462 177.856L861.454 176.264H862.758V178.136C862.758 178.515 862.745 178.837 862.718 179.104C862.697 179.371 862.66 179.592 862.606 179.768L864.07 181.12L863.142 182.112L861.926 180.96C861.718 181.195 861.47 181.4 861.182 181.576C860.894 181.752 860.606 181.885 860.318 181.976C860.046 182.077 859.766 182.147 859.478 182.184C859.19 182.221 858.9 182.24 858.606 182.24ZM858.638 180.872C858.9 180.872 859.137 180.856 859.35 180.824C859.564 180.792 859.766 180.731 859.958 180.64C860.214 180.517 860.412 180.4 860.55 180.288C860.689 180.176 860.804 180.072 860.894 179.976L857.382 176.76C857.19 176.824 857.009 176.909 856.838 177.016C856.673 177.123 856.529 177.248 856.406 177.392C856.268 177.563 856.164 177.763 856.094 177.992C856.03 178.221 855.998 178.464 855.998 178.72C856.004 178.992 856.049 179.243 856.134 179.472C856.22 179.701 856.34 179.907 856.494 180.088C856.729 180.36 857.046 180.56 857.446 180.688C857.846 180.811 858.244 180.872 858.638 180.872ZM786.358 204V192.48H787.782V204H786.358ZM796.335 204V199.672C796.335 199.261 796.297 198.867 796.223 198.488C796.153 198.109 796.028 197.771 795.847 197.472C795.671 197.168 795.431 196.928 795.127 196.752C794.828 196.576 794.449 196.488 793.991 196.488C793.633 196.488 793.308 196.549 793.015 196.672C792.727 196.789 792.479 196.971 792.271 197.216C792.063 197.461 791.9 197.771 791.783 198.144C791.671 198.512 791.615 198.947 791.615 199.448L790.679 199.16C790.679 198.323 790.828 197.605 791.127 197.008C791.431 196.405 791.855 195.944 792.399 195.624C792.948 195.299 793.593 195.136 794.335 195.136C794.895 195.136 795.372 195.224 795.767 195.4C796.161 195.576 796.489 195.811 796.751 196.104C797.012 196.392 797.217 196.717 797.367 197.08C797.516 197.437 797.62 197.803 797.679 198.176C797.743 198.544 797.775 198.893 797.775 199.224V204H796.335ZM790.175 204V195.36H791.455V197.672H791.615V204H790.175ZM803.118 204.232C802.089 204.232 801.244 204.008 800.582 203.56C799.926 203.107 799.524 202.475 799.374 201.664L800.83 201.432C800.948 201.901 801.217 202.275 801.638 202.552C802.06 202.824 802.582 202.96 803.206 202.96C803.798 202.96 804.262 202.837 804.598 202.592C804.934 202.347 805.102 202.013 805.102 201.592C805.102 201.347 805.046 201.149 804.934 201C804.822 200.845 804.59 200.701 804.238 200.568C803.892 200.435 803.366 200.275 802.662 200.088C801.9 199.885 801.3 199.675 800.862 199.456C800.425 199.237 800.113 198.984 799.926 198.696C799.74 198.408 799.646 198.059 799.646 197.648C799.646 197.141 799.785 196.699 800.062 196.32C800.34 195.936 800.726 195.64 801.222 195.432C801.724 195.224 802.305 195.12 802.966 195.12C803.622 195.12 804.209 195.224 804.726 195.432C805.244 195.64 805.66 195.936 805.974 196.32C806.294 196.699 806.484 197.141 806.542 197.648L805.086 197.912C805.017 197.448 804.793 197.083 804.414 196.816C804.041 196.549 803.558 196.408 802.966 196.392C802.406 196.371 801.95 196.469 801.598 196.688C801.252 196.907 801.078 197.203 801.078 197.576C801.078 197.784 801.142 197.963 801.27 198.112C801.404 198.261 801.646 198.403 801.998 198.536C802.356 198.669 802.873 198.821 803.55 198.992C804.313 199.184 804.913 199.395 805.35 199.624C805.793 199.848 806.108 200.115 806.294 200.424C806.481 200.728 806.574 201.104 806.574 201.552C806.574 202.384 806.268 203.04 805.654 203.52C805.041 203.995 804.196 204.232 803.118 204.232ZM813.163 204C812.651 204.101 812.144 204.141 811.643 204.12C811.147 204.104 810.704 204.005 810.315 203.824C809.925 203.637 809.629 203.349 809.427 202.96C809.256 202.619 809.163 202.275 809.147 201.928C809.136 201.576 809.131 201.179 809.131 200.736V192.96H810.555V200.672C810.555 201.024 810.557 201.325 810.563 201.576C810.573 201.827 810.629 202.043 810.731 202.224C810.923 202.565 811.227 202.765 811.643 202.824C812.064 202.883 812.571 202.867 813.163 202.776V204ZM807.379 196.536V195.36H813.163V196.536H807.379ZM817.373 204.24C816.728 204.24 816.186 204.123 815.749 203.888C815.317 203.648 814.989 203.333 814.765 202.944C814.546 202.555 814.437 202.128 814.437 201.664C814.437 201.211 814.522 200.819 814.693 200.488C814.869 200.152 815.114 199.875 815.429 199.656C815.744 199.432 816.12 199.256 816.557 199.128C816.968 199.016 817.426 198.92 817.933 198.84C818.445 198.755 818.962 198.677 819.485 198.608C820.008 198.539 820.496 198.472 820.949 198.408L820.437 198.704C820.453 197.936 820.298 197.368 819.973 197C819.653 196.632 819.098 196.448 818.309 196.448C817.786 196.448 817.328 196.568 816.933 196.808C816.544 197.043 816.269 197.427 816.109 197.96L814.757 197.552C814.965 196.795 815.368 196.2 815.965 195.768C816.562 195.336 817.349 195.12 818.325 195.12C819.109 195.12 819.781 195.261 820.341 195.544C820.906 195.821 821.312 196.243 821.557 196.808C821.68 197.075 821.757 197.365 821.789 197.68C821.821 197.989 821.837 198.315 821.837 198.656V204H820.573V201.928L820.869 202.12C820.544 202.819 820.088 203.347 819.501 203.704C818.92 204.061 818.21 204.24 817.373 204.24ZM817.589 203.048C818.101 203.048 818.544 202.957 818.917 202.776C819.296 202.589 819.6 202.347 819.829 202.048C820.058 201.744 820.208 201.413 820.277 201.056C820.357 200.789 820.4 200.493 820.405 200.168C820.416 199.837 820.421 199.584 820.421 199.408L820.917 199.624C820.453 199.688 819.997 199.749 819.549 199.808C819.101 199.867 818.677 199.931 818.277 200C817.877 200.064 817.517 200.141 817.197 200.232C816.962 200.307 816.741 200.403 816.533 200.52C816.33 200.637 816.165 200.789 816.037 200.976C815.914 201.157 815.853 201.384 815.853 201.656C815.853 201.891 815.912 202.115 816.029 202.328C816.152 202.541 816.338 202.715 816.589 202.848C816.845 202.981 817.178 203.048 817.589 203.048ZM827.413 208.08C826.96 208.08 826.517 208.011 826.085 207.872C825.653 207.733 825.256 207.523 824.893 207.24C824.536 206.963 824.237 206.611 823.997 206.184L825.301 205.496C825.514 205.917 825.816 206.224 826.205 206.416C826.6 206.608 827.005 206.704 827.421 206.704C827.97 206.704 828.426 206.603 828.789 206.4C829.152 206.203 829.418 205.907 829.589 205.512C829.765 205.117 829.85 204.627 829.845 204.04V201.68H830.013V195.36H831.277V204.056C831.277 204.291 831.269 204.517 831.253 204.736C831.242 204.955 831.216 205.171 831.173 205.384C831.061 205.997 830.84 206.501 830.509 206.896C830.178 207.296 829.752 207.592 829.229 207.784C828.706 207.981 828.101 208.08 827.413 208.08ZM827.309 204.24C826.504 204.24 825.813 204.04 825.237 203.64C824.661 203.235 824.216 202.688 823.901 202C823.592 201.312 823.437 200.536 823.437 199.672C823.437 198.808 823.592 198.032 823.901 197.344C824.216 196.656 824.661 196.115 825.237 195.72C825.813 195.32 826.501 195.12 827.301 195.12C828.117 195.12 828.802 195.317 829.357 195.712C829.912 196.107 830.33 196.648 830.613 197.336C830.901 198.024 831.045 198.803 831.045 199.672C831.045 200.531 830.901 201.307 830.613 202C830.33 202.688 829.912 203.235 829.357 203.64C828.802 204.04 828.12 204.24 827.309 204.24ZM827.485 202.936C828.066 202.936 828.544 202.797 828.917 202.52C829.29 202.237 829.565 201.851 829.741 201.36C829.922 200.864 830.013 200.301 830.013 199.672C830.013 199.032 829.922 198.469 829.741 197.984C829.565 197.493 829.293 197.112 828.925 196.84C828.557 196.563 828.09 196.424 827.525 196.424C826.938 196.424 826.453 196.568 826.069 196.856C825.69 197.144 825.408 197.533 825.221 198.024C825.04 198.515 824.949 199.064 824.949 199.672C824.949 200.285 825.042 200.84 825.229 201.336C825.416 201.827 825.696 202.216 826.069 202.504C826.448 202.792 826.92 202.936 827.485 202.936ZM833.511 204V195.36H834.783V197.448L834.575 197.176C834.676 196.909 834.807 196.664 834.967 196.44C835.132 196.216 835.316 196.032 835.519 195.888C835.743 195.707 835.996 195.568 836.279 195.472C836.561 195.376 836.849 195.32 837.143 195.304C837.436 195.283 837.711 195.301 837.967 195.36V196.696C837.668 196.616 837.34 196.595 836.983 196.632C836.625 196.669 836.295 196.8 835.991 197.024C835.713 197.221 835.497 197.461 835.343 197.744C835.193 198.027 835.089 198.333 835.031 198.664C834.972 198.989 834.943 199.323 834.943 199.664V204H833.511ZM841.654 204.24C841.009 204.24 840.467 204.123 840.03 203.888C839.598 203.648 839.27 203.333 839.046 202.944C838.827 202.555 838.718 202.128 838.718 201.664C838.718 201.211 838.803 200.819 838.974 200.488C839.15 200.152 839.395 199.875 839.71 199.656C840.025 199.432 840.401 199.256 840.838 199.128C841.249 199.016 841.707 198.92 842.214 198.84C842.726 198.755 843.243 198.677 843.766 198.608C844.289 198.539 844.777 198.472 845.23 198.408L844.718 198.704C844.734 197.936 844.579 197.368 844.254 197C843.934 196.632 843.379 196.448 842.59 196.448C842.067 196.448 841.609 196.568 841.214 196.808C840.825 197.043 840.55 197.427 840.39 197.96L839.038 197.552C839.246 196.795 839.649 196.2 840.246 195.768C840.843 195.336 841.63 195.12 842.606 195.12C843.39 195.12 844.062 195.261 844.622 195.544C845.187 195.821 845.593 196.243 845.838 196.808C845.961 197.075 846.038 197.365 846.07 197.68C846.102 197.989 846.118 198.315 846.118 198.656V204H844.854V201.928L845.15 202.12C844.825 202.819 844.369 203.347 843.782 203.704C843.201 204.061 842.491 204.24 841.654 204.24ZM841.87 203.048C842.382 203.048 842.825 202.957 843.198 202.776C843.577 202.589 843.881 202.347 844.11 202.048C844.339 201.744 844.489 201.413 844.558 201.056C844.638 200.789 844.681 200.493 844.686 200.168C844.697 199.837 844.702 199.584 844.702 199.408L845.198 199.624C844.734 199.688 844.278 199.749 843.83 199.808C843.382 199.867 842.958 199.931 842.558 200C842.158 200.064 841.798 200.141 841.478 200.232C841.243 200.307 841.022 200.403 840.814 200.52C840.611 200.637 840.446 200.789 840.318 200.976C840.195 201.157 840.134 201.384 840.134 201.656C840.134 201.891 840.193 202.115 840.31 202.328C840.433 202.541 840.619 202.715 840.87 202.848C841.126 202.981 841.459 203.048 841.87 203.048ZM858.526 204L858.534 198.472C858.534 197.827 858.361 197.323 858.014 196.96C857.673 196.592 857.227 196.408 856.678 196.408C856.358 196.408 856.054 196.483 855.766 196.632C855.478 196.776 855.243 197.005 855.062 197.32C854.881 197.629 854.79 198.027 854.79 198.512L854.038 198.208C854.027 197.595 854.153 197.059 854.414 196.6C854.681 196.136 855.043 195.776 855.502 195.52C855.961 195.264 856.478 195.136 857.054 195.136C857.955 195.136 858.665 195.411 859.182 195.96C859.699 196.504 859.958 197.237 859.958 198.16L859.95 204H858.526ZM848.19 204V195.36H849.462V197.672H849.622V204H848.19ZM853.366 204L853.374 198.528C853.374 197.867 853.203 197.349 852.862 196.976C852.521 196.597 852.067 196.408 851.502 196.408C850.942 196.408 850.489 196.6 850.142 196.984C849.795 197.368 849.622 197.877 849.622 198.512L848.87 198.064C848.87 197.504 849.003 197.003 849.27 196.56C849.537 196.117 849.899 195.771 850.358 195.52C850.817 195.264 851.337 195.136 851.918 195.136C852.499 195.136 853.006 195.259 853.438 195.504C853.87 195.749 854.203 196.101 854.438 196.56C854.673 197.013 854.79 197.555 854.79 198.184L854.782 204H853.366Z" fill="#212528"/>
</g>
<g filter="url(#filter12_d_1595_21743)">
<rect x="346" y="325" width="256.767" height="48.3836" rx="24.1918" fill="white" shape-rendering="crispEdges"/>
<path d="M367.811 357.192V342.516H369.462L375.006 354.206L380.52 342.516H382.191V357.182H380.469V346.501L375.485 357.192H374.517L369.533 346.501V357.192H367.811ZM389.228 357.477C388.521 357.477 387.913 357.365 387.403 357.141C386.901 356.917 386.483 356.618 386.15 356.244C385.817 355.87 385.555 355.456 385.365 355.001C385.175 354.545 385.039 354.08 384.957 353.604C384.883 353.129 384.845 352.684 384.845 352.269V346.185H386.68V351.698C386.68 352.215 386.727 352.714 386.822 353.197C386.918 353.679 387.077 354.114 387.301 354.501C387.532 354.888 387.838 355.194 388.219 355.418C388.606 355.643 389.088 355.755 389.666 355.755C390.121 355.755 390.536 355.677 390.909 355.52C391.283 355.364 391.602 355.133 391.867 354.827C392.132 354.515 392.336 354.121 392.479 353.645C392.622 353.169 392.693 352.616 392.693 351.984L393.885 352.351C393.885 353.411 393.692 354.325 393.304 355.092C392.924 355.86 392.384 356.451 391.684 356.866C390.991 357.273 390.172 357.477 389.228 357.477ZM392.897 357.192V354.246H392.693V346.185H394.517V357.192H392.897ZM397.575 357.192V342.21H399.389V357.192H397.575ZM408.592 357.192C407.94 357.321 407.295 357.372 406.656 357.345C406.024 357.324 405.46 357.199 404.964 356.968C404.468 356.73 404.091 356.363 403.833 355.867C403.615 355.432 403.497 354.994 403.476 354.552C403.463 354.104 403.456 353.598 403.456 353.034V343.127H405.27V352.952C405.27 353.4 405.273 353.784 405.28 354.104C405.294 354.423 405.365 354.698 405.494 354.929C405.739 355.364 406.126 355.619 406.656 355.694C407.193 355.768 407.838 355.748 408.592 355.632V357.192ZM401.224 347.683V346.185H408.592V347.683H401.224ZM411.031 344.238V342.363H412.845V344.238H411.031ZM411.031 357.192V346.185H412.845V357.192H411.031ZM415.699 351.515V350.017H421.814V351.515H415.699ZM429.1 357.498C427.986 357.498 427.038 357.25 426.256 356.754C425.482 356.251 424.891 355.561 424.483 354.685C424.075 353.808 423.865 352.809 423.851 351.688C423.865 350.54 424.079 349.531 424.493 348.661C424.915 347.785 425.516 347.102 426.297 346.613C427.079 346.124 428.02 345.879 429.12 345.879C430.282 345.879 431.281 346.164 432.117 346.735C432.959 347.306 433.523 348.087 433.809 349.079L432.015 349.619C431.784 348.981 431.407 348.485 430.884 348.131C430.367 347.778 429.773 347.601 429.1 347.601C428.346 347.601 427.724 347.778 427.235 348.131C426.746 348.478 426.382 348.96 426.144 349.579C425.907 350.19 425.784 350.893 425.777 351.688C425.791 352.911 426.073 353.9 426.623 354.654C427.181 355.401 428.006 355.775 429.1 355.775C429.82 355.775 430.418 355.612 430.894 355.286C431.369 354.953 431.729 354.474 431.974 353.849L433.809 354.328C433.428 355.354 432.834 356.139 432.025 356.682C431.216 357.226 430.241 357.498 429.1 357.498ZM443.726 357.192V351.678C443.726 351.155 443.679 350.652 443.584 350.17C443.495 349.687 443.336 349.256 443.105 348.875C442.88 348.488 442.575 348.182 442.187 347.958C441.807 347.734 441.324 347.622 440.74 347.622C440.285 347.622 439.87 347.7 439.497 347.856C439.13 348.006 438.814 348.237 438.549 348.549C438.284 348.862 438.077 349.256 437.927 349.731C437.784 350.2 437.713 350.754 437.713 351.393L436.521 351.026C436.521 349.959 436.711 349.045 437.091 348.284C437.479 347.516 438.019 346.929 438.712 346.521C439.412 346.107 440.234 345.899 441.178 345.899C441.892 345.899 442.5 346.011 443.003 346.236C443.505 346.46 443.923 346.759 444.256 347.133C444.589 347.499 444.851 347.914 445.041 348.376C445.231 348.831 445.364 349.297 445.438 349.772C445.52 350.241 445.561 350.686 445.561 351.107V357.192H443.726ZM435.879 357.192V342.516H437.509V350.618H437.713V357.192H435.879ZM451.339 357.498C450.517 357.498 449.828 357.348 449.27 357.049C448.72 356.743 448.302 356.343 448.017 355.847C447.738 355.351 447.599 354.807 447.599 354.216C447.599 353.638 447.708 353.139 447.925 352.718C448.149 352.29 448.462 351.936 448.863 351.658C449.264 351.372 449.743 351.148 450.3 350.985C450.823 350.842 451.407 350.72 452.053 350.618C452.705 350.509 453.364 350.411 454.03 350.323C454.696 350.234 455.318 350.149 455.895 350.068L455.243 350.445C455.263 349.466 455.066 348.743 454.652 348.274C454.244 347.805 453.537 347.571 452.532 347.571C451.866 347.571 451.282 347.724 450.779 348.029C450.283 348.328 449.933 348.818 449.729 349.497L448.007 348.977C448.272 348.012 448.785 347.255 449.546 346.704C450.307 346.154 451.309 345.879 452.552 345.879C453.551 345.879 454.407 346.059 455.121 346.419C455.841 346.772 456.357 347.309 456.67 348.029C456.826 348.369 456.924 348.739 456.965 349.14C457.006 349.534 457.026 349.949 457.026 350.384V357.192H455.416V354.552L455.793 354.797C455.379 355.687 454.798 356.36 454.05 356.815C453.31 357.27 452.406 357.498 451.339 357.498ZM451.615 355.979C452.267 355.979 452.831 355.863 453.306 355.632C453.789 355.395 454.176 355.086 454.468 354.705C454.76 354.318 454.951 353.896 455.039 353.441C455.141 353.102 455.195 352.724 455.202 352.31C455.216 351.889 455.222 351.566 455.222 351.342L455.854 351.617C455.263 351.698 454.682 351.777 454.112 351.851C453.541 351.926 453.001 352.008 452.491 352.096C451.981 352.177 451.523 352.276 451.115 352.391C450.816 352.487 450.534 352.609 450.269 352.758C450.011 352.908 449.8 353.102 449.637 353.339C449.481 353.57 449.403 353.859 449.403 354.206C449.403 354.505 449.478 354.79 449.627 355.062C449.783 355.334 450.021 355.554 450.341 355.724C450.667 355.894 451.091 355.979 451.615 355.979ZM467.514 357.192V351.678C467.514 351.155 467.466 350.652 467.371 350.17C467.283 349.687 467.123 349.256 466.892 348.875C466.668 348.488 466.362 348.182 465.975 347.958C465.594 347.734 465.112 347.622 464.528 347.622C464.072 347.622 463.658 347.7 463.284 347.856C462.917 348.006 462.601 348.237 462.336 348.549C462.071 348.862 461.864 349.256 461.715 349.731C461.572 350.2 461.501 350.754 461.501 351.393L460.308 351.026C460.308 349.959 460.498 349.045 460.879 348.284C461.266 347.516 461.806 346.929 462.499 346.521C463.199 346.107 464.021 345.899 464.966 345.899C465.679 345.899 466.287 346.011 466.79 346.236C467.293 346.46 467.711 346.759 468.044 347.133C468.377 347.499 468.638 347.914 468.829 348.376C469.019 348.831 469.151 349.297 469.226 349.772C469.308 350.241 469.348 350.686 469.348 351.107V357.192H467.514ZM459.666 357.192V346.185H461.297V349.13H461.501V357.192H459.666ZM479.836 357.192V351.678C479.836 351.155 479.788 350.652 479.693 350.17C479.605 349.687 479.445 349.256 479.214 348.875C478.99 348.488 478.684 348.182 478.297 347.958C477.916 347.734 477.434 347.622 476.849 347.622C476.394 347.622 475.98 347.7 475.606 347.856C475.239 348.006 474.923 348.237 474.658 348.549C474.393 348.862 474.186 349.256 474.036 349.731C473.894 350.2 473.822 350.754 473.822 351.393L472.63 351.026C472.63 349.959 472.82 349.045 473.201 348.284C473.588 347.516 474.128 346.929 474.821 346.521C475.521 346.107 476.343 345.899 477.288 345.899C478.001 345.899 478.609 346.011 479.112 346.236C479.615 346.46 480.033 346.759 480.366 347.133C480.698 347.499 480.96 347.914 481.15 348.376C481.341 348.831 481.473 349.297 481.548 349.772C481.629 350.241 481.67 350.686 481.67 351.107V357.192H479.836ZM471.988 357.192V346.185H473.619V349.13H473.822V357.192H471.988ZM488.99 357.498C487.91 357.498 486.965 357.26 486.157 356.784C485.355 356.302 484.73 355.632 484.281 354.776C483.833 353.913 483.609 352.908 483.609 351.76C483.609 350.557 483.83 349.517 484.271 348.641C484.713 347.758 485.328 347.078 486.116 346.603C486.911 346.12 487.842 345.879 488.908 345.879C490.016 345.879 490.957 346.134 491.732 346.643C492.513 347.153 493.097 347.88 493.485 348.824C493.879 349.769 494.049 350.893 493.994 352.198H492.16V351.546C492.139 350.193 491.864 349.184 491.334 348.519C490.804 347.846 490.016 347.51 488.97 347.51C487.849 347.51 486.996 347.87 486.411 348.59C485.827 349.31 485.535 350.343 485.535 351.688C485.535 352.986 485.827 353.992 486.411 354.705C486.996 355.418 487.828 355.775 488.908 355.775C489.635 355.775 490.267 355.609 490.804 355.276C491.341 354.943 491.762 354.464 492.068 353.839L493.811 354.44C493.383 355.412 492.737 356.166 491.874 356.703C491.018 357.233 490.057 357.498 488.99 357.498ZM484.923 352.198V350.74H493.057V352.198H484.923ZM496.467 357.192V342.21H498.281V357.192H496.467ZM510.628 357.498C509.588 357.498 508.651 357.321 507.815 356.968C506.986 356.614 506.3 356.112 505.756 355.459C505.22 354.8 504.87 354.022 504.707 353.125L506.582 352.83C506.82 353.754 507.312 354.477 508.06 355.001C508.814 355.517 509.701 355.775 510.72 355.775C511.379 355.775 511.973 355.673 512.503 355.469C513.04 355.259 513.465 354.96 513.777 354.573C514.09 354.185 514.246 353.727 514.246 353.197C514.246 352.87 514.188 352.592 514.073 352.361C513.964 352.123 513.811 351.923 513.614 351.76C513.424 351.59 513.207 351.447 512.962 351.332C512.717 351.216 512.463 351.121 512.198 351.046L508.457 349.935C508.05 349.813 507.655 349.66 507.275 349.477C506.894 349.286 506.555 349.052 506.256 348.773C505.957 348.488 505.719 348.148 505.542 347.754C505.366 347.353 505.277 346.881 505.277 346.338C505.277 345.468 505.502 344.727 505.95 344.116C506.405 343.497 507.02 343.025 507.795 342.699C508.569 342.373 509.442 342.213 510.414 342.22C511.399 342.227 512.279 342.403 513.054 342.75C513.835 343.09 514.481 343.579 514.99 344.218C515.507 344.856 515.853 345.621 516.03 346.511L514.103 346.847C514.002 346.249 513.774 345.736 513.421 345.308C513.074 344.873 512.639 344.54 512.116 344.309C511.593 344.072 511.019 343.949 510.394 343.942C509.796 343.936 509.256 344.031 508.773 344.228C508.291 344.425 507.907 344.7 507.621 345.053C507.336 345.4 507.193 345.801 507.193 346.256C507.193 346.704 507.323 347.068 507.581 347.347C507.839 347.618 508.155 347.836 508.529 347.999C508.909 348.155 509.279 348.284 509.639 348.386L512.432 349.191C512.751 349.28 513.118 349.402 513.533 349.558C513.954 349.714 514.362 349.935 514.756 350.221C515.15 350.499 515.476 350.873 515.734 351.342C515.992 351.804 516.121 352.388 516.121 353.095C516.121 353.801 515.979 354.43 515.693 354.98C515.415 355.531 515.024 355.993 514.521 356.366C514.019 356.733 513.434 357.012 512.768 357.202C512.102 357.399 511.389 357.498 510.628 357.498ZM522.438 357.477C521.731 357.477 521.123 357.365 520.614 357.141C520.111 356.917 519.693 356.618 519.36 356.244C519.027 355.87 518.766 355.456 518.575 355.001C518.385 354.545 518.249 354.08 518.168 353.604C518.093 353.129 518.056 352.684 518.056 352.269V346.185H519.89V351.698C519.89 352.215 519.938 352.714 520.033 353.197C520.128 353.679 520.288 354.114 520.512 354.501C520.743 354.888 521.049 355.194 521.429 355.418C521.816 355.643 522.299 355.755 522.876 355.755C523.331 355.755 523.746 355.677 524.12 355.52C524.493 355.364 524.813 355.133 525.078 354.827C525.343 354.515 525.546 354.121 525.689 353.645C525.832 353.169 525.903 352.616 525.903 351.984L527.096 352.351C527.096 353.411 526.902 354.325 526.515 355.092C526.134 355.86 525.594 356.451 524.894 356.866C524.201 357.273 523.382 357.477 522.438 357.477ZM526.107 357.192V354.246H525.903V346.185H527.728V357.192H526.107ZM535.636 357.498C534.603 357.498 533.734 357.243 533.027 356.733C532.321 356.217 531.784 355.52 531.417 354.644C531.057 353.761 530.877 352.772 530.877 351.678C530.877 350.571 531.057 349.579 531.417 348.702C531.784 347.826 532.321 347.136 533.027 346.633C533.741 346.13 534.614 345.879 535.646 345.879C536.666 345.879 537.542 346.134 538.276 346.643C539.017 347.146 539.584 347.836 539.978 348.712C540.372 349.589 540.569 350.577 540.569 351.678C540.569 352.779 540.372 353.767 539.978 354.644C539.584 355.52 539.017 356.217 538.276 356.733C537.542 357.243 536.662 357.498 535.636 357.498ZM530.571 362.084V346.185H532.191V354.287H532.395V362.084H530.571ZM535.412 355.836C536.139 355.836 536.74 355.653 537.216 355.286C537.692 354.919 538.048 354.423 538.286 353.798C538.524 353.166 538.643 352.459 538.643 351.678C538.643 350.903 538.524 350.204 538.286 349.579C538.055 348.953 537.695 348.457 537.206 348.091C536.723 347.724 536.108 347.54 535.361 347.54C534.648 347.54 534.057 347.717 533.588 348.07C533.119 348.417 532.769 348.902 532.538 349.528C532.307 350.146 532.191 350.863 532.191 351.678C532.191 352.48 532.304 353.197 532.528 353.829C532.759 354.454 533.112 354.946 533.588 355.306C534.063 355.66 534.671 355.836 535.412 355.836ZM547.858 357.498C546.826 357.498 545.956 357.243 545.249 356.733C544.543 356.217 544.006 355.52 543.639 354.644C543.279 353.761 543.099 352.772 543.099 351.678C543.099 350.571 543.279 349.579 543.639 348.702C544.006 347.826 544.543 347.136 545.249 346.633C545.963 346.13 546.836 345.879 547.869 345.879C548.888 345.879 549.764 346.134 550.498 346.643C551.239 347.146 551.806 347.836 552.2 348.712C552.594 349.589 552.791 350.577 552.791 351.678C552.791 352.779 552.594 353.767 552.2 354.644C551.806 355.52 551.239 356.217 550.498 356.733C549.764 357.243 548.884 357.498 547.858 357.498ZM542.793 362.084V346.185H544.414V354.287H544.617V362.084H542.793ZM547.634 355.836C548.361 355.836 548.963 355.653 549.438 355.286C549.914 354.919 550.271 354.423 550.508 353.798C550.746 353.166 550.865 352.459 550.865 351.678C550.865 350.903 550.746 350.204 550.508 349.579C550.277 348.953 549.917 348.457 549.428 348.091C548.946 347.724 548.331 347.54 547.583 347.54C546.87 347.54 546.279 347.717 545.81 348.07C545.341 348.417 544.991 348.902 544.76 349.528C544.529 350.146 544.414 350.863 544.414 351.678C544.414 352.48 544.526 353.197 544.75 353.829C544.981 354.454 545.334 354.946 545.81 355.306C546.286 355.66 546.894 355.836 547.634 355.836ZM559.714 357.498C558.62 357.498 557.675 357.25 556.88 356.754C556.092 356.258 555.484 355.571 555.056 354.695C554.628 353.818 554.414 352.813 554.414 351.678C554.414 350.523 554.631 349.511 555.066 348.641C555.501 347.771 556.116 347.095 556.911 346.613C557.706 346.124 558.64 345.879 559.714 345.879C560.815 345.879 561.762 346.127 562.557 346.623C563.352 347.112 563.96 347.795 564.382 348.671C564.81 349.541 565.024 350.543 565.024 351.678C565.024 352.826 564.81 353.839 564.382 354.715C563.954 355.585 563.342 356.268 562.547 356.764C561.752 357.253 560.808 357.498 559.714 357.498ZM559.714 355.775C560.855 355.775 561.705 355.395 562.262 354.634C562.819 353.873 563.097 352.887 563.097 351.678C563.097 350.435 562.815 349.446 562.252 348.712C561.688 347.972 560.842 347.601 559.714 347.601C558.946 347.601 558.314 347.775 557.818 348.121C557.322 348.468 556.952 348.947 556.707 349.558C556.463 350.17 556.34 350.876 556.34 351.678C556.34 352.915 556.626 353.907 557.196 354.654C557.767 355.401 558.606 355.775 559.714 355.775ZM567.268 357.192V346.185H568.888V348.845L568.623 348.498C568.752 348.158 568.919 347.846 569.123 347.561C569.333 347.275 569.568 347.041 569.826 346.857C570.111 346.626 570.434 346.45 570.794 346.327C571.154 346.205 571.521 346.134 571.895 346.113C572.268 346.086 572.618 346.11 572.945 346.185V347.887C572.564 347.785 572.146 347.758 571.691 347.805C571.236 347.853 570.814 348.019 570.427 348.305C570.074 348.556 569.799 348.862 569.602 349.222C569.411 349.582 569.279 349.973 569.204 350.394C569.129 350.808 569.092 351.233 569.092 351.668V357.192H567.268ZM581.017 357.192C580.365 357.321 579.72 357.372 579.081 357.345C578.449 357.324 577.885 357.199 577.389 356.968C576.893 356.73 576.516 356.363 576.258 355.867C576.04 355.432 575.921 354.994 575.901 354.552C575.888 354.104 575.881 353.598 575.881 353.034V343.127H577.695V352.952C577.695 353.4 577.698 353.784 577.705 354.104C577.719 354.423 577.79 354.698 577.919 354.929C578.164 355.364 578.551 355.619 579.081 355.694C579.618 355.768 580.263 355.748 581.017 355.632V357.192ZM573.649 347.683V346.185H581.017V347.683H573.649Z" fill="#212528"/>
</g>
<defs>
<filter id="filter0_d_1595_21743" x="67" y="156" width="132" height="46" filterUnits="userSpaceOnUse" color-interpolation-filters="sRGB">
<feFlood flood-opacity="0" result="BackgroundImageFix"/>
<feColorMatrix in="SourceAlpha" type="matrix" values="0 0 0 0 0 0 0 0 0 0 0 0 0 0 0 0 0 0 127 0" result="hardAlpha"/>
<feOffset dy="4"/>
<feGaussianBlur stdDeviation="2"/>
<feComposite in2="hardAlpha" operator="out"/>
<feColorMatrix type="matrix" values="0 0 0 0 0 0 0 0 0 0 0 0 0 0 0 0 0 0 0.25 0"/>
<feBlend mode="normal" in2="BackgroundImageFix" result="effect1_dropShadow_1595_21743"/>
<feBlend mode="normal" in="SourceGraphic" in2="effect1_dropShadow_1595_21743" result="shape"/>
</filter>
<filter id="filter1_d_1595_21743" x="91.5" y="202" width="83" height="83" filterUnits="userSpaceOnUse" color-interpolation-filters="sRGB">
<feFlood flood-opacity="0" result="BackgroundImageFix"/>
<feColorMatrix in="SourceAlpha" type="matrix" values="0 0 0 0 0 0 0 0 0 0 0 0 0 0 0 0 0 0 127 0" result="hardAlpha"/>
<feOffset dy="4"/>
<feGaussianBlur stdDeviation="2"/>
<feComposite in2="hardAlpha" operator="out"/>
<feColorMatrix type="matrix" values="0 0 0 0 0 0 0 0 0 0 0 0 0 0 0 0 0 0 0.25 0"/>
<feBlend mode="normal" in2="BackgroundImageFix" result="effect1_dropShadow_1595_21743"/>
<feBlend mode="normal" in="SourceGraphic" in2="effect1_dropShadow_1595_21743" result="shape"/>
</filter>
<filter id="filter2_d_1595_21743" x="229.5" y="74" width="83" height="83" filterUnits="userSpaceOnUse" color-interpolation-filters="sRGB">
<feFlood flood-opacity="0" result="BackgroundImageFix"/>
<feColorMatrix in="SourceAlpha" type="matrix" values="0 0 0 0 0 0 0 0 0 0 0 0 0 0 0 0 0 0 127 0" result="hardAlpha"/>
<feOffset dy="4"/>
<feGaussianBlur stdDeviation="2"/>
<feComposite in2="hardAlpha" operator="out"/>
<feColorMatrix type="matrix" values="0 0 0 0 0 0 0 0 0 0 0 0 0 0 0 0 0 0 0.25 0"/>
<feBlend mode="normal" in2="BackgroundImageFix" result="effect1_dropShadow_1595_21743"/>
<feBlend mode="normal" in="SourceGraphic" in2="effect1_dropShadow_1595_21743" result="shape"/>
</filter>
<filter id="filter3_d_1595_21743" x="230.5" y="157" width="81" height="46" filterUnits="userSpaceOnUse" color-interpolation-filters="sRGB">
<feFlood flood-opacity="0" result="BackgroundImageFix"/>
<feColorMatrix in="SourceAlpha" type="matrix" values="0 0 0 0 0 0 0 0 0 0 0 0 0 0 0 0 0 0 127 0" result="hardAlpha"/>
<feOffset dy="4"/>
<feGaussianBlur stdDeviation="2"/>
<feComposite in2="hardAlpha" operator="out"/>
<feColorMatrix type="matrix" values="0 0 0 0 0 0 0 0 0 0 0 0 0 0 0 0 0 0 0.25 0"/>
<feBlend mode="normal" in2="BackgroundImageFix" result="effect1_dropShadow_1595_21743"/>
<feBlend mode="normal" in="SourceGraphic" in2="effect1_dropShadow_1595_21743" result="shape"/>
</filter>
<filter id="filter4_d_1595_21743" x="349.5" y="156" width="119" height="46" filterUnits="userSpaceOnUse" color-interpolation-filters="sRGB">
<feFlood flood-opacity="0" result="BackgroundImageFix"/>
<feColorMatrix in="SourceAlpha" type="matrix" values="0 0 0 0 0 0 0 0 0 0 0 0 0 0 0 0 0 0 127 0" result="hardAlpha"/>
<feOffset dy="4"/>
<feGaussianBlur stdDeviation="2"/>
<feComposite in2="hardAlpha" operator="out"/>
<feColorMatrix type="matrix" values="0 0 0 0 0 0 0 0 0 0 0 0 0 0 0 0 0 0 0.25 0"/>
<feBlend mode="normal" in2="BackgroundImageFix" result="effect1_dropShadow_1595_21743"/>
<feBlend mode="normal" in="SourceGraphic" in2="effect1_dropShadow_1595_21743" result="shape"/>
</filter>
<filter id="filter5_d_1595_21743" x="367.5" y="202" width="83" height="83" filterUnits="userSpaceOnUse" color-interpolation-filters="sRGB">
<feFlood flood-opacity="0" result="BackgroundImageFix"/>
<feColorMatrix in="SourceAlpha" type="matrix" values="0 0 0 0 0 0 0 0 0 0 0 0 0 0 0 0 0 0 127 0" result="hardAlpha"/>
<feOffset dy="4"/>
<feGaussianBlur stdDeviation="2"/>
<feComposite in2="hardAlpha" operator="out"/>
<feColorMatrix type="matrix" values="0 0 0 0 0 0 0 0 0 0 0 0 0 0 0 0 0 0 0.25 0"/>
<feBlend mode="normal" in2="BackgroundImageFix" result="effect1_dropShadow_1595_21743"/>
<feBlend mode="normal" in="SourceGraphic" in2="effect1_dropShadow_1595_21743" result="shape"/>
</filter>
<filter id="filter6_d_1595_21743" x="505.5" y="74" width="83" height="83" filterUnits="userSpaceOnUse" color-interpolation-filters="sRGB">
<feFlood flood-opacity="0" result="BackgroundImageFix"/>
<feColorMatrix in="SourceAlpha" type="matrix" values="0 0 0 0 0 0 0 0 0 0 0 0 0 0 0 0 0 0 127 0" result="hardAlpha"/>
<feOffset dy="4"/>
<feGaussianBlur stdDeviation="2"/>
<feComposite in2="hardAlpha" operator="out"/>
<feColorMatrix type="matrix" values="0 0 0 0 0 0 0 0 0 0 0 0 0 0 0 0 0 0 0.25 0"/>
<feBlend mode="normal" in2="BackgroundImageFix" result="effect1_dropShadow_1595_21743"/>
<feBlend mode="normal" in="SourceGraphic" in2="effect1_dropShadow_1595_21743" result="shape"/>
</filter>
<filter id="filter7_d_1595_21743" x="510" y="157" width="74" height="46" filterUnits="userSpaceOnUse" color-interpolation-filters="sRGB">
<feFlood flood-opacity="0" result="BackgroundImageFix"/>
<feColorMatrix in="SourceAlpha" type="matrix" values="0 0 0 0 0 0 0 0 0 0 0 0 0 0 0 0 0 0 127 0" result="hardAlpha"/>
<feOffset dy="4"/>
<feGaussianBlur stdDeviation="2"/>
<feComposite in2="hardAlpha" operator="out"/>
<feColorMatrix type="matrix" values="0 0 0 0 0 0 0 0 0 0 0 0 0 0 0 0 0 0 0.25 0"/>
<feBlend mode="normal" in2="BackgroundImageFix" result="effect1_dropShadow_1595_21743"/>
<feBlend mode="normal" in="SourceGraphic" in2="effect1_dropShadow_1595_21743" result="shape"/>
</filter>
<filter id="filter8_d_1595_21743" x="644.5" y="156" width="81" height="46" filterUnits="userSpaceOnUse" color-interpolation-filters="sRGB">
<feFlood flood-opacity="0" result="BackgroundImageFix"/>
<feColorMatrix in="SourceAlpha" type="matrix" values="0 0 0 0 0 0 0 0 0 0 0 0 0 0 0 0 0 0 127 0" result="hardAlpha"/>
<feOffset dy="4"/>
<feGaussianBlur stdDeviation="2"/>
<feComposite in2="hardAlpha" operator="out"/>
<feColorMatrix type="matrix" values="0 0 0 0 0 0 0 0 0 0 0 0 0 0 0 0 0 0 0.25 0"/>
<feBlend mode="normal" in2="BackgroundImageFix" result="effect1_dropShadow_1595_21743"/>
<feBlend mode="normal" in="SourceGraphic" in2="effect1_dropShadow_1595_21743" result="shape"/>
</filter>
<filter id="filter9_d_1595_21743" x="643.5" y="202" width="83" height="83" filterUnits="userSpaceOnUse" color-interpolation-filters="sRGB">
<feFlood flood-opacity="0" result="BackgroundImageFix"/>
<feColorMatrix in="SourceAlpha" type="matrix" values="0 0 0 0 0 0 0 0 0 0 0 0 0 0 0 0 0 0 127 0" result="hardAlpha"/>
<feOffset dy="4"/>
<feGaussianBlur stdDeviation="2"/>
<feComposite in2="hardAlpha" operator="out"/>
<feColorMatrix type="matrix" values="0 0 0 0 0 0 0 0 0 0 0 0 0 0 0 0 0 0 0.25 0"/>
<feBlend mode="normal" in2="BackgroundImageFix" result="effect1_dropShadow_1595_21743"/>
<feBlend mode="normal" in="SourceGraphic" in2="effect1_dropShadow_1595_21743" result="shape"/>
</filter>
<filter id="filter10_d_1595_21743" x="781.5" y="74" width="83" height="83" filterUnits="userSpaceOnUse" color-interpolation-filters="sRGB">
<feFlood flood-opacity="0" result="BackgroundImageFix"/>
<feColorMatrix in="SourceAlpha" type="matrix" values="0 0 0 0 0 0 0 0 0 0 0 0 0 0 0 0 0 0 127 0" result="hardAlpha"/>
<feOffset dy="4"/>
<feGaussianBlur stdDeviation="2"/>
<feComposite in2="hardAlpha" operator="out"/>
<feColorMatrix type="matrix" values="0 0 0 0 0 0 0 0 0 0 0 0 0 0 0 0 0 0 0.25 0"/>
<feBlend mode="normal" in2="BackgroundImageFix" result="effect1_dropShadow_1595_21743"/>
<feBlend mode="normal" in="SourceGraphic" in2="effect1_dropShadow_1595_21743" result="shape"/>
</filter>
<filter id="filter11_d_1595_21743" x="758.5" y="157" width="129" height="68" filterUnits="userSpaceOnUse" color-interpolation-filters="sRGB">
<feFlood flood-opacity="0" result="BackgroundImageFix"/>
<feColorMatrix in="SourceAlpha" type="matrix" values="0 0 0 0 0 0 0 0 0 0 0 0 0 0 0 0 0 0 127 0" result="hardAlpha"/>
<feOffset dy="4"/>
<feGaussianBlur stdDeviation="2"/>
<feComposite in2="hardAlpha" operator="out"/>
<feColorMatrix type="matrix" values="0 0 0 0 0 0 0 0 0 0 0 0 0 0 0 0 0 0 0.25 0"/>
<feBlend mode="normal" in2="BackgroundImageFix" result="effect1_dropShadow_1595_21743"/>
<feBlend mode="normal" in="SourceGraphic" in2="effect1_dropShadow_1595_21743" result="shape"/>
</filter>
<filter id="filter12_d_1595_21743" x="340.904" y="325" width="266.959" height="58.5755" filterUnits="userSpaceOnUse" color-interpolation-filters="sRGB">
<feFlood flood-opacity="0" result="BackgroundImageFix"/>
<feColorMatrix in="SourceAlpha" type="matrix" values="0 0 0 0 0 0 0 0 0 0 0 0 0 0 0 0 0 0 127 0" result="hardAlpha"/>
<feOffset dy="5.09591"/>
<feGaussianBlur stdDeviation="2.54796"/>
<feComposite in2="hardAlpha" operator="out"/>
<feColorMatrix type="matrix" values="0 0 0 0 0 0 0 0 0 0 0 0 0 0 0 0 0 0 0.25 0"/>
<feBlend mode="normal" in2="BackgroundImageFix" result="effect1_dropShadow_1595_21743"/>
<feBlend mode="normal" in="SourceGraphic" in2="effect1_dropShadow_1595_21743" result="shape"/>
</filter>
<clipPath id="clip0_1595_21743">
<rect width="40" height="40" fill="white" transform="translate(113.5 222.5)"/>
</clipPath>
<clipPath id="clip1_1595_21743">
<rect width="40" height="40" fill="white" transform="translate(803.5 92)"/>
</clipPath>
</defs>
</svg>
