<svg width="540" height="355" viewBox="0 0 540 355" fill="none" xmlns="http://www.w3.org/2000/svg">
<g filter="url(#filter0_d_1653_25551)">
<rect x="4.0874" y="162.85" width="98.2" height="29.6" rx="14.8" fill="#E2F0FF" shape-rendering="crispEdges"/>
<path d="M21.2991 182.339C20.3961 182.339 19.6296 182.139 18.9996 181.74C18.3696 181.341 17.8887 180.787 17.5569 180.077C17.2293 179.367 17.0655 178.546 17.0655 177.614C17.0655 176.682 17.2293 175.86 17.5569 175.151C17.8887 174.441 18.3696 173.886 18.9996 173.487C19.6296 173.088 20.3961 172.889 21.2991 172.889C22.3491 172.889 23.2122 173.156 23.8884 173.689C24.5688 174.222 25.0371 174.941 25.2933 175.844L24.153 176.146C23.9682 175.47 23.6385 174.936 23.1639 174.546C22.6893 174.155 22.0677 173.96 21.2991 173.96C20.6229 173.96 20.0601 174.113 19.6107 174.42C19.1613 174.726 18.8232 175.155 18.5964 175.705C18.3696 176.251 18.2541 176.887 18.2499 177.614C18.2457 178.336 18.357 178.973 18.5838 179.523C18.8106 180.069 19.1508 180.497 19.6044 180.808C20.058 181.115 20.6229 181.268 21.2991 181.268C22.0677 181.268 22.6893 181.073 23.1639 180.682C23.6385 180.287 23.9682 179.754 24.153 179.082L25.2933 179.384C25.0371 180.283 24.5688 181.001 23.8884 181.539C23.2122 182.072 22.3491 182.339 21.2991 182.339ZM31.5197 182.15V178.742C31.5197 178.418 31.4903 178.107 31.4315 177.809C31.3769 177.511 31.2782 177.244 31.1354 177.009C30.9968 176.77 30.8078 176.581 30.5684 176.442C30.3332 176.304 30.035 176.234 29.6738 176.234C29.3924 176.234 29.1362 176.283 28.9052 176.379C28.6784 176.472 28.4831 176.614 28.3193 176.808C28.1555 177.001 28.0274 177.244 27.935 177.538C27.8468 177.828 27.8027 178.17 27.8027 178.565L27.0656 178.338C27.0656 177.679 27.1832 177.114 27.4184 176.644C27.6578 176.169 27.9917 175.806 28.4201 175.554C28.8527 175.298 29.3609 175.17 29.9447 175.17C30.3857 175.17 30.7616 175.239 31.0724 175.377C31.3832 175.516 31.6415 175.701 31.8473 175.932C32.0531 176.159 32.2148 176.415 32.3324 176.7C32.45 176.982 32.5319 177.27 32.5781 177.564C32.6285 177.853 32.6537 178.128 32.6537 178.389V182.15H31.5197ZM26.6687 182.15V173.078H27.6767V178.086H27.8027V182.15H26.6687ZM36.2257 182.339C35.7175 182.339 35.2912 182.247 34.9468 182.062C34.6066 181.873 34.3483 181.625 34.1719 181.318C33.9997 181.012 33.9136 180.676 33.9136 180.31C33.9136 179.953 33.9808 179.645 34.1152 179.384C34.2538 179.12 34.447 178.901 34.6948 178.729C34.9426 178.553 35.2387 178.414 35.5831 178.313C35.9065 178.225 36.2677 178.149 36.6667 178.086C37.0699 178.019 37.4773 177.958 37.8889 177.904C38.3005 177.849 38.6848 177.797 39.0418 177.746L38.6386 177.979C38.6512 177.375 38.5294 176.927 38.2732 176.637C38.0212 176.348 37.5844 176.203 36.9628 176.203C36.5512 176.203 36.19 176.297 35.8792 176.486C35.5726 176.671 35.3563 176.973 35.2303 177.393L34.1656 177.072C34.3294 176.476 34.6465 176.007 35.1169 175.667C35.5873 175.327 36.2068 175.157 36.9754 175.157C37.5928 175.157 38.122 175.268 38.563 175.491C39.0082 175.709 39.3274 176.041 39.5206 176.486C39.6172 176.696 39.6781 176.925 39.7033 177.173C39.7285 177.417 39.7411 177.673 39.7411 177.942V182.15H38.7457V180.518L38.9788 180.669C38.7226 181.22 38.3635 181.635 37.9015 181.917C37.4437 182.198 36.8851 182.339 36.2257 182.339ZM36.3958 181.4C36.799 181.4 37.1476 181.329 37.4416 181.186C37.7398 181.039 37.9792 180.848 38.1598 180.613C38.3404 180.373 38.458 180.113 38.5126 179.832C38.5756 179.622 38.6092 179.388 38.6134 179.132C38.6218 178.872 38.626 178.672 38.626 178.534L39.0166 178.704C38.6512 178.754 38.2921 178.803 37.9393 178.849C37.5865 178.895 37.2526 178.945 36.9376 179C36.6226 179.05 36.3391 179.111 36.0871 179.183C35.9023 179.241 35.728 179.317 35.5642 179.409C35.4046 179.502 35.2744 179.622 35.1736 179.769C35.077 179.911 35.0287 180.09 35.0287 180.304C35.0287 180.489 35.0749 180.665 35.1673 180.833C35.2639 181.001 35.4109 181.138 35.6083 181.243C35.8099 181.348 36.0724 181.4 36.3958 181.4ZM45.178 182.15C44.7748 182.23 44.3758 182.261 43.981 182.244C43.5904 182.232 43.2418 182.154 42.9352 182.011C42.6286 181.864 42.3955 181.638 42.2359 181.331C42.1015 181.062 42.028 180.791 42.0154 180.518C42.007 180.241 42.0028 179.928 42.0028 179.58V173.456H43.1242V179.529C43.1242 179.806 43.1263 180.044 43.1305 180.241C43.1389 180.438 43.183 180.609 43.2628 180.751C43.414 181.02 43.6534 181.178 43.981 181.224C44.3128 181.27 44.7118 181.257 45.178 181.186V182.15ZM40.6231 176.272V175.346H45.178V176.272H40.6231ZM50.5308 182.15L48.4518 175.34L49.5669 175.346L51.0852 180.323L52.6161 175.346H53.6052L55.1298 180.323L56.6544 175.346H57.7632L55.6842 182.15H54.7518L53.1075 176.978L51.4632 182.15H50.5308ZM59.0269 174.143V172.983H60.1483V174.143H59.0269ZM59.0269 182.15V175.346H60.1483V182.15H59.0269ZM64.7098 182.339C64.0756 182.339 63.5317 182.181 63.0781 181.866C62.6245 181.547 62.2738 181.117 62.026 180.575C61.7824 180.033 61.6606 179.422 61.6606 178.742C61.6606 178.061 61.7824 177.45 62.026 176.908C62.2738 176.367 62.6245 175.94 63.0781 175.629C63.5317 175.314 64.0735 175.157 64.7035 175.157C65.3461 175.157 65.8858 175.312 66.3226 175.623C66.7594 175.934 67.0891 176.36 67.3117 176.902C67.5385 177.444 67.6519 178.057 67.6519 178.742C67.6519 179.418 67.5385 180.029 67.3117 180.575C67.0891 181.117 66.7594 181.547 66.3226 181.866C65.8858 182.181 65.3482 182.339 64.7098 182.339ZM64.8484 181.312C65.3062 181.312 65.6821 181.203 65.9761 180.984C66.2701 180.762 66.4864 180.457 66.625 180.071C66.7678 179.68 66.8392 179.237 66.8392 178.742C66.8392 178.238 66.7678 177.795 66.625 177.412C66.4864 177.026 66.2722 176.726 65.9824 176.511C65.6926 176.293 65.3251 176.184 64.8799 176.184C64.4179 176.184 64.0357 176.297 63.7333 176.524C63.4351 176.751 63.2125 177.057 63.0655 177.444C62.9227 177.83 62.8513 178.263 62.8513 178.742C62.8513 179.225 62.9248 179.661 63.0718 180.052C63.2188 180.438 63.4393 180.745 63.7333 180.972C64.0315 181.199 64.4032 181.312 64.8484 181.312ZM66.8392 182.15V177.141H66.7132V173.078H67.8409V182.15H66.8392ZM72.3591 185.363C72.0021 185.363 71.6535 185.308 71.3133 185.199C70.9731 185.09 70.6602 184.924 70.3746 184.701C70.0932 184.483 69.858 184.206 69.669 183.87L70.6959 183.328C70.8639 183.66 71.1012 183.901 71.4078 184.053C71.7186 184.204 72.0378 184.279 72.3654 184.279C72.798 184.279 73.1571 184.2 73.4427 184.04C73.7283 183.885 73.9383 183.651 74.0727 183.341C74.2113 183.03 74.2785 182.643 74.2743 182.181V180.323H74.4066V175.346H75.402V182.194C75.402 182.379 75.3957 182.557 75.3831 182.73C75.3747 182.902 75.3537 183.072 75.3201 183.24C75.2319 183.723 75.0576 184.12 74.7972 184.431C74.5368 184.746 74.2008 184.979 73.7892 185.13C73.3776 185.285 72.9009 185.363 72.3591 185.363ZM72.2772 182.339C71.643 182.339 71.0991 182.181 70.6455 181.866C70.1919 181.547 69.8412 181.117 69.5934 180.575C69.3498 180.033 69.228 179.422 69.228 178.742C69.228 178.061 69.3498 177.45 69.5934 176.908C69.8412 176.367 70.1919 175.94 70.6455 175.629C71.0991 175.314 71.6409 175.157 72.2709 175.157C72.9135 175.157 73.4532 175.312 73.89 175.623C74.3268 175.934 74.6565 176.36 74.8791 176.902C75.1059 177.444 75.2193 178.057 75.2193 178.742C75.2193 179.418 75.1059 180.029 74.8791 180.575C74.6565 181.117 74.3268 181.547 73.89 181.866C73.4532 182.181 72.9156 182.339 72.2772 182.339ZM72.4158 181.312C72.8736 181.312 73.2495 181.203 73.5435 180.984C73.8375 180.762 74.0538 180.457 74.1924 180.071C74.3352 179.68 74.4066 179.237 74.4066 178.742C74.4066 178.238 74.3352 177.795 74.1924 177.412C74.0538 177.026 73.8396 176.726 73.5498 176.511C73.26 176.293 72.8925 176.184 72.4473 176.184C71.9853 176.184 71.6031 176.297 71.3007 176.524C71.0025 176.751 70.7799 177.057 70.6329 177.444C70.4901 177.83 70.4187 178.263 70.4187 178.742C70.4187 179.225 70.4922 179.661 70.6392 180.052C70.7862 180.438 71.0067 180.745 71.3007 180.972C71.5989 181.199 71.9706 181.312 72.4158 181.312ZM80.1095 182.339C79.4417 182.339 78.8579 182.192 78.3581 181.898C77.8625 181.6 77.4761 181.186 77.1989 180.657C76.9217 180.123 76.7831 179.502 76.7831 178.792C76.7831 178.049 76.9196 177.406 77.1926 176.864C77.4656 176.318 77.8457 175.898 78.3329 175.604C78.8243 175.306 79.3997 175.157 80.0591 175.157C80.7437 175.157 81.3254 175.314 81.8042 175.629C82.2872 175.944 82.6484 176.394 82.8878 176.978C83.1314 177.561 83.2364 178.257 83.2028 179.063H82.0688V178.66C82.0562 177.824 81.8861 177.2 81.5585 176.789C81.2309 176.373 80.7437 176.165 80.0969 176.165C79.4039 176.165 78.8768 176.388 78.5156 176.833C78.1544 177.278 77.9738 177.916 77.9738 178.748C77.9738 179.55 78.1544 180.172 78.5156 180.613C78.8768 181.054 79.3913 181.274 80.0591 181.274C80.5085 181.274 80.8991 181.171 81.2309 180.966C81.5627 180.76 81.8231 180.464 82.0121 180.077L83.0894 180.449C82.8248 181.05 82.4258 181.516 81.8924 181.848C81.3632 182.175 80.7689 182.339 80.1095 182.339ZM77.5958 179.063V178.162H82.6232V179.063H77.5958ZM88.4043 182.15C88.0011 182.23 87.6021 182.261 87.2073 182.244C86.8167 182.232 86.4681 182.154 86.1615 182.011C85.8549 181.864 85.6218 181.638 85.4622 181.331C85.3278 181.062 85.2543 180.791 85.2417 180.518C85.2333 180.241 85.2291 179.928 85.2291 179.58V173.456H86.3505V179.529C86.3505 179.806 86.3526 180.044 86.3568 180.241C86.3652 180.438 86.4093 180.609 86.4891 180.751C86.6403 181.02 86.8797 181.178 87.2073 181.224C87.5391 181.27 87.9381 181.257 88.4043 181.186V182.15ZM83.8494 176.272V175.346H88.4043V176.272H83.8494Z" fill="#212528"/>
</g>
<g filter="url(#filter1_d_1653_25551)">
<rect x="23.6562" y="198.75" width="59.0625" height="59.0625" rx="7.875" fill="#E2F0FF"/>
<g clip-path="url(#clip0_1653_25551)">
<path d="M57.5935 220.219V229.406H44.6916L43.9173 230.181L43.156 230.942V220.219H57.5935ZM58.906 217.594H41.8435C41.1216 217.594 40.531 218.184 40.531 218.906V237.281L45.781 232.031H58.906C59.6279 232.031 60.2185 231.441 60.2185 230.719V218.906C60.2185 218.184 59.6279 217.594 58.906 217.594ZM65.4685 222.844H62.8435V234.656H45.781V237.281C45.781 238.003 46.3716 238.594 47.0935 238.594H61.531L66.781 243.844V224.156C66.781 223.434 66.1904 222.844 65.4685 222.844Z" fill="#1157A6"/>
</g>
</g>
<g filter="url(#filter2_d_1653_25551)">
<rect x="132.331" y="58.275" width="59.0625" height="59.0625" rx="7.875" fill="#F9EAE5"/>
<path d="M149.206 81.9C149.206 80.3467 150.381 79.0875 151.831 79.0875H172.831C174.281 79.0875 175.456 80.3467 175.456 81.9V95.9625C175.456 97.5158 174.281 98.775 172.831 98.775H151.831C150.381 98.775 149.206 97.5158 149.206 95.9625V81.9Z" fill="#8C2E0E"/>
<path d="M149.206 80.5957C149.206 79.0378 150.296 77.7748 151.64 77.7748H173.023C174.367 77.7748 175.456 79.0378 175.456 80.5957C175.456 81.6642 174.935 82.641 174.111 83.1188L163.505 89.266C162.766 89.6944 161.896 89.6944 161.157 89.266L150.551 83.1188C149.727 82.641 149.206 81.6642 149.206 80.5957Z" fill="#CC5229"/>
</g>
<g filter="url(#filter3_d_1653_25551)">
<rect x="133.262" y="123.637" width="57.2" height="29.6" rx="14.8" fill="#F9EAE5" shape-rendering="crispEdges"/>
<path d="M146.745 142.937V133.865H152.478V134.93H147.866V137.771H151.722V138.836H147.866V141.873H152.478V142.937H146.745ZM162.125 142.937L162.132 138.584C162.132 138.076 161.995 137.679 161.722 137.393C161.453 137.104 161.103 136.959 160.67 136.959C160.418 136.959 160.179 137.017 159.952 137.135C159.725 137.248 159.54 137.429 159.397 137.677C159.255 137.92 159.183 138.233 159.183 138.616L158.591 138.376C158.583 137.893 158.681 137.471 158.887 137.11C159.097 136.744 159.383 136.461 159.744 136.259C160.105 136.058 160.513 135.957 160.966 135.957C161.676 135.957 162.235 136.173 162.642 136.606C163.049 137.034 163.253 137.612 163.253 138.338L163.247 142.937H162.125ZM153.986 142.937V136.133H154.987V137.954H155.113V142.937H153.986ZM158.062 142.937L158.068 138.628C158.068 138.107 157.934 137.7 157.665 137.406C157.396 137.108 157.039 136.959 156.594 136.959C156.153 136.959 155.796 137.11 155.523 137.412C155.25 137.715 155.113 138.116 155.113 138.616L154.521 138.263C154.521 137.822 154.626 137.427 154.836 137.078C155.046 136.73 155.332 136.457 155.693 136.259C156.054 136.058 156.464 135.957 156.922 135.957C157.379 135.957 157.778 136.054 158.119 136.247C158.459 136.44 158.721 136.717 158.906 137.078C159.091 137.435 159.183 137.862 159.183 138.357L159.177 142.937H158.062ZM166.828 143.126C166.32 143.126 165.894 143.034 165.549 142.849C165.209 142.66 164.951 142.412 164.774 142.106C164.602 141.799 164.516 141.463 164.516 141.098C164.516 140.741 164.583 140.432 164.718 140.172C164.856 139.907 165.049 139.689 165.297 139.516C165.545 139.34 165.841 139.201 166.185 139.101C166.509 139.012 166.87 138.937 167.269 138.874C167.672 138.807 168.08 138.746 168.491 138.691C168.903 138.637 169.287 138.584 169.644 138.534L169.241 138.767C169.254 138.162 169.132 137.715 168.876 137.425C168.624 137.135 168.187 136.99 167.565 136.99C167.154 136.99 166.792 137.085 166.482 137.274C166.175 137.458 165.959 137.761 165.833 138.181L164.768 137.86C164.932 137.263 165.249 136.795 165.719 136.455C166.19 136.114 166.809 135.944 167.578 135.944C168.195 135.944 168.724 136.056 169.165 136.278C169.611 136.497 169.93 136.828 170.123 137.274C170.22 137.484 170.28 137.713 170.306 137.96C170.331 138.204 170.343 138.46 170.343 138.729V142.937H169.348V141.306L169.581 141.457C169.325 142.007 168.966 142.423 168.504 142.704C168.046 142.986 167.487 143.126 166.828 143.126ZM166.998 142.188C167.401 142.188 167.75 142.116 168.044 141.973C168.342 141.826 168.582 141.635 168.762 141.4C168.943 141.161 169.06 140.9 169.115 140.619C169.178 140.409 169.212 140.176 169.216 139.92C169.224 139.659 169.228 139.46 169.228 139.321L169.619 139.491C169.254 139.542 168.894 139.59 168.542 139.636C168.189 139.682 167.855 139.733 167.54 139.787C167.225 139.838 166.941 139.899 166.689 139.97C166.505 140.029 166.33 140.104 166.167 140.197C166.007 140.289 165.877 140.409 165.776 140.556C165.679 140.699 165.631 140.877 165.631 141.091C165.631 141.276 165.677 141.453 165.77 141.621C165.866 141.789 166.013 141.925 166.211 142.03C166.412 142.135 166.675 142.188 166.998 142.188ZM172.107 134.93V133.771H173.229V134.93H172.107ZM172.107 142.937V136.133H173.229V142.937H172.107ZM175.245 142.937V133.676H176.367V142.937H175.245Z" fill="#212528"/>
</g>
<g filter="url(#filter4_d_1653_25551)">
<rect x="226.938" y="162.85" width="87.2" height="29.6" rx="14.8" fill="#E8F7E8" shape-rendering="crispEdges"/>
<path d="M242.354 182.15L239.727 173.078H240.898L242.914 180.254L244.924 173.084L246.102 173.078L248.118 180.254L250.128 173.078H251.306L248.679 182.15H247.557L245.516 175.037L243.475 182.15H242.354ZM257.224 182.15V178.742C257.224 178.418 257.195 178.108 257.136 177.809C257.082 177.511 256.983 177.244 256.84 177.009C256.702 176.77 256.513 176.581 256.273 176.442C256.038 176.304 255.74 176.234 255.379 176.234C255.097 176.234 254.841 176.283 254.61 176.379C254.383 176.472 254.188 176.614 254.024 176.808C253.86 177.001 253.732 177.244 253.64 177.538C253.552 177.828 253.507 178.171 253.507 178.565L252.77 178.339C252.77 177.679 252.888 177.114 253.123 176.644C253.363 176.169 253.696 175.806 254.125 175.554C254.557 175.298 255.066 175.17 255.649 175.17C256.09 175.17 256.466 175.239 256.777 175.378C257.088 175.516 257.346 175.701 257.552 175.932C257.758 176.159 257.92 176.415 258.037 176.701C258.155 176.982 258.237 177.27 258.283 177.564C258.333 177.853 258.358 178.129 258.358 178.389V182.15H257.224ZM252.373 182.15V173.078H253.381V178.087H253.507V182.15H252.373ZM261.93 182.339C261.422 182.339 260.996 182.247 260.652 182.062C260.311 181.873 260.053 181.625 259.877 181.318C259.704 181.012 259.618 180.676 259.618 180.31C259.618 179.953 259.686 179.645 259.82 179.384C259.959 179.12 260.152 178.901 260.4 178.729C260.647 178.553 260.943 178.414 261.288 178.313C261.611 178.225 261.972 178.15 262.371 178.087C262.775 178.019 263.182 177.958 263.594 177.904C264.005 177.849 264.39 177.797 264.747 177.746L264.343 177.979C264.356 177.375 264.234 176.927 263.978 176.638C263.726 176.348 263.289 176.203 262.668 176.203C262.256 176.203 261.895 176.297 261.584 176.486C261.277 176.671 261.061 176.974 260.935 177.394L259.87 177.072C260.034 176.476 260.351 176.008 260.822 175.667C261.292 175.327 261.912 175.157 262.68 175.157C263.298 175.157 263.827 175.268 264.268 175.491C264.713 175.709 265.032 176.041 265.225 176.486C265.322 176.696 265.383 176.925 265.408 177.173C265.433 177.417 265.446 177.673 265.446 177.942V182.15H264.45V180.518L264.684 180.67C264.427 181.22 264.068 181.636 263.606 181.917C263.148 182.198 262.59 182.339 261.93 182.339ZM262.101 181.4C262.504 181.4 262.852 181.329 263.146 181.186C263.445 181.039 263.684 180.848 263.865 180.613C264.045 180.373 264.163 180.113 264.217 179.832C264.28 179.622 264.314 179.389 264.318 179.132C264.327 178.872 264.331 178.672 264.331 178.534L264.721 178.704C264.356 178.754 263.997 178.803 263.644 178.849C263.291 178.895 262.957 178.945 262.642 179C262.327 179.05 262.044 179.111 261.792 179.183C261.607 179.242 261.433 179.317 261.269 179.41C261.109 179.502 260.979 179.622 260.878 179.769C260.782 179.911 260.733 180.09 260.733 180.304C260.733 180.489 260.78 180.665 260.872 180.833C260.969 181.001 261.116 181.138 261.313 181.243C261.515 181.348 261.777 181.4 262.101 181.4ZM270.883 182.15C270.48 182.23 270.081 182.261 269.686 182.245C269.295 182.232 268.947 182.154 268.64 182.011C268.333 181.864 268.1 181.638 267.941 181.331C267.806 181.062 267.733 180.791 267.72 180.518C267.712 180.241 267.708 179.928 267.708 179.58V173.456H268.829V179.529C268.829 179.806 268.831 180.044 268.835 180.241C268.844 180.439 268.888 180.609 268.968 180.751C269.119 181.02 269.358 181.178 269.686 181.224C270.018 181.27 270.417 181.258 270.883 181.186V182.15ZM266.328 176.272V175.346H270.883V176.272H266.328ZM274.835 182.333C274.024 182.333 273.358 182.156 272.837 181.804C272.321 181.447 272.004 180.949 271.886 180.31L273.033 180.128C273.125 180.497 273.337 180.791 273.669 181.01C274.001 181.224 274.412 181.331 274.904 181.331C275.37 181.331 275.735 181.234 276 181.041C276.265 180.848 276.397 180.586 276.397 180.254C276.397 180.061 276.353 179.905 276.265 179.788C276.176 179.666 275.994 179.552 275.717 179.447C275.444 179.342 275.03 179.216 274.475 179.069C273.875 178.91 273.402 178.744 273.058 178.572C272.714 178.399 272.468 178.2 272.321 177.973C272.174 177.746 272.1 177.471 272.1 177.148C272.1 176.749 272.21 176.4 272.428 176.102C272.646 175.8 272.951 175.567 273.341 175.403C273.736 175.239 274.194 175.157 274.715 175.157C275.231 175.157 275.693 175.239 276.101 175.403C276.508 175.567 276.836 175.8 277.084 176.102C277.336 176.4 277.485 176.749 277.531 177.148L276.384 177.356C276.33 176.99 276.153 176.703 275.855 176.493C275.561 176.283 275.181 176.171 274.715 176.159C274.274 176.142 273.915 176.22 273.638 176.392C273.365 176.564 273.228 176.797 273.228 177.091C273.228 177.255 273.278 177.396 273.379 177.513C273.484 177.631 273.675 177.742 273.953 177.847C274.234 177.952 274.641 178.072 275.175 178.206C275.775 178.357 276.248 178.523 276.592 178.704C276.941 178.88 277.189 179.09 277.336 179.334C277.483 179.573 277.556 179.869 277.556 180.222C277.556 180.877 277.315 181.394 276.832 181.772C276.349 182.146 275.683 182.333 274.835 182.333ZM278.316 182.15L281.352 173.078H282.915L285.951 182.15H284.786L281.944 173.733H282.297L279.481 182.15H278.316ZM279.777 180.027V178.975H284.49V180.027H279.777ZM290.204 182.339C289.565 182.339 289.028 182.182 288.591 181.867C288.154 181.547 287.822 181.117 287.596 180.575C287.373 180.029 287.262 179.418 287.262 178.742C287.262 178.057 287.373 177.444 287.596 176.902C287.822 176.36 288.154 175.934 288.591 175.623C289.032 175.312 289.572 175.157 290.21 175.157C290.84 175.157 291.382 175.315 291.835 175.63C292.293 175.94 292.644 176.367 292.888 176.908C293.131 177.45 293.253 178.061 293.253 178.742C293.253 179.422 293.131 180.033 292.888 180.575C292.644 181.117 292.293 181.547 291.835 181.867C291.382 182.182 290.838 182.339 290.204 182.339ZM287.073 185.174V175.346H288.074V180.355H288.2V185.174H287.073ZM290.065 181.312C290.515 181.312 290.886 181.199 291.18 180.972C291.474 180.745 291.695 180.439 291.842 180.052C291.989 179.662 292.062 179.225 292.062 178.742C292.062 178.263 291.989 177.83 291.842 177.444C291.699 177.058 291.476 176.751 291.174 176.524C290.876 176.297 290.496 176.184 290.034 176.184C289.593 176.184 289.227 176.293 288.937 176.512C288.648 176.726 288.431 177.026 288.289 177.412C288.146 177.795 288.074 178.238 288.074 178.742C288.074 179.237 288.144 179.68 288.282 180.071C288.425 180.457 288.643 180.762 288.937 180.985C289.231 181.203 289.607 181.312 290.065 181.312ZM297.759 182.339C297.12 182.339 296.583 182.182 296.146 181.867C295.709 181.547 295.377 181.117 295.151 180.575C294.928 180.029 294.817 179.418 294.817 178.742C294.817 178.057 294.928 177.444 295.151 176.902C295.377 176.36 295.709 175.934 296.146 175.623C296.587 175.312 297.127 175.157 297.765 175.157C298.395 175.157 298.937 175.315 299.391 175.63C299.848 175.94 300.199 176.367 300.443 176.908C300.686 177.45 300.808 178.061 300.808 178.742C300.808 179.422 300.686 180.033 300.443 180.575C300.199 181.117 299.848 181.547 299.391 181.867C298.937 182.182 298.393 182.339 297.759 182.339ZM294.628 185.174V175.346H295.629V180.355H295.755V185.174H294.628ZM297.62 181.312C298.07 181.312 298.441 181.199 298.735 180.972C299.029 180.745 299.25 180.439 299.397 180.052C299.544 179.662 299.617 179.225 299.617 178.742C299.617 178.263 299.544 177.83 299.397 177.444C299.254 177.058 299.031 176.751 298.729 176.524C298.431 176.297 298.051 176.184 297.589 176.184C297.148 176.184 296.782 176.293 296.493 176.512C296.203 176.726 295.986 177.026 295.844 177.412C295.701 177.795 295.629 178.238 295.629 178.742C295.629 179.237 295.699 179.68 295.837 180.071C295.98 180.457 296.199 180.762 296.493 180.985C296.787 181.203 297.162 181.312 297.62 181.312Z" fill="#212528"/>
</g>
<g filter="url(#filter5_d_1653_25551)">
<rect x="241.006" y="198.75" width="59.0625" height="59.0625" rx="7.875" fill="#E8F7E8"/>
<path fill-rule="evenodd" clip-rule="evenodd" d="M267.848 223.465C267.612 222.939 267.363 222.929 267.138 222.919C266.954 222.912 266.744 222.912 266.533 222.912C266.323 222.912 265.981 222.991 265.692 223.307C265.402 223.623 264.587 224.386 264.587 225.939C264.587 227.492 265.718 228.992 265.876 229.203C266.033 229.414 268.059 232.702 271.267 233.967C273.933 235.019 274.476 234.809 275.055 234.757C275.633 234.704 276.922 233.994 277.185 233.257C277.448 232.52 277.448 231.888 277.369 231.756C277.29 231.624 277.08 231.546 276.764 231.388C276.448 231.23 274.897 230.466 274.607 230.361C274.318 230.256 274.108 230.203 273.897 230.519C273.687 230.835 273.082 231.546 272.898 231.756C272.714 231.967 272.53 231.993 272.214 231.835C271.898 231.677 270.882 231.344 269.676 230.269C268.738 229.433 268.104 228.399 267.92 228.084C267.736 227.768 267.9 227.597 268.059 227.44C268.2 227.298 268.374 227.071 268.532 226.887C268.69 226.702 268.742 226.571 268.847 226.361C268.953 226.15 268.9 225.965 268.821 225.808C268.742 225.65 268.129 224.089 267.848 223.465Z" fill="#29A653"/>
<path fill-rule="evenodd" clip-rule="evenodd" d="M261.294 238.607L262.37 234.723C261.195 233.028 260.507 230.969 260.507 228.75C260.507 222.951 265.208 218.25 271.007 218.25C276.806 218.25 281.507 222.951 281.507 228.75C281.507 234.549 276.806 239.25 271.007 239.25C268.896 239.25 266.93 238.627 265.284 237.555L261.294 238.607ZM264.901 240.37L257.544 242.311L259.534 235.129C258.482 233.239 257.882 231.062 257.882 228.75C257.882 221.501 263.758 215.625 271.007 215.625C278.256 215.625 284.132 221.501 284.132 228.75C284.132 235.999 278.256 241.875 271.007 241.875C268.806 241.875 266.726 241.331 264.901 240.37Z" fill="#29A653"/>
</g>
<g filter="url(#filter6_d_1653_25551)">
<rect x="349.681" y="58.275" width="59.0625" height="59.0625" rx="7.875" fill="#E2F0FF"/>
<path d="M366.557 80.3999C366.557 78.2253 368.32 76.4624 370.494 76.4624H388.869C391.044 76.4624 392.807 78.2253 392.807 80.3999V90.8999C392.807 93.0745 391.044 94.8374 388.869 94.8374H366.557V80.3999Z" fill="#0D4680"/>
<path d="M366.557 80.3999C366.557 78.2253 368.32 76.4624 370.494 76.4624H389.007C389.35 76.4624 389.692 76.5178 390.018 76.6265L366.557 100.087V80.3999Z" fill="#66BDFF"/>
</g>
<g filter="url(#filter7_d_1653_25551)">
<rect x="353.112" y="123.637" width="52.2" height="29.6" rx="14.8" fill="#E2F0FF" shape-rendering="crispEdges"/>
<path d="M369.814 143.126C369.171 143.126 368.592 143.017 368.075 142.799C367.563 142.58 367.138 142.27 366.802 141.866C366.471 141.459 366.254 140.978 366.153 140.424L367.313 140.241C367.46 140.812 367.764 141.259 368.226 141.583C368.692 141.902 369.24 142.062 369.87 142.062C370.278 142.062 370.645 141.999 370.973 141.873C371.305 141.742 371.567 141.558 371.76 141.318C371.954 141.079 372.05 140.795 372.05 140.468C372.05 140.266 372.015 140.094 371.943 139.951C371.876 139.804 371.781 139.68 371.66 139.579C371.542 139.474 371.408 139.386 371.256 139.315C371.105 139.243 370.948 139.185 370.784 139.138L368.472 138.452C368.22 138.376 367.976 138.282 367.741 138.168C367.506 138.051 367.296 137.906 367.111 137.734C366.926 137.557 366.779 137.347 366.67 137.104C366.561 136.856 366.506 136.564 366.506 136.228C366.506 135.69 366.645 135.232 366.922 134.854C367.203 134.472 367.584 134.18 368.062 133.979C368.541 133.777 369.081 133.678 369.681 133.683C370.29 133.687 370.834 133.796 371.313 134.01C371.796 134.22 372.195 134.523 372.51 134.917C372.829 135.312 373.044 135.785 373.153 136.335L371.962 136.543C371.899 136.173 371.758 135.856 371.54 135.592C371.326 135.323 371.057 135.117 370.734 134.974C370.41 134.827 370.055 134.752 369.669 134.747C369.299 134.743 368.965 134.802 368.667 134.924C368.369 135.046 368.132 135.216 367.955 135.434C367.779 135.648 367.691 135.896 367.691 136.177C367.691 136.455 367.77 136.679 367.93 136.852C368.09 137.02 368.285 137.154 368.516 137.255C368.751 137.351 368.98 137.431 369.203 137.494L370.929 137.992C371.126 138.046 371.353 138.122 371.609 138.219C371.87 138.315 372.122 138.452 372.365 138.628C372.609 138.8 372.81 139.031 372.97 139.321C373.13 139.607 373.209 139.968 373.209 140.405C373.209 140.842 373.121 141.23 372.945 141.57C372.773 141.91 372.531 142.196 372.22 142.427C371.91 142.654 371.548 142.826 371.137 142.944C370.725 143.065 370.284 143.126 369.814 143.126ZM374.531 142.937V133.865H375.552L378.979 141.091L382.387 133.865H383.42V142.931H382.356V136.329L379.275 142.937H378.676L375.596 136.329V142.937H374.531ZM388.406 143.126C387.763 143.126 387.184 143.017 386.667 142.799C386.155 142.58 385.731 142.27 385.395 141.866C385.063 141.459 384.847 140.978 384.746 140.424L385.905 140.241C386.052 140.812 386.356 141.259 386.818 141.583C387.285 141.902 387.833 142.062 388.463 142.062C388.87 142.062 389.238 141.999 389.565 141.873C389.897 141.742 390.16 141.558 390.353 141.318C390.546 141.079 390.643 140.795 390.643 140.468C390.643 140.266 390.607 140.094 390.535 139.951C390.468 139.804 390.374 139.68 390.252 139.579C390.134 139.474 390 139.386 389.849 139.315C389.698 139.243 389.54 139.185 389.376 139.138L387.064 138.452C386.812 138.376 386.569 138.282 386.333 138.168C386.098 138.051 385.888 137.906 385.703 137.734C385.519 137.557 385.372 137.347 385.262 137.104C385.153 136.856 385.099 136.564 385.099 136.228C385.099 135.69 385.237 135.232 385.514 134.854C385.796 134.472 386.176 134.18 386.655 133.979C387.133 133.777 387.673 133.678 388.274 133.683C388.883 133.687 389.427 133.796 389.905 134.01C390.388 134.22 390.787 134.523 391.102 134.917C391.422 135.312 391.636 135.785 391.745 136.335L390.554 136.543C390.491 136.173 390.351 135.856 390.132 135.592C389.918 135.323 389.649 135.117 389.326 134.974C389.002 134.827 388.648 134.752 388.261 134.747C387.892 134.743 387.558 134.802 387.259 134.924C386.961 135.046 386.724 135.216 386.548 135.434C386.371 135.648 386.283 135.896 386.283 136.177C386.283 136.455 386.363 136.679 386.522 136.852C386.682 137.02 386.877 137.154 387.108 137.255C387.343 137.351 387.572 137.431 387.795 137.494L389.521 137.992C389.719 138.046 389.945 138.122 390.202 138.219C390.462 138.315 390.714 138.452 390.958 138.628C391.201 138.8 391.403 139.031 391.562 139.321C391.722 139.607 391.802 139.968 391.802 140.405C391.802 140.842 391.714 141.23 391.537 141.57C391.365 141.91 391.123 142.196 390.813 142.427C390.502 142.654 390.141 142.826 389.729 142.944C389.317 143.065 388.876 143.126 388.406 143.126Z" fill="#212528"/>
</g>
<g filter="url(#filter8_d_1653_25551)">
<rect x="458.787" y="162.85" width="58.2" height="29.6" rx="14.8" fill="#EDEDFD" shape-rendering="crispEdges"/>
<path d="M474.487 182.15L471.45 173.078H472.616L475.255 180.959L477.92 173.078H479.086L476.049 182.15H474.487ZM482.181 182.339C481.505 182.339 480.921 182.186 480.429 181.879C479.942 181.573 479.566 181.148 479.302 180.607C479.037 180.065 478.905 179.443 478.905 178.742C478.905 178.028 479.039 177.402 479.308 176.864C479.577 176.327 479.957 175.909 480.448 175.611C480.94 175.308 481.517 175.157 482.181 175.157C482.861 175.157 483.447 175.31 483.939 175.617C484.43 175.919 484.806 176.341 485.066 176.883C485.331 177.421 485.463 178.04 485.463 178.742C485.463 179.452 485.331 180.077 485.066 180.619C484.802 181.157 484.424 181.579 483.932 181.885C483.441 182.188 482.857 182.339 482.181 182.339ZM482.181 181.274C482.886 181.274 483.411 181.039 483.756 180.569C484.1 180.098 484.272 179.489 484.272 178.742C484.272 177.973 484.098 177.362 483.75 176.908C483.401 176.451 482.878 176.222 482.181 176.222C481.706 176.222 481.316 176.329 481.009 176.543C480.702 176.757 480.474 177.053 480.322 177.431C480.171 177.809 480.096 178.246 480.096 178.742C480.096 179.506 480.272 180.119 480.625 180.581C480.978 181.043 481.496 181.274 482.181 181.274ZM486.976 174.143V172.984H488.098V174.143H486.976ZM486.976 182.15V175.346H488.098V182.15H486.976ZM492.854 182.339C492.166 182.339 491.58 182.186 491.097 181.879C490.618 181.568 490.253 181.142 490.001 180.6C489.749 180.058 489.618 179.441 489.61 178.748C489.618 178.038 489.751 177.415 490.007 176.877C490.267 176.335 490.639 175.913 491.122 175.611C491.605 175.308 492.187 175.157 492.867 175.157C493.585 175.157 494.203 175.333 494.719 175.686C495.24 176.039 495.589 176.522 495.765 177.135L494.656 177.469C494.513 177.074 494.28 176.768 493.957 176.549C493.638 176.331 493.27 176.222 492.854 176.222C492.388 176.222 492.004 176.331 491.702 176.549C491.399 176.764 491.174 177.062 491.027 177.444C490.88 177.822 490.805 178.257 490.801 178.748C490.809 179.504 490.983 180.115 491.324 180.581C491.668 181.043 492.178 181.274 492.854 181.274C493.3 181.274 493.669 181.174 493.963 180.972C494.257 180.766 494.48 180.47 494.631 180.084L495.765 180.38C495.53 181.014 495.162 181.499 494.663 181.835C494.163 182.171 493.56 182.339 492.854 182.339ZM499.815 182.339C499.147 182.339 498.563 182.192 498.063 181.898C497.568 181.6 497.181 181.186 496.904 180.657C496.627 180.124 496.488 179.502 496.488 178.792C496.488 178.049 496.625 177.406 496.898 176.864C497.171 176.318 497.551 175.898 498.038 175.604C498.529 175.306 499.105 175.157 499.764 175.157C500.449 175.157 501.031 175.315 501.509 175.63C501.992 175.945 502.354 176.394 502.593 176.978C502.837 177.562 502.942 178.257 502.908 179.063H501.774V178.66C501.761 177.824 501.591 177.2 501.264 176.789C500.936 176.373 500.449 176.165 499.802 176.165C499.109 176.165 498.582 176.388 498.221 176.833C497.86 177.278 497.679 177.916 497.679 178.748C497.679 179.55 497.86 180.172 498.221 180.613C498.582 181.054 499.096 181.274 499.764 181.274C500.214 181.274 500.604 181.171 500.936 180.966C501.268 180.76 501.528 180.464 501.717 180.077L502.795 180.449C502.53 181.05 502.131 181.516 501.598 181.848C501.068 182.175 500.474 182.339 499.815 182.339ZM497.301 179.063V178.162H502.328V179.063H497.301Z" fill="#212528"/>
</g>
<g filter="url(#filter9_d_1653_25551)">
<rect x="458.356" y="198.75" width="59.0625" height="59.0625" rx="7.875" fill="#EDEDFD"/>
<path d="M501.481 228.75C501.481 235.999 495.605 241.875 488.356 241.875C481.108 241.875 475.231 235.999 475.231 228.75C475.231 221.501 481.108 215.625 488.356 215.625C495.605 215.625 501.481 221.501 501.481 228.75Z" fill="#696BEF"/>
<path d="M501.481 228.75C501.481 235.999 495.605 241.875 488.356 241.875C481.108 241.875 475.231 235.999 475.231 228.75C475.231 221.501 481.108 215.625 488.356 215.625C495.605 215.625 501.481 221.501 501.481 228.75Z" fill="#696BEF"/>
<path d="M497.544 231.375C497.544 232.064 497.408 232.747 497.144 233.384C496.88 234.021 496.494 234.6 496.006 235.087C495.519 235.575 494.94 235.962 494.303 236.225C493.666 236.489 492.983 236.625 492.294 236.625L492.294 231.375H497.544Z" fill="white"/>
<path d="M491.985 226.393L490.715 217.06L484.419 222.187L488.356 228.627H490.034C491.227 228.627 492.146 227.575 491.985 226.393Z" fill="#3A3BA6"/>
<path d="M490.39 236.988L489.536 240.383L488.356 234.538H488.481C489.763 234.538 490.703 235.744 490.39 236.988Z" fill="#3A3BA6"/>
<path fill-rule="evenodd" clip-rule="evenodd" d="M488.356 234.537C485.095 234.537 482.45 231.893 482.45 228.631H489.538C490.19 228.631 490.719 228.107 490.719 227.454V217.055C489.956 216.9 489.166 216.818 488.356 216.818C481.833 216.818 476.544 222.107 476.544 228.631C476.544 235.155 481.833 240.443 488.356 240.443C488.755 240.443 489.149 240.423 489.538 240.385V235.718C489.538 235.066 489.009 234.537 488.356 234.537ZM488.357 222.725C488.357 223.377 487.828 223.906 487.176 223.906C486.523 223.906 485.995 223.377 485.995 222.725C485.995 222.072 486.523 221.543 487.176 221.543C487.828 221.543 488.357 222.072 488.357 222.725Z" fill="white"/>
</g>
<g filter="url(#filter10_d_1653_25551)">
<rect x="142" y="291" width="256.767" height="48.3836" rx="24.1918" fill="white" shape-rendering="crispEdges"/>
<path d="M163.81 323.192V308.516H165.461L171.006 320.206L176.52 308.516H178.191V323.182H176.469V312.501L171.485 323.192H170.517L165.533 312.501V323.192H163.81ZM185.228 323.477C184.521 323.477 183.913 323.365 183.403 323.141C182.9 322.917 182.483 322.618 182.15 322.244C181.817 321.87 181.555 321.456 181.365 321.001C181.175 320.545 181.039 320.08 180.957 319.604C180.882 319.129 180.845 318.684 180.845 318.269V312.185H182.68V317.698C182.68 318.215 182.727 318.714 182.822 319.197C182.917 319.679 183.077 320.114 183.301 320.501C183.532 320.888 183.838 321.194 184.219 321.418C184.606 321.643 185.088 321.755 185.666 321.755C186.121 321.755 186.536 321.677 186.909 321.52C187.283 321.364 187.602 321.133 187.867 320.827C188.132 320.515 188.336 320.121 188.479 319.645C188.621 319.169 188.693 318.616 188.693 317.984L189.885 318.351C189.885 319.411 189.692 320.325 189.304 321.092C188.924 321.86 188.384 322.451 187.684 322.866C186.991 323.273 186.172 323.477 185.228 323.477ZM188.897 323.192V320.246H188.693V312.185H190.517V323.192H188.897ZM193.575 323.192V308.21H195.389V323.192H193.575ZM204.592 323.192C203.94 323.321 203.295 323.372 202.656 323.345C202.024 323.324 201.46 323.199 200.964 322.968C200.468 322.73 200.091 322.363 199.833 321.867C199.615 321.432 199.496 320.994 199.476 320.552C199.462 320.104 199.456 319.598 199.456 319.034V309.127H201.27V318.952C201.27 319.4 201.273 319.784 201.28 320.104C201.294 320.423 201.365 320.698 201.494 320.929C201.739 321.364 202.126 321.619 202.656 321.694C203.193 321.768 203.838 321.748 204.592 321.632V323.192ZM197.224 313.683V312.185H204.592V313.683H197.224ZM207.031 310.238V308.363H208.845V310.238H207.031ZM207.031 323.192V312.185H208.845V323.192H207.031ZM211.699 317.515V316.017H217.814V317.515H211.699ZM225.1 323.498C223.986 323.498 223.038 323.25 222.256 322.754C221.482 322.251 220.891 321.561 220.483 320.685C220.075 319.808 219.865 318.809 219.851 317.688C219.865 316.54 220.079 315.531 220.493 314.661C220.914 313.785 221.516 313.102 222.297 312.613C223.079 312.124 224.02 311.879 225.12 311.879C226.282 311.879 227.281 312.164 228.117 312.735C228.959 313.306 229.523 314.087 229.809 315.079L228.015 315.619C227.784 314.981 227.407 314.485 226.883 314.131C226.367 313.778 225.773 313.601 225.1 313.601C224.346 313.601 223.724 313.778 223.235 314.131C222.746 314.478 222.382 314.96 222.144 315.579C221.906 316.19 221.784 316.893 221.777 317.688C221.791 318.911 222.073 319.9 222.623 320.654C223.18 321.401 224.006 321.775 225.1 321.775C225.82 321.775 226.418 321.612 226.894 321.286C227.369 320.953 227.729 320.474 227.974 319.849L229.809 320.328C229.428 321.354 228.833 322.139 228.025 322.682C227.216 323.226 226.241 323.498 225.1 323.498ZM239.726 323.192V317.678C239.726 317.155 239.679 316.652 239.583 316.17C239.495 315.687 239.335 315.256 239.104 314.875C238.88 314.488 238.574 314.182 238.187 313.958C237.807 313.734 237.324 313.622 236.74 313.622C236.285 313.622 235.87 313.7 235.497 313.856C235.13 314.006 234.814 314.237 234.549 314.549C234.284 314.862 234.076 315.256 233.927 315.731C233.784 316.2 233.713 316.754 233.713 317.393L232.52 317.026C232.52 315.959 232.711 315.045 233.091 314.284C233.479 313.516 234.019 312.929 234.712 312.521C235.412 312.107 236.234 311.899 237.178 311.899C237.892 311.899 238.5 312.011 239.002 312.236C239.505 312.46 239.923 312.759 240.256 313.133C240.589 313.499 240.851 313.914 241.041 314.376C241.231 314.831 241.364 315.297 241.438 315.772C241.52 316.241 241.561 316.686 241.561 317.107V323.192H239.726ZM231.878 323.192V308.516H233.509V316.618H233.713V323.192H231.878ZM247.339 323.498C246.517 323.498 245.827 323.348 245.27 323.049C244.72 322.743 244.302 322.343 244.017 321.847C243.738 321.351 243.599 320.807 243.599 320.216C243.599 319.638 243.708 319.139 243.925 318.718C244.149 318.29 244.462 317.936 244.863 317.658C245.264 317.372 245.743 317.148 246.3 316.985C246.823 316.842 247.407 316.72 248.053 316.618C248.705 316.509 249.364 316.411 250.03 316.323C250.696 316.234 251.317 316.149 251.895 316.068L251.243 316.445C251.263 315.466 251.066 314.743 250.652 314.274C250.244 313.805 249.537 313.571 248.532 313.571C247.866 313.571 247.281 313.724 246.779 314.029C246.283 314.328 245.933 314.818 245.729 315.497L244.007 314.977C244.272 314.012 244.784 313.255 245.545 312.704C246.306 312.154 247.309 311.879 248.552 311.879C249.551 311.879 250.407 312.059 251.12 312.419C251.841 312.772 252.357 313.309 252.67 314.029C252.826 314.369 252.924 314.739 252.965 315.14C253.006 315.534 253.026 315.949 253.026 316.384V323.192H251.416V320.552L251.793 320.797C251.379 321.687 250.798 322.36 250.05 322.815C249.31 323.27 248.406 323.498 247.339 323.498ZM247.614 321.979C248.267 321.979 248.831 321.863 249.306 321.632C249.789 321.395 250.176 321.086 250.468 320.705C250.76 320.318 250.951 319.896 251.039 319.441C251.141 319.102 251.195 318.724 251.202 318.31C251.216 317.889 251.222 317.566 251.222 317.342L251.854 317.617C251.263 317.698 250.682 317.777 250.111 317.851C249.541 317.926 249.001 318.008 248.491 318.096C247.981 318.177 247.523 318.276 247.115 318.391C246.816 318.487 246.534 318.609 246.269 318.758C246.011 318.908 245.8 319.102 245.637 319.339C245.481 319.57 245.403 319.859 245.403 320.206C245.403 320.505 245.478 320.79 245.627 321.062C245.783 321.334 246.021 321.554 246.34 321.724C246.667 321.894 247.091 321.979 247.614 321.979ZM263.514 323.192V317.678C263.514 317.155 263.466 316.652 263.371 316.17C263.283 315.687 263.123 315.256 262.892 314.875C262.668 314.488 262.362 314.182 261.975 313.958C261.594 313.734 261.112 313.622 260.527 313.622C260.072 313.622 259.658 313.7 259.284 313.856C258.917 314.006 258.601 314.237 258.336 314.549C258.071 314.862 257.864 315.256 257.715 315.731C257.572 316.2 257.5 316.754 257.5 317.393L256.308 317.026C256.308 315.959 256.498 315.045 256.879 314.284C257.266 313.516 257.806 312.929 258.499 312.521C259.199 312.107 260.021 311.899 260.966 311.899C261.679 311.899 262.287 312.011 262.79 312.236C263.293 312.46 263.711 312.759 264.044 313.133C264.377 313.499 264.638 313.914 264.828 314.376C265.019 314.831 265.151 315.297 265.226 315.772C265.307 316.241 265.348 316.686 265.348 317.107V323.192H263.514ZM255.666 323.192V312.185H257.297V315.13H257.5V323.192H255.666ZM275.835 323.192V317.678C275.835 317.155 275.788 316.652 275.693 316.17C275.604 315.687 275.445 315.256 275.214 314.875C274.99 314.488 274.684 314.182 274.296 313.958C273.916 313.734 273.434 313.622 272.849 313.622C272.394 313.622 271.98 313.7 271.606 313.856C271.239 314.006 270.923 314.237 270.658 314.549C270.393 314.862 270.186 315.256 270.036 315.731C269.894 316.2 269.822 316.754 269.822 317.393L268.63 317.026C268.63 315.959 268.82 315.045 269.201 314.284C269.588 313.516 270.128 312.929 270.821 312.521C271.521 312.107 272.343 311.899 273.287 311.899C274.001 311.899 274.609 312.011 275.112 312.236C275.615 312.46 276.032 312.759 276.365 313.133C276.698 313.499 276.96 313.914 277.15 314.376C277.34 314.831 277.473 315.297 277.548 315.772C277.629 316.241 277.67 316.686 277.67 317.107V323.192H275.835ZM267.988 323.192V312.185H269.618V315.13H269.822V323.192H267.988ZM284.99 323.498C283.91 323.498 282.965 323.26 282.157 322.784C281.355 322.302 280.73 321.632 280.281 320.776C279.833 319.913 279.609 318.908 279.609 317.76C279.609 316.557 279.829 315.517 280.271 314.641C280.713 313.758 281.328 313.078 282.116 312.603C282.911 312.12 283.842 311.879 284.908 311.879C286.016 311.879 286.957 312.134 287.732 312.643C288.513 313.153 289.097 313.88 289.485 314.824C289.879 315.769 290.048 316.893 289.994 318.198H288.16V317.546C288.139 316.193 287.864 315.184 287.334 314.519C286.804 313.846 286.016 313.51 284.97 313.51C283.848 313.51 282.996 313.87 282.411 314.59C281.827 315.31 281.535 316.343 281.535 317.688C281.535 318.986 281.827 319.992 282.411 320.705C282.996 321.418 283.828 321.775 284.908 321.775C285.635 321.775 286.267 321.609 286.804 321.276C287.341 320.943 287.762 320.464 288.068 319.839L289.811 320.44C289.383 321.412 288.737 322.166 287.874 322.703C287.018 323.233 286.057 323.498 284.99 323.498ZM280.923 318.198V316.74H289.056V318.198H280.923ZM292.467 323.192V308.21H294.281V323.192H292.467ZM306.628 323.498C305.588 323.498 304.651 323.321 303.815 322.968C302.986 322.614 302.3 322.112 301.756 321.459C301.219 320.8 300.87 320.022 300.707 319.125L302.582 318.83C302.82 319.754 303.312 320.477 304.06 321.001C304.814 321.517 305.7 321.775 306.72 321.775C307.379 321.775 307.973 321.673 308.503 321.469C309.04 321.259 309.465 320.96 309.777 320.573C310.09 320.185 310.246 319.727 310.246 319.197C310.246 318.87 310.188 318.592 310.073 318.361C309.964 318.123 309.811 317.923 309.614 317.76C309.424 317.59 309.206 317.447 308.962 317.332C308.717 317.216 308.462 317.121 308.197 317.046L304.457 315.935C304.049 315.813 303.655 315.66 303.275 315.477C302.894 315.286 302.555 315.052 302.256 314.773C301.957 314.488 301.719 314.148 301.542 313.754C301.366 313.353 301.277 312.881 301.277 312.338C301.277 311.468 301.501 310.727 301.95 310.116C302.405 309.497 303.02 309.025 303.795 308.699C304.569 308.373 305.442 308.213 306.414 308.22C307.399 308.227 308.279 308.403 309.054 308.75C309.835 309.09 310.48 309.579 310.99 310.218C311.506 310.856 311.853 311.621 312.03 312.511L310.103 312.847C310.001 312.249 309.774 311.736 309.421 311.308C309.074 310.873 308.639 310.54 308.116 310.309C307.593 310.072 307.019 309.949 306.394 309.942C305.796 309.936 305.255 310.031 304.773 310.228C304.291 310.425 303.907 310.7 303.621 311.053C303.336 311.4 303.193 311.801 303.193 312.256C303.193 312.704 303.322 313.068 303.581 313.347C303.839 313.618 304.155 313.836 304.528 313.999C304.909 314.155 305.279 314.284 305.639 314.386L308.432 315.191C308.751 315.28 309.118 315.402 309.533 315.558C309.954 315.714 310.362 315.935 310.756 316.221C311.15 316.499 311.476 316.873 311.734 317.342C311.992 317.804 312.121 318.388 312.121 319.095C312.121 319.801 311.979 320.43 311.693 320.98C311.415 321.531 311.024 321.993 310.521 322.366C310.018 322.733 309.434 323.012 308.768 323.202C308.102 323.399 307.389 323.498 306.628 323.498ZM318.438 323.477C317.731 323.477 317.123 323.365 316.614 323.141C316.111 322.917 315.693 322.618 315.36 322.244C315.027 321.87 314.765 321.456 314.575 321.001C314.385 320.545 314.249 320.08 314.168 319.604C314.093 319.129 314.055 318.684 314.055 318.269V312.185H315.89V317.698C315.89 318.215 315.937 318.714 316.033 319.197C316.128 319.679 316.287 320.114 316.512 320.501C316.743 320.888 317.048 321.194 317.429 321.418C317.816 321.643 318.299 321.755 318.876 321.755C319.331 321.755 319.746 321.677 320.12 321.52C320.493 321.364 320.813 321.133 321.078 320.827C321.343 320.515 321.546 320.121 321.689 319.645C321.832 319.169 321.903 318.616 321.903 317.984L323.096 318.351C323.096 319.411 322.902 320.325 322.515 321.092C322.134 321.86 321.594 322.451 320.894 322.866C320.201 323.273 319.382 323.477 318.438 323.477ZM322.107 323.192V320.246H321.903V312.185H323.727V323.192H322.107ZM331.636 323.498C330.603 323.498 329.734 323.243 329.027 322.733C328.32 322.217 327.784 321.52 327.417 320.644C327.057 319.761 326.877 318.772 326.877 317.678C326.877 316.571 327.057 315.579 327.417 314.702C327.784 313.826 328.32 313.136 329.027 312.633C329.74 312.13 330.614 311.879 331.646 311.879C332.666 311.879 333.542 312.134 334.276 312.643C335.016 313.146 335.584 313.836 335.978 314.712C336.372 315.589 336.569 316.577 336.569 317.678C336.569 318.779 336.372 319.767 335.978 320.644C335.584 321.52 335.016 322.217 334.276 322.733C333.542 323.243 332.662 323.498 331.636 323.498ZM326.571 328.084V312.185H328.191V320.287H328.395V328.084H326.571ZM331.412 321.836C332.139 321.836 332.74 321.653 333.216 321.286C333.691 320.919 334.048 320.423 334.286 319.798C334.524 319.166 334.643 318.459 334.643 317.678C334.643 316.903 334.524 316.204 334.286 315.579C334.055 314.953 333.695 314.457 333.206 314.091C332.723 313.724 332.108 313.54 331.361 313.54C330.648 313.54 330.056 313.717 329.588 314.07C329.119 314.417 328.769 314.902 328.538 315.528C328.307 316.146 328.191 316.863 328.191 317.678C328.191 318.48 328.303 319.197 328.528 319.829C328.759 320.454 329.112 320.946 329.588 321.306C330.063 321.66 330.671 321.836 331.412 321.836ZM343.858 323.498C342.826 323.498 341.956 323.243 341.249 322.733C340.543 322.217 340.006 321.52 339.639 320.644C339.279 319.761 339.099 318.772 339.099 317.678C339.099 316.571 339.279 315.579 339.639 314.702C340.006 313.826 340.543 313.136 341.249 312.633C341.963 312.13 342.836 311.879 343.869 311.879C344.888 311.879 345.764 312.134 346.498 312.643C347.239 313.146 347.806 313.836 348.2 314.712C348.594 315.589 348.791 316.577 348.791 317.678C348.791 318.779 348.594 319.767 348.2 320.644C347.806 321.52 347.239 322.217 346.498 322.733C345.764 323.243 344.884 323.498 343.858 323.498ZM338.793 328.084V312.185H340.414V320.287H340.617V328.084H338.793ZM343.634 321.836C344.361 321.836 344.962 321.653 345.438 321.286C345.914 320.919 346.27 320.423 346.508 319.798C346.746 319.166 346.865 318.459 346.865 317.678C346.865 316.903 346.746 316.204 346.508 315.579C346.277 314.953 345.917 314.457 345.428 314.091C344.946 313.724 344.331 313.54 343.583 313.54C342.87 313.54 342.279 313.717 341.81 314.07C341.341 314.417 340.991 314.902 340.76 315.528C340.529 316.146 340.414 316.863 340.414 317.678C340.414 318.48 340.526 319.197 340.75 319.829C340.981 320.454 341.334 320.946 341.81 321.306C342.285 321.66 342.894 321.836 343.634 321.836ZM355.714 323.498C354.62 323.498 353.675 323.25 352.88 322.754C352.092 322.258 351.484 321.571 351.056 320.695C350.628 319.818 350.414 318.813 350.414 317.678C350.414 316.523 350.631 315.511 351.066 314.641C351.501 313.771 352.116 313.095 352.911 312.613C353.706 312.124 354.64 311.879 355.714 311.879C356.814 311.879 357.762 312.127 358.557 312.623C359.352 313.112 359.96 313.795 360.382 314.671C360.81 315.541 361.024 316.543 361.024 317.678C361.024 318.826 360.81 319.839 360.382 320.715C359.953 321.585 359.342 322.268 358.547 322.764C357.752 323.253 356.808 323.498 355.714 323.498ZM355.714 321.775C356.855 321.775 357.704 321.395 358.262 320.634C358.819 319.873 359.097 318.887 359.097 317.678C359.097 316.435 358.815 315.446 358.251 314.712C357.687 313.972 356.842 313.601 355.714 313.601C354.946 313.601 354.314 313.775 353.818 314.121C353.322 314.468 352.952 314.947 352.707 315.558C352.462 316.17 352.34 316.876 352.34 317.678C352.34 318.915 352.626 319.907 353.196 320.654C353.767 321.401 354.606 321.775 355.714 321.775ZM363.268 323.192V312.185H364.888V314.845L364.623 314.498C364.752 314.158 364.919 313.846 365.122 313.561C365.333 313.275 365.568 313.041 365.826 312.857C366.111 312.626 366.434 312.45 366.794 312.327C367.154 312.205 367.521 312.134 367.895 312.113C368.268 312.086 368.618 312.11 368.944 312.185V313.887C368.564 313.785 368.146 313.758 367.691 313.805C367.236 313.853 366.814 314.019 366.427 314.305C366.074 314.556 365.799 314.862 365.602 315.222C365.411 315.582 365.279 315.973 365.204 316.394C365.129 316.808 365.092 317.233 365.092 317.668V323.192H363.268ZM377.017 323.192C376.365 323.321 375.72 323.372 375.081 323.345C374.449 323.324 373.885 323.199 373.389 322.968C372.893 322.73 372.516 322.363 372.258 321.867C372.04 321.432 371.921 320.994 371.901 320.552C371.887 320.104 371.881 319.598 371.881 319.034V309.127H373.695V318.952C373.695 319.4 373.698 319.784 373.705 320.104C373.719 320.423 373.79 320.698 373.919 320.929C374.164 321.364 374.551 321.619 375.081 321.694C375.618 321.768 376.263 321.748 377.017 321.632V323.192ZM369.649 313.683V312.185H377.017V313.683H369.649Z" fill="#212528"/>
</g>
<defs>
<filter id="filter0_d_1653_25551" x="0.937402" y="162.85" width="104.5" height="35.9" filterUnits="userSpaceOnUse" color-interpolation-filters="sRGB">
<feFlood flood-opacity="0" result="BackgroundImageFix"/>
<feColorMatrix in="SourceAlpha" type="matrix" values="0 0 0 0 0 0 0 0 0 0 0 0 0 0 0 0 0 0 127 0" result="hardAlpha"/>
<feOffset dy="3.15"/>
<feGaussianBlur stdDeviation="1.575"/>
<feComposite in2="hardAlpha" operator="out"/>
<feColorMatrix type="matrix" values="0 0 0 0 0 0 0 0 0 0 0 0 0 0 0 0 0 0 0.25 0"/>
<feBlend mode="normal" in2="BackgroundImageFix" result="effect1_dropShadow_1653_25551"/>
<feBlend mode="normal" in="SourceGraphic" in2="effect1_dropShadow_1653_25551" result="shape"/>
</filter>
<filter id="filter1_d_1653_25551" x="20.5062" y="198.75" width="65.3625" height="65.3625" filterUnits="userSpaceOnUse" color-interpolation-filters="sRGB">
<feFlood flood-opacity="0" result="BackgroundImageFix"/>
<feColorMatrix in="SourceAlpha" type="matrix" values="0 0 0 0 0 0 0 0 0 0 0 0 0 0 0 0 0 0 127 0" result="hardAlpha"/>
<feOffset dy="3.15"/>
<feGaussianBlur stdDeviation="1.575"/>
<feComposite in2="hardAlpha" operator="out"/>
<feColorMatrix type="matrix" values="0 0 0 0 0 0 0 0 0 0 0 0 0 0 0 0 0 0 0.25 0"/>
<feBlend mode="normal" in2="BackgroundImageFix" result="effect1_dropShadow_1653_25551"/>
<feBlend mode="normal" in="SourceGraphic" in2="effect1_dropShadow_1653_25551" result="shape"/>
</filter>
<filter id="filter2_d_1653_25551" x="129.181" y="58.275" width="65.3627" height="65.3625" filterUnits="userSpaceOnUse" color-interpolation-filters="sRGB">
<feFlood flood-opacity="0" result="BackgroundImageFix"/>
<feColorMatrix in="SourceAlpha" type="matrix" values="0 0 0 0 0 0 0 0 0 0 0 0 0 0 0 0 0 0 127 0" result="hardAlpha"/>
<feOffset dy="3.15"/>
<feGaussianBlur stdDeviation="1.575"/>
<feComposite in2="hardAlpha" operator="out"/>
<feColorMatrix type="matrix" values="0 0 0 0 0 0 0 0 0 0 0 0 0 0 0 0 0 0 0.25 0"/>
<feBlend mode="normal" in2="BackgroundImageFix" result="effect1_dropShadow_1653_25551"/>
<feBlend mode="normal" in="SourceGraphic" in2="effect1_dropShadow_1653_25551" result="shape"/>
</filter>
<filter id="filter3_d_1653_25551" x="130.112" y="123.637" width="63.5" height="35.9" filterUnits="userSpaceOnUse" color-interpolation-filters="sRGB">
<feFlood flood-opacity="0" result="BackgroundImageFix"/>
<feColorMatrix in="SourceAlpha" type="matrix" values="0 0 0 0 0 0 0 0 0 0 0 0 0 0 0 0 0 0 127 0" result="hardAlpha"/>
<feOffset dy="3.15"/>
<feGaussianBlur stdDeviation="1.575"/>
<feComposite in2="hardAlpha" operator="out"/>
<feColorMatrix type="matrix" values="0 0 0 0 0 0 0 0 0 0 0 0 0 0 0 0 0 0 0.25 0"/>
<feBlend mode="normal" in2="BackgroundImageFix" result="effect1_dropShadow_1653_25551"/>
<feBlend mode="normal" in="SourceGraphic" in2="effect1_dropShadow_1653_25551" result="shape"/>
</filter>
<filter id="filter4_d_1653_25551" x="223.787" y="162.85" width="93.5002" height="35.9" filterUnits="userSpaceOnUse" color-interpolation-filters="sRGB">
<feFlood flood-opacity="0" result="BackgroundImageFix"/>
<feColorMatrix in="SourceAlpha" type="matrix" values="0 0 0 0 0 0 0 0 0 0 0 0 0 0 0 0 0 0 127 0" result="hardAlpha"/>
<feOffset dy="3.15"/>
<feGaussianBlur stdDeviation="1.575"/>
<feComposite in2="hardAlpha" operator="out"/>
<feColorMatrix type="matrix" values="0 0 0 0 0 0 0 0 0 0 0 0 0 0 0 0 0 0 0.25 0"/>
<feBlend mode="normal" in2="BackgroundImageFix" result="effect1_dropShadow_1653_25551"/>
<feBlend mode="normal" in="SourceGraphic" in2="effect1_dropShadow_1653_25551" result="shape"/>
</filter>
<filter id="filter5_d_1653_25551" x="237.856" y="198.75" width="65.3625" height="65.3625" filterUnits="userSpaceOnUse" color-interpolation-filters="sRGB">
<feFlood flood-opacity="0" result="BackgroundImageFix"/>
<feColorMatrix in="SourceAlpha" type="matrix" values="0 0 0 0 0 0 0 0 0 0 0 0 0 0 0 0 0 0 127 0" result="hardAlpha"/>
<feOffset dy="3.15"/>
<feGaussianBlur stdDeviation="1.575"/>
<feComposite in2="hardAlpha" operator="out"/>
<feColorMatrix type="matrix" values="0 0 0 0 0 0 0 0 0 0 0 0 0 0 0 0 0 0 0.25 0"/>
<feBlend mode="normal" in2="BackgroundImageFix" result="effect1_dropShadow_1653_25551"/>
<feBlend mode="normal" in="SourceGraphic" in2="effect1_dropShadow_1653_25551" result="shape"/>
</filter>
<filter id="filter6_d_1653_25551" x="346.531" y="58.275" width="65.3625" height="65.3625" filterUnits="userSpaceOnUse" color-interpolation-filters="sRGB">
<feFlood flood-opacity="0" result="BackgroundImageFix"/>
<feColorMatrix in="SourceAlpha" type="matrix" values="0 0 0 0 0 0 0 0 0 0 0 0 0 0 0 0 0 0 127 0" result="hardAlpha"/>
<feOffset dy="3.15"/>
<feGaussianBlur stdDeviation="1.575"/>
<feComposite in2="hardAlpha" operator="out"/>
<feColorMatrix type="matrix" values="0 0 0 0 0 0 0 0 0 0 0 0 0 0 0 0 0 0 0.25 0"/>
<feBlend mode="normal" in2="BackgroundImageFix" result="effect1_dropShadow_1653_25551"/>
<feBlend mode="normal" in="SourceGraphic" in2="effect1_dropShadow_1653_25551" result="shape"/>
</filter>
<filter id="filter7_d_1653_25551" x="349.962" y="123.637" width="58.5002" height="35.9" filterUnits="userSpaceOnUse" color-interpolation-filters="sRGB">
<feFlood flood-opacity="0" result="BackgroundImageFix"/>
<feColorMatrix in="SourceAlpha" type="matrix" values="0 0 0 0 0 0 0 0 0 0 0 0 0 0 0 0 0 0 127 0" result="hardAlpha"/>
<feOffset dy="3.15"/>
<feGaussianBlur stdDeviation="1.575"/>
<feComposite in2="hardAlpha" operator="out"/>
<feColorMatrix type="matrix" values="0 0 0 0 0 0 0 0 0 0 0 0 0 0 0 0 0 0 0.25 0"/>
<feBlend mode="normal" in2="BackgroundImageFix" result="effect1_dropShadow_1653_25551"/>
<feBlend mode="normal" in="SourceGraphic" in2="effect1_dropShadow_1653_25551" result="shape"/>
</filter>
<filter id="filter8_d_1653_25551" x="455.637" y="162.85" width="64.5002" height="35.9" filterUnits="userSpaceOnUse" color-interpolation-filters="sRGB">
<feFlood flood-opacity="0" result="BackgroundImageFix"/>
<feColorMatrix in="SourceAlpha" type="matrix" values="0 0 0 0 0 0 0 0 0 0 0 0 0 0 0 0 0 0 127 0" result="hardAlpha"/>
<feOffset dy="3.15"/>
<feGaussianBlur stdDeviation="1.575"/>
<feComposite in2="hardAlpha" operator="out"/>
<feColorMatrix type="matrix" values="0 0 0 0 0 0 0 0 0 0 0 0 0 0 0 0 0 0 0.25 0"/>
<feBlend mode="normal" in2="BackgroundImageFix" result="effect1_dropShadow_1653_25551"/>
<feBlend mode="normal" in="SourceGraphic" in2="effect1_dropShadow_1653_25551" result="shape"/>
</filter>
<filter id="filter9_d_1653_25551" x="455.206" y="198.75" width="65.3625" height="65.3625" filterUnits="userSpaceOnUse" color-interpolation-filters="sRGB">
<feFlood flood-opacity="0" result="BackgroundImageFix"/>
<feColorMatrix in="SourceAlpha" type="matrix" values="0 0 0 0 0 0 0 0 0 0 0 0 0 0 0 0 0 0 127 0" result="hardAlpha"/>
<feOffset dy="3.15"/>
<feGaussianBlur stdDeviation="1.575"/>
<feComposite in2="hardAlpha" operator="out"/>
<feColorMatrix type="matrix" values="0 0 0 0 0 0 0 0 0 0 0 0 0 0 0 0 0 0 0.25 0"/>
<feBlend mode="normal" in2="BackgroundImageFix" result="effect1_dropShadow_1653_25551"/>
<feBlend mode="normal" in="SourceGraphic" in2="effect1_dropShadow_1653_25551" result="shape"/>
</filter>
<filter id="filter10_d_1653_25551" x="136.904" y="291" width="266.959" height="58.5755" filterUnits="userSpaceOnUse" color-interpolation-filters="sRGB">
<feFlood flood-opacity="0" result="BackgroundImageFix"/>
<feColorMatrix in="SourceAlpha" type="matrix" values="0 0 0 0 0 0 0 0 0 0 0 0 0 0 0 0 0 0 127 0" result="hardAlpha"/>
<feOffset dy="5.09591"/>
<feGaussianBlur stdDeviation="2.54796"/>
<feComposite in2="hardAlpha" operator="out"/>
<feColorMatrix type="matrix" values="0 0 0 0 0 0 0 0 0 0 0 0 0 0 0 0 0 0 0.25 0"/>
<feBlend mode="normal" in2="BackgroundImageFix" result="effect1_dropShadow_1653_25551"/>
<feBlend mode="normal" in="SourceGraphic" in2="effect1_dropShadow_1653_25551" result="shape"/>
</filter>
<clipPath id="clip0_1653_25551">
<rect width="31.5" height="31.5" fill="white" transform="translate(37.9062 214.969)"/>
</clipPath>
</defs>
</svg>
