<svg width="956" height="395" viewBox="0 0 956 395" fill="none" xmlns="http://www.w3.org/2000/svg">
<g clip-path="url(#clip0_1595_22018)">
<path d="M267.083 104.042V28.375H200.875V56.75H144.125V28.375H77.9167V104.042H144.125V75.6667H163.042V170.25H200.875V198.625H267.083V122.958H200.875V151.333H181.958V75.6667H200.875V104.042H267.083ZM125.208 85.125H96.8333V47.2917H125.208V85.125ZM219.792 141.875H248.167V179.708H219.792V141.875ZM219.792 47.2917H248.167V85.125H219.792V47.2917Z" fill="#DBEAF6"/>
<path fill-rule="evenodd" clip-rule="evenodd" d="M754.43 174.684C767.559 212.621 771.034 254.064 755.446 290.112C738.637 328.983 709.272 366.005 668.793 372.717C630.196 379.117 599.336 342.94 565.179 321.661C531.947 300.957 490.743 289.218 475.302 252.173C458.442 211.722 459.963 161.748 483.912 126.686C506.458 93.6785 550.514 92.175 589.084 85.5922C622.397 79.9067 656.399 75.6094 686.897 92.0424C718.816 109.241 742.225 139.419 754.43 174.684Z" fill="#4DA0FF" fill-opacity="0.1"/>
<g filter="url(#filter0_d_1595_22018)">
<rect x="674" y="268" width="169.722" height="46.1772" rx="4.61772" fill="#1E75BA" shape-rendering="crispEdges"/>
<path d="M704.304 291.954H699.109V297.149H697.377V291.954H692.182V290.223H697.377V285.028H699.109V290.223H704.304V291.954Z" fill="white"/>
<path d="M715.535 296.089H713.652L717.882 284.334H719.931L724.161 296.089H722.279L718.956 286.469H718.864L715.535 296.089ZM715.851 291.486H721.957V292.978H715.851V291.486ZM728.879 296.261C728.167 296.261 727.532 296.079 726.973 295.716C726.419 295.348 725.982 294.826 725.665 294.149C725.351 293.468 725.194 292.651 725.194 291.698C725.194 290.745 725.353 289.93 725.671 289.253C725.992 288.576 726.432 288.057 726.991 287.698C727.549 287.338 728.183 287.158 728.89 287.158C729.438 287.158 729.878 287.25 730.21 287.434C730.547 287.614 730.807 287.824 730.991 288.065C731.178 288.306 731.324 288.518 731.427 288.702H731.53V284.334H733.247V296.089H731.571V294.717H731.427C731.324 294.904 731.175 295.119 730.98 295.36C730.788 295.601 730.524 295.811 730.187 295.991C729.851 296.171 729.415 296.261 728.879 296.261ZM729.258 294.797C729.751 294.797 730.168 294.667 730.509 294.407C730.853 294.143 731.113 293.778 731.289 293.311C731.469 292.844 731.559 292.301 731.559 291.681C731.559 291.069 731.471 290.533 731.295 290.074C731.119 289.615 730.861 289.257 730.52 289.001C730.18 288.744 729.759 288.616 729.258 288.616C728.741 288.616 728.311 288.75 727.966 289.018C727.622 289.286 727.362 289.651 727.186 290.114C727.014 290.577 726.928 291.099 726.928 291.681C726.928 292.27 727.016 292.8 727.192 293.271C727.368 293.741 727.628 294.114 727.972 294.39C728.32 294.661 728.749 294.797 729.258 294.797ZM738.996 296.261C738.284 296.261 737.649 296.079 737.09 295.716C736.536 295.348 736.1 294.826 735.782 294.149C735.468 293.468 735.311 292.651 735.311 291.698C735.311 290.745 735.47 289.93 735.788 289.253C736.109 288.576 736.549 288.057 737.108 287.698C737.666 287.338 738.3 287.158 739.007 287.158C739.555 287.158 739.995 287.25 740.327 287.434C740.664 287.614 740.924 287.824 741.108 288.065C741.296 288.306 741.441 288.518 741.544 288.702H741.648V284.334H743.364V296.089H741.688V294.717H741.544C741.441 294.904 741.292 295.119 741.097 295.36C740.905 295.601 740.641 295.811 740.305 295.991C739.968 296.171 739.532 296.261 738.996 296.261ZM739.375 294.797C739.868 294.797 740.285 294.667 740.626 294.407C740.97 294.143 741.23 293.778 741.406 293.311C741.586 292.844 741.676 292.301 741.676 291.681C741.676 291.069 741.588 290.533 741.412 290.074C741.236 289.615 740.978 289.257 740.637 289.001C740.297 288.744 739.876 288.616 739.375 288.616C738.858 288.616 738.428 288.75 738.083 289.018C737.739 289.286 737.479 289.651 737.303 290.114C737.131 290.577 737.045 291.099 737.045 291.681C737.045 292.27 737.133 292.8 737.309 293.271C737.485 293.741 737.745 294.114 738.089 294.39C738.437 294.661 738.866 294.797 739.375 294.797ZM759.715 284.334V296.089H758.085L752.11 287.468H752.001V296.089H750.228V284.334H751.869L757.85 292.966H757.959V284.334H759.715ZM765.964 296.267C765.095 296.267 764.347 296.081 763.72 295.71C763.096 295.335 762.614 294.809 762.273 294.132C761.937 293.45 761.768 292.653 761.768 291.738C761.768 290.835 761.937 290.039 762.273 289.351C762.614 288.662 763.088 288.124 763.697 287.738C764.309 287.351 765.024 287.158 765.843 287.158C766.341 287.158 766.823 287.24 767.29 287.405C767.756 287.57 768.175 287.828 768.546 288.18C768.918 288.532 769.21 288.989 769.425 289.551C769.639 290.11 769.746 290.789 769.746 291.589V292.197H762.738V290.912H768.064C768.064 290.46 767.973 290.06 767.789 289.712C767.605 289.36 767.347 289.083 767.014 288.88C766.685 288.677 766.299 288.576 765.855 288.576C765.373 288.576 764.952 288.694 764.592 288.932C764.236 289.165 763.961 289.471 763.766 289.85C763.574 290.225 763.479 290.632 763.479 291.072V292.077C763.479 292.666 763.582 293.167 763.789 293.581C763.999 293.994 764.292 294.309 764.667 294.528C765.042 294.742 765.48 294.849 765.981 294.849C766.306 294.849 766.603 294.803 766.871 294.711C767.138 294.616 767.37 294.474 767.565 294.286C767.76 294.099 767.909 293.867 768.013 293.592L769.637 293.885C769.507 294.363 769.273 294.782 768.937 295.142C768.604 295.497 768.185 295.775 767.68 295.974C767.179 296.169 766.607 296.267 765.964 296.267ZM773.545 296.089L770.951 287.273H772.725L774.452 293.747H774.538L776.272 287.273H778.045L779.767 293.718H779.853L781.569 287.273H783.343L780.754 296.089H779.004L777.213 289.724H777.081L775.29 296.089H773.545ZM789.386 296.089V284.334H796.675V285.861H791.16V289.442H796.153V290.963H791.16V296.089H789.386ZM800.434 284.334V296.089H798.718V284.334H800.434ZM806.456 296.267C805.63 296.267 804.909 296.077 804.293 295.698C803.677 295.32 803.198 294.79 802.858 294.109C802.517 293.427 802.347 292.632 802.347 291.721C802.347 290.807 802.517 290.007 802.858 289.322C803.198 288.637 803.677 288.105 804.293 287.726C804.909 287.348 805.63 287.158 806.456 287.158C807.283 287.158 808.004 287.348 808.62 287.726C809.236 288.105 809.714 288.637 810.055 289.322C810.395 290.007 810.566 290.807 810.566 291.721C810.566 292.632 810.395 293.427 810.055 294.109C809.714 294.79 809.236 295.32 808.62 295.698C808.004 296.077 807.283 296.267 806.456 296.267ZM806.462 294.826C806.998 294.826 807.442 294.684 807.794 294.401C808.146 294.118 808.406 293.741 808.574 293.271C808.746 292.8 808.832 292.282 808.832 291.715C808.832 291.153 808.746 290.636 808.574 290.166C808.406 289.691 808.146 289.31 807.794 289.023C807.442 288.737 806.998 288.593 806.462 288.593C805.923 288.593 805.475 288.737 805.119 289.023C804.767 289.31 804.505 289.691 804.333 290.166C804.164 290.636 804.08 291.153 804.08 291.715C804.08 292.282 804.164 292.8 804.333 293.271C804.505 293.741 804.767 294.118 805.119 294.401C805.475 294.684 805.923 294.826 806.462 294.826ZM814.124 296.089L811.53 287.273H813.303L815.031 293.747H815.117L816.85 287.273H818.624L820.346 293.718H820.432L822.148 287.273H823.921L821.333 296.089H819.582L817.792 289.724H817.66L815.869 296.089H814.124Z" fill="white"/>
</g>
<g filter="url(#filter1_d_1595_22018)">
<rect x="163" y="159" width="180" height="77" rx="36" fill="white" shape-rendering="crispEdges"/>
<path d="M225.364 197L220.36 179.72H222.592L226.432 193.388L230.26 179.732L232.504 179.72L236.344 193.388L240.172 179.72H242.416L237.412 197H235.276L231.388 183.452L227.5 197H225.364ZM253.689 197V190.508C253.689 189.892 253.633 189.3 253.521 188.732C253.417 188.164 253.229 187.656 252.957 187.208C252.693 186.752 252.333 186.392 251.877 186.128C251.429 185.864 250.861 185.732 250.173 185.732C249.637 185.732 249.149 185.824 248.709 186.008C248.277 186.184 247.905 186.456 247.593 186.824C247.281 187.192 247.037 187.656 246.861 188.216C246.693 188.768 246.609 189.42 246.609 190.172L245.205 189.74C245.205 188.484 245.429 187.408 245.877 186.512C246.333 185.608 246.969 184.916 247.785 184.436C248.609 183.948 249.577 183.704 250.689 183.704C251.529 183.704 252.245 183.836 252.837 184.1C253.429 184.364 253.921 184.716 254.313 185.156C254.705 185.588 255.013 186.076 255.237 186.62C255.461 187.156 255.617 187.704 255.705 188.264C255.801 188.816 255.849 189.34 255.849 189.836V197H253.689ZM244.449 197V179.72H246.369V189.26H246.609V197H244.449ZM264.585 197.36C263.313 197.36 262.201 197.08 261.249 196.52C260.305 195.952 259.569 195.164 259.041 194.156C258.513 193.14 258.249 191.956 258.249 190.604C258.249 189.188 258.509 187.964 259.029 186.932C259.549 185.892 260.273 185.092 261.201 184.532C262.137 183.964 263.233 183.68 264.489 183.68C265.793 183.68 266.901 183.98 267.813 184.58C268.733 185.18 269.421 186.036 269.877 187.148C270.341 188.26 270.541 189.584 270.477 191.12H268.317V190.352C268.293 188.76 267.969 187.572 267.345 186.788C266.721 185.996 265.793 185.6 264.561 185.6C263.241 185.6 262.237 186.024 261.549 186.872C260.861 187.72 260.517 188.936 260.517 190.52C260.517 192.048 260.861 193.232 261.549 194.072C262.237 194.912 263.217 195.332 264.489 195.332C265.345 195.332 266.089 195.136 266.721 194.744C267.353 194.352 267.849 193.788 268.209 193.052L270.261 193.76C269.757 194.904 268.997 195.792 267.981 196.424C266.973 197.048 265.841 197.36 264.585 197.36ZM259.797 191.12V189.404H269.373V191.12H259.797ZM282.025 197V190.508C282.025 189.892 281.969 189.3 281.857 188.732C281.753 188.164 281.565 187.656 281.293 187.208C281.029 186.752 280.669 186.392 280.213 186.128C279.765 185.864 279.197 185.732 278.509 185.732C277.973 185.732 277.485 185.824 277.045 186.008C276.613 186.184 276.241 186.456 275.929 186.824C275.617 187.192 275.373 187.656 275.197 188.216C275.029 188.768 274.945 189.42 274.945 190.172L273.541 189.74C273.541 188.484 273.765 187.408 274.213 186.512C274.669 185.608 275.305 184.916 276.121 184.436C276.945 183.948 277.913 183.704 279.025 183.704C279.865 183.704 280.581 183.836 281.173 184.1C281.765 184.364 282.257 184.716 282.649 185.156C283.041 185.588 283.349 186.076 283.573 186.62C283.797 187.156 283.953 187.704 284.041 188.264C284.137 188.816 284.185 189.34 284.185 189.836V197H282.025ZM272.785 197V184.04H274.705V187.508H274.945V197H272.785Z" fill="#212528"/>
<path d="M226.398 222.745C225.813 222.07 225.31 221.313 224.89 220.473C224.47 219.632 224.148 218.75 223.923 217.825C223.698 216.9 223.59 215.975 223.6 215.05C223.59 214.12 223.698 213.192 223.923 212.267C224.148 211.342 224.47 210.462 224.89 209.627C225.31 208.787 225.813 208.03 226.398 207.355L227.388 208.105C226.798 208.805 226.313 209.532 225.933 210.287C225.558 211.042 225.28 211.82 225.1 212.62C224.92 213.415 224.828 214.225 224.823 215.05C224.828 215.865 224.92 216.675 225.1 217.48C225.285 218.28 225.565 219.06 225.94 219.82C226.32 220.575 226.803 221.298 227.388 221.988L226.398 222.745ZM231.851 220V210.467H228.169V209.2H236.869V210.467H233.186V220H231.851ZM237.316 220V211.9H238.508V213.857L238.313 213.602C238.408 213.352 238.531 213.122 238.681 212.912C238.836 212.702 239.008 212.53 239.198 212.395C239.408 212.225 239.646 212.095 239.911 212.005C240.176 211.915 240.446 211.862 240.721 211.847C240.996 211.827 241.253 211.845 241.493 211.9V213.152C241.213 213.077 240.906 213.057 240.571 213.092C240.236 213.127 239.926 213.25 239.641 213.46C239.381 213.645 239.178 213.87 239.033 214.135C238.893 214.4 238.796 214.687 238.741 214.997C238.686 215.302 238.658 215.615 238.658 215.935V220H237.316ZM243.061 210.467V209.087H244.396V210.467H243.061ZM243.061 220V211.9H244.396V220H243.061ZM249.924 223.825C249.499 223.825 249.084 223.76 248.679 223.63C248.274 223.5 247.902 223.303 247.562 223.038C247.227 222.778 246.947 222.448 246.722 222.048L247.944 221.403C248.144 221.798 248.427 222.085 248.792 222.265C249.162 222.445 249.542 222.535 249.932 222.535C250.447 222.535 250.874 222.44 251.214 222.25C251.554 222.065 251.804 221.788 251.964 221.418C252.129 221.048 252.209 220.588 252.204 220.038V217.825H252.362V211.9H253.547V220.053C253.547 220.273 253.539 220.485 253.524 220.69C253.514 220.895 253.489 221.098 253.449 221.298C253.344 221.873 253.137 222.345 252.827 222.715C252.517 223.09 252.117 223.368 251.627 223.548C251.137 223.733 250.569 223.825 249.924 223.825ZM249.827 220.225C249.072 220.225 248.424 220.038 247.884 219.662C247.344 219.282 246.927 218.77 246.632 218.125C246.342 217.48 246.197 216.752 246.197 215.942C246.197 215.132 246.342 214.405 246.632 213.76C246.927 213.115 247.344 212.607 247.884 212.237C248.424 211.862 249.069 211.675 249.819 211.675C250.584 211.675 251.227 211.86 251.747 212.23C252.267 212.6 252.659 213.107 252.924 213.752C253.194 214.397 253.329 215.127 253.329 215.942C253.329 216.747 253.194 217.475 252.924 218.125C252.659 218.77 252.267 219.282 251.747 219.662C251.227 220.038 250.587 220.225 249.827 220.225ZM249.992 219.002C250.537 219.002 250.984 218.872 251.334 218.612C251.684 218.347 251.942 217.985 252.107 217.525C252.277 217.06 252.362 216.532 252.362 215.942C252.362 215.342 252.277 214.815 252.107 214.36C251.942 213.9 251.687 213.542 251.342 213.287C250.997 213.027 250.559 212.897 250.029 212.897C249.479 212.897 249.024 213.032 248.664 213.302C248.309 213.572 248.044 213.937 247.869 214.397C247.699 214.857 247.614 215.372 247.614 215.942C247.614 216.517 247.702 217.037 247.877 217.502C248.052 217.962 248.314 218.327 248.664 218.597C249.019 218.867 249.462 219.002 249.992 219.002ZM258.918 223.825C258.493 223.825 258.078 223.76 257.673 223.63C257.268 223.5 256.896 223.303 256.556 223.038C256.221 222.778 255.941 222.448 255.716 222.048L256.938 221.403C257.138 221.798 257.421 222.085 257.786 222.265C258.156 222.445 258.536 222.535 258.926 222.535C259.441 222.535 259.868 222.44 260.208 222.25C260.548 222.065 260.798 221.788 260.958 221.418C261.123 221.048 261.203 220.588 261.198 220.038V217.825H261.356V211.9H262.541V220.053C262.541 220.273 262.533 220.485 262.518 220.69C262.508 220.895 262.483 221.098 262.443 221.298C262.338 221.873 262.131 222.345 261.821 222.715C261.511 223.09 261.111 223.368 260.621 223.548C260.131 223.733 259.563 223.825 258.918 223.825ZM258.821 220.225C258.066 220.225 257.418 220.038 256.878 219.662C256.338 219.282 255.921 218.77 255.626 218.125C255.336 217.48 255.191 216.752 255.191 215.942C255.191 215.132 255.336 214.405 255.626 213.76C255.921 213.115 256.338 212.607 256.878 212.237C257.418 211.862 258.063 211.675 258.813 211.675C259.578 211.675 260.221 211.86 260.741 212.23C261.261 212.6 261.653 213.107 261.918 213.752C262.188 214.397 262.323 215.127 262.323 215.942C262.323 216.747 262.188 217.475 261.918 218.125C261.653 218.77 261.261 219.282 260.741 219.662C260.221 220.038 259.581 220.225 258.821 220.225ZM258.986 219.002C259.531 219.002 259.978 218.872 260.328 218.612C260.678 218.347 260.936 217.985 261.101 217.525C261.271 217.06 261.356 216.532 261.356 215.942C261.356 215.342 261.271 214.815 261.101 214.36C260.936 213.9 260.681 213.542 260.336 213.287C259.991 213.027 259.553 212.897 259.023 212.897C258.473 212.897 258.018 213.032 257.658 213.302C257.303 213.572 257.038 213.937 256.863 214.397C256.693 214.857 256.608 215.372 256.608 215.942C256.608 216.517 256.696 217.037 256.871 217.502C257.046 217.962 257.308 218.327 257.658 218.597C258.013 218.867 258.456 219.002 258.986 219.002ZM268.145 220.225C267.35 220.225 266.655 220.05 266.06 219.7C265.47 219.345 265.01 218.852 264.68 218.222C264.35 217.587 264.185 216.847 264.185 216.002C264.185 215.117 264.347 214.352 264.672 213.707C264.997 213.057 265.45 212.557 266.03 212.207C266.615 211.852 267.3 211.675 268.085 211.675C268.9 211.675 269.592 211.862 270.162 212.237C270.737 212.612 271.167 213.147 271.452 213.842C271.742 214.537 271.867 215.365 271.827 216.325H270.477V215.845C270.462 214.85 270.26 214.107 269.87 213.617C269.48 213.122 268.9 212.875 268.13 212.875C267.305 212.875 266.677 213.14 266.247 213.67C265.817 214.2 265.602 214.96 265.602 215.95C265.602 216.905 265.817 217.645 266.247 218.17C266.677 218.695 267.29 218.957 268.085 218.957C268.62 218.957 269.085 218.835 269.48 218.59C269.875 218.345 270.185 217.992 270.41 217.532L271.692 217.975C271.377 218.69 270.902 219.245 270.267 219.64C269.637 220.03 268.93 220.225 268.145 220.225ZM265.152 216.325V215.252H271.137V216.325H265.152ZM273.497 220V211.9H274.69V213.857L274.495 213.602C274.59 213.352 274.712 213.122 274.862 212.912C275.017 212.702 275.19 212.53 275.38 212.395C275.59 212.225 275.827 212.095 276.092 212.005C276.357 211.915 276.627 211.862 276.902 211.847C277.177 211.827 277.435 211.845 277.675 211.9V213.152C277.395 213.077 277.087 213.057 276.752 213.092C276.417 213.127 276.107 213.25 275.822 213.46C275.562 213.645 275.36 213.87 275.215 214.135C275.075 214.4 274.977 214.687 274.922 214.997C274.867 215.302 274.84 215.615 274.84 215.935V220H273.497ZM279.378 222.745L278.388 221.988C278.973 221.298 279.453 220.575 279.828 219.82C280.208 219.06 280.49 218.28 280.675 217.48C280.86 216.675 280.953 215.865 280.953 215.05C280.953 214.225 280.86 213.415 280.675 212.62C280.495 211.82 280.215 211.042 279.835 210.287C279.46 209.532 278.978 208.805 278.388 208.105L279.378 207.355C279.963 208.03 280.465 208.787 280.885 209.627C281.31 210.462 281.633 211.342 281.853 212.267C282.078 213.192 282.185 214.12 282.175 215.05C282.185 215.975 282.078 216.9 281.853 217.825C281.633 218.75 281.31 219.632 280.885 220.473C280.465 221.313 279.963 222.07 279.378 222.745Z" fill="#8F9396"/>
</g>
<g filter="url(#filter2_d_1595_22018)">
<rect x="388" y="159" width="180" height="77" rx="36" fill="white" shape-rendering="crispEdges"/>
<path d="M472.42 197V179.72H474.556V197H472.42ZM479.393 197V183.332C479.393 182.996 479.409 182.656 479.441 182.312C479.473 181.96 479.545 181.62 479.657 181.292C479.769 180.956 479.953 180.648 480.209 180.368C480.505 180.04 480.829 179.808 481.181 179.672C481.533 179.528 481.889 179.44 482.249 179.408C482.617 179.376 482.965 179.36 483.293 179.36H484.937V181.136H483.413C482.781 181.136 482.309 181.292 481.997 181.604C481.685 181.908 481.529 182.372 481.529 182.996V197H479.393ZM477.197 185.804V184.04H484.937V185.804H477.197Z" fill="#212528"/>
<path d="M441.898 222.745C441.313 222.07 440.81 221.313 440.39 220.473C439.97 219.632 439.648 218.75 439.423 217.825C439.198 216.9 439.09 215.975 439.1 215.05C439.09 214.12 439.198 213.192 439.423 212.267C439.648 211.342 439.97 210.462 440.39 209.627C440.81 208.787 441.313 208.03 441.898 207.355L442.888 208.105C442.298 208.805 441.813 209.532 441.433 210.287C441.058 211.042 440.78 211.82 440.6 212.62C440.42 213.415 440.328 214.225 440.323 215.05C440.328 215.865 440.42 216.675 440.6 217.48C440.785 218.28 441.065 219.06 441.44 219.82C441.82 220.575 442.303 221.298 442.888 221.988L441.898 222.745ZM448.569 220.225C447.494 220.225 446.582 219.987 445.832 219.512C445.082 219.037 444.509 218.377 444.114 217.532C443.724 216.687 443.529 215.71 443.529 214.6C443.529 213.49 443.724 212.512 444.114 211.667C444.509 210.822 445.082 210.162 445.832 209.687C446.582 209.212 447.494 208.975 448.569 208.975C449.819 208.975 450.847 209.292 451.652 209.927C452.462 210.562 453.019 211.417 453.324 212.492L451.967 212.852C451.747 212.047 451.354 211.412 450.789 210.947C450.224 210.482 449.484 210.25 448.569 210.25C447.764 210.25 447.094 210.432 446.559 210.797C446.024 211.162 445.622 211.672 445.352 212.327C445.082 212.977 444.944 213.735 444.939 214.6C444.934 215.46 445.067 216.217 445.337 216.872C445.607 217.522 446.012 218.032 446.552 218.402C447.092 218.767 447.764 218.95 448.569 218.95C449.484 218.95 450.224 218.717 450.789 218.252C451.354 217.782 451.747 217.147 451.967 216.347L453.324 216.707C453.019 217.777 452.462 218.632 451.652 219.272C450.847 219.907 449.819 220.225 448.569 220.225ZM458.419 220.225C457.614 220.225 456.919 220.043 456.334 219.677C455.754 219.312 455.306 218.807 454.991 218.162C454.676 217.517 454.519 216.777 454.519 215.942C454.519 215.092 454.679 214.347 454.999 213.707C455.319 213.067 455.771 212.57 456.356 212.215C456.941 211.855 457.629 211.675 458.419 211.675C459.229 211.675 459.926 211.857 460.511 212.222C461.096 212.582 461.544 213.085 461.854 213.73C462.169 214.37 462.326 215.107 462.326 215.942C462.326 216.787 462.169 217.532 461.854 218.177C461.539 218.817 461.089 219.32 460.504 219.685C459.919 220.045 459.224 220.225 458.419 220.225ZM458.419 218.957C459.259 218.957 459.884 218.677 460.294 218.117C460.704 217.557 460.909 216.832 460.909 215.942C460.909 215.027 460.701 214.3 460.286 213.76C459.871 213.215 459.249 212.942 458.419 212.942C457.854 212.942 457.389 213.07 457.024 213.325C456.659 213.58 456.386 213.932 456.206 214.382C456.026 214.832 455.936 215.352 455.936 215.942C455.936 216.852 456.146 217.582 456.566 218.132C456.986 218.682 457.604 218.957 458.419 218.957ZM469.745 220V215.942C469.745 215.557 469.71 215.187 469.64 214.832C469.575 214.477 469.458 214.16 469.288 213.88C469.123 213.595 468.898 213.37 468.613 213.205C468.333 213.04 467.978 212.957 467.548 212.957C467.213 212.957 466.908 213.015 466.633 213.13C466.363 213.24 466.13 213.41 465.935 213.64C465.74 213.87 465.588 214.16 465.478 214.51C465.373 214.855 465.32 215.262 465.32 215.732L464.443 215.462C464.443 214.677 464.583 214.005 464.863 213.445C465.148 212.88 465.545 212.447 466.055 212.147C466.57 211.842 467.175 211.69 467.87 211.69C468.395 211.69 468.843 211.772 469.213 211.937C469.583 212.102 469.89 212.322 470.135 212.597C470.38 212.867 470.573 213.172 470.713 213.512C470.853 213.847 470.95 214.19 471.005 214.54C471.065 214.885 471.095 215.212 471.095 215.522V220H469.745ZM463.97 220V211.9H465.17V214.067H465.32V220H463.97ZM476.152 220.225C475.397 220.225 474.749 220.038 474.209 219.662C473.669 219.282 473.252 218.77 472.957 218.125C472.667 217.48 472.522 216.752 472.522 215.942C472.522 215.132 472.667 214.405 472.957 213.76C473.252 213.115 473.669 212.607 474.209 212.237C474.749 211.862 475.394 211.675 476.144 211.675C476.909 211.675 477.552 211.86 478.072 212.23C478.592 212.6 478.984 213.107 479.249 213.752C479.519 214.397 479.654 215.127 479.654 215.942C479.654 216.747 479.519 217.475 479.249 218.125C478.984 218.77 478.592 219.282 478.072 219.662C477.552 220.038 476.912 220.225 476.152 220.225ZM476.317 219.002C476.862 219.002 477.309 218.872 477.659 218.612C478.009 218.347 478.267 217.985 478.432 217.525C478.602 217.06 478.687 216.532 478.687 215.942C478.687 215.342 478.602 214.815 478.432 214.36C478.267 213.9 478.012 213.542 477.667 213.287C477.322 213.027 476.884 212.897 476.354 212.897C475.804 212.897 475.349 213.032 474.989 213.302C474.634 213.572 474.369 213.937 474.194 214.397C474.024 214.857 473.939 215.372 473.939 215.942C473.939 216.517 474.027 217.037 474.202 217.502C474.377 217.962 474.639 218.327 474.989 218.597C475.344 218.867 475.787 219.002 476.317 219.002ZM478.687 220V214.037H478.537V209.2H479.879V220H478.687ZM482.131 210.467V209.087H483.466V210.467H482.131ZM482.131 220V211.9H483.466V220H482.131ZM490.239 220C489.759 220.095 489.284 220.133 488.814 220.113C488.349 220.098 487.934 220.005 487.569 219.835C487.204 219.66 486.926 219.39 486.736 219.025C486.576 218.705 486.489 218.382 486.474 218.057C486.464 217.727 486.459 217.355 486.459 216.94V209.65H487.794V216.88C487.794 217.21 487.796 217.492 487.801 217.727C487.811 217.962 487.864 218.165 487.959 218.335C488.139 218.655 488.424 218.842 488.814 218.898C489.209 218.952 489.684 218.937 490.239 218.852V220ZM484.816 213.002V211.9H490.239V213.002H484.816ZM492.033 210.467V209.087H493.368V210.467H492.033ZM492.033 220V211.9H493.368V220H492.033ZM499.068 220.225C498.263 220.225 497.568 220.043 496.983 219.677C496.403 219.312 495.956 218.807 495.641 218.162C495.326 217.517 495.168 216.777 495.168 215.942C495.168 215.092 495.328 214.347 495.648 213.707C495.968 213.067 496.421 212.57 497.006 212.215C497.591 211.855 498.278 211.675 499.068 211.675C499.878 211.675 500.576 211.857 501.161 212.222C501.746 212.582 502.193 213.085 502.503 213.73C502.818 214.37 502.976 215.107 502.976 215.942C502.976 216.787 502.818 217.532 502.503 218.177C502.188 218.817 501.738 219.32 501.153 219.685C500.568 220.045 499.873 220.225 499.068 220.225ZM499.068 218.957C499.908 218.957 500.533 218.677 500.943 218.117C501.353 217.557 501.558 216.832 501.558 215.942C501.558 215.027 501.351 214.3 500.936 213.76C500.521 213.215 499.898 212.942 499.068 212.942C498.503 212.942 498.038 213.07 497.673 213.325C497.308 213.58 497.036 213.932 496.856 214.382C496.676 214.832 496.586 215.352 496.586 215.942C496.586 216.852 496.796 217.582 497.216 218.132C497.636 218.682 498.253 218.957 499.068 218.957ZM510.395 220V215.942C510.395 215.557 510.36 215.187 510.29 214.832C510.225 214.477 510.107 214.16 509.937 213.88C509.772 213.595 509.547 213.37 509.262 213.205C508.982 213.04 508.627 212.957 508.197 212.957C507.862 212.957 507.557 213.015 507.282 213.13C507.012 213.24 506.78 213.41 506.585 213.64C506.39 213.87 506.237 214.16 506.127 214.51C506.022 214.855 505.97 215.262 505.97 215.732L505.092 215.462C505.092 214.677 505.232 214.005 505.512 213.445C505.797 212.88 506.195 212.447 506.705 212.147C507.22 211.842 507.825 211.69 508.52 211.69C509.045 211.69 509.492 211.772 509.862 211.937C510.232 212.102 510.54 212.322 510.785 212.597C511.03 212.867 511.222 213.172 511.362 213.512C511.502 213.847 511.6 214.19 511.655 214.54C511.715 214.885 511.745 215.212 511.745 215.522V220H510.395ZM504.62 220V211.9H505.82V214.067H505.97V220H504.62ZM513.979 222.745L512.989 221.988C513.574 221.298 514.054 220.575 514.429 219.82C514.809 219.06 515.092 218.28 515.277 217.48C515.462 216.675 515.554 215.865 515.554 215.05C515.554 214.225 515.462 213.415 515.277 212.62C515.097 211.82 514.817 211.042 514.437 210.287C514.062 209.532 513.579 208.805 512.989 208.105L513.979 207.355C514.564 208.03 515.067 208.787 515.487 209.627C515.912 210.462 516.234 211.342 516.454 212.267C516.679 213.192 516.787 214.12 516.777 215.05C516.787 215.975 516.679 216.9 516.454 217.825C516.234 218.75 515.912 219.632 515.487 220.473C515.067 221.313 514.564 222.07 513.979 222.745Z" fill="#8F9396"/>
</g>
<path d="M347 196.5C346.448 196.5 346 196.948 346 197.5C346 198.052 346.448 198.5 347 198.5V196.5ZM384.707 198.207C385.098 197.817 385.098 197.183 384.707 196.793L378.343 190.429C377.953 190.038 377.319 190.038 376.929 190.429C376.538 190.819 376.538 191.453 376.929 191.843L382.586 197.5L376.929 203.157C376.538 203.547 376.538 204.181 376.929 204.571C377.319 204.962 377.953 204.962 378.343 204.571L384.707 198.207ZM347 198.5H384V196.5H347V198.5Z" fill="#B3B3B3"/>
<g filter="url(#filter3_d_1595_22018)">
<rect x="613" y="159" width="180" height="77" rx="36" fill="white" shape-rendering="crispEdges"/>
<path d="M680.132 197V181.748H674.24V179.72H688.16V181.748H682.268V197H680.132ZM699.299 197V190.508C699.299 189.892 699.243 189.3 699.131 188.732C699.027 188.164 698.839 187.656 698.567 187.208C698.303 186.752 697.943 186.392 697.487 186.128C697.039 185.864 696.471 185.732 695.783 185.732C695.247 185.732 694.759 185.824 694.319 186.008C693.887 186.184 693.515 186.456 693.203 186.824C692.891 187.192 692.647 187.656 692.471 188.216C692.303 188.768 692.219 189.42 692.219 190.172L690.815 189.74C690.815 188.484 691.039 187.408 691.487 186.512C691.943 185.608 692.579 184.916 693.395 184.436C694.219 183.948 695.187 183.704 696.299 183.704C697.139 183.704 697.855 183.836 698.447 184.1C699.039 184.364 699.531 184.716 699.923 185.156C700.315 185.588 700.623 186.076 700.847 186.62C701.071 187.156 701.227 187.704 701.315 188.264C701.411 188.816 701.459 189.34 701.459 189.836V197H699.299ZM690.059 197V179.72H691.979V189.26H692.219V197H690.059ZM710.194 197.36C708.922 197.36 707.81 197.08 706.858 196.52C705.914 195.952 705.178 195.164 704.65 194.156C704.122 193.14 703.858 191.956 703.858 190.604C703.858 189.188 704.118 187.964 704.638 186.932C705.158 185.892 705.882 185.092 706.81 184.532C707.746 183.964 708.842 183.68 710.098 183.68C711.402 183.68 712.51 183.98 713.422 184.58C714.342 185.18 715.03 186.036 715.486 187.148C715.95 188.26 716.15 189.584 716.086 191.12H713.926V190.352C713.902 188.76 713.578 187.572 712.954 186.788C712.33 185.996 711.402 185.6 710.17 185.6C708.85 185.6 707.846 186.024 707.158 186.872C706.47 187.72 706.126 188.936 706.126 190.52C706.126 192.048 706.47 193.232 707.158 194.072C707.846 194.912 708.826 195.332 710.098 195.332C710.954 195.332 711.698 195.136 712.33 194.744C712.962 194.352 713.458 193.788 713.818 193.052L715.87 193.76C715.366 194.904 714.606 195.792 713.59 196.424C712.582 197.048 711.45 197.36 710.194 197.36ZM705.406 191.12V189.404H714.982V191.12H705.406ZM727.635 197V190.508C727.635 189.892 727.579 189.3 727.467 188.732C727.363 188.164 727.175 187.656 726.903 187.208C726.639 186.752 726.279 186.392 725.823 186.128C725.375 185.864 724.807 185.732 724.119 185.732C723.583 185.732 723.095 185.824 722.655 186.008C722.223 186.184 721.851 186.456 721.539 186.824C721.227 187.192 720.983 187.656 720.807 188.216C720.639 188.768 720.555 189.42 720.555 190.172L719.151 189.74C719.151 188.484 719.375 187.408 719.823 186.512C720.279 185.608 720.915 184.916 721.731 184.436C722.555 183.948 723.523 183.704 724.635 183.704C725.475 183.704 726.191 183.836 726.783 184.1C727.375 184.364 727.867 184.716 728.259 185.156C728.651 185.588 728.959 186.076 729.183 186.62C729.407 187.156 729.563 187.704 729.651 188.264C729.747 188.816 729.795 189.34 729.795 189.836V197H727.635ZM718.395 197V184.04H720.315V187.508H720.555V197H718.395Z" fill="#212528"/>
<path d="M678.398 222.745C677.813 222.07 677.31 221.313 676.89 220.473C676.47 219.632 676.148 218.75 675.923 217.825C675.698 216.9 675.59 215.975 675.6 215.05C675.59 214.12 675.698 213.192 675.923 212.267C676.148 211.342 676.47 210.462 676.89 209.627C677.31 208.787 677.813 208.03 678.398 207.355L679.388 208.105C678.798 208.805 678.313 209.532 677.933 210.287C677.558 211.042 677.28 211.82 677.1 212.62C676.92 213.415 676.828 214.225 676.823 215.05C676.828 215.865 676.92 216.675 677.1 217.48C677.285 218.28 677.565 219.06 677.94 219.82C678.32 220.575 678.803 221.298 679.388 221.988L678.398 222.745ZM680.319 220L683.934 209.2H685.794L689.409 220H688.021L684.639 209.98H685.059L681.706 220H680.319ZM682.059 217.472V216.22H687.669V217.472H682.059ZM694.164 220.225C693.344 220.225 692.646 220.043 692.071 219.677C691.501 219.307 691.066 218.8 690.766 218.155C690.466 217.51 690.311 216.775 690.301 215.95C690.311 215.105 690.469 214.362 690.774 213.722C691.084 213.077 691.526 212.575 692.101 212.215C692.676 211.855 693.369 211.675 694.179 211.675C695.034 211.675 695.769 211.885 696.384 212.305C697.004 212.725 697.419 213.3 697.629 214.03L696.309 214.427C696.139 213.957 695.861 213.592 695.476 213.332C695.096 213.072 694.659 212.942 694.164 212.942C693.609 212.942 693.151 213.072 692.791 213.332C692.431 213.587 692.164 213.942 691.989 214.397C691.814 214.847 691.724 215.365 691.719 215.95C691.729 216.85 691.936 217.577 692.341 218.132C692.751 218.682 693.359 218.957 694.164 218.957C694.694 218.957 695.134 218.837 695.484 218.597C695.834 218.352 696.099 218 696.279 217.54L697.629 217.892C697.349 218.647 696.911 219.225 696.316 219.625C695.721 220.025 695.004 220.225 694.164 220.225ZM703.682 220C703.202 220.095 702.727 220.133 702.257 220.113C701.792 220.098 701.377 220.005 701.012 219.835C700.647 219.66 700.369 219.39 700.179 219.025C700.019 218.705 699.932 218.382 699.917 218.057C699.907 217.727 699.902 217.355 699.902 216.94V209.65H701.237V216.88C701.237 217.21 701.239 217.492 701.244 217.727C701.254 217.962 701.307 218.165 701.402 218.335C701.582 218.655 701.867 218.842 702.257 218.898C702.652 218.952 703.127 218.937 703.682 218.852V220ZM698.259 213.002V211.9H703.682V213.002H698.259ZM705.476 210.467V209.087H706.811V210.467H705.476ZM705.476 220V211.9H706.811V220H705.476ZM712.512 220.225C711.707 220.225 711.012 220.043 710.427 219.677C709.847 219.312 709.399 218.807 709.084 218.162C708.769 217.517 708.612 216.777 708.612 215.942C708.612 215.092 708.772 214.347 709.092 213.707C709.412 213.067 709.864 212.57 710.449 212.215C711.034 211.855 711.722 211.675 712.512 211.675C713.322 211.675 714.019 211.857 714.604 212.222C715.189 212.582 715.637 213.085 715.947 213.73C716.262 214.37 716.419 215.107 716.419 215.942C716.419 216.787 716.262 217.532 715.947 218.177C715.632 218.817 715.182 219.32 714.597 219.685C714.012 220.045 713.317 220.225 712.512 220.225ZM712.512 218.957C713.352 218.957 713.977 218.677 714.387 218.117C714.797 217.557 715.002 216.832 715.002 215.942C715.002 215.027 714.794 214.3 714.379 213.76C713.964 213.215 713.342 212.942 712.512 212.942C711.947 212.942 711.482 213.07 711.117 213.325C710.752 213.58 710.479 213.932 710.299 214.382C710.119 214.832 710.029 215.352 710.029 215.942C710.029 216.852 710.239 217.582 710.659 218.132C711.079 218.682 711.697 218.957 712.512 218.957ZM723.838 220V215.942C723.838 215.557 723.803 215.187 723.733 214.832C723.668 214.477 723.551 214.16 723.381 213.88C723.216 213.595 722.991 213.37 722.706 213.205C722.426 213.04 722.071 212.957 721.641 212.957C721.306 212.957 721.001 213.015 720.726 213.13C720.456 213.24 720.223 213.41 720.028 213.64C719.833 213.87 719.681 214.16 719.571 214.51C719.466 214.855 719.413 215.262 719.413 215.732L718.536 215.462C718.536 214.677 718.676 214.005 718.956 213.445C719.241 212.88 719.638 212.447 720.148 212.147C720.663 211.842 721.268 211.69 721.963 211.69C722.488 211.69 722.936 211.772 723.306 211.937C723.676 212.102 723.983 212.322 724.228 212.597C724.473 212.867 724.666 213.172 724.806 213.512C724.946 213.847 725.043 214.19 725.098 214.54C725.158 214.885 725.188 215.212 725.188 215.522V220H723.838ZM718.063 220V211.9H719.263V214.067H719.413V220H718.063ZM727.422 222.745L726.432 221.988C727.017 221.298 727.497 220.575 727.872 219.82C728.252 219.06 728.535 218.28 728.72 217.48C728.905 216.675 728.997 215.865 728.997 215.05C728.997 214.225 728.905 213.415 728.72 212.62C728.54 211.82 728.26 211.042 727.88 210.287C727.505 209.532 727.022 208.805 726.432 208.105L727.422 207.355C728.007 208.03 728.51 208.787 728.93 209.627C729.355 210.462 729.677 211.342 729.897 212.267C730.122 213.192 730.23 214.12 730.22 215.05C730.23 215.975 730.122 216.9 729.897 217.825C729.677 218.75 729.355 219.632 728.93 220.473C728.51 221.313 728.007 222.07 727.422 222.745Z" fill="#8F9396"/>
</g>
<path d="M572 196.5C571.448 196.5 571 196.948 571 197.5C571 198.052 571.448 198.5 572 198.5V196.5ZM609.707 198.207C610.098 197.817 610.098 197.183 609.707 196.793L603.343 190.429C602.953 190.038 602.319 190.038 601.929 190.429C601.538 190.819 601.538 191.453 601.929 191.843L607.586 197.5L601.929 203.157C601.538 203.547 601.538 204.181 601.929 204.571C602.319 204.962 602.953 204.962 603.343 204.571L609.707 198.207ZM572 198.5H609V196.5H572V198.5Z" fill="#B3B3B3"/>
</g>
<defs>
<filter id="filter0_d_1595_22018" x="670" y="268" width="177.722" height="54.1772" filterUnits="userSpaceOnUse" color-interpolation-filters="sRGB">
<feFlood flood-opacity="0" result="BackgroundImageFix"/>
<feColorMatrix in="SourceAlpha" type="matrix" values="0 0 0 0 0 0 0 0 0 0 0 0 0 0 0 0 0 0 127 0" result="hardAlpha"/>
<feOffset dy="4"/>
<feGaussianBlur stdDeviation="2"/>
<feComposite in2="hardAlpha" operator="out"/>
<feColorMatrix type="matrix" values="0 0 0 0 0 0 0 0 0 0 0 0 0 0 0 0 0 0 0.25 0"/>
<feBlend mode="normal" in2="BackgroundImageFix" result="effect1_dropShadow_1595_22018"/>
<feBlend mode="normal" in="SourceGraphic" in2="effect1_dropShadow_1595_22018" result="shape"/>
</filter>
<filter id="filter1_d_1595_22018" x="157" y="159" width="192" height="89" filterUnits="userSpaceOnUse" color-interpolation-filters="sRGB">
<feFlood flood-opacity="0" result="BackgroundImageFix"/>
<feColorMatrix in="SourceAlpha" type="matrix" values="0 0 0 0 0 0 0 0 0 0 0 0 0 0 0 0 0 0 127 0" result="hardAlpha"/>
<feOffset dy="6"/>
<feGaussianBlur stdDeviation="3"/>
<feComposite in2="hardAlpha" operator="out"/>
<feColorMatrix type="matrix" values="0 0 0 0 0 0 0 0 0 0 0 0 0 0 0 0 0 0 0.25 0"/>
<feBlend mode="normal" in2="BackgroundImageFix" result="effect1_dropShadow_1595_22018"/>
<feBlend mode="normal" in="SourceGraphic" in2="effect1_dropShadow_1595_22018" result="shape"/>
</filter>
<filter id="filter2_d_1595_22018" x="382" y="159" width="192" height="89" filterUnits="userSpaceOnUse" color-interpolation-filters="sRGB">
<feFlood flood-opacity="0" result="BackgroundImageFix"/>
<feColorMatrix in="SourceAlpha" type="matrix" values="0 0 0 0 0 0 0 0 0 0 0 0 0 0 0 0 0 0 127 0" result="hardAlpha"/>
<feOffset dy="6"/>
<feGaussianBlur stdDeviation="3"/>
<feComposite in2="hardAlpha" operator="out"/>
<feColorMatrix type="matrix" values="0 0 0 0 0 0 0 0 0 0 0 0 0 0 0 0 0 0 0.25 0"/>
<feBlend mode="normal" in2="BackgroundImageFix" result="effect1_dropShadow_1595_22018"/>
<feBlend mode="normal" in="SourceGraphic" in2="effect1_dropShadow_1595_22018" result="shape"/>
</filter>
<filter id="filter3_d_1595_22018" x="607" y="159" width="192" height="89" filterUnits="userSpaceOnUse" color-interpolation-filters="sRGB">
<feFlood flood-opacity="0" result="BackgroundImageFix"/>
<feColorMatrix in="SourceAlpha" type="matrix" values="0 0 0 0 0 0 0 0 0 0 0 0 0 0 0 0 0 0 127 0" result="hardAlpha"/>
<feOffset dy="6"/>
<feGaussianBlur stdDeviation="3"/>
<feComposite in2="hardAlpha" operator="out"/>
<feColorMatrix type="matrix" values="0 0 0 0 0 0 0 0 0 0 0 0 0 0 0 0 0 0 0.25 0"/>
<feBlend mode="normal" in2="BackgroundImageFix" result="effect1_dropShadow_1595_22018"/>
<feBlend mode="normal" in="SourceGraphic" in2="effect1_dropShadow_1595_22018" result="shape"/>
</filter>
<clipPath id="clip0_1595_22018">
<rect width="956" height="394.227" fill="white"/>
</clipPath>
</defs>
</svg>
