<svg width="611" height="458" viewBox="0 0 611 458" fill="none" xmlns="http://www.w3.org/2000/svg">
<path d="M86.8215 32.0298C83.3945 34.3135 83.1406 39.0077 86.3138 41.7988C89.2332 44.4631 92.1525 44.5899 94.6911 41.9257C98.372 38.2464 95.9603 29.9999 91.264 29.9999C90.3755 29.9999 88.3447 30.888 86.8215 32.0298Z" fill="#DBEAF6"/>
<path d="M81.11 46.1124C80.8561 46.6199 78.6983 52.7096 76.5406 59.4338C72.225 72.2476 71.9712 76.3075 75.1444 76.3075C76.4136 76.3075 77.8098 73.2626 79.5868 67.046C80.983 62.098 82.5062 57.9113 83.0139 57.9113C85.0447 57.9113 83.9024 66.7922 80.2215 78.2105C78.1906 84.8078 76.4136 90.6438 76.4136 91.1513C76.4136 91.7856 78.0637 92.1662 80.0945 92.1662C83.6485 92.1662 83.9024 92.5468 84.6639 98.1291C86.314 109.928 87.0756 111.831 90.6296 112.212C94.1835 112.592 94.1835 112.592 96.2144 98.1291C96.9759 92.5468 97.2298 92.1662 100.657 92.1662C105.226 92.1662 105.226 91.5319 100.53 77.5762C96.849 66.5385 95.8336 60.4487 97.6106 58.7994C97.9914 58.2919 99.7684 62.2249 101.418 67.4266C104.465 76.9418 105.48 78.3374 107.765 75.2925C108.653 74.2776 107.638 69.3296 104.465 59.8144L99.8953 45.8587L90.7565 45.478C85.8063 45.2243 81.4908 45.6049 81.11 46.1124Z" fill="#DBEAF6"/>
<path d="M177.707 348.03C176.184 349.045 174.915 351.329 174.915 352.978C174.915 356.023 179.104 359.956 182.15 359.956C184.435 359.956 188.877 355.262 188.877 352.978C188.877 350.694 184.435 346 182.15 346C181.261 346 179.231 346.888 177.707 348.03Z" fill="#DBEAF6"/>
<path d="M171.488 364.016C170.853 365.665 168.568 372.262 166.664 378.732C164.126 387.106 163.491 390.912 164.38 391.8C166.664 394.084 168.188 392.181 171.234 382.539C174.153 373.658 174.28 373.531 174.661 377.971C174.915 380.762 173.519 387.74 171.361 394.718C169.33 401.315 167.934 407.151 168.315 407.532C168.695 407.913 170.345 408.166 171.995 408.166C173.645 408.166 174.915 408.293 175.042 408.42C175.042 408.674 175.803 413.114 176.565 418.316C177.961 427.324 178.215 427.831 181.642 428.212C183.546 428.466 185.069 428.466 185.196 428.212C185.196 427.958 185.957 423.518 186.719 418.316C188.115 409.308 188.369 408.801 191.796 408.42C193.7 408.166 195.223 407.405 195.223 406.644C195.223 405.883 193.446 399.666 191.288 392.688C188.369 383.173 187.734 379.24 188.623 376.703C189.638 373.658 189.892 374.038 192.05 381.904C194.462 390.912 196.873 394.337 199.158 392.054C200.554 390.658 193.7 366.299 191.035 362.747C190.273 361.859 186.592 361.224 181.261 361.224C173.645 361.224 172.63 361.478 171.488 364.016Z" fill="#DBEAF6"/>
<path d="M103.498 252.242C101.594 255.16 101.594 255.667 103.498 258.585C106.925 263.66 115.683 261.757 115.683 255.921C115.683 248.943 107.305 246.406 103.498 252.242Z" fill="#DBEAF6"/>
<path d="M99.3091 265.182C97.1513 269.496 90.2972 292.586 91.0588 293.601C93.0896 297.027 95.5012 294.109 98.1667 285.101C100.705 276.601 101.086 275.839 102.101 278.757C102.863 281.168 102.101 285.355 99.1821 294.87C97.0244 301.975 95.5012 308.445 95.882 309.46C96.2628 310.475 97.9129 311.236 99.6898 311.236C102.609 311.236 102.863 311.871 103.625 319.356C104.64 328.998 105.529 330.647 109.463 330.013C112.383 329.632 113.525 326.461 115.556 312.124C115.683 311.617 117.079 311.236 118.729 311.236C120.506 311.236 122.156 310.729 122.537 310.221C122.918 309.587 121.394 303.624 119.364 296.773C117.079 289.415 115.683 282.564 115.937 279.772C116.444 274.571 116.952 275.205 120.379 286.497C121.902 291.571 123.425 294.236 124.948 294.489C126.345 294.743 127.106 294.109 127.106 292.713C127.106 289.668 119.618 266.578 117.967 264.675C117.206 263.66 113.525 263.026 108.575 263.026C102.228 263.026 100.324 263.533 99.3091 265.182Z" fill="#DBEAF6"/>
<path d="M159.947 129.522C156.52 132.948 159.566 140.687 164.262 140.687C168.197 140.687 171.116 138.023 171.116 134.597C171.116 130.157 169.085 128 164.77 128C162.993 128 160.835 128.634 159.947 129.522Z" fill="#DBEAF6"/>
<path d="M155.631 144.112C153.854 146.269 147 168.598 147 172.278C147 173.166 147.888 173.673 149.158 173.419C150.427 173.166 152.331 169.994 154.108 164.792L156.9 156.546L157.027 163.016C157.154 166.568 156.012 178.114 154.616 188.771C153.093 199.301 152.331 208.562 152.712 209.197C153.981 211.227 158.297 210.592 159.566 208.182C160.2 207.04 161.343 199.428 162.231 191.435C163.12 183.442 164.262 176.337 164.77 175.83C165.151 175.323 166.42 181.539 167.308 189.786C168.197 198.032 169.339 206.025 169.974 207.548C171.243 210.846 175.813 211.48 176.955 208.562C177.336 207.548 176.574 198.032 175.051 187.248C173.528 176.591 172.386 165.3 172.512 162.255L172.639 156.546L175.305 164.412C178.605 173.546 180.763 176.464 182.032 173.166C183.047 170.628 176.32 146.016 173.909 143.732C171.243 141.068 158.043 141.448 155.631 144.112Z" fill="#DBEAF6"/>
<path d="M318.546 94.1394C317.994 94.1394 317.546 94.5871 317.546 95.1394C317.546 95.6917 317.994 96.1394 318.546 96.1394V94.1394ZM378.85 95.8465C379.241 95.456 379.241 94.8228 378.85 94.4323L372.486 88.0683C372.096 87.6778 371.463 87.6778 371.072 88.0683C370.682 88.4589 370.682 89.092 371.072 89.4826L376.729 95.1394L371.072 100.796C370.682 101.187 370.682 101.82 371.072 102.21C371.463 102.601 372.096 102.601 372.486 102.21L378.85 95.8465ZM318.546 96.1394H378.143V94.1394H318.546V96.1394Z" fill="#B3B3B3"/>
<path d="M348.276 184.18C347.724 184.18 347.276 184.628 347.276 185.18C347.276 185.732 347.724 186.18 348.276 186.18V184.18ZM408.581 185.887C408.971 185.497 408.971 184.863 408.581 184.473L402.217 178.109C401.826 177.718 401.193 177.718 400.802 178.109C400.412 178.499 400.412 179.133 400.802 179.523L406.459 185.18L400.802 190.837C400.412 191.227 400.412 191.86 400.802 192.251C401.193 192.642 401.826 192.642 402.217 192.251L408.581 185.887ZM348.276 186.18H407.874V184.18H348.276V186.18Z" fill="#B3B3B3"/>
<rect x="237" y="79.8494" width="68.182" height="30.5798" rx="6.79551" fill="#1E75BA"/>
<path d="M251.541 99.6394V90.9906H254.624C255.297 90.9906 255.854 91.113 256.296 91.358C256.738 91.6029 257.069 91.9379 257.289 92.3631C257.508 92.7854 257.618 93.2612 257.618 93.7905C257.618 94.3226 257.507 94.8012 257.285 95.2263C257.065 95.6486 256.733 95.9836 256.288 96.2314C255.846 96.4763 255.29 96.5988 254.62 96.5988H252.5V95.4924H254.502C254.927 95.4924 255.272 95.4192 255.536 95.2728C255.801 95.1235 255.995 94.9208 256.119 94.6646C256.243 94.4084 256.305 94.117 256.305 93.7905C256.305 93.4639 256.243 93.1739 256.119 92.9205C255.995 92.6671 255.8 92.4686 255.532 92.3251C255.267 92.1815 254.918 92.1097 254.485 92.1097H252.846V99.6394H251.541ZM259.047 99.6394V93.1528H260.267V94.1832H260.335C260.453 93.8341 260.661 93.5596 260.96 93.3597C261.261 93.157 261.602 93.0557 261.982 93.0557C262.061 93.0557 262.153 93.0585 262.26 93.0641C262.37 93.0697 262.456 93.0768 262.518 93.0852V94.293C262.467 94.2789 262.377 94.2634 262.248 94.2466C262.118 94.2268 261.989 94.217 261.859 94.217C261.561 94.217 261.295 94.2803 261.061 94.407C260.83 94.5309 260.647 94.7041 260.512 94.9265C260.377 95.1461 260.309 95.3966 260.309 95.6782V99.6394H259.047ZM266.174 99.7703C265.535 99.7703 264.985 99.6338 264.523 99.3607C264.064 99.0848 263.709 98.6977 263.459 98.1993C263.211 97.6982 263.087 97.1112 263.087 96.4383C263.087 95.7739 263.211 95.1883 263.459 94.6815C263.709 94.1748 264.058 93.7792 264.506 93.4948C264.957 93.2105 265.483 93.0683 266.085 93.0683C266.451 93.0683 266.806 93.1289 267.15 93.2499C267.493 93.371 267.801 93.561 268.075 93.82C268.348 94.079 268.563 94.4155 268.721 94.8293C268.878 95.2404 268.957 95.7401 268.957 96.3285V96.7762H263.801V95.8302H267.72C267.72 95.498 267.652 95.2038 267.517 94.9476C267.382 94.6886 267.192 94.4845 266.947 94.3352C266.705 94.186 266.421 94.1114 266.094 94.1114C265.739 94.1114 265.429 94.1987 265.165 94.3732C264.903 94.545 264.7 94.7702 264.557 95.0489C264.416 95.3248 264.346 95.6247 264.346 95.9484V96.6875C264.346 97.1211 264.422 97.4899 264.574 97.7939C264.728 98.098 264.944 98.3303 265.22 98.4907C265.496 98.6484 265.818 98.7272 266.187 98.7272C266.426 98.7272 266.644 98.6934 266.841 98.6259C267.038 98.5555 267.209 98.4513 267.352 98.3134C267.496 98.1754 267.606 98.0051 267.682 97.8024L268.877 98.0177C268.781 98.3697 268.609 98.678 268.362 98.9426C268.117 99.2044 267.808 99.4085 267.437 99.5549C267.068 99.6985 266.647 99.7703 266.174 99.7703ZM275.219 94.7364L274.074 94.9391C274.027 94.7927 273.951 94.6534 273.846 94.5211C273.745 94.3887 273.607 94.2803 273.433 94.1959C273.258 94.1114 273.04 94.0692 272.778 94.0692C272.42 94.0692 272.122 94.1494 271.883 94.3099C271.643 94.4676 271.524 94.6717 271.524 94.9222C271.524 95.139 271.604 95.3136 271.764 95.4459C271.925 95.5782 272.184 95.6866 272.541 95.7711L273.572 96.0076C274.169 96.1455 274.614 96.3581 274.906 96.6453C275.199 96.9324 275.346 97.3055 275.346 97.7644C275.346 98.1529 275.233 98.4992 275.008 98.8032C274.785 99.1045 274.474 99.341 274.074 99.5127C273.677 99.6845 273.217 99.7703 272.694 99.7703C271.967 99.7703 271.375 99.6155 270.916 99.3058C270.457 98.9933 270.175 98.5499 270.071 97.9755L271.291 97.7897C271.367 98.1078 271.524 98.3486 271.76 98.5118C271.997 98.6723 272.305 98.7526 272.685 98.7526C273.099 98.7526 273.43 98.6667 273.677 98.495C273.925 98.3204 274.049 98.1078 274.049 97.8573C274.049 97.6546 273.973 97.4842 273.821 97.3463C273.672 97.2083 273.442 97.1042 273.133 97.0338L272.035 96.7931C271.429 96.6551 270.982 96.4355 270.692 96.1343C270.405 95.833 270.261 95.4515 270.261 94.9898C270.261 94.6069 270.368 94.2719 270.582 93.9847C270.796 93.6976 271.092 93.4737 271.469 93.3133C271.846 93.15 272.278 93.0683 272.765 93.0683C273.466 93.0683 274.018 93.2204 274.421 93.5244C274.823 93.8257 275.089 94.2297 275.219 94.7364ZM281.595 94.7364L280.45 94.9391C280.402 94.7927 280.326 94.6534 280.222 94.5211C280.121 94.3887 279.983 94.2803 279.808 94.1959C279.634 94.1114 279.416 94.0692 279.154 94.0692C278.796 94.0692 278.498 94.1494 278.258 94.3099C278.019 94.4676 277.899 94.6717 277.899 94.9222C277.899 95.139 277.98 95.3136 278.14 95.4459C278.301 95.5782 278.56 95.6866 278.917 95.7711L279.948 96.0076C280.545 96.1455 280.989 96.3581 281.282 96.6453C281.575 96.9324 281.721 97.3055 281.721 97.7644C281.721 98.1529 281.609 98.4992 281.384 98.8032C281.161 99.1045 280.85 99.341 280.45 99.5127C280.053 99.6845 279.593 99.7703 279.069 99.7703C278.343 99.7703 277.75 99.6155 277.291 99.3058C276.832 98.9933 276.551 98.5499 276.447 97.9755L277.667 97.7897C277.743 98.1078 277.899 98.3486 278.136 98.5118C278.372 98.6723 278.681 98.7526 279.061 98.7526C279.475 98.7526 279.806 98.6667 280.053 98.495C280.301 98.3204 280.425 98.1078 280.425 97.8573C280.425 97.6546 280.349 97.4842 280.197 97.3463C280.048 97.2083 279.818 97.1042 279.508 97.0338L278.41 96.7931C277.805 96.6551 277.358 96.4355 277.068 96.1343C276.78 95.833 276.637 95.4515 276.637 94.9898C276.637 94.6069 276.744 94.2719 276.958 93.9847C277.172 93.6976 277.467 93.4737 277.845 93.3133C278.222 93.15 278.654 93.0683 279.141 93.0683C279.842 93.0683 280.394 93.2204 280.797 93.5244C281.199 93.8257 281.465 94.2297 281.595 94.7364ZM289.521 90.9906V99.6394H288.212V92.2997H288.162L286.092 93.6511V92.4011L288.25 90.9906H289.521Z" fill="white"/>
<rect x="273.526" y="169.89" width="70.182" height="30.5798" rx="6.79551" fill="#1E75BA"/>
<path d="M288.067 189.68V181.031H291.15C291.823 181.031 292.38 181.154 292.822 181.399C293.264 181.643 293.595 181.978 293.815 182.404C294.034 182.826 294.144 183.302 294.144 183.831C294.144 184.363 294.033 184.842 293.81 185.267C293.591 185.689 293.259 186.024 292.814 186.272C292.372 186.517 291.816 186.639 291.146 186.639H289.026V185.533H291.027C291.453 185.533 291.798 185.46 292.062 185.313C292.327 185.164 292.521 184.961 292.645 184.705C292.769 184.449 292.831 184.158 292.831 183.831C292.831 183.504 292.769 183.214 292.645 182.961C292.521 182.708 292.325 182.509 292.058 182.366C291.793 182.222 291.444 182.15 291.011 182.15H289.372V189.68H288.067ZM295.573 189.68V183.193H296.793V184.224H296.861C296.979 183.875 297.187 183.6 297.486 183.4C297.787 183.198 298.128 183.096 298.508 183.096C298.586 183.096 298.679 183.099 298.786 183.105C298.896 183.11 298.982 183.117 299.044 183.126V184.334C298.993 184.319 298.903 184.304 298.774 184.287C298.644 184.267 298.515 184.258 298.385 184.258C298.087 184.258 297.821 184.321 297.587 184.448C297.356 184.571 297.173 184.745 297.038 184.967C296.903 185.187 296.835 185.437 296.835 185.719V189.68H295.573ZM302.7 189.811C302.061 189.811 301.511 189.674 301.049 189.401C300.59 189.125 300.235 188.738 299.985 188.24C299.737 187.739 299.613 187.152 299.613 186.479C299.613 185.814 299.737 185.229 299.985 184.722C300.235 184.215 300.584 183.82 301.032 183.535C301.482 183.251 302.009 183.109 302.611 183.109C302.977 183.109 303.332 183.169 303.676 183.29C304.019 183.411 304.327 183.602 304.6 183.861C304.874 184.12 305.089 184.456 305.247 184.87C305.404 185.281 305.483 185.781 305.483 186.369V186.817H300.327V185.871H304.246C304.246 185.539 304.178 185.244 304.043 184.988C303.908 184.729 303.718 184.525 303.473 184.376C303.231 184.227 302.946 184.152 302.62 184.152C302.265 184.152 301.955 184.239 301.691 184.414C301.429 184.586 301.226 184.811 301.083 185.089C300.942 185.365 300.871 185.665 300.871 185.989V186.728C300.871 187.162 300.947 187.53 301.1 187.834C301.254 188.139 301.47 188.371 301.746 188.531C302.022 188.689 302.344 188.768 302.713 188.768C302.952 188.768 303.17 188.734 303.367 188.666C303.564 188.596 303.735 188.492 303.878 188.354C304.022 188.216 304.132 188.046 304.208 187.843L305.403 188.058C305.307 188.41 305.135 188.718 304.888 188.983C304.643 189.245 304.334 189.449 303.963 189.595C303.594 189.739 303.173 189.811 302.7 189.811ZM311.745 184.777L310.6 184.98C310.552 184.833 310.476 184.694 310.372 184.562C310.271 184.429 310.133 184.321 309.958 184.236C309.784 184.152 309.566 184.11 309.304 184.11C308.946 184.11 308.648 184.19 308.409 184.35C308.169 184.508 308.05 184.712 308.05 184.963C308.05 185.18 308.13 185.354 308.29 185.486C308.451 185.619 308.71 185.727 309.067 185.812L310.098 186.048C310.695 186.186 311.139 186.399 311.432 186.686C311.725 186.973 311.871 187.346 311.871 187.805C311.871 188.193 311.759 188.54 311.534 188.844C311.311 189.145 311 189.382 310.6 189.553C310.203 189.725 309.743 189.811 309.219 189.811C308.493 189.811 307.9 189.656 307.441 189.346C306.983 189.034 306.701 188.59 306.597 188.016L307.817 187.83C307.893 188.148 308.05 188.389 308.286 188.552C308.523 188.713 308.831 188.793 309.211 188.793C309.625 188.793 309.956 188.707 310.203 188.535C310.451 188.361 310.575 188.148 310.575 187.898C310.575 187.695 310.499 187.525 310.347 187.387C310.198 187.249 309.968 187.145 309.659 187.074L308.561 186.834C307.955 186.696 307.508 186.476 307.218 186.175C306.93 185.874 306.787 185.492 306.787 185.03C306.787 184.647 306.894 184.312 307.108 184.025C307.322 183.738 307.617 183.514 307.995 183.354C308.372 183.19 308.804 183.109 309.291 183.109C309.992 183.109 310.544 183.261 310.947 183.565C311.349 183.866 311.615 184.27 311.745 184.777ZM318.121 184.777L316.976 184.98C316.928 184.833 316.852 184.694 316.748 184.562C316.647 184.429 316.509 184.321 316.334 184.236C316.16 184.152 315.941 184.11 315.68 184.11C315.322 184.11 315.024 184.19 314.784 184.35C314.545 184.508 314.425 184.712 314.425 184.963C314.425 185.18 314.506 185.354 314.666 185.486C314.827 185.619 315.086 185.727 315.443 185.812L316.474 186.048C317.07 186.186 317.515 186.399 317.808 186.686C318.101 186.973 318.247 187.346 318.247 187.805C318.247 188.193 318.135 188.54 317.909 188.844C317.687 189.145 317.376 189.382 316.976 189.553C316.579 189.725 316.119 189.811 315.595 189.811C314.869 189.811 314.276 189.656 313.817 189.346C313.358 189.034 313.077 188.59 312.973 188.016L314.193 187.83C314.269 188.148 314.425 188.389 314.662 188.552C314.898 188.713 315.207 188.793 315.587 188.793C316.001 188.793 316.331 188.707 316.579 188.535C316.827 188.361 316.951 188.148 316.951 187.898C316.951 187.695 316.875 187.525 316.723 187.387C316.574 187.249 316.344 187.145 316.034 187.074L314.936 186.834C314.331 186.696 313.883 186.476 313.593 186.175C313.306 185.874 313.163 185.492 313.163 185.03C313.163 184.647 313.27 184.312 313.484 184.025C313.698 183.738 313.993 183.514 314.37 183.354C314.748 183.19 315.18 183.109 315.667 183.109C316.368 183.109 316.92 183.261 317.322 183.565C317.725 183.866 317.991 184.27 318.121 184.777ZM322.766 189.68V188.734L325.693 185.702C326.005 185.372 326.263 185.084 326.465 184.836C326.671 184.586 326.824 184.348 326.926 184.122C327.027 183.897 327.078 183.658 327.078 183.404C327.078 183.117 327.01 182.87 326.875 182.661C326.74 182.45 326.555 182.288 326.322 182.176C326.088 182.06 325.825 182.002 325.532 182.002C325.222 182.002 324.952 182.066 324.721 182.192C324.49 182.319 324.313 182.498 324.189 182.729C324.065 182.96 324.003 183.23 324.003 183.54H322.757C322.757 183.013 322.879 182.553 323.121 182.159C323.363 181.765 323.695 181.459 324.117 181.242C324.54 181.023 325.02 180.913 325.557 180.913C326.101 180.913 326.579 181.021 326.993 181.238C327.41 181.452 327.735 181.745 327.969 182.116C328.202 182.485 328.319 182.902 328.319 183.366C328.319 183.687 328.259 184.001 328.138 184.308C328.019 184.615 327.812 184.957 327.517 185.334C327.221 185.709 326.81 186.164 326.284 186.698L324.565 188.497V188.561H328.459V189.68H322.766Z" fill="white"/>
<rect x="250.591" y="248.038" width="70.182" height="30.5798" rx="6.79551" fill="#1E75BA"/>
<path d="M265.132 267.828V259.18H268.215C268.888 259.18 269.445 259.302 269.887 259.547C270.329 259.792 270.66 260.127 270.88 260.552C271.1 260.974 271.209 261.45 271.209 261.979C271.209 262.512 271.098 262.99 270.876 263.415C270.656 263.838 270.324 264.173 269.879 264.42C269.437 264.665 268.881 264.788 268.211 264.788H266.091V263.681H268.093C268.518 263.681 268.863 263.608 269.127 263.462C269.392 263.313 269.586 263.11 269.71 262.854C269.834 262.597 269.896 262.306 269.896 261.979C269.896 261.653 269.834 261.363 269.71 261.109C269.586 260.856 269.391 260.658 269.123 260.514C268.858 260.37 268.509 260.299 268.076 260.299H266.437V267.828H265.132ZM272.638 267.828V261.342H273.858V262.372H273.926C274.044 262.023 274.252 261.749 274.551 261.549C274.852 261.346 275.193 261.245 275.573 261.245C275.652 261.245 275.745 261.247 275.852 261.253C275.961 261.259 276.047 261.266 276.109 261.274V262.482C276.058 262.468 275.968 262.452 275.839 262.436C275.709 262.416 275.58 262.406 275.45 262.406C275.152 262.406 274.886 262.469 274.652 262.596C274.421 262.72 274.238 262.893 274.103 263.115C273.968 263.335 273.9 263.586 273.9 263.867V267.828H272.638ZM279.765 267.959C279.126 267.959 278.576 267.823 278.114 267.55C277.655 267.274 277.3 266.887 277.05 266.388C276.802 265.887 276.678 265.3 276.678 264.627C276.678 263.963 276.802 263.377 277.05 262.87C277.3 262.364 277.649 261.968 278.097 261.684C278.548 261.399 279.074 261.257 279.677 261.257C280.043 261.257 280.397 261.318 280.741 261.439C281.084 261.56 281.393 261.75 281.666 262.009C281.939 262.268 282.154 262.604 282.312 263.018C282.469 263.429 282.548 263.929 282.548 264.517V264.965H277.392V264.019H281.311C281.311 263.687 281.243 263.393 281.108 263.137C280.973 262.878 280.783 262.673 280.538 262.524C280.296 262.375 280.012 262.3 279.685 262.3C279.33 262.3 279.021 262.388 278.756 262.562C278.494 262.734 278.291 262.959 278.148 263.238C278.007 263.514 277.937 263.814 277.937 264.137V264.876C277.937 265.31 278.013 265.679 278.165 265.983C278.32 266.287 278.535 266.519 278.811 266.68C279.087 266.837 279.409 266.916 279.778 266.916C280.017 266.916 280.235 266.882 280.432 266.815C280.63 266.744 280.8 266.64 280.943 266.502C281.087 266.364 281.197 266.194 281.273 265.991L282.468 266.207C282.372 266.559 282.201 266.867 281.953 267.132C281.708 267.393 281.4 267.598 281.028 267.744C280.659 267.887 280.238 267.959 279.765 267.959ZM288.81 262.925L287.666 263.128C287.618 262.982 287.542 262.842 287.437 262.71C287.336 262.578 287.198 262.469 287.024 262.385C286.849 262.3 286.631 262.258 286.369 262.258C286.011 262.258 285.713 262.338 285.474 262.499C285.234 262.657 285.115 262.861 285.115 263.111C285.115 263.328 285.195 263.503 285.356 263.635C285.516 263.767 285.775 263.876 286.133 263.96L287.163 264.197C287.76 264.334 288.205 264.547 288.497 264.834C288.79 265.121 288.937 265.494 288.937 265.953C288.937 266.342 288.824 266.688 288.599 266.992C288.376 267.293 288.065 267.53 287.666 267.702C287.269 267.873 286.808 267.959 286.285 267.959C285.558 267.959 284.966 267.804 284.507 267.495C284.048 267.182 283.766 266.739 283.662 266.164L284.883 265.979C284.959 266.297 285.115 266.538 285.351 266.701C285.588 266.861 285.896 266.942 286.276 266.942C286.69 266.942 287.021 266.856 287.269 266.684C287.516 266.509 287.64 266.297 287.64 266.046C287.64 265.844 287.564 265.673 287.412 265.535C287.263 265.397 287.033 265.293 286.724 265.223L285.626 264.982C285.02 264.844 284.573 264.624 284.283 264.323C283.996 264.022 283.852 263.64 283.852 263.179C283.852 262.796 283.959 262.461 284.173 262.174C284.387 261.887 284.683 261.663 285.06 261.502C285.437 261.339 285.869 261.257 286.356 261.257C287.057 261.257 287.609 261.409 288.012 261.713C288.414 262.015 288.68 262.419 288.81 262.925ZM295.186 262.925L294.041 263.128C293.993 262.982 293.917 262.842 293.813 262.71C293.712 262.578 293.574 262.469 293.399 262.385C293.225 262.3 293.007 262.258 292.745 262.258C292.387 262.258 292.089 262.338 291.85 262.499C291.61 262.657 291.491 262.861 291.491 263.111C291.491 263.328 291.571 263.503 291.731 263.635C291.892 263.767 292.151 263.876 292.508 263.96L293.539 264.197C294.136 264.334 294.58 264.547 294.873 264.834C295.166 265.121 295.312 265.494 295.312 265.953C295.312 266.342 295.2 266.688 294.975 266.992C294.752 267.293 294.441 267.53 294.041 267.702C293.644 267.873 293.184 267.959 292.66 267.959C291.934 267.959 291.341 267.804 290.882 267.495C290.424 267.182 290.142 266.739 290.038 266.164L291.258 265.979C291.334 266.297 291.491 266.538 291.727 266.701C291.964 266.861 292.272 266.942 292.652 266.942C293.066 266.942 293.397 266.856 293.644 266.684C293.892 266.509 294.016 266.297 294.016 266.046C294.016 265.844 293.94 265.673 293.788 265.535C293.639 265.397 293.409 265.293 293.1 265.223L292.002 264.982C291.396 264.844 290.949 264.624 290.659 264.323C290.371 264.022 290.228 263.64 290.228 263.179C290.228 262.796 290.335 262.461 290.549 262.174C290.763 261.887 291.058 261.663 291.436 261.502C291.813 261.339 292.245 261.257 292.732 261.257C293.433 261.257 293.985 261.409 294.388 261.713C294.79 262.015 295.056 262.419 295.186 262.925ZM302.842 267.947C302.262 267.947 301.744 267.847 301.288 267.647C300.835 267.447 300.476 267.17 300.211 266.815C299.949 266.457 299.809 266.043 299.789 265.573H301.115C301.132 265.829 301.218 266.052 301.373 266.24C301.53 266.426 301.736 266.57 301.989 266.671C302.242 266.773 302.524 266.823 302.834 266.823C303.174 266.823 303.476 266.764 303.737 266.646C304.002 266.528 304.209 266.363 304.358 266.152C304.507 265.938 304.582 265.691 304.582 265.413C304.582 265.123 304.507 264.868 304.358 264.648C304.212 264.426 303.996 264.251 303.712 264.125C303.431 263.998 303.09 263.935 302.69 263.935H301.96V262.87H302.69C303.011 262.87 303.293 262.813 303.535 262.697C303.78 262.582 303.971 262.421 304.109 262.216C304.247 262.008 304.316 261.764 304.316 261.485C304.316 261.218 304.255 260.986 304.134 260.789C304.016 260.589 303.847 260.432 303.628 260.32C303.411 260.207 303.155 260.151 302.859 260.151C302.578 260.151 302.314 260.203 302.069 260.307C301.827 260.408 301.63 260.555 301.478 260.746C301.326 260.935 301.244 261.162 301.233 261.426H299.97C299.985 260.959 300.122 260.548 300.384 260.193C300.649 259.838 300.998 259.561 301.432 259.361C301.865 259.161 302.347 259.061 302.876 259.061C303.431 259.061 303.909 259.17 304.312 259.386C304.717 259.6 305.03 259.886 305.249 260.244C305.472 260.601 305.582 260.993 305.579 261.418C305.582 261.902 305.446 262.313 305.173 262.651C304.903 262.989 304.543 263.215 304.092 263.331V263.398C304.667 263.486 305.111 263.714 305.427 264.083C305.745 264.451 305.902 264.909 305.9 265.455C305.902 265.931 305.77 266.357 305.503 266.735C305.238 267.112 304.876 267.409 304.417 267.626C303.958 267.84 303.433 267.947 302.842 267.947Z" fill="white"/>
<g filter="url(#filter0_d_1690_24506)">
<rect x="392.447" y="79" width="146.182" height="32.591" rx="16.2955" fill="white" shape-rendering="crispEdges"/>
<path d="M411.013 100.999C410.039 100.999 409.212 100.784 408.532 100.354C407.853 99.9233 407.334 99.3253 406.976 98.5597C406.623 97.7941 406.446 96.9084 406.446 95.9026C406.446 94.8969 406.623 94.0112 406.976 93.2456C407.334 92.48 407.853 91.882 408.532 91.4516C409.212 91.0212 410.039 90.806 411.013 90.806C412.145 90.806 413.076 91.0937 413.806 91.669C414.54 92.2444 415.045 93.0191 415.321 93.9931L414.091 94.3193C413.892 93.5899 413.536 93.0146 413.024 92.5932C412.512 92.1719 411.842 91.9612 411.013 91.9612C410.283 91.9612 409.676 92.1266 409.191 92.4573C408.707 92.788 408.342 93.2501 408.097 93.8436C407.853 94.4325 407.728 95.1189 407.724 95.9026C407.719 96.6819 407.839 97.3682 408.084 97.9617C408.328 98.5506 408.695 99.0127 409.185 99.348C409.674 99.6787 410.283 99.844 411.013 99.844C411.842 99.844 412.512 99.6334 413.024 99.2121C413.536 98.7862 413.892 98.2109 414.091 97.486L415.321 97.8122C415.045 98.7817 414.54 99.5564 413.806 100.136C413.076 100.712 412.145 100.999 411.013 100.999ZM419.597 100.986C419.126 100.986 418.721 100.911 418.381 100.761C418.046 100.612 417.767 100.413 417.545 100.163C417.323 99.9143 417.149 99.6379 417.022 99.3344C416.895 99.0308 416.805 98.7205 416.75 98.4034C416.7 98.0863 416.675 97.7895 416.675 97.5132V93.4563H417.899V97.1326C417.899 97.4769 417.93 97.8099 417.994 98.1316C418.057 98.4532 418.164 98.7432 418.313 99.0014C418.467 99.2596 418.671 99.4635 418.925 99.613C419.183 99.7625 419.505 99.8372 419.89 99.8372C420.193 99.8372 420.47 99.7851 420.719 99.6809C420.968 99.5767 421.181 99.4227 421.358 99.2189C421.534 99.0105 421.67 98.7477 421.765 98.4306C421.86 98.1134 421.908 97.7442 421.908 97.3229L422.703 97.5675C422.703 98.2743 422.574 98.8836 422.316 99.3955C422.062 99.9075 421.702 100.302 421.235 100.578C420.773 100.85 420.227 100.986 419.597 100.986ZM422.044 100.795V98.8315H421.908V93.4563H423.124V100.795H422.044ZM427.8 100.992C426.925 100.992 426.207 100.802 425.645 100.422C425.088 100.037 424.746 99.4997 424.619 98.8111L425.856 98.6141C425.956 99.0127 426.185 99.3298 426.542 99.5654C426.9 99.7965 427.344 99.912 427.874 99.912C428.377 99.912 428.771 99.8078 429.057 99.5994C429.342 99.391 429.485 99.1079 429.485 98.75C429.485 98.5416 429.437 98.3739 429.342 98.2471C429.247 98.1157 429.05 97.9934 428.751 97.8801C428.456 97.7669 428.01 97.631 427.412 97.4724C426.764 97.3003 426.255 97.1213 425.883 96.9356C425.512 96.7498 425.247 96.5346 425.088 96.29C424.93 96.0453 424.85 95.7486 424.85 95.3998C424.85 94.9694 424.968 94.5934 425.204 94.2717C425.439 93.9455 425.768 93.6941 426.189 93.5174C426.615 93.3407 427.109 93.2524 427.67 93.2524C428.228 93.2524 428.726 93.3407 429.165 93.5174C429.605 93.6941 429.958 93.9455 430.226 94.2717C430.497 94.5934 430.658 94.9694 430.708 95.3998L429.471 95.624C429.412 95.2299 429.222 94.9196 428.9 94.693C428.583 94.4665 428.173 94.3465 427.67 94.3329C427.195 94.3148 426.807 94.3986 426.508 94.5843C426.214 94.7701 426.067 95.0215 426.067 95.3386C426.067 95.5153 426.121 95.6671 426.23 95.7939C426.343 95.9208 426.549 96.0408 426.848 96.1541C427.152 96.2673 427.591 96.3964 428.167 96.5414C428.814 96.7045 429.324 96.8835 429.696 97.0783C430.072 97.2685 430.339 97.4951 430.497 97.7578C430.656 98.016 430.735 98.3354 430.735 98.716C430.735 99.4227 430.475 99.9799 429.954 100.388C429.433 100.791 428.715 100.992 427.8 100.992ZM436.332 100.795C435.897 100.881 435.466 100.915 435.041 100.897C434.619 100.884 434.243 100.8 433.912 100.646C433.582 100.487 433.33 100.243 433.158 99.912C433.013 99.6221 432.934 99.3298 432.92 99.0354C432.911 98.7364 432.907 98.3989 432.907 98.0228V91.4176H434.116V97.9685C434.116 98.2675 434.119 98.5234 434.123 98.7364C434.132 98.9493 434.18 99.1328 434.266 99.2868C434.429 99.5767 434.687 99.7466 435.041 99.7965C435.398 99.8463 435.829 99.8327 436.332 99.7557V100.795ZM431.418 94.4552V93.4563H436.332V94.4552H431.418ZM440.642 100.999C439.913 100.999 439.283 100.834 438.753 100.503C438.228 100.172 437.822 99.7149 437.537 99.1305C437.251 98.5461 437.109 97.8756 437.109 97.119C437.109 96.3489 437.254 95.6739 437.544 95.094C437.834 94.5141 438.244 94.0633 438.774 93.7417C439.304 93.4155 439.927 93.2524 440.642 93.2524C441.376 93.2524 442.008 93.4178 442.538 93.7485C443.068 94.0747 443.474 94.5299 443.755 95.1144C444.04 95.6942 444.183 96.3625 444.183 97.119C444.183 97.8847 444.04 98.5597 443.755 99.1441C443.469 99.724 443.062 100.179 442.531 100.51C442.001 100.836 441.372 100.999 440.642 100.999ZM440.642 99.8508C441.403 99.8508 441.97 99.5971 442.341 99.0897C442.713 98.5823 442.898 97.9254 442.898 97.119C442.898 96.29 442.71 95.6308 442.334 95.1415C441.958 94.6477 441.394 94.4008 440.642 94.4008C440.13 94.4008 439.709 94.5164 439.378 94.7474C439.048 94.9785 438.801 95.2978 438.638 95.7056C438.475 96.1133 438.393 96.5845 438.393 97.119C438.393 97.9436 438.583 98.605 438.964 99.1033C439.344 99.6017 439.904 99.8508 440.642 99.8508ZM454.452 100.795L454.459 96.0997C454.459 95.5515 454.312 95.1234 454.017 94.8154C453.727 94.5028 453.349 94.3465 452.882 94.3465C452.61 94.3465 452.352 94.4099 452.108 94.5367C451.863 94.6591 451.664 94.8539 451.51 95.1212C451.355 95.3839 451.278 95.7214 451.278 96.1337L450.64 95.8755C450.631 95.3545 450.737 94.8992 450.959 94.5096C451.186 94.1154 451.494 93.8096 451.883 93.5922C452.273 93.3747 452.712 93.266 453.202 93.266C453.967 93.266 454.57 93.4993 455.009 93.9659C455.449 94.428 455.668 95.0509 455.668 95.8347L455.662 100.795H454.452ZM445.672 100.795V93.4563H446.753V95.4202H446.889V100.795H445.672ZM450.069 100.795L450.076 96.1473C450.076 95.5855 449.931 95.1461 449.641 94.829C449.351 94.5073 448.966 94.3465 448.486 94.3465C448.01 94.3465 447.625 94.5096 447.33 94.8357C447.036 95.1619 446.889 95.5946 446.889 96.1337L446.25 95.7531C446.25 95.2775 446.363 94.8516 446.59 94.4756C446.816 94.0996 447.124 93.8051 447.514 93.5922C447.903 93.3747 448.345 93.266 448.839 93.266C449.333 93.266 449.763 93.3702 450.13 93.5786C450.497 93.787 450.78 94.086 450.979 94.4756C451.179 94.8607 451.278 95.3205 451.278 95.8551L451.272 100.795H450.069ZM460.552 100.999C459.832 100.999 459.202 100.841 458.663 100.524C458.129 100.202 457.712 99.7557 457.413 99.1849C457.114 98.6095 456.964 97.939 456.964 97.1734C456.964 96.3715 457.112 95.6784 457.406 95.094C457.7 94.505 458.11 94.052 458.636 93.7349C459.166 93.4132 459.787 93.2524 460.498 93.2524C461.236 93.2524 461.864 93.4223 462.38 93.7621C462.901 94.1018 463.291 94.5866 463.549 95.2163C463.812 95.846 463.925 96.5958 463.889 97.4656H462.666V97.0307C462.652 96.1292 462.469 95.4564 462.115 95.0124C461.762 94.5639 461.236 94.3397 460.539 94.3397C459.791 94.3397 459.223 94.5798 458.833 95.06C458.443 95.5402 458.249 96.2288 458.249 97.1258C458.249 97.9911 458.443 98.6616 458.833 99.1373C459.223 99.613 459.778 99.8508 460.498 99.8508C460.983 99.8508 461.404 99.7398 461.762 99.5179C462.12 99.2959 462.401 98.9765 462.605 98.5597L463.767 98.9606C463.481 99.6085 463.051 100.111 462.475 100.469C461.905 100.823 461.264 100.999 460.552 100.999ZM457.841 97.4656V96.4939H463.264V97.4656H457.841ZM465.402 100.795V93.4563H466.482V95.2299L466.306 94.9988C466.392 94.7723 466.503 94.5639 466.639 94.3737C466.779 94.1834 466.935 94.0271 467.108 93.9048C467.298 93.7507 467.513 93.6329 467.753 93.5514C467.993 93.4698 468.238 93.4223 468.487 93.4087C468.736 93.3906 468.97 93.4064 469.187 93.4563V94.5911C468.933 94.5232 468.655 94.505 468.351 94.5367C468.048 94.5685 467.767 94.6795 467.508 94.8697C467.273 95.0373 467.089 95.2412 466.958 95.4813C466.831 95.7214 466.743 95.9819 466.693 96.2628C466.643 96.5392 466.618 96.8223 466.618 97.1122V100.795H465.402ZM476.665 100.999C475.972 100.999 475.347 100.881 474.79 100.646C474.237 100.41 473.78 100.075 473.417 99.6402C473.059 99.2007 472.826 98.682 472.717 98.084L473.968 97.8869C474.126 98.5031 474.455 98.9855 474.953 99.3344C475.456 99.6787 476.047 99.8508 476.726 99.8508C477.166 99.8508 477.562 99.7829 477.916 99.647C478.274 99.5065 478.557 99.3072 478.765 99.049C478.974 98.7907 479.078 98.4849 479.078 98.1316C479.078 97.9141 479.039 97.7284 478.962 97.5743C478.89 97.4158 478.788 97.2821 478.656 97.1734C478.53 97.0601 478.385 96.965 478.222 96.888C478.058 96.811 477.889 96.7476 477.712 96.6977L475.218 95.957C474.946 95.8755 474.683 95.7735 474.43 95.6512C474.176 95.5244 473.949 95.3681 473.75 95.1823C473.551 94.992 473.392 94.7655 473.274 94.5028C473.157 94.2355 473.098 93.9206 473.098 93.5582C473.098 92.9783 473.247 92.4845 473.546 92.0768C473.85 91.6645 474.26 91.3497 474.776 91.1322C475.293 90.9147 475.875 90.8083 476.523 90.8128C477.18 90.8173 477.766 90.9351 478.283 91.1662C478.804 91.3927 479.234 91.7189 479.574 92.1447C479.918 92.5706 480.149 93.0802 480.267 93.6737L478.983 93.898C478.915 93.4993 478.763 93.1573 478.527 92.8718C478.296 92.5819 478.006 92.3599 477.657 92.2059C477.309 92.0473 476.926 91.9658 476.509 91.9612C476.11 91.9567 475.75 92.0201 475.429 92.1515C475.107 92.2829 474.851 92.4664 474.661 92.702C474.47 92.933 474.375 93.2003 474.375 93.5038C474.375 93.8028 474.461 94.0452 474.633 94.2309C474.806 94.4122 475.016 94.5571 475.265 94.6659C475.519 94.7701 475.766 94.8561 476.006 94.9241L477.868 95.4609C478.081 95.5198 478.326 95.6014 478.602 95.7056C478.883 95.8098 479.155 95.957 479.418 96.1473C479.68 96.333 479.898 96.5822 480.07 96.8948C480.242 97.2029 480.328 97.5925 480.328 98.0636C480.328 98.5348 480.233 98.9538 480.043 99.3208C479.857 99.6877 479.596 99.9958 479.261 100.245C478.926 100.49 478.536 100.675 478.092 100.802C477.648 100.934 477.173 100.999 476.665 100.999ZM484.54 100.986C484.069 100.986 483.663 100.911 483.323 100.761C482.988 100.612 482.709 100.413 482.487 100.163C482.266 99.9143 482.091 99.6379 481.964 99.3344C481.837 99.0308 481.747 98.7205 481.692 98.4034C481.643 98.0863 481.618 97.7895 481.618 97.5132V93.4563H482.841V97.1326C482.841 97.4769 482.873 97.8099 482.936 98.1316C482.999 98.4532 483.106 98.7432 483.255 99.0014C483.409 99.2596 483.613 99.4635 483.867 99.613C484.125 99.7625 484.447 99.8372 484.832 99.8372C485.135 99.8372 485.412 99.7851 485.661 99.6809C485.91 99.5767 486.123 99.4227 486.3 99.2189C486.476 99.0105 486.612 98.7477 486.708 98.4306C486.803 98.1134 486.85 97.7442 486.85 97.3229L487.645 97.5675C487.645 98.2743 487.516 98.8836 487.258 99.3955C487.004 99.9075 486.644 100.302 486.177 100.578C485.715 100.85 485.169 100.986 484.54 100.986ZM486.986 100.795V98.8315H486.85V93.4563H488.067V100.795H486.986ZM493.34 100.999C492.651 100.999 492.071 100.829 491.6 100.49C491.129 100.145 490.771 99.6809 490.526 99.0965C490.286 98.5076 490.166 97.8484 490.166 97.119C490.166 96.3806 490.286 95.7192 490.526 95.1348C490.771 94.5503 491.129 94.0905 491.6 93.7553C492.076 93.42 492.658 93.2524 493.347 93.2524C494.026 93.2524 494.611 93.4223 495.1 93.7621C495.594 94.0973 495.972 94.5571 496.235 95.1415C496.497 95.726 496.629 96.3851 496.629 97.119C496.629 97.853 496.497 98.5121 496.235 99.0965C495.972 99.6809 495.594 100.145 495.1 100.49C494.611 100.829 494.024 100.999 493.34 100.999ZM489.962 104.057V93.4563H491.043V98.8587H491.179V104.057H489.962ZM493.19 99.8916C493.675 99.8916 494.076 99.7693 494.393 99.5246C494.71 99.28 494.948 98.9493 495.107 98.5325C495.265 98.1112 495.344 97.64 495.344 97.119C495.344 96.6026 495.265 96.136 495.107 95.7192C494.953 95.3024 494.713 94.9717 494.386 94.727C494.065 94.4824 493.655 94.3601 493.156 94.3601C492.681 94.3601 492.287 94.4779 491.974 94.7134C491.661 94.9445 491.428 95.2684 491.274 95.6852C491.12 96.0974 491.043 96.5754 491.043 97.119C491.043 97.6536 491.118 98.1316 491.267 98.5529C491.421 98.9697 491.657 99.2981 491.974 99.5382C492.291 99.7738 492.697 99.8916 493.19 99.8916ZM501.489 100.999C500.801 100.999 500.221 100.829 499.749 100.49C499.278 100.145 498.92 99.6809 498.676 99.0965C498.436 98.5076 498.316 97.8484 498.316 97.119C498.316 96.3806 498.436 95.7192 498.676 95.1348C498.92 94.5503 499.278 94.0905 499.749 93.7553C500.225 93.42 500.807 93.2524 501.496 93.2524C502.175 93.2524 502.76 93.4223 503.249 93.7621C503.743 94.0973 504.121 94.5571 504.384 95.1415C504.647 95.726 504.778 96.3851 504.778 97.119C504.778 97.853 504.647 98.5121 504.384 99.0965C504.121 99.6809 503.743 100.145 503.249 100.49C502.76 100.829 502.173 100.999 501.489 100.999ZM498.112 104.057V93.4563H499.192V98.8587H499.328V104.057H498.112ZM501.34 99.8916C501.824 99.8916 502.225 99.7693 502.542 99.5246C502.86 99.28 503.097 98.9493 503.256 98.5325C503.415 98.1112 503.494 97.64 503.494 97.119C503.494 96.6026 503.415 96.136 503.256 95.7192C503.102 95.3024 502.862 94.9717 502.536 94.727C502.214 94.4824 501.804 94.3601 501.306 94.3601C500.83 94.3601 500.436 94.4779 500.123 94.7134C499.811 94.9445 499.577 95.2684 499.423 95.6852C499.269 96.0974 499.192 96.5754 499.192 97.119C499.192 97.6536 499.267 98.1316 499.416 98.5529C499.571 98.9697 499.806 99.2981 500.123 99.5382C500.44 99.7738 500.846 99.8916 501.34 99.8916ZM509.394 100.999C508.664 100.999 508.035 100.834 507.505 100.503C506.979 100.172 506.574 99.7149 506.288 99.1305C506.003 98.5461 505.86 97.8756 505.86 97.119C505.86 96.3489 506.005 95.6739 506.295 95.094C506.585 94.5141 506.995 94.0633 507.525 93.7417C508.055 93.4155 508.678 93.2524 509.394 93.2524C510.128 93.2524 510.76 93.4178 511.29 93.7485C511.82 94.0747 512.225 94.5299 512.506 95.1144C512.792 95.6942 512.934 96.3625 512.934 97.119C512.934 97.8847 512.792 98.5597 512.506 99.1441C512.221 99.724 511.813 100.179 511.283 100.51C510.753 100.836 510.123 100.999 509.394 100.999ZM509.394 99.8508C510.155 99.8508 510.721 99.5971 511.093 99.0897C511.464 98.5823 511.65 97.9254 511.65 97.119C511.65 96.29 511.462 95.6308 511.086 95.1415C510.71 94.6477 510.146 94.4008 509.394 94.4008C508.882 94.4008 508.461 94.5164 508.13 94.7474C507.799 94.9785 507.552 95.2978 507.389 95.7056C507.226 96.1133 507.144 96.5845 507.144 97.119C507.144 97.9436 507.335 98.605 507.715 99.1033C508.096 99.6017 508.655 99.8508 509.394 99.8508ZM514.43 100.795V93.4563H515.511V95.2299L515.334 94.9988C515.42 94.7723 515.531 94.5639 515.667 94.3737C515.808 94.1834 515.964 94.0271 516.136 93.9048C516.326 93.7507 516.542 93.6329 516.782 93.5514C517.022 93.4698 517.266 93.4223 517.516 93.4087C517.765 93.3906 517.998 93.4064 518.216 93.4563V94.5911C517.962 94.5232 517.683 94.505 517.38 94.5367C517.076 94.5685 516.795 94.6795 516.537 94.8697C516.301 95.0373 516.118 95.2412 515.987 95.4813C515.86 95.7214 515.771 95.9819 515.722 96.2628C515.672 96.5392 515.647 96.8223 515.647 97.1122V100.795H514.43ZM523.598 100.795C523.163 100.881 522.733 100.915 522.307 100.897C521.886 100.884 521.51 100.8 521.179 100.646C520.848 100.487 520.597 100.243 520.425 99.912C520.28 99.6221 520.2 99.3298 520.187 99.0354C520.178 98.7364 520.173 98.3989 520.173 98.0228V91.4176H521.383V97.9685C521.383 98.2675 521.385 98.5234 521.39 98.7364C521.399 98.9493 521.446 99.1328 521.532 99.2868C521.695 99.5767 521.954 99.7466 522.307 99.7965C522.665 99.8463 523.095 99.8327 523.598 99.7557V100.795ZM518.685 94.4552V93.4563H523.598V94.4552H518.685Z" fill="#212528"/>
</g>
<g filter="url(#filter1_d_1690_24506)">
<rect x="417.93" y="168.191" width="99.182" height="32.591" rx="16.2955" fill="white" shape-rendering="crispEdges"/>
<path d="M435.945 190.19C435.252 190.19 434.627 190.073 434.07 189.837C433.517 189.601 433.06 189.266 432.697 188.831C432.339 188.392 432.106 187.873 431.997 187.275L433.248 187.078C433.406 187.694 433.735 188.177 434.233 188.526C434.736 188.87 435.327 189.042 436.007 189.042C436.446 189.042 436.842 188.974 437.196 188.838C437.554 188.698 437.837 188.498 438.045 188.24C438.254 187.982 438.358 187.676 438.358 187.323C438.358 187.105 438.319 186.92 438.242 186.766C438.17 186.607 438.068 186.473 437.936 186.365C437.81 186.251 437.665 186.156 437.502 186.079C437.338 186.002 437.169 185.939 436.992 185.889L434.498 185.148C434.226 185.067 433.963 184.965 433.71 184.842C433.456 184.716 433.229 184.559 433.03 184.373C432.831 184.183 432.672 183.957 432.554 183.694C432.437 183.427 432.378 183.112 432.378 182.749C432.378 182.169 432.527 181.676 432.826 181.268C433.13 180.856 433.54 180.541 434.056 180.323C434.573 180.106 435.155 179.999 435.803 180.004C436.46 180.008 437.046 180.126 437.563 180.357C438.084 180.584 438.514 180.91 438.854 181.336C439.198 181.762 439.429 182.271 439.547 182.865L438.263 183.089C438.195 182.69 438.043 182.348 437.807 182.063C437.576 181.773 437.286 181.551 436.938 181.397C436.589 181.238 436.206 181.157 435.789 181.152C435.39 181.148 435.03 181.211 434.709 181.343C434.387 181.474 434.131 181.658 433.941 181.893C433.75 182.124 433.655 182.391 433.655 182.695C433.655 182.994 433.741 183.236 433.914 183.422C434.086 183.603 434.296 183.748 434.545 183.857C434.799 183.961 435.046 184.047 435.286 184.115L437.148 184.652C437.361 184.711 437.606 184.793 437.882 184.897C438.163 185.001 438.435 185.148 438.698 185.338C438.96 185.524 439.178 185.773 439.35 186.086C439.522 186.394 439.608 186.784 439.608 187.255C439.608 187.726 439.513 188.145 439.323 188.512C439.137 188.879 438.876 189.187 438.541 189.436C438.206 189.681 437.816 189.867 437.372 189.993C436.928 190.125 436.453 190.19 435.945 190.19ZM443.12 190.19C442.572 190.19 442.112 190.091 441.74 189.891C441.373 189.688 441.095 189.42 440.904 189.09C440.719 188.759 440.626 188.396 440.626 188.002C440.626 187.617 440.698 187.284 440.843 187.003C440.993 186.718 441.201 186.482 441.469 186.297C441.736 186.106 442.055 185.957 442.427 185.848C442.776 185.753 443.165 185.671 443.596 185.603C444.03 185.531 444.47 185.465 444.914 185.406C445.358 185.348 445.772 185.291 446.157 185.237L445.723 185.488C445.736 184.836 445.605 184.353 445.328 184.041C445.057 183.728 444.585 183.572 443.915 183.572C443.471 183.572 443.081 183.674 442.746 183.877C442.415 184.077 442.182 184.403 442.046 184.856L440.898 184.509C441.074 183.866 441.416 183.361 441.924 182.994C442.431 182.627 443.099 182.444 443.928 182.444C444.594 182.444 445.165 182.564 445.641 182.804C446.121 183.039 446.465 183.397 446.674 183.877C446.778 184.104 446.844 184.351 446.871 184.618C446.898 184.881 446.912 185.157 446.912 185.447V189.987H445.838V188.227L446.089 188.39C445.813 188.983 445.426 189.432 444.927 189.735C444.434 190.039 443.831 190.19 443.12 190.19ZM443.303 189.178C443.738 189.178 444.114 189.101 444.431 188.947C444.753 188.788 445.011 188.582 445.206 188.328C445.401 188.07 445.528 187.789 445.587 187.486C445.655 187.259 445.691 187.008 445.695 186.732C445.704 186.451 445.709 186.235 445.709 186.086L446.13 186.269C445.736 186.324 445.349 186.376 444.968 186.426C444.588 186.476 444.227 186.53 443.888 186.589C443.548 186.643 443.242 186.709 442.97 186.786C442.771 186.849 442.583 186.931 442.406 187.031C442.234 187.13 442.094 187.259 441.985 187.418C441.881 187.572 441.829 187.764 441.829 187.995C441.829 188.195 441.879 188.385 441.978 188.566C442.082 188.748 442.241 188.895 442.454 189.008C442.671 189.121 442.954 189.178 443.303 189.178ZM448.814 189.987V179.997H450.024V189.987H448.814ZM455.243 190.19C454.523 190.19 453.893 190.032 453.354 189.715C452.82 189.393 452.403 188.947 452.104 188.376C451.805 187.801 451.655 187.13 451.655 186.365C451.655 185.563 451.803 184.87 452.097 184.285C452.391 183.696 452.801 183.243 453.327 182.926C453.857 182.604 454.478 182.444 455.189 182.444C455.927 182.444 456.555 182.613 457.071 182.953C457.592 183.293 457.982 183.778 458.24 184.407C458.503 185.037 458.616 185.787 458.58 186.657H457.357V186.222C457.343 185.32 457.16 184.648 456.806 184.204C456.453 183.755 455.927 183.531 455.23 183.531C454.482 183.531 453.914 183.771 453.524 184.251C453.134 184.731 452.94 185.42 452.94 186.317C452.94 187.182 453.134 187.853 453.524 188.328C453.914 188.804 454.469 189.042 455.189 189.042C455.674 189.042 456.095 188.931 456.453 188.709C456.811 188.487 457.092 188.168 457.296 187.751L458.458 188.152C458.172 188.8 457.742 189.302 457.166 189.66C456.596 190.014 455.955 190.19 455.243 190.19ZM452.532 186.657V185.685H457.955V186.657H452.532ZM462.865 190.184C461.991 190.184 461.273 189.993 460.711 189.613C460.154 189.228 459.812 188.691 459.685 188.002L460.922 187.805C461.022 188.204 461.25 188.521 461.608 188.757C461.966 188.988 462.41 189.103 462.94 189.103C463.443 189.103 463.837 188.999 464.123 188.791C464.408 188.582 464.551 188.299 464.551 187.941C464.551 187.733 464.503 187.565 464.408 187.438C464.313 187.307 464.116 187.185 463.817 187.071C463.522 186.958 463.076 186.822 462.478 186.664C461.83 186.491 461.321 186.312 460.949 186.127C460.578 185.941 460.313 185.726 460.154 185.481C459.995 185.237 459.916 184.94 459.916 184.591C459.916 184.161 460.034 183.785 460.27 183.463C460.505 183.137 460.834 182.885 461.255 182.709C461.681 182.532 462.175 182.444 462.736 182.444C463.294 182.444 463.792 182.532 464.231 182.709C464.671 182.885 465.024 183.137 465.291 183.463C465.563 183.785 465.724 184.161 465.774 184.591L464.537 184.815C464.478 184.421 464.288 184.111 463.966 183.884C463.649 183.658 463.239 183.538 462.736 183.524C462.261 183.506 461.873 183.59 461.574 183.775C461.28 183.961 461.133 184.213 461.133 184.53C461.133 184.706 461.187 184.858 461.296 184.985C461.409 185.112 461.615 185.232 461.914 185.345C462.218 185.458 462.657 185.588 463.232 185.733C463.88 185.896 464.39 186.075 464.761 186.269C465.137 186.46 465.405 186.686 465.563 186.949C465.722 187.207 465.801 187.527 465.801 187.907C465.801 188.614 465.541 189.171 465.02 189.579C464.499 189.982 463.781 190.184 462.865 190.184ZM472.542 189.987V181.349H469.205V180.201H477.088V181.349H473.751V189.987H472.542ZM480.262 190.19C479.542 190.19 478.912 190.032 478.373 189.715C477.838 189.393 477.421 188.947 477.122 188.376C476.823 187.801 476.674 187.13 476.674 186.365C476.674 185.563 476.821 184.87 477.116 184.285C477.41 183.696 477.82 183.243 478.346 182.926C478.876 182.604 479.496 182.444 480.208 182.444C480.946 182.444 481.573 182.613 482.09 182.953C482.611 183.293 483.001 183.778 483.259 184.407C483.522 185.037 483.635 185.787 483.599 186.657H482.375V186.222C482.362 185.32 482.178 184.648 481.825 184.204C481.472 183.755 480.946 183.531 480.248 183.531C479.501 183.531 478.932 183.771 478.543 184.251C478.153 184.731 477.958 185.42 477.958 186.317C477.958 187.182 478.153 187.853 478.543 188.328C478.932 188.804 479.487 189.042 480.208 189.042C480.692 189.042 481.114 188.931 481.472 188.709C481.829 188.487 482.11 188.168 482.314 187.751L483.476 188.152C483.191 188.8 482.76 189.302 482.185 189.66C481.614 190.014 480.973 190.19 480.262 190.19ZM477.551 186.657V185.685H482.973V186.657H477.551ZM487.065 190.19C486.517 190.19 486.057 190.091 485.686 189.891C485.319 189.688 485.04 189.42 484.85 189.09C484.664 188.759 484.571 188.396 484.571 188.002C484.571 187.617 484.644 187.284 484.789 187.003C484.938 186.718 485.146 186.482 485.414 186.297C485.681 186.106 486 185.957 486.372 185.848C486.721 185.753 487.11 185.671 487.541 185.603C487.976 185.531 488.415 185.465 488.859 185.406C489.303 185.348 489.718 185.291 490.103 185.237L489.668 185.488C489.681 184.836 489.55 184.353 489.274 184.041C489.002 183.728 488.531 183.572 487.86 183.572C487.416 183.572 487.027 183.674 486.691 183.877C486.361 184.077 486.127 184.403 485.991 184.856L484.843 184.509C485.02 183.866 485.362 183.361 485.869 182.994C486.376 182.627 487.045 182.444 487.874 182.444C488.54 182.444 489.11 182.564 489.586 182.804C490.066 183.039 490.411 183.397 490.619 183.877C490.723 184.104 490.789 184.351 490.816 184.618C490.843 184.881 490.857 185.157 490.857 185.447V189.987H489.783V188.227L490.035 188.39C489.758 188.983 489.371 189.432 488.873 189.735C488.379 190.039 487.776 190.19 487.065 190.19ZM487.248 189.178C487.683 189.178 488.059 189.101 488.377 188.947C488.698 188.788 488.956 188.582 489.151 188.328C489.346 188.07 489.473 187.789 489.532 187.486C489.6 187.259 489.636 187.008 489.641 186.732C489.65 186.451 489.654 186.235 489.654 186.086L490.075 186.269C489.681 186.324 489.294 186.376 488.913 186.426C488.533 186.476 488.173 186.53 487.833 186.589C487.493 186.643 487.187 186.709 486.916 186.786C486.716 186.849 486.528 186.931 486.351 187.031C486.179 187.13 486.039 187.259 485.93 187.418C485.826 187.572 485.774 187.764 485.774 187.995C485.774 188.195 485.824 188.385 485.923 188.566C486.028 188.748 486.186 188.895 486.399 189.008C486.617 189.121 486.9 189.178 487.248 189.178ZM501.397 189.987L501.404 185.291C501.404 184.743 501.256 184.315 500.962 184.007C500.672 183.694 500.294 183.538 499.827 183.538C499.555 183.538 499.297 183.601 499.052 183.728C498.808 183.85 498.608 184.045 498.454 184.312C498.3 184.575 498.223 184.913 498.223 185.325L497.584 185.067C497.575 184.546 497.682 184.09 497.904 183.701C498.13 183.307 498.438 183.001 498.828 182.783C499.218 182.566 499.657 182.457 500.146 182.457C500.912 182.457 501.515 182.69 501.954 183.157C502.393 183.619 502.613 184.242 502.613 185.026L502.606 189.987H501.397ZM492.617 189.987V182.647H493.697V184.611H493.833V189.987H492.617ZM497.014 189.987L497.02 185.338C497.02 184.777 496.875 184.337 496.586 184.02C496.296 183.698 495.91 183.538 495.43 183.538C494.955 183.538 494.57 183.701 494.275 184.027C493.981 184.353 493.833 184.786 493.833 185.325L493.195 184.944C493.195 184.469 493.308 184.043 493.534 183.667C493.761 183.291 494.069 182.996 494.459 182.783C494.848 182.566 495.29 182.457 495.784 182.457C496.277 182.457 496.708 182.561 497.075 182.77C497.442 182.978 497.725 183.277 497.924 183.667C498.124 184.052 498.223 184.512 498.223 185.046L498.216 189.987H497.014Z" fill="#212528"/>
</g>
<g filter="url(#filter2_d_1690_24506)">
<rect x="329.589" y="309.198" width="177.182" height="32.591" rx="16.2955" fill="white" shape-rendering="crispEdges"/>
<path d="M348.154 331.197C347.18 331.197 346.353 330.982 345.674 330.552C344.994 330.121 344.475 329.523 344.118 328.758C343.764 327.992 343.588 327.106 343.588 326.101C343.588 325.095 343.764 324.209 344.118 323.444C344.475 322.678 344.994 322.08 345.674 321.65C346.353 321.219 347.18 321.004 348.154 321.004C349.287 321.004 350.218 321.292 350.947 321.867C351.681 322.442 352.186 323.217 352.462 324.191L351.232 324.517C351.033 323.788 350.678 323.213 350.166 322.791C349.654 322.37 348.983 322.159 348.154 322.159C347.425 322.159 346.818 322.325 346.333 322.655C345.848 322.986 345.483 323.448 345.239 324.042C344.994 324.631 344.87 325.317 344.865 326.101C344.861 326.88 344.981 327.566 345.225 328.16C345.47 328.749 345.837 329.211 346.326 329.546C346.815 329.877 347.425 330.042 348.154 330.042C348.983 330.042 349.654 329.831 350.166 329.41C350.678 328.984 351.033 328.409 351.232 327.684L352.462 328.01C352.186 328.98 351.681 329.754 350.947 330.334C350.218 330.91 349.287 331.197 348.154 331.197ZM359.179 330.993V327.317C359.179 326.968 359.147 326.633 359.083 326.311C359.025 325.99 358.918 325.702 358.764 325.448C358.615 325.19 358.411 324.986 358.152 324.837C357.899 324.687 357.577 324.612 357.187 324.612C356.884 324.612 356.608 324.665 356.358 324.769C356.114 324.868 355.903 325.022 355.726 325.231C355.55 325.439 355.412 325.702 355.312 326.019C355.217 326.332 355.169 326.701 355.169 327.127L354.374 326.882C354.374 326.171 354.501 325.562 354.755 325.054C355.013 324.542 355.373 324.15 355.835 323.879C356.302 323.602 356.85 323.464 357.48 323.464C357.955 323.464 358.361 323.539 358.696 323.688C359.031 323.838 359.31 324.037 359.532 324.286C359.754 324.531 359.928 324.807 360.055 325.115C360.182 325.419 360.27 325.729 360.32 326.046C360.375 326.359 360.402 326.656 360.402 326.936V330.993H359.179ZM353.946 330.993V321.208H355.033V326.61H355.169V330.993H353.946ZM365.349 331.197C364.628 331.197 363.999 331.039 363.46 330.722C362.925 330.4 362.508 329.954 362.209 329.383C361.91 328.808 361.761 328.137 361.761 327.371C361.761 326.57 361.908 325.876 362.202 325.292C362.497 324.703 362.907 324.25 363.432 323.933C363.962 323.611 364.583 323.45 365.294 323.45C366.033 323.45 366.66 323.62 367.177 323.96C367.698 324.3 368.087 324.785 368.346 325.414C368.608 326.044 368.722 326.794 368.685 327.664H367.462V327.229C367.449 326.327 367.265 325.654 366.912 325.21C366.558 324.762 366.033 324.538 365.335 324.538C364.588 324.538 364.019 324.778 363.63 325.258C363.24 325.738 363.045 326.427 363.045 327.324C363.045 328.189 363.24 328.86 363.63 329.335C364.019 329.811 364.574 330.049 365.294 330.049C365.779 330.049 366.2 329.938 366.558 329.716C366.916 329.494 367.197 329.174 367.401 328.758L368.563 329.159C368.278 329.806 367.847 330.309 367.272 330.667C366.701 331.021 366.06 331.197 365.349 331.197ZM362.637 327.664V326.692H368.06V327.664H362.637ZM373.29 331.197C372.547 331.197 371.915 331.032 371.394 330.701C370.878 330.366 370.484 329.906 370.212 329.322C369.94 328.737 369.8 328.071 369.791 327.324C369.8 326.558 369.942 325.885 370.219 325.306C370.5 324.721 370.901 324.266 371.422 323.94C371.943 323.613 372.57 323.45 373.304 323.45C374.079 323.45 374.745 323.641 375.302 324.021C375.864 324.402 376.24 324.923 376.43 325.584L375.234 325.944C375.08 325.518 374.828 325.188 374.48 324.952C374.135 324.717 373.739 324.599 373.29 324.599C372.787 324.599 372.373 324.717 372.047 324.952C371.721 325.183 371.478 325.505 371.32 325.917C371.161 326.325 371.079 326.794 371.075 327.324C371.084 328.139 371.272 328.798 371.639 329.301C372.01 329.8 372.561 330.049 373.29 330.049C373.771 330.049 374.169 329.94 374.486 329.723C374.803 329.501 375.044 329.181 375.207 328.764L376.43 329.084C376.176 329.768 375.78 330.291 375.241 330.654C374.701 331.016 374.051 331.197 373.29 331.197ZM377.81 330.993L377.817 321.208H379.04V327.188L382.118 323.654H383.688L380.447 327.324L384.069 330.993H382.377L379.04 327.46V330.993H377.81ZM389.552 331.197C389.004 331.197 388.544 331.098 388.173 330.898C387.806 330.694 387.527 330.427 387.337 330.096C387.151 329.766 387.058 329.403 387.058 329.009C387.058 328.624 387.131 328.291 387.276 328.01C387.425 327.725 387.633 327.489 387.901 327.303C388.168 327.113 388.487 326.964 388.859 326.855C389.208 326.76 389.597 326.678 390.028 326.61C390.463 326.538 390.902 326.472 391.346 326.413C391.79 326.354 392.205 326.298 392.59 326.243L392.155 326.495C392.168 325.842 392.037 325.36 391.761 325.047C391.489 324.735 391.018 324.578 390.347 324.578C389.903 324.578 389.514 324.68 389.178 324.884C388.848 325.084 388.614 325.41 388.478 325.863L387.33 325.516C387.507 324.873 387.849 324.368 388.356 324.001C388.863 323.634 389.532 323.45 390.361 323.45C391.027 323.45 391.597 323.57 392.073 323.811C392.553 324.046 392.898 324.404 393.106 324.884C393.21 325.111 393.276 325.358 393.303 325.625C393.33 325.888 393.344 326.164 393.344 326.454V330.993H392.27V329.233L392.522 329.396C392.245 329.99 391.858 330.438 391.36 330.742C390.866 331.046 390.263 331.197 389.552 331.197ZM389.736 330.185C390.17 330.185 390.546 330.108 390.864 329.954C391.185 329.795 391.443 329.589 391.638 329.335C391.833 329.077 391.96 328.796 392.019 328.493C392.087 328.266 392.123 328.015 392.128 327.738C392.137 327.457 392.141 327.242 392.141 327.093L392.562 327.276C392.168 327.331 391.781 327.383 391.4 327.433C391.02 327.482 390.66 327.537 390.32 327.596C389.98 327.65 389.674 327.716 389.403 327.793C389.203 327.856 389.015 327.938 388.839 328.037C388.666 328.137 388.526 328.266 388.417 328.425C388.313 328.579 388.261 328.771 388.261 329.002C388.261 329.202 388.311 329.392 388.41 329.573C388.515 329.754 388.673 329.902 388.886 330.015C389.104 330.128 389.387 330.185 389.736 330.185ZM398.203 331.197C397.46 331.197 396.828 331.032 396.307 330.701C395.79 330.366 395.396 329.906 395.124 329.322C394.853 328.737 394.712 328.071 394.703 327.324C394.712 326.558 394.855 325.885 395.131 325.306C395.412 324.721 395.813 324.266 396.334 323.94C396.855 323.613 397.482 323.45 398.216 323.45C398.991 323.45 399.657 323.641 400.214 324.021C400.776 324.402 401.152 324.923 401.342 325.584L400.146 325.944C399.992 325.518 399.741 325.188 399.392 324.952C399.048 324.717 398.651 324.599 398.203 324.599C397.7 324.599 397.285 324.717 396.959 324.952C396.633 325.183 396.391 325.505 396.232 325.917C396.073 326.325 395.992 326.794 395.987 327.324C395.996 328.139 396.184 328.798 396.551 329.301C396.923 329.8 397.473 330.049 398.203 330.049C398.683 330.049 399.082 329.94 399.399 329.723C399.716 329.501 399.956 329.181 400.119 328.764L401.342 329.084C401.089 329.768 400.692 330.291 400.153 330.654C399.614 331.016 398.964 331.197 398.203 331.197ZM405.622 331.197C404.879 331.197 404.247 331.032 403.726 330.701C403.21 330.366 402.816 329.906 402.544 329.322C402.272 328.737 402.131 328.071 402.122 327.324C402.131 326.558 402.274 325.885 402.55 325.306C402.831 324.721 403.232 324.266 403.753 323.94C404.274 323.613 404.902 323.45 405.636 323.45C406.41 323.45 407.076 323.641 407.634 324.021C408.195 324.402 408.571 324.923 408.762 325.584L407.566 325.944C407.412 325.518 407.16 325.188 406.811 324.952C406.467 324.717 406.071 324.599 405.622 324.599C405.119 324.599 404.705 324.717 404.378 324.952C404.052 325.183 403.81 325.505 403.651 325.917C403.493 326.325 403.411 326.794 403.407 327.324C403.416 328.139 403.604 328.798 403.971 329.301C404.342 329.8 404.893 330.049 405.622 330.049C406.102 330.049 406.501 329.94 406.818 329.723C407.135 329.501 407.375 329.181 407.538 328.764L408.762 329.084C408.508 329.768 408.111 330.291 407.572 330.654C407.033 331.016 406.383 331.197 405.622 331.197ZM413.075 331.197C412.346 331.197 411.716 331.032 411.186 330.701C410.661 330.37 410.255 329.913 409.97 329.329C409.684 328.744 409.542 328.074 409.542 327.317C409.542 326.547 409.687 325.872 409.977 325.292C410.267 324.712 410.677 324.261 411.207 323.94C411.737 323.613 412.36 323.45 413.075 323.45C413.809 323.45 414.441 323.616 414.971 323.946C415.501 324.273 415.907 324.728 416.188 325.312C416.473 325.892 416.616 326.56 416.616 327.317C416.616 328.083 416.473 328.758 416.188 329.342C415.902 329.922 415.495 330.377 414.964 330.708C414.434 331.034 413.805 331.197 413.075 331.197ZM413.075 330.049C413.836 330.049 414.403 329.795 414.774 329.288C415.146 328.78 415.331 328.123 415.331 327.317C415.331 326.488 415.143 325.829 414.767 325.34C414.391 324.846 413.827 324.599 413.075 324.599C412.563 324.599 412.142 324.714 411.811 324.945C411.481 325.176 411.234 325.496 411.071 325.904C410.908 326.311 410.826 326.782 410.826 327.317C410.826 328.142 411.016 328.803 411.397 329.301C411.777 329.8 412.337 330.049 413.075 330.049ZM420.898 331.184C420.427 331.184 420.022 331.109 419.682 330.959C419.347 330.81 419.068 330.611 418.846 330.361C418.624 330.112 418.449 329.836 418.323 329.532C418.196 329.229 418.105 328.919 418.051 328.601C418.001 328.284 417.976 327.988 417.976 327.711V323.654H419.199V327.331C419.199 327.675 419.231 328.008 419.294 328.33C419.358 328.651 419.464 328.941 419.614 329.199C419.768 329.458 419.972 329.661 420.225 329.811C420.484 329.96 420.805 330.035 421.19 330.035C421.494 330.035 421.77 329.983 422.019 329.879C422.269 329.775 422.481 329.621 422.658 329.417C422.835 329.208 422.971 328.946 423.066 328.629C423.161 328.311 423.209 327.942 423.209 327.521L424.004 327.766C424.004 328.472 423.875 329.082 423.616 329.594C423.363 330.105 423.002 330.5 422.536 330.776C422.074 331.048 421.528 331.184 420.898 331.184ZM423.345 330.993V329.03H423.209V323.654H424.425V330.993H423.345ZM431.553 330.993V327.317C431.553 326.968 431.522 326.633 431.458 326.311C431.399 325.99 431.293 325.702 431.139 325.448C430.989 325.19 430.786 324.986 430.527 324.837C430.274 324.687 429.952 324.612 429.562 324.612C429.259 324.612 428.982 324.665 428.733 324.769C428.489 324.868 428.278 325.022 428.101 325.231C427.925 325.439 427.786 325.702 427.687 326.019C427.592 326.332 427.544 326.701 427.544 327.127L426.749 326.882C426.749 326.171 426.876 325.562 427.13 325.054C427.388 324.542 427.748 324.15 428.21 323.879C428.677 323.602 429.225 323.464 429.855 323.464C430.33 323.464 430.736 323.539 431.071 323.688C431.406 323.838 431.685 324.037 431.907 324.286C432.129 324.531 432.303 324.807 432.43 325.115C432.557 325.419 432.645 325.729 432.695 326.046C432.749 326.359 432.777 326.656 432.777 326.936V330.993H431.553ZM426.321 330.993V323.654H427.408V325.618H427.544V330.993H426.321ZM438.641 330.993C438.206 331.079 437.776 331.113 437.35 331.095C436.929 331.082 436.553 330.998 436.222 330.844C435.891 330.685 435.64 330.441 435.468 330.11C435.323 329.82 435.243 329.528 435.23 329.233C435.221 328.934 435.216 328.597 435.216 328.221V321.616H436.426V328.166C436.426 328.465 436.428 328.721 436.432 328.934C436.442 329.147 436.489 329.331 436.575 329.485C436.738 329.775 436.996 329.945 437.35 329.994C437.708 330.044 438.138 330.031 438.641 329.954V330.993ZM433.728 324.653V323.654H438.641V324.653H433.728ZM446.222 331.197C445.534 331.197 444.954 331.027 444.483 330.688C444.012 330.343 443.654 329.879 443.409 329.295C443.169 328.706 443.049 328.046 443.049 327.317C443.049 326.579 443.169 325.917 443.409 325.333C443.654 324.748 444.012 324.289 444.483 323.953C444.958 323.618 445.541 323.45 446.229 323.45C446.909 323.45 447.493 323.62 447.982 323.96C448.476 324.295 448.855 324.755 449.117 325.34C449.38 325.924 449.511 326.583 449.511 327.317C449.511 328.051 449.38 328.71 449.117 329.295C448.855 329.879 448.476 330.343 447.982 330.688C447.493 331.027 446.907 331.197 446.222 331.197ZM442.845 330.993V321.208H444.061V325.591H443.926V330.993H442.845ZM446.073 330.09C446.558 330.09 446.959 329.967 447.276 329.723C447.593 329.478 447.831 329.147 447.989 328.731C448.148 328.309 448.227 327.838 448.227 327.317C448.227 326.801 448.148 326.334 447.989 325.917C447.835 325.5 447.595 325.17 447.269 324.925C446.947 324.68 446.537 324.558 446.039 324.558C445.563 324.558 445.169 324.676 444.857 324.911C444.544 325.142 444.311 325.466 444.157 325.883C444.003 326.295 443.926 326.773 443.926 327.317C443.926 327.852 444 328.33 444.15 328.751C444.304 329.168 444.539 329.496 444.857 329.736C445.174 329.972 445.579 330.09 446.073 330.09ZM453.087 331.197C452.539 331.197 452.079 331.098 451.708 330.898C451.341 330.694 451.062 330.427 450.872 330.096C450.686 329.766 450.593 329.403 450.593 329.009C450.593 328.624 450.666 328.291 450.811 328.01C450.96 327.725 451.169 327.489 451.436 327.303C451.703 327.113 452.023 326.964 452.394 326.855C452.743 326.76 453.133 326.678 453.563 326.61C453.998 326.538 454.437 326.472 454.881 326.413C455.325 326.354 455.74 326.298 456.125 326.243L455.69 326.495C455.704 325.842 455.572 325.36 455.296 325.047C455.024 324.735 454.553 324.578 453.882 324.578C453.439 324.578 453.049 324.68 452.714 324.884C452.383 325.084 452.15 325.41 452.014 325.863L450.865 325.516C451.042 324.873 451.384 324.368 451.891 324.001C452.399 323.634 453.067 323.45 453.896 323.45C454.562 323.45 455.133 323.57 455.609 323.811C456.089 324.046 456.433 324.404 456.641 324.884C456.746 325.111 456.811 325.358 456.839 325.625C456.866 325.888 456.879 326.164 456.879 326.454V330.993H455.806V329.233L456.057 329.396C455.781 329.99 455.393 330.438 454.895 330.742C454.401 331.046 453.799 331.197 453.087 331.197ZM453.271 330.185C453.706 330.185 454.082 330.108 454.399 329.954C454.721 329.795 454.979 329.589 455.174 329.335C455.368 329.077 455.495 328.796 455.554 328.493C455.622 328.266 455.658 328.015 455.663 327.738C455.672 327.457 455.677 327.242 455.677 327.093L456.098 327.276C455.704 327.331 455.316 327.383 454.936 327.433C454.555 327.482 454.195 327.537 453.855 327.596C453.516 327.65 453.21 327.716 452.938 327.793C452.739 327.856 452.551 327.938 452.374 328.037C452.202 328.137 452.061 328.266 451.953 328.425C451.848 328.579 451.796 328.771 451.796 329.002C451.796 329.202 451.846 329.392 451.946 329.573C452.05 329.754 452.209 329.902 452.421 330.015C452.639 330.128 452.922 330.185 453.271 330.185ZM458.782 330.993V321.004H459.992V330.993H458.782ZM464.117 331.197C463.569 331.197 463.109 331.098 462.737 330.898C462.37 330.694 462.092 330.427 461.902 330.096C461.716 329.766 461.623 329.403 461.623 329.009C461.623 328.624 461.695 328.291 461.84 328.01C461.99 327.725 462.198 327.489 462.466 327.303C462.733 327.113 463.052 326.964 463.424 326.855C463.773 326.76 464.162 326.678 464.593 326.61C465.027 326.538 465.467 326.472 465.911 326.413C466.355 326.354 466.769 326.298 467.154 326.243L466.72 326.495C466.733 325.842 466.602 325.36 466.325 325.047C466.054 324.735 465.582 324.578 464.912 324.578C464.468 324.578 464.078 324.68 463.743 324.884C463.412 325.084 463.179 325.41 463.043 325.863L461.895 325.516C462.071 324.873 462.413 324.368 462.921 324.001C463.428 323.634 464.096 323.45 464.926 323.45C465.591 323.45 466.162 323.57 466.638 323.811C467.118 324.046 467.462 324.404 467.671 324.884C467.775 325.111 467.841 325.358 467.868 325.625C467.895 325.888 467.909 326.164 467.909 326.454V330.993H466.835V329.233L467.086 329.396C466.81 329.99 466.423 330.438 465.924 330.742C465.431 331.046 464.828 331.197 464.117 331.197ZM464.3 330.185C464.735 330.185 465.111 330.108 465.428 329.954C465.75 329.795 466.008 329.589 466.203 329.335C466.398 329.077 466.525 328.796 466.584 328.493C466.652 328.266 466.688 328.015 466.692 327.738C466.701 327.457 466.706 327.242 466.706 327.093L467.127 327.276C466.733 327.331 466.346 327.383 465.965 327.433C465.585 327.482 465.225 327.537 464.885 327.596C464.545 327.65 464.239 327.716 463.967 327.793C463.768 327.856 463.58 327.938 463.403 328.037C463.231 328.137 463.091 328.266 462.982 328.425C462.878 328.579 462.826 328.771 462.826 329.002C462.826 329.202 462.876 329.392 462.975 329.573C463.079 329.754 463.238 329.902 463.451 330.015C463.668 330.128 463.951 330.185 464.3 330.185ZM474.901 330.993V327.317C474.901 326.968 474.87 326.633 474.806 326.311C474.747 325.99 474.641 325.702 474.487 325.448C474.337 325.19 474.133 324.986 473.875 324.837C473.621 324.687 473.3 324.612 472.91 324.612C472.607 324.612 472.33 324.665 472.081 324.769C471.837 324.868 471.626 325.022 471.449 325.231C471.273 325.439 471.134 325.702 471.035 326.019C470.94 326.332 470.892 326.701 470.892 327.127L470.097 326.882C470.097 326.171 470.224 325.562 470.477 325.054C470.736 324.542 471.096 324.15 471.558 323.879C472.025 323.602 472.573 323.464 473.202 323.464C473.678 323.464 474.084 323.539 474.419 323.688C474.754 323.838 475.033 324.037 475.255 324.286C475.477 324.531 475.651 324.807 475.778 325.115C475.905 325.419 475.993 325.729 476.043 326.046C476.097 326.359 476.125 326.656 476.125 326.936V330.993H474.901ZM469.669 330.993V323.654H470.756V325.618H470.892V330.993H469.669ZM480.917 331.197C480.174 331.197 479.542 331.032 479.021 330.701C478.504 330.366 478.11 329.906 477.838 329.322C477.567 328.737 477.426 328.071 477.417 327.324C477.426 326.558 477.569 325.885 477.845 325.306C478.126 324.721 478.527 324.266 479.048 323.94C479.569 323.613 480.197 323.45 480.93 323.45C481.705 323.45 482.371 323.641 482.928 324.021C483.49 324.402 483.866 324.923 484.056 325.584L482.86 325.944C482.706 325.518 482.455 325.188 482.106 324.952C481.762 324.717 481.365 324.599 480.917 324.599C480.414 324.599 479.999 324.717 479.673 324.952C479.347 325.183 479.105 325.505 478.946 325.917C478.788 326.325 478.706 326.794 478.701 327.324C478.711 328.139 478.899 328.798 479.266 329.301C479.637 329.8 480.187 330.049 480.917 330.049C481.397 330.049 481.796 329.94 482.113 329.723C482.43 329.501 482.67 329.181 482.833 328.764L484.056 329.084C483.803 329.768 483.406 330.291 482.867 330.654C482.328 331.016 481.678 331.197 480.917 331.197ZM488.424 331.197C487.704 331.197 487.074 331.039 486.535 330.722C486.001 330.4 485.584 329.954 485.285 329.383C484.986 328.808 484.836 328.137 484.836 327.371C484.836 326.57 484.984 325.876 485.278 325.292C485.573 324.703 485.983 324.25 486.508 323.933C487.038 323.611 487.659 323.45 488.37 323.45C489.109 323.45 489.736 323.62 490.252 323.96C490.773 324.3 491.163 324.785 491.421 325.414C491.684 326.044 491.797 326.794 491.761 327.664H490.538V327.229C490.524 326.327 490.341 325.654 489.987 325.21C489.634 324.762 489.109 324.538 488.411 324.538C487.663 324.538 487.095 324.778 486.705 325.258C486.316 325.738 486.121 326.427 486.121 327.324C486.121 328.189 486.316 328.86 486.705 329.335C487.095 329.811 487.65 330.049 488.37 330.049C488.855 330.049 489.276 329.938 489.634 329.716C489.992 329.494 490.273 329.174 490.477 328.758L491.639 329.159C491.353 329.806 490.923 330.309 490.348 330.667C489.777 331.021 489.136 331.197 488.424 331.197ZM485.713 327.664V326.692H491.136V327.664H485.713Z" fill="#212528"/>
</g>
<path d="M287.329 286.263C287.329 285.677 286.854 285.201 286.267 285.201C285.681 285.201 285.206 285.677 285.206 286.263L287.329 286.263ZM286.267 327.886L285.206 327.886L285.206 328.947L286.267 328.947L286.267 327.886ZM318.447 328.636C318.862 328.222 318.862 327.55 318.447 327.135L311.69 320.378C311.276 319.963 310.603 319.963 310.189 320.378C309.774 320.792 309.774 321.465 310.189 321.879L316.195 327.886L310.189 333.892C309.774 334.307 309.774 334.979 310.189 335.394C310.603 335.808 311.276 335.808 311.69 335.394L318.447 328.636ZM285.206 286.263L285.206 327.886L287.329 327.886L287.329 286.263L285.206 286.263ZM286.267 328.947L317.697 328.947L317.697 326.824L286.267 326.824L286.267 328.947Z" fill="#D5D9DC"/>
<defs>
<filter id="filter0_d_1690_24506" x="389.05" y="79" width="152.978" height="39.3866" filterUnits="userSpaceOnUse" color-interpolation-filters="sRGB">
<feFlood flood-opacity="0" result="BackgroundImageFix"/>
<feColorMatrix in="SourceAlpha" type="matrix" values="0 0 0 0 0 0 0 0 0 0 0 0 0 0 0 0 0 0 127 0" result="hardAlpha"/>
<feOffset dy="3.39775"/>
<feGaussianBlur stdDeviation="1.69888"/>
<feComposite in2="hardAlpha" operator="out"/>
<feColorMatrix type="matrix" values="0 0 0 0 0 0 0 0 0 0 0 0 0 0 0 0 0 0 0.25 0"/>
<feBlend mode="normal" in2="BackgroundImageFix" result="effect1_dropShadow_1690_24506"/>
<feBlend mode="normal" in="SourceGraphic" in2="effect1_dropShadow_1690_24506" result="shape"/>
</filter>
<filter id="filter1_d_1690_24506" x="414.533" y="168.191" width="105.978" height="39.3866" filterUnits="userSpaceOnUse" color-interpolation-filters="sRGB">
<feFlood flood-opacity="0" result="BackgroundImageFix"/>
<feColorMatrix in="SourceAlpha" type="matrix" values="0 0 0 0 0 0 0 0 0 0 0 0 0 0 0 0 0 0 127 0" result="hardAlpha"/>
<feOffset dy="3.39775"/>
<feGaussianBlur stdDeviation="1.69888"/>
<feComposite in2="hardAlpha" operator="out"/>
<feColorMatrix type="matrix" values="0 0 0 0 0 0 0 0 0 0 0 0 0 0 0 0 0 0 0.25 0"/>
<feBlend mode="normal" in2="BackgroundImageFix" result="effect1_dropShadow_1690_24506"/>
<feBlend mode="normal" in="SourceGraphic" in2="effect1_dropShadow_1690_24506" result="shape"/>
</filter>
<filter id="filter2_d_1690_24506" x="326.191" y="309.198" width="183.978" height="39.3866" filterUnits="userSpaceOnUse" color-interpolation-filters="sRGB">
<feFlood flood-opacity="0" result="BackgroundImageFix"/>
<feColorMatrix in="SourceAlpha" type="matrix" values="0 0 0 0 0 0 0 0 0 0 0 0 0 0 0 0 0 0 127 0" result="hardAlpha"/>
<feOffset dy="3.39775"/>
<feGaussianBlur stdDeviation="1.69888"/>
<feComposite in2="hardAlpha" operator="out"/>
<feColorMatrix type="matrix" values="0 0 0 0 0 0 0 0 0 0 0 0 0 0 0 0 0 0 0.25 0"/>
<feBlend mode="normal" in2="BackgroundImageFix" result="effect1_dropShadow_1690_24506"/>
<feBlend mode="normal" in="SourceGraphic" in2="effect1_dropShadow_1690_24506" result="shape"/>
</filter>
</defs>
</svg>
