<svg width="611" height="458" viewBox="0 0 611 458" fill="none" xmlns="http://www.w3.org/2000/svg">
<path d="M320.625 211.125C320.625 215.833 318.351 220.347 314.303 223.676C310.256 227.005 304.766 228.875 299.042 228.875H169.542L126.375 264.375V122.375C126.375 117.667 128.649 113.153 132.697 109.824C136.744 106.495 142.234 104.625 147.958 104.625H299.042C304.766 104.625 310.256 106.495 314.303 109.824C318.351 113.153 320.625 117.667 320.625 122.375V211.125Z" stroke="#DBEAF6" stroke-width="10" stroke-linecap="round" stroke-linejoin="round"/>
<g clip-path="url(#clip0_1746_24727)">
<path d="M204.812 284.063C204.423 283.667 203.892 283.443 203.337 283.439C202.783 283.436 202.249 283.652 201.854 284.042C201.459 284.431 201.235 284.962 201.231 285.517C201.227 286.071 201.444 286.605 201.833 287L209.583 294.833H172.312C171.76 294.833 171.23 295.053 170.839 295.444C170.448 295.834 170.229 296.364 170.229 296.917C170.229 297.469 170.448 297.999 170.839 298.39C171.23 298.781 171.76 299 172.312 299H209.583L201.833 306.708C201.64 306.903 201.488 307.133 201.384 307.386C201.28 307.64 201.227 307.911 201.228 308.184C201.229 308.458 201.284 308.729 201.389 308.982C201.495 309.234 201.649 309.463 201.844 309.656C202.038 309.849 202.268 310.002 202.521 310.106C202.775 310.21 203.046 310.263 203.32 310.262C203.593 310.261 203.864 310.206 204.117 310.1C204.369 309.994 204.599 309.84 204.792 309.646L217.521 296.917L204.812 284.063Z" fill="#3A74B5"/>
<path d="M183.583 287.438C183.997 287.44 184.402 287.319 184.747 287.09C185.092 286.862 185.361 286.535 185.52 286.153C185.678 285.771 185.72 285.35 185.638 284.944C185.557 284.539 185.356 284.166 185.063 283.875L177.333 276.083H214.583C215.136 276.083 215.666 275.864 216.057 275.473C216.447 275.083 216.667 274.553 216.667 274C216.667 273.448 216.447 272.918 216.057 272.527C215.666 272.136 215.136 271.917 214.583 271.917H177.333L185.063 264.146C185.255 263.952 185.408 263.721 185.512 263.468C185.616 263.215 185.669 262.944 185.668 262.67C185.667 262.396 185.612 262.125 185.506 261.873C185.401 261.62 185.246 261.391 185.052 261.198C184.858 261.005 184.628 260.852 184.374 260.749C184.121 260.645 183.85 260.592 183.576 260.593C183.023 260.595 182.494 260.816 182.104 261.208L169.375 274L182.104 286.792C182.295 286.992 182.525 287.153 182.779 287.264C183.033 287.375 183.306 287.434 183.583 287.438Z" fill="#3A74B5"/>
</g>
<path d="M250.125 270.375C250.125 275.127 252.452 279.684 256.593 283.044C260.734 286.404 266.351 288.292 272.208 288.292H404.708L448.875 324.125V180.792C448.875 176.04 446.548 171.483 442.407 168.123C438.266 164.763 432.649 162.875 426.792 162.875H272.208C266.351 162.875 260.734 164.763 256.593 168.123C252.452 171.483 250.125 176.04 250.125 180.792V270.375Z" stroke="#DBEAF6" stroke-width="10" stroke-linecap="round" stroke-linejoin="round"/>
<path fill-rule="evenodd" clip-rule="evenodd" d="M268.993 204.83L265.837 216.375L277.605 213.268C280.849 215.058 284.494 215.995 288.199 215.99C300.418 215.99 310.357 205.986 310.357 193.693C310.357 187.728 308.059 182.126 303.866 177.907C299.673 173.688 294.105 171.375 288.177 171.375C275.959 171.375 266.018 181.377 266.041 193.693C266.035 197.599 267.053 201.439 268.993 204.83ZM278.801 209.661L278.124 209.253L278.122 209.254L271.111 211.114L272.983 204.264L272.555 203.56C270.705 200.613 269.736 197.188 269.736 193.694C269.736 183.488 278.009 175.163 288.176 175.163C293.091 175.163 297.734 177.114 301.208 180.605C304.679 184.099 306.595 188.771 306.595 193.716C306.595 203.922 298.322 212.247 288.178 212.247C284.877 212.244 281.637 211.351 278.801 209.661Z" fill="url(#paint0_linear_1746_24727)"/>
<path d="M278.125 209.253L278.801 209.661C281.637 211.351 284.877 212.244 288.179 212.247C298.322 212.247 306.596 203.922 306.596 193.716C306.596 188.771 304.68 184.099 301.208 180.605C297.735 177.114 293.091 175.163 288.176 175.163C278.01 175.163 269.736 183.488 269.736 193.694C269.736 197.188 270.706 200.612 272.555 203.56L272.983 204.264L271.112 211.114L278.122 209.254L278.125 209.253Z" fill="url(#paint1_linear_1746_24727)"/>
<path fill-rule="evenodd" clip-rule="evenodd" d="M282.654 184.348C282.249 183.418 281.797 183.396 281.414 183.396C281.076 183.373 280.715 183.373 280.332 183.373C279.971 183.373 279.363 183.509 278.845 184.076C278.326 184.643 276.906 185.981 276.906 188.727C276.906 191.47 278.89 194.125 279.16 194.487C279.43 194.85 282.993 200.657 288.628 202.902C293.316 204.761 294.264 204.399 295.279 204.285C296.292 204.172 298.546 202.948 299.02 201.631C299.47 200.339 299.47 199.205 299.335 198.978C299.2 198.751 298.816 198.615 298.275 198.32C297.712 198.048 295.007 196.688 294.488 196.505C293.97 196.324 293.61 196.233 293.249 196.778C292.888 197.345 291.829 198.593 291.49 198.955C291.175 199.318 290.838 199.363 290.296 199.091C289.732 198.82 287.953 198.229 285.832 196.324C284.188 194.85 283.083 193.013 282.745 192.468C282.429 191.901 282.699 191.607 282.993 191.334C283.24 191.085 283.557 190.676 283.827 190.359C284.097 190.041 284.187 189.792 284.39 189.428C284.571 189.066 284.48 188.725 284.345 188.454C284.21 188.204 283.15 185.46 282.654 184.348Z" fill="white"/>
<path d="M151.08 144V131.5H147.22V129.1H157.62V131.5H153.82V144H151.08ZM161.599 144L157.859 133.12H160.619L163.359 141.38L162.399 141.36L165.319 133.12H167.639L170.539 141.36L169.579 141.38L172.319 133.12H175.079L171.339 144H168.999L166.039 135.38H166.919L163.919 144H161.599ZM182.24 144.24C181.173 144.24 180.2 143.993 179.32 143.5C178.453 143.007 177.76 142.333 177.24 141.48C176.733 140.627 176.48 139.653 176.48 138.56C176.48 137.467 176.733 136.493 177.24 135.64C177.76 134.787 178.453 134.113 179.32 133.62C180.187 133.127 181.16 132.88 182.24 132.88C183.307 132.88 184.273 133.127 185.14 133.62C186.007 134.113 186.693 134.787 187.2 135.64C187.72 136.48 187.98 137.453 187.98 138.56C187.98 139.653 187.72 140.627 187.2 141.48C186.68 142.333 185.987 143.007 185.12 143.5C184.253 143.993 183.293 144.24 182.24 144.24ZM182.24 141.84C182.827 141.84 183.34 141.7 183.78 141.42C184.233 141.14 184.587 140.753 184.84 140.26C185.107 139.753 185.24 139.187 185.24 138.56C185.24 137.92 185.107 137.36 184.84 136.88C184.587 136.387 184.233 136 183.78 135.72C183.34 135.427 182.827 135.28 182.24 135.28C181.64 135.28 181.113 135.427 180.66 135.72C180.207 136 179.847 136.387 179.58 136.88C179.327 137.36 179.2 137.92 179.2 138.56C179.2 139.187 179.327 139.753 179.58 140.26C179.847 140.753 180.207 141.14 180.66 141.42C181.113 141.7 181.64 141.84 182.24 141.84ZM197.722 144L193.722 129.1H196.642L199.782 141.8H199.022L202.302 129.1H205.122L208.382 141.8H207.622L210.762 129.1H213.682L209.682 144H206.562L203.262 131.64H204.142L200.842 144H197.722ZM218.211 144.24C217.451 144.24 216.791 144.113 216.231 143.86C215.671 143.607 215.238 143.247 214.931 142.78C214.625 142.3 214.471 141.747 214.471 141.12C214.471 140.52 214.605 139.987 214.871 139.52C215.138 139.04 215.551 138.64 216.111 138.32C216.671 138 217.378 137.773 218.231 137.64L221.791 137.06V139.06L218.731 139.58C218.211 139.673 217.825 139.84 217.571 140.08C217.318 140.32 217.191 140.633 217.191 141.02C217.191 141.393 217.331 141.693 217.611 141.92C217.905 142.133 218.265 142.24 218.691 142.24C219.238 142.24 219.718 142.127 220.131 141.9C220.558 141.66 220.885 141.333 221.111 140.92C221.351 140.507 221.471 140.053 221.471 139.56V136.76C221.471 136.293 221.285 135.907 220.911 135.6C220.551 135.28 220.071 135.12 219.471 135.12C218.911 135.12 218.411 135.273 217.971 135.58C217.545 135.873 217.231 136.267 217.031 136.76L214.891 135.72C215.105 135.147 215.438 134.653 215.891 134.24C216.358 133.813 216.905 133.48 217.531 133.24C218.158 133 218.838 132.88 219.571 132.88C220.465 132.88 221.251 133.047 221.931 133.38C222.611 133.7 223.138 134.153 223.511 134.74C223.898 135.313 224.091 135.987 224.091 136.76V144H221.611V142.14L222.171 142.1C221.891 142.567 221.558 142.96 221.171 143.28C220.785 143.587 220.345 143.827 219.851 144C219.358 144.16 218.811 144.24 218.211 144.24ZM228.433 148.42C228.14 148.42 227.853 148.393 227.573 148.34C227.293 148.3 227.04 148.227 226.813 148.12V145.92C226.986 145.96 227.193 146 227.433 146.04C227.686 146.08 227.92 146.1 228.133 146.1C228.733 146.1 229.166 145.96 229.433 145.68C229.713 145.4 229.96 145.033 230.173 144.58L230.893 142.9L230.853 145.1L226.113 133.12H228.933L232.253 141.96H231.253L234.553 133.12H237.393L232.653 145.1C232.373 145.807 232.033 146.407 231.633 146.9C231.233 147.393 230.766 147.767 230.233 148.02C229.713 148.287 229.113 148.42 228.433 148.42Z" fill="#3A74B5"/>
<path d="M275.44 267.24C274.373 267.24 273.387 267.047 272.48 266.66C271.587 266.273 270.8 265.733 270.12 265.04C269.453 264.347 268.933 263.533 268.56 262.6C268.187 261.667 268 260.647 268 259.54C268 258.433 268.18 257.413 268.54 256.48C268.913 255.533 269.433 254.72 270.1 254.04C270.78 253.347 271.573 252.813 272.48 252.44C273.387 252.053 274.373 251.86 275.44 251.86C276.507 251.86 277.46 252.04 278.3 252.4C279.153 252.76 279.873 253.24 280.46 253.84C281.047 254.427 281.467 255.073 281.72 255.78L279.28 256.92C279 256.173 278.527 255.56 277.86 255.08C277.193 254.587 276.387 254.34 275.44 254.34C274.507 254.34 273.68 254.56 272.96 255C272.253 255.44 271.7 256.047 271.3 256.82C270.913 257.593 270.72 258.5 270.72 259.54C270.72 260.58 270.913 261.493 271.3 262.28C271.7 263.053 272.253 263.66 272.96 264.1C273.68 264.54 274.507 264.76 275.44 264.76C276.387 264.76 277.193 264.52 277.86 264.04C278.527 263.547 279 262.927 279.28 262.18L281.72 263.32C281.467 264.027 281.047 264.68 280.46 265.28C279.873 265.867 279.153 266.34 278.3 266.7C277.46 267.06 276.507 267.24 275.44 267.24ZM289.433 267.24C288.366 267.24 287.393 266.993 286.513 266.5C285.646 266.007 284.953 265.333 284.433 264.48C283.926 263.627 283.673 262.653 283.673 261.56C283.673 260.467 283.926 259.493 284.433 258.64C284.953 257.787 285.646 257.113 286.513 256.62C287.38 256.127 288.353 255.88 289.433 255.88C290.5 255.88 291.466 256.127 292.333 256.62C293.2 257.113 293.886 257.787 294.393 258.64C294.913 259.48 295.173 260.453 295.173 261.56C295.173 262.653 294.913 263.627 294.393 264.48C293.873 265.333 293.18 266.007 292.313 266.5C291.446 266.993 290.486 267.24 289.433 267.24ZM289.433 264.84C290.02 264.84 290.533 264.7 290.973 264.42C291.426 264.14 291.78 263.753 292.033 263.26C292.3 262.753 292.433 262.187 292.433 261.56C292.433 260.92 292.3 260.36 292.033 259.88C291.78 259.387 291.426 259 290.973 258.72C290.533 258.427 290.02 258.28 289.433 258.28C288.833 258.28 288.306 258.427 287.853 258.72C287.4 259 287.04 259.387 286.773 259.88C286.52 260.36 286.393 260.92 286.393 261.56C286.393 262.187 286.52 262.753 286.773 263.26C287.04 263.753 287.4 264.14 287.853 264.42C288.306 264.7 288.833 264.84 289.433 264.84ZM297.76 267V256.12H300.22V258.64L299.94 258.22C300.14 257.433 300.54 256.847 301.14 256.46C301.74 256.073 302.447 255.88 303.26 255.88C304.153 255.88 304.94 256.113 305.62 256.58C306.3 257.047 306.74 257.66 306.94 258.42L306.2 258.48C306.533 257.613 307.033 256.967 307.7 256.54C308.367 256.1 309.133 255.88 310 255.88C310.773 255.88 311.46 256.053 312.06 256.4C312.673 256.747 313.153 257.233 313.5 257.86C313.847 258.473 314.02 259.187 314.02 260V267H311.4V260.62C311.4 260.14 311.313 259.727 311.14 259.38C310.967 259.033 310.727 258.767 310.42 258.58C310.113 258.38 309.74 258.28 309.3 258.28C308.887 258.28 308.52 258.38 308.2 258.58C307.88 258.767 307.633 259.033 307.46 259.38C307.287 259.727 307.2 260.14 307.2 260.62V267H304.58V260.62C304.58 260.14 304.493 259.727 304.32 259.38C304.147 259.033 303.9 258.767 303.58 258.58C303.273 258.38 302.907 258.28 302.48 258.28C302.067 258.28 301.7 258.38 301.38 258.58C301.06 258.767 300.813 259.033 300.64 259.38C300.467 259.727 300.38 260.14 300.38 260.62V267H297.76ZM316.836 267V256.12H319.296V258.64L319.016 258.22C319.216 257.433 319.616 256.847 320.216 256.46C320.816 256.073 321.523 255.88 322.336 255.88C323.23 255.88 324.016 256.113 324.696 256.58C325.376 257.047 325.816 257.66 326.016 258.42L325.276 258.48C325.61 257.613 326.11 256.967 326.776 256.54C327.443 256.1 328.21 255.88 329.076 255.88C329.85 255.88 330.536 256.053 331.136 256.4C331.75 256.747 332.23 257.233 332.576 257.86C332.923 258.473 333.096 259.187 333.096 260V267H330.476V260.62C330.476 260.14 330.39 259.727 330.216 259.38C330.043 259.033 329.803 258.767 329.496 258.58C329.19 258.38 328.816 258.28 328.376 258.28C327.963 258.28 327.596 258.38 327.276 258.58C326.956 258.767 326.71 259.033 326.536 259.38C326.363 259.727 326.276 260.14 326.276 260.62V267H323.656V260.62C323.656 260.14 323.57 259.727 323.396 259.38C323.223 259.033 322.976 258.767 322.656 258.58C322.35 258.38 321.983 258.28 321.556 258.28C321.143 258.28 320.776 258.38 320.456 258.58C320.136 258.767 319.89 259.033 319.716 259.38C319.543 259.727 319.456 260.14 319.456 260.62V267H316.836ZM339.793 267.24C338.953 267.24 338.22 267.053 337.593 266.68C336.98 266.307 336.506 265.787 336.173 265.12C335.853 264.453 335.693 263.673 335.693 262.78V256.12H338.313V262.56C338.313 263.013 338.4 263.413 338.573 263.76C338.76 264.093 339.02 264.36 339.353 264.56C339.7 264.747 340.086 264.84 340.513 264.84C340.94 264.84 341.32 264.747 341.653 264.56C341.986 264.36 342.246 264.087 342.433 263.74C342.62 263.393 342.713 262.98 342.713 262.5V256.12H345.333V267H342.853V264.86L343.073 265.24C342.82 265.907 342.4 266.407 341.813 266.74C341.24 267.073 340.566 267.24 339.793 267.24ZM348.368 267V256.12H350.828V258.26L350.628 257.88C350.882 257.227 351.295 256.733 351.868 256.4C352.455 256.053 353.135 255.88 353.908 255.88C354.708 255.88 355.415 256.053 356.028 256.4C356.655 256.747 357.142 257.233 357.488 257.86C357.835 258.473 358.008 259.187 358.008 260V267H355.388V260.62C355.388 260.14 355.295 259.727 355.108 259.38C354.922 259.033 354.662 258.767 354.328 258.58C354.008 258.38 353.628 258.28 353.188 258.28C352.762 258.28 352.382 258.38 352.048 258.58C351.715 258.767 351.455 259.033 351.268 259.38C351.082 259.727 350.988 260.14 350.988 260.62V267H348.368ZM360.824 267V256.12H363.444V267H360.824ZM360.824 254.9V252.1H363.444V254.9H360.824ZM371.703 267.24C370.623 267.24 369.65 266.993 368.783 266.5C367.93 265.993 367.256 265.313 366.763 264.46C366.27 263.593 366.023 262.62 366.023 261.54C366.023 260.46 366.27 259.493 366.763 258.64C367.256 257.787 367.93 257.113 368.783 256.62C369.65 256.127 370.623 255.88 371.703 255.88C372.476 255.88 373.196 256.02 373.863 256.3C374.53 256.567 375.103 256.94 375.583 257.42C376.076 257.887 376.43 258.447 376.643 259.1L374.343 260.1C374.143 259.553 373.803 259.113 373.323 258.78C372.856 258.447 372.316 258.28 371.703 258.28C371.13 258.28 370.616 258.42 370.163 258.7C369.723 258.98 369.376 259.367 369.123 259.86C368.87 260.353 368.743 260.92 368.743 261.56C368.743 262.2 368.87 262.767 369.123 263.26C369.376 263.753 369.723 264.14 370.163 264.42C370.616 264.7 371.13 264.84 371.703 264.84C372.33 264.84 372.876 264.673 373.343 264.34C373.81 264.007 374.143 263.56 374.343 263L376.643 264.04C376.43 264.653 376.083 265.207 375.603 265.7C375.123 266.18 374.55 266.56 373.883 266.84C373.216 267.107 372.49 267.24 371.703 267.24ZM382.492 267.24C381.732 267.24 381.072 267.113 380.512 266.86C379.952 266.607 379.519 266.247 379.212 265.78C378.905 265.3 378.752 264.747 378.752 264.12C378.752 263.52 378.885 262.987 379.152 262.52C379.419 262.04 379.832 261.64 380.392 261.32C380.952 261 381.659 260.773 382.512 260.64L386.072 260.06V262.06L383.012 262.58C382.492 262.673 382.105 262.84 381.852 263.08C381.599 263.32 381.472 263.633 381.472 264.02C381.472 264.393 381.612 264.693 381.892 264.92C382.185 265.133 382.545 265.24 382.972 265.24C383.519 265.24 383.999 265.127 384.412 264.9C384.839 264.66 385.165 264.333 385.392 263.92C385.632 263.507 385.752 263.053 385.752 262.56V259.76C385.752 259.293 385.565 258.907 385.192 258.6C384.832 258.28 384.352 258.12 383.752 258.12C383.192 258.12 382.692 258.273 382.252 258.58C381.825 258.873 381.512 259.267 381.312 259.76L379.172 258.72C379.385 258.147 379.719 257.653 380.172 257.24C380.639 256.813 381.185 256.48 381.812 256.24C382.439 256 383.119 255.88 383.852 255.88C384.745 255.88 385.532 256.047 386.212 256.38C386.892 256.7 387.419 257.153 387.792 257.74C388.179 258.313 388.372 258.987 388.372 259.76V267H385.892V265.14L386.452 265.1C386.172 265.567 385.839 265.96 385.452 266.28C385.065 266.587 384.625 266.827 384.132 267C383.639 267.16 383.092 267.24 382.492 267.24ZM396.158 267.12C394.931 267.12 393.978 266.787 393.298 266.12C392.631 265.44 392.298 264.487 392.298 263.26V258.46H390.418V256.12H390.618C391.151 256.12 391.565 255.98 391.858 255.7C392.151 255.42 392.298 255.013 392.298 254.48V253.64H394.918V256.12H397.418V258.46H394.918V263.12C394.918 263.48 394.978 263.787 395.098 264.04C395.231 264.293 395.431 264.487 395.698 264.62C395.978 264.753 396.331 264.82 396.758 264.82C396.851 264.82 396.958 264.813 397.078 264.8C397.211 264.787 397.338 264.773 397.458 264.76V267C397.271 267.027 397.058 267.053 396.818 267.08C396.578 267.107 396.358 267.12 396.158 267.12ZM400.06 267V256.12H402.68V267H400.06ZM400.06 254.9V252.1H402.68V254.9H400.06ZM411.019 267.24C409.952 267.24 408.979 266.993 408.099 266.5C407.232 266.007 406.539 265.333 406.019 264.48C405.512 263.627 405.259 262.653 405.259 261.56C405.259 260.467 405.512 259.493 406.019 258.64C406.539 257.787 407.232 257.113 408.099 256.62C408.966 256.127 409.939 255.88 411.019 255.88C412.086 255.88 413.052 256.127 413.919 256.62C414.786 257.113 415.472 257.787 415.979 258.64C416.499 259.48 416.759 260.453 416.759 261.56C416.759 262.653 416.499 263.627 415.979 264.48C415.459 265.333 414.766 266.007 413.899 266.5C413.032 266.993 412.072 267.24 411.019 267.24ZM411.019 264.84C411.606 264.84 412.119 264.7 412.559 264.42C413.012 264.14 413.366 263.753 413.619 263.26C413.886 262.753 414.019 262.187 414.019 261.56C414.019 260.92 413.886 260.36 413.619 259.88C413.366 259.387 413.012 259 412.559 258.72C412.119 258.427 411.606 258.28 411.019 258.28C410.419 258.28 409.892 258.427 409.439 258.72C408.986 259 408.626 259.387 408.359 259.88C408.106 260.36 407.979 260.92 407.979 261.56C407.979 262.187 408.106 262.753 408.359 263.26C408.626 263.753 408.986 264.14 409.439 264.42C409.892 264.7 410.419 264.84 411.019 264.84ZM419.346 267V256.12H421.806V258.26L421.606 257.88C421.859 257.227 422.272 256.733 422.846 256.4C423.432 256.053 424.112 255.88 424.886 255.88C425.686 255.88 426.392 256.053 427.006 256.4C427.632 256.747 428.119 257.233 428.466 257.86C428.812 258.473 428.986 259.187 428.986 260V267H426.366V260.62C426.366 260.14 426.272 259.727 426.086 259.38C425.899 259.033 425.639 258.767 425.306 258.58C424.986 258.38 424.606 258.28 424.166 258.28C423.739 258.28 423.359 258.38 423.026 258.58C422.692 258.767 422.432 259.033 422.246 259.38C422.059 259.727 421.966 260.14 421.966 260.62V267H419.346Z" fill="#3A74B5"/>
<path d="M370.766 128.266L381.859 139.359M397.391 121.609L408.484 110.516M388.516 128.266L399.609 139.359L426.234 110.516" stroke="#3A74B5" stroke-width="5" stroke-linecap="round" stroke-linejoin="round"/>
<defs>
<linearGradient id="paint0_linear_1746_24727" x1="288.094" y1="216.38" x2="288.094" y2="171.381" gradientUnits="userSpaceOnUse">
<stop stop-color="#F9F9F9"/>
<stop offset="1" stop-color="white"/>
</linearGradient>
<linearGradient id="paint1_linear_1746_24727" x1="288.093" y1="215.601" x2="288.093" y2="172.16" gradientUnits="userSpaceOnUse">
<stop stop-color="#20B038"/>
<stop offset="1" stop-color="#60D66A"/>
</linearGradient>
<clipPath id="clip0_1746_24727">
<rect width="75" height="75" fill="white" transform="translate(156 249)"/>
</clipPath>
</defs>
</svg>
