<svg width="611" height="458" viewBox="0 0 611 458" fill="none" xmlns="http://www.w3.org/2000/svg">
<rect width="611" height="458" fill="#F0F7FD"/>
<g filter="url(#filter0_d_1653_26494)">
<rect x="320.323" y="113.596" width="68.5097" height="68.5097" rx="9.13463" fill="#EDEDFD"/>
<path d="M369.547 147.596C369.547 156.005 362.731 162.821 354.323 162.821C345.914 162.821 339.098 156.005 339.098 147.596C339.098 139.188 345.914 132.372 354.323 132.372C362.731 132.372 369.547 139.188 369.547 147.596Z" fill="#696BEF"/>
<path d="M369.547 147.596C369.547 156.005 362.731 162.821 354.323 162.821C345.914 162.821 339.098 156.005 339.098 147.596C339.098 139.188 345.914 132.372 354.323 132.372C362.731 132.372 369.547 139.188 369.547 147.596Z" fill="#696BEF"/>
<path d="M364.98 150.641C364.98 151.441 364.822 152.233 364.516 152.972C364.21 153.711 363.762 154.382 363.196 154.947C362.631 155.513 361.959 155.962 361.22 156.268C360.482 156.574 359.69 156.731 358.89 156.731L358.89 150.641H364.98Z" fill="white"/>
<path d="M358.531 144.862L357.058 134.037L349.755 139.984L354.323 147.454H356.268C357.652 147.454 358.718 146.233 358.531 144.862Z" fill="#3A3BA6"/>
<path d="M356.682 157.152L355.69 161.09L354.323 154.31H354.467C355.955 154.31 357.045 155.709 356.682 157.152Z" fill="#3A3BA6"/>
<path fill-rule="evenodd" clip-rule="evenodd" d="M354.323 154.309C350.539 154.309 347.472 151.242 347.472 147.458H355.693C356.45 147.458 357.063 146.85 357.063 146.094V134.03C356.178 133.851 355.261 133.756 354.323 133.756C346.755 133.756 340.621 139.891 340.621 147.458C340.621 155.026 346.755 161.16 354.323 161.16C354.785 161.16 355.242 161.137 355.693 161.092V155.679C355.693 154.923 355.079 154.309 354.323 154.309ZM354.323 140.607C354.323 141.364 353.709 141.977 352.953 141.977C352.196 141.977 351.583 141.364 351.583 140.607C351.583 139.851 352.196 139.237 352.953 139.237C353.709 139.237 354.323 139.851 354.323 140.607Z" fill="white"/>
</g>
<g filter="url(#filter1_d_1653_26494)">
<rect x="321.236" y="189.414" width="67.2308" height="34.6154" rx="17.3077" fill="#EDEDFD" shape-rendering="crispEdges"/>
<path d="M339.447 212.721L335.925 202.198H337.276L340.338 211.34L343.43 202.198H344.781L341.259 212.721H339.447ZM348.372 212.941C347.587 212.941 346.91 212.763 346.34 212.407C345.775 212.052 345.339 211.56 345.032 210.931C344.725 210.303 344.572 209.582 344.572 208.768C344.572 207.94 344.728 207.214 345.039 206.59C345.351 205.967 345.792 205.482 346.362 205.136C346.932 204.785 347.602 204.61 348.372 204.61C349.161 204.61 349.84 204.788 350.41 205.143C350.98 205.494 351.417 205.984 351.719 206.612C352.025 207.236 352.179 207.954 352.179 208.768C352.179 209.591 352.025 210.317 351.719 210.946C351.412 211.569 350.973 212.059 350.403 212.415C349.833 212.765 349.156 212.941 348.372 212.941ZM348.372 211.706C349.19 211.706 349.799 211.433 350.199 210.887C350.598 210.342 350.798 209.635 350.798 208.768C350.798 207.876 350.596 207.168 350.191 206.641C349.787 206.11 349.18 205.845 348.372 205.845C347.821 205.845 347.368 205.969 347.012 206.218C346.657 206.466 346.391 206.81 346.216 207.248C346.04 207.686 345.953 208.193 345.953 208.768C345.953 209.655 346.157 210.366 346.567 210.902C346.976 211.438 347.578 211.706 348.372 211.706ZM353.934 203.433V202.089H355.235V203.433H353.934ZM353.934 212.721V204.829H355.235V212.721H353.934ZM360.752 212.941C359.954 212.941 359.274 212.763 358.714 212.407C358.158 212.047 357.734 211.552 357.442 210.924C357.15 210.295 356.999 209.579 356.989 208.775C356.999 207.952 357.152 207.228 357.449 206.605C357.751 205.976 358.183 205.487 358.743 205.136C359.303 204.785 359.978 204.61 360.767 204.61C361.6 204.61 362.316 204.814 362.916 205.224C363.52 205.633 363.924 206.193 364.129 206.905L362.842 207.292C362.677 206.834 362.406 206.478 362.031 206.225C361.661 205.972 361.235 205.845 360.752 205.845C360.212 205.845 359.766 205.972 359.415 206.225C359.064 206.473 358.804 206.819 358.633 207.263C358.463 207.701 358.375 208.205 358.37 208.775C358.38 209.652 358.582 210.361 358.977 210.902C359.376 211.438 359.968 211.706 360.752 211.706C361.269 211.706 361.698 211.589 362.039 211.355C362.38 211.116 362.638 210.773 362.813 210.325L364.129 210.668C363.856 211.404 363.43 211.966 362.85 212.356C362.27 212.746 361.571 212.941 360.752 212.941ZM368.826 212.941C368.051 212.941 367.374 212.77 366.794 212.429C366.22 212.083 365.771 211.603 365.45 210.99C365.128 210.371 364.968 209.65 364.968 208.826C364.968 207.964 365.126 207.219 365.443 206.59C365.759 205.957 366.2 205.47 366.765 205.129C367.335 204.783 368.003 204.61 368.768 204.61C369.562 204.61 370.236 204.793 370.792 205.158C371.352 205.523 371.771 206.045 372.049 206.722C372.331 207.399 372.453 208.205 372.414 209.141H371.099V208.673C371.084 207.703 370.887 206.98 370.507 206.503C370.127 206.02 369.562 205.779 368.811 205.779C368.008 205.779 367.396 206.037 366.977 206.554C366.558 207.07 366.349 207.811 366.349 208.775C366.349 209.706 366.558 210.427 366.977 210.938C367.396 211.45 367.993 211.706 368.768 211.706C369.289 211.706 369.742 211.586 370.127 211.348C370.512 211.109 370.814 210.765 371.033 210.317L372.283 210.748C371.976 211.445 371.513 211.986 370.894 212.371C370.28 212.751 369.591 212.941 368.826 212.941ZM365.91 209.141V208.096H371.742V209.141H365.91Z" fill="#212528"/>
</g>
<rect x="297.943" y="88.0193" width="113.269" height="165.337" rx="11.875" stroke="#DBEAF6" stroke-width="5.48078" stroke-dasharray="18.27 18.27"/>
<g filter="url(#filter2_d_1653_26494)">
<rect x="191.524" y="195.808" width="68.5097" height="68.5097" rx="9.13463" fill="#F9EAE5"/>
<path d="M210.3 222.413C210.3 220.612 211.663 219.151 213.345 219.151H237.704C239.385 219.151 240.749 220.612 240.749 222.413V238.725C240.749 240.527 239.385 241.988 237.704 241.988H213.345C211.663 241.988 210.3 240.527 210.3 238.725V222.413Z" fill="#8C2E0E"/>
<path d="M210.3 220.901C210.3 219.093 211.564 217.628 213.123 217.628H237.926C239.485 217.628 240.749 219.093 240.749 220.901C240.749 222.14 240.145 223.273 239.188 223.827L226.886 230.958C226.029 231.455 225.02 231.455 224.163 230.958L211.86 223.827C210.904 223.273 210.3 222.14 210.3 220.901Z" fill="#CC5229"/>
</g>
<g filter="url(#filter3_d_1653_26494)">
<rect x="192.438" y="271.625" width="66.2308" height="34.6154" rx="17.3077" fill="#F9EAE5" shape-rendering="crispEdges"/>
<path d="M208.076 294.933V284.41H214.726V285.645H209.377V288.941H213.849V290.176H209.377V293.698H214.726V294.933H208.076ZM225.917 294.933L225.925 289.883C225.925 289.294 225.766 288.834 225.45 288.502C225.138 288.166 224.731 287.998 224.229 287.998C223.937 287.998 223.659 288.066 223.396 288.203C223.133 288.334 222.919 288.544 222.753 288.831C222.587 289.114 222.505 289.477 222.505 289.92L221.818 289.642C221.808 289.082 221.922 288.592 222.161 288.173C222.405 287.75 222.736 287.421 223.155 287.187C223.574 286.953 224.046 286.836 224.573 286.836C225.396 286.836 226.044 287.087 226.516 287.589C226.989 288.086 227.225 288.756 227.225 289.598L227.218 294.933H225.917ZM216.476 294.933V287.041H217.638V289.153H217.784V294.933H216.476ZM221.204 294.933L221.211 289.935C221.211 289.331 221.055 288.858 220.743 288.517C220.432 288.171 220.017 287.998 219.501 287.998C218.989 287.998 218.575 288.173 218.259 288.524C217.942 288.875 217.784 289.34 217.784 289.92L217.097 289.511C217.097 288.999 217.219 288.541 217.462 288.137C217.706 287.733 218.037 287.416 218.456 287.187C218.875 286.953 219.35 286.836 219.881 286.836C220.412 286.836 220.875 286.948 221.27 287.172C221.664 287.396 221.969 287.718 222.183 288.137C222.397 288.551 222.505 289.046 222.505 289.62L222.497 294.933H221.204ZM231.372 295.152C230.783 295.152 230.288 295.045 229.889 294.831C229.494 294.612 229.194 294.324 228.99 293.968C228.79 293.613 228.69 293.223 228.69 292.799C228.69 292.385 228.768 292.027 228.924 291.725C229.085 291.418 229.309 291.165 229.596 290.965C229.884 290.76 230.227 290.6 230.627 290.483C231.002 290.38 231.421 290.293 231.884 290.22C232.351 290.142 232.824 290.071 233.301 290.008C233.779 289.944 234.225 289.883 234.639 289.825L234.171 290.095C234.186 289.394 234.044 288.875 233.747 288.539C233.455 288.203 232.948 288.035 232.227 288.035C231.75 288.035 231.331 288.144 230.97 288.363C230.615 288.578 230.364 288.929 230.218 289.416L228.983 289.043C229.173 288.351 229.54 287.808 230.086 287.413C230.632 287.019 231.35 286.822 232.242 286.822C232.958 286.822 233.572 286.951 234.083 287.209C234.6 287.462 234.97 287.847 235.194 288.363C235.306 288.607 235.377 288.873 235.406 289.16C235.435 289.443 235.45 289.74 235.45 290.052V294.933H234.295V293.04L234.566 293.216C234.268 293.854 233.852 294.336 233.316 294.663C232.785 294.989 232.137 295.152 231.372 295.152ZM231.569 294.063C232.037 294.063 232.442 293.981 232.783 293.815C233.128 293.645 233.406 293.423 233.616 293.15C233.825 292.872 233.962 292.57 234.025 292.244C234.098 292 234.137 291.73 234.142 291.433C234.152 291.131 234.156 290.899 234.156 290.738L234.609 290.936C234.186 290.994 233.769 291.05 233.36 291.104C232.951 291.157 232.563 291.216 232.198 291.279C231.833 291.338 231.504 291.408 231.211 291.491C230.997 291.559 230.795 291.647 230.605 291.754C230.42 291.861 230.269 292 230.152 292.171C230.04 292.336 229.984 292.543 229.984 292.792C229.984 293.006 230.037 293.211 230.144 293.406C230.257 293.601 230.427 293.759 230.656 293.881C230.89 294.003 231.194 294.063 231.569 294.063ZM237.496 285.645V284.3H238.797V285.645H237.496ZM237.496 294.933V287.041H238.797V294.933H237.496ZM241.136 294.933V284.191H242.436V294.933H241.136Z" fill="#212528"/>
</g>
<g filter="url(#filter4_d_1653_26494)">
<rect x="167.318" y="317.299" width="122.192" height="44.1967" rx="22.0983" fill="white" shape-rendering="crispEdges"/>
<path d="M191.477 346.888C190.459 346.888 189.593 346.661 188.879 346.208C188.172 345.749 187.632 345.119 187.259 344.318C186.887 343.518 186.694 342.605 186.682 341.581C186.694 340.532 186.89 339.61 187.269 338.816C187.653 338.015 188.203 337.392 188.916 336.945C189.63 336.498 190.49 336.274 191.495 336.274C192.557 336.274 193.469 336.535 194.232 337.056C195.002 337.578 195.517 338.292 195.778 339.198L194.139 339.691C193.928 339.108 193.584 338.655 193.106 338.332C192.634 338.009 192.091 337.848 191.477 337.848C190.788 337.848 190.22 338.009 189.773 338.332C189.326 338.648 188.994 339.089 188.777 339.654C188.56 340.213 188.448 340.855 188.442 341.581C188.454 342.698 188.712 343.601 189.214 344.29C189.723 344.973 190.477 345.314 191.477 345.314C192.135 345.314 192.681 345.165 193.115 344.867C193.55 344.563 193.879 344.126 194.102 343.555L195.778 343.992C195.43 344.93 194.887 345.646 194.149 346.143C193.41 346.639 192.519 346.888 191.477 346.888ZM204.837 346.608V341.572C204.837 341.094 204.794 340.635 204.707 340.194C204.626 339.753 204.48 339.359 204.269 339.012C204.064 338.658 203.785 338.378 203.431 338.174C203.084 337.969 202.643 337.866 202.109 337.866C201.694 337.866 201.315 337.938 200.974 338.081C200.638 338.217 200.35 338.428 200.108 338.714C199.866 338.999 199.676 339.359 199.54 339.794C199.409 340.222 199.344 340.728 199.344 341.311L198.255 340.976C198.255 340.002 198.429 339.167 198.776 338.472C199.13 337.77 199.624 337.233 200.257 336.861C200.896 336.482 201.647 336.293 202.51 336.293C203.161 336.293 203.717 336.395 204.176 336.6C204.635 336.805 205.017 337.078 205.321 337.42C205.625 337.755 205.864 338.133 206.038 338.555C206.212 338.971 206.333 339.396 206.401 339.831C206.476 340.259 206.513 340.666 206.513 341.05V346.608H204.837ZM197.669 346.608V333.202H199.158V340.604H199.344V346.608H197.669ZM211.791 346.888C211.04 346.888 210.41 346.751 209.902 346.478C209.399 346.199 209.017 345.833 208.756 345.379C208.502 344.926 208.375 344.43 208.375 343.89C208.375 343.362 208.474 342.906 208.673 342.521C208.877 342.13 209.163 341.808 209.529 341.553C209.895 341.292 210.333 341.088 210.842 340.939C211.32 340.808 211.854 340.697 212.443 340.604C213.039 340.504 213.641 340.414 214.249 340.334C214.857 340.253 215.425 340.175 215.953 340.101L215.357 340.445C215.376 339.552 215.196 338.891 214.817 338.462C214.445 338.034 213.799 337.82 212.881 337.82C212.272 337.82 211.739 337.96 211.279 338.239C210.826 338.512 210.507 338.959 210.32 339.579L208.747 339.105C208.989 338.223 209.458 337.531 210.153 337.029C210.848 336.526 211.764 336.274 212.899 336.274C213.812 336.274 214.594 336.439 215.245 336.768C215.903 337.091 216.375 337.581 216.661 338.239C216.803 338.549 216.893 338.887 216.93 339.254C216.968 339.614 216.986 339.992 216.986 340.389V346.608H215.515V344.197L215.86 344.421C215.481 345.234 214.951 345.848 214.268 346.264C213.591 346.68 212.766 346.888 211.791 346.888ZM212.043 345.501C212.639 345.501 213.154 345.395 213.588 345.184C214.029 344.967 214.383 344.684 214.65 344.337C214.916 343.983 215.09 343.598 215.171 343.182C215.264 342.872 215.314 342.528 215.32 342.149C215.332 341.764 215.339 341.469 215.339 341.265L215.916 341.516C215.376 341.59 214.845 341.662 214.324 341.73C213.802 341.798 213.309 341.873 212.843 341.953C212.378 342.028 211.959 342.118 211.587 342.223C211.314 342.31 211.056 342.422 210.814 342.559C210.578 342.695 210.386 342.872 210.237 343.089C210.094 343.3 210.023 343.564 210.023 343.881C210.023 344.154 210.091 344.414 210.227 344.663C210.37 344.911 210.587 345.113 210.879 345.268C211.177 345.423 211.565 345.501 212.043 345.501ZM226.566 346.608V341.572C226.566 341.094 226.523 340.635 226.436 340.194C226.355 339.753 226.209 339.359 225.998 339.012C225.793 338.658 225.514 338.378 225.16 338.174C224.813 337.969 224.372 337.866 223.838 337.866C223.423 337.866 223.044 337.938 222.703 338.081C222.367 338.217 222.079 338.428 221.837 338.714C221.595 338.999 221.405 339.359 221.269 339.794C221.139 340.222 221.073 340.728 221.073 341.311L219.984 340.976C219.984 340.002 220.158 339.167 220.505 338.472C220.859 337.77 221.353 337.233 221.986 336.861C222.625 336.482 223.376 336.293 224.239 336.293C224.89 336.293 225.446 336.395 225.905 336.6C226.364 336.805 226.746 337.078 227.05 337.42C227.354 337.755 227.593 338.133 227.767 338.555C227.941 338.971 228.062 339.396 228.13 339.831C228.205 340.259 228.242 340.666 228.242 341.05V346.608H226.566ZM219.398 346.608V336.554H220.887V339.244H221.073V346.608H219.398ZM237.822 346.608V341.572C237.822 341.094 237.778 340.635 237.691 340.194C237.611 339.753 237.465 339.359 237.254 339.012C237.049 338.658 236.77 338.378 236.416 338.174C236.068 337.969 235.628 337.866 235.094 337.866C234.678 337.866 234.299 337.938 233.958 338.081C233.623 338.217 233.334 338.428 233.092 338.714C232.85 338.999 232.661 339.359 232.524 339.794C232.394 340.222 232.329 340.728 232.329 341.311L231.24 340.976C231.24 340.002 231.413 339.167 231.761 338.472C232.115 337.77 232.608 337.233 233.241 336.861C233.88 336.482 234.631 336.293 235.494 336.293C236.146 336.293 236.701 336.395 237.161 336.6C237.62 336.805 238.002 337.078 238.306 337.42C238.61 337.755 238.849 338.133 239.023 338.555C239.196 338.971 239.317 339.396 239.386 339.831C239.46 340.259 239.497 340.666 239.497 341.05V346.608H237.822ZM230.653 346.608V336.554H232.143V339.244H232.329V346.608H230.653ZM246.184 346.888C245.197 346.888 244.334 346.67 243.596 346.236C242.863 345.795 242.292 345.184 241.883 344.402C241.473 343.614 241.268 342.695 241.268 341.646C241.268 340.548 241.47 339.598 241.873 338.797C242.277 337.991 242.839 337.37 243.559 336.935C244.285 336.495 245.135 336.274 246.109 336.274C247.121 336.274 247.981 336.507 248.688 336.973C249.402 337.438 249.936 338.102 250.29 338.965C250.65 339.828 250.805 340.855 250.755 342.047H249.079V341.451C249.061 340.216 248.809 339.294 248.325 338.686C247.841 338.071 247.121 337.764 246.165 337.764C245.141 337.764 244.362 338.093 243.829 338.751C243.295 339.409 243.028 340.352 243.028 341.581C243.028 342.767 243.295 343.685 243.829 344.337C244.362 344.988 245.123 345.314 246.109 345.314C246.774 345.314 247.351 345.162 247.841 344.858C248.331 344.554 248.716 344.116 248.996 343.545L250.588 344.095C250.196 344.982 249.607 345.671 248.819 346.162C248.037 346.646 247.158 346.888 246.184 346.888ZM242.469 342.047V340.715H249.899V342.047H242.469ZM253.014 346.608V332.923H254.671V346.608H253.014ZM260.82 346.599L260.829 345.11L266.778 339.756C267.275 339.309 267.607 338.887 267.774 338.49C267.948 338.087 268.035 337.674 268.035 337.252C268.035 336.737 267.917 336.271 267.681 335.856C267.445 335.44 267.123 335.111 266.713 334.869C266.309 334.627 265.85 334.506 265.335 334.506C264.801 334.506 264.326 334.633 263.911 334.887C263.495 335.136 263.166 335.468 262.924 335.883C262.688 336.299 262.573 336.752 262.579 337.243H260.885C260.885 336.399 261.08 335.654 261.471 335.008C261.862 334.357 262.393 333.848 263.063 333.482C263.74 333.109 264.506 332.923 265.363 332.923C266.195 332.923 266.939 333.115 267.597 333.5C268.255 333.879 268.773 334.397 269.152 335.055C269.537 335.707 269.729 336.445 269.729 337.271C269.729 337.854 269.655 338.36 269.506 338.788C269.363 339.216 269.14 339.614 268.836 339.98C268.531 340.34 268.15 340.725 267.69 341.134L262.747 345.575L262.533 345.016H269.729V346.599H260.82Z" fill="#212528"/>
</g>
<g filter="url(#filter5_d_1653_26494)">
<rect x="75.0577" y="58.7885" width="60.2886" height="34.7116" rx="17.3558" fill="#D2E3F1" shape-rendering="crispEdges"/>
<path d="M94.4305 82.3154C93.6851 82.3154 93.0128 82.1888 92.4135 81.9354C91.8192 81.6821 91.3271 81.3216 90.9374 80.8539C90.5525 80.3813 90.3016 79.8235 90.1847 79.1804L91.5293 78.9685C91.6998 79.6311 92.053 80.1499 92.5889 80.525C93.1297 80.8953 93.7655 81.0804 94.4962 81.0804C94.9688 81.0804 95.3951 81.0073 95.7751 80.8612C96.16 80.7102 96.4645 80.4958 96.6886 80.2181C96.9127 79.9404 97.0247 79.6116 97.0247 79.2316C97.0247 78.9977 96.9833 78.798 96.9005 78.6323C96.8225 78.4618 96.7129 78.3181 96.5716 78.2012C96.4352 78.0794 96.2793 77.9771 96.1039 77.8943C95.9286 77.8114 95.7459 77.7432 95.5559 77.6896L92.8739 76.8931C92.5816 76.8054 92.2991 76.6958 92.0262 76.5643C91.7534 76.4278 91.5098 76.2598 91.2955 76.06C91.0811 75.8554 90.9106 75.6118 90.7839 75.3293C90.6573 75.0418 90.5939 74.7032 90.5939 74.3135C90.5939 73.6899 90.7547 73.1589 91.0762 72.7204C91.4026 72.2771 91.8435 71.9385 92.3989 71.7046C92.9543 71.4708 93.5803 71.3563 94.277 71.3612C94.9834 71.366 95.6143 71.4927 96.1697 71.7412C96.73 71.9848 97.1928 72.3355 97.5582 72.7935C97.9284 73.2514 98.1769 73.7995 98.3036 74.4377L96.9224 74.6789C96.8493 74.2502 96.6861 73.8823 96.4328 73.5754C96.1843 73.2636 95.8725 73.0249 95.4974 72.8593C95.1223 72.6887 94.7106 72.601 94.2624 72.5962C93.8337 72.5913 93.4464 72.6595 93.1005 72.8008C92.7546 72.9421 92.4793 73.1394 92.2747 73.3927C92.0701 73.6412 91.9678 73.9286 91.9678 74.255C91.9678 74.5766 92.0603 74.8372 92.2455 75.0369C92.4306 75.2318 92.6571 75.3877 92.9251 75.5046C93.1979 75.6167 93.4634 75.7093 93.7216 75.7823L95.7239 76.3596C95.9529 76.423 96.216 76.5107 96.5132 76.6227C96.8152 76.7348 97.1075 76.8931 97.3901 77.0977C97.6727 77.2975 97.9065 77.5654 98.0916 77.9016C98.2768 78.2329 98.3693 78.6518 98.3693 79.1585C98.3693 79.6652 98.267 80.1158 98.0624 80.5104C97.8627 80.905 97.5825 81.2363 97.222 81.5043C96.8615 81.7673 96.4425 81.9671 95.9651 82.1035C95.4877 82.2448 94.9761 82.3154 94.4305 82.3154ZM99.9022 82.0962V71.5731H101.086L105.061 79.955L109.015 71.5731H110.213V82.0889H108.978V74.4304L105.405 82.0962H104.711L101.137 74.4304V82.0962H99.9022ZM115.997 82.3154C115.251 82.3154 114.579 82.1888 113.98 81.9354C113.385 81.6821 112.893 81.3216 112.504 80.8539C112.119 80.3813 111.868 79.8235 111.751 79.1804L113.096 78.9685C113.266 79.6311 113.619 80.1499 114.155 80.525C114.696 80.8953 115.332 81.0804 116.063 81.0804C116.535 81.0804 116.961 81.0073 117.341 80.8612C117.726 80.7102 118.031 80.4958 118.255 80.2181C118.479 79.9404 118.591 79.6116 118.591 79.2316C118.591 78.9977 118.55 78.798 118.467 78.6323C118.389 78.4618 118.279 78.3181 118.138 78.2012C118.002 78.0794 117.846 77.9771 117.67 77.8943C117.495 77.8114 117.312 77.7432 117.122 77.6896L114.44 76.8931C114.148 76.8054 113.865 76.6958 113.593 76.5643C113.32 76.4278 113.076 76.2598 112.862 76.06C112.647 75.8554 112.477 75.6118 112.35 75.3293C112.224 75.0418 112.16 74.7032 112.16 74.3135C112.16 73.6899 112.321 73.1589 112.643 72.7204C112.969 72.2771 113.41 71.9385 113.965 71.7046C114.521 71.4708 115.147 71.3563 115.843 71.3612C116.55 71.366 117.181 71.4927 117.736 71.7412C118.296 71.9848 118.759 72.3355 119.124 72.7935C119.495 73.2514 119.743 73.7995 119.87 74.4377L118.489 74.6789C118.416 74.2502 118.252 73.8823 117.999 73.5754C117.751 73.2636 117.439 73.0249 117.064 72.8593C116.689 72.6887 116.277 72.601 115.829 72.5962C115.4 72.5913 115.013 72.6595 114.667 72.8008C114.321 72.9421 114.046 73.1394 113.841 73.3927C113.636 73.6412 113.534 73.9286 113.534 74.255C113.534 74.5766 113.627 74.8372 113.812 75.0369C113.997 75.2318 114.223 75.3877 114.491 75.5046C114.764 75.6167 115.03 75.7093 115.288 75.7823L117.29 76.3596C117.519 76.423 117.782 76.5107 118.079 76.6227C118.382 76.7348 118.674 76.8931 118.956 77.0977C119.239 77.2975 119.473 77.5654 119.658 77.9016C119.843 78.2329 119.936 78.6518 119.936 79.1585C119.936 79.6652 119.833 80.1158 119.629 80.5104C119.429 80.905 119.149 81.2363 118.788 81.5043C118.428 81.7673 118.009 81.9671 117.531 82.1035C117.054 82.2448 116.542 82.3154 115.997 82.3154Z" fill="#212528"/>
</g>
<g filter="url(#filter6_d_1653_26494)">
<rect x="70.9472" y="100.808" width="68.5097" height="68.5097" rx="9.13463" fill="#D2E3F1"/>
<path d="M89.7228 125.673C89.7228 123.151 91.7676 121.106 94.2901 121.106H115.604C118.127 121.106 120.172 123.151 120.172 125.673V137.853C120.172 140.375 118.127 142.42 115.604 142.42H89.7228V125.673Z" fill="#0D4680"/>
<path d="M89.7228 125.673C89.7228 123.151 91.7676 121.106 94.2901 121.106H115.764C116.162 121.106 116.558 121.17 116.936 121.296L89.7228 148.51V125.673Z" fill="#66BDFF"/>
</g>
<g filter="url(#filter7_d_1653_26494)">
<rect x="44" y="186.217" width="119.451" height="44.1967" rx="22.0983" fill="white" shape-rendering="crispEdges"/>
<path d="M68.1591 215.806C67.1412 215.806 66.2754 215.579 65.5616 215.126C64.8541 214.667 64.3141 214.037 63.9417 213.236C63.5693 212.435 63.3769 211.523 63.3645 210.499C63.3769 209.45 63.5724 208.528 63.951 207.734C64.3358 206.933 64.8851 206.31 65.5989 205.863C66.3126 205.416 67.1722 205.192 68.1777 205.192C69.239 205.192 70.1514 205.453 70.9148 205.974C71.6844 206.496 72.1996 207.21 72.4602 208.116L70.8217 208.609C70.6107 208.026 70.2662 207.573 69.7883 207.25C69.3166 206.927 68.7735 206.766 68.1591 206.766C67.4702 206.766 66.9023 206.927 66.4554 207.25C66.0085 207.566 65.6765 208.007 65.4592 208.572C65.242 209.13 65.1303 209.773 65.1241 210.499C65.1365 211.616 65.3941 212.519 65.8968 213.208C66.4057 213.891 67.1598 214.232 68.1591 214.232C68.817 214.232 69.3632 214.083 69.7976 213.785C70.2321 213.481 70.561 213.044 70.7845 212.473L72.4602 212.91C72.1127 213.847 71.5696 214.564 70.831 215.061C70.0924 215.557 69.2018 215.806 68.1591 215.806ZM81.5196 215.526V210.49C81.5196 210.012 81.4762 209.553 81.3893 209.112C81.3086 208.671 81.1627 208.277 80.9517 207.93C80.7469 207.576 80.4676 207.296 80.1138 207.092C79.7662 206.887 79.3256 206.784 78.7918 206.784C78.376 206.784 77.9974 206.856 77.656 206.999C77.3209 207.135 77.0322 207.346 76.7902 207.632C76.5481 207.917 76.3588 208.277 76.2223 208.712C76.092 209.14 76.0268 209.646 76.0268 210.229L74.9375 209.894C74.9375 208.919 75.1113 208.085 75.4589 207.39C75.8127 206.688 76.3061 206.151 76.9392 205.779C77.5784 205.4 78.3294 205.211 79.1921 205.211C79.8438 205.211 80.3993 205.313 80.8586 205.518C81.3179 205.723 81.6996 205.996 82.0037 206.338C82.3078 206.673 82.5468 207.051 82.7206 207.473C82.8944 207.889 83.0154 208.314 83.0837 208.749C83.1581 209.177 83.1954 209.584 83.1954 209.968V215.526H81.5196ZM74.351 215.526V202.12H75.8406V209.522H76.0268V215.526H74.351ZM88.4739 215.806C87.7229 215.806 87.093 215.669 86.584 215.396C86.0813 215.117 85.6996 214.751 85.4389 214.297C85.1844 213.844 85.0572 213.348 85.0572 212.808C85.0572 212.28 85.1565 211.824 85.3551 211.439C85.5599 211.048 85.8454 210.726 86.2116 210.471C86.5778 210.21 87.0154 210.006 87.5243 209.857C88.0022 209.726 88.536 209.615 89.1256 209.522C89.7214 209.422 90.3235 209.332 90.9317 209.252C91.54 209.171 92.1079 209.093 92.6354 209.019L92.0396 209.363C92.0582 208.469 91.8782 207.808 91.4996 207.38C91.1272 206.952 90.4817 206.738 89.5632 206.738C88.9549 206.738 88.4212 206.878 87.9619 207.157C87.5088 207.43 87.1892 207.877 87.003 208.497L85.4296 208.023C85.6716 207.141 86.1402 206.449 86.8354 205.947C87.5305 205.444 88.446 205.192 89.5818 205.192C90.4942 205.192 91.2762 205.357 91.9279 205.686C92.5858 206.009 93.0575 206.499 93.343 207.157C93.4857 207.467 93.5757 207.805 93.613 208.172C93.6502 208.532 93.6688 208.91 93.6688 209.307V215.526H92.1979V213.115L92.5423 213.339C92.1637 214.152 91.6331 214.766 90.9503 215.182C90.2738 215.598 89.4483 215.806 88.4739 215.806ZM88.7253 214.418C89.3211 214.418 89.8363 214.313 90.2707 214.102C90.7114 213.885 91.0652 213.602 91.332 213.255C91.5989 212.901 91.7727 212.516 91.8534 212.1C91.9465 211.79 91.9961 211.446 92.0024 211.067C92.0148 210.682 92.021 210.387 92.021 210.183L92.5982 210.434C92.0582 210.508 91.5275 210.58 91.0062 210.648C90.4848 210.716 89.9914 210.791 89.5259 210.871C89.0604 210.946 88.6415 211.036 88.2691 211.141C87.996 211.228 87.7384 211.34 87.4964 211.477C87.2605 211.613 87.0681 211.79 86.9192 212.007C86.7764 212.218 86.705 212.482 86.705 212.799C86.705 213.072 86.7733 213.332 86.9099 213.581C87.0526 213.829 87.2698 214.031 87.5615 214.186C87.8595 214.341 88.2474 214.418 88.7253 214.418ZM103.249 215.526V210.49C103.249 210.012 103.205 209.553 103.118 209.112C103.038 208.671 102.892 208.277 102.681 207.93C102.476 207.576 102.197 207.296 101.843 207.092C101.495 206.887 101.055 206.784 100.521 206.784C100.105 206.784 99.7264 206.856 99.3851 206.999C99.0499 207.135 98.7613 207.346 98.5192 207.632C98.2772 207.917 98.0879 208.277 97.9513 208.712C97.821 209.14 97.7558 209.646 97.7558 210.229L96.6666 209.894C96.6666 208.919 96.8404 208.085 97.1879 207.39C97.5417 206.688 98.0351 206.151 98.6682 205.779C99.3075 205.4 100.058 205.211 100.921 205.211C101.573 205.211 102.128 205.313 102.588 205.518C103.047 205.723 103.429 205.996 103.733 206.338C104.037 206.673 104.276 207.051 104.45 207.473C104.623 207.889 104.744 208.314 104.813 208.749C104.887 209.177 104.924 209.584 104.924 209.968V215.526H103.249ZM96.0801 215.526V205.472H97.5696V208.162H97.7558V215.526H96.0801ZM114.504 215.526V210.49C114.504 210.012 114.461 209.553 114.374 209.112C114.293 208.671 114.147 208.277 113.936 207.93C113.731 207.576 113.452 207.296 113.098 207.092C112.751 206.887 112.31 206.784 111.776 206.784C111.36 206.784 110.982 206.856 110.641 206.999C110.305 207.135 110.017 207.346 109.775 207.632C109.533 207.917 109.343 208.277 109.207 208.712C109.076 209.14 109.011 209.646 109.011 210.229L107.922 209.894C107.922 208.919 108.096 208.085 108.443 207.39C108.797 206.688 109.291 206.151 109.924 205.779C110.563 205.4 111.314 205.211 112.177 205.211C112.828 205.211 113.384 205.313 113.843 205.518C114.302 205.723 114.684 205.996 114.988 206.338C115.292 206.673 115.531 207.051 115.705 207.473C115.879 207.889 116 208.314 116.068 208.749C116.143 209.177 116.18 209.584 116.18 209.968V215.526H114.504ZM107.336 215.526V205.472H108.825V208.162H109.011V215.526H107.336ZM122.866 215.806C121.88 215.806 121.017 215.588 120.278 215.154C119.546 214.713 118.975 214.102 118.565 213.32C118.156 212.532 117.951 211.613 117.951 210.564C117.951 209.466 118.153 208.516 118.556 207.715C118.959 206.909 119.521 206.288 120.241 205.853C120.967 205.413 121.818 205.192 122.792 205.192C123.804 205.192 124.663 205.425 125.371 205.891C126.085 206.356 126.618 207.02 126.972 207.883C127.332 208.746 127.487 209.773 127.438 210.965H125.762V210.369C125.743 209.134 125.492 208.212 125.008 207.604C124.524 206.989 123.804 206.682 122.848 206.682C121.824 206.682 121.045 207.011 120.511 207.669C119.977 208.327 119.71 209.27 119.71 210.499C119.71 211.685 119.977 212.603 120.511 213.255C121.045 213.906 121.805 214.232 122.792 214.232C123.456 214.232 124.033 214.08 124.524 213.776C125.014 213.472 125.399 213.034 125.678 212.463L127.27 213.013C126.879 213.9 126.289 214.589 125.501 215.079C124.719 215.564 123.841 215.806 122.866 215.806ZM119.152 210.965V209.633H126.581V210.965H119.152ZM129.697 215.526V201.841H131.354V215.526H129.697ZM140.211 215.526V203.954L137.688 205.481V203.628L140.211 202.12H141.896V215.526H140.211Z" fill="#212528"/>
</g>
<g filter="url(#filter8_d_1653_26494)">
<rect x="389" y="228" width="178.239" height="43.6197" rx="21.8099" fill="white" shape-rendering="crispEdges"/>
<path d="M408.923 257.31V243.904H414.22C414.351 243.904 414.506 243.91 414.686 243.922C414.866 243.928 415.04 243.947 415.207 243.978C415.933 244.09 416.542 244.338 417.032 244.723C417.529 245.108 417.901 245.595 418.149 246.185C418.397 246.768 418.522 247.417 418.522 248.13C418.522 249.167 418.252 250.067 417.712 250.83C417.172 251.587 416.38 252.062 415.338 252.255L414.705 252.357H410.58V257.31H408.923ZM416.902 257.31L414.258 251.854L415.896 251.352L418.801 257.31H416.902ZM410.58 250.784H414.165C414.283 250.784 414.416 250.777 414.565 250.765C414.72 250.753 414.866 250.731 415.002 250.7C415.431 250.601 415.778 250.421 416.045 250.16C416.318 249.893 416.517 249.583 416.641 249.229C416.765 248.869 416.827 248.503 416.827 248.13C416.827 247.758 416.765 247.395 416.641 247.041C416.517 246.681 416.318 246.368 416.045 246.101C415.778 245.834 415.431 245.654 415.002 245.561C414.866 245.524 414.72 245.502 414.565 245.496C414.416 245.483 414.283 245.477 414.165 245.477H410.58V250.784ZM425.208 257.589C424.222 257.589 423.359 257.372 422.62 256.937C421.888 256.497 421.317 255.885 420.907 255.103C420.498 254.315 420.293 253.397 420.293 252.348C420.293 251.249 420.495 250.299 420.898 249.499C421.301 248.692 421.863 248.071 422.583 247.637C423.309 247.196 424.159 246.976 425.134 246.976C426.146 246.976 427.005 247.209 427.713 247.674C428.427 248.14 428.96 248.804 429.314 249.666C429.674 250.529 429.829 251.556 429.78 252.748H428.104V252.152C428.085 250.917 427.834 249.995 427.35 249.387C426.866 248.773 426.146 248.465 425.19 248.465C424.166 248.465 423.387 248.794 422.853 249.452C422.319 250.11 422.052 251.054 422.052 252.282C422.052 253.468 422.319 254.387 422.853 255.038C423.387 255.69 424.147 256.016 425.134 256.016C425.798 256.016 426.375 255.864 426.866 255.56C427.356 255.255 427.741 254.818 428.02 254.247L429.612 254.796C429.221 255.684 428.631 256.373 427.843 256.863C427.061 257.347 426.183 257.589 425.208 257.589ZM421.494 252.748V251.417H428.923V252.748H421.494ZM437.466 257.31C436.87 257.428 436.281 257.474 435.697 257.449C435.12 257.431 434.605 257.316 434.152 257.105C433.699 256.888 433.354 256.553 433.118 256.1C432.92 255.702 432.811 255.302 432.793 254.899C432.78 254.489 432.774 254.027 432.774 253.511V244.462H434.431V253.437C434.431 253.847 434.434 254.197 434.44 254.489C434.453 254.781 434.518 255.032 434.636 255.243C434.859 255.64 435.213 255.873 435.697 255.941C436.188 256.01 436.777 255.991 437.466 255.885V257.31ZM430.735 248.624V247.255H437.466V248.624H430.735ZM439.507 257.31V247.255H440.988V249.685L440.746 249.369C440.864 249.058 441.016 248.773 441.202 248.512C441.394 248.251 441.608 248.037 441.844 247.87C442.105 247.659 442.4 247.497 442.729 247.386C443.058 247.274 443.393 247.209 443.734 247.19C444.075 247.165 444.395 247.187 444.693 247.255V248.81C444.345 248.717 443.964 248.692 443.548 248.735C443.132 248.779 442.747 248.931 442.394 249.192C442.071 249.421 441.819 249.701 441.639 250.03C441.466 250.358 441.345 250.715 441.276 251.1C441.208 251.479 441.174 251.867 441.174 252.264V257.31H439.507ZM447.668 261.779L449.614 256.491L449.642 258.055L445.248 247.255H446.989L450.433 255.941H449.837L453.068 247.255H454.753L449.279 261.779H447.668ZM462.16 257.31L459.087 247.246L460.735 247.255L462.979 254.61L465.241 247.255H466.703L468.956 254.61L471.209 247.255H472.847L469.775 257.31H468.397L465.967 249.666L463.537 257.31H462.16ZM474.715 245.477V243.764H476.372V245.477H474.715ZM474.715 257.31V247.255H476.372V257.31H474.715ZM484.779 257.31C484.183 257.428 483.594 257.474 483.01 257.449C482.433 257.431 481.918 257.316 481.465 257.105C481.012 256.888 480.667 256.553 480.431 256.1C480.233 255.702 480.124 255.302 480.106 254.899C480.093 254.489 480.087 254.027 480.087 253.511V244.462H481.744V253.437C481.744 253.847 481.747 254.197 481.753 254.489C481.766 254.781 481.831 255.032 481.949 255.243C482.172 255.64 482.526 255.873 483.01 255.941C483.501 256.01 484.09 255.991 484.779 255.885V257.31ZM478.048 248.624V247.255H484.779V248.624H478.048ZM493.98 257.31V252.273C493.98 251.795 493.936 251.336 493.849 250.895C493.769 250.455 493.623 250.061 493.412 249.713C493.207 249.359 492.928 249.08 492.574 248.875C492.226 248.67 491.786 248.568 491.252 248.568C490.836 248.568 490.457 248.639 490.116 248.782C489.781 248.919 489.492 249.13 489.25 249.415C489.008 249.701 488.819 250.061 488.682 250.495C488.552 250.923 488.487 251.429 488.487 252.013L487.398 251.677C487.398 250.703 487.571 249.868 487.919 249.173C488.273 248.472 488.766 247.935 489.399 247.562C490.039 247.184 490.79 246.994 491.652 246.994C492.304 246.994 492.859 247.097 493.319 247.302C493.778 247.507 494.16 247.78 494.464 248.121C494.768 248.456 495.007 248.835 495.181 249.257C495.354 249.673 495.476 250.098 495.544 250.532C495.618 250.96 495.655 251.367 495.655 251.752V257.31H493.98ZM486.811 257.31V243.904H488.301V251.305H488.487V257.31H486.811ZM505.081 257.31L500.593 243.904H502.316L506.216 255.55L510.154 243.904H511.877L507.389 257.31H505.081ZM516.451 257.589C515.451 257.589 514.589 257.363 513.862 256.909C513.142 256.456 512.587 255.83 512.196 255.029C511.805 254.228 511.609 253.31 511.609 252.273C511.609 251.218 511.808 250.293 512.205 249.499C512.602 248.704 513.164 248.087 513.89 247.646C514.616 247.199 515.47 246.976 516.451 246.976C517.456 246.976 518.322 247.202 519.048 247.655C519.774 248.102 520.33 248.726 520.714 249.527C521.105 250.321 521.301 251.237 521.301 252.273C521.301 253.322 521.105 254.247 520.714 255.048C520.323 255.842 519.765 256.466 519.039 256.919C518.312 257.366 517.45 257.589 516.451 257.589ZM516.451 256.016C517.493 256.016 518.269 255.668 518.778 254.973C519.287 254.278 519.541 253.378 519.541 252.273C519.541 251.137 519.284 250.234 518.769 249.564C518.254 248.887 517.481 248.549 516.451 248.549C515.749 248.549 515.172 248.708 514.719 249.024C514.266 249.341 513.928 249.778 513.704 250.337C513.481 250.895 513.369 251.541 513.369 252.273C513.369 253.403 513.63 254.309 514.151 254.992C514.672 255.674 515.439 256.016 516.451 256.016ZM523.537 245.477V243.764H525.194V245.477H523.537ZM523.537 257.31V247.255H525.194V257.31H523.537ZM532.223 257.589C531.206 257.589 530.34 257.363 529.626 256.909C528.918 256.45 528.378 255.82 528.006 255.02C527.634 254.219 527.441 253.307 527.429 252.282C527.441 251.234 527.637 250.312 528.015 249.517C528.4 248.717 528.949 248.093 529.663 247.646C530.377 247.199 531.237 246.976 532.242 246.976C533.303 246.976 534.216 247.237 534.979 247.758C535.749 248.279 536.264 248.993 536.525 249.899L534.886 250.393C534.675 249.809 534.331 249.356 533.853 249.033C533.381 248.711 532.838 248.549 532.223 248.549C531.535 248.549 530.967 248.711 530.52 249.033C530.073 249.35 529.741 249.791 529.524 250.355C529.306 250.914 529.195 251.556 529.188 252.282C529.201 253.4 529.458 254.303 529.961 254.992C530.47 255.674 531.224 256.016 532.223 256.016C532.881 256.016 533.428 255.867 533.862 255.569C534.296 255.265 534.625 254.827 534.849 254.256L536.525 254.694C536.177 255.631 535.634 256.348 534.895 256.844C534.157 257.341 533.266 257.589 532.223 257.589ZM542.509 257.589C541.522 257.589 540.659 257.372 539.921 256.937C539.188 256.497 538.617 255.885 538.208 255.103C537.798 254.315 537.593 253.397 537.593 252.348C537.593 251.249 537.795 250.299 538.198 249.499C538.602 248.692 539.164 248.071 539.884 247.637C540.61 247.196 541.46 246.976 542.434 246.976C543.446 246.976 544.306 247.209 545.013 247.674C545.727 248.14 546.261 248.804 546.615 249.666C546.975 250.529 547.13 251.556 547.08 252.748H545.404V252.152C545.386 250.917 545.134 249.995 544.65 249.387C544.166 248.773 543.446 248.465 542.49 248.465C541.466 248.465 540.687 248.794 540.154 249.452C539.62 250.11 539.353 251.054 539.353 252.282C539.353 253.468 539.62 254.387 540.154 255.038C540.687 255.69 541.448 256.016 542.434 256.016C543.099 256.016 543.676 255.864 544.166 255.56C544.656 255.255 545.041 254.818 545.321 254.247L546.912 254.796C546.521 255.684 545.932 256.373 545.144 256.863C544.362 257.347 543.483 257.589 542.509 257.589ZM538.794 252.748V251.417H546.224V252.748H538.794Z" fill="#212528"/>
</g>
<defs>
<filter id="filter0_d_1653_26494" x="316.669" y="113.596" width="75.8174" height="75.8175" filterUnits="userSpaceOnUse" color-interpolation-filters="sRGB">
<feFlood flood-opacity="0" result="BackgroundImageFix"/>
<feColorMatrix in="SourceAlpha" type="matrix" values="0 0 0 0 0 0 0 0 0 0 0 0 0 0 0 0 0 0 127 0" result="hardAlpha"/>
<feOffset dy="3.65385"/>
<feGaussianBlur stdDeviation="1.82693"/>
<feComposite in2="hardAlpha" operator="out"/>
<feColorMatrix type="matrix" values="0 0 0 0 0 0 0 0 0 0 0 0 0 0 0 0 0 0 0.25 0"/>
<feBlend mode="normal" in2="BackgroundImageFix" result="effect1_dropShadow_1653_26494"/>
<feBlend mode="normal" in="SourceGraphic" in2="effect1_dropShadow_1653_26494" result="shape"/>
</filter>
<filter id="filter1_d_1653_26494" x="317.582" y="189.414" width="74.5385" height="41.9231" filterUnits="userSpaceOnUse" color-interpolation-filters="sRGB">
<feFlood flood-opacity="0" result="BackgroundImageFix"/>
<feColorMatrix in="SourceAlpha" type="matrix" values="0 0 0 0 0 0 0 0 0 0 0 0 0 0 0 0 0 0 127 0" result="hardAlpha"/>
<feOffset dy="3.65385"/>
<feGaussianBlur stdDeviation="1.82693"/>
<feComposite in2="hardAlpha" operator="out"/>
<feColorMatrix type="matrix" values="0 0 0 0 0 0 0 0 0 0 0 0 0 0 0 0 0 0 0.25 0"/>
<feBlend mode="normal" in2="BackgroundImageFix" result="effect1_dropShadow_1653_26494"/>
<feBlend mode="normal" in="SourceGraphic" in2="effect1_dropShadow_1653_26494" result="shape"/>
</filter>
<filter id="filter2_d_1653_26494" x="187.87" y="195.808" width="75.8174" height="75.8175" filterUnits="userSpaceOnUse" color-interpolation-filters="sRGB">
<feFlood flood-opacity="0" result="BackgroundImageFix"/>
<feColorMatrix in="SourceAlpha" type="matrix" values="0 0 0 0 0 0 0 0 0 0 0 0 0 0 0 0 0 0 127 0" result="hardAlpha"/>
<feOffset dy="3.65385"/>
<feGaussianBlur stdDeviation="1.82693"/>
<feComposite in2="hardAlpha" operator="out"/>
<feColorMatrix type="matrix" values="0 0 0 0 0 0 0 0 0 0 0 0 0 0 0 0 0 0 0.25 0"/>
<feBlend mode="normal" in2="BackgroundImageFix" result="effect1_dropShadow_1653_26494"/>
<feBlend mode="normal" in="SourceGraphic" in2="effect1_dropShadow_1653_26494" result="shape"/>
</filter>
<filter id="filter3_d_1653_26494" x="188.784" y="271.625" width="73.5385" height="41.9231" filterUnits="userSpaceOnUse" color-interpolation-filters="sRGB">
<feFlood flood-opacity="0" result="BackgroundImageFix"/>
<feColorMatrix in="SourceAlpha" type="matrix" values="0 0 0 0 0 0 0 0 0 0 0 0 0 0 0 0 0 0 127 0" result="hardAlpha"/>
<feOffset dy="3.65385"/>
<feGaussianBlur stdDeviation="1.82693"/>
<feComposite in2="hardAlpha" operator="out"/>
<feColorMatrix type="matrix" values="0 0 0 0 0 0 0 0 0 0 0 0 0 0 0 0 0 0 0.25 0"/>
<feBlend mode="normal" in2="BackgroundImageFix" result="effect1_dropShadow_1653_26494"/>
<feBlend mode="normal" in="SourceGraphic" in2="effect1_dropShadow_1653_26494" result="shape"/>
</filter>
<filter id="filter4_d_1653_26494" x="162.663" y="317.299" width="131.501" height="53.5065" filterUnits="userSpaceOnUse" color-interpolation-filters="sRGB">
<feFlood flood-opacity="0" result="BackgroundImageFix"/>
<feColorMatrix in="SourceAlpha" type="matrix" values="0 0 0 0 0 0 0 0 0 0 0 0 0 0 0 0 0 0 127 0" result="hardAlpha"/>
<feOffset dy="4.65493"/>
<feGaussianBlur stdDeviation="2.32746"/>
<feComposite in2="hardAlpha" operator="out"/>
<feColorMatrix type="matrix" values="0 0 0 0 0 0 0 0 0 0 0 0 0 0 0 0 0 0 0.25 0"/>
<feBlend mode="normal" in2="BackgroundImageFix" result="effect1_dropShadow_1653_26494"/>
<feBlend mode="normal" in="SourceGraphic" in2="effect1_dropShadow_1653_26494" result="shape"/>
</filter>
<filter id="filter5_d_1653_26494" x="71.4039" y="58.7885" width="67.5963" height="42.0193" filterUnits="userSpaceOnUse" color-interpolation-filters="sRGB">
<feFlood flood-opacity="0" result="BackgroundImageFix"/>
<feColorMatrix in="SourceAlpha" type="matrix" values="0 0 0 0 0 0 0 0 0 0 0 0 0 0 0 0 0 0 127 0" result="hardAlpha"/>
<feOffset dy="3.65385"/>
<feGaussianBlur stdDeviation="1.82693"/>
<feComposite in2="hardAlpha" operator="out"/>
<feColorMatrix type="matrix" values="0 0 0 0 0 0 0 0 0 0 0 0 0 0 0 0 0 0 0.25 0"/>
<feBlend mode="normal" in2="BackgroundImageFix" result="effect1_dropShadow_1653_26494"/>
<feBlend mode="normal" in="SourceGraphic" in2="effect1_dropShadow_1653_26494" result="shape"/>
</filter>
<filter id="filter6_d_1653_26494" x="67.2933" y="100.808" width="75.8175" height="75.8175" filterUnits="userSpaceOnUse" color-interpolation-filters="sRGB">
<feFlood flood-opacity="0" result="BackgroundImageFix"/>
<feColorMatrix in="SourceAlpha" type="matrix" values="0 0 0 0 0 0 0 0 0 0 0 0 0 0 0 0 0 0 127 0" result="hardAlpha"/>
<feOffset dy="3.65385"/>
<feGaussianBlur stdDeviation="1.82693"/>
<feComposite in2="hardAlpha" operator="out"/>
<feColorMatrix type="matrix" values="0 0 0 0 0 0 0 0 0 0 0 0 0 0 0 0 0 0 0.25 0"/>
<feBlend mode="normal" in2="BackgroundImageFix" result="effect1_dropShadow_1653_26494"/>
<feBlend mode="normal" in="SourceGraphic" in2="effect1_dropShadow_1653_26494" result="shape"/>
</filter>
<filter id="filter7_d_1653_26494" x="39.3451" y="186.217" width="128.761" height="53.5065" filterUnits="userSpaceOnUse" color-interpolation-filters="sRGB">
<feFlood flood-opacity="0" result="BackgroundImageFix"/>
<feColorMatrix in="SourceAlpha" type="matrix" values="0 0 0 0 0 0 0 0 0 0 0 0 0 0 0 0 0 0 127 0" result="hardAlpha"/>
<feOffset dy="4.65493"/>
<feGaussianBlur stdDeviation="2.32746"/>
<feComposite in2="hardAlpha" operator="out"/>
<feColorMatrix type="matrix" values="0 0 0 0 0 0 0 0 0 0 0 0 0 0 0 0 0 0 0.25 0"/>
<feBlend mode="normal" in2="BackgroundImageFix" result="effect1_dropShadow_1653_26494"/>
<feBlend mode="normal" in="SourceGraphic" in2="effect1_dropShadow_1653_26494" result="shape"/>
</filter>
<filter id="filter8_d_1653_26494" x="384.345" y="228" width="187.549" height="52.9296" filterUnits="userSpaceOnUse" color-interpolation-filters="sRGB">
<feFlood flood-opacity="0" result="BackgroundImageFix"/>
<feColorMatrix in="SourceAlpha" type="matrix" values="0 0 0 0 0 0 0 0 0 0 0 0 0 0 0 0 0 0 127 0" result="hardAlpha"/>
<feOffset dy="4.65493"/>
<feGaussianBlur stdDeviation="2.32746"/>
<feComposite in2="hardAlpha" operator="out"/>
<feColorMatrix type="matrix" values="0 0 0 0 0 0 0 0 0 0 0 0 0 0 0 0 0 0 0.25 0"/>
<feBlend mode="normal" in2="BackgroundImageFix" result="effect1_dropShadow_1653_26494"/>
<feBlend mode="normal" in="SourceGraphic" in2="effect1_dropShadow_1653_26494" result="shape"/>
</filter>
</defs>
</svg>
